<svg width="269" height="169" viewBox="0 0 269 169" fill="none" xmlns="http://www.w3.org/2000/svg">
<path d="M405.313 52.2192C368.694 4.77124 296.17 -26.5205 233.879 8.86133C205.78 24.8426 194.685 53.2326 183.963 80.6967L183.911 80.8294C175.154 103.228 166.889 124.368 150.108 139.307C135.158 152.62 115.499 159.072 89.25 159.072C81.5609 159.031 73.8807 158.544 66.2483 157.614C44.1242 155.084 15.9736 139.627 4.95175 115.072C-4.84136 93.244 -0.0508542 67.6026 18.804 40.904C28.875 26.5996 41.3084 18.2518 55.7384 16.0937C82.1556 12.1421 106.452 30.6314 106.701 30.8209C106.776 30.8811 106.824 30.9685 106.835 31.0641C106.846 31.1597 106.819 31.2557 106.759 31.3313C106.73 31.3699 106.694 31.4022 106.653 31.4265C106.611 31.4508 106.565 31.4665 106.517 31.4726C106.469 31.4787 106.421 31.4752 106.374 31.4622C106.328 31.4492 106.285 31.427 106.247 31.3969C106.013 31.2146 81.9436 12.9077 55.8408 16.8155C41.6448 18.9444 29.3797 27.1902 19.3671 41.3268C0.702462 67.7994 -4.03684 93.2002 5.6173 114.766C16.5294 139.081 44.4167 154.384 66.3214 156.936C104.272 161.346 130.741 155.58 149.61 138.782C166.286 123.938 174.536 102.817 183.254 80.4561L183.263 80.433C194.033 52.8594 205.166 24.3569 233.492 8.27807C271.055 -13.1056 307.631 -8.1406 331.664 -0.215604C360.246 9.1967 387.98 28.641 405.847 51.7963L405.313 52.2192Z" fill="#35375B"/>
<path d="M182.491 75.5229L118.172 123.025C118.172 123.025 143.455 160.656 151.577 160.656C159.566 160.656 215.953 121.838 217.643 109.405C218.282 105.21 182.491 75.5229 182.491 75.5229Z" fill="#35375B"/>
<path d="M150.842 152.998C143.942 151.327 118.172 114.607 118.172 114.607L181.632 66.8965C181.632 66.8965 212.651 95.5969 216.755 102.013C219.571 106.379 157.304 154.602 150.842 152.998Z" fill="#FFA27A"/>
<path d="M172.412 105.43L163.832 96.1856L176.497 85.7646L185.077 95.0087L172.412 105.43Z" fill="white"/>
<path d="M172.414 105.903C172.348 105.904 172.283 105.891 172.222 105.864C172.161 105.838 172.106 105.8 172.061 105.752L163.472 96.5074C163.428 96.4602 163.395 96.4048 163.373 96.3444C163.352 96.2841 163.343 96.2201 163.347 96.1562C163.351 96.0919 163.368 96.0291 163.398 95.9718C163.427 95.9146 163.469 95.8642 163.519 95.8241L176.184 85.3841C176.232 85.3371 176.288 85.3005 176.35 85.2766C176.413 85.2526 176.479 85.2419 176.546 85.2452C176.612 85.2485 176.678 85.2656 176.737 85.2955C176.797 85.3253 176.849 85.3673 176.892 85.4187C176.934 85.47 176.965 85.5296 176.983 85.5936C177 85.6576 177.004 85.7246 176.994 85.7902C176.984 85.8558 176.961 85.9186 176.925 85.9745C176.889 86.0305 176.841 86.0783 176.786 86.1149L164.512 96.2132L172.758 105.087C172.846 105.177 172.895 105.298 172.895 105.424C172.895 105.55 172.846 105.671 172.758 105.761C172.713 105.806 172.66 105.842 172.601 105.867C172.542 105.891 172.478 105.904 172.414 105.903Z" fill="#35375B"/>
<path d="M173.748 97.808C173.672 97.8069 173.597 97.7884 173.529 97.7538C173.461 97.7192 173.403 97.6696 173.357 97.6087C173.313 97.534 173.289 97.4488 173.289 97.362C173.289 97.2751 173.313 97.1899 173.357 97.1152L179.914 84.5493C179.98 84.4534 180.079 84.385 180.192 84.3569C180.306 84.3288 180.425 84.343 180.529 84.3968C180.632 84.4506 180.712 84.5402 180.754 84.6488C180.795 84.7574 180.795 84.8773 180.754 84.9858L174.636 96.7261L192.913 94.0401C192.976 94.0308 193.04 94.0338 193.101 94.049C193.163 94.0642 193.221 94.0913 193.272 94.1288C193.323 94.1663 193.366 94.2133 193.398 94.2673C193.431 94.3213 193.453 94.3812 193.462 94.4435C193.471 94.5058 193.468 94.5694 193.453 94.6305C193.438 94.6917 193.411 94.7492 193.373 94.7999C193.335 94.8506 193.288 94.8934 193.234 94.9259C193.179 94.9583 193.119 94.9799 193.056 94.9892L173.853 97.8365L173.748 97.808Z" fill="#35375B"/>
<path d="M143.675 129.071L135.094 119.827L147.76 109.406L156.34 118.65L143.675 129.071Z" fill="white"/>
<path d="M143.673 129.545C143.607 129.546 143.541 129.532 143.48 129.506C143.419 129.48 143.365 129.442 143.32 129.393L134.73 120.149C134.687 120.102 134.653 120.047 134.632 119.986C134.611 119.926 134.602 119.862 134.606 119.798C134.609 119.734 134.626 119.671 134.656 119.614C134.686 119.556 134.727 119.506 134.778 119.466L143.682 112.139C143.73 112.099 143.786 112.069 143.846 112.05C143.905 112.032 143.968 112.025 144.031 112.032C144.093 112.038 144.153 112.056 144.208 112.086C144.263 112.116 144.312 112.157 144.351 112.205C144.391 112.252 144.423 112.307 144.442 112.366C144.461 112.425 144.468 112.488 144.463 112.55C144.458 112.612 144.44 112.672 144.411 112.727C144.382 112.782 144.342 112.83 144.293 112.87L135.77 119.874L144.016 128.748C144.08 128.816 144.122 128.901 144.137 128.992C144.153 129.083 144.141 129.177 144.103 129.262C144.066 129.347 144.004 129.419 143.926 129.469C143.848 129.519 143.756 129.546 143.663 129.545H143.673Z" fill="#35375B"/>
<path d="M143.342 121.364C143.26 121.363 143.18 121.342 143.109 121.301C143.038 121.261 142.979 121.204 142.937 121.134C142.895 121.065 142.871 120.986 142.869 120.904C142.866 120.823 142.884 120.743 142.922 120.671L149.469 108.105C149.53 107.994 149.632 107.911 149.753 107.874C149.874 107.837 150.005 107.848 150.118 107.906C150.229 107.964 150.312 108.064 150.349 108.183C150.387 108.302 150.376 108.431 150.319 108.542L144.201 120.282L162.478 117.605C162.541 117.596 162.605 117.599 162.666 117.614C162.728 117.629 162.785 117.656 162.836 117.694C162.887 117.731 162.93 117.778 162.963 117.832C162.996 117.886 163.017 117.946 163.027 118.009C163.036 118.071 163.033 118.135 163.018 118.196C163.003 118.257 162.975 118.314 162.938 118.365C162.9 118.416 162.853 118.459 162.798 118.491C162.744 118.523 162.684 118.545 162.621 118.554L143.418 121.402L143.342 121.364Z" fill="#35375B"/>
<path d="M56.8066 38.8236C58.0283 36.0428 55.0695 33.3284 47.6537 36.9255C44.6281 38.4345 41.3067 40.9021 42.3089 43.4932C43.1011 45.4957 46.5847 44.9547 48.1022 44.5371L51.29 52.8322L56.5394 50.6398L53.2657 42.098C54.682 41.2898 55.8933 40.1697 56.8066 38.8236Z" fill="#35375B"/>
<path d="M65.2734 67.2209L59.5469 65.2088L70.6659 42.3263C71.0475 41.578 71.684 40.9887 72.4619 40.6637C73.2398 40.3386 74.1085 40.2989 74.9131 40.5515C75.3036 40.7145 75.6573 40.9536 75.9532 41.2548C76.2492 41.556 76.4814 41.9131 76.6363 42.3051C76.7911 42.697 76.8653 43.1158 76.8546 43.5368C76.8439 43.9578 76.7484 44.3723 76.5738 44.756L65.2734 67.2209Z" fill="#35375B"/>
<path d="M56.0035 64.7528L54.3905 70.7985L32.2383 60.3586C31.4828 59.952 30.8851 59.3068 30.5394 58.5248C30.1938 57.7428 30.1199 56.8686 30.3295 56.0402C30.4003 55.6661 30.5578 55.3135 30.7897 55.0105C31.0215 54.7075 31.3212 54.4624 31.6649 54.2947C32.0086 54.127 32.3869 54.0414 32.7698 54.0445C33.1526 54.0477 33.5295 54.1396 33.8704 54.3129L56.0035 64.7528Z" fill="#35375B"/>
<path d="M74.9483 107.338C60.3456 113.384 43.7958 103.105 37.9643 87.92C32.1327 72.7346 38.8233 54.3603 53.3973 48.2861C67.9714 42.2119 84.9888 50.6683 90.8204 65.8537C96.6519 81.0391 89.5224 101.217 74.9483 107.338Z" fill="white"/>
<path d="M53.9995 49.1975C68.0104 43.3417 83.6535 52.0448 89.3132 66.6797C94.973 81.3146 87.0703 99.0626 73.9661 104.491C59.9455 110.338 44.7702 101.929 39.1582 87.3224C33.5462 72.7159 39.979 55.0534 53.9995 49.1691V49.1975ZM33.8611 90.255C41.0957 108.411 58.1608 115.71 76.0276 108.288C93.2073 101.122 99.3633 80.1567 93.2932 64.3639C87.223 48.5711 68.5449 39.7636 53.3886 46.0845C44.9865 49.4638 38.2433 55.972 34.5958 64.2226C30.9483 72.4732 30.6846 81.814 33.8611 90.255Z" fill="#FFA27A"/>
<path d="M65.2059 102.593C62.6376 102.592 60.0926 102.109 57.7041 101.17C54.6775 99.9882 51.9286 98.1983 49.6294 95.912C47.3303 93.6257 45.5303 90.8922 44.3422 87.8825C44.3071 87.7679 44.317 87.6444 44.3697 87.5367C44.4224 87.429 44.5142 87.3452 44.6265 87.3019C44.7388 87.2587 44.8634 87.2593 44.9753 87.3036C45.0872 87.3479 45.1781 87.4326 45.2298 87.5408C46.3631 90.4241 48.0821 93.044 50.2793 95.2371C52.4765 97.4302 55.1048 99.1493 58 100.287C60.5165 101.288 63.2177 101.747 65.9255 101.634C68.6333 101.521 71.2864 100.839 73.7098 99.6322C83.2541 94.8867 88.0262 80.7643 83.8936 69.9257C82.8574 67.1904 81.2804 64.6893 79.2559 62.5702C77.2314 60.451 74.8004 58.7568 72.1064 57.5876C69.9385 56.6222 67.5967 56.1027 65.2217 56.0603C62.8467 56.0179 60.4877 56.4535 58.2863 57.3408C58.2288 57.3655 58.1669 57.3785 58.1042 57.3789C58.0415 57.3794 57.9794 57.3673 57.9216 57.3434C57.8637 57.3195 57.8112 57.2842 57.7673 57.2398C57.7234 57.1953 57.6889 57.1426 57.6659 57.0846C57.6179 56.9699 57.6169 56.8411 57.6633 56.7257C57.7097 56.6104 57.7998 56.5177 57.9141 56.4677C60.2344 55.5288 62.7218 55.0667 65.2265 55.1091C67.7312 55.1515 70.2013 55.6976 72.4882 56.7144C75.295 57.933 77.8289 59.6965 79.9414 61.9016C82.054 64.1066 83.7026 66.7088 84.7907 69.5556C89.1143 80.8118 84.0367 95.5416 74.1298 100.448C71.3621 101.84 68.3074 102.575 65.2059 102.593Z" fill="#35375B"/>
<path d="M73.2706 72.7437L74.1487 73.6928L66.4561 76.4452C66.3077 76.3797 66.1498 76.3381 65.9884 76.3218L60.8059 64.2209L61.8271 64.0975L58.7825 60.6523L58.9256 65.3124L59.8037 64.6575L64.4327 77.1665C64.3139 77.3843 64.2432 77.6247 64.2251 77.8718C64.207 78.1189 64.242 78.367 64.3277 78.5996C64.3976 78.8017 64.5081 78.9876 64.6525 79.1459C64.797 79.3042 64.9723 79.4316 65.1678 79.5204C65.3634 79.6092 65.575 79.6575 65.7899 79.6624C66.0048 79.6672 66.2185 79.6285 66.4179 79.5487C66.6838 79.4245 66.912 79.2327 67.0796 78.9927C67.2472 78.7528 67.3481 78.4731 67.3723 78.182L74.6641 74.9456L74.9027 76.1889L77.766 72.7722L73.2706 72.7437Z" fill="#35375B"/>
<path d="M230.423 168.605C230.365 168.606 230.308 168.593 230.257 168.565C230.21 168.544 230.168 168.514 230.133 168.476C230.098 168.439 230.07 168.395 230.053 168.346C230.035 168.298 230.027 168.247 230.03 168.196C230.033 168.145 230.046 168.094 230.068 168.048L244.909 136.699C244.93 136.652 244.961 136.61 244.999 136.575C245.037 136.54 245.082 136.513 245.131 136.495C245.179 136.477 245.231 136.469 245.283 136.471C245.335 136.473 245.386 136.485 245.433 136.507C245.48 136.528 245.522 136.559 245.557 136.597C245.593 136.635 245.62 136.679 245.638 136.728C245.656 136.776 245.664 136.828 245.662 136.879C245.66 136.931 245.648 136.981 245.626 137.028L230.777 168.377C230.748 168.446 230.698 168.504 230.635 168.545C230.572 168.585 230.498 168.606 230.423 168.605Z" fill="#35375B"/>
<path d="M193.128 153.65C193.071 153.65 193.016 153.638 192.964 153.615C192.913 153.592 192.866 153.559 192.828 153.517C192.761 153.438 192.727 153.335 192.734 153.231C192.742 153.127 192.79 153.03 192.868 152.961L243.064 109.323C243.139 109.25 243.24 109.21 243.344 109.21C243.449 109.21 243.549 109.25 243.624 109.323C243.697 109.397 243.737 109.497 243.737 109.601C243.737 109.705 243.697 109.805 243.624 109.879L193.427 153.525C193.348 153.605 193.24 153.65 193.128 153.65Z" fill="#35375B"/>
</svg>
