<svg width="28" height="28" viewBox="0 0 28 28" fill="none" xmlns="http://www.w3.org/2000/svg">
<path d="M18.5453 14.1421C18.0276 14.1421 17.6078 14.5618 17.6078 15.0796C17.6078 15.5973 18.0276 16.0171 18.5453 16.0171H21.9544C22.4722 16.0171 22.8919 15.5973 22.8919 15.0796C22.8919 14.5618 22.4722 14.1421 21.9544 14.1421H18.5453Z" fill="#FD4C00"/>
<path fill-rule="evenodd" clip-rule="evenodd" d="M23.5592 3.22184C23.656 3.77679 23.6794 4.43628 23.6859 5.1908C23.7944 5.24736 23.9008 5.30757 24.0053 5.37165C24.9725 5.9643 25.7856 6.77743 26.3782 7.74455C27.0308 8.80937 27.268 10.0435 27.3661 11.612C27.4374 12.7531 27.4374 14.141 27.4374 15.8457V15.881C27.4374 16.8585 27.4374 17.7292 27.4245 18.5042C27.3845 20.9141 27.2285 22.618 26.3782 24.0055C25.7856 24.9726 24.9725 25.7857 24.0053 26.3784C23.0818 26.9443 22.0342 27.1965 20.7547 27.3182C19.4995 27.4375 17.9284 27.4375 15.9242 27.4375H12.0757C10.0715 27.4375 8.50022 27.4375 7.24501 27.3182C5.96557 27.1965 4.91794 26.9443 3.99442 26.3784C3.0273 25.7857 2.21417 24.9726 1.62152 24.0055C1.05559 23.0819 0.803359 22.0343 0.681709 20.7549C0.562361 19.4996 0.562367 17.9284 0.562375 15.9242L0.562475 15.267C0.546003 14.6493 0.551062 13.9588 0.556516 13.2142C0.55939 12.8217 0.562375 12.4143 0.562375 11.9945L0.562375 11.9403C0.562365 9.80005 0.562358 8.12027 0.700904 6.7871C0.842213 5.42735 1.13606 4.31828 1.79878 3.36732C2.19918 2.79278 2.68495 2.28591 3.23909 1.86617C4.16199 1.16713 5.24195 0.856375 6.55898 0.707615C7.84389 0.562482 9.46033 0.562493 11.508 0.562505L18.3431 0.562502C19.3412 0.562458 20.1873 0.562422 20.8618 0.656964C21.5822 0.757944 22.2434 0.982583 22.7724 1.5341C23.2316 2.01282 23.4491 2.59035 23.5592 3.22184ZM18.2771 2.43751C19.3592 2.43751 20.0725 2.43967 20.6015 2.51381C21.0994 2.5836 21.2931 2.70049 21.4193 2.83203C21.536 2.95369 21.6412 3.13735 21.7121 3.54383C21.7595 3.81561 21.7853 4.14779 21.799 4.57274C21.2831 4.47831 20.7262 4.42012 20.1197 4.38269C18.9822 4.3125 17.5998 4.3125 15.9038 4.31251H12.0757C10.0714 4.3125 8.50024 4.31249 7.24501 4.43184C5.96557 4.55349 4.91794 4.80572 3.99442 5.37165C3.49656 5.67674 3.03952 6.04025 2.63235 6.45311C2.76955 5.54395 2.99424 4.93131 3.33708 4.43936C3.62655 4.02398 3.97582 3.6603 4.37121 3.36081C4.91837 2.94637 5.62193 2.70038 6.76942 2.57077C7.93687 2.4389 9.44746 2.43751 11.5662 2.43751H18.2771ZM4.9741 6.97035C5.55351 6.61529 6.28029 6.40702 7.42248 6.29842C8.57863 6.18849 10.0608 6.1875 12.1249 6.1875H15.8749C17.6057 6.1875 18.931 6.18791 20.0043 6.25413C21.0765 6.32029 21.8261 6.44928 22.417 6.67369C22.6383 6.75774 22.8386 6.85576 23.0257 6.97035C23.7405 7.4084 24.3415 8.00941 24.7795 8.72423C25.0878 9.22729 25.2842 9.83875 25.4019 10.733H18.5453C16.1448 10.733 14.1987 12.679 14.1987 15.0796C14.1987 17.4801 16.1448 19.4262 18.5453 19.4262H25.5241C25.4518 21.2516 25.2526 22.2538 24.7795 23.0258C24.3415 23.7406 23.7405 24.3416 23.0257 24.7797C22.4462 25.1347 21.7195 25.343 20.5773 25.4516C19.4211 25.5615 17.9389 25.5625 15.8749 25.5625H12.1249C10.0608 25.5625 8.57863 25.5615 7.42248 25.4516C6.28029 25.343 5.55351 25.1347 4.9741 24.7797C4.25927 24.3416 3.65827 23.7406 3.22022 23.0258C2.86516 22.4464 2.65689 21.7196 2.54829 20.5774C2.43836 19.4213 2.43738 17.9391 2.43738 15.875C2.43738 13.811 2.43836 12.3288 2.54829 11.1726C2.65689 10.0304 2.86516 9.30364 3.22022 8.72423C3.65827 8.00941 4.25928 7.4084 4.9741 6.97035ZM16.0737 15.0796C16.0737 13.7145 17.1803 12.608 18.5453 12.608H25.5343C25.5621 13.5129 25.5624 14.5805 25.5624 15.875C25.5624 16.4799 25.5624 17.0363 25.5594 17.5512H18.5453C17.1803 17.5512 16.0737 16.4446 16.0737 15.0796Z" fill="#FD4C00"/>
</svg>
