<svg width="17" height="23" viewBox="0 0 17 23" fill="none" xmlns="http://www.w3.org/2000/svg">
<path d="M10.7082 2.05518C11.3228 1.74964 12.0452 1.65873 12.7601 1.85032C14.3161 2.26723 15.2395 3.86655 14.8225 5.42249L12.45 14.2768C12.0331 15.8328 10.4338 16.7561 8.87786 16.3392C7.32192 15.9223 6.39855 14.323 6.81547 12.767L7.76447 9.2253C7.87168 8.8252 7.63424 8.41395 7.23414 8.30674C6.83404 8.19954 6.42279 8.43698 6.31558 8.83708L5.36658 12.3788C4.73525 14.7349 6.13349 17.1568 8.48963 17.7881C10.8458 18.4194 13.2676 17.0212 13.8989 14.665L16.2714 5.81072C16.9028 3.45458 15.5045 1.03275 13.1484 0.401427C12.0669 0.111652 10.9698 0.249988 10.0405 0.711984C9.47059 0.99527 8.96257 1.4007 8.55804 1.90504C8.29886 2.22815 8.3507 2.70019 8.67381 2.95936C8.99693 3.21853 9.46896 3.1667 9.72813 2.84358C9.99471 2.51125 10.3305 2.24292 10.7082 2.05518Z" fill="#FD4C00"/>
<path d="M4.22274 8.2763C4.63966 6.72036 6.23897 5.79699 7.79492 6.21391C9.35086 6.63082 10.2742 8.23013 9.85731 9.78608L8.90831 13.3278C8.8011 13.7279 9.03854 14.1392 9.43864 14.2464C9.83874 14.3536 10.25 14.1161 10.3572 13.716L11.3062 10.1743C11.9375 7.81816 10.5393 5.39634 8.18314 4.76502C5.827 4.13369 3.40518 5.53193 2.77385 7.88807L0.401346 16.7424C-0.22998 19.0985 1.16826 21.5204 3.5244 22.1517C4.60586 22.4415 5.70295 22.3031 6.63232 21.8411C7.20219 21.5578 7.71021 21.1524 8.11474 20.6481C8.37391 20.325 8.32208 19.8529 7.99897 19.5937C7.67585 19.3346 7.20382 19.3864 6.94464 19.7095C6.67807 20.0419 6.34228 20.3102 5.96461 20.4979C5.34997 20.8035 4.62762 20.8944 3.91263 20.7028C2.35669 20.2859 1.43332 18.6866 1.85023 17.1306L4.22274 8.2763Z" fill="#FD4C00"/>
</svg>
