<svg width="28" height="30" viewBox="0 0 28 30" fill="none" xmlns="http://www.w3.org/2000/svg">
<path d="M19.7211 11.8502C20.0526 11.4524 19.9989 10.8613 19.6011 10.5298C19.2034 10.1983 18.6122 10.2521 18.2807 10.6498L13.9513 15.8452C13.4878 16.4014 13.2032 16.7394 12.9687 16.9511C12.8599 17.0493 12.7954 17.0885 12.7645 17.1034C12.7582 17.1065 12.7538 17.1083 12.7509 17.1093C12.7509 17.1093 12.7509 17.1093 12.7509 17.1093C12.7481 17.1083 12.7436 17.1065 12.7374 17.1034C12.7064 17.0885 12.6419 17.0493 12.5332 16.9511C12.2987 16.7394 12.0141 16.4014 11.5506 15.8452L9.72114 13.6498C9.38968 13.2521 8.79852 13.1983 8.40076 13.5298C8.00301 13.8613 7.94926 14.4524 8.28073 14.8502L10.1501 17.0934C10.5607 17.5863 10.9308 18.0305 11.2766 18.3427C11.6527 18.6824 12.1266 18.985 12.7509 18.985C13.3753 18.985 13.8491 18.6824 14.2253 18.3427C14.571 18.0305 14.9412 17.5863 15.3518 17.0935L19.7211 11.8502Z" fill="#FD4C00"/>
<path fill-rule="evenodd" clip-rule="evenodd" d="M18.4564 3.44579C17.1772 -1.03662 10.8247 -1.03662 9.5455 3.44579C9.13698 4.87724 7.66634 5.72632 6.22241 5.36438C1.70092 4.23101 -1.4753 9.73239 1.76696 13.0814C2.80238 14.1509 2.80238 15.8491 1.76696 16.9186C-1.47531 20.2676 1.70092 25.769 6.22241 24.6357C7.66634 24.2737 9.13698 25.1228 9.5455 26.5542C10.8247 31.0367 17.1772 31.0367 18.4564 26.5542C18.8649 25.1228 20.3355 24.2737 21.7795 24.6357C26.301 25.769 29.4772 20.2676 26.2349 16.9186C25.1995 15.8491 25.1995 14.1509 26.2349 13.0814C29.4772 9.73239 26.301 4.23101 21.7795 5.36438C20.3355 5.72632 18.8649 4.87724 18.4564 3.44579ZM11.3485 3.96035C12.1101 1.29186 15.8918 1.29186 16.6534 3.96035C17.3396 6.36484 19.8099 7.79108 22.2354 7.18311C24.9271 6.50839 26.818 9.78349 24.8878 11.7773C23.1485 13.5738 23.1485 16.4263 24.8878 18.2228C26.818 20.2165 24.9271 23.4916 22.2354 22.8169C19.8099 22.209 17.3396 23.6352 16.6534 26.0397C15.8918 28.7082 12.1101 28.7082 11.3485 26.0397C10.6623 23.6352 8.19197 22.209 5.76652 22.8169C3.07477 23.4916 1.18389 20.2165 3.11409 18.2228C4.85333 16.4263 4.85334 13.5738 3.11409 11.7773C1.18389 9.78349 3.07477 6.50839 5.76652 7.18311C8.19198 7.79108 10.6623 6.36484 11.3485 3.96035Z" fill="#FD4C00"/>
</svg>
