<svg width="4" height="8" viewBox="0 0 4 8" fill="none" xmlns="http://www.w3.org/2000/svg">
<path d="M2.98201 0.311703C3.17814 0.117314 3.49472 0.118726 3.68911 0.314857C3.8835 0.510989 3.88209 0.827568 3.68596 1.02196L2.51064 2.18683C2.03365 2.65959 1.70645 2.98495 1.48505 3.26063C1.26998 3.52843 1.1962 3.70044 1.17656 3.85449C1.16424 3.95122 1.16424 4.0491 1.17656 4.14583C1.1962 4.29988 1.26998 4.4719 1.48505 4.73969C1.70645 5.01538 2.03365 5.34074 2.51064 5.8135L3.68596 6.97837C3.88209 7.17276 3.8835 7.48934 3.68911 7.68547C3.49472 7.8816 3.17814 7.88301 2.98201 7.68862L1.78553 6.50277C1.33488 6.05614 0.966559 5.6911 0.705355 5.36586C0.433735 5.02764 0.237114 4.68435 0.18459 4.27227C0.16156 4.09159 0.16156 3.90874 0.18459 3.72805C0.237114 3.31598 0.433736 2.97269 0.705355 2.63447C0.96656 2.30922 1.33487 1.94419 1.78552 1.49756L2.98201 0.311703Z" fill="#848498"/>
</svg>
