<svg width="34" height="26" viewBox="0 0 34 26" fill="none" xmlns="http://www.w3.org/2000/svg">
<path d="M19.5843 25.9731C26.7738 26.0075 33.3366 20.2185 33.3366 13.1758C33.3366 5.475 26.7738 0.15209 19.5843 0.154298H13.3971C6.12147 0.15209 0.132812 5.47626 0.132812 13.1758C0.132812 20.2201 6.12147 26.0075 13.3971 25.9731H19.5843Z" fill="#006095"/>
<path d="M16.1565 20.0335V6.04945C19.0202 7.12772 21.0531 9.84909 21.058 13.041C21.0531 16.2336 19.0202 18.9534 16.1565 20.0335ZM5.79575 13.041C5.80218 9.85098 7.83191 7.13119 10.694 6.04976V20.0307C7.83191 18.9502 5.80218 16.232 5.79575 13.041ZM13.4257 1.22168C6.77753 1.22389 1.39028 6.51336 1.38867 13.041C1.39028 19.568 6.77753 24.8566 13.4257 24.8584C20.0762 24.8566 25.4644 19.568 25.4654 13.041C25.4644 6.51336 20.0762 1.22389 13.4257 1.22168Z" fill="white"/>
</svg>
