<svg width="390" height="236" viewBox="0 0 390 236" fill="none" xmlns="http://www.w3.org/2000/svg">
<path d="M332.939 236C320.213 236 309.804 231.941 302.831 226.908C297.91 232.76 290.704 235.495 281.291 235.058C263.962 234.26 259.179 213.427 259.132 213.214C259.092 213.01 259.134 212.798 259.248 212.624C259.363 212.45 259.54 212.328 259.743 212.284C259.946 212.239 260.158 212.276 260.334 212.386C260.51 212.497 260.636 212.672 260.685 212.874C260.728 213.071 265.261 232.723 281.366 233.468C290.301 233.877 296.987 231.414 301.579 225.966C300.943 225.466 300.339 224.956 299.771 224.445C294.925 220.083 292.379 215.289 292.782 211.299C293.281 206.352 295.646 202.697 299.098 201.532C300.391 201.099 301.782 201.054 303.1 201.402C304.419 201.749 305.608 202.475 306.522 203.489C308.038 205.117 311.14 209.953 307.137 219.641C306.272 221.775 305.152 223.796 303.801 225.658C312.763 232.106 327.663 236.888 345.798 233.021C374.523 226.897 390.002 202.037 388.257 164.808C387.133 140.676 378.458 113.501 365.063 92.1257C355.327 76.5913 344.049 65.249 332.24 58.8703C327.304 62.2279 321.957 64.9332 316.332 66.9195C307.847 70.0157 300.726 69.4997 297.242 65.531C296.306 64.4877 295.719 63.1761 295.565 61.7807C295.411 60.3854 295.697 58.9767 296.383 57.7531C298.366 53.9653 304.337 50.3743 315.085 51.6245C321.062 52.3648 326.854 54.1929 332.176 57.019C351.568 43.0646 348.726 24.285 346.074 15.7517C338.592 -8.34265 310.292 -30.0802 283.609 -23.0844C283.404 -23.0308 283.187 -23.0609 283.004 -23.1681C282.822 -23.2754 282.689 -23.451 282.636 -23.6563C282.582 -23.8616 282.612 -24.0798 282.719 -24.2628C282.826 -24.4459 283.001 -24.5789 283.206 -24.6325C310.727 -31.8252 339.897 -9.48643 347.596 15.2676C350.778 25.599 350.115 35.6059 345.602 44.2031C342.7 49.5845 338.626 54.2398 333.682 57.8223C345.496 64.3978 356.733 75.7933 366.421 91.2585C379.958 112.863 388.724 140.32 389.864 164.717C391.645 202.808 375.711 228.265 346.148 234.564C341.808 235.504 337.38 235.985 332.939 236ZM301.346 202.75C300.754 202.751 300.167 202.85 299.607 203.043C296.759 204.005 294.803 207.15 294.363 211.459C294.018 214.89 296.436 219.3 300.832 223.259C301.362 223.748 301.951 224.232 302.56 224.711C303.822 222.948 304.87 221.04 305.684 219.029C308.213 212.906 308.096 207.501 305.376 204.58C304.868 204.011 304.247 203.555 303.553 203.24C302.859 202.925 302.108 202.758 301.346 202.75ZM310.891 52.9651C303.467 52.9651 299.326 55.6624 297.841 58.4926C297.311 59.4297 297.086 60.5099 297.199 61.5816C297.313 62.6532 297.758 63.6623 298.472 64.467C300.795 67.127 306.564 68.7815 315.791 65.4086C321.03 63.5694 326.032 61.1102 330.691 58.083C325.761 55.5584 320.43 53.9164 314.937 53.2311C313.591 53.0633 312.237 52.9745 310.88 52.9651H310.891Z" fill="#35375B"/>
<path d="M265.897 214.172C262.567 214.172 255.382 213.576 246.362 209.336C235.099 204.016 218.756 191.78 204.874 163.419C204.344 162.307 203.633 160.493 202.822 158.402C201.284 154.401 199.37 149.427 197.408 146.368C197 145.724 196.347 144.831 195.552 143.788C193.012 140.383 189.852 136.143 189.852 133.414C189.852 130.903 191.315 128.392 193.86 126.498C196.984 124.21 200.913 123.428 204.126 124.455C213.083 127.323 219.843 133.728 222.686 142.011C228.37 158.62 240.333 158.391 240.847 158.375C241.058 158.371 241.262 158.449 241.417 158.593C241.571 158.737 241.664 158.936 241.675 159.147C241.682 159.358 241.606 159.563 241.462 159.717C241.319 159.872 241.121 159.963 240.911 159.971C240.773 159.971 227.267 160.312 221.18 142.527C218.528 134.717 212.112 128.695 203.639 125.966C200.945 125.104 197.477 125.817 194.799 127.775C192.678 129.339 191.442 131.382 191.442 133.377C191.442 135.574 194.682 139.92 196.83 142.798C197.62 143.862 198.304 144.777 198.744 145.458C200.796 148.65 202.742 153.715 204.307 157.78C205.102 159.844 205.786 161.621 206.301 162.674C219.95 190.546 235.927 202.574 246.93 207.798C258.823 213.416 267.61 212.464 267.711 212.453C267.922 212.429 268.134 212.489 268.3 212.621C268.467 212.753 268.574 212.947 268.599 213.158C268.624 213.37 268.563 213.583 268.432 213.75C268.3 213.917 268.107 214.025 267.896 214.049C267.233 214.127 266.565 214.168 265.897 214.172Z" fill="#35375B"/>
<path d="M246.738 157.636C246.615 157.635 246.494 157.606 246.385 157.55C246.276 157.495 246.18 157.415 246.107 157.317C246.033 157.219 245.983 157.105 245.96 156.984C245.937 156.863 245.941 156.739 245.974 156.62L249.734 143.32C249.791 143.116 249.927 142.944 250.112 142.841C250.296 142.737 250.514 142.712 250.717 142.77C250.92 142.827 251.092 142.964 251.195 143.149C251.298 143.334 251.324 143.553 251.266 143.756L247.506 157.056C247.458 157.224 247.357 157.371 247.218 157.475C247.08 157.58 246.911 157.636 246.738 157.636Z" fill="#35375B"/>
<path d="M236.511 122.812C236.352 122.812 236.196 122.764 236.065 122.673L230.323 118.758L214.043 116.289C212.564 116.821 203.353 119.901 199.286 119.433C191.205 118.508 191.109 110.794 191.109 110.714C191.109 110.582 191.142 110.453 191.204 110.337C191.266 110.221 191.355 110.122 191.465 110.049C192.09 109.634 206.842 99.8611 212.341 98.9886C219.16 97.9246 233.647 99.3556 240.525 101.798C247.201 104.165 264.254 117.029 264.976 117.571C265.059 117.634 265.13 117.713 265.183 117.803C265.236 117.893 265.271 117.993 265.286 118.097C265.301 118.201 265.295 118.306 265.269 118.408C265.243 118.509 265.197 118.605 265.135 118.689C265.072 118.772 264.994 118.843 264.904 118.896C264.814 118.95 264.714 118.985 264.611 119C264.507 119.015 264.402 119.009 264.301 118.983C264.2 118.957 264.105 118.911 264.021 118.848C263.846 118.715 246.443 105.591 239.995 103.303C233.303 100.93 219.214 99.5206 212.591 100.569C207.882 101.308 195.092 109.575 192.727 111.129C192.859 112.565 193.734 117.188 199.466 117.848C203.449 118.3 213.603 114.757 213.704 114.72C213.826 114.676 213.957 114.663 214.086 114.683L230.736 117.21C230.854 117.226 230.967 117.269 231.065 117.337L236.962 121.354C237.102 121.45 237.209 121.589 237.265 121.75C237.321 121.912 237.324 122.087 237.274 122.25C237.223 122.413 237.122 122.556 236.985 122.657C236.847 122.758 236.681 122.812 236.511 122.812Z" fill="#35375B"/>
<path d="M188.708 138.57C188.648 138.578 188.588 138.578 188.528 138.57C186.857 138.219 185.32 137.397 184.099 136.2C182.878 135.003 182.023 133.481 181.634 131.813C180.982 128.882 181.884 126.025 183.994 124.365C184.161 124.242 184.368 124.189 184.573 124.217C184.778 124.245 184.964 124.352 185.092 124.515C185.22 124.678 185.279 124.885 185.257 125.092C185.235 125.298 185.134 125.488 184.975 125.621C183.353 126.897 182.668 129.137 183.188 131.473C183.502 132.85 184.206 134.107 185.216 135.092C186.225 136.078 187.497 136.75 188.878 137.027C189.089 137.05 189.282 137.156 189.415 137.323C189.547 137.489 189.609 137.701 189.586 137.913C189.563 138.124 189.457 138.318 189.291 138.451C189.125 138.584 188.914 138.646 188.703 138.623L188.708 138.57Z" fill="#35375B"/>
<path d="M283.404 133.233C283.298 133.232 283.192 133.21 283.095 133.168C282.997 133.126 282.908 133.065 282.834 132.988C282.76 132.912 282.702 132.821 282.663 132.721C282.625 132.622 282.606 132.515 282.609 132.408C282.609 132.329 282.832 124.029 279.984 121.04C277.136 118.05 264.331 112.788 264.198 112.735L264.092 112.682C263.853 112.538 240.479 98.5306 232.027 98.5306H231.952C226.984 98.5785 225.176 100.26 225.16 100.276C225.085 100.35 224.998 100.408 224.901 100.448C224.804 100.488 224.7 100.509 224.596 100.508C224.491 100.508 224.387 100.487 224.291 100.447C224.194 100.406 224.107 100.347 224.033 100.273C223.959 100.198 223.901 100.11 223.861 100.013C223.821 99.916 223.801 99.812 223.801 99.7071C223.801 99.6021 223.822 99.4982 223.862 99.4013C223.902 99.3044 223.961 99.2164 224.035 99.1424C224.126 99.0572 226.236 97.0144 231.936 96.9346H232.016C240.792 96.9346 263.302 110.346 264.855 111.299C265.916 111.735 278.112 116.794 281.135 119.954C284.438 123.428 284.21 132.105 284.194 132.478C284.185 132.681 284.097 132.873 283.95 133.014C283.803 133.155 283.608 133.233 283.404 133.233Z" fill="#35375B"/>
<path d="M307.489 191.084C307.308 191.083 307.132 191.021 306.991 190.908C306.582 190.584 296.915 182.817 294.762 179.125C290.462 171.783 286.278 147.125 286.124 146.077C286.107 145.974 286.11 145.868 286.133 145.766C286.157 145.664 286.2 145.568 286.261 145.483C286.321 145.398 286.398 145.326 286.487 145.271C286.575 145.215 286.674 145.178 286.777 145.162C286.88 145.144 286.985 145.147 287.087 145.171C287.189 145.194 287.285 145.237 287.371 145.298C287.456 145.359 287.528 145.436 287.584 145.525C287.639 145.614 287.677 145.713 287.694 145.816C287.736 146.066 291.979 171.224 296.136 178.316C298.146 181.753 307.887 189.584 307.982 189.663C308.11 189.767 308.203 189.907 308.249 190.066C308.294 190.224 308.29 190.393 308.235 190.548C308.181 190.704 308.081 190.839 307.947 190.935C307.813 191.031 307.653 191.083 307.489 191.084Z" fill="#35375B"/>
<path d="M278.985 129.562C278.821 129.56 278.662 129.509 278.528 129.414C278.394 129.319 278.293 129.185 278.237 129.03C277.809 127.91 277.31 126.819 276.742 125.763C275.597 123.635 271.249 122.247 269.668 121.901C269.564 121.881 269.465 121.84 269.377 121.781C269.289 121.722 269.213 121.645 269.155 121.556C269.096 121.468 269.056 121.368 269.037 121.263C269.017 121.159 269.019 121.051 269.042 120.947C269.064 120.843 269.108 120.745 269.169 120.658C269.23 120.571 269.308 120.497 269.398 120.44C269.488 120.384 269.588 120.346 269.693 120.329C269.798 120.313 269.905 120.317 270.008 120.342C270.268 120.401 276.424 121.784 278.147 125.008C278.751 126.129 279.282 127.287 279.738 128.476C279.812 128.675 279.804 128.894 279.717 129.087C279.629 129.279 279.469 129.429 279.272 129.503C279.18 129.539 279.083 129.559 278.985 129.562Z" fill="#35375B"/>
<path d="M236.374 159.227C236.203 159.229 236.037 159.176 235.898 159.075C235.76 158.974 235.658 158.832 235.607 158.668C235.556 158.505 235.558 158.329 235.614 158.167C235.67 158.005 235.777 157.866 235.918 157.769L248.258 149.215C248.431 149.094 248.646 149.048 248.853 149.086C249.061 149.124 249.246 149.243 249.366 149.417C249.486 149.591 249.532 149.806 249.495 150.015C249.457 150.223 249.338 150.408 249.164 150.529L236.825 159.083C236.693 159.176 236.536 159.226 236.374 159.227Z" fill="#35375B"/>
<path d="M194.652 148.524C193.31 148.533 191.983 148.245 190.765 147.682C189.547 147.118 188.468 146.292 187.604 145.263C186.714 144.215 186.232 142.879 186.246 141.502C186.261 140.126 186.772 138.801 187.684 137.772L190.367 134.697C190.508 134.538 190.706 134.441 190.918 134.428C191.022 134.421 191.128 134.436 191.227 134.47C191.326 134.504 191.418 134.558 191.497 134.628C191.575 134.698 191.639 134.782 191.685 134.877C191.732 134.972 191.758 135.075 191.765 135.18C191.771 135.285 191.757 135.391 191.723 135.49C191.689 135.59 191.635 135.682 191.565 135.761L188.877 138.836C188.219 139.573 187.85 140.525 187.836 141.514C187.822 142.503 188.166 143.464 188.803 144.22C191.067 146.816 194.105 147.555 197.849 146.428C197.951 146.391 198.059 146.376 198.166 146.383C198.274 146.39 198.379 146.419 198.475 146.467C198.572 146.516 198.657 146.584 198.726 146.667C198.795 146.75 198.847 146.847 198.878 146.95C198.909 147.054 198.919 147.163 198.906 147.27C198.894 147.378 198.86 147.482 198.806 147.576C198.753 147.67 198.681 147.752 198.595 147.817C198.508 147.882 198.41 147.929 198.305 147.954C197.122 148.322 195.891 148.514 194.652 148.524Z" fill="#35375B"/>
<path d="M238.087 145.124H238.05L222.449 144.353C222.239 144.34 222.042 144.245 221.901 144.088C221.76 143.93 221.686 143.724 221.696 143.512C221.7 143.407 221.724 143.304 221.768 143.208C221.812 143.113 221.875 143.027 221.953 142.957C222.03 142.886 222.121 142.832 222.22 142.798C222.319 142.764 222.424 142.75 222.529 142.757L238.124 143.528C238.228 143.531 238.331 143.554 238.427 143.596C238.522 143.638 238.609 143.699 238.681 143.775C238.753 143.851 238.81 143.94 238.847 144.038C238.885 144.136 238.903 144.24 238.901 144.345C238.898 144.45 238.875 144.553 238.833 144.649C238.791 144.745 238.73 144.831 238.655 144.904C238.579 144.976 238.49 145.033 238.393 145.07C238.295 145.108 238.191 145.127 238.087 145.124Z" fill="#35375B"/>
<path d="M202.208 156.887C193.681 156.887 192.207 148.907 192.191 148.817C192.173 148.712 192.176 148.605 192.2 148.501C192.223 148.397 192.267 148.299 192.328 148.213C192.39 148.126 192.467 148.052 192.557 147.996C192.647 147.939 192.747 147.901 192.851 147.883C192.956 147.865 193.063 147.868 193.166 147.892C193.269 147.916 193.367 147.959 193.453 148.021C193.54 148.082 193.613 148.16 193.67 148.25C193.726 148.34 193.764 148.441 193.782 148.545C193.83 148.833 195.118 155.461 202.568 155.286C202.673 155.283 202.777 155.301 202.874 155.338C202.972 155.376 203.061 155.432 203.137 155.504C203.213 155.577 203.274 155.663 203.316 155.759C203.359 155.855 203.382 155.958 203.385 156.063C203.388 156.167 203.37 156.272 203.333 156.37C203.295 156.467 203.239 156.557 203.167 156.633C203.095 156.709 203.009 156.77 202.914 156.813C202.818 156.856 202.715 156.879 202.611 156.882L202.208 156.887Z" fill="#35375B"/>
<path d="M192.044 113.567C191.988 113.574 191.931 113.574 191.875 113.567L184.345 111.971C184.138 111.926 183.958 111.801 183.843 111.623C183.728 111.445 183.688 111.228 183.733 111.021C183.777 110.813 183.901 110.632 184.079 110.517C184.256 110.402 184.472 110.362 184.679 110.406L192.209 112.034C192.42 112.056 192.613 112.161 192.747 112.326C192.881 112.492 192.944 112.703 192.922 112.915C192.9 113.126 192.796 113.321 192.631 113.455C192.466 113.589 192.255 113.652 192.044 113.63V113.567Z" fill="#35375B"/>
<path d="M287.618 134.213C287.563 134.218 287.508 134.218 287.453 134.213L210.034 117.481C209.928 117.464 209.827 117.424 209.737 117.366C209.646 117.308 209.569 117.232 209.508 117.143C209.448 117.053 209.406 116.953 209.386 116.847C209.365 116.741 209.366 116.632 209.389 116.527C209.411 116.421 209.455 116.322 209.517 116.234C209.579 116.146 209.658 116.071 209.75 116.015C209.842 115.958 209.944 115.921 210.05 115.905C210.156 115.889 210.265 115.895 210.368 115.923L287.788 132.649C287.892 132.66 287.993 132.692 288.086 132.742C288.178 132.792 288.259 132.861 288.325 132.943C288.391 133.025 288.44 133.119 288.47 133.22C288.5 133.321 288.509 133.427 288.498 133.532C288.487 133.637 288.455 133.738 288.405 133.831C288.355 133.923 288.287 134.005 288.205 134.071C288.123 134.137 288.03 134.187 287.929 134.217C287.828 134.246 287.722 134.256 287.618 134.245V134.213Z" fill="#35375B"/>
<path d="M283.828 149.157C283.767 149.165 283.704 149.165 283.643 149.157L215.185 132.516C215.079 132.496 214.978 132.454 214.888 132.394C214.798 132.334 214.721 132.255 214.663 132.164C214.604 132.073 214.564 131.971 214.546 131.864C214.528 131.757 214.532 131.647 214.558 131.542C214.583 131.437 214.63 131.337 214.695 131.251C214.761 131.164 214.843 131.092 214.937 131.038C215.031 130.984 215.134 130.95 215.242 130.938C215.349 130.926 215.458 130.936 215.562 130.968L284.014 147.603C284.225 147.628 284.417 147.736 284.549 147.903C284.681 148.07 284.741 148.283 284.717 148.494C284.692 148.706 284.585 148.899 284.418 149.031C284.251 149.164 284.039 149.224 283.828 149.199V149.157Z" fill="#35375B"/>
<path d="M194.635 127.477C194.574 127.486 194.511 127.486 194.45 127.477L181.193 124.253C181.087 124.234 180.986 124.192 180.896 124.132C180.806 124.071 180.729 123.993 180.67 123.902C180.612 123.811 180.572 123.709 180.554 123.602C180.536 123.495 180.54 123.385 180.566 123.28C180.591 123.174 180.638 123.075 180.703 122.989C180.768 122.902 180.85 122.829 180.944 122.776C181.038 122.722 181.142 122.688 181.25 122.676C181.357 122.664 181.466 122.674 181.57 122.705L194.826 125.924C195.037 125.949 195.23 126.056 195.362 126.224C195.493 126.391 195.553 126.603 195.529 126.815C195.504 127.027 195.397 127.22 195.23 127.352C195.064 127.484 194.852 127.545 194.641 127.52L194.635 127.477Z" fill="#35375B"/>
<path d="M284.156 149.199C283.977 149.201 283.799 149.179 283.626 149.136C281.218 148.518 281.011 144.05 282.035 139.948C283.058 135.846 285.386 132.026 287.794 132.643C290.201 133.261 290.408 137.729 289.384 141.826C288.425 145.63 286.362 149.199 284.156 149.199ZM287.338 134.176C286.441 134.176 284.601 136.49 283.626 140.342C282.602 144.374 283.202 147.369 284.05 147.587C284.898 147.806 286.855 145.459 287.878 141.432C288.902 137.405 288.297 134.404 287.449 134.186L287.338 134.176Z" fill="#35375B"/>
<path d="M173.791 121.286C173.628 121.286 173.469 121.236 173.335 121.142L165.074 115.391C164.57 115.04 164.185 114.542 163.972 113.964C163.759 113.387 163.727 112.758 163.882 112.162C164.036 111.566 164.369 111.032 164.835 110.631C165.301 110.231 165.879 109.983 166.489 109.922L176.4 108.933C176.505 108.923 176.61 108.933 176.71 108.964C176.811 108.995 176.904 109.045 176.985 109.112C177.066 109.179 177.133 109.261 177.182 109.354C177.232 109.447 177.262 109.549 177.272 109.654C177.283 109.759 177.272 109.864 177.241 109.965C177.211 110.066 177.161 110.159 177.094 110.241C177.027 110.322 176.945 110.389 176.853 110.439C176.76 110.488 176.658 110.519 176.554 110.529L166.643 111.513C166.357 111.542 166.086 111.659 165.867 111.847C165.648 112.036 165.493 112.287 165.42 112.566C165.348 112.846 165.363 113.142 165.463 113.413C165.563 113.684 165.744 113.918 165.98 114.083L174.242 119.839C174.38 119.936 174.485 120.075 174.539 120.235C174.594 120.395 174.596 120.569 174.546 120.731C174.496 120.892 174.396 121.034 174.26 121.135C174.124 121.235 173.96 121.29 173.791 121.291V121.286Z" fill="#35375B"/>
<path d="M181.385 124.258C181.32 124.266 181.254 124.266 181.189 124.258C180.622 124.114 179.63 123.54 179.365 121.348C179.217 119.725 179.361 118.089 179.789 116.517C180.664 113.07 182.631 109.857 184.705 110.394C184.812 110.414 184.914 110.455 185.005 110.516C185.095 110.577 185.172 110.656 185.231 110.748C185.29 110.841 185.329 110.944 185.347 111.052C185.364 111.16 185.359 111.27 185.332 111.376C185.305 111.482 185.257 111.582 185.19 111.668C185.123 111.755 185.039 111.826 184.944 111.879C184.848 111.931 184.743 111.964 184.634 111.974C184.525 111.984 184.416 111.971 184.312 111.937C183.782 111.809 182.234 113.357 181.327 116.911C180.947 118.295 180.816 119.737 180.94 121.167C181.072 122.231 181.396 122.678 181.581 122.726C181.792 122.752 181.984 122.861 182.115 123.029C182.246 123.197 182.305 123.411 182.279 123.622C182.253 123.834 182.144 124.026 181.976 124.158C181.809 124.289 181.596 124.348 181.385 124.322V124.258Z" fill="#35375B"/>
<path d="M174.512 121.636C174.373 121.636 174.234 121.62 174.098 121.588C173.568 121.45 172.645 120.923 172.396 118.896C172.267 117.427 172.398 115.946 172.783 114.523C173.579 111.384 175.387 108.463 177.306 108.953C177.837 109.086 178.759 109.618 179.008 111.613C179.138 113.084 179.007 114.566 178.621 115.991C178.284 117.427 177.692 118.789 176.872 120.013C175.944 121.343 175.09 121.636 174.512 121.636ZM176.872 110.496C176.421 110.496 175.085 111.921 174.326 114.917C173.988 116.149 173.869 117.431 173.976 118.704C174.093 119.641 174.374 120.008 174.506 120.04C174.639 120.072 175.037 119.885 175.567 119.114C176.944 116.941 177.596 114.385 177.428 111.815C177.312 110.873 177.031 110.506 176.898 110.48L176.872 110.496Z" fill="#35375B"/>
<path d="M192.977 114.758C192.789 114.757 192.607 114.69 192.464 114.567C192.32 114.445 192.225 114.275 192.194 114.089C192.164 113.903 192.2 113.711 192.297 113.549C192.394 113.387 192.544 113.265 192.723 113.204C195.22 112.348 199.462 110.544 200.189 109.315C200.422 108.927 200.369 107.044 200.083 105.283C200.048 105.071 200.099 104.854 200.224 104.68C200.349 104.506 200.537 104.389 200.748 104.354C200.959 104.32 201.175 104.371 201.349 104.496C201.522 104.621 201.639 104.81 201.674 105.022C201.817 105.937 202.252 108.996 201.568 110.135C200.332 112.209 194.425 114.311 193.253 114.715C193.164 114.744 193.071 114.758 192.977 114.758Z" fill="#35375B"/>
<path d="M135.681 150.088C130.739 154.844 128.427 162.755 129.689 168.836C130.31 171.826 133.146 173.587 135.405 173.353C138.009 173.081 139.568 170.421 139.568 166.229C139.552 161.702 138.11 156.196 135.681 150.088ZM147.315 109.656C146.772 109.646 146.232 109.746 145.729 109.952C145.225 110.158 144.769 110.465 144.388 110.853C143.725 111.587 143.302 112.507 143.176 113.49C143.049 114.472 143.227 115.47 143.683 116.349C145.47 120.073 152.973 123.903 158.96 126.457C156.69 118.95 153.657 112.008 149.945 110.284C149.12 109.882 148.217 109.664 147.299 109.646L147.315 109.656Z" fill="#FD4C00"/>
<path fill-rule="evenodd" clip-rule="evenodd" d="M58.7446 231.128C54.8148 231.206 50.9158 230.418 47.3227 228.819C39.7133 225.265 34.9886 219.695 33.663 212.705C33.4331 211.487 33.3054 210.252 33.2812 209.013C19.2503 212.364 15.224 214.288 0 209.564L0.456022 208.037C15.5686 212.745 19.4783 210.752 33.3024 207.379C33.6683 199.596 37.6771 191.983 42.1844 187.211C46.2409 182.929 50.8277 181.13 54.7729 182.28C56.1857 182.688 57.458 183.482 58.4483 184.572C59.4387 185.663 60.1084 187.007 60.3832 188.456C61.0831 192.068 59.4499 195.75 55.9024 198.564C50.1225 203.145 42.8949 206.544 34.872 208.624C34.8758 209.895 34.9965 211.163 35.2326 212.412C36.4734 218.972 40.7686 224.004 47.9961 227.377C78.1259 241.433 147.045 181.556 147.734 180.95C147.827 180.869 147.937 180.811 148.055 180.779C148.174 180.748 148.298 180.744 148.418 180.769C148.534 180.797 148.641 180.851 148.733 180.926C148.825 181.002 148.898 181.097 148.948 181.205C154.909 193.569 165.387 212.12 169.788 212.55C175.35 213.082 201.758 204.975 227.449 194.829C257.749 182.859 277.363 171.991 278.647 166.453C279.707 161.931 268.471 134.458 250.044 96.4679C232.094 59.4619 217.491 33.5588 215.115 32.5852C204.033 29.3453 168.091 34.128 138.157 39.6928C122.249 42.6507 106.983 45.981 95.2058 49.0773C77.8873 53.6205 75.8776 55.6155 75.6443 55.9933C75.9464 57.3283 81.3899 64.5286 87.6823 72.852L87.6866 72.8577C102.089 91.9033 126.046 123.589 136.27 147.519C137.57 146.531 139.016 145.752 140.554 145.21C149.383 142.135 159.883 145.651 163.563 147.098C162.546 140.823 161.193 134.608 159.511 128.478C153.148 125.818 144.356 121.52 142.225 117.072C141.626 115.898 141.401 114.568 141.58 113.262C141.759 111.955 142.334 110.736 143.227 109.768C145.04 107.922 147.787 107.587 150.576 108.874C154.967 110.906 158.382 118.982 160.821 127.281C163.059 128.191 164.931 128.877 165.954 129.234L167.147 123.345C167.175 123.204 167.241 123.073 167.336 122.966C167.432 122.859 167.555 122.78 167.692 122.738C167.829 122.695 167.975 122.691 168.114 122.724C168.253 122.758 168.381 122.829 168.483 122.93L176.257 130.436C176.336 130.508 176.4 130.595 176.444 130.693C176.489 130.79 176.513 130.895 176.517 131.002C176.52 131.109 176.502 131.215 176.463 131.315C176.424 131.415 176.366 131.506 176.292 131.582C176.218 131.659 176.129 131.72 176.03 131.761C175.932 131.803 175.827 131.824 175.72 131.824C175.613 131.824 175.508 131.802 175.41 131.76C175.312 131.718 175.223 131.657 175.149 131.58L168.43 125.042L167.37 130.399C167.347 130.509 167.301 130.613 167.236 130.705C167.17 130.796 167.086 130.873 166.989 130.929C166.892 130.986 166.784 131.022 166.673 131.034C166.561 131.046 166.448 131.034 166.341 131C166.087 130.915 164.125 130.255 161.41 129.181C163.089 135.456 164.413 141.822 165.376 148.248C165.397 148.389 165.379 148.533 165.325 148.665C165.271 148.797 165.182 148.912 165.069 148.998C164.954 149.083 164.819 149.136 164.678 149.152C164.536 149.168 164.393 149.146 164.263 149.088L164.257 149.085C163.914 148.933 151.081 143.212 141.095 146.689C139.587 147.224 138.177 148.004 136.922 148.998C139.573 155.509 141.164 161.399 141.164 166.229C141.164 173.778 136.885 174.805 135.575 174.943C132.203 175.284 128.867 172.698 128.151 169.16C126.757 162.441 129.429 153.642 135.045 148.529C125.067 124.872 100.94 92.9589 86.4815 73.8343L86.4511 73.794C77.1025 61.4303 74.08 57.302 74.08 55.9188C74.08 55.3868 74.414 54.8548 75.0981 54.3228C80.5917 50.1891 113.187 42.5815 141.074 37.5169C155.073 34.9739 201.816 26.9939 215.614 31.0318C219.755 32.2448 240.796 73.661 251.348 95.4039C258.56 110.263 281.966 159.34 280.237 166.793C278.191 175.63 243.076 190.366 228.075 196.292C201.747 206.693 175.578 214.689 169.682 214.12C163.404 213.508 150.884 188.669 148.01 182.806C135.978 193.006 123.281 202.39 110.006 210.896C88.6888 224.366 71.5188 231.128 58.7446 231.128ZM129.689 168.836C128.427 162.755 130.739 154.844 135.681 150.088C138.11 156.196 139.552 161.702 139.568 166.229C139.568 170.421 138.009 173.081 135.405 173.353C133.146 173.587 130.31 171.826 129.689 168.836ZM145.729 109.952C146.232 109.746 146.772 109.646 147.315 109.656L147.299 109.646C148.217 109.664 149.12 109.882 149.945 110.284C153.657 112.008 156.69 118.95 158.96 126.457C152.973 123.903 145.47 120.073 143.683 116.349C143.227 115.47 143.049 114.472 143.176 113.49C143.302 112.507 143.725 111.587 144.388 110.853C144.769 110.465 145.225 110.158 145.729 109.952Z" fill="#FD4C00"/>
<path d="M199.339 141.469C197.144 141.469 193.814 136.272 192.843 134.681C192.743 134.501 192.716 134.288 192.768 134.089C192.821 133.889 192.948 133.718 193.124 133.61C193.299 133.503 193.51 133.468 193.711 133.513C193.911 133.558 194.087 133.679 194.201 133.851C196.152 137.043 198.554 139.873 199.339 139.873C201.64 139.873 205.58 137.618 205.734 135.841C205.914 133.713 202.977 129.989 200.15 127.749C200.065 127.686 199.992 127.606 199.938 127.514C199.884 127.422 199.848 127.32 199.834 127.214C199.82 127.108 199.827 127.001 199.855 126.898C199.882 126.795 199.931 126.698 199.996 126.614C200.062 126.53 200.144 126.46 200.237 126.409C200.33 126.357 200.432 126.324 200.538 126.313C200.644 126.302 200.751 126.312 200.853 126.343C200.955 126.374 201.05 126.425 201.131 126.493C203.783 128.568 207.59 132.803 207.319 135.979C207.065 138.9 202.171 141.469 199.339 141.469Z" fill="#35375B"/>
<path d="M122.683 83.1724C122.527 83.1672 122.376 83.1163 122.249 83.0259C122.122 82.9356 122.025 82.8098 121.968 82.6643C121.912 82.5187 121.899 82.3597 121.932 82.207C121.965 82.0543 122.041 81.9146 122.152 81.8052C122.391 81.5658 128.166 75.8787 133.935 73.0112C136.91 71.5376 141.751 72.9687 146.433 74.3519C150.082 75.4159 153.857 76.5437 156.132 76.0436C159.086 75.3946 160.226 72.6974 161.334 70.0959C162.172 68.1222 162.962 66.2601 164.516 65.5207C167.024 64.3396 172.051 65.4142 176.913 66.4463C180.233 67.1539 183.669 67.8881 185.398 67.6327C187.519 67.3242 188.049 66.1803 188.797 64.595C189.65 62.8128 190.705 60.589 194.492 59.8921C201.703 58.5568 217.691 60.0676 218.354 60.1315C218.565 60.1512 218.759 60.2543 218.894 60.4179C219.03 60.5815 219.094 60.7923 219.075 61.004C219.055 61.2156 218.952 61.4107 218.789 61.5464C218.626 61.6821 218.416 61.7472 218.205 61.7275C218.041 61.7275 201.767 60.174 194.767 61.4668C191.782 61.9988 191.024 63.5948 190.223 65.2866C189.422 66.9783 188.558 68.7871 185.62 69.2181C183.605 69.516 180.185 68.7871 176.563 68.0157C172.178 67.0794 167.199 66.0207 165.178 66.9517C164.15 67.4359 163.476 69.0265 162.76 70.7077C161.615 73.4102 160.189 76.7672 156.44 77.5918C153.788 78.177 149.965 77.0598 145.946 75.8681C141.56 74.5753 137.021 73.2081 134.603 74.4317C129.067 77.1821 123.287 82.8745 123.229 82.9437C123.084 83.0885 122.888 83.1706 122.683 83.1724Z" fill="#FD4C00"/>
<path d="M134.706 105.356C134.545 105.356 134.389 105.308 134.255 105.218C134.082 105.098 133.962 104.913 133.924 104.705C133.885 104.497 133.93 104.281 134.048 104.106C134.245 103.819 138.959 96.9349 145.412 94.4025C148.848 93.0513 153.26 93.2162 157.534 93.3758C160.625 93.4928 163.547 93.6045 165.769 93.1151C169.062 92.3862 171.777 89.6305 174.174 87.1939C175.738 85.5979 177.09 84.236 178.416 83.6082C180.903 82.4378 185.309 83.9115 189.552 85.3426C192.67 86.4066 195.888 87.4706 197.649 87.2099C199.658 86.9173 200.056 85.7309 200.634 83.4859C201.164 81.3206 201.886 78.6181 205.189 77.0114C209.962 74.6866 224.046 75.6336 224.645 75.6761C224.856 75.6909 225.052 75.7892 225.191 75.9493C225.33 76.1095 225.399 76.3183 225.384 76.53C225.37 76.7416 225.272 76.9387 225.112 77.0779C224.952 77.2171 224.744 77.2869 224.533 77.2721C224.396 77.2721 210.274 76.3092 205.884 78.4479C203.232 79.73 202.702 81.842 202.172 83.8849C201.642 85.9278 201.032 88.3324 197.877 88.7952C195.756 89.1091 192.489 88.0132 189.043 86.8588C185.272 85.5926 181.004 84.1615 179.089 85.0606C178.029 85.566 176.693 86.9067 175.298 88.3218C172.869 90.7849 169.852 93.8492 166.098 94.6792C163.68 95.2112 160.663 95.0994 157.465 94.9771C153.356 94.8228 149.108 94.6685 145.979 95.8921C139.993 98.2436 135.374 104.936 135.374 105.011C135.3 105.119 135.2 105.208 135.084 105.268C134.967 105.329 134.837 105.359 134.706 105.356Z" fill="#FD4C00"/>
<path d="M110.795 67.9296C110.637 67.9294 110.483 67.8822 110.352 67.7938C110.221 67.7054 110.119 67.58 110.059 67.4334C109.999 67.2868 109.985 67.1256 110.016 66.9705C110.048 66.8154 110.125 66.6733 110.238 66.5623C110.577 66.2325 118.643 58.4174 124.407 55.5552C127.382 54.0763 132.223 55.5073 136.905 56.8905C140.559 57.9545 144.329 59.0824 146.609 58.5823C149.557 57.9333 150.697 55.2413 151.806 52.6345C152.643 50.6661 153.434 48.8041 154.987 48.0593C157.495 46.8783 162.522 47.9529 167.385 48.9903C170.704 49.6979 174.14 50.4321 175.869 50.1714C178.155 49.8362 179.772 48.2828 181.649 46.4793C183.707 44.5056 186.034 42.2712 189.603 41.6062C196.905 40.2549 210.862 44.8726 211.45 45.0695C211.556 45.0961 211.656 45.1444 211.743 45.2114C211.83 45.2784 211.902 45.3626 211.954 45.4588C212.007 45.5551 212.04 45.6612 212.05 45.7706C212.06 45.8799 212.047 45.9902 212.013 46.0945C211.978 46.1988 211.923 46.2949 211.85 46.3766C211.777 46.4584 211.687 46.5241 211.588 46.5697C211.488 46.6153 211.38 46.6398 211.271 46.6416C211.161 46.6435 211.053 46.6226 210.952 46.5804C210.808 46.5325 196.794 41.8988 189.889 43.1756C186.761 43.7501 184.709 45.7238 182.726 47.6337C180.822 49.4585 178.86 51.3577 176.071 51.7514C174.056 52.0493 170.635 51.3205 167.014 50.5491C162.628 49.6128 157.649 48.5541 155.629 49.4851C154.6 49.9692 153.927 51.5546 153.211 53.241C152.065 55.9383 150.639 59.2952 146.89 60.1198C144.239 60.7103 140.421 59.5878 136.401 58.4014C132.011 57.1033 127.472 55.7414 125.054 56.965C119.507 59.7155 111.373 67.605 111.267 67.6848C111.142 67.8182 110.975 67.9047 110.795 67.9296Z" fill="#FD4C00"/>
</svg>
