<svg width="378" height="231" viewBox="0 0 378 231" fill="none" xmlns="http://www.w3.org/2000/svg">
<path d="M37.98 60.6H44.14C45.8853 60.6 47.1613 60.974 47.968 61.722C48.7893 62.47 49.2 63.4673 49.2 64.714C49.2 65.506 48.9947 66.188 48.584 66.76C48.1733 67.3173 47.6087 67.7207 46.89 67.97C47.7993 68.1753 48.518 68.5933 49.046 69.224C49.5887 69.84 49.86 70.6467 49.86 71.644C49.86 72.2893 49.7573 72.8833 49.552 73.426C49.3467 73.954 49.024 74.4087 48.584 74.79C48.1587 75.1713 47.6087 75.472 46.934 75.692C46.2593 75.8973 45.4453 76 44.492 76H37.98V60.6ZM44.206 73.712C45.35 73.712 46.1347 73.5287 46.56 73.162C47 72.7953 47.22 72.2307 47.22 71.468C47.22 71.1013 47.1687 70.7713 47.066 70.478C46.9633 70.1847 46.7947 69.9427 46.56 69.752C46.3253 69.5467 46.01 69.3927 45.614 69.29C45.2327 69.1873 44.756 69.136 44.184 69.136H40.62V73.712H44.206ZM43.81 67.024C44.8367 67.024 45.548 66.8333 45.944 66.452C46.3547 66.0707 46.56 65.5573 46.56 64.912C46.56 64.252 46.362 63.7533 45.966 63.416C45.57 63.064 44.8513 62.888 43.81 62.888H40.62V67.024H43.81ZM52.3857 64.34H54.8057V68.432H57.0057C58.5017 68.432 59.609 68.7547 60.3277 69.4C61.0464 70.0307 61.4057 70.9693 61.4057 72.216C61.4057 73.3893 61.0537 74.3133 60.3497 74.988C59.6457 75.6627 58.531 76 57.0057 76H52.3857V64.34ZM56.7857 73.932C57.5924 73.932 58.157 73.7927 58.4797 73.514C58.817 73.2207 58.9857 72.788 58.9857 72.216C58.9857 71.644 58.817 71.2187 58.4797 70.94C58.157 70.6467 57.5924 70.5 56.7857 70.5H54.8057V73.932H56.7857ZM62.9457 64.34H65.3657V76H62.9457V64.34ZM39.41 106.642C39.19 106.642 38.97 106.62 38.75 106.576V104.464C38.97 104.508 39.19 104.53 39.41 104.53C39.6593 104.53 39.8647 104.486 40.026 104.398C40.202 104.325 40.356 104.185 40.488 103.98C40.6347 103.789 40.774 103.533 40.906 103.21C41.0527 102.887 41.214 102.484 41.39 102L36.44 90.34H39.08L42.644 99.36L45.856 90.34H48.32L43.81 102C43.4873 102.821 43.1867 103.525 42.908 104.112C42.6293 104.699 42.3213 105.175 41.984 105.542C41.6613 105.923 41.2947 106.202 40.884 106.378C40.4733 106.554 39.982 106.642 39.41 106.642ZM54.712 102.242C53.92 102.242 53.1867 102.125 52.512 101.89C51.852 101.641 51.2727 101.267 50.774 100.768C50.29 100.269 49.9087 99.646 49.63 98.898C49.3514 98.15 49.212 97.2773 49.212 96.28V95.84C49.212 94.9013 49.3587 94.0727 49.652 93.354C49.9454 92.6353 50.3414 92.034 50.84 91.55C51.3534 91.066 51.94 90.7067 52.6 90.472C53.2747 90.2227 53.9787 90.098 54.712 90.098C55.4747 90.098 56.1494 90.2007 56.736 90.406C57.3374 90.6113 57.8434 90.8973 58.254 91.264C58.6794 91.616 59.0167 92.034 59.266 92.518C59.5154 93.002 59.684 93.5227 59.772 94.08H57.308C57.1614 93.5373 56.8974 93.09 56.516 92.738C56.1347 92.386 55.5334 92.21 54.712 92.21C54.3014 92.21 53.9127 92.2833 53.546 92.43C53.1794 92.562 52.8567 92.7747 52.578 93.068C52.2994 93.3613 52.0794 93.7427 51.918 94.212C51.7567 94.6667 51.676 95.2093 51.676 95.84V96.28C51.676 96.9693 51.7567 97.5633 51.918 98.062C52.0794 98.546 52.2994 98.942 52.578 99.25C52.8567 99.558 53.1794 99.7853 53.546 99.932C53.9127 100.064 54.3014 100.13 54.712 100.13C56.076 100.13 56.9414 99.5067 57.308 98.26H59.772C59.6547 98.876 59.4494 99.4333 59.156 99.932C58.8774 100.416 58.518 100.834 58.078 101.186C57.638 101.523 57.132 101.787 56.56 101.978C55.988 102.154 55.372 102.242 54.712 102.242ZM64.8252 92.408H60.9752V90.34H71.0952V92.408H67.2452V102H64.8252V92.408ZM73.0752 90.34H75.3192V92.298C75.6712 91.6233 76.1918 91.088 76.8812 90.692C77.5852 90.296 78.3772 90.098 79.2572 90.098C80.7825 90.098 81.9852 90.5747 82.8652 91.528C83.7452 92.4813 84.1852 93.9187 84.1852 95.84V96.28C84.1852 97.2773 84.0678 98.15 83.8332 98.898C83.5985 99.646 83.2612 100.269 82.8212 100.768C82.3958 101.252 81.8825 101.619 81.2812 101.868C80.6798 102.117 80.0052 102.242 79.2572 102.242C78.4212 102.242 77.6585 102.059 76.9692 101.692C76.2798 101.325 75.7885 100.812 75.4952 100.152V106.4H73.0752V90.34ZM78.6852 100.13C79.5945 100.13 80.3278 99.8147 80.8852 99.184C81.4425 98.5533 81.7212 97.5853 81.7212 96.28V95.84C81.7212 94.608 81.4498 93.6987 80.9072 93.112C80.3645 92.5107 79.6238 92.21 78.6852 92.21C78.2745 92.21 77.8785 92.276 77.4972 92.408C77.1158 92.54 76.7712 92.738 76.4632 93.002C76.1698 93.2513 75.9352 93.574 75.7592 93.97C75.5832 94.3513 75.4952 94.7913 75.4952 95.29V96.83C75.4952 97.3873 75.5832 97.8713 75.7592 98.282C75.9352 98.6927 76.1698 99.0373 76.4632 99.316C76.7565 99.5947 77.0938 99.8 77.4752 99.932C77.8565 100.064 78.2598 100.13 78.6852 100.13ZM90.0203 102.242C89.3896 102.242 88.825 102.154 88.3263 101.978C87.8423 101.787 87.4316 101.531 87.0943 101.208C86.757 100.871 86.5003 100.482 86.3243 100.042C86.1483 99.602 86.0603 99.118 86.0603 98.59C86.0603 97.4313 86.405 96.5733 87.0943 96.016C87.7836 95.444 88.7956 95.158 90.1303 95.158H93.7603V94.52C93.7603 93.64 93.5623 93.0387 93.1663 92.716C92.785 92.3787 92.1763 92.21 91.3403 92.21C90.5923 92.21 90.0423 92.3273 89.6903 92.562C89.3383 92.7967 89.133 93.1193 89.0743 93.53H86.7203C86.7496 93.0313 86.8743 92.5767 87.0943 92.166C87.329 91.7407 87.6443 91.374 88.0403 91.066C88.451 90.758 88.9423 90.5233 89.5143 90.362C90.0863 90.186 90.7316 90.098 91.4503 90.098C92.169 90.098 92.8143 90.1787 93.3863 90.34C93.973 90.5013 94.4716 90.758 94.8823 91.11C95.293 91.4473 95.6083 91.8873 95.8283 92.43C96.063 92.9727 96.1803 93.6253 96.1803 94.388V99.03C96.1803 99.646 96.1876 100.189 96.2023 100.658C96.217 101.113 96.2536 101.56 96.3123 102H94.1123C94.0683 101.663 94.0316 101.377 94.0023 101.142C93.9876 100.907 93.9803 100.614 93.9803 100.262C93.7016 100.805 93.2176 101.274 92.5283 101.67C91.8536 102.051 91.0176 102.242 90.0203 102.242ZM90.6803 100.13C91.091 100.13 91.4796 100.079 91.8463 99.976C92.2276 99.8587 92.5576 99.6973 92.8363 99.492C93.115 99.272 93.335 99.008 93.4963 98.7C93.6723 98.3773 93.7603 98.0107 93.7603 97.6V96.962H90.5703C89.9543 96.962 89.4556 97.094 89.0743 97.358C88.7076 97.622 88.5243 98.0107 88.5243 98.524C88.5243 99.008 88.693 99.3967 89.0303 99.69C89.3823 99.9833 89.9323 100.13 90.6803 100.13ZM99.1572 90.34H101.577V95.026H107.077V90.34H109.497V102H107.077V97.094H101.577V102H99.1572V90.34ZM112.585 90.34H115.005V98.59L120.615 90.34H122.925V102H120.505V93.75L114.895 102H112.585V90.34ZM126.013 90.34H131.513C132.979 90.34 134.043 90.6407 134.703 91.242C135.363 91.8287 135.693 92.584 135.693 93.508C135.693 94.0213 135.539 94.52 135.231 95.004C134.923 95.4733 134.49 95.7887 133.933 95.95C134.651 96.126 135.194 96.4633 135.561 96.962C135.942 97.446 136.133 98.018 136.133 98.678C136.133 99.69 135.795 100.497 135.121 101.098C134.446 101.699 133.39 102 131.953 102H126.013V90.34ZM131.623 99.932C132.415 99.932 132.957 99.8073 133.251 99.558C133.559 99.294 133.713 98.9273 133.713 98.458C133.713 97.9887 133.559 97.6367 133.251 97.402C132.957 97.1527 132.415 97.028 131.623 97.028H128.433V99.932H131.623ZM131.293 95.136C132.026 95.136 132.539 95.0187 132.833 94.784C133.126 94.5347 133.273 94.1973 133.273 93.772C133.273 93.3467 133.126 93.0167 132.833 92.782C132.539 92.5327 132.026 92.408 131.293 92.408H128.433V95.136H131.293ZM143.845 90.34H146.265V95.026H151.765V90.34H154.185V102H151.765V97.094H146.265V102H143.845V90.34ZM160.682 102.242C160.052 102.242 159.487 102.154 158.988 101.978C158.504 101.787 158.094 101.531 157.756 101.208C157.419 100.871 157.162 100.482 156.986 100.042C156.81 99.602 156.722 99.118 156.722 98.59C156.722 97.4313 157.067 96.5733 157.756 96.016C158.446 95.444 159.458 95.158 160.792 95.158H164.422V94.52C164.422 93.64 164.224 93.0387 163.828 92.716C163.447 92.3787 162.838 92.21 162.002 92.21C161.254 92.21 160.704 92.3273 160.352 92.562C160 92.7967 159.795 93.1193 159.736 93.53H157.382C157.412 93.0313 157.536 92.5767 157.756 92.166C157.991 91.7407 158.306 91.374 158.702 91.066C159.113 90.758 159.604 90.5233 160.176 90.362C160.748 90.186 161.394 90.098 162.112 90.098C162.831 90.098 163.476 90.1787 164.048 90.34C164.635 90.5013 165.134 90.758 165.544 91.11C165.955 91.4473 166.27 91.8873 166.49 92.43C166.725 92.9727 166.842 93.6253 166.842 94.388V99.03C166.842 99.646 166.85 100.189 166.864 100.658C166.879 101.113 166.916 101.56 166.974 102H164.774C164.73 101.663 164.694 101.377 164.664 101.142C164.65 100.907 164.642 100.614 164.642 100.262C164.364 100.805 163.88 101.274 163.19 101.67C162.516 102.051 161.68 102.242 160.682 102.242ZM161.342 100.13C161.753 100.13 162.142 100.079 162.508 99.976C162.89 99.8587 163.22 99.6973 163.498 99.492C163.777 99.272 163.997 99.008 164.158 98.7C164.334 98.3773 164.422 98.0107 164.422 97.6V96.962H161.232C160.616 96.962 160.118 97.094 159.736 97.358C159.37 97.622 159.186 98.0107 159.186 98.524C159.186 99.008 159.355 99.3967 159.692 99.69C160.044 99.9833 160.594 100.13 161.342 100.13ZM169.819 90.34H172.063V92.298C172.415 91.6233 172.936 91.088 173.625 90.692C174.329 90.296 175.121 90.098 176.001 90.098C177.527 90.098 178.729 90.5747 179.609 91.528C180.489 92.4813 180.929 93.9187 180.929 95.84V96.28C180.929 97.2773 180.812 98.15 180.577 98.898C180.343 99.646 180.005 100.269 179.565 100.768C179.14 101.252 178.627 101.619 178.025 101.868C177.424 102.117 176.749 102.242 176.001 102.242C175.165 102.242 174.403 102.059 173.713 101.692C173.024 101.325 172.533 100.812 172.239 100.152V106.4H169.819V90.34ZM175.429 100.13C176.339 100.13 177.072 99.8147 177.629 99.184C178.187 98.5533 178.465 97.5853 178.465 96.28V95.84C178.465 94.608 178.194 93.6987 177.651 93.112C177.109 92.5107 176.368 92.21 175.429 92.21C175.019 92.21 174.623 92.276 174.241 92.408C173.86 92.54 173.515 92.738 173.207 93.002C172.914 93.2513 172.679 93.574 172.503 93.97C172.327 94.3513 172.239 94.7913 172.239 95.29V96.83C172.239 97.3873 172.327 97.8713 172.503 98.282C172.679 98.6927 172.914 99.0373 173.207 99.316C173.501 99.5947 173.838 99.8 174.219 99.932C174.601 100.064 175.004 100.13 175.429 100.13ZM184.795 106.642C184.575 106.642 184.355 106.62 184.135 106.576V104.464C184.355 104.508 184.575 104.53 184.795 104.53C185.044 104.53 185.249 104.486 185.411 104.398C185.587 104.325 185.741 104.185 185.873 103.98C186.019 103.789 186.159 103.533 186.291 103.21C186.437 102.887 186.599 102.484 186.775 102L181.825 90.34H184.465L188.029 99.36L191.241 90.34H193.705L189.195 102C188.872 102.821 188.571 103.525 188.293 104.112C188.014 104.699 187.706 105.175 187.369 105.542C187.046 105.923 186.679 106.202 186.269 106.378C185.858 106.554 185.367 106.642 184.795 106.642ZM195.686 90.34H198.106V99.932H201.956V90.34H204.376V99.932H208.226V90.34H210.646V102H195.686V90.34ZM218.793 102.242C218.016 102.242 217.283 102.125 216.593 101.89C215.904 101.641 215.295 101.274 214.767 100.79C214.254 100.291 213.843 99.668 213.535 98.92C213.227 98.172 213.073 97.292 213.073 96.28V95.84C213.073 94.872 213.22 94.0287 213.513 93.31C213.807 92.5913 214.203 91.9973 214.701 91.528C215.215 91.044 215.801 90.6847 216.461 90.45C217.121 90.2153 217.825 90.098 218.573 90.098C220.348 90.098 221.705 90.5747 222.643 91.528C223.597 92.4813 224.073 93.8453 224.073 95.62V96.852H215.537C215.552 97.4533 215.647 97.9667 215.823 98.392C216.014 98.8027 216.256 99.14 216.549 99.404C216.857 99.6533 217.202 99.8367 217.583 99.954C217.979 100.071 218.383 100.13 218.793 100.13C219.629 100.13 220.238 99.998 220.619 99.734C221.015 99.47 221.287 99.1253 221.433 98.7H223.853C223.619 99.8587 223.039 100.739 222.115 101.34C221.206 101.941 220.099 102.242 218.793 102.242ZM218.683 92.21C218.273 92.21 217.877 92.2613 217.495 92.364C217.129 92.4667 216.799 92.6353 216.505 92.87C216.227 93.09 215.999 93.3833 215.823 93.75C215.647 94.102 215.552 94.5347 215.537 95.048H221.653C221.639 94.5053 221.551 94.0507 221.389 93.684C221.243 93.3173 221.037 93.024 220.773 92.804C220.509 92.584 220.194 92.43 219.827 92.342C219.475 92.254 219.094 92.21 218.683 92.21ZM226.495 90.34H228.915V95.026H234.415V90.34H236.835V102H234.415V97.094H228.915V102H226.495V90.34ZM239.923 90.34H242.343V98.59L247.953 90.34H250.263V102H247.843V93.75L242.233 102H239.923V90.34ZM255.617 97.578C254.737 97.314 254.084 96.8813 253.659 96.28C253.233 95.6787 253.021 94.9527 253.021 94.102C253.021 92.958 253.402 92.0487 254.165 91.374C254.927 90.6847 256.086 90.34 257.641 90.34H262.921V102H260.501V97.864H257.993L255.397 102H252.581L255.617 97.578ZM255.485 94.102C255.485 94.718 255.668 95.158 256.035 95.422C256.401 95.6713 256.9 95.796 257.531 95.796H260.501V92.408H257.531C256.9 92.408 256.401 92.54 256.035 92.804C255.668 93.0533 255.485 93.486 255.485 94.102ZM271.29 90.34H281.41V102H278.99V92.408H273.71V102H271.29V90.34ZM289.541 102.242C288.764 102.242 288.031 102.125 287.341 101.89C286.652 101.641 286.043 101.274 285.515 100.79C285.002 100.291 284.591 99.668 284.283 98.92C283.975 98.172 283.821 97.292 283.821 96.28V95.84C283.821 94.872 283.968 94.0287 284.261 93.31C284.555 92.5913 284.951 91.9973 285.449 91.528C285.963 91.044 286.549 90.6847 287.209 90.45C287.869 90.2153 288.573 90.098 289.321 90.098C291.096 90.098 292.453 90.5747 293.391 91.528C294.345 92.4813 294.821 93.8453 294.821 95.62V96.852H286.285C286.3 97.4533 286.395 97.9667 286.571 98.392C286.762 98.8027 287.004 99.14 287.297 99.404C287.605 99.6533 287.95 99.8367 288.331 99.954C288.727 100.071 289.131 100.13 289.541 100.13C290.377 100.13 290.986 99.998 291.367 99.734C291.763 99.47 292.035 99.1253 292.181 98.7H294.601C294.367 99.8587 293.787 100.739 292.863 101.34C291.954 101.941 290.847 102.242 289.541 102.242ZM289.431 92.21C289.021 92.21 288.625 92.2613 288.243 92.364C287.877 92.4667 287.547 92.6353 287.253 92.87C286.975 93.09 286.747 93.3833 286.571 93.75C286.395 94.102 286.3 94.5347 286.285 95.048H292.401C292.387 94.5053 292.299 94.0507 292.137 93.684C291.991 93.3173 291.785 93.024 291.521 92.804C291.257 92.584 290.942 92.43 290.575 92.342C290.223 92.254 289.842 92.21 289.431 92.21ZM297.243 90.34H299.487V92.298C299.839 91.6233 300.36 91.088 301.049 90.692C301.753 90.296 302.545 90.098 303.425 90.098C304.95 90.098 306.153 90.5747 307.033 91.528C307.913 92.4813 308.353 93.9187 308.353 95.84V96.28C308.353 97.2773 308.236 98.15 308.001 98.898C307.766 99.646 307.429 100.269 306.989 100.768C306.564 101.252 306.05 101.619 305.449 101.868C304.848 102.117 304.173 102.242 303.425 102.242C302.589 102.242 301.826 102.059 301.137 101.692C300.448 101.325 299.956 100.812 299.663 100.152V106.4H297.243V90.34ZM302.853 100.13C303.762 100.13 304.496 99.8147 305.053 99.184C305.61 98.5533 305.889 97.5853 305.889 96.28V95.84C305.889 94.608 305.618 93.6987 305.075 93.112C304.532 92.5107 303.792 92.21 302.853 92.21C302.442 92.21 302.046 92.276 301.665 92.408C301.284 92.54 300.939 92.738 300.631 93.002C300.338 93.2513 300.103 93.574 299.927 93.97C299.751 94.3513 299.663 94.7913 299.663 95.29V96.83C299.663 97.3873 299.751 97.8713 299.927 98.282C300.103 98.6927 300.338 99.0373 300.631 99.316C300.924 99.5947 301.262 99.8 301.643 99.932C302.024 100.064 302.428 100.13 302.853 100.13ZM315.838 102.242C315.061 102.242 314.328 102.125 313.638 101.89C312.949 101.641 312.34 101.274 311.812 100.79C311.299 100.291 310.888 99.668 310.58 98.92C310.272 98.172 310.118 97.292 310.118 96.28V95.84C310.118 94.872 310.265 94.0287 310.558 93.31C310.852 92.5913 311.248 91.9973 311.746 91.528C312.26 91.044 312.846 90.6847 313.506 90.45C314.166 90.2153 314.87 90.098 315.618 90.098C317.393 90.098 318.75 90.5747 319.688 91.528C320.642 92.4813 321.118 93.8453 321.118 95.62V96.852H312.582C312.597 97.4533 312.692 97.9667 312.868 98.392C313.059 98.8027 313.301 99.14 313.594 99.404C313.902 99.6533 314.247 99.8367 314.628 99.954C315.024 100.071 315.428 100.13 315.838 100.13C316.674 100.13 317.283 99.998 317.664 99.734C318.06 99.47 318.332 99.1253 318.478 98.7H320.898C320.664 99.8587 320.084 100.739 319.16 101.34C318.251 101.941 317.144 102.242 315.838 102.242ZM315.728 92.21C315.318 92.21 314.922 92.2613 314.54 92.364C314.174 92.4667 313.844 92.6353 313.55 92.87C313.272 93.09 313.044 93.3833 312.868 93.75C312.692 94.102 312.597 94.5347 312.582 95.048H318.698C318.684 94.5053 318.596 94.0507 318.434 93.684C318.288 93.3173 318.082 93.024 317.818 92.804C317.554 92.584 317.239 92.43 316.872 92.342C316.52 92.254 316.139 92.21 315.728 92.21ZM322.333 99.932H323.653C323.799 99.712 323.931 99.382 324.049 98.942C324.181 98.502 324.291 98.0033 324.379 97.446C324.467 96.874 324.533 96.2653 324.577 95.62C324.621 94.96 324.643 94.3 324.643 93.64V90.34H333.333V99.932H334.873V104.75H332.629V102H324.577V104.75H322.333V99.932ZM330.913 99.932V92.408H326.975V94.08C326.975 95.2093 326.909 96.2947 326.777 97.336C326.645 98.3627 326.425 99.228 326.117 99.932H330.913ZM37.54 116.34H47.66V128H45.24V118.408H39.96V128H37.54V116.34ZM50.7314 116.34H52.9754V118.298C53.3274 117.623 53.8481 117.088 54.5374 116.692C55.2414 116.296 56.0334 116.098 56.9134 116.098C58.4387 116.098 59.6414 116.575 60.5214 117.528C61.4014 118.481 61.8414 119.919 61.8414 121.84V122.28C61.8414 123.277 61.7241 124.15 61.4894 124.898C61.2547 125.646 60.9174 126.269 60.4774 126.768C60.0521 127.252 59.5387 127.619 58.9374 127.868C58.3361 128.117 57.6614 128.242 56.9134 128.242C56.0774 128.242 55.3147 128.059 54.6254 127.692C53.9361 127.325 53.4447 126.812 53.1514 126.152V132.4H50.7314V116.34ZM56.3414 126.13C57.2507 126.13 57.9841 125.815 58.5414 125.184C59.0987 124.553 59.3774 123.585 59.3774 122.28V121.84C59.3774 120.608 59.1061 119.699 58.5634 119.112C58.0207 118.511 57.2801 118.21 56.3414 118.21C55.9307 118.21 55.5347 118.276 55.1534 118.408C54.7721 118.54 54.4274 118.738 54.1194 119.002C53.8261 119.251 53.5914 119.574 53.4154 119.97C53.2394 120.351 53.1514 120.791 53.1514 121.29V122.83C53.1514 123.387 53.2394 123.871 53.4154 124.282C53.5914 124.693 53.8261 125.037 54.1194 125.316C54.4127 125.595 54.7501 125.8 55.1314 125.932C55.5127 126.064 55.9161 126.13 56.3414 126.13ZM69.3266 128.242C68.5199 128.242 67.7646 128.117 67.0606 127.868C66.3712 127.604 65.7699 127.223 65.2566 126.724C64.7432 126.225 64.3399 125.609 64.0466 124.876C63.7532 124.128 63.6066 123.263 63.6066 122.28V121.84C63.6066 120.916 63.7532 120.102 64.0466 119.398C64.3399 118.679 64.7432 118.078 65.2566 117.594C65.7699 117.095 66.3712 116.721 67.0606 116.472C67.7646 116.223 68.5199 116.098 69.3266 116.098C70.1332 116.098 70.8812 116.223 71.5706 116.472C72.2746 116.721 72.8832 117.095 73.3966 117.594C73.9099 118.078 74.3132 118.679 74.6066 119.398C74.8999 120.102 75.0466 120.916 75.0466 121.84V122.28C75.0466 123.263 74.8999 124.128 74.6066 124.876C74.3132 125.609 73.9099 126.225 73.3966 126.724C72.8832 127.223 72.2746 127.604 71.5706 127.868C70.8812 128.117 70.1332 128.242 69.3266 128.242ZM69.3266 126.13C69.7519 126.13 70.1552 126.057 70.5366 125.91C70.9326 125.763 71.2772 125.536 71.5706 125.228C71.8786 124.92 72.1206 124.524 72.2966 124.04C72.4872 123.556 72.5826 122.969 72.5826 122.28V121.84C72.5826 121.209 72.4872 120.667 72.2966 120.212C72.1206 119.757 71.8786 119.383 71.5706 119.09C71.2772 118.797 70.9326 118.577 70.5366 118.43C70.1552 118.283 69.7519 118.21 69.3266 118.21C68.9012 118.21 68.4906 118.283 68.0946 118.43C67.7132 118.577 67.3686 118.797 67.0606 119.09C66.7672 119.383 66.5252 119.757 66.3346 120.212C66.1586 120.667 66.0706 121.209 66.0706 121.84V122.28C66.0706 122.969 66.1586 123.556 66.3346 124.04C66.5252 124.524 66.7672 124.92 67.0606 125.228C67.3686 125.536 67.7132 125.763 68.0946 125.91C68.4906 126.057 68.9012 126.13 69.3266 126.13ZM77.458 116.34H82.958C84.4246 116.34 85.488 116.641 86.148 117.242C86.808 117.829 87.138 118.584 87.138 119.508C87.138 120.021 86.984 120.52 86.676 121.004C86.368 121.473 85.9353 121.789 85.378 121.95C86.0966 122.126 86.6393 122.463 87.006 122.962C87.3873 123.446 87.578 124.018 87.578 124.678C87.578 125.69 87.2406 126.497 86.566 127.098C85.8913 127.699 84.8353 128 83.398 128H77.458V116.34ZM83.068 125.932C83.86 125.932 84.4026 125.807 84.696 125.558C85.004 125.294 85.158 124.927 85.158 124.458C85.158 123.989 85.004 123.637 84.696 123.402C84.4026 123.153 83.86 123.028 83.068 123.028H79.878V125.932H83.068ZM82.738 121.136C83.4713 121.136 83.9846 121.019 84.278 120.784C84.5713 120.535 84.718 120.197 84.718 119.772C84.718 119.347 84.5713 119.017 84.278 118.782C83.9846 118.533 83.4713 118.408 82.738 118.408H79.878V121.136H82.738ZM95.0648 128.242C94.2875 128.242 93.5542 128.125 92.8648 127.89C92.1755 127.641 91.5668 127.274 91.0388 126.79C90.5255 126.291 90.1148 125.668 89.8068 124.92C89.4988 124.172 89.3448 123.292 89.3448 122.28V121.84C89.3448 120.872 89.4915 120.029 89.7848 119.31C90.0782 118.591 90.4742 117.997 90.9728 117.528C91.4862 117.044 92.0728 116.685 92.7328 116.45C93.3928 116.215 94.0968 116.098 94.8448 116.098C96.6195 116.098 97.9762 116.575 98.9148 117.528C99.8682 118.481 100.345 119.845 100.345 121.62V122.852H91.8088C91.8235 123.453 91.9188 123.967 92.0948 124.392C92.2855 124.803 92.5275 125.14 92.8208 125.404C93.1288 125.653 93.4735 125.837 93.8548 125.954C94.2508 126.071 94.6542 126.13 95.0648 126.13C95.9008 126.13 96.5095 125.998 96.8908 125.734C97.2868 125.47 97.5582 125.125 97.7048 124.7H100.125C99.8902 125.859 99.3108 126.739 98.3868 127.34C97.4775 127.941 96.3702 128.242 95.0648 128.242ZM94.9548 118.21C94.5442 118.21 94.1482 118.261 93.7668 118.364C93.4002 118.467 93.0702 118.635 92.7768 118.87C92.4982 119.09 92.2708 119.383 92.0948 119.75C91.9188 120.102 91.8235 120.535 91.8088 121.048H97.9248C97.9102 120.505 97.8222 120.051 97.6608 119.684C97.5142 119.317 97.3088 119.024 97.0448 118.804C96.7808 118.584 96.4655 118.43 96.0988 118.342C95.7468 118.254 95.3655 118.21 94.9548 118.21ZM102.767 116.34H105.011V118.298C105.363 117.623 105.883 117.088 106.573 116.692C107.277 116.296 108.069 116.098 108.949 116.098C110.474 116.098 111.677 116.575 112.557 117.528C113.437 118.481 113.877 119.919 113.877 121.84V122.28C113.877 123.277 113.759 124.15 113.525 124.898C113.29 125.646 112.953 126.269 112.513 126.768C112.087 127.252 111.574 127.619 110.973 127.868C110.371 128.117 109.697 128.242 108.949 128.242C108.113 128.242 107.35 128.059 106.661 127.692C105.971 127.325 105.48 126.812 105.187 126.152V132.4H102.767V116.34ZM108.377 126.13C109.286 126.13 110.019 125.815 110.577 125.184C111.134 124.553 111.413 123.585 111.413 122.28V121.84C111.413 120.608 111.141 119.699 110.599 119.112C110.056 118.511 109.315 118.21 108.377 118.21C107.966 118.21 107.57 118.276 107.189 118.408C106.807 118.54 106.463 118.738 106.155 119.002C105.861 119.251 105.627 119.574 105.451 119.97C105.275 120.351 105.187 120.791 105.187 121.29V122.83C105.187 123.387 105.275 123.871 105.451 124.282C105.627 124.693 105.861 125.037 106.155 125.316C106.448 125.595 106.785 125.8 107.167 125.932C107.548 126.064 107.951 126.13 108.377 126.13ZM116.302 116.34H118.722V121.07H120.042L124.134 116.34H126.862L121.912 121.906L127.082 128H124.134L120.042 123.05H118.722V128H116.302V116.34ZM133.694 128.242C132.887 128.242 132.132 128.117 131.428 127.868C130.738 127.604 130.137 127.223 129.624 126.724C129.11 126.225 128.707 125.609 128.414 124.876C128.12 124.128 127.974 123.263 127.974 122.28V121.84C127.974 120.916 128.12 120.102 128.414 119.398C128.707 118.679 129.11 118.078 129.624 117.594C130.137 117.095 130.738 116.721 131.428 116.472C132.132 116.223 132.887 116.098 133.694 116.098C134.5 116.098 135.248 116.223 135.938 116.472C136.642 116.721 137.25 117.095 137.764 117.594C138.277 118.078 138.68 118.679 138.974 119.398C139.267 120.102 139.414 120.916 139.414 121.84V122.28C139.414 123.263 139.267 124.128 138.974 124.876C138.68 125.609 138.277 126.225 137.764 126.724C137.25 127.223 136.642 127.604 135.938 127.868C135.248 128.117 134.5 128.242 133.694 128.242ZM133.694 126.13C134.119 126.13 134.522 126.057 134.904 125.91C135.3 125.763 135.644 125.536 135.938 125.228C136.246 124.92 136.488 124.524 136.664 124.04C136.854 123.556 136.95 122.969 136.95 122.28V121.84C136.95 121.209 136.854 120.667 136.664 120.212C136.488 119.757 136.246 119.383 135.938 119.09C135.644 118.797 135.3 118.577 134.904 118.43C134.522 118.283 134.119 118.21 133.694 118.21C133.268 118.21 132.858 118.283 132.462 118.43C132.08 118.577 131.736 118.797 131.428 119.09C131.134 119.383 130.892 119.757 130.702 120.212C130.526 120.667 130.438 121.209 130.438 121.84V122.28C130.438 122.969 130.526 123.556 130.702 124.04C130.892 124.524 131.134 124.92 131.428 125.228C131.736 125.536 132.08 125.763 132.462 125.91C132.858 126.057 133.268 126.13 133.694 126.13ZM141.825 116.34H144.245V124.59L149.855 116.34H152.165V128H149.745V119.75L144.135 128H141.825V116.34ZM146.995 115.02C145.778 115.02 144.883 114.756 144.311 114.228C143.754 113.685 143.475 112.923 143.475 111.94H145.719C145.719 112.468 145.822 112.849 146.027 113.084C146.247 113.319 146.57 113.436 146.995 113.436C147.42 113.436 147.736 113.319 147.941 113.084C148.161 112.849 148.271 112.468 148.271 111.94H150.515C150.515 112.923 150.229 113.685 149.657 114.228C149.085 114.756 148.198 115.02 146.995 115.02Z" fill="#2D264B"/>
<path d="M78.5812 76.242C77.7892 76.242 77.0558 76.1247 76.3812 75.89C75.7212 75.6407 75.1418 75.2667 74.6432 74.768C74.1592 74.2693 73.7778 73.646 73.4992 72.898C73.2205 72.15 73.0812 71.2773 73.0812 70.28V69.84C73.0812 68.9013 73.2278 68.0727 73.5212 67.354C73.8145 66.6353 74.2105 66.034 74.7092 65.55C75.2225 65.066 75.8092 64.7067 76.4692 64.472C77.1438 64.2227 77.8478 64.098 78.5812 64.098C79.3438 64.098 80.0185 64.2007 80.6052 64.406C81.2065 64.6113 81.7125 64.8973 82.1232 65.264C82.5485 65.616 82.8858 66.034 83.1352 66.518C83.3845 67.002 83.5532 67.5227 83.6412 68.08H81.1772C81.0305 67.5373 80.7665 67.09 80.3852 66.738C80.0038 66.386 79.4025 66.21 78.5812 66.21C78.1705 66.21 77.7818 66.2833 77.4152 66.43C77.0485 66.562 76.7258 66.7747 76.4472 67.068C76.1685 67.3613 75.9485 67.7427 75.7872 68.212C75.6258 68.6667 75.5452 69.2093 75.5452 69.84V70.28C75.5452 70.9693 75.6258 71.5633 75.7872 72.062C75.9485 72.546 76.1685 72.942 76.4472 73.25C76.7258 73.558 77.0485 73.7853 77.4152 73.932C77.7818 74.064 78.1705 74.13 78.5812 74.13C79.9452 74.13 80.8105 73.5067 81.1772 72.26H83.6412C83.5238 72.876 83.3185 73.4333 83.0252 73.932C82.7465 74.416 82.3872 74.834 81.9472 75.186C81.5072 75.5233 81.0012 75.7873 80.4292 75.978C79.8572 76.154 79.2412 76.242 78.5812 76.242ZM90.2343 76.242C88.8703 76.242 87.741 75.89 86.8463 75.186C85.9516 74.4673 85.3943 73.492 85.1743 72.26H87.6383C88.005 73.5067 88.8703 74.13 90.2343 74.13C91.0263 74.13 91.6936 73.8953 92.2363 73.426C92.779 72.9567 93.109 72.172 93.2263 71.072H88.9143V69.048H93.2263C93.109 68.0653 92.7716 67.3467 92.2143 66.892C91.657 66.4373 90.997 66.21 90.2343 66.21C89.413 66.21 88.8116 66.386 88.4303 66.738C88.049 67.09 87.785 67.5373 87.6383 68.08H85.1743C85.2623 67.5227 85.431 67.002 85.6803 66.518C85.9296 66.034 86.2596 65.616 86.6703 65.264C87.0956 64.8973 87.6016 64.6113 88.1883 64.406C88.775 64.2007 89.457 64.098 90.2343 64.098C90.997 64.098 91.7083 64.2227 92.3683 64.472C93.043 64.7067 93.6296 65.066 94.1283 65.55C94.627 66.034 95.0156 66.6353 95.2943 67.354C95.5876 68.0727 95.7343 68.9013 95.7343 69.84V70.28C95.7343 71.2773 95.595 72.15 95.3163 72.898C95.0523 73.646 94.6783 74.2693 94.1943 74.768C93.7103 75.2667 93.131 75.6407 92.4563 75.89C91.7816 76.1247 91.041 76.242 90.2343 76.242ZM98.1474 64.34H100.567V69.07H101.887L105.979 64.34H108.707L103.757 69.906L108.927 76H105.979L101.887 71.05H100.567V76H98.1474V64.34ZM115.539 76.242C114.733 76.242 113.977 76.1173 113.273 75.868C112.584 75.604 111.983 75.2227 111.469 74.724C110.956 74.2253 110.553 73.6093 110.259 72.876C109.966 72.128 109.819 71.2627 109.819 70.28V69.84C109.819 68.916 109.966 68.102 110.259 67.398C110.553 66.6793 110.956 66.078 111.469 65.594C111.983 65.0953 112.584 64.7213 113.273 64.472C113.977 64.2227 114.733 64.098 115.539 64.098C116.346 64.098 117.094 64.2227 117.783 64.472C118.487 64.7213 119.096 65.0953 119.609 65.594C120.123 66.078 120.526 66.6793 120.819 67.398C121.113 68.102 121.259 68.916 121.259 69.84V70.28C121.259 71.2627 121.113 72.128 120.819 72.876C120.526 73.6093 120.123 74.2253 119.609 74.724C119.096 75.2227 118.487 75.604 117.783 75.868C117.094 76.1173 116.346 76.242 115.539 76.242ZM115.539 74.13C115.965 74.13 116.368 74.0567 116.749 73.91C117.145 73.7633 117.49 73.536 117.783 73.228C118.091 72.92 118.333 72.524 118.509 72.04C118.7 71.556 118.795 70.9693 118.795 70.28V69.84C118.795 69.2093 118.7 68.6667 118.509 68.212C118.333 67.7573 118.091 67.3833 117.783 67.09C117.49 66.7967 117.145 66.5767 116.749 66.43C116.368 66.2833 115.965 66.21 115.539 66.21C115.114 66.21 114.703 66.2833 114.307 66.43C113.926 66.5767 113.581 66.7967 113.273 67.09C112.98 67.3833 112.738 67.7573 112.547 68.212C112.371 68.6667 112.283 69.2093 112.283 69.84V70.28C112.283 70.9693 112.371 71.556 112.547 72.04C112.738 72.524 112.98 72.92 113.273 73.228C113.581 73.536 113.926 73.7633 114.307 73.91C114.703 74.0567 115.114 74.13 115.539 74.13ZM123.671 64.34H126.091V69.026H131.591V64.34H134.011V76H131.591V71.094H126.091V76H123.671V64.34ZM142.159 76.242C141.352 76.242 140.597 76.1173 139.893 75.868C139.203 75.604 138.602 75.2227 138.089 74.724C137.575 74.2253 137.172 73.6093 136.879 72.876C136.585 72.128 136.439 71.2627 136.439 70.28V69.84C136.439 68.916 136.585 68.102 136.879 67.398C137.172 66.6793 137.575 66.078 138.089 65.594C138.602 65.0953 139.203 64.7213 139.893 64.472C140.597 64.2227 141.352 64.098 142.159 64.098C142.965 64.098 143.713 64.2227 144.403 64.472C145.107 64.7213 145.715 65.0953 146.229 65.594C146.742 66.078 147.145 66.6793 147.439 67.398C147.732 68.102 147.879 68.916 147.879 69.84V70.28C147.879 71.2627 147.732 72.128 147.439 72.876C147.145 73.6093 146.742 74.2253 146.229 74.724C145.715 75.2227 145.107 75.604 144.403 75.868C143.713 76.1173 142.965 76.242 142.159 76.242ZM142.159 74.13C142.584 74.13 142.987 74.0567 143.369 73.91C143.765 73.7633 144.109 73.536 144.403 73.228C144.711 72.92 144.953 72.524 145.129 72.04C145.319 71.556 145.415 70.9693 145.415 70.28V69.84C145.415 69.2093 145.319 68.6667 145.129 68.212C144.953 67.7573 144.711 67.3833 144.403 67.09C144.109 66.7967 143.765 66.5767 143.369 66.43C142.987 66.2833 142.584 66.21 142.159 66.21C141.733 66.21 141.323 66.2833 140.927 66.43C140.545 66.5767 140.201 66.7967 139.893 67.09C139.599 67.3833 139.357 67.7573 139.167 68.212C138.991 68.6667 138.903 69.2093 138.903 69.84V70.28C138.903 70.9693 138.991 71.556 139.167 72.04C139.357 72.524 139.599 72.92 139.893 73.228C140.201 73.536 140.545 73.7633 140.927 73.91C141.323 74.0567 141.733 74.13 142.159 74.13ZM150.29 64.34H153.018L156.736 71.16L160.454 64.34H163.05V76H160.63V67.97L157.55 73.58H155.79L152.71 67.97V76H150.29V64.34ZM166.124 64.34H168.544V72.59L174.154 64.34H176.464V76H174.044V67.75L168.434 76H166.124V64.34ZM182.302 66.408H178.452V64.34H188.572V66.408H184.722V76H182.302V66.408ZM195.397 76.242C194.62 76.242 193.886 76.1247 193.197 75.89C192.508 75.6407 191.899 75.274 191.371 74.79C190.858 74.2913 190.447 73.668 190.139 72.92C189.831 72.172 189.677 71.292 189.677 70.28V69.84C189.677 68.872 189.824 68.0287 190.117 67.31C190.41 66.5913 190.806 65.9973 191.305 65.528C191.818 65.044 192.405 64.6847 193.065 64.45C193.725 64.2153 194.429 64.098 195.177 64.098C196.952 64.098 198.308 64.5747 199.247 65.528C200.2 66.4813 200.677 67.8453 200.677 69.62V70.852H192.141C192.156 71.4533 192.251 71.9667 192.427 72.392C192.618 72.8027 192.86 73.14 193.153 73.404C193.461 73.6533 193.806 73.8367 194.187 73.954C194.583 74.0713 194.986 74.13 195.397 74.13C196.233 74.13 196.842 73.998 197.223 73.734C197.619 73.47 197.89 73.1253 198.037 72.7H200.457C200.222 73.8587 199.643 74.7387 198.719 75.34C197.81 75.9413 196.702 76.242 195.397 76.242ZM195.287 66.21C194.876 66.21 194.48 66.2613 194.099 66.364C193.732 66.4667 193.402 66.6353 193.109 66.87C192.83 67.09 192.603 67.3833 192.427 67.75C192.251 68.102 192.156 68.5347 192.141 69.048H198.257C198.242 68.5053 198.154 68.0507 197.993 67.684C197.846 67.3173 197.641 67.024 197.377 66.804C197.113 66.584 196.798 66.43 196.431 66.342C196.079 66.254 195.698 66.21 195.287 66.21ZM207.284 73.932H208.604C208.75 73.712 208.882 73.382 209 72.942C209.132 72.502 209.242 72.0033 209.33 71.446C209.418 70.874 209.484 70.2653 209.528 69.62C209.572 68.96 209.594 68.3 209.594 67.64V64.34H218.284V73.932H219.824V78.75H217.58V76H209.528V78.75H207.284V73.932ZM215.864 73.932V66.408H211.926V68.08C211.926 69.2093 211.86 70.2947 211.728 71.336C211.596 72.3627 211.376 73.228 211.068 73.932H215.864ZM226.871 76.242C226.065 76.242 225.309 76.1173 224.605 75.868C223.916 75.604 223.315 75.2227 222.801 74.724C222.288 74.2253 221.885 73.6093 221.591 72.876C221.298 72.128 221.151 71.2627 221.151 70.28V69.84C221.151 68.916 221.298 68.102 221.591 67.398C221.885 66.6793 222.288 66.078 222.801 65.594C223.315 65.0953 223.916 64.7213 224.605 64.472C225.309 64.2227 226.065 64.098 226.871 64.098C227.678 64.098 228.426 64.2227 229.115 64.472C229.819 64.7213 230.428 65.0953 230.941 65.594C231.455 66.078 231.858 66.6793 232.151 67.398C232.445 68.102 232.591 68.916 232.591 69.84V70.28C232.591 71.2627 232.445 72.128 232.151 72.876C231.858 73.6093 231.455 74.2253 230.941 74.724C230.428 75.2227 229.819 75.604 229.115 75.868C228.426 76.1173 227.678 76.242 226.871 76.242ZM226.871 74.13C227.297 74.13 227.7 74.0567 228.081 73.91C228.477 73.7633 228.822 73.536 229.115 73.228C229.423 72.92 229.665 72.524 229.841 72.04C230.032 71.556 230.127 70.9693 230.127 70.28V69.84C230.127 69.2093 230.032 68.6667 229.841 68.212C229.665 67.7573 229.423 67.3833 229.115 67.09C228.822 66.7967 228.477 66.5767 228.081 66.43C227.7 66.2833 227.297 66.21 226.871 66.21C226.446 66.21 226.035 66.2833 225.639 66.43C225.258 66.5767 224.913 66.7967 224.605 67.09C224.312 67.3833 224.07 67.7573 223.879 68.212C223.703 68.6667 223.615 69.2093 223.615 69.84V70.28C223.615 70.9693 223.703 71.556 223.879 72.04C224.07 72.524 224.312 72.92 224.605 73.228C224.913 73.536 225.258 73.7633 225.639 73.91C226.035 74.0567 226.446 74.13 226.871 74.13ZM246.778 72.524H239.188V70.566L246.668 60.6H249.418V70.236H251.288V72.524H249.418V76H246.778V72.524ZM246.778 70.236V63.636L241.828 70.236H246.778ZM259.213 76.242C258.407 76.242 257.651 76.1173 256.947 75.868C256.258 75.6187 255.657 75.1933 255.143 74.592C254.63 73.976 254.227 73.162 253.933 72.15C253.64 71.1233 253.493 69.84 253.493 68.3V67.86C253.493 66.4373 253.64 65.2493 253.933 64.296C254.227 63.328 254.63 62.558 255.143 61.986C255.657 61.3993 256.258 60.9813 256.947 60.732C257.651 60.4827 258.407 60.358 259.213 60.358C260.02 60.358 260.768 60.4827 261.457 60.732C262.161 60.9813 262.77 61.3993 263.283 61.986C263.797 62.558 264.2 63.328 264.493 64.296C264.787 65.2493 264.933 66.4373 264.933 67.86V68.3C264.933 69.84 264.787 71.1233 264.493 72.15C264.2 73.162 263.797 73.976 263.283 74.592C262.77 75.1933 262.161 75.6187 261.457 75.868C260.768 76.1173 260.02 76.242 259.213 76.242ZM259.213 73.954C259.624 73.954 260.013 73.8733 260.379 73.712C260.746 73.5507 261.069 73.2647 261.347 72.854C261.641 72.4287 261.868 71.8493 262.029 71.116C262.205 70.3827 262.293 69.444 262.293 68.3V67.86C262.293 66.8333 262.205 65.9827 262.029 65.308C261.868 64.6333 261.641 64.098 261.347 63.702C261.069 63.306 260.746 63.0347 260.379 62.888C260.013 62.7267 259.624 62.646 259.213 62.646C258.803 62.646 258.414 62.7267 258.047 62.888C257.681 63.0347 257.351 63.306 257.057 63.702C256.779 64.098 256.551 64.6333 256.375 65.308C256.214 65.9827 256.133 66.8333 256.133 67.86V68.3C256.133 69.444 256.214 70.3827 256.375 71.116C256.551 71.8493 256.779 72.4287 257.057 72.854C257.351 73.2647 257.681 73.5507 258.047 73.712C258.414 73.8733 258.803 73.954 259.213 73.954ZM273.071 76.242C272.264 76.242 271.509 76.1173 270.805 75.868C270.115 75.6187 269.514 75.1933 269.001 74.592C268.487 73.976 268.084 73.162 267.791 72.15C267.497 71.1233 267.351 69.84 267.351 68.3V67.86C267.351 66.4373 267.497 65.2493 267.791 64.296C268.084 63.328 268.487 62.558 269.001 61.986C269.514 61.3993 270.115 60.9813 270.805 60.732C271.509 60.4827 272.264 60.358 273.071 60.358C273.877 60.358 274.625 60.4827 275.315 60.732C276.019 60.9813 276.627 61.3993 277.141 61.986C277.654 62.558 278.057 63.328 278.351 64.296C278.644 65.2493 278.791 66.4373 278.791 67.86V68.3C278.791 69.84 278.644 71.1233 278.351 72.15C278.057 73.162 277.654 73.976 277.141 74.592C276.627 75.1933 276.019 75.6187 275.315 75.868C274.625 76.1173 273.877 76.242 273.071 76.242ZM273.071 73.954C273.481 73.954 273.87 73.8733 274.237 73.712C274.603 73.5507 274.926 73.2647 275.205 72.854C275.498 72.4287 275.725 71.8493 275.887 71.116C276.063 70.3827 276.151 69.444 276.151 68.3V67.86C276.151 66.8333 276.063 65.9827 275.887 65.308C275.725 64.6333 275.498 64.098 275.205 63.702C274.926 63.306 274.603 63.0347 274.237 62.888C273.87 62.7267 273.481 62.646 273.071 62.646C272.66 62.646 272.271 62.7267 271.905 62.888C271.538 63.0347 271.208 63.306 270.915 63.702C270.636 64.098 270.409 64.6333 270.233 65.308C270.071 65.9827 269.991 66.8333 269.991 67.86V68.3C269.991 69.444 270.071 70.3827 270.233 71.116C270.409 71.8493 270.636 72.4287 270.915 72.854C271.208 73.2647 271.538 73.5507 271.905 73.712C272.271 73.8733 272.66 73.954 273.071 73.954ZM292.213 76.242C291.407 76.242 290.651 76.1173 289.947 75.868C289.258 75.6187 288.657 75.1933 288.143 74.592C287.63 73.976 287.227 73.162 286.933 72.15C286.64 71.1233 286.493 69.84 286.493 68.3V67.86C286.493 66.4373 286.64 65.2493 286.933 64.296C287.227 63.328 287.63 62.558 288.143 61.986C288.657 61.3993 289.258 60.9813 289.947 60.732C290.651 60.4827 291.407 60.358 292.213 60.358C293.02 60.358 293.768 60.4827 294.457 60.732C295.161 60.9813 295.77 61.3993 296.283 61.986C296.797 62.558 297.2 63.328 297.493 64.296C297.787 65.2493 297.933 66.4373 297.933 67.86V68.3C297.933 69.84 297.787 71.1233 297.493 72.15C297.2 73.162 296.797 73.976 296.283 74.592C295.77 75.1933 295.161 75.6187 294.457 75.868C293.768 76.1173 293.02 76.242 292.213 76.242ZM292.213 73.954C292.624 73.954 293.013 73.8733 293.379 73.712C293.746 73.5507 294.069 73.2647 294.347 72.854C294.641 72.4287 294.868 71.8493 295.029 71.116C295.205 70.3827 295.293 69.444 295.293 68.3V67.86C295.293 66.8333 295.205 65.9827 295.029 65.308C294.868 64.6333 294.641 64.098 294.347 63.702C294.069 63.306 293.746 63.0347 293.379 62.888C293.013 62.7267 292.624 62.646 292.213 62.646C291.803 62.646 291.414 62.7267 291.047 62.888C290.681 63.0347 290.351 63.306 290.057 63.702C289.779 64.098 289.551 64.6333 289.375 65.308C289.214 65.9827 289.133 66.8333 289.133 67.86V68.3C289.133 69.444 289.214 70.3827 289.375 71.116C289.551 71.8493 289.779 72.4287 290.057 72.854C290.351 73.2647 290.681 73.5507 291.047 73.712C291.414 73.8733 291.803 73.954 292.213 73.954ZM306.071 76.242C305.264 76.242 304.509 76.1173 303.805 75.868C303.115 75.6187 302.514 75.1933 302.001 74.592C301.487 73.976 301.084 73.162 300.791 72.15C300.497 71.1233 300.351 69.84 300.351 68.3V67.86C300.351 66.4373 300.497 65.2493 300.791 64.296C301.084 63.328 301.487 62.558 302.001 61.986C302.514 61.3993 303.115 60.9813 303.805 60.732C304.509 60.4827 305.264 60.358 306.071 60.358C306.877 60.358 307.625 60.4827 308.315 60.732C309.019 60.9813 309.627 61.3993 310.141 61.986C310.654 62.558 311.057 63.328 311.351 64.296C311.644 65.2493 311.791 66.4373 311.791 67.86V68.3C311.791 69.84 311.644 71.1233 311.351 72.15C311.057 73.162 310.654 73.976 310.141 74.592C309.627 75.1933 309.019 75.6187 308.315 75.868C307.625 76.1173 306.877 76.242 306.071 76.242ZM306.071 73.954C306.481 73.954 306.87 73.8733 307.237 73.712C307.603 73.5507 307.926 73.2647 308.205 72.854C308.498 72.4287 308.725 71.8493 308.887 71.116C309.063 70.3827 309.151 69.444 309.151 68.3V67.86C309.151 66.8333 309.063 65.9827 308.887 65.308C308.725 64.6333 308.498 64.098 308.205 63.702C307.926 63.306 307.603 63.0347 307.237 62.888C306.87 62.7267 306.481 62.646 306.071 62.646C305.66 62.646 305.271 62.7267 304.905 62.888C304.538 63.0347 304.208 63.306 303.915 63.702C303.636 64.098 303.409 64.6333 303.233 65.308C303.071 65.9827 302.991 66.8333 302.991 67.86V68.3C302.991 69.444 303.071 70.3827 303.233 71.116C303.409 71.8493 303.636 72.4287 303.915 72.854C304.208 73.2647 304.538 73.5507 304.905 73.712C305.271 73.8733 305.66 73.954 306.071 73.954ZM319.928 76.242C319.121 76.242 318.366 76.1173 317.662 75.868C316.973 75.6187 316.371 75.1933 315.858 74.592C315.345 73.976 314.941 73.162 314.648 72.15C314.355 71.1233 314.208 69.84 314.208 68.3V67.86C314.208 66.4373 314.355 65.2493 314.648 64.296C314.941 63.328 315.345 62.558 315.858 61.986C316.371 61.3993 316.973 60.9813 317.662 60.732C318.366 60.4827 319.121 60.358 319.928 60.358C320.735 60.358 321.483 60.4827 322.172 60.732C322.876 60.9813 323.485 61.3993 323.998 61.986C324.511 62.558 324.915 63.328 325.208 64.296C325.501 65.2493 325.648 66.4373 325.648 67.86V68.3C325.648 69.84 325.501 71.1233 325.208 72.15C324.915 73.162 324.511 73.976 323.998 74.592C323.485 75.1933 322.876 75.6187 322.172 75.868C321.483 76.1173 320.735 76.242 319.928 76.242ZM319.928 73.954C320.339 73.954 320.727 73.8733 321.094 73.712C321.461 73.5507 321.783 73.2647 322.062 72.854C322.355 72.4287 322.583 71.8493 322.744 71.116C322.92 70.3827 323.008 69.444 323.008 68.3V67.86C323.008 66.8333 322.92 65.9827 322.744 65.308C322.583 64.6333 322.355 64.098 322.062 63.702C321.783 63.306 321.461 63.0347 321.094 62.888C320.727 62.7267 320.339 62.646 319.928 62.646C319.517 62.646 319.129 62.7267 318.762 62.888C318.395 63.0347 318.065 63.306 317.772 63.702C317.493 64.098 317.266 64.6333 317.09 65.308C316.929 65.9827 316.848 66.8333 316.848 67.86V68.3C316.848 69.444 316.929 70.3827 317.09 71.116C317.266 71.8493 317.493 72.4287 317.772 72.854C318.065 73.2647 318.395 73.5507 318.762 73.712C319.129 73.8733 319.517 73.954 319.928 73.954ZM334.671 73.844H332.691V71.776H334.671V70.412H332.691V68.124H334.671V60.6H339.841C341.689 60.6 343.082 61.0473 344.021 61.942C344.974 62.822 345.451 64.01 345.451 65.506C345.451 67.002 344.974 68.1973 344.021 69.092C343.082 69.972 341.689 70.412 339.841 70.412H337.311V71.776H342.371V73.844H337.311V76H334.671V73.844ZM339.621 68.124C340.794 68.124 341.615 67.9113 342.085 67.486C342.569 67.046 342.811 66.386 342.811 65.506C342.811 64.626 342.569 63.9733 342.085 63.548C341.615 63.108 340.794 62.888 339.621 62.888H337.311V68.124H339.621ZM348.429 76V73.228H351.289V76L348.869 79.41H347.549L348.429 76Z" fill="#FD4C00"/>
<path d="M0.999084 1L377 25V151L38 182L0.999084 229V1Z" stroke="#FD4C00"/>
</svg>
