<svg width="574" height="417" viewBox="0 0 574 417" fill="none" xmlns="http://www.w3.org/2000/svg">
<path fill-rule="evenodd" clip-rule="evenodd" d="M556.165 235.991C558.449 250.993 559.927 266.106 560.593 281.266C543.803 280.099 520.156 269.164 517.081 262.161L444.354 254.728L446.322 198.702C434.606 204.476 427.072 206.995 413.05 216.271C409.759 204.353 408.591 199.961 393.953 198.855L426.703 171.61C431.808 150.109 433.837 109.779 439.864 101.516C444.754 94.7895 455.24 91.3186 466.71 89.8442C454.902 123.939 502.628 115.216 505.241 88.5234C520.156 90.6428 527.536 94.6666 535.685 105.018L539.836 110.915C557.426 139.696 568.896 186.477 565.821 205.797C563.361 216.088 560.134 226.181 556.165 235.991Z" fill="#C7B4B4"/>
<path fill-rule="evenodd" clip-rule="evenodd" d="M496.079 289.928C497.708 286.857 500.599 282.126 500.599 282.126C500.599 282.126 487.899 287.748 487.929 283.939C487.96 280.13 500.045 275.185 509.086 270.823C514.006 268.458 518.127 265.816 519.173 265.356C519.941 262.284 521.048 257.462 520.987 257.462C495.464 261.35 469.384 259.246 444.816 251.318L443.371 266.093C460.432 275.115 478.034 283.076 496.079 289.928Z" fill="#35375B"/>
<path fill-rule="evenodd" clip-rule="evenodd" d="M558.041 247.725L550.876 249.967C535.992 293.553 523.815 297.577 524.953 297.761C531.103 298.682 553.736 303.904 559.363 304.426C559.363 304.426 559.917 305.286 559.947 305.286C561.534 286.09 560.894 266.774 558.041 247.725Z" fill="#35375B"/>
<path fill-rule="evenodd" clip-rule="evenodd" d="M516.005 379.65C516.005 379.65 478.396 372.37 471.446 370.742C458.785 367.347 446.382 363.056 434.33 357.903L428.18 416.939H476.643L489.128 382.66L490.82 416.939H547.986C547.986 416.939 553.952 355.875 557.673 326.787C554.813 329.06 516.005 379.65 516.005 379.65Z" fill="#35375B"/>
<path fill-rule="evenodd" clip-rule="evenodd" d="M471.26 3.28677C492.14 -0.675592 506.932 14.9588 510.775 34.3713C513.851 49.5143 504.441 66.3159 495.677 72.1827C495.254 69.439 495.059 66.6652 495.092 63.8894C496.697 63.899 498.242 63.2817 499.397 62.1693C501.765 59.8349 489.496 57.5926 489.157 54.4289C488.389 47.8249 486.451 43.9547 485.529 43.6783C482.638 32.2212 500.904 10.72 450.78 29.4261C450.534 29.4261 447.367 21.7471 447.09 21.6856C450.042 9.61426 463.788 4.6997 471.26 3.28677Z" fill="#35375B"/>
<path fill-rule="evenodd" clip-rule="evenodd" d="M519.049 264.864C515.697 268.58 515.482 268.15 509.148 270.792C502.813 273.434 496.847 275.123 491.312 279.7C487.376 283.048 487.16 284.891 489.098 285.198C491.909 285.058 494.69 284.552 497.37 283.693C499.021 283.219 500.476 282.228 501.521 280.867C501.521 281.88 499.922 283.232 498.938 284.829C496.395 288.557 494.936 292.916 494.725 297.423C494.725 299.757 494.295 305.655 495.617 307.344C496.171 308.05 496.54 314.9 498.169 315.699C498.784 316.006 499.83 314.562 500.906 312.351C501.337 314.685 501.706 316.62 502.321 316.989C504.258 318.125 506.718 312.289 506.657 313.119C506.657 315.177 507.456 315.299 508.071 315.422C510.624 315.883 517.512 302.829 517.543 302.829C527.66 298.191 539.068 278.44 539.96 275.584C538.515 278.164 519.695 264.157 519.049 264.864Z" fill="#FFA17A"/>
<path fill-rule="evenodd" clip-rule="evenodd" d="M502.873 317.511H502.627C502.291 317.428 501.984 317.259 501.735 317.02C501.508 316.768 501.331 316.476 501.212 316.16C499.644 312.167 503.641 299.542 505.579 296.624C507.516 293.706 510.622 289.928 510.653 289.897L511.36 290.481C511.36 290.481 508.285 294.351 506.317 297.116C504.349 299.88 500.628 312.136 502.073 315.852C502.115 316.04 502.212 316.211 502.35 316.344C502.482 316.491 502.652 316.597 502.842 316.651C504.01 316.958 506.44 311.982 508.039 307.221L508.9 307.498C508.1 309.894 505.333 317.511 502.873 317.511Z" fill="#35375B"/>
<path fill-rule="evenodd" clip-rule="evenodd" d="M498.166 316.006C497.882 316 497.605 315.915 497.366 315.761C497.123 315.632 496.929 315.427 496.813 315.177C494.937 312.351 496.013 301.815 498.812 295.396C500.762 292.049 502.951 288.846 505.362 285.812L506.1 286.365C503.742 289.288 501.584 292.367 499.642 295.58C496.782 302.184 496.013 312.167 497.551 314.532C497.828 314.931 498.074 314.931 498.135 314.931C499.089 314.931 500.78 310.692 501.764 306.73L502.656 306.945C502.194 309.187 500.349 316.006 498.166 316.006Z" fill="#35375B"/>
<path fill-rule="evenodd" clip-rule="evenodd" d="M495.984 309.218C495.984 308.757 492.725 298.283 494.846 291.894C496.361 287.8 498.52 283.973 501.243 280.56L501.95 281.143C499.328 284.47 497.252 288.192 495.8 292.17C493.801 298.313 496.938 308.849 496.968 308.941L495.984 309.218Z" fill="#35375B"/>
<path fill-rule="evenodd" clip-rule="evenodd" d="M490.018 285.843C489.339 285.908 488.658 285.746 488.081 285.382C487.843 285.227 487.66 285.002 487.558 284.737C487.496 284.464 487.496 284.181 487.558 283.908C487.927 280.59 497.399 275.246 503.826 272.789C509.055 270.676 514.087 268.107 518.863 265.11C519.539 262.253 528.088 226.192 529.841 200.606C527.939 181.942 524.264 163.501 518.863 145.532L519.724 145.256C527.658 168.999 530.702 200.237 530.764 200.545C528.918 227.298 519.693 265.11 519.693 265.478C519.668 265.59 519.602 265.689 519.509 265.755C514.632 268.834 509.486 271.466 504.133 273.618C497.276 276.229 488.758 281.45 488.481 284.031C488.449 284.141 488.449 284.258 488.481 284.368C488.527 284.486 488.601 284.592 488.696 284.676C490.141 285.751 496.599 283.723 500.351 282.188L500.689 283.017C497.289 284.473 493.694 285.425 490.018 285.843Z" fill="#35375B"/>
<path fill-rule="evenodd" clip-rule="evenodd" d="M508.131 315.853C507.96 315.898 507.78 315.898 507.608 315.853C507.39 315.732 507.201 315.564 507.055 315.361C506.903 315.161 506.798 314.931 506.747 314.685C505.979 311.614 509.392 303.075 511.329 300.341C512.898 298.099 515.942 294.505 515.942 294.444L516.618 294.874C516.618 294.874 513.543 298.498 512.037 300.679C510.53 302.86 506.932 311.583 507.608 314.286C507.578 314.397 507.578 314.513 507.608 314.624L507.854 314.9H508.07C509.607 314.9 513.759 308.942 516.957 303.044C516.969 303.005 516.988 302.968 517.015 302.936C517.041 302.905 517.074 302.879 517.11 302.86C521.327 300.178 525.191 296.979 528.611 293.338C532.816 287.87 536.511 282.03 539.651 275.891C539.866 275.369 563.053 220.295 565.451 205.244C568.373 186.477 557.456 140.157 539.528 110.793L535.407 104.926C528.765 96.4484 515.573 90.7353 496.23 87.9708V87.0801C515.819 89.8445 529.196 95.6498 535.992 104.373L540.174 110.271C558.225 139.819 569.141 186.446 566.22 205.49C563.821 220.848 540.604 276.137 540.358 276.536C537.19 282.758 533.432 288.662 529.134 294.167C525.704 297.849 521.819 301.08 517.572 303.781C516.157 306.761 510.96 315.853 508.131 315.853Z" fill="#35375B"/>
<path fill-rule="evenodd" clip-rule="evenodd" d="M495.431 259.888C478.165 260.103 460.988 257.392 444.63 251.871C444.538 251.838 444.462 251.772 444.415 251.687C444.386 251.597 444.386 251.5 444.415 251.41C444.415 250.919 448.382 202.941 444.107 187.89C443.157 184.991 442.038 182.15 440.755 179.381C438.603 175.036 437.021 170.432 436.051 165.682C434.79 153.918 442.201 127.748 442.477 126.642L443.338 126.888C443.338 127.164 435.712 153.979 436.942 165.559C437.918 170.221 439.478 174.741 441.586 179.013C442.906 181.811 444.036 184.694 444.968 187.644C449.15 202.357 445.737 246.465 445.337 251.165C469.725 259.11 495.655 261.142 520.985 257.093V257.984C512.499 259.288 503.925 259.935 495.339 259.919L495.431 259.888Z" fill="#35375B"/>
<path fill-rule="evenodd" clip-rule="evenodd" d="M522.831 309.095L498.199 368.008L509.177 370.865L549.984 313.794L522.831 309.095Z" fill="#FC4C00"/>
<path fill-rule="evenodd" clip-rule="evenodd" d="M509.176 371.326L498.167 368.592H498.014V368.438C498 368.378 498 368.315 498.014 368.254C497.995 368.184 497.995 368.11 498.014 368.039L522.615 309.126C522.662 309.033 522.737 308.958 522.83 308.911C522.92 308.883 523.016 308.883 523.107 308.911L550.26 313.641H550.475L550.629 313.825C550.629 313.825 550.629 313.825 550.629 314.04C550.647 314.111 550.647 314.185 550.629 314.255L509.545 371.141H509.33L509.176 371.326ZM498.813 367.701L508.992 370.373L549.214 314.133L523.107 309.617L498.813 367.701Z" fill="#35375B"/>
<path fill-rule="evenodd" clip-rule="evenodd" d="M516.004 380.11C493.858 376.893 472.034 371.755 450.781 364.752C434.237 358.947 385.619 338.306 385.097 338.091V337.907C385.082 337.846 385.082 337.783 385.097 337.722C385.097 337.722 385.097 337.722 385.097 337.538L433.837 261.086C433.914 261.004 434.009 260.941 434.114 260.902C434.167 260.879 434.225 260.867 434.283 260.867C434.341 260.867 434.399 260.879 434.452 260.902C454.331 271.891 474.966 281.458 496.2 289.529L495.924 290.389C474.772 282.368 454.22 272.853 434.421 261.915L385.927 337.385C391.124 339.596 435.436 358.333 451.027 363.8C472.135 370.796 493.815 375.935 515.82 379.158L572.709 306.976C568.189 306.3 544.756 302.645 524.86 298.16L525.045 297.269C547.032 302.215 573.355 306.146 573.601 306.177H573.816C573.884 306.235 573.937 306.309 573.97 306.392C573.985 306.463 573.985 306.536 573.97 306.607V306.822L516.435 379.803L516.004 380.11Z" fill="#35375B"/>
<path d="M444.309 251.31L442.859 266.075L443.747 266.162L445.196 251.397L444.309 251.31Z" fill="#35375B"/>
<path fill-rule="evenodd" clip-rule="evenodd" d="M428.517 417L427.625 416.877L430.669 390.646L433.898 357.872L434.79 357.933L431.561 390.738L428.517 417Z" fill="#35375B"/>
<path fill-rule="evenodd" clip-rule="evenodd" d="M560.07 304.457H559.147C559.947 293.89 560.377 286.027 560.377 280.928C559.687 265.78 558.208 250.678 555.949 235.684H556.841C559.151 250.714 560.64 265.859 561.3 281.051C561.3 285.935 560.869 293.89 560.07 304.457Z" fill="black"/>
<path fill-rule="evenodd" clip-rule="evenodd" d="M548.109 416.939H547.371C547.371 416.447 553.521 367.793 557.396 326.757H558.288C554.29 368.039 548.171 416.447 548.109 416.939Z" fill="black"/>
<path fill-rule="evenodd" clip-rule="evenodd" d="M463.482 294.751L422.922 342.207L401.242 335.664L452.996 289.314L463.482 294.751Z" fill="#E3E3E3"/>
<path fill-rule="evenodd" clip-rule="evenodd" d="M422.918 342.637L401.239 336.125C401.239 336.125 401.085 336.125 401.054 336.125C401.044 336.054 401.044 335.981 401.054 335.91C401.024 335.831 401.024 335.743 401.054 335.664C401.033 335.594 401.033 335.519 401.054 335.449L452.778 289.099C452.859 289.082 452.943 289.082 453.024 289.099C453.103 289.068 453.191 289.068 453.27 289.099L463.787 294.536C463.837 294.523 463.89 294.523 463.94 294.536C463.962 294.595 463.962 294.66 463.94 294.72V294.873C463.952 294.934 463.952 294.997 463.94 295.058L423.349 342.514L422.918 342.637ZM402.161 335.48L422.765 341.623L462.741 294.843L453.024 289.805L402.161 335.48Z" fill="#35375B"/>
<path fill-rule="evenodd" clip-rule="evenodd" d="M448.506 300.095C449.824 298.349 450.573 296.241 450.651 294.055C450.729 291.87 450.131 289.713 448.94 287.878C447.749 286.043 446.022 284.619 443.992 283.798C441.963 282.977 439.73 282.8 437.596 283.29C435.463 283.779 433.531 284.913 432.065 286.537C430.598 288.16 429.667 290.195 429.397 292.366C429.128 294.536 429.534 296.736 430.559 298.669C431.584 300.601 433.18 302.171 435.129 303.167C437.314 304.52 439.945 304.957 442.451 304.381C444.956 303.806 447.132 302.266 448.506 300.095Z" fill="#35375B"/>
<path fill-rule="evenodd" clip-rule="evenodd" d="M451.117 352.927L491.616 365.49L497.428 352.527L459.666 342.575L451.117 352.927Z" fill="#FC4C00"/>
<path fill-rule="evenodd" clip-rule="evenodd" d="M491.618 365.95L450.965 353.234H450.78C450.771 353.173 450.771 353.111 450.78 353.05V352.835V352.62L459.36 342.299C459.431 342.285 459.504 342.285 459.575 342.299C459.654 342.268 459.742 342.268 459.821 342.299L497.583 352.251H497.768C497.785 352.311 497.785 352.375 497.768 352.435C497.768 352.435 497.768 352.435 497.768 352.62L492.017 365.674C492.031 365.745 492.031 365.818 492.017 365.889H491.741L491.618 365.95ZM452.041 352.681L491.525 364.967L496.968 352.865L460.067 343.128L452.041 352.681Z" fill="#35375B"/>
<path fill-rule="evenodd" clip-rule="evenodd" d="M501.521 190.716C487.59 190.716 482.086 184.573 481.84 184.419L482.516 183.805C482.516 183.805 490.604 192.559 511.545 188.873L511.699 189.764C508.34 190.373 504.934 190.691 501.521 190.716Z" fill="#35375B"/>
<path fill-rule="evenodd" clip-rule="evenodd" d="M522.398 156.252C522.398 156.252 530.517 190.04 530.178 201.436C529.871 210.896 524.028 243.762 524.028 242.841C524.028 241.919 522.398 156.252 522.398 156.252Z" fill="#35375B"/>
<path fill-rule="evenodd" clip-rule="evenodd" d="M190.104 417H99.727C101.941 392.735 89.6714 321.781 107.784 288.853C119.223 268.059 172.945 285.659 190.658 284.584C191.027 293.952 190.658 407.693 190.104 417Z" fill="#FC4C00"/>
<path fill-rule="evenodd" clip-rule="evenodd" d="M159.566 259.796L117.867 276.874V277.151L118.298 278.256L120.051 282.557C121.557 286.273 123.741 291.771 126.385 298.314C131.705 311.583 138.901 329.767 146.404 349.395C155.384 372.831 164.24 396.912 171.005 416.97H265.688C253.787 375.81 238.012 311.061 227.987 273.25C225.281 266.492 216.117 254.021 214.549 250.151C213.749 248.247 213.165 246.742 212.734 245.697L212.181 244.561V244.254C212.181 244.254 201.264 242.657 159.566 259.796Z" fill="#FC4C00"/>
<path fill-rule="evenodd" clip-rule="evenodd" d="M144.806 382.783C151.386 394.004 157.608 405.41 163.472 417H165.286C159.136 405.144 152.986 393.441 146.22 381.984C146.11 381.803 145.933 381.671 145.728 381.615C145.531 381.537 145.311 381.537 145.113 381.615C144.932 381.726 144.8 381.902 144.744 382.107C144.706 382.217 144.692 382.335 144.703 382.451C144.713 382.568 144.748 382.681 144.806 382.783Z" fill="#35375B"/>
<path fill-rule="evenodd" clip-rule="evenodd" d="M222.883 30.7161C222.883 30.7161 239.458 15.3581 227.373 7.37192C214.18 -1.41285 181.246 -4.17729 172.021 9.4606C169.163 11.0528 166.545 13.038 164.24 15.3581C150.341 29.0267 176.756 85.6055 176.756 85.6055L222.883 30.7161Z" fill="#35375B"/>
<path fill-rule="evenodd" clip-rule="evenodd" d="M224.635 28.6887C224.635 28.6887 224.174 36.4598 224.235 46.2275C224.235 49.1148 231.001 54.9816 230.724 57.9917C230.478 60.449 225.865 61.4934 224.574 63.5513C223.067 66.2236 222.667 69.0188 221.252 71.476C219.838 73.9333 218.485 81.8888 216.302 82.1959C207.288 83.0099 198.269 80.7114 190.747 75.6841C188.676 74.3771 186.939 72.6054 185.674 70.5098C184.408 68.4141 183.65 66.0525 183.459 63.6128C180.995 63.6913 178.569 62.9915 176.526 61.6127C174.483 60.234 172.928 58.2467 172.081 55.9338C169.006 47.6712 174.019 40.5758 178.785 39.7464C180.466 39.6969 182.139 39.9993 183.696 40.6341C185.253 41.2688 186.66 42.222 187.826 43.4324L185.827 34.7705C185.827 34.7705 212.765 0.46072 224.635 28.6887Z" fill="#FFA17A"/>
<path fill-rule="evenodd" clip-rule="evenodd" d="M225.435 35.1702C224.958 33.6735 224.106 32.3234 222.96 31.2483C221.813 30.1731 220.411 29.4085 218.885 29.027C217.316 28.658 215.687 28.6148 214.1 28.9001C212.514 29.1854 211.002 29.7931 209.66 30.6856C209.66 30.6856 209.66 40.1154 201.511 42.972C197.203 44.8348 192.338 44.945 187.95 43.2792L183.214 40.2076L181.246 31.6686L200.22 19.1364L231.77 13.6997C232.069 21.3563 229.844 28.8994 225.435 35.1702Z" fill="#35375B"/>
<path fill-rule="evenodd" clip-rule="evenodd" d="M192.504 39.2551C195.512 38.7654 198.348 37.5266 200.751 35.653C203.153 33.7795 205.044 31.3316 206.25 28.5353C206.356 28.2585 206.356 27.952 206.25 27.6752C206.201 27.5377 206.123 27.412 206.023 27.3062C205.922 27.2004 205.8 27.1168 205.665 27.0609C205.53 26.9998 205.383 26.9683 205.235 26.9683C205.086 26.9683 204.94 26.9998 204.804 27.0609C204.538 27.1786 204.321 27.3849 204.189 27.6445C203.152 30.0318 201.56 32.1377 199.546 33.7877C197.53 35.4353 195.146 36.5732 192.596 37.105C192.353 37.1006 192.115 37.1761 191.92 37.32C191.746 37.4527 191.618 37.6348 191.551 37.8422C191.473 38.0502 191.473 38.2793 191.551 38.4872C191.567 38.5974 191.605 38.7031 191.663 38.7981C191.721 38.893 191.798 38.9754 191.889 39.0401C192.049 39.1916 192.254 39.2884 192.473 39.3166L192.504 39.2551Z" fill="#E3E3E3"/>
<path fill-rule="evenodd" clip-rule="evenodd" d="M192.227 32.7739C192.377 32.8192 192.538 32.8192 192.688 32.7739C194.527 32.1447 196.178 31.0639 197.489 29.6308C198.8 28.1977 199.729 26.4584 200.191 24.5727C200.296 24.3062 200.296 24.01 200.191 23.7434C200.015 23.4936 199.752 23.3184 199.453 23.2519C199.164 23.2204 198.872 23.2852 198.623 23.4362C198.382 23.6016 198.216 23.8556 198.162 24.1427C197.785 25.672 197.021 27.0793 195.944 28.23C194.868 29.3808 193.514 30.2366 192.012 30.7159C191.769 30.7975 191.563 30.9603 191.427 31.1767C191.275 31.3905 191.209 31.6537 191.243 31.9139C191.253 32.1706 191.363 32.4132 191.55 32.5896C191.735 32.7647 191.973 32.8729 192.227 32.8968V32.7739Z" fill="#E3E3E3"/>
<path fill-rule="evenodd" clip-rule="evenodd" d="M180.356 56.794C180.502 56.8209 180.652 56.8156 180.795 56.7785C180.939 56.7413 181.072 56.6732 181.186 56.579C181.422 56.3869 181.576 56.1124 181.617 55.8111C181.854 54.0211 181.718 52.2014 181.217 50.4665C180.727 48.7179 179.867 47.0945 178.696 45.7056C178.608 45.594 178.491 45.5089 178.357 45.4598C178.215 45.4291 178.069 45.4291 177.927 45.4598C177.785 45.4281 177.638 45.4281 177.496 45.4598C177.355 45.4936 177.226 45.5684 177.127 45.6749C177.014 45.7742 176.93 45.9012 176.881 46.0434C176.852 46.1956 176.852 46.352 176.881 46.5042C176.868 46.6472 176.868 46.7912 176.881 46.9342C176.953 47.0711 177.047 47.1955 177.158 47.3028C178.098 48.4441 178.78 49.7748 179.157 51.2037C179.555 52.6325 179.649 54.1287 179.434 55.5961C179.406 55.8938 179.494 56.1907 179.68 56.4254C179.868 56.6453 180.131 56.7875 180.418 56.8248L180.356 56.794Z" fill="#35375B"/>
<path fill-rule="evenodd" clip-rule="evenodd" d="M180.203 52.7086C180.499 52.7645 180.805 52.7098 181.064 52.555C181.305 52.3896 181.471 52.1356 181.525 51.8485C181.572 51.7069 181.588 51.5569 181.572 51.4085C181.556 51.2602 181.509 51.1169 181.433 50.9885C181.28 50.7426 181.037 50.5662 180.756 50.497L176.143 49.1455C175.865 49.0446 175.561 49.0446 175.282 49.1455C175.136 49.201 175.008 49.2968 174.913 49.422C174.812 49.5371 174.739 49.6736 174.698 49.8213C174.668 49.9734 174.668 50.1299 174.698 50.282C174.717 50.4349 174.77 50.5818 174.852 50.712C174.918 50.8443 175.013 50.9599 175.13 51.0503C175.248 51.1408 175.384 51.2036 175.528 51.2342L180.049 52.7086H180.203Z" fill="#35375B"/>
<path fill-rule="evenodd" clip-rule="evenodd" d="M211.352 40.3918C211.184 40.3551 211.032 40.2674 210.916 40.1409C210.801 40.0144 210.727 39.8553 210.706 39.6853C210.679 39.5718 210.676 39.454 210.698 39.3395C210.72 39.225 210.766 39.1163 210.833 39.0207C210.899 38.925 210.986 38.8445 211.086 38.7844C211.186 38.7242 211.297 38.6858 211.413 38.6717L218.332 37.443C218.447 37.4208 218.566 37.4213 218.68 37.4448C218.795 37.4683 218.904 37.5141 219.001 37.5797C219.099 37.6453 219.182 37.7294 219.246 37.8272C219.311 37.925 219.355 38.0345 219.378 38.1495C219.4 38.2667 219.398 38.3871 219.372 38.5035C219.347 38.62 219.299 38.7302 219.23 38.8276C219.161 38.925 219.073 39.0076 218.972 39.0705C218.87 39.1334 218.757 39.1754 218.64 39.1939L211.721 40.4225C211.597 40.4424 211.47 40.4319 211.352 40.3918Z" fill="#35375B"/>
<path fill-rule="evenodd" clip-rule="evenodd" d="M215.504 64.6573C215.519 64.489 215.583 64.3287 215.689 64.1966C215.83 64.0049 216.041 63.8755 216.276 63.8354C216.511 63.7953 216.752 63.8477 216.95 63.9816L222.3 67.8518C222.49 67.9877 222.619 68.1925 222.659 68.4222C222.699 68.6519 222.648 68.8883 222.516 69.0804C222.374 69.2721 222.164 69.4015 221.928 69.4416C221.693 69.4817 221.452 69.4293 221.255 69.2954L215.904 65.4252C215.778 65.3417 215.674 65.2274 215.604 65.093C215.535 64.9587 215.5 64.8087 215.504 64.6573Z" fill="#35375B"/>
<path fill-rule="evenodd" clip-rule="evenodd" d="M218.334 47.0261C218.5 46.9989 218.659 46.9387 218.802 46.849C218.945 46.7593 219.068 46.642 219.164 46.504C219.268 46.3646 219.34 46.2049 219.377 46.0355C219.414 45.8661 219.415 45.6908 219.38 45.5211C219.315 45.189 219.129 44.8931 218.857 44.6917C218.579 44.4981 218.237 44.4209 217.903 44.4767L212.953 45.1832C212.783 45.2009 212.618 45.2538 212.47 45.3384C212.322 45.423 212.193 45.5375 212.092 45.6746C211.985 45.8069 211.909 45.9602 211.866 46.1244C211.824 46.2885 211.817 46.4598 211.845 46.6268C211.897 46.9644 212.073 47.2708 212.338 47.4869C212.47 47.5929 212.623 47.6696 212.788 47.712C212.952 47.7543 213.124 47.7614 213.291 47.7326L218.334 47.0569V47.0261Z" fill="#35375B"/>
<path fill-rule="evenodd" clip-rule="evenodd" d="M216.367 47.1493C216.32 47.3515 216.32 47.5614 216.367 47.7636C216.404 47.9648 216.488 48.1543 216.613 48.3165C216.713 48.4874 216.849 48.6342 217.012 48.7465C217.193 48.8594 217.39 48.9424 217.597 48.9923C218.007 49.0552 218.426 48.9561 218.765 48.7158C219.111 48.4759 219.353 48.1135 219.442 47.7022C219.487 47.5103 219.487 47.3104 219.442 47.1186C219.416 46.91 219.343 46.7102 219.226 46.535C219.115 46.3627 218.968 46.2161 218.796 46.105C218.628 45.9966 218.44 45.9234 218.242 45.8899C217.833 45.8329 217.417 45.9303 217.076 46.1632C216.735 46.3961 216.493 46.7477 216.397 47.1493H216.367Z" fill="#35375B"/>
<path fill-rule="evenodd" clip-rule="evenodd" d="M228.635 62.5074C229.884 62.0792 230.962 61.2607 231.71 60.1729C231.924 59.7966 232.051 59.3765 232.079 58.9443C232.115 58.5131 232.041 58.0797 231.864 57.6849C231.428 56.7254 230.824 55.8515 230.08 55.1048C227.359 52.0288 225.53 48.2692 224.791 44.2314C224.701 43.9522 224.516 43.7132 224.268 43.5556C224.088 43.4301 223.873 43.3628 223.653 43.3628C223.433 43.3628 223.218 43.4301 223.038 43.5556C222.92 43.6529 222.816 43.7667 222.73 43.8935C222.699 44.0247 222.699 44.1615 222.73 44.2928C222.684 44.4323 222.684 44.5833 222.73 44.7228C223.572 49.126 225.603 53.2155 228.604 56.5485C229.166 57.1034 229.634 57.7467 229.988 58.4528C230.003 58.5444 230.003 58.6377 229.988 58.7293C230.005 58.8103 230.005 58.894 229.988 58.975C228.349 60.3369 226.331 61.1626 224.207 61.3401C224.075 61.3088 223.938 61.3088 223.807 61.3401C223.674 61.4179 223.559 61.5225 223.468 61.6473C223.377 61.7642 223.313 61.901 223.284 62.0466C223.239 62.1969 223.239 62.3571 223.284 62.5074C223.259 62.6393 223.259 62.7747 223.284 62.9067C223.37 63.0334 223.473 63.1472 223.591 63.2445C223.713 63.322 223.849 63.3742 223.991 63.3981C224.143 63.4287 224.3 63.4287 224.453 63.3981C225.874 63.2514 227.277 62.9528 228.635 62.5074Z" fill="#35375B"/>
<path fill-rule="evenodd" clip-rule="evenodd" d="M178.602 62.6914L175.281 92.4552C175.281 92.4552 180.786 91.6873 192.902 95.7111C201.942 98.7827 205.663 97.4005 205.663 97.4005L206.986 86.3734L208.246 75.6535L187.858 63.3672L178.602 62.6914Z" fill="#FFA17A"/>
<path fill-rule="evenodd" clip-rule="evenodd" d="M324.762 220.357L267.996 221.155C267.996 221.155 272.393 159.539 257.848 130.144C239.151 92.3017 166.456 81.6433 130.877 93.4689C90.0701 107.045 119.253 261.086 99.2031 305.839C145.607 309.894 219.132 326.173 228.85 269.164C228.85 269.164 237.86 283.355 242.257 285.72C262.584 296.655 334.91 267.014 334.91 267.014C334.91 267.014 334.634 251.257 333.742 246.711C331.592 237.662 328.585 228.837 324.762 220.357Z" fill="#35375B"/>
<path fill-rule="evenodd" clip-rule="evenodd" d="M77.5852 204.231C69.4054 236.943 101.264 310.785 101.264 310.785C101.927 301.635 103.619 292.588 106.307 283.816C101.448 279.792 122.451 164.454 124.757 148.358C127.832 127.84 114.333 110.025 122.051 99.2129C116.854 106.185 87.3948 165.007 77.5852 204.231Z" fill="#35375B"/>
<path fill-rule="evenodd" clip-rule="evenodd" d="M358.864 261.639L325.038 270.854C319.349 262.069 312.737 240.138 313.199 222.107L351.453 212.217L358.864 261.639Z" fill="white"/>
<path fill-rule="evenodd" clip-rule="evenodd" d="M359.082 262.437L324.518 271.836L324.21 271.345C320.076 264.079 317.069 256.229 315.292 248.062C313.153 239.579 312.119 230.855 312.217 222.107V221.462L352.009 211.203C354.592 228.22 357.186 245.236 359.789 262.253L359.082 262.437ZM325.256 269.901L357.913 261.086L350.564 213.292L313.663 222.783C313.64 231.172 314.674 239.531 316.738 247.663C318.493 255.45 321.373 262.942 325.286 269.901H325.256Z" fill="#35375B"/>
<path fill-rule="evenodd" clip-rule="evenodd" d="M333.313 228.865C332.637 228.191 331.777 227.731 330.841 227.545C329.904 227.359 328.933 227.454 328.051 227.819C327.169 228.184 326.415 228.802 325.884 229.595C325.354 230.388 325.07 231.321 325.07 232.275C325.07 233.228 325.354 234.161 325.884 234.954C326.415 235.747 327.169 236.365 328.051 236.73C328.933 237.095 329.904 237.19 330.841 237.004C331.777 236.818 332.637 236.359 333.313 235.684C334.21 234.776 334.714 233.551 334.714 232.275C334.714 230.998 334.21 229.773 333.313 228.865Z" fill="#35375B"/>
<path fill-rule="evenodd" clip-rule="evenodd" d="M108.581 283.877C108.565 284.076 108.473 284.26 108.324 284.392C108.175 284.523 107.981 284.592 107.782 284.584C107.681 284.58 107.581 284.556 107.49 284.514C107.398 284.471 107.315 284.411 107.247 284.337C107.178 284.263 107.125 284.176 107.09 284.081C107.055 283.987 107.039 283.886 107.044 283.785C109.104 254.206 110.303 243.301 111.964 228.496L113.04 218.79C113.953 211.615 115.455 204.526 117.53 197.596C119.788 190.125 121.373 182.466 122.265 174.713C122.265 174.509 122.346 174.314 122.491 174.17C122.635 174.026 122.83 173.945 123.034 173.945C123.238 173.945 123.434 174.026 123.578 174.17C123.722 174.314 123.803 174.509 123.803 174.713C122.881 182.547 121.276 190.286 119.006 197.842C116.961 204.694 115.47 211.7 114.547 218.79L113.471 228.527C111.841 243.424 110.703 254.329 108.581 283.877Z" fill="white"/>
<path fill-rule="evenodd" clip-rule="evenodd" d="M229.558 268.888C229.618 268.985 229.655 269.093 229.667 269.206C229.68 269.319 229.667 269.433 229.63 269.54C229.592 269.648 229.532 269.745 229.452 269.827C229.373 269.908 229.276 269.97 229.17 270.01C229.063 270.049 228.949 270.064 228.836 270.054C228.723 270.044 228.613 270.009 228.515 269.952C228.417 269.895 228.333 269.816 228.268 269.723C228.204 269.629 228.162 269.522 228.144 269.41C222.673 254.708 218.365 239.601 215.259 224.227C212.922 213.968 210.247 202.173 206.034 186.938C206.006 186.843 205.997 186.743 206.009 186.645C206.02 186.547 206.051 186.452 206.1 186.366C206.149 186.28 206.214 186.205 206.293 186.145C206.371 186.085 206.461 186.041 206.557 186.016C206.654 185.988 206.755 185.979 206.855 185.99C206.956 186.001 207.053 186.031 207.142 186.08C207.23 186.128 207.308 186.194 207.371 186.273C207.435 186.351 207.482 186.441 207.51 186.538C211.6 201.743 214.275 213.568 216.735 223.889C219.834 239.198 224.122 254.243 229.558 268.888Z" fill="white"/>
<path fill-rule="evenodd" clip-rule="evenodd" d="M359.326 259.12C366.614 259.12 377.992 258.506 382.113 256.632C389.309 254.052 400.564 248.369 398.626 244.008C401.271 242.226 403.516 229.878 402.224 227.452C404.715 223.059 416.985 222.691 415.632 218.421C411.419 205.09 380.791 215.78 377.008 212.831C373.933 210.435 372.58 212.155 379.13 205.951C367.906 204.415 358.681 217.346 354.16 225.424L359.326 259.12Z" fill="#FFA17A"/>
<path fill-rule="evenodd" clip-rule="evenodd" d="M484.666 65.0874C491.124 71.077 490.509 70.9542 505.239 88.5237C502.625 115.216 454.899 123.939 466.708 89.8445C465.447 86.7729 465.108 86.0971 462.402 78.9403L481.468 67.0839L484.666 65.0874Z" fill="#FFA17A"/>
<path fill-rule="evenodd" clip-rule="evenodd" d="M484.207 63.8589C484.309 64.572 484.309 65.2959 484.207 66.009C483.346 77.6811 471.353 87.6945 466.586 89.8446L462.281 78.9404L484.207 63.8589Z" fill="#35375B"/>
<path fill-rule="evenodd" clip-rule="evenodd" d="M441.926 34.0335C441.926 34.0335 440.48 63.0908 449.46 75.8687C458.439 88.6465 470.063 82.0118 476.521 76.5137C480.226 73.5156 483.044 69.5652 484.67 65.0874C487.037 64.9574 489.297 64.0591 491.106 62.529C492.916 60.9988 494.176 58.9205 494.694 56.6097C496.908 48.2243 491.25 41.5589 486.638 41.2518C483.605 41.226 480.671 42.3198 478.396 44.3234L479.442 37.013C479.442 37.013 450.321 5.28336 441.926 34.0335Z" fill="#FFA17A"/>
<path fill-rule="evenodd" clip-rule="evenodd" d="M483.775 56.8861C483.596 56.9469 483.401 56.9469 483.222 56.8861C483.043 56.8112 482.902 56.6696 482.827 56.4915C482.752 56.3135 482.75 56.1132 482.822 55.9339L486.697 46.2583C486.772 46.0725 486.917 45.9235 487.101 45.8432C487.285 45.7628 487.493 45.7575 487.681 45.8283C487.859 45.9031 488 46.0448 488.075 46.2228C488.15 46.4009 488.152 46.6011 488.08 46.7805L484.206 56.4867C484.121 56.6715 483.966 56.8151 483.775 56.8861Z" fill="#35375B"/>
<path fill-rule="evenodd" clip-rule="evenodd" d="M490.019 52.371L485.099 53.3847C484.922 53.3861 484.749 53.326 484.61 53.2146C484.472 53.1031 484.377 52.9472 484.34 52.7734C484.304 52.5996 484.329 52.4186 484.412 52.2613C484.494 52.1039 484.628 51.9799 484.792 51.9103L489.62 50.9581C489.715 50.9358 489.814 50.9335 489.91 50.9512C490.006 50.969 490.097 51.0065 490.178 51.0613C490.259 51.1162 490.328 51.1872 490.38 51.2699C490.432 51.3525 490.466 51.4451 490.481 51.5417C490.514 51.7121 490.486 51.8886 490.401 52.0403C490.317 52.1921 490.182 52.3092 490.019 52.371Z" fill="#35375B"/>
<path fill-rule="evenodd" clip-rule="evenodd" d="M469.076 44.2617H468.737L460.312 43.1867C460.116 43.1622 459.938 43.0611 459.817 42.9056C459.696 42.75 459.641 42.5528 459.666 42.3573C459.69 42.1618 459.792 41.984 459.947 41.863C460.103 41.7421 460.3 41.6878 460.496 41.7123L468.922 42.7873C469.019 42.7987 469.113 42.8293 469.198 42.8773C469.284 42.9253 469.359 42.9898 469.419 43.0669C469.479 43.1441 469.523 43.2325 469.549 43.3268C469.574 43.4212 469.581 43.5197 469.568 43.6167C469.558 43.7605 469.506 43.8982 469.419 44.0128C469.331 44.1275 469.212 44.214 469.076 44.2617Z" fill="#35375B"/>
<path fill-rule="evenodd" clip-rule="evenodd" d="M487.988 41.5281C485.988 41.3794 483.98 41.6839 482.115 42.4188C480.655 43.1435 479.381 44.1946 478.394 45.4904L476.641 50.5893L475.934 41.5895C473.902 41.1534 471.85 40.8253 469.783 40.6066L468.83 32.9583L467.692 40.3916C463.933 40.0273 460.144 40.1202 456.407 40.668C454.346 41.0059 452.501 41.4052 450.964 41.8045L449.703 33.5419L448.965 42.3881C446.947 42.9635 444.999 43.7565 443.153 44.7532L442.815 53.7223C442.815 53.7223 435.957 31.6989 443.891 23.0063C451.825 14.3137 469.261 9.21486 480.3 17.4467C491.34 25.6786 487.988 41.5281 487.988 41.5281Z" fill="#35375B"/>
<path fill-rule="evenodd" clip-rule="evenodd" d="M495.092 50.1592C505.978 52.3401 497.706 13.3001 505.147 19.4433C515.695 31.3303 518.063 87.817 522.306 93.1616C531.931 105.448 520.215 111.99 513.604 120.161C508.622 126.304 499.766 128.239 494.046 130.082C487.896 132.048 488.111 143.935 484.821 140.526C482.176 137.915 480.054 129.99 486.943 122.864C491.924 117.704 484.544 119.332 482.33 111.53C479.808 102.561 492.632 87.2027 485.405 80.8138C479.993 75.9606 484.298 70.3089 483.099 68.2816C483.712 67.1974 484.217 66.0554 484.606 64.8722C486.973 64.7423 489.233 63.844 491.042 62.3138C492.852 60.7836 494.112 58.7053 494.63 56.3946C495.203 54.2799 495.277 52.0614 494.846 49.9135L495.092 50.1592Z" fill="#35375B"/>
<path fill-rule="evenodd" clip-rule="evenodd" d="M446.445 18.9827C446.445 18.9827 446.445 20.242 447.276 19.9041C452.042 17.969 469.878 10.505 481.84 18.4298C493.802 26.3545 494.786 49.4529 494.786 49.4529L497.861 48.8693C497.861 48.8693 497.461 23.375 487.406 15.0817C472.861 3.22536 453.795 12.5016 449.951 14.7746C448.605 16.0197 447.427 17.4343 446.445 18.9827Z" fill="#FC4C00"/>
<g style="mix-blend-mode:multiply">
<path fill-rule="evenodd" clip-rule="evenodd" d="M447.49 59.3741C447.865 58.6606 448.319 57.9909 448.843 57.3776C449.37 56.6462 449.824 55.8642 450.196 55.0432C450.974 53.4345 451.443 51.6947 451.58 49.9136C451.632 49.6831 451.767 49.48 451.96 49.3437C452.154 49.2075 452.391 49.1479 452.625 49.1764C452.739 49.1949 452.848 49.236 452.946 49.2974C453.044 49.3587 453.128 49.4391 453.194 49.5336C453.26 49.6282 453.306 49.735 453.33 49.8478C453.354 49.9605 453.355 50.0769 453.333 50.1901C453.068 53.1888 452.007 56.0626 450.258 58.5141C449.581 59.4356 448.566 60.4492 449.55 61.5857C450.534 62.7222 452.226 62.3536 453.548 62.1693C454.87 61.985 454.809 63.8279 453.548 63.9508C451.862 64.3699 450.079 64.1281 448.566 63.275C447.944 62.8654 447.492 62.2441 447.294 61.5266C447.096 60.8091 447.166 60.0442 447.49 59.3741Z" fill="#4147B4"/>
</g>
<path fill-rule="evenodd" clip-rule="evenodd" d="M465.05 50.8046C464.834 52.4632 463.727 53.7226 462.62 53.6304C461.513 53.5383 460.775 52.1561 460.99 50.5588C461.206 48.9616 462.313 47.6408 463.42 47.7023C464.527 47.7637 465.265 49.1459 465.05 50.8046Z" fill="#35375B"/>
<path fill-rule="evenodd" clip-rule="evenodd" d="M449.459 50.8656C449.243 52.5243 448.167 53.9372 447.029 53.6915C445.892 53.4457 445.215 52.2171 445.43 50.6199C445.646 49.0226 446.753 47.7019 447.86 47.7633C448.967 47.8247 449.705 49.1455 449.459 50.8656Z" fill="#35375B"/>
<g style="mix-blend-mode:multiply">
<path fill-rule="evenodd" clip-rule="evenodd" d="M461.636 64.9031C460.253 66.1154 458.594 66.9704 456.803 67.3935C455.012 67.8165 453.145 67.7946 451.365 67.3297C451.157 67.2808 450.938 67.3164 450.757 67.4288C450.575 67.5411 450.445 67.7209 450.396 67.9286C450.347 68.1364 450.383 68.355 450.496 68.5364C450.608 68.7179 450.788 68.8473 450.996 68.8962C453.05 69.4283 455.204 69.443 457.265 68.9391C459.325 68.4352 461.229 67.4284 462.805 66.0089C463.604 65.3024 462.405 64.1966 461.636 64.9031Z" fill="#4147B4"/>
</g>
<path fill-rule="evenodd" clip-rule="evenodd" d="M505.98 88.5852C504.873 99.8887 495.925 108.059 486.638 111.315C483.19 112.584 479.504 113.077 475.844 112.759C472.652 112.508 469.659 111.111 467.418 108.827C464.036 105.141 462.929 98.8751 466.157 89.5988L467.541 90.0903C464.466 98.7522 465.45 104.527 468.525 107.813C470.539 109.87 473.246 111.107 476.121 111.284C479.562 111.572 483.024 111.111 486.269 109.933C495.094 106.861 503.612 99.1208 504.719 88.4316L505.98 88.5852Z" fill="#35375B"/>
<path fill-rule="evenodd" clip-rule="evenodd" d="M540.634 275.983C539.804 277.427 536.698 276.198 532.977 274.079C530.332 272.574 527.349 270.67 524.766 269.011C522.183 267.352 519.692 265.141 519.692 265.386L518.555 264.342C519.231 263.605 522.06 265.417 525.658 267.721C528.211 269.379 531.193 271.284 533.807 272.758C536.421 274.233 539.127 275.615 539.373 275.215L540.634 275.983Z" fill="#35375B"/>
<path fill-rule="evenodd" clip-rule="evenodd" d="M446.66 199.347C443.585 200.882 440.787 202.173 438.111 203.401C429.542 207.189 421.312 211.7 413.51 216.885L412.711 215.657C420.591 210.423 428.903 205.871 437.558 202.05C440.233 200.821 443.032 199.531 446.045 198.026L446.66 199.347Z" fill="#35375B"/>
<path fill-rule="evenodd" clip-rule="evenodd" d="M395.336 199.04C393.245 198.763 386.111 202.972 384.081 203.832C371.227 209.33 361.049 213.046 361.602 230.155C361.602 232.244 359.388 237.036 363.478 237.036C368.091 237.036 370.397 227.452 372.058 224.473C375.779 217.684 377.777 220.633 384.758 215.258C386.226 214.268 387.745 213.356 389.309 212.524C392.015 212.893 396.136 211.726 399.795 212.278C399.795 212.278 415.171 217.93 414.832 216.609C414.463 216.548 424.765 203.094 395.336 199.04Z" fill="#FFA17A"/>
<path fill-rule="evenodd" clip-rule="evenodd" d="M395.274 199.654C392.27 200.344 389.402 201.528 386.787 203.156C385.741 203.708 384.849 204.169 384.327 204.384L383.158 204.876C371.073 210.067 361.632 214.09 362.216 230.155C362.215 230.858 362.132 231.559 361.97 232.244C361.795 233.021 361.692 233.813 361.663 234.609C361.663 235.622 362.032 236.421 363.477 236.421C366.552 236.421 368.613 231.169 370.119 227.206C370.527 226.159 370.989 225.134 371.503 224.135C372.095 222.758 372.979 221.526 374.094 220.523C375.209 219.521 376.528 218.772 377.961 218.329C380.279 217.504 382.45 216.312 384.388 214.797C384.634 214.613 386.172 213.599 387.463 212.862C388.079 212.428 388.766 212.106 389.493 211.91C390.923 212.071 392.367 212.071 393.798 211.91C395.841 211.666 397.905 211.666 399.948 211.91L400.471 212.094C405.014 213.819 409.655 215.276 414.37 216.456V216.179C414.95 215.106 415.345 213.943 415.539 212.739C416.092 208.684 413.786 202.449 395.212 199.9L395.274 199.654ZM386.233 202.05C389.051 200.276 392.182 199.056 395.458 198.456C415.078 201.128 417.476 208.101 416.984 212.678C416.766 214.009 416.33 215.296 415.693 216.486C415.72 216.575 415.728 216.669 415.716 216.761C415.704 216.854 415.672 216.942 415.622 217.021C415.573 217.1 415.506 217.167 415.428 217.218C415.35 217.269 415.262 217.302 415.17 217.316C413.786 217.807 402.531 213.783 400.225 212.954H399.887C397.955 212.739 396.006 212.739 394.075 212.954C392.543 213.149 390.993 213.149 389.462 212.954C389.462 212.954 388.97 213.323 388.263 213.753L385.372 215.596C383.338 217.197 381.065 218.472 378.638 219.374C377.345 219.766 376.155 220.437 375.15 221.339C374.146 222.241 373.353 223.353 372.826 224.595C372.457 225.302 371.995 226.408 371.503 227.667C369.873 231.814 367.629 237.527 363.723 237.527C363.303 237.603 362.87 237.577 362.462 237.449C362.053 237.322 361.682 237.098 361.38 236.796C361.078 236.494 360.853 236.123 360.726 235.715C360.598 235.308 360.572 234.875 360.648 234.455C360.675 233.588 360.777 232.724 360.956 231.875C361.103 231.27 361.196 230.653 361.232 230.032C360.648 213.138 370.458 208.961 382.758 203.616L383.927 203.094C384.388 203.033 385.218 202.726 386.233 202.05Z" fill="#35375B"/>
<path fill-rule="evenodd" clip-rule="evenodd" d="M410.341 223.305C407.635 231.598 403.453 238.479 400.47 246.404C395.673 259.212 380.205 263.359 377.53 259.919C374.795 260.305 372.006 259.889 369.504 258.721C373.785 258.636 378.032 257.933 382.112 256.632C389.308 254.052 400.563 248.369 398.625 244.008C401.27 242.226 403.515 229.878 402.223 227.452C403.545 225.117 407.328 224.227 410.341 223.305Z" fill="#FFA17A"/>
<path fill-rule="evenodd" clip-rule="evenodd" d="M410.929 223.49C409.395 227.942 407.577 232.293 405.486 236.513C403.917 239.83 402.411 243.117 401.058 246.619C399.527 250.634 396.908 254.144 393.493 256.755C391.025 258.729 388.194 260.201 385.159 261.086C383.022 261.838 380.709 261.935 378.517 261.362C378.069 261.205 377.66 260.954 377.318 260.625C376.057 260.855 374.765 260.855 373.505 260.625C372.067 260.34 370.657 259.928 369.292 259.397L368.246 258.352H369.599C372.182 258.168 374.704 257.922 376.856 257.615C378.614 257.393 380.338 256.96 381.992 256.325C383.314 255.864 384.79 255.25 386.328 254.574C389.461 253.247 392.432 251.567 395.184 249.567C397.398 247.847 398.72 246.127 398.259 244.653L397.982 244.039L398.413 243.762C400.005 241.704 401.005 239.251 401.304 236.667C402.148 233.858 402.317 230.891 401.796 228.005L401.642 227.728L401.826 227.421C403.615 225.157 406.157 223.609 408.991 223.06L411.236 222.384L410.867 223.49H410.929ZM404.348 236.022C406.245 232.186 407.928 228.248 409.391 224.227C406.924 224.632 404.639 225.778 402.841 227.513C403.329 230.587 403.151 233.729 402.318 236.728C401.906 239.445 400.852 242.025 399.243 244.254C399.797 246.25 398.29 248.339 395.768 250.397C392.903 252.475 389.807 254.217 386.543 255.588C385.036 256.233 383.468 256.847 382.146 257.339C380.407 258.026 378.589 258.491 376.733 258.721C375.38 258.936 373.904 259.089 372.397 259.243L373.505 259.489C374.712 259.733 375.956 259.733 377.164 259.489H377.564L377.779 259.796C378.023 260.082 378.343 260.295 378.701 260.41C380.665 260.888 382.726 260.792 384.636 260.134C387.492 259.287 390.162 257.911 392.509 256.079C395.747 253.596 398.236 250.27 399.704 246.465C401.242 242.656 402.841 239.339 404.348 236.022Z" fill="#35375B"/>
<path fill-rule="evenodd" clip-rule="evenodd" d="M400.287 314.47C383.989 313.733 371.443 309.556 363.017 302.184C349.917 290.573 361.325 267.291 373.441 242.595C383.927 221.094 394.752 199.07 389.401 184.235C388.271 181.281 386.532 178.598 384.296 176.36C382.061 174.121 379.378 172.377 376.424 171.242C366.03 166.542 352.715 175.327 337.278 185.463C318.827 197.75 297.732 211.418 275.099 206.749C239.09 199.316 216.057 167.648 195.762 139.727C181.985 120.775 168.977 102.868 153.909 95.4962C127.863 82.7184 87.4561 86.2814 58.1503 91.626C38.4604 95.1907 19.033 100.075 0 106.247L0 105.141C18.9608 98.8974 38.3282 93.961 57.9658 90.3667C87.4254 85.0528 128.078 81.4283 154.432 94.3597C169.746 101.885 182.846 119.793 196.807 138.959C216.98 166.604 239.859 198.21 275.468 205.521C297.609 210.098 318.52 196.46 336.755 184.388C352.469 174.037 366.061 165.16 377.008 170.105C380.085 171.32 382.876 173.16 385.205 175.507C387.534 177.855 389.35 180.659 390.539 183.743C396.074 199.101 385.127 221.432 374.518 243.025C362.617 267.291 351.362 290.205 363.847 301.232C372.058 308.511 384.358 312.566 400.379 313.334L400.287 314.47Z" fill="#35375B"/>
<path fill-rule="evenodd" clip-rule="evenodd" d="M190.871 75.6841C195.127 80.6924 200.713 84.3977 206.985 86.3732L207.507 82.073C201.574 81.1365 195.905 78.9594 190.871 75.6841Z" fill="#35375B"/>
<path fill-rule="evenodd" clip-rule="evenodd" d="M154.523 89.0764C164.917 94.1138 186.259 100.595 195.269 99.9191C204.279 99.2434 233.431 108.581 243.794 112.789C220.7 93.0388 181.431 85.3905 154.523 89.0764Z" fill="white"/>
<path fill-rule="evenodd" clip-rule="evenodd" d="M268.581 204.999C236.261 195.323 214.828 165.867 195.762 139.635C181.986 120.683 168.978 102.776 153.91 95.4041C149.964 93.4761 145.846 91.9232 141.609 90.766L144.192 90.3359C147.719 91.3994 151.154 92.745 154.463 94.3597C169.747 101.885 182.847 119.793 196.808 138.959C215.566 164.945 236.784 194.187 268.611 203.831L268.581 204.999Z" fill="white"/>
</svg>
