<svg width="100" height="100" viewBox="0 0 100 100" fill="none" xmlns="http://www.w3.org/2000/svg">
<path d="M14.4764 93.2282L15.7826 91.0966L14.4764 93.2282ZM6.77308 85.5249L8.90468 84.2187L6.77308 85.5249ZM93.2296 85.5249L91.098 84.2187L93.2296 85.5249ZM85.5263 93.2282L84.2201 91.0966L85.5263 93.2282ZM85.5263 20.7717L84.2201 22.9032L85.5263 20.7717ZM93.2296 28.475L91.098 29.7812L93.2296 28.475ZM14.4764 20.7717L15.7826 22.9032L14.4764 20.7717ZM6.77308 28.475L8.90468 29.7812L6.77308 28.475ZM80.2263 5.88335L82.0305 4.15277V4.15277L80.2263 5.88335ZM11.941 7.49027L13.4505 9.48313V9.48313L11.941 7.49027ZM7.32209 12.3057L9.37316 13.7351L7.32209 12.3057ZM82.668 17.9414H85.168L85.168 17.9291L82.668 17.9414ZM79.6983 56.5303C81.079 56.5303 82.1983 55.411 82.1983 54.0303C82.1983 52.6496 81.079 51.5303 79.6983 51.5303V56.5303ZM66.9711 51.5303C65.5903 51.5303 64.4711 52.6496 64.4711 54.0303C64.4711 55.411 65.5903 56.5303 66.9711 56.5303V51.5303ZM43.0014 19.8333H57.0014V14.8333H43.0014V19.8333ZM57.0014 94.1666H43.0014V99.1666H57.0014V94.1666ZM43.0014 94.1666C35.3149 94.1666 29.7257 94.164 25.3511 93.748C21.0137 93.3356 18.1293 92.5346 15.7826 91.0966L13.1701 95.3598C16.4344 97.3602 20.1745 98.2784 24.8778 98.7256C29.544 99.1692 35.4118 99.1666 43.0014 99.1666V94.1666ZM0.834687 56.9999C0.834687 64.5895 0.832049 70.4573 1.27571 75.1234C1.72291 79.8268 2.64112 83.5668 4.64148 86.8311L8.90468 84.2187C7.46665 81.872 6.66566 78.9875 6.25326 74.6502C5.83732 70.2756 5.83469 64.6863 5.83469 56.9999H0.834687ZM15.7826 91.0966C12.9794 89.3788 10.6225 87.0219 8.90468 84.2187L4.64148 86.8311C6.77159 90.3072 9.69412 93.2297 13.1701 95.3598L15.7826 91.0966ZM57.0014 99.1666C64.591 99.1666 70.4587 99.1692 75.1249 98.7256C79.8282 98.2784 83.5683 97.3602 86.8326 95.3598L84.2201 91.0966C81.8734 92.5346 78.989 93.3356 74.6516 93.748C70.277 94.164 64.6878 94.1666 57.0014 94.1666V99.1666ZM91.098 84.2187C89.3802 87.0219 87.0233 89.3788 84.2201 91.0966L86.8326 95.3598C90.3086 93.2297 93.2311 90.3072 95.3612 86.8311L91.098 84.2187ZM84.2201 22.9032C87.0233 24.6211 89.3802 26.978 91.098 29.7812L95.3612 27.1687C93.2311 23.6927 90.3086 20.7702 86.8326 18.64L84.2201 22.9032ZM43.0014 14.8333C35.4118 14.8333 29.544 14.8306 24.8778 15.2743C20.1745 15.7215 16.4344 16.6397 13.1701 18.64L15.7826 22.9032C18.1293 21.4652 21.0137 20.6642 25.3511 20.2518C29.7257 19.8359 35.3149 19.8333 43.0014 19.8333V14.8333ZM5.83469 56.9999C5.83469 49.3135 5.83732 43.7243 6.25326 39.3497C6.66566 35.0123 7.46665 32.1278 8.90468 29.7812L4.64148 27.1687C2.64112 30.433 1.72291 34.173 1.27571 38.8764C0.832049 43.5426 0.834687 49.4103 0.834687 56.9999H5.83469ZM13.1701 18.64C9.69412 20.7702 6.77159 23.6927 4.64148 27.1687L8.90468 29.7812C10.6225 26.978 12.9794 24.6211 15.7826 22.9032L13.1701 18.64ZM40.9157 5.83325H65.9697V0.833252H40.9157V5.83325ZM65.9697 5.83325C69.9801 5.83325 72.7259 5.83901 74.7864 6.12781C76.7638 6.40498 77.7362 6.89884 78.4221 7.61393L82.0305 4.15277C80.2704 2.31776 78.0513 1.53657 75.4804 1.17622C72.9924 0.827491 69.833 0.833252 65.9697 0.833252V5.83325ZM40.9157 0.833252C33.1449 0.833252 27.1075 0.829526 22.3342 1.36868C17.5078 1.91383 13.6766 3.03945 10.4316 5.49742L13.4505 9.48313C15.6937 7.78408 18.521 6.83118 22.8954 6.33708C27.323 5.83698 33.0289 5.83325 40.9157 5.83325V0.833252ZM5.83469 42.5129C5.83469 34.2976 5.83785 28.3288 6.31972 23.6919C6.79734 19.096 7.72263 16.1035 9.37316 13.7351L5.27103 10.8763C2.93415 14.2296 1.86573 18.1788 1.3465 23.1751C0.831526 28.1305 0.834687 34.4045 0.834687 42.5129H5.83469ZM10.4316 5.49742C8.44742 7.0003 6.7067 8.81624 5.27103 10.8763L9.37316 13.7351C10.513 12.0995 11.8897 10.6653 13.4505 9.48313L10.4316 5.49742ZM85.168 17.9291C85.1523 14.7629 85.0834 12.1071 84.7044 9.93316C84.3144 7.69562 83.5621 5.74956 82.0305 4.15277L78.4221 7.61393C79.0404 8.25855 79.4933 9.15429 79.7787 10.7918C80.0753 12.4929 80.1522 14.7455 80.168 17.9538L85.168 17.9291ZM0.834687 42.5129C0.834687 47.1012 0.740681 51.2221 0.835521 54.7341L5.8337 54.5991C5.74106 51.1688 5.83469 47.277 5.83469 42.5129H0.834687ZM94.3345 64.2576H66.971V69.2576H94.3345V64.2576ZM51.7438 54.0303C51.7438 62.4401 58.5613 69.2576 66.971 69.2576V64.2576C61.3227 64.2576 56.7438 59.6787 56.7438 54.0303H51.7438ZM56.7438 54.0303C56.7438 48.3819 61.3227 43.803 66.971 43.803V38.803C58.5613 38.803 51.7438 45.6205 51.7438 54.0303H56.7438ZM79.6983 51.5303H66.9711V56.5303H79.6983V51.5303ZM57.0014 19.8333C63.4514 19.8333 68.4348 19.8343 72.4793 20.0839C76.5211 20.3333 79.4361 20.8232 81.7804 21.7135L83.5556 17.0392C80.5201 15.8864 77.0232 15.3548 72.7872 15.0934C68.5541 14.8322 63.394 14.8333 57.0014 14.8333V19.8333ZM81.7804 21.7135C82.6618 22.0482 83.466 22.4412 84.2201 22.9032L86.8326 18.64C85.7991 18.0067 84.7128 17.4787 83.5556 17.0392L81.7804 21.7135ZM80.168 17.9414V19.3764H85.168V17.9414H80.168ZM66.971 43.803H96.4086V38.803H66.971V43.803ZM99.168 56.9999C99.168 50.5741 99.1691 45.3934 98.9037 41.1471L93.9135 41.459C94.1669 45.5141 94.168 50.5158 94.168 56.9999H99.168ZM98.9037 41.1471C98.541 35.3437 97.6686 30.9339 95.3612 27.1687L91.098 29.7812C92.7616 32.496 93.5671 35.918 93.9135 41.459L98.9037 41.1471ZM94.168 56.9999C94.168 60.6726 94.168 63.8768 94.1208 66.7161L99.1201 66.7991C99.1681 63.9099 99.168 60.6607 99.168 56.9999H94.168ZM94.1208 66.7161C93.9694 75.8355 93.3103 80.6085 91.098 84.2187L95.3612 86.8311C98.3751 81.913 98.9704 75.8163 99.1201 66.7991L94.1208 66.7161ZM94.3345 69.2576H96.6205V64.2576H94.3345V69.2576Z" fill="#DDDDDD"/>
</svg>
