<svg width="203" height="185" viewBox="0 0 203 185" fill="none" xmlns="http://www.w3.org/2000/svg">
<path d="M202.905 11.9006C202.942 11.9634 202.974 12.029 203 12.0968C202.944 11.9372 203.052 11.8553 202.905 11.9006Z" fill="#F4F1F1"/>
<path d="M198.668 16.3577L198.645 16.3193C198.639 16.3306 198.643 16.3441 198.668 16.3577Z" fill="#F4F1F1"/>
<path d="M198.479 16.7847L198.528 16.8247C198.513 16.8099 198.497 16.7966 198.479 16.7847Z" fill="#F4F1F1"/>
<path d="M198.611 16.0283L198.67 16.0414L198.624 16.0044L198.611 16.0283Z" fill="#F4F1F1"/>
<path d="M198.923 173.218L198.854 173.171C198.872 173.193 198.896 173.21 198.923 173.218Z" fill="#F4F1F1"/>
<path d="M198.12 168.163V168.127C198.12 168.127 198.111 168.147 198.12 168.163Z" fill="#F4F1F1"/>
<path d="M198.628 173.108C198.635 173.073 198.635 173.036 198.628 173C198.619 173.009 198.611 173.019 198.604 173.031L198.628 173.108Z" fill="#F4F1F1"/>
<path d="M197.923 168.323C197.919 168.309 197.914 168.296 197.907 168.284C197.914 168.298 197.918 168.311 197.923 168.323Z" fill="#F4F1F1"/>
<path d="M198.183 167.996L198.21 168.023L198.196 167.991L198.183 167.996Z" fill="#F4F1F1"/>
<path d="M147.928 75.5342C147.914 75.5873 147.892 75.6376 147.861 75.683L147.928 75.5342ZM139.451 70.5551C139.563 70.5551 139.612 70.5249 139.619 70.5012C139.513 70.5163 139.427 70.5314 139.451 70.5551ZM136.947 70.152L137.094 70.1779C137.072 70.164 137.048 70.1546 137.023 70.1502C136.998 70.1457 136.972 70.1463 136.947 70.152ZM147.926 75.5407L148.1 75.1592C148.031 75.1053 147.995 75.3445 147.928 75.5342L147.926 75.5407ZM146.499 82.1903L146.468 82.3132C146.487 82.3578 146.512 82.3998 146.542 82.4382L146.499 82.1903ZM145.3 87.26C145.336 87.1479 145.145 87.0574 145.067 86.9927C145.098 87.0324 145.121 87.0777 145.134 87.1262C145.147 87.1746 145.151 87.2252 145.145 87.2751C145.196 87.2872 145.251 87.2819 145.3 87.26ZM142.968 95.2051V95.3538C142.953 95.315 142.96 95.2503 142.96 95.2051H142.968ZM147.443 78.5691C147.474 78.5684 147.503 78.5587 147.527 78.5411C147.511 78.5382 147.494 78.5393 147.478 78.5441C147.462 78.549 147.447 78.5576 147.435 78.5691H147.443ZM141.272 101.333L141.205 101.385C141.216 101.423 141.231 101.461 141.248 101.497L141.272 101.333ZM132.418 69.3006H132.438C132.56 69.3071 132.494 69.2984 132.418 69.3006ZM97.9425 65.7419C98.2137 65.2806 98.0329 66.5869 98.373 65.8799C98.2719 65.9273 98.1578 65.1405 97.9425 65.7419ZM122.176 66.9102C122.176 66.8865 122.163 66.8541 122.101 66.7852C122.115 66.8286 122.139 66.8684 122.17 66.9016L122.176 66.9102ZM129.68 69.2122L129.493 69.1411C129.551 69.1677 129.612 69.1886 129.674 69.2036L129.68 69.2122ZM118.033 65.6126C117.977 65.5743 117.913 65.5492 117.845 65.5393C117.854 65.5548 117.864 65.5687 117.878 65.5803C117.928 65.5736 117.98 65.5818 118.026 65.604L118.033 65.6126ZM118.033 65.6126C118.056 65.6277 118.078 65.6449 118.11 65.6622C118.084 65.6403 118.056 65.6208 118.026 65.604L118.033 65.6126ZM114.117 64.0132C114.132 64.0369 114.156 64.0606 114.173 64.0844L114.304 64.1275L114.117 64.0132ZM149.432 69.5485V69.5894C149.432 69.6455 149.417 69.7058 149.409 69.7748C149.364 69.7748 149.278 69.8998 149.194 70.0399C149.118 70.1675 149.058 70.3035 149.015 70.4452C149.027 70.7665 148.993 71.088 148.916 71.4C148.875 71.6156 148.832 71.8204 148.791 72.0337C148.761 72.204 148.733 72.37 148.716 72.5317L148.645 72.5123C148.479 73.5792 147.868 74.6289 147.822 75.7325C147.822 75.7541 147.822 75.7713 147.822 75.7886L147.857 75.7088C148.173 75.4049 147.816 76.571 147.831 76.9094C147.756 76.9655 147.648 76.9741 147.603 77.1551C147.818 77.2198 147.614 77.5862 147.676 77.763C147.515 78.1079 147.433 77.6552 147.291 78.2782C147.25 78.5217 147.353 78.5778 147.441 78.5691C147.24 78.8005 147.093 79.0736 147.011 79.3688C146.983 79.2438 147.099 79.0843 147.103 79.0067C147 78.9356 146.987 79.1662 146.847 79.1252C146.759 79.4119 147.017 79.2912 146.847 79.6361L146.761 79.2589C146.71 79.3904 146.69 79.5321 146.703 79.6727C146.713 79.6311 146.709 79.5875 146.691 79.5485C146.674 79.5095 146.644 79.4774 146.606 79.4572L146.501 79.8883C146.634 79.9896 146.899 79.7352 147.017 79.7978C146.688 80.5629 146.757 81.2462 146.615 81.8692L146.445 81.7032C146.396 81.9005 146.404 82.1075 146.468 82.3003L146.354 82.7658C146.354 82.4792 146.309 82.3757 146.156 82.3154C146.09 82.8262 145.872 83.4944 146.105 83.6884L146.066 83.6582C145.808 84.3049 145.42 85.6585 145.336 85.5981C145.25 86.3288 144.875 87.191 145.134 87.2751C145.093 87.7062 144.525 88.2882 144.781 88.6718C144.484 89.131 144.703 88.6826 144.546 88.48C144.249 88.937 144.565 89.5577 144.148 89.631C144.12 90.2453 144.26 89.5146 144.378 89.7517C143.997 89.7884 144.055 90.8295 143.72 91.3252C143.801 91.6054 143.868 91.0967 143.915 91.558C143.836 91.4934 143.765 91.7154 143.728 91.8274L143.922 91.9913L143.455 92.2801L143.328 92.7974C143.446 92.9505 143.618 92.6228 143.491 93.4678V93.3966C143.19 93.6402 143.468 94.2265 143.1 94.9809C143.209 94.7179 143.022 94.843 142.979 94.7395L142.96 95.2051C142.96 95.162 142.96 95.1383 142.912 95.1749C142.65 95.5241 142.912 95.537 142.658 95.953C142.671 95.8259 142.648 95.759 142.611 95.7375L142.456 96.3626L142.477 96.5221L142.432 96.4574L141.244 101.294L141.188 101.327C141.188 101.348 141.199 101.37 141.205 101.393L140.874 101.654C140.941 101.753 141.225 101.672 141.388 101.583C141.58 101.562 140.986 102.266 140.583 102.523C140.015 102.799 139.916 102.738 139.856 102.637C139.795 102.536 139.778 102.422 139.376 102.555C139.076 102.771 138.764 102.976 138.448 103.174L138.394 103.066C138.207 103.055 138.159 103.219 138.125 103.26C138.136 103.062 137.277 103.519 136.833 103.609L137.029 103.711C136.583 104.004 136.055 104.145 135.522 104.114C135.053 104.099 134.623 104.068 134.166 104.254C133.951 104.383 133.751 104.521 133.54 104.646L133.366 104.441C132.993 104.637 132.935 104.842 132.289 104.847C131.109 104.839 129.929 104.896 128.755 105.017C127.577 105.137 126.389 105.125 125.214 104.98C125.242 105.03 125.311 105.049 125.45 105.09C124.447 104.767 123.655 104.853 122.867 104.956C122.08 105.06 121.32 105.157 120.437 104.816L120.573 104.747C119.645 104.674 120.71 104.678 120.056 104.465C119.892 104.73 118.855 104.521 118.31 104.536C118.452 104.511 118.597 104.503 118.741 104.51C118.65 104.433 118.638 104.26 118.364 104.269C117.718 104.581 116.455 104.316 115.503 104.249C115.428 104.047 114.66 103.726 114.311 103.34C114.201 103.385 114.001 103.489 113.818 103.59C113.693 103.515 113.554 103.466 113.409 103.448C113.265 103.43 113.118 103.442 112.978 103.484L113.732 103.639C113.724 103.645 113.715 103.649 113.706 103.652C113.75 103.648 113.795 103.648 113.839 103.652C114.018 103.683 114.121 103.695 114.115 103.68C114.429 103.924 114.05 103.812 114.031 104.025C113.727 103.954 113.086 103.881 113.052 103.708C112.889 103.665 112.73 103.608 112.578 103.536C112.448 103.544 112.318 103.524 112.197 103.478H112.264C112.248 103.446 112.227 103.417 112.201 103.394C111.635 103.163 110.733 103.267 110.212 103.282C110.755 103.144 110.174 102.956 110.212 102.766C110.253 102.79 110.809 102.952 111.491 103.124C111.465 103.109 111.444 103.087 111.43 103.06C111.417 103.033 111.411 103.003 111.413 102.973C110.821 102.609 110.268 102.872 109.375 102.478C109.439 102.478 109.571 102.463 109.545 102.381C109.426 102.322 109.294 102.293 109.161 102.295C109.028 102.298 108.898 102.332 108.781 102.396C108.749 102.18 108.086 101.855 107.705 101.833C107.356 101.898 107.379 101.98 106.831 101.799L107.113 101.74C106.495 101.437 106.523 101.773 106.019 101.499C106.217 101.618 106.277 101.488 106.125 101.411C105.425 101.275 105.39 101.337 104.822 101.443L104.975 101.268C104.364 101.208 103.201 101.094 103.279 100.814C103.32 101.299 101.957 100.598 101.464 100.421C101.51 100.444 101.562 100.449 101.611 100.436C101.661 100.423 101.704 100.394 101.733 100.352C100.594 100.262 99.628 99.6001 98.584 99.2013L98.5323 98.8349C97.9791 98.6323 97.5938 99.1668 97.0018 98.9146L97.2731 98.8565C96.4846 98.5829 95.7182 98.2492 94.9805 97.8585L95.0817 97.6645C94.7394 97.6278 94.3627 97.4619 94.0183 97.4209C93.9861 97.3697 93.9486 97.322 93.9064 97.2786C93.8726 97.2471 93.8359 97.2189 93.7966 97.1946L93.661 97.1062C93.4522 96.9781 93.2367 96.8616 93.0152 96.757L92.6342 96.5781L92.533 96.5329C92.5158 96.5091 92.533 96.4639 92.533 96.4294L92.5653 96.2009C92.6062 95.8862 92.6514 95.5543 92.6966 95.2202C92.6966 95.134 92.7182 95.0499 92.7311 94.9637L92.7483 94.8063C92.7612 94.6985 92.7763 94.5908 92.7892 94.4852C92.8172 94.2696 92.8538 94.0541 92.8968 93.8514C92.9748 93.4551 93.1204 93.0752 93.3274 92.7284L92.9571 92.5732C93.0604 92.0452 93.1035 91.3554 93.4393 91.1571L93.4113 91.2735C93.6976 91.3791 93.5146 90.7476 93.6373 90.4286C93.6502 90.1742 93.5039 89.8897 93.4048 90.0945C93.8547 88.7257 94.0248 86.6047 94.5328 85.7835C94.6577 84.3544 94.5328 83.2379 94.8557 81.7269L94.8966 81.7528C95.0408 81.2484 95.3271 80.2439 95.6521 80.3021C95.7748 79.1942 95.4563 78.4161 95.833 77.1379L95.9062 77.4418C95.9881 77.1098 96.0049 76.765 95.9557 76.4266C95.9836 76.3102 96.0332 76.4072 96.0741 76.4266C96.242 76.1335 96.0999 75.9179 96.1128 75.6636L96.2054 75.7843C96.6144 74.7841 96.4701 73.0662 96.765 71.7384C96.765 71.9906 96.8985 71.8807 96.9803 71.7902C96.7177 71.178 97.075 69.6886 97.0922 69.1131L97.1719 69.4838C97.131 68.35 97.7186 68.6065 97.6756 67.4835L97.357 68.0677C97.4969 67.6366 97.4948 67.2507 97.3161 67.3262C97.5314 66.8347 97.6024 67.3133 97.7746 66.5438C97.8822 66.5308 97.7445 67.115 97.921 66.8843L98.373 65.8712C98.373 65.8454 98.3924 65.8303 98.4075 65.8001L98.3752 65.8691C98.4096 65.8411 98.4398 65.7074 98.4742 65.3518C98.0114 65.3647 98.6098 64.4594 98.0781 64.9207C98.3171 63.3946 98.8423 62.166 98.8703 60.8253C99.135 60.5968 99.2556 59.9523 99.3761 59.3919C99.4127 59.2367 99.4472 59.0858 99.4773 58.9479C99.5118 58.7959 99.5557 58.6461 99.6086 58.4995C99.699 58.2646 99.7937 58.1935 99.9121 58.3422C99.9573 58.0921 99.9918 57.8507 100.02 57.6028C100.033 57.4778 100.043 57.3528 100.052 57.2256L100.065 57.0316V56.9325C100.065 56.9045 100.065 56.8549 100.078 56.8549C100.295 56.9306 100.521 56.9791 100.749 56.9993C100.58 56.8631 100.385 56.7613 100.177 56.6997C100.31 56.6113 101.514 57.3463 102.002 57.646C101.303 57.3744 100.371 56.9153 100.16 57.0403C100.52 57.227 100.889 57.3953 101.266 57.5447C101.662 57.7106 102.144 57.9154 102.271 57.9499V58.2969C102.859 58.3896 102.553 58.7474 103.18 58.7711L103.132 58.6375C104.006 59.1656 104.161 58.9112 105.005 59.338L104.913 59.4221C105.173 59.6247 105.731 59.6053 105.881 59.9976L105.324 59.7066C105.281 59.9221 105.653 60.2304 105.793 60.4265C106.396 60.6916 106.152 60.2325 106.456 60.364C106.488 60.6033 106.437 60.4739 106.148 60.5386C106.828 60.821 107.739 61.2068 108.316 61.2133C108.331 61.2564 108.279 61.2779 108.279 61.2779C108.94 61.6616 109.696 61.6314 110.04 61.9892L109.896 61.9504C110.326 62.4893 111.428 62.3815 111.334 62.8924C111.549 63.1079 110.75 62.5928 111.067 63.0131C111.822 63.5455 111.779 62.8945 112.445 63.3515C112.352 63.2933 112.371 63.3343 112.32 63.3515C112.849 63.58 113.564 63.858 114.167 64.0607C114.724 64.7526 116.401 64.9056 117.06 65.6773C116.87 65.4358 117.275 65.5544 117.352 65.5199C117.344 65.526 117.338 65.5351 117.335 65.5455C117.333 65.5558 117.334 65.5667 117.34 65.5759C117.639 65.7074 117.733 65.5759 117.871 65.5565C118.069 65.7872 118.765 65.7419 118.892 65.8885C118.93 65.7936 119.167 65.9079 119.438 66.0092C118.851 65.9208 119.186 66.1558 118.883 66.2247C119.686 66.5718 119.976 66.1364 120.797 66.52L121.206 66.8692C121.399 66.617 122.151 67.0029 122.17 66.8908C122.286 67.0287 122.484 67.1559 122.405 67.2874C122.77 67.3327 123.242 67.6387 123.438 67.5029L123.119 67.3197C123.56 67.4981 124.025 67.6113 124.499 67.656C124.911 67.6788 125.315 67.7851 125.685 67.9685L125.545 68.3996C126.051 68.738 126.621 68.4513 127.052 68.8307C126.923 68.641 126.875 68.6755 127.267 68.6152C127.065 68.5311 126.645 68.5527 126.296 68.4513C126.566 68.4384 126.839 68.4082 127.108 68.3867L126.512 68.3026L125.92 68.1992C126.46 68.169 126.411 68.1992 126.258 67.9685C126.994 68.0246 126.962 68.3759 127.674 68.3802C127.902 68.5031 127.612 68.5958 127.868 68.7574C128.503 68.7574 128.944 69.348 129.428 69.2122C129.558 69.2877 129.177 69.1691 129.187 69.2812C129.588 69.3243 129.863 69.4041 130.005 69.2963L129.682 69.1734C129.973 69.251 130.059 69.0807 130.597 69.3071C130.942 69.264 131.168 69.0786 130.813 69.0096C130.961 69.0096 131.243 69.1864 131.114 69.2984C131.988 69.4666 131.62 68.9018 132.423 69.2704C132.362 69.2704 132.298 69.2834 132.326 69.3178C132.44 69.3593 132.558 69.3882 132.679 69.4041C132.272 69.4192 132.941 69.7942 132.158 69.5765C132.186 69.7037 132.352 69.7468 132.543 69.777C132.729 69.784 132.913 69.8166 133.09 69.874C133.551 69.777 133.193 69.5399 133.428 69.4536C133.413 69.5291 133.592 69.555 133.798 69.6175L133.62 69.4019C133.809 69.4363 134.002 69.4501 134.194 69.4429L133.826 69.4623C134.209 69.5528 134.765 69.9343 135.473 69.8222C135.284 69.8761 134.9 69.9839 135.352 70.1261C136.121 70.0917 135.518 70.221 135.934 70.4042C136.312 70.4258 136.353 70.3482 136.437 70.2943C136.521 70.2404 136.653 70.2188 137.197 70.2943C137.318 70.2943 137.214 70.1887 137.098 70.1305C137.787 70.2512 138.2 70.1908 138.82 70.2986C138.605 70.249 138.517 70.1843 138.868 70.1326C138.676 70.2792 139.464 70.2792 139.748 70.3762L139.823 70.2878C140.049 70.3891 139.806 70.4236 139.619 70.4538C139.619 70.4236 139.559 70.3934 139.421 70.3999C139.055 70.4689 139.171 70.8159 139.754 70.859C140.379 70.7814 140.28 70.5378 140.185 70.4452C141.012 70.5594 140.956 70.0292 141.739 70.1434C141.916 70.1326 142.525 70.4947 143.104 70.4796C143.246 70.3611 143.065 70.3395 142.889 70.3223C142.712 70.3051 142.542 70.2684 142.703 70.1736C143.188 70.4042 143.674 70.2663 144.187 70.1154C144.441 70.0356 144.708 69.9623 144.983 69.8998C145.27 69.8211 145.569 69.7926 145.866 69.8158L145.747 70.0917C146.047 70.0692 146.345 70.0246 146.638 69.958L146.195 69.8869C146.376 69.8288 146.565 69.799 146.755 69.7985C146.841 69.7971 146.928 69.8028 147.013 69.8158C147.069 69.8352 147.069 69.8761 146.998 69.9408C147.321 69.7805 147.664 69.6645 148.018 69.5959C148.289 69.5485 148.526 69.542 148.912 69.4881C148.051 69.6627 148.912 69.4536 148.195 69.7489C148.468 69.7396 148.74 69.6983 149.004 69.6261C149.11 69.5959 149.219 69.5593 149.336 69.5183L149.43 69.486C149.445 69.5118 149.43 69.5399 149.432 69.5485ZM113.146 103.726C113.163 103.773 113.222 103.831 113.428 103.846C113.47 103.827 113.506 103.796 113.532 103.758C113.522 103.766 113.512 103.774 113.501 103.78C113.353 103.76 113.241 103.743 113.146 103.726ZM142.852 94.7589L142.787 95.0197C142.805 95.0048 142.82 94.9874 142.833 94.968C142.839 94.8947 142.843 94.8257 142.85 94.7589H142.852ZM132.675 69.4342C132.733 69.4384 132.792 69.4384 132.851 69.4342C132.792 69.4295 132.733 69.4295 132.675 69.4342ZM117.367 65.5264L117.352 65.5393C117.356 65.5384 117.359 65.5367 117.361 65.5345C117.364 65.5323 117.366 65.5295 117.367 65.5264ZM113.85 103.657C113.879 103.655 113.908 103.655 113.936 103.657C113.902 103.63 113.866 103.606 113.829 103.583L113.743 103.633L113.85 103.657ZM147.861 75.6873C147.851 75.7068 147.837 75.7237 147.82 75.7368C147.833 75.7218 147.84 75.7239 147.85 75.7131L147.861 75.6873ZM144.279 90.4501L144.025 91.2304C144.137 91.1118 144.288 90.9545 144.219 91.3209C144.699 90.3725 143.991 91.4804 144.279 90.4458V90.4501ZM145 88.0123C144.931 88.4434 145.114 88.036 145.153 88.0683C145.149 87.7752 145.147 87.7062 145 88.008V88.0123ZM149.807 69.1454L149.723 69.1777C149.684 69.1971 149.682 69.2101 149.689 69.2252C149.692 69.2326 149.695 69.2398 149.699 69.2467C149.699 69.2467 149.699 69.2467 149.699 69.2661L149.671 69.3092C149.644 69.3605 149.607 69.4059 149.562 69.4429L149.803 69.2575C149.803 69.2273 149.813 69.2015 149.818 69.1799C149.822 69.1583 149.839 69.1217 149.807 69.1411V69.1454ZM143.687 70.0076L143.156 70.1283L143.549 70.0486L143.687 70.0076ZM114.89 64.1361V64.3969C115.107 64.4486 115.254 64.2137 114.89 64.1361ZM102.704 58.1417C102.889 58.2984 103.085 58.4424 103.29 58.5728C103.235 58.4583 103.153 58.359 103.051 58.2838C102.949 58.2086 102.83 58.1598 102.704 58.1417ZM92.8861 93.0604L92.8624 93.5691L92.9162 93.3384L92.8861 93.0604Z" fill="#D0CECE"/>
<path d="M97.6657 85.2059C97.7315 85.3867 97.7376 85.5839 97.6829 85.7685C97.6592 85.8331 97.6291 85.8978 97.6032 85.9625C97.5925 85.9862 97.6032 85.9754 97.6032 85.9625C97.6032 85.9495 97.5882 86.0056 97.5796 86.0271C97.5678 86.0678 97.547 86.1053 97.5188 86.1367C97.4905 86.1682 97.4555 86.1929 97.4163 86.2088C97.3771 86.2248 97.3349 86.2317 97.2927 86.229C97.2505 86.2262 97.2095 86.214 97.1727 86.1931L97.0952 86.1349C96.9562 86.0803 96.8327 85.9922 96.7357 85.8784C96.6339 85.7223 96.5549 85.5525 96.5011 85.374C96.4128 85.1326 96.3289 84.889 96.2385 84.6476C96.1481 84.4062 96.0684 84.2165 95.9823 84.001L95.8467 83.6669L95.8316 83.6302L95.8166 83.5979C95.7951 83.5462 95.7735 83.4944 95.7498 83.4427C95.5626 83.0116 95.3624 82.5805 95.1557 82.1688C94.9491 81.7571 94.7252 81.3325 94.51 80.923C94.398 80.7182 94.2796 80.5156 94.1612 80.3151C94.0338 80.1256 93.944 79.9134 93.8965 79.69L93.8577 79.6254C93.8167 79.5528 93.8057 79.4671 93.827 79.3865C93.8484 79.306 93.9003 79.237 93.9718 79.1943C94.0442 79.1541 94.1293 79.1434 94.2094 79.1642C94.2895 79.1851 94.3586 79.236 94.4023 79.3064L94.4282 79.3408C94.6481 79.495 94.833 79.6941 94.9706 79.925C95.1285 80.1506 95.2813 80.3791 95.4291 80.6104C95.947 81.4176 96.4115 82.2579 96.8197 83.1259C97.0349 83.585 97.2394 84.0527 97.4267 84.5269C97.519 84.7486 97.5987 84.9753 97.6657 85.2059ZM105.518 79.4723C105.603 79.4221 105.674 79.3506 105.723 79.2648C105.772 79.179 105.798 79.0819 105.798 78.983C105.798 78.6834 105.6 78.3709 105.475 78.1014C105.378 77.8859 105.286 77.6833 105.193 77.4699C105.193 77.4505 105.178 77.4332 105.172 77.416L105.107 77.2565C105.064 77.1487 105.021 77.041 104.98 76.9332C104.896 76.7176 104.814 76.4848 104.739 76.2585C104.434 75.359 104.199 74.4373 104.035 73.5017C103.997 73.365 103.907 73.249 103.784 73.1791C103.661 73.1092 103.515 73.0911 103.379 73.1288C103.244 73.1703 103.13 73.2617 103.061 73.3843C102.991 73.5068 102.971 73.6513 103.004 73.7883C103.147 74.7419 103.363 75.683 103.65 76.6034C103.792 77.0582 103.951 77.5087 104.128 77.9506C104.229 78.2049 104.343 78.4571 104.446 78.7071C104.494 78.8127 104.541 78.9227 104.593 79.0197C104.623 79.0779 104.653 79.1382 104.685 79.1943C104.755 79.304 104.847 79.3986 104.954 79.4723C105.04 79.523 105.137 79.5497 105.236 79.5497C105.336 79.5497 105.433 79.523 105.518 79.4723ZM107.611 91.1119C107.492 90.9438 107.38 90.7713 107.266 90.5967C107.038 90.2432 106.823 89.884 106.62 89.519C106.425 89.1547 106.25 88.784 106.08 88.4089C106.037 88.3141 105.996 88.2214 105.955 88.1266L105.94 88.0942C105.94 88.0942 105.94 88.0813 105.927 88.0619L105.865 87.9067C105.785 87.7084 105.708 87.5058 105.637 87.3032C105.627 87.2452 105.606 87.1899 105.574 87.1408C105.542 87.0917 105.5 87.0499 105.45 87.018C105.401 86.9861 105.346 86.9649 105.288 86.9558C105.23 86.9466 105.171 86.9497 105.114 86.9648C105.058 86.9799 105.005 87.0068 104.959 87.0436C104.914 87.0804 104.876 87.1264 104.849 87.1785C104.822 87.2307 104.807 87.2879 104.803 87.3465C104.8 87.4051 104.809 87.4638 104.829 87.5187C105.038 88.3778 105.327 89.2155 105.691 90.0212C105.867 90.4135 106.06 90.7972 106.27 91.1722C106.371 91.3511 106.485 91.5279 106.586 91.7046C106.712 91.9284 106.861 92.138 107.032 92.3297C107.132 92.4286 107.264 92.4878 107.405 92.4965C107.545 92.5052 107.684 92.4628 107.796 92.3771C107.907 92.2902 107.983 92.1663 108.011 92.0279C108.038 91.8895 108.015 91.7458 107.946 91.6227C107.846 91.4447 107.733 91.2733 107.611 91.1097V91.1119ZM117.497 73.4585C117.383 73.2025 117.238 72.9609 117.067 72.7386C116.944 72.5446 116.826 72.3463 116.716 72.1459C116.606 71.9454 116.486 71.7148 116.385 71.4884L116.307 71.3203C116.294 71.2901 116.206 71.1048 116.279 71.2557C116.23 71.1522 116.193 71.0401 116.152 70.9345C115.985 70.4888 115.848 70.0322 115.743 69.5679C115.689 69.3373 115.644 69.1023 115.607 68.8674C115.607 68.807 115.588 68.7467 115.582 68.6863V68.7467C115.582 68.7187 115.571 68.6411 115.569 68.6195C115.554 68.4988 115.543 68.3759 115.532 68.2531C115.523 68.0967 115.454 67.9498 115.34 67.8424C115.227 67.735 115.076 67.6751 114.92 67.6751C114.763 67.6751 114.613 67.735 114.499 67.8424C114.385 67.9498 114.317 68.0967 114.307 68.2531C114.434 69.8817 114.915 71.4629 115.717 72.8852C115.826 73.0792 115.943 73.2689 116.066 73.4542C116.211 73.7104 116.401 73.9388 116.626 74.1289C116.727 74.1837 116.843 74.2078 116.958 74.1981C117.073 74.1884 117.183 74.1455 117.274 74.0745C117.365 74.0035 117.434 73.9074 117.472 73.7981C117.509 73.6888 117.515 73.5708 117.487 73.4585H117.497ZM104.022 60.7219C104.095 60.959 104.171 61.1961 104.238 61.4353C104.314 61.7255 104.41 62.0099 104.526 62.2867C104.598 62.4089 104.711 62.5008 104.845 62.5453C104.98 62.5899 105.126 62.5841 105.256 62.529C105.386 62.4739 105.492 62.3733 105.554 62.2458C105.616 62.1184 105.629 61.9728 105.591 61.8362C105.525 61.615 105.442 61.3988 105.344 61.1896L105.099 60.5645L104.603 59.2755C104.27 58.4133 103.921 57.5813 103.581 56.7321C103.488 56.4993 103.396 56.2665 103.301 56.0337L103.153 55.6608C103.13 55.5922 103.102 55.5253 103.071 55.4603C103.037 55.4063 102.987 55.3636 102.929 55.3375C102.91 55.2864 102.873 55.2443 102.825 55.2195C102.776 55.1947 102.721 55.1891 102.668 55.2038C102.64 55.2108 102.613 55.2235 102.589 55.2412C102.566 55.259 102.546 55.2814 102.532 55.3071C102.517 55.3327 102.508 55.3611 102.505 55.3904C102.502 55.4198 102.505 55.4494 102.513 55.4776V55.4927C102.476 55.5935 102.476 55.7044 102.513 55.8052L102.623 56.163C102.688 56.3786 102.752 56.5941 102.819 56.8097C102.95 57.2408 103.075 57.6826 103.206 58.1159C103.481 58.9838 103.752 59.8518 104.022 60.7197V60.7219Z" fill="white"/>
<path d="M144.59 40.1887L144.056 39.8244C145.261 38.0526 145.528 34.3042 145.53 34.2676L146.176 34.3107C146.161 34.4723 145.894 38.2703 144.59 40.1887Z" fill="#FD4C00"/>
<path d="M139.619 40.2277L139.085 39.8635C140.293 38.0895 140.557 34.3454 140.562 34.3066L141.208 34.3519C141.195 34.5114 140.923 38.3115 139.619 40.2277Z" fill="#FD4C00"/>
<path d="M134.651 40.2687L134.117 39.9045C135.323 38.1327 135.59 34.3843 135.592 34.3477L136.238 34.3908C136.225 34.5524 135.956 38.3504 134.651 40.2687Z" fill="#FD4C00"/>
<path d="M129.883 39.3288L129.35 38.9645C130.555 37.1906 130.822 33.4465 130.824 33.4077L131.47 33.453C131.457 33.6125 131.188 37.4126 129.883 39.3288Z" fill="#FD4C00"/>
<path d="M113.536 45.3665L113.03 44.9677C116.475 40.5813 115.452 34.9943 115.441 34.9383L116.087 34.8154C116.122 35.0547 117.17 40.7387 113.536 45.3665Z" fill="#35375B"/>
<path d="M139.895 52.0913C138.301 46.1099 141.765 40.5035 141.914 40.2686L142.461 40.6134C142.426 40.6673 139.001 46.2177 140.523 51.9232L139.895 52.0913Z" fill="#35375B"/>
<path d="M91.6575 90.5579L91.0117 90.4932C92.6671 74.4996 97.0734 54.6326 100.076 49.6125C104.412 42.3658 119.034 47.2414 119.665 47.4441L119.45 48.0562C119.303 48.0066 104.702 43.1439 100.634 49.9444C97.6697 54.902 93.3064 74.6397 91.6575 90.5579Z" fill="#35375B"/>
<path d="M124.889 118.385C118.954 117.661 112.666 116.499 112.604 116.488L112.214 116.409C112.109 116.385 102.243 114.135 95.8545 111.923L96.0698 111.313C102.437 113.512 112.268 115.753 112.367 115.775L112.742 115.855C112.8 115.855 119.068 117.021 124.981 117.743L124.889 118.385Z" fill="#35375B"/>
<path d="M139.962 108.205L139.346 108.007C144.233 92.8386 150.238 65.8262 149.463 60.0107C148.409 52.154 133.078 50.8435 132.923 50.8327L132.972 50.186C133.618 50.2378 148.979 51.5504 150.103 59.9223C150.897 65.8132 144.87 92.9787 139.962 108.205Z" fill="#35375B"/>
<path d="M140.62 40.6889C136.816 40.6889 132.476 40.1565 127.848 39.1025C121.117 37.5699 114.367 35.0071 110.651 32.5822L110.473 32.4636L111.979 24.165L112.614 24.2793L111.185 32.1554C117.886 36.4275 136.487 42.2236 147.738 39.2296L148.871 31.9722L149.516 32.0713L148.313 39.7491L148.111 39.8052C145.98 40.3958 143.448 40.6889 140.62 40.6889Z" fill="#35375B"/>
<path d="M144.491 33.3367C140.713 33.3367 135.327 32.6276 130.068 31.5412C125.117 30.5195 120.522 29.2241 117.138 27.8963C113.506 26.4694 111.773 25.2106 111.991 24.1565C112.464 21.8545 122.168 22.5981 131.513 24.5251C136.464 25.5468 141.059 26.8401 144.443 28.17C148.075 29.597 149.808 30.8558 149.59 31.9098C149.373 32.9121 147.412 33.3367 144.491 33.3367ZM117.017 23.3913C114.285 23.3913 112.725 23.7405 112.611 24.288C112.589 24.3958 112.533 25.3959 117.364 27.2928C120.713 28.6097 125.268 29.8923 130.189 30.9075C141.445 33.2289 148.701 32.9789 148.949 31.7697C149.048 31.2825 147.872 30.2026 144.196 28.752C140.846 27.4372 136.291 26.1525 131.371 25.1394C125.236 23.8936 120.287 23.3913 117.017 23.3913Z" fill="#35375B"/>
<path d="M134.44 89.5126C132.033 90.2002 129.405 90.3424 126.822 90.1743C125.746 94.1748 124.833 96.6407 124.833 96.6407L117.699 96.1708C118.675 93.8805 119.482 91.5219 120.114 89.1138C117.284 88.4393 114.521 87.5064 111.861 86.3268L112.735 79.2482C115.486 80.3918 118.303 81.3671 121.171 82.1689C122.131 78.7201 122.185 73.187 122.185 73.187L127.933 74.3639C128.371 77.3619 128.436 80.403 128.124 83.4169C130.707 83.7574 135.159 83.6885 135.159 83.6885L134.44 89.5126Z" fill="#FD4C00"/>
<path d="M54.106 32.3755L50.6768 39.8071L51.263 40.0784L54.6923 32.6468L54.106 32.3755Z" fill="#35375B"/>
<path d="M59.0344 26.9435L58.4941 26.59C60.0682 24.1713 61.9987 22.0049 64.22 20.1646L64.6333 20.6625C62.462 22.4621 60.5744 24.5796 59.0344 26.9435Z" fill="#35375B"/>
<path d="M70.8939 15.0881L70.4268 14.6397C72.7147 12.2481 75.4928 10.3811 78.57 9.16699L78.8046 9.77053C75.8151 10.9501 73.1163 12.7642 70.8939 15.0881Z" fill="#35375B"/>
<path d="M86.0416 5.88228L85.7295 5.31539C88.3894 3.85888 91.3204 2.96665 94.3399 2.69434L94.398 3.34098C91.4677 3.60399 88.623 4.46909 86.0416 5.88228Z" fill="#35375B"/>
<path d="M104.272 1.29328C103.936 1.29328 103.6 1.28897 103.265 1.28035L103.278 0.633709C106.153 0.694527 109.028 0.482342 111.864 0L111.972 0.646642C109.428 1.0764 106.852 1.2927 104.272 1.29328Z" fill="#35375B"/>
<path d="M128.837 3.09318C126.339 2.05785 123.711 1.36752 121.027 1.04117L121.105 0.394531C123.847 0.728333 126.532 1.43388 129.084 2.49181L128.837 3.09318Z" fill="#35375B"/>
<path d="M145.405 9.38059C142.37 7.94289 139.238 6.60219 136.1 5.39943L136.33 4.7959C139.488 6.00512 142.631 7.35014 145.681 8.79646L145.405 9.38059Z" fill="#35375B"/>
<path d="M161.139 21.0289C158.905 18.5371 156.371 15.7092 152.979 14.5948L153.179 13.9805C156.735 15.1487 159.445 18.1686 161.619 20.5956L161.139 21.0289Z" fill="#35375B"/>
<path d="M165.066 26.0789L164.522 26.4277L169.09 33.5657L169.634 33.2168L165.066 26.0789Z" fill="#35375B"/>
<path d="M175.24 49.7913C174.761 46.563 173.861 43.4115 172.564 40.4171L173.159 40.1606C174.476 43.2071 175.391 46.4128 175.88 49.6965L175.24 49.7913Z" fill="#35375B"/>
<path d="M176.699 57.9348L175.991 66.8237L176.635 66.8751L177.343 57.9862L176.699 57.9348Z" fill="#35375B"/>
<path d="M72.8799 135.717C74.8172 139.74 77.5682 144.882 78.0848 146.023C78.0848 146.023 75.0712 153.451 65.3845 160.372C65.3845 160.372 53.9952 157.889 32.4886 147.654C33.1344 144.288 33.9847 137.955 35.0718 133.407C29.2189 134.282 22.7245 135.993 19.5839 138.304C-0.777491 153.28 51.0827 172.369 63.7163 176.949C63.7163 176.949 86.2216 166.709 99.9229 142.539C99.9229 142.539 86.4756 138.405 72.8799 135.717Z" fill="#35375B"/>
<path d="M52.1292 89.8575C52.1292 89.8575 45.6714 73.1698 34.6308 55.4174L26.2357 43.3596C24.124 40.6804 20.0986 36.6281 20.0986 36.6281C29.2321 30.5389 39.233 26.8271 39.233 26.8271C52.9192 44.9827 67.8625 82.4147 67.8625 82.4147L52.1292 89.8575Z" fill="#FD4C00"/>
<path d="M37.6446 124.998C37.9146 123.893 38.3096 122.823 38.8221 121.808L36.239 120.338C31.4215 117.428 23.162 112.363 18.3854 99.9945C12.6767 85.2144 19.5887 64.8538 36.7728 61.2153C36.7728 61.2153 30.8941 44.5449 22.9381 39.9731C22.9381 39.9731 6.64086 51.9942 3.34955 79.0756C0.215379 104.756 19.339 121.784 36.9881 126.957C37.1656 126.291 37.3849 125.637 37.6446 124.998Z" fill="#FD4C00"/>
<path d="M38.2021 119.579C38.2021 119.579 44.8752 110.433 48.9866 102.503C48.9866 102.503 71.1067 99.1733 95.5622 93.832C95.5622 93.832 89.5694 112.024 82.4616 121.78C82.4616 121.784 64.3626 121.254 38.2021 119.579Z" fill="#FD4C00"/>
<path d="M49.6836 116.109C49.6836 116.109 53.7348 110.554 56.2318 105.741C56.2318 105.741 69.6618 103.719 84.5104 100.475C84.5104 100.475 80.8725 111.52 76.5458 117.445C76.5565 117.445 65.5633 117.124 49.6836 116.109Z" fill="white"/>
<path d="M30.0029 58.4226C33.0715 54.4769 32.9016 49.206 29.6234 46.6497C26.3452 44.0933 21.2001 45.2196 18.1314 49.1653C15.0628 53.111 15.2327 58.3819 18.5109 60.9383C21.7891 63.4946 26.9342 62.3683 30.0029 58.4226Z" fill="white"/>
<path d="M25.401 43.3856C25.3154 43.3856 25.2333 43.3515 25.1727 43.2909C25.1121 43.2302 25.0781 43.148 25.0781 43.0623V34.6344C25.0781 34.5486 25.1121 34.4664 25.1727 34.4057C25.2333 34.3451 25.3154 34.311 25.401 34.311C25.4867 34.311 25.5688 34.3451 25.6294 34.4057C25.6899 34.4664 25.7239 34.5486 25.7239 34.6344V43.0623C25.7239 43.148 25.6899 43.2302 25.6294 43.2909C25.5688 43.3515 25.4867 43.3856 25.401 43.3856Z" fill="white"/>
<path d="M29.8024 45.0234C29.7168 45.0234 29.6346 44.9893 29.5741 44.9287C29.5135 44.868 29.4795 44.7858 29.4795 44.7001V31.9332C29.4795 31.8474 29.5135 31.7652 29.5741 31.7046C29.6346 31.6439 29.7168 31.6099 29.8024 31.6099C29.888 31.6099 29.9702 31.6439 30.0307 31.7046C30.0913 31.7652 30.1253 31.8474 30.1253 31.9332V44.7001C30.1253 44.7858 30.0913 44.868 30.0307 44.9287C29.9702 44.9893 29.888 45.0234 29.8024 45.0234Z" fill="white"/>
<path d="M34.2086 55.5789C34.123 55.5789 34.0409 55.5448 33.9803 55.4842C33.9198 55.4235 33.8857 55.3413 33.8857 55.2555V27.7603C33.8857 27.6746 33.9198 27.5923 33.9803 27.5317C34.0409 27.4711 34.123 27.437 34.2086 27.437C34.2943 27.437 34.3764 27.4711 34.437 27.5317C34.4975 27.5923 34.5316 27.6746 34.5316 27.7603V55.2555C34.5316 55.3413 34.4975 55.4235 34.437 55.4842C34.3764 55.5448 34.2943 55.5789 34.2086 55.5789Z" fill="white"/>
<path d="M38.6178 62.9398C38.5322 62.9398 38.4501 62.9058 38.3895 62.8451C38.3289 62.7845 38.2949 62.7023 38.2949 62.6165V25.3053C38.2949 25.2195 38.3289 25.1373 38.3895 25.0766C38.4501 25.016 38.5322 24.9819 38.6178 24.9819C38.7035 24.9819 38.7856 25.016 38.8462 25.0766C38.9067 25.1373 38.9407 25.2195 38.9407 25.3053V62.6208C38.9396 62.7058 38.9051 62.7869 38.8446 62.8467C38.7842 62.9064 38.7027 62.9398 38.6178 62.9398Z" fill="white"/>
<path d="M43.0241 73.0101C42.9386 73.0095 42.8568 72.9752 42.7964 72.9147C42.7359 72.8542 42.7017 72.7723 42.7012 72.6867V31.9332C42.7012 31.8474 42.7352 31.7652 42.7958 31.7046C42.8563 31.6439 42.9384 31.6099 43.0241 31.6099C43.1097 31.6099 43.1919 31.6439 43.2524 31.7046C43.313 31.7652 43.347 31.8474 43.347 31.9332V72.6867C43.347 72.7725 43.313 72.8547 43.2524 72.9154C43.1919 72.976 43.1097 73.0101 43.0241 73.0101Z" fill="white"/>
<path d="M51.8385 90.4393C51.7529 90.4393 51.6708 90.4052 51.6102 90.3446C51.5496 90.284 51.5156 90.2017 51.5156 90.116V47.401C51.5156 47.3152 51.5496 47.233 51.6102 47.1723C51.6708 47.1117 51.7529 47.0776 51.8385 47.0776C51.9242 47.0776 52.0063 47.1117 52.0669 47.1723C52.1274 47.233 52.1614 47.3152 52.1614 47.401V90.116C52.1614 90.2017 52.1274 90.284 52.0669 90.3446C52.0063 90.4052 51.9242 90.4393 51.8385 90.4393Z" fill="white"/>
<path d="M56.2467 88.4756C56.1611 88.4756 56.079 88.4416 56.0184 88.3809C55.9579 88.3203 55.9238 88.238 55.9238 88.1523V55.2554C55.9238 55.1697 55.9579 55.0875 56.0184 55.0268C56.079 54.9662 56.1611 54.9321 56.2467 54.9321C56.3324 54.9321 56.4145 54.9662 56.4751 55.0268C56.5356 55.0875 56.5696 55.1697 56.5696 55.2554V88.1588C56.5679 88.2434 56.5332 88.324 56.4728 88.3832C56.4124 88.4425 56.3313 88.4756 56.2467 88.4756Z" fill="white"/>
<path d="M60.653 87.0036C60.5673 87.0036 60.4852 86.9696 60.4247 86.9089C60.3641 86.8483 60.3301 86.7661 60.3301 86.6803V65.5675C60.3301 65.4817 60.3641 65.3995 60.4247 65.3388C60.4852 65.2782 60.5673 65.2441 60.653 65.2441C60.7386 65.2441 60.8208 65.2782 60.8813 65.3388C60.9419 65.3995 60.9759 65.4817 60.9759 65.5675V86.6803C60.9759 86.7661 60.9419 86.8483 60.8813 86.9089C60.8208 86.9696 60.7386 87.0036 60.653 87.0036Z" fill="white"/>
<path d="M65.0622 84.5483C64.9765 84.5483 64.8944 84.5142 64.8338 84.4536C64.7733 84.393 64.7393 84.3107 64.7393 84.225V74.8961C64.7393 74.8103 64.7733 74.7281 64.8338 74.6675C64.8944 74.6068 64.9765 74.5728 65.0622 74.5728C65.1478 74.5728 65.2299 74.6068 65.2905 74.6675C65.3511 74.7281 65.3851 74.8103 65.3851 74.8961V84.225C65.3851 84.3107 65.3511 84.393 65.2905 84.4536C65.2299 84.5142 65.1478 84.5483 65.0622 84.5483Z" fill="white"/>
<path d="M68.0902 81.2872C67.9416 80.9143 52.9919 43.6784 38.9785 24.9107L39.4951 24.5249C53.5602 43.3594 68.54 80.6729 68.6907 81.0457L68.0902 81.2872Z" fill="#35375B"/>
<path d="M24.5589 42.5923C22.4874 39.9507 20.2734 37.4243 17.9268 35.0244L18.3874 34.5718C20.7492 36.9875 22.9769 39.5312 25.0604 42.1914L24.5589 42.5923Z" fill="#35375B"/>
<path d="M50.4218 90.4503C50.3572 90.2692 43.8392 72.1395 32.9385 54.6199L33.4874 54.2793C44.4247 71.8572 50.9664 90.0601 51.031 90.2326L50.4218 90.4503Z" fill="#35375B"/>
<path d="M15.0999 37.6971L13.1152 34.5242L13.3477 34.3453C19.6333 29.5063 40.7265 20.477 41.6198 20.0912L41.8738 19.9834L43.8628 23.1606L43.5141 23.3093C43.2989 23.402 21.6029 32.6921 15.3819 37.4815L15.0999 37.6971ZM13.9741 34.6794L15.2657 36.753C21.4974 32.1532 40.0377 24.1004 42.9135 22.8631L41.622 20.796C39.1896 21.8414 20.0982 30.1335 13.9741 34.6816V34.6794Z" fill="#35375B"/>
<path d="M47.4878 95.761L45.501 92.5839L45.8475 92.4352C46.0628 92.3425 67.7588 83.0524 73.9797 78.2629L74.2617 78.0474L76.2486 81.2202L76.0161 81.3991C69.7284 86.2382 48.6481 95.2718 47.7418 95.6533L47.4878 95.761ZM46.4481 92.8813L47.7397 94.9484C50.1699 93.903 69.2656 85.6109 75.3854 81.0629L74.0938 78.9893C67.8642 83.5912 49.324 91.6441 46.4481 92.8813Z" fill="#35375B"/>
<path d="M20.7549 29.8728C20.7033 29.7995 15.4015 22.3286 9.4194 14.9828L9.18262 14.6918L21.3469 7.48389L21.5234 7.63046C25.4885 10.9219 33.3971 23.4797 33.7329 24.0121L33.1862 24.3569C33.1065 24.2298 25.2216 11.7259 21.2823 8.27495L10.1556 14.8728C16.0537 22.139 21.2307 29.4309 21.2823 29.5064L20.7549 29.8728Z" fill="#35375B"/>
<path d="M57.3727 98.1862L55.0996 92.1875L55.7045 91.9569L57.7301 97.3089L69.9331 91.6874L67.533 86.3181L68.1206 86.0552L70.7834 92.0064L57.3727 98.1862Z" fill="#35375B"/>
<path d="M63.6501 104.554L60.2598 96.9901L60.8474 96.725L63.9988 103.752L69.8668 101.762L67.3978 92.8106L68.0198 92.6382L70.6503 102.178L63.6501 104.554Z" fill="#35375B"/>
<path d="M85.3287 122.862H85.1521C84.9584 122.862 65.4452 122.157 37.7521 120.183L37.1816 120.142L37.511 119.674C37.582 119.575 44.6404 109.487 48.9391 100.837L49.0144 100.686L49.1802 100.663C49.2211 100.663 53.2959 100.038 59.8075 98.9254L59.9152 99.572C54.1333 100.559 50.2694 101.158 49.4428 101.286C45.6499 108.875 39.797 117.506 38.3634 119.588C64.3538 121.431 83.006 122.144 85.0015 122.217C91.7175 112.546 97.5016 95.3063 98.5628 92.058C90.0773 93.9311 80.9826 95.7654 71.5262 97.5092L71.4078 96.8734C81.0622 95.0929 90.3377 93.209 98.9739 91.3058L99.5185 91.1851L99.3506 91.7175C99.2882 91.9201 92.9316 112.033 85.432 122.733L85.3287 122.862Z" fill="#35375B"/>
<path d="M86.8588 128.854C86.6026 128.841 60.9803 127.425 36.7744 123.159L36.8863 122.513C61.0513 126.772 86.637 128.184 86.8932 128.199L86.8588 128.854Z" fill="#35375B"/>
<path d="M65.4384 160.798L64.9712 160.697C64.8572 160.671 53.2999 158.089 32.0043 147.945L31.7891 147.839L31.8343 147.594C31.9806 146.818 32.1335 145.981 32.2949 145.1C33.5047 138.483 35.1622 129.419 38.5051 123.075L39.0756 123.377C35.78 129.628 34.1246 138.64 32.9321 145.216C32.7857 146.007 32.6479 146.762 32.5145 147.469C51.1925 156.345 62.2741 159.356 64.629 159.936C64.0456 156.703 60.5391 137.911 55.5407 126.095L56.137 125.843C61.6283 138.814 65.3135 160.095 65.3501 160.309L65.4384 160.798Z" fill="#35375B"/>
<path d="M65.2234 160.637L64.8467 160.109C73.6723 153.815 76.9421 147.023 77.3898 146.025C76.0315 143.035 72.5659 135.534 68.4264 127.606L68.999 127.307C73.2095 135.366 76.7225 142.986 78.0399 145.889L78.098 146.014L78.0464 146.143C78.0098 146.219 74.8821 153.739 65.2234 160.637Z" fill="#35375B"/>
<path d="M40.1674 117.113C31.4961 112.205 24.9359 104.269 21.7412 94.8214C19.5916 88.6011 19.8357 81.8017 22.4257 75.752L23.0177 76.0085C21.2332 80.1362 19.6683 86.7147 22.3525 94.6123C25.4948 103.91 31.9513 111.721 40.486 116.549L40.1674 117.113Z" fill="#35375B"/>
<path d="M33.8665 120.116C28.8295 116.883 21.812 110.343 17.0569 97.6299C14.4545 90.6893 15.1196 82.8283 18.9082 75.4997C22.5245 68.5181 28.4807 63.2135 34.4542 61.6572L34.6178 62.2845C28.8165 63.7933 23.0153 68.9664 19.4808 75.7993C15.7718 82.9619 15.1239 90.6354 17.6618 97.4036C22.3652 109.951 29.26 116.395 34.226 119.573L33.8665 120.116Z" fill="#35375B"/>
<path d="M36.0472 130.007C26.3003 127.438 16.9214 121.329 10.3151 113.248C4.80666 106.513 -1.40572 95.1425 0.281912 79.2243C1.82101 64.7137 6.88821 54.4946 10.8619 48.4765C15.1778 41.9454 19.1967 38.8006 19.2355 38.7769L19.6315 39.2877C19.5928 39.32 15.6406 42.4153 11.3828 48.8666C7.45219 54.8136 2.44742 64.9271 0.923384 79.2933C-2.16128 108.392 20.3354 125.205 36.2108 129.382L36.0472 130.007Z" fill="#35375B"/>
<path d="M22.8993 62.5086C21.345 62.516 19.8216 62.0736 18.5123 61.2347C14.4483 58.6201 13.4968 52.8284 16.3899 48.3019C17.7319 46.163 19.8167 44.5968 22.2428 43.9047C23.3733 43.5721 24.5615 43.4845 25.7285 43.6477C26.8954 43.8108 28.0143 44.221 29.0105 44.851C30.9974 46.127 32.2889 48.1747 32.6936 50.6233C33.0502 53.1196 32.4978 55.661 31.1374 57.7831C29.777 59.9052 27.6994 61.4662 25.2844 62.181C24.5076 62.3967 23.7054 62.5069 22.8993 62.5086ZM18.8675 60.6872C19.7873 61.2663 20.8197 61.6428 21.8961 61.7914C22.9724 61.9401 24.068 61.8576 25.11 61.5494C27.3721 60.8777 29.3179 59.4144 30.5926 57.4262C31.8673 55.438 32.386 53.0573 32.0543 50.7182C31.6862 48.4528 30.4829 46.5624 28.664 45.3941C26.845 44.2259 24.63 43.9155 22.4215 44.532C20.1484 45.182 18.1961 46.6516 16.941 48.6575C14.2395 52.8715 15.1026 58.2688 18.8783 60.6894L18.8675 60.6872Z" fill="#35375B"/>
<path d="M23.4637 56.6587C22.8651 56.662 22.2783 56.4921 21.7739 56.1695C21.3942 55.9214 21.0716 55.5954 20.8274 55.213C20.5832 54.8306 20.423 54.4006 20.3575 53.9515C20.2202 53.002 20.4296 52.0347 20.9472 51.2274C21.4648 50.42 22.2559 49.8268 23.1752 49.5565C23.6101 49.4289 24.0671 49.3957 24.5159 49.4589C24.9646 49.522 25.3948 49.6802 25.7777 49.9229C27.3383 50.9252 27.715 53.141 26.6043 54.8632C26.2713 55.4005 25.8097 55.8462 25.2613 56.1597C24.7129 56.4732 24.095 56.6447 23.4637 56.6587ZM24.0879 50.0781C23.8369 50.0781 23.5871 50.1122 23.3453 50.1794C22.5813 50.409 21.9245 50.9045 21.4935 51.5764C21.0624 52.2484 20.8855 53.0526 20.9946 53.8437C21.0457 54.203 21.1727 54.5473 21.3672 54.8536C21.5618 55.1599 21.8193 55.4211 22.1226 55.6198C23.3819 56.4303 25.1491 55.9324 26.0618 54.5097C26.9745 53.0871 26.6882 51.2765 25.429 50.4618C25.0256 50.206 24.5568 50.0727 24.0793 50.0781H24.0879Z" fill="#35375B"/>
<path d="M66.9158 112.085C66.2079 112.091 65.5104 111.913 64.8923 111.567C64.5234 111.372 64.2045 111.095 63.9606 110.756C63.7168 110.417 63.5546 110.026 63.4867 109.614C63.2521 107.989 64.7094 106.429 66.7307 106.14C67.6532 105.993 68.5983 106.157 69.4171 106.607C69.7857 106.803 70.1044 107.08 70.3482 107.419C70.592 107.758 70.7544 108.148 70.8227 108.56C71.0552 110.186 69.6001 111.746 67.5766 112.035C67.3578 112.067 67.137 112.084 66.9158 112.085ZM67.3937 106.737C67.2028 106.738 67.0122 106.751 66.8232 106.778C65.1528 107.019 63.9431 108.25 64.1239 109.522C64.1805 109.837 64.3092 110.136 64.5 110.393C64.6908 110.651 64.9386 110.861 65.2238 111.007C65.9171 111.384 66.7156 111.521 67.4948 111.397C69.1652 111.156 70.3772 109.925 70.1942 108.653C70.1391 108.338 70.0121 108.04 69.8232 107.783C69.6342 107.525 69.3885 107.315 69.105 107.168C68.5812 106.88 67.9912 106.734 67.3937 106.745V106.737Z" fill="#35375B"/>
<path d="M63.7162 177.296L63.5978 177.255C57.6265 175.126 46.0628 170.748 35.6895 165.366C22.4338 158.483 15.3281 152.177 14.5726 146.628C14.142 143.479 15.7673 140.593 19.3965 138.032C22.9354 135.538 27.8928 133.872 34.131 133.075L34.2128 133.721C28.0801 134.502 23.2195 136.131 19.7668 138.563C16.3506 140.968 14.8158 143.654 15.2119 146.538C16.8995 158.94 52.5895 172.619 63.7033 176.598C64.517 176.24 69.6208 173.91 76.169 168.987C85.5908 161.866 93.5044 152.941 99.4492 142.729C97.3698 142.104 87.1945 139.108 74.6492 136.653L74.7741 136.019C88.8262 138.767 99.9163 142.197 100.026 142.231L100.414 142.35L100.203 142.692C94.1931 153.136 86.1454 162.261 76.5392 169.524C69.3625 174.912 63.8949 177.225 63.8389 177.249L63.7162 177.296Z" fill="#35375B"/>
<path d="M64.851 185L64.711 184.95C55.9974 181.842 27.6606 169.159 18.2969 157.938L18.792 157.522C27.5186 167.98 54.7144 180.67 64.7928 184.293C66.5946 183.215 86.8397 170.826 100.573 148.758L101.12 149.101C93.5881 161.186 84.1662 170.282 77.59 175.783C70.4606 181.745 65.0339 184.894 64.9801 184.924L64.851 185Z" fill="#35375B"/>
<path d="M72.1119 38.8354C67.2148 40.8421 62.7353 55.4929 75.1363 57.9156C87.5374 60.3384 89.6534 46.7072 86.3298 42.4695C83.0062 38.2318 78.7548 36.1109 72.1119 38.8354Z" fill="#FF533D"/>
<path d="M71.2934 48.3259C70.6885 50.7487 73.5107 51.3543 74.1156 50.143C74.7205 48.9316 73.7131 47.5176 72.9058 46.9098C72.0985 46.3019 71.2934 48.3259 71.2934 48.3259Z" fill="white"/>
<path d="M82.9288 46.4895C84.3668 44.4482 81.9536 42.8639 80.9526 43.7736C79.9516 44.6832 80.3822 46.3601 80.916 47.2223C81.4499 48.0845 82.9288 46.4895 82.9288 46.4895Z" fill="white"/>
<path d="M78.3347 54.4905C80.1753 55.8096 81.6262 53.6283 80.8082 52.7122C79.9902 51.7961 78.4617 52.1776 77.6824 52.6561C76.9032 53.1347 78.3347 54.4905 78.3347 54.4905Z" fill="white"/>
<path d="M76.8196 38.9669C76.6344 37.0269 76.572 35.0116 77.3577 33.4424L77.9347 33.7312C77.2221 35.156 77.2889 37.0614 77.4632 38.9044L76.8196 38.9669Z" fill="#35375B"/>
<path d="M83.8408 39.7512L83.3457 39.333C84.3941 38.0936 84.887 36.0546 84.8913 36.0352L85.5199 36.186C85.4984 36.2744 84.9861 38.3954 83.8408 39.7512Z" fill="#35375B"/>
<path d="M86.355 47.0301L86.2754 46.3835C88.6432 46.0882 91.3275 45.1937 91.3555 45.1851L91.5708 45.7994C89.8701 46.3568 88.1253 46.7685 86.355 47.0301Z" fill="#35375B"/>
<path d="M88.4589 54.8548C88.4396 54.8419 86.4741 53.5615 85.3311 53.2835L85.486 52.6562C86.7346 52.9688 88.7259 54.2578 88.812 54.3138L88.4589 54.8548Z" fill="#35375B"/>
<path d="M83.0726 60.7952C82.9198 59.8705 81.6863 58.1849 81.2256 57.6137L81.7272 57.2085C81.7982 57.2969 83.4967 59.4092 83.7098 60.6896L83.0726 60.7952Z" fill="#35375B"/>
<path d="M74.5701 61.8619L74.0664 61.4566C75.1944 60.047 75.3064 56.1391 75.3064 56.0981L75.9522 56.1154C75.9479 56.277 75.8338 60.2711 74.5701 61.8619Z" fill="#35375B"/>
<path d="M67.5029 58.1308L67.0186 57.6997C67.8107 56.8095 69.21 55.0075 69.2251 54.9902L69.7439 55.3955C69.675 55.4623 68.3059 57.2255 67.5029 58.1308Z" fill="#35375B"/>
<path d="M68.4521 51.1969C66.7709 51.1969 64.4289 50.2851 64.3213 50.242L64.5581 49.6406C64.5861 49.6406 67.322 50.7184 68.8353 50.5287L68.9171 51.1753C68.7626 51.1915 68.6074 51.1986 68.4521 51.1969Z" fill="#35375B"/>
<path d="M67.9039 43.8597C66.1128 42.8056 65.5704 41.4326 65.5488 41.3744L66.1516 41.1438L65.8502 41.258L66.1516 41.1416C66.1516 41.1545 66.6467 42.3681 68.2311 43.2971L67.9039 43.8597Z" fill="#35375B"/>
<path d="M72.9729 41.7752C71.5778 40.1583 70.7062 38.155 70.4736 36.0309L71.1194 35.9878C71.3537 37.9668 72.1679 39.8321 73.4594 41.3485L72.9729 41.7752Z" fill="#35375B"/>
<path d="M90.8655 27.1975C91.5285 27.7343 92.3982 28.0058 92.9643 28.646C93.6101 29.3659 93.7199 30.3876 93.9136 31.3296C94.1073 32.2715 94.4991 33.2997 95.3838 33.6769C96.0124 33.9463 96.7507 33.8084 97.3728 33.5239C99.1573 32.7091 100.277 30.7476 100.337 28.7818C100.397 26.816 99.4974 24.902 98.1413 23.4837C97.2383 22.489 96.0642 21.7809 94.7639 21.4467C93.4723 21.1493 91.634 21.6774 90.6933 22.5482C90.3728 22.8502 90.1206 23.2174 89.9535 23.6251C89.7865 24.0328 89.7085 24.4716 89.7248 24.912C89.7411 25.3524 89.8513 25.7842 90.0481 26.1784C90.2448 26.5726 90.5236 26.9201 90.8655 27.1975Z" fill="#F4F1F1"/>
<path d="M85.5765 77.2201C86.5212 76.4213 86.7149 75.0954 86.0092 74.2586C85.3035 73.4218 83.9657 73.3911 83.021 74.1899C82.0763 74.9887 81.8826 76.3146 82.5883 77.1513C83.294 77.9881 84.6319 78.0189 85.5765 77.2201Z" fill="#F4F1F1"/>
<path d="M96.7308 177.124L96.6748 176.477C121.169 174.417 158.394 164.314 182.88 142.636L153.921 103.335C143.763 111.789 126.06 123.812 99.047 133.512C98.3043 133.779 97.7662 133.971 97.5509 134.064L97.2969 133.463C97.5315 133.361 98.0482 133.176 98.8317 132.893C125.987 123.144 143.696 111.05 153.77 102.62L154.033 102.404L183.739 142.725L183.523 142.921C172.907 152.392 158.499 160.65 141.856 166.818C127.218 172.246 111.196 175.906 96.7308 177.124Z" fill="#35375B"/>
<path d="M109.031 179.982L108.937 179.335C125.281 176.934 156.494 169.702 181.853 148.208L182.271 148.702C156.786 170.302 125.445 177.566 109.031 179.982Z" fill="#35375B"/>
<path d="M148.49 129.218C146.934 129.218 145.392 128.835 144.295 128.091C142.805 127.08 142.112 125.088 142.573 123.133C143.154 120.642 145.425 118.891 148.649 118.447H148.686C148.815 118.447 151.872 118.389 153.661 120.329C154.636 121.388 155.036 122.825 154.849 124.601C154.662 126.377 153.658 127.712 151.941 128.509C150.855 128.991 149.678 129.232 148.49 129.218ZM148.705 119.088C144.48 119.685 143.444 122.215 143.197 123.293C142.801 124.985 143.388 126.701 144.658 127.563C146.436 128.772 149.515 128.934 151.663 127.934C152.711 127.449 154.001 126.464 154.203 124.543C154.369 122.963 154.027 121.696 153.185 120.782C151.661 119.116 148.959 119.092 148.714 119.096L148.705 119.088Z" fill="#35375B"/>
<path d="M159.076 135.758C152.334 136.683 151.953 142.833 154.863 144.811C157.774 146.79 164.419 146.232 164.91 141.556C165.545 135.592 159.076 135.758 159.076 135.758Z" fill="#35375B"/>
<path d="M129.069 139.127C127.513 139.127 125.971 138.743 124.874 137.998C123.384 136.987 122.689 134.997 123.152 133.04C123.735 130.55 126.006 128.8 129.23 128.356H129.267C129.396 128.356 132.453 128.296 134.242 130.238C135.217 131.296 135.617 132.732 135.43 134.508C135.243 136.284 134.24 137.618 132.522 138.418C131.435 138.898 130.257 139.14 129.069 139.127ZM129.284 128.996C125.065 129.593 124.023 132.13 123.774 133.191C123.38 134.885 123.967 136.601 125.235 137.463C127.015 138.67 130.092 138.834 132.242 137.834C133.288 137.347 134.58 136.364 134.782 134.443C134.948 132.859 134.605 131.594 133.76 130.678C132.231 129.02 129.534 129.003 129.293 129.005L129.284 128.996Z" fill="#35375B"/>
<path d="M139.662 145.665C132.918 146.591 132.539 152.739 135.447 154.718C138.355 156.696 145.003 156.138 145.496 151.463C146.124 145.494 139.662 145.665 139.662 145.665Z" fill="#FF533D"/>
<path d="M109.846 138.597C103.105 139.524 102.724 145.671 105.634 147.65C108.544 149.629 115.189 149.071 115.68 144.395C116.309 138.425 109.846 138.597 109.846 138.597Z" fill="#FF533D"/>
<path d="M120.042 166.019C118.485 166.019 116.942 165.635 115.846 164.89C114.357 163.879 113.661 161.889 114.124 159.932C114.705 157.442 116.979 155.692 120.203 155.248H120.24C120.369 155.248 123.426 155.19 125.214 157.13C126.189 158.188 126.59 159.624 126.403 161.4C126.215 163.176 125.21 164.51 123.492 165.31C122.406 165.792 121.229 166.034 120.042 166.019ZM120.257 155.888C116.025 156.488 114.996 159.02 114.746 160.085C114.352 161.777 114.938 163.493 116.208 164.355C117.988 165.562 121.064 165.726 123.215 164.726C124.261 164.239 125.55 163.256 125.752 161.335C125.92 159.753 125.576 158.486 124.732 157.57C123.202 155.91 120.502 155.901 120.266 155.897L120.257 155.888Z" fill="#35375B"/>
<path d="M153.574 92.8125C154.188 94.6783 154.942 96.4949 155.83 98.2464C158.629 103.739 164.32 108.625 169.822 111.395L169.781 111.416C175.186 108.459 181.134 103.31 183.749 97.7248C186.365 92.14 187.51 85.9559 187.792 79.7934C187.846 78.8335 187.846 77.8714 187.792 76.9115L187.706 76.9503L169.559 69.0376L169.439 69.0872L151.168 77.6185L151.084 77.5819C151.064 78.5429 151.097 79.5044 151.185 80.4616C151.519 84.6497 152.261 88.8335 153.574 92.8125Z" fill="#FD4C00"/>
<path d="M168.979 112.677L168.845 112.425L168.729 112.656C167.788 112.182 166.839 111.647 165.907 111.067L166.249 110.518C167.11 111.056 167.993 111.554 168.867 112C173.725 109.302 180.316 104.025 183.194 97.8843C185.661 92.6142 187.08 86.3245 187.409 79.1899C187.446 78.3773 187.476 77.4288 187.431 76.4804L168.6 68.2702L153.138 75.4846L152.864 74.8983L168.346 67.6818L168.615 67.5762L187.646 75.8726L188.029 75.6872L188.061 76.1657C188.117 77.1852 188.117 78.207 188.061 79.2265C187.73 86.4452 186.292 92.8168 183.788 98.1667C180.919 104.297 174.672 109.446 169.568 112.358H169.59L168.979 112.677Z" fill="#35375B"/>
<path d="M160.292 91.7605C160.665 92.8828 161.121 93.9752 161.659 95.0282C163.342 98.3326 166.765 101.279 170.076 102.941L170.05 102.954C173.302 101.176 176.88 98.0761 178.445 94.7178C180.01 91.3596 180.707 87.6371 180.879 83.9297C180.911 83.3553 180.911 82.7797 180.879 82.2053L180.83 82.229L169.914 77.4697L169.841 77.4999L158.846 82.6192L158.794 82.5976C158.783 83.1731 158.804 83.7488 158.856 84.322C159.035 86.8473 159.518 89.3419 160.292 91.7519V91.7605Z" fill="white"/>
<path d="M169.525 93.3903L165.808 89.6678L166.266 89.2108L169.525 92.4763L175.016 86.9756L175.473 87.4325L169.525 93.3903Z" fill="#35375B"/>
</svg>
