<svg width="225" height="178" viewBox="0 0 225 178" fill="none" xmlns="http://www.w3.org/2000/svg">
<g clip-path="url(#clip0_298_10764)">
<path d="M95.4486 64.0692C95.37 64.0694 95.2935 64.0432 95.2315 63.9947C95.1695 63.9463 95.1255 63.8784 95.1065 63.8018L94.6866 62.1813C94.672 62.1353 94.6669 62.0869 94.6716 62.0388C94.6763 61.9908 94.6908 61.9443 94.714 61.902C94.7373 61.8598 94.7689 61.8228 94.8069 61.7932C94.845 61.7636 94.8886 61.7421 94.9352 61.7301C94.9818 61.718 95.0303 61.7155 95.0779 61.7229C95.1254 61.7303 95.171 61.7473 95.2117 61.773C95.2525 61.7986 95.2876 61.8323 95.315 61.872C95.3423 61.9117 95.3613 61.9566 95.3707 62.0039L95.7906 63.6244C95.8023 63.6696 95.805 63.7167 95.7985 63.7629C95.792 63.8092 95.7765 63.8537 95.7529 63.8939C95.7292 63.9341 95.6978 63.9693 95.6606 63.9973C95.6234 64.0254 95.581 64.0458 95.5359 64.0573C95.5073 64.0648 95.478 64.0687 95.4486 64.0692Z" fill="#FD4C00"/>
<path d="M251.414 67.2073C247.728 62.4972 242.945 58.6711 237.192 55.8318C231.331 52.9377 224.597 51.1383 217.182 50.4865C213.976 50.2046 209.623 49.8629 204.583 49.4682C186.131 48.022 158.243 45.8378 145.662 43.307C126.252 39.4012 114.012 31.2714 103.211 24.0985C89.7454 15.1526 78.115 7.43076 57.133 10.8107C40.6424 13.4643 28.8218 22.1498 21.997 36.6216C17.6676 45.8046 15.3244 57.3874 15.0317 71.0434C14.7952 82.0639 15.885 94.4279 18.263 107.775C21.405 125.355 26.0452 140.356 28.372 147H28.8912C26.6075 140.512 21.9143 125.425 18.7525 107.696C15.0333 86.8337 12.6553 57.6097 22.4451 36.8439C29.1955 22.5295 40.8921 13.9386 57.2107 11.3033C78.0026 7.95483 89.5586 15.6286 102.937 24.5147C113.783 31.7109 126.059 39.864 145.567 43.7946C158.178 46.3304 186.083 48.5179 204.548 49.9641C209.587 50.3588 213.939 50.7005 217.143 50.9824C231.86 52.276 243.57 57.9928 251.023 67.5141C252.119 68.9169 253.114 70.3962 254 71.9406V70.9654C253.214 69.6617 252.35 68.4067 251.414 67.2073Z" fill="#35375B"/>
<path d="M35.9115 69.0942C35.8485 69.0939 35.7867 69.0769 35.7325 69.0449C35.6782 69.0129 35.6333 68.9671 35.6024 68.912C35.5718 68.8553 32.2998 63.1302 16.7138 47.4382C13.8193 44.5213 14.3123 41.6375 15.7372 39.8986C17.7659 37.4359 22.3165 36.4328 26.7514 39.4255C33.51 44.0032 41.099 66.0046 41.4198 66.9296C41.4344 66.9749 41.4399 67.0227 41.4359 67.0702C41.4319 67.1177 41.4185 67.1639 41.3966 67.2062C41.3746 67.2484 41.3445 67.2859 41.308 67.3164C41.2715 67.3469 41.2293 67.3698 41.1839 67.3838L36.02 69.08C35.9848 69.0904 35.9482 69.0952 35.9115 69.0942ZM21.1134 38.2876C19.0563 38.2876 17.3083 39.1085 16.2845 40.3505C15.0554 41.8433 14.6544 44.3557 17.2281 46.9367C31.2737 61.0909 35.3029 67.0597 36.0813 68.3135L40.6437 66.8207C39.6387 63.97 32.4862 44.1499 26.3669 40.0169C24.5528 38.7986 22.7364 38.2876 21.1134 38.2876Z" fill="#FD4C00"/>
<path d="M37.2062 66.0043C37.2062 66.0043 30.266 45.7228 24.2647 41.6703C17.6052 37.1754 10.5541 43.1086 15.725 48.318C29.8154 62.5124 32.5967 67.5112 32.5967 67.5112L37.2062 66.0043Z" fill="#FD4C00"/>
<path d="M41.0963 80.504C39.4167 80.504 37.6498 79.0656 36.935 76.9554C36.5241 75.7375 36.6118 74.4059 37.1788 73.2527C37.7458 72.0996 38.7457 71.2191 39.9593 70.8045C40.6384 70.5881 41.3581 70.5314 42.0625 70.6389C42.767 70.7464 43.4373 71.0151 44.0215 71.4243C44.5965 71.821 45.068 72.3504 45.3964 72.9679C45.7248 73.5855 45.9005 74.2731 45.9087 74.9729C45.9795 77.5137 44.5499 79.4678 41.988 80.3408C41.7018 80.444 41.4005 80.4991 41.0963 80.504ZM37.6073 76.733C38.315 78.8196 40.2565 80.1988 41.7663 79.6854C44.0475 78.9095 45.2694 77.2487 45.2057 75.0108C45.2002 74.4201 45.053 73.8394 44.7767 73.3177C44.5004 72.7961 44.103 72.3487 43.6181 72.0134C43.1251 71.6673 42.5594 71.4395 41.9647 71.3476C41.3699 71.2557 40.7621 71.3022 40.1881 71.4834C39.1523 71.8372 38.2988 72.5887 37.815 73.5729C37.3311 74.5571 37.2565 75.6936 37.6073 76.733Z" fill="#FD4C00"/>
<path d="M21.0002 151C18.2002 156.6 18.1669 168.667 18.5002 174L56 160L61.5 113.5L61 103C57.8333 104.167 49.8 108.3 43 115.5C34.5 124.5 24.5002 144 21.0002 151Z" fill="#FFA17A"/>
<path d="M36.64 78.2681C37.3477 80.3736 39.2773 81.6203 40.7659 81.107C42.8631 80.3973 44.1228 78.8288 44.0685 76.6121C43.9907 73.8489 41.2542 72.4484 39.157 73.1628C38.6571 73.3317 38.1953 73.5978 37.798 73.946C37.4008 74.2941 37.076 74.7174 36.8422 75.1917C36.6084 75.6659 36.4701 76.1818 36.4354 76.7097C36.4007 77.2376 36.4702 77.7672 36.64 78.2681Z" fill="#FD4C00"/>
<path d="M22.0241 148.736C21.9737 148.736 21.9239 148.726 21.8778 148.706C21.7922 148.666 21.7258 148.594 21.693 148.505C21.6603 148.417 21.664 148.318 21.7033 148.232C24.5078 142.329 27.679 136.607 31.1983 131.102C36.6241 122.612 45.1307 111.23 54.9348 105.174C59.6009 102.297 62.7195 102.742 64.5029 103.624C65.502 104.138 66.3635 104.885 67.0153 105.803C67.6671 106.72 68.0902 107.78 68.2491 108.895C69.1927 117.804 64.8049 128.057 60.9502 135.072C58.4094 139.695 55.514 144.114 52.2903 148.287C52.2612 148.323 52.2252 148.353 52.1844 148.376C52.1437 148.398 52.0989 148.412 52.0527 148.417C52.0064 148.423 51.9597 148.418 51.915 148.405C51.8704 148.392 51.8288 148.37 51.7925 148.341C51.7563 148.312 51.7261 148.276 51.7038 148.235C51.6815 148.194 51.6674 148.149 51.6623 148.103C51.6573 148.057 51.6614 148.01 51.6744 147.965C51.6875 147.92 51.7092 147.878 51.7383 147.842C51.9152 147.622 69.3342 125.699 67.5437 108.971C67.4015 107.974 67.0228 107.026 66.4395 106.206C65.8562 105.387 65.0853 104.719 64.1915 104.261C61.8538 103.111 58.78 103.636 55.3075 105.779C36.7444 117.229 22.4888 148.216 22.3473 148.528C22.3191 148.59 22.2736 148.643 22.2163 148.68C22.159 148.717 22.0922 148.737 22.0241 148.736Z" fill="#35375B"/>
<path d="M77.8975 102.108C78.0036 101.85 82.1437 88.1265 82.1437 88.1265L96.3709 92.9526L92.9598 108.044L77.8975 102.108Z" fill="#F9C5AE"/>
<path d="M165.5 134.5C164.3 137.3 163 138 162.5 138L172 148.5C177.667 143.5 189.7 132.6 192.5 129C196 124.5 197 118 197.5 115C198 112 196.5 108 196 107.5C195.6 107.1 194.833 107 194.5 107L194 105L187 110.5V112C187 112.4 185.333 115.833 184.5 117.5L180 120.5C180.167 120 180.5 118.9 180.5 118.5C180.5 118 183 115 183.5 114C184 113 184.5 112.5 183 111.5C181.5 110.5 179.5 112.5 178.5 113.5C177.5 114.5 176 117 174.5 118.5C173 120 172.5 119.5 169.5 123C166.5 126.5 167 131 165.5 134.5Z" fill="#F9C5AE"/>
<path d="M88.7723 98.3911C91.4545 101.445 94.3726 101.862 94.3726 101.862L96.1324 93.9506L81.9406 88.8027C81.9406 88.8027 81.1951 91.2773 80.3506 94.0689C85.3777 96.4228 86.1278 95.3795 88.7723 98.3911Z" fill="#DDA58D"/>
<path d="M103.811 92.0441C104.488 90.4827 103.906 84.2158 103.906 84.2158L105.913 82.1198C106.015 82.0329 106.099 81.9265 106.16 81.8069C106.22 81.6872 106.256 81.5567 106.266 81.4229C106.276 81.289 106.259 81.1546 106.217 81.0273C106.175 80.9 106.107 80.7824 106.019 80.6814L101.575 76.3072L100.023 70.6294L80.5537 76.3072C80.5537 76.3072 84.7811 92.7136 91.2825 95.8387C94.3964 97.3433 102.99 93.9366 103.811 92.0441Z" fill="#F9C5AE"/>
<path d="M79.1356 90.8967C76.9087 87.1588 70.8201 82.8224 70.6266 74.1827C70.5158 69.2147 73.9411 65.853 77.8971 62.9029C86.6397 56.3877 96.7197 61.0481 96.7197 61.0481L95.9342 61.3581C99.3524 62.5102 101.733 65.4271 102.028 68.5452L101.303 68.3867C101.57 70.3502 101.02 71.1357 100.077 71.6987C98.7839 72.4628 95.0283 70.6436 94.1791 73.8279C93.5823 76.0351 96.7433 78.7202 96.439 81.3982C96.1724 83.764 94.4457 89.392 87.0643 93.2482C85.538 94.0289 80.1028 92.5172 79.1356 90.8967Z" fill="#35375B"/>
<path d="M96.7337 82.2453C97.5216 85.1599 96.7007 88.0627 94.7238 87.8001C90.2134 87.1968 85.7808 79.6761 91.8387 78.5311C94.1246 78.1005 96.0944 79.8867 96.7337 82.2453Z" fill="#F9C5AE"/>
<path d="M95.045 84.9066C94.975 84.9066 94.9067 84.886 94.8483 84.8473C94.79 84.8086 94.7444 84.7535 94.7171 84.6889C94.7171 84.6629 93.6178 82.1127 91.7494 81.6135C91.6587 81.5893 91.5813 81.53 91.5341 81.4486C91.487 81.3672 91.4741 81.2703 91.4982 81.1794C91.5223 81.0884 91.5814 81.0107 91.6626 80.9635C91.7438 80.9162 91.8403 80.9033 91.9311 80.9274C94.1367 81.5118 95.321 84.2915 95.3705 84.4098C95.393 84.4637 95.4019 84.5223 95.3964 84.5804C95.391 84.6386 95.3712 84.6945 95.339 84.7432C95.3068 84.7919 95.2631 84.8318 95.2118 84.8595C95.1605 84.8872 95.1032 84.9017 95.045 84.9019V84.9066Z" fill="#35375B"/>
<path d="M91.8388 83.4964C91.7449 83.5011 91.6531 83.4682 91.5834 83.405C91.5137 83.3418 91.4719 83.2534 91.4672 83.1593C91.4625 83.0652 91.4953 82.973 91.5584 82.9032C91.6214 82.8333 91.7096 82.7914 91.8034 82.7867L94.0256 82.5501C94.1194 82.5407 94.2132 82.5691 94.2862 82.629C94.3592 82.6889 94.4055 82.7754 94.4148 82.8695C94.4242 82.9636 94.3959 83.0576 94.3362 83.1308C94.2765 83.204 94.1902 83.2504 94.0964 83.2598L91.8765 83.4964H91.8388Z" fill="#35375B"/>
<path d="M60.3509 103.416C71.936 95.8033 95.8022 105.955 101.011 110.39C115.066 122.366 106.09 143.198 90.4638 156.995C80.7163 165.604 57.421 164.566 48.4732 156.593C38.011 147.286 47.0295 112.174 60.3509 103.416Z" fill="#FFA17A"/>
<path d="M40.2379 156.812C40.288 156.817 40.3387 156.812 40.3866 156.796C40.4515 156.776 40.509 156.737 40.5522 156.684C40.5954 156.631 40.6225 156.567 40.6302 156.499C40.6691 156.159 44.7263 122.292 58.8791 105.697C60.0002 104.383 64.2575 101.546 66.8683 101.525C70.0003 101.5 77.2692 101.485 78.0759 102.086L78.5 101.525C77.5981 100.852 71 100.824 66.9693 100.824C63.9996 101 60.6682 102.5 58.3385 105.235C50.8664 114.008 46.2636 127.452 43.7057 137.198C42.046 143.517 40.7838 149.936 39.9266 156.415C39.9156 156.509 39.9422 156.604 40.0005 156.678C40.0589 156.752 40.1443 156.801 40.2379 156.812Z" fill="#35375B"/>
<path d="M25.5 167.5C20.7 170.7 14.5 177.167 12 180L82 179C82.1667 178.167 82.4 175.5 82 171.5C81.5 166.5 78 162 76.5 160.5C75 159 69 154.5 55 155.5C41 156.5 31.5 163.5 25.5 167.5Z" fill="#35375B"/>
<path d="M78.5081 163.447C84.6887 171.987 81.2965 186.506 77.2909 200.646C76.8686 202.134 76.3968 204.414 75.9226 207H76.6421C77.1021 204.492 77.5621 202.285 77.9726 200.849C82.023 186.541 85.4483 171.838 79.0814 163.04C75.5759 158.195 69.5509 155.675 60.6621 155.332C50.1621 154.928 39.8297 157.845 29.9477 164.005C22.0568 168.914 14.4372 175.898 7.31295 184.765C4.58593 188.119 2.15142 191.505 0 194.736V196.023C2.28117 192.541 4.89968 188.86 7.85081 185.197C18.9783 171.393 37.1687 155.127 60.6268 156.033C69.2914 156.376 75.1371 158.791 78.5081 163.447Z" fill="#35375B"/>
<path d="M173.5 150.5L161.5 136.5L159 138.5L155.5 135C146.167 138.833 127 146.7 125 147.5C123 148.3 122.167 147.167 122 146.5L110.5 125.5C105 116 89.3001 106.8 86.5001 118C83.0001 132 90.5001 147.5 94.5001 155C98.5001 162.5 107 169.5 114 172C121 174.5 134.5 169 141.5 166.5C147.1 164.5 165.167 155 173.5 150.5Z" fill="#FFA17A"/>
<path d="M118.321 172.78C115.616 172.78 113.31 172.365 111.404 171.535C106.552 169.42 101.289 164.911 96.9646 159.181C91.6992 152.195 88.0003 143.691 86.2924 134.578C84.3674 124.36 84.9996 117.62 88.1796 114.549C90.1517 112.64 93.1076 112.115 96.9622 112.99C102.171 114.173 108.031 120.187 114.381 130.873C117.355 135.928 120.017 141.16 122.352 146.541C122.373 146.585 122.384 146.631 122.386 146.679C122.388 146.727 122.38 146.774 122.363 146.819C122.346 146.864 122.32 146.904 122.287 146.939C122.254 146.973 122.214 147 122.17 147.019C122.126 147.038 122.079 147.047 122.032 147.047C121.984 147.047 121.937 147.037 121.893 147.019C121.849 147 121.81 146.972 121.777 146.938C121.744 146.904 121.718 146.863 121.701 146.818C121.574 146.513 108.809 116.402 96.8065 113.681C93.1972 112.865 90.4608 113.329 88.6726 115.06C85.6814 117.956 85.1176 124.476 86.9954 134.445C88.6915 143.435 92.3362 151.845 97.5378 158.744C101.784 164.386 106.948 168.808 111.692 170.875C118.453 173.823 131.21 171.112 148.587 163.068C156.892 159.171 164.976 154.814 172.8 150.019L161.165 137.045C161.131 137.011 161.104 136.97 161.087 136.926C161.069 136.881 161.06 136.833 161.062 136.785C161.063 136.736 161.074 136.689 161.094 136.645C161.114 136.601 161.143 136.562 161.179 136.53C161.215 136.498 161.257 136.473 161.302 136.458C161.348 136.442 161.396 136.437 161.444 136.44C161.492 136.444 161.539 136.458 161.581 136.481C161.624 136.503 161.661 136.534 161.691 136.572L173.609 149.86C173.643 149.899 173.669 149.945 173.684 149.994C173.699 150.043 173.703 150.095 173.696 150.147C173.689 150.198 173.671 150.247 173.643 150.29C173.615 150.334 173.578 150.37 173.534 150.397C165.572 155.297 157.34 159.742 148.877 163.709C135.879 169.749 125.641 172.78 118.321 172.78Z" fill="#35375B"/>
<path d="M123.376 148.344C123.294 148.344 123.215 148.315 123.152 148.262C123.089 148.21 123.046 148.137 123.03 148.056C123.014 147.976 123.027 147.892 123.066 147.82C123.105 147.747 123.168 147.691 123.244 147.66L155.327 134.705C155.414 134.67 155.512 134.671 155.598 134.708C155.685 134.745 155.753 134.815 155.788 134.903C155.823 134.99 155.822 135.088 155.785 135.175C155.748 135.262 155.678 135.33 155.591 135.365L123.508 148.318C123.466 148.334 123.422 148.343 123.376 148.344Z" fill="#35375B"/>
<path d="M188.656 121.098C188.61 121.097 188.565 121.088 188.523 121.071C188.436 121.036 188.367 120.968 188.33 120.882C188.293 120.795 188.291 120.698 188.325 120.61C189.165 118.481 189.901 116.321 190.517 114.171C191.253 111.592 190.944 107.812 190.941 107.783C190.938 107.737 190.943 107.69 190.957 107.645C190.971 107.601 190.994 107.559 191.024 107.524C191.054 107.488 191.091 107.458 191.133 107.437C191.174 107.416 191.219 107.403 191.266 107.399C191.312 107.395 191.359 107.4 191.403 107.414C191.448 107.429 191.489 107.452 191.525 107.482C191.56 107.512 191.59 107.549 191.611 107.59C191.632 107.632 191.645 107.677 191.649 107.724C191.663 107.885 191.972 111.672 191.201 114.374C190.578 116.548 189.833 118.739 188.986 120.882C188.958 120.947 188.912 121.002 188.853 121.04C188.794 121.079 188.726 121.098 188.656 121.098Z" fill="#35375B"/>
<path d="M165.28 136.063H165.207C165.162 136.054 165.118 136.036 165.08 136.01C165.042 135.983 165.009 135.95 164.983 135.911C164.958 135.872 164.94 135.828 164.932 135.783C164.923 135.737 164.924 135.69 164.933 135.644C164.983 135.394 166.196 129.493 166.929 127.192C168.326 122.82 170.807 120.894 172.801 119.347C173.446 118.868 174.061 118.351 174.643 117.797C175.741 116.703 176.742 115.515 177.637 114.249C178.274 113.376 178.776 112.687 179.559 112.141C181.491 110.792 183.081 111.017 183.806 111.836C184.464 112.588 184.641 114.126 182.963 115.985C180.885 118.292 179.033 122.564 179.014 122.609C178.996 122.652 178.969 122.691 178.936 122.723C178.903 122.756 178.863 122.782 178.82 122.799C178.732 122.834 178.635 122.832 178.549 122.795C178.462 122.758 178.394 122.687 178.359 122.6C178.325 122.512 178.326 122.414 178.363 122.328C178.441 122.148 180.281 117.904 182.44 115.512C183.716 114.093 183.777 112.881 183.272 112.306C182.768 111.732 181.541 111.627 179.97 112.725C179.283 113.198 178.835 113.818 178.215 114.67C177.297 115.967 176.271 117.183 175.148 118.306C174.546 118.881 173.909 119.417 173.24 119.912C171.223 121.478 168.937 123.25 167.606 127.414C166.887 129.673 165.644 135.732 165.632 135.791C165.613 135.87 165.567 135.939 165.503 135.989C165.44 136.038 165.361 136.064 165.28 136.063Z" fill="#35375B"/>
<path d="M181.461 115.37C181.192 115.367 180.929 115.284 180.706 115.133C180.514 115.026 180.352 114.871 180.237 114.683C180.122 114.495 180.058 114.28 180.05 114.059C180.024 112.796 181.923 111.419 182.14 111.266C182.217 111.214 182.311 111.194 182.402 111.211C182.493 111.228 182.573 111.28 182.627 111.355C182.68 111.431 182.702 111.525 182.687 111.616C182.672 111.708 182.623 111.79 182.548 111.845C181.841 112.34 180.744 113.376 180.758 114.045C180.764 114.149 180.798 114.25 180.856 114.336C180.914 114.422 180.994 114.491 181.088 114.535C181.883 115.048 183.14 113.612 183.518 113.068C183.572 112.991 183.654 112.938 183.746 112.922C183.839 112.906 183.934 112.927 184.011 112.981C184.088 113.035 184.14 113.117 184.157 113.21C184.173 113.302 184.152 113.398 184.098 113.475C184.034 113.574 182.77 115.37 181.461 115.37Z" fill="#35375B"/>
<path d="M173.466 147.608C173.392 147.608 173.321 147.584 173.261 147.541C173.201 147.498 173.156 147.438 173.132 147.368C173.109 147.299 173.107 147.223 173.128 147.152C173.149 147.082 173.191 147.019 173.249 146.974C173.411 146.848 189.415 134.364 193.741 126.281C199.063 116.345 196.211 107.946 196.183 107.863C196.168 107.82 196.161 107.773 196.163 107.726C196.166 107.68 196.177 107.634 196.197 107.592C196.217 107.55 196.246 107.512 196.28 107.481C196.315 107.45 196.355 107.426 196.399 107.41C196.443 107.395 196.489 107.388 196.536 107.391C196.582 107.393 196.628 107.405 196.669 107.425C196.711 107.445 196.749 107.473 196.78 107.508C196.811 107.542 196.835 107.583 196.851 107.627C196.879 107.712 199.842 116.38 194.367 126.617C189.967 134.833 174.346 147.019 173.683 147.535C173.62 147.582 173.544 147.608 173.466 147.608Z" fill="#35375B"/>
<path d="M179.49 121.098C179.414 121.098 179.34 121.074 179.278 121.029C179.217 120.984 179.171 120.92 179.149 120.847C179.127 120.773 179.129 120.695 179.155 120.623C179.18 120.551 179.229 120.489 179.292 120.447L184.246 117.135C185.448 115.053 186.364 112.818 186.968 110.49C186.99 110.4 187.046 110.322 187.125 110.273C187.203 110.224 187.297 110.208 187.388 110.227C187.478 110.247 187.557 110.302 187.608 110.379C187.658 110.456 187.677 110.55 187.66 110.641C187.631 110.767 186.952 113.788 184.829 117.559C184.801 117.607 184.762 117.649 184.715 117.679L179.686 121.036C179.628 121.075 179.56 121.097 179.49 121.098Z" fill="#35375B"/>
<path d="M194.055 117.554C194.025 117.557 193.994 117.557 193.963 117.554C193.918 117.542 193.876 117.521 193.839 117.492C193.802 117.464 193.771 117.428 193.748 117.388C193.725 117.347 193.71 117.303 193.704 117.257C193.698 117.21 193.701 117.163 193.713 117.118C195.435 110.667 193.734 105.29 193.713 105.23C193.697 105.186 193.689 105.138 193.692 105.09C193.694 105.043 193.706 104.996 193.727 104.953C193.748 104.91 193.777 104.872 193.813 104.84C193.848 104.809 193.89 104.785 193.935 104.77C193.981 104.756 194.028 104.75 194.076 104.754C194.123 104.758 194.169 104.772 194.211 104.794C194.253 104.817 194.29 104.848 194.32 104.885C194.35 104.922 194.372 104.965 194.386 105.01C194.459 105.247 196.167 110.648 194.386 117.312C194.362 117.382 194.318 117.443 194.259 117.486C194.2 117.529 194.129 117.553 194.055 117.554Z" fill="#35375B"/>
<path d="M158.975 138.89C158.886 138.887 158.801 138.85 158.739 138.786L130.879 111.107C130.842 111.071 130.813 111.028 130.795 110.98C130.777 110.931 130.77 110.879 130.775 110.828C130.779 110.777 130.794 110.726 130.819 110.681C130.844 110.637 130.879 110.598 130.921 110.568C130.992 110.516 138.234 105.271 147.066 96.2716C155.214 87.9703 166.424 74.6866 173.556 58.5381C173.575 58.4929 173.604 58.4523 173.64 58.4189C173.676 58.3855 173.719 58.3601 173.766 58.3441C173.812 58.3285 173.861 58.3227 173.91 58.3272C173.959 58.3316 174.006 58.3463 174.049 58.3701L215.733 81.2326C215.815 81.2797 215.877 81.3568 215.905 81.4479C215.918 81.4932 215.921 81.5406 215.915 81.5873C215.91 81.634 215.895 81.6791 215.872 81.72C207.726 96.1888 186.405 111.597 186.191 111.751C186.114 111.806 186.019 111.828 185.927 111.813C185.834 111.797 185.751 111.746 185.696 111.669C185.642 111.593 185.619 111.497 185.635 111.404C185.65 111.311 185.701 111.228 185.778 111.173C185.99 111.02 206.882 95.9239 215.077 81.6821L174.03 59.1769C166.847 75.2639 155.677 88.4978 147.545 96.7921C139.749 104.732 133.186 109.766 131.652 110.908L159.017 138.086L163.818 134.713C163.855 134.682 163.899 134.66 163.946 134.647C163.992 134.634 164.041 134.631 164.089 134.638C164.137 134.644 164.183 134.661 164.224 134.686C164.266 134.712 164.301 134.745 164.329 134.785C164.357 134.825 164.376 134.87 164.386 134.917C164.396 134.965 164.396 135.014 164.386 135.062C164.376 135.109 164.356 135.154 164.329 135.194C164.301 135.233 164.265 135.267 164.223 135.292L159.18 138.841C159.118 138.878 159.046 138.895 158.975 138.89Z" fill="#35375B"/>
<path d="M197.271 94.3933C197.224 94.3933 197.177 94.3838 197.133 94.3654C197.089 94.3471 197.05 94.3201 197.017 94.2862C196.983 94.2523 196.957 94.212 196.94 94.1679C196.922 94.1237 196.914 94.0765 196.915 94.029C196.915 93.9793 197.019 88.9781 194.601 87.6983C193.553 87.1447 191.404 87.2251 189.326 87.3126C186.889 87.4096 184.372 87.5114 183.105 86.6266C182.039 85.8814 181.595 84.805 181.168 83.764C180.81 82.8934 180.461 82.0725 179.793 81.3983C179.727 81.3315 179.69 81.2414 179.69 81.1475C179.69 81.0537 179.727 80.9636 179.793 80.8968C179.826 80.8636 179.865 80.8372 179.908 80.8192C179.95 80.8013 179.996 80.792 180.043 80.792C180.09 80.792 180.136 80.8013 180.179 80.8192C180.221 80.8372 180.26 80.8636 180.293 80.8968C181.074 81.6751 181.454 82.6025 181.822 83.4991C182.23 84.488 182.612 85.4224 183.511 86.0493C184.577 86.7969 186.976 86.7023 189.297 86.6077C191.569 86.5178 193.714 86.4326 194.931 87.0808C197.738 88.5665 197.629 93.835 197.622 94.0574C197.618 94.148 197.579 94.2334 197.514 94.296C197.448 94.3585 197.361 94.3934 197.271 94.3933Z" fill="#FD4C00"/>
<path d="M186.058 103.664C186.036 103.667 186.013 103.667 185.99 103.664C185.898 103.646 185.817 103.592 185.765 103.514C185.713 103.436 185.694 103.34 185.712 103.248C185.948 102.011 186.349 98.5165 185.322 97.2201C185.209 97.0688 185.062 96.9458 184.894 96.8605C184.725 96.7752 184.539 96.7298 184.35 96.728C179.092 96.5364 177.906 95.9662 177.408 95.3772C177.035 94.9395 177.096 94.4569 177.144 94.0689C177.203 93.5958 177.238 93.3072 176.733 92.9854C176.228 92.6637 175.398 92.8435 174.49 93.0162C173.287 93.2527 171.921 93.5082 170.909 92.7536C170.187 92.2142 169.765 91.2537 169.616 89.813C169.608 89.7604 169.589 89.7101 169.561 89.6653C169.532 89.6205 169.495 89.5822 169.451 89.5527C168.477 88.7697 164.688 89.0181 163.317 89.1813C163.271 89.1867 163.224 89.1829 163.179 89.1701C163.134 89.1573 163.092 89.1358 163.055 89.1066C163.018 89.0775 162.988 89.0415 162.965 89.0005C162.942 88.9595 162.928 88.9144 162.922 88.8678C162.917 88.8212 162.921 88.774 162.933 88.7289C162.946 88.6838 162.968 88.6416 162.997 88.6048C163.026 88.568 163.062 88.5373 163.103 88.5144C163.143 88.4916 163.188 88.477 163.235 88.4716C163.773 88.4077 168.521 87.8849 169.899 88.9944C170.016 89.0816 170.115 89.1922 170.187 89.3192C170.26 89.4462 170.306 89.5869 170.321 89.7325C170.449 90.9651 170.779 91.7623 171.333 92.1763C172.095 92.7465 173.247 92.5265 174.36 92.3135C175.41 92.1101 176.401 91.9208 177.118 92.3798C177.998 92.9428 177.913 93.6407 177.849 94.1494C177.804 94.5089 177.788 94.7195 177.948 94.9111C178.458 95.512 180.562 95.8716 184.376 96.0112C184.668 96.0162 184.955 96.0873 185.216 96.2192C185.477 96.3511 185.704 96.5404 185.881 96.773C187.318 98.5899 186.445 103.182 186.408 103.378C186.391 103.459 186.347 103.532 186.284 103.584C186.22 103.636 186.141 103.664 186.058 103.664Z" fill="#FD4C00"/>
<path d="M168.8 117.918C168.775 117.921 168.749 117.921 168.724 117.918C168.633 117.898 168.553 117.842 168.502 117.763C168.451 117.683 168.433 117.587 168.453 117.495C168.715 116.295 169.184 112.943 168.241 111.869C168.134 111.747 167.999 111.655 167.847 111.6C167.695 111.545 167.532 111.529 167.373 111.554C164.148 111.845 162.461 111.607 161.907 110.778C161.416 110.047 161.89 109.122 162.346 108.245C162.883 107.199 163.174 106.534 162.657 106.142C162.216 105.808 161.44 106.142 160.621 106.506C159.602 106.951 158.448 107.452 157.436 106.887C156.493 106.357 155.913 105.042 155.601 102.742C155.588 102.621 155.546 102.506 155.48 102.404C155.413 102.303 155.324 102.218 155.219 102.158C154.039 101.417 150.737 102.238 149.557 102.617C149.512 102.634 149.464 102.642 149.416 102.641C149.368 102.639 149.321 102.627 149.277 102.606C149.234 102.586 149.195 102.556 149.163 102.52C149.131 102.484 149.107 102.441 149.092 102.395C149.077 102.349 149.072 102.3 149.077 102.252C149.081 102.204 149.096 102.157 149.119 102.115C149.142 102.073 149.174 102.036 149.212 102.006C149.25 101.976 149.294 101.955 149.34 101.942C149.812 101.791 153.919 100.506 155.585 101.557C155.777 101.673 155.941 101.832 156.063 102.021C156.186 102.21 156.264 102.424 156.292 102.647C156.566 104.649 157.064 105.867 157.774 106.269C158.484 106.672 159.425 106.253 160.329 105.855C161.298 105.432 162.303 104.992 163.075 105.576C164.105 106.357 163.473 107.585 162.966 108.571C162.603 109.281 162.228 109.991 162.494 110.383C162.761 110.776 163.801 111.164 167.309 110.857C167.579 110.822 167.854 110.855 168.109 110.951C168.364 111.048 168.591 111.205 168.772 111.41C170.121 112.946 169.243 117.178 169.144 117.656C169.124 117.732 169.08 117.799 169.017 117.846C168.955 117.894 168.878 117.919 168.8 117.918Z" fill="#FD4C00"/>
<path d="M162.114 131.339C162.084 131.342 162.053 131.342 162.022 131.339C161.977 131.327 161.935 131.306 161.898 131.277C161.862 131.249 161.831 131.214 161.807 131.173C161.784 131.133 161.769 131.088 161.763 131.042C161.757 130.995 161.76 130.948 161.772 130.903C162.48 128.266 162.419 126.3 161.586 124.894C160.496 123.056 158.194 122.507 156.347 122.056C155.297 121.805 154.391 121.582 153.801 121.183C151.06 119.307 150.834 116.979 150.652 115.105C150.52 113.771 150.416 112.616 149.451 111.883C147.8 110.62 141.346 109.768 141.28 109.754C141.233 109.748 141.188 109.732 141.148 109.709C141.107 109.686 141.071 109.654 141.043 109.617C141.014 109.58 140.993 109.537 140.981 109.492C140.969 109.447 140.966 109.399 140.972 109.353C140.978 109.306 140.993 109.261 141.016 109.22C141.04 109.18 141.071 109.144 141.108 109.115C141.145 109.087 141.187 109.066 141.233 109.053C141.278 109.041 141.325 109.038 141.372 109.044C141.645 109.079 148.083 109.929 149.881 111.308C151.084 112.228 151.216 113.586 151.355 115.025C151.532 116.839 151.732 118.897 154.2 120.586C154.672 120.915 155.53 121.119 156.509 121.353C158.489 121.826 160.951 122.415 162.195 124.509C163.138 126.089 163.216 128.233 162.456 131.067C162.438 131.144 162.394 131.212 162.332 131.261C162.27 131.311 162.193 131.338 162.114 131.339Z" fill="#FD4C00"/>
<path d="M178.634 109.141H178.59C178.497 109.129 178.412 109.08 178.355 109.006C178.297 108.931 178.272 108.837 178.283 108.744C178.863 104.206 174.579 103.364 171.135 102.685C169.826 102.427 168.694 102.212 168.047 101.793C167 101.121 166.243 99.7894 165.509 98.5001C164.933 97.4875 164.388 96.5294 163.754 95.964C162.638 94.968 159.383 94.9799 158.222 95.0674C158.175 95.071 158.129 95.0653 158.084 95.0508C158.04 95.0363 157.999 95.0131 157.964 94.9827C157.928 94.9523 157.899 94.9152 157.878 94.8735C157.857 94.8318 157.844 94.7863 157.841 94.7397C157.837 94.6931 157.843 94.6463 157.857 94.6019C157.872 94.5574 157.895 94.5163 157.925 94.4808C157.956 94.4454 157.993 94.4162 158.034 94.3951C158.076 94.374 158.121 94.3612 158.168 94.3577C158.349 94.3435 162.65 94.0336 164.223 95.4317C164.945 96.0728 165.518 97.0877 166.125 98.1476C166.813 99.3612 167.528 100.615 168.429 101.192C168.96 101.533 170.031 101.743 171.26 101.987C174.596 102.642 179.639 103.643 178.974 108.831C178.964 108.915 178.923 108.992 178.861 109.049C178.799 109.106 178.719 109.138 178.634 109.141Z" fill="#FD4C00"/>
<path d="M174.081 84.5517C173.994 84.5507 173.91 84.5179 173.845 84.4594L169.257 80.2697C169.195 80.2131 169.154 80.136 169.144 80.0523C169.133 79.9686 169.152 79.8838 169.198 79.8131L175.402 70.2839C175.453 70.2054 175.533 70.1503 175.625 70.1308C175.716 70.1113 175.812 70.1289 175.89 70.1798L182.095 74.1827C182.136 74.2092 182.171 74.2439 182.198 74.2846C182.225 74.3253 182.244 74.3711 182.253 74.4192C182.261 74.4685 182.258 74.5189 182.245 74.567C182.232 74.6151 182.209 74.6599 182.177 74.6984L174.357 84.4121C174.327 84.4495 174.289 84.4804 174.246 84.5031C174.204 84.5259 174.157 84.54 174.109 84.5446L174.081 84.5517ZM169.955 79.948L174.043 83.6811L181.38 74.5659L175.803 70.9724L169.955 79.948Z" fill="#FD4C00"/>
<path d="M97.9176 77.5966H97.8657C97.8197 77.5896 97.7755 77.5737 97.7356 77.5496C97.6958 77.5255 97.661 77.4937 97.6334 77.4561C97.6058 77.4186 97.5859 77.3759 97.5747 77.3306C97.5636 77.2852 97.5615 77.2382 97.5685 77.192C97.5685 77.1116 97.8846 75.2308 99.5218 74.5897C99.5651 74.5729 99.6114 74.5649 99.6579 74.566C99.7043 74.5672 99.7501 74.5775 99.7926 74.5964C99.8351 74.6153 99.8735 74.6424 99.9055 74.6761C99.9376 74.7099 99.9627 74.7497 99.9794 74.7932C99.9962 74.8367 100.004 74.883 100.003 74.9296C100.002 74.9762 99.9916 75.0222 99.9728 75.0648C99.9539 75.1074 99.9269 75.1459 99.8932 75.178C99.8596 75.2102 99.8199 75.2353 99.7765 75.2521C98.5192 75.7395 98.2715 77.2772 98.2691 77.2914C98.2563 77.3758 98.2138 77.4529 98.1494 77.5088C98.085 77.5648 98.0028 77.5959 97.9176 77.5966Z" fill="#35375B"/>
<path d="M96.5736 76.4419C96.5393 76.4416 96.5052 76.4369 96.4722 76.4277C96.3828 76.3998 96.3079 76.3378 96.2638 76.255C96.2196 76.1722 96.2098 76.0753 96.2363 75.9853C96.2788 75.8433 97.2955 72.4934 99.5696 73.0589C99.6162 73.0685 99.6604 73.0875 99.6996 73.1147C99.7387 73.1419 99.772 73.1768 99.7973 73.2172C99.8227 73.2576 99.8397 73.3027 99.8473 73.3499C99.8549 73.397 99.8529 73.4452 99.8415 73.4916C99.83 73.538 99.8094 73.5815 99.7807 73.6197C99.7521 73.6579 99.7161 73.6898 99.6749 73.7137C99.6336 73.7376 99.588 73.7529 99.5407 73.7586C99.4934 73.7644 99.4455 73.7605 99.3997 73.7473C97.7791 73.3451 96.9228 76.158 96.9157 76.1864C96.8941 76.2605 96.8491 76.3255 96.7874 76.3716C96.7256 76.4177 96.6506 76.4424 96.5736 76.4419Z" fill="#35375B"/>
<path d="M99.7538 76.4397C99.7538 76.7898 99.5745 77.0737 99.3551 77.0737C99.1357 77.0737 98.9541 76.7898 98.9541 76.4397C98.9541 76.0896 99.1334 75.8057 99.3551 75.8057C99.5769 75.8057 99.7538 76.0896 99.7538 76.4397Z" fill="#35375B"/>
<path d="M101.164 86.8013C100.629 86.5648 100.301 86.1224 100.435 85.8219C100.57 85.5215 101.112 85.4718 101.648 85.7107C102.183 85.9497 102.511 86.3897 102.379 86.6901C102.247 86.9906 101.702 87.0403 101.164 86.8013Z" fill="#35375B"/>
<path d="M56.3312 85.7227C51.3962 85.7227 45.9751 81.2278 45.7274 81.0291C45.6917 80.9992 45.6621 80.9626 45.6404 80.9213C45.6187 80.8801 45.6054 80.8349 45.6011 80.7884C45.5968 80.742 45.6017 80.6951 45.6155 80.6506C45.6293 80.606 45.6517 80.5646 45.6814 80.5287C45.7112 80.4928 45.7477 80.4632 45.7888 80.4414C45.83 80.4197 45.875 80.4063 45.9214 80.402C45.9677 80.3977 46.0144 80.4026 46.0589 80.4165C46.1033 80.4303 46.1446 80.4527 46.1804 80.4826C46.2441 80.537 52.5497 85.7558 57.4518 84.9207C59.1031 84.6368 60.4359 83.6763 61.3937 82.0653C63.8353 77.9654 62.1014 73.5722 60.2755 68.9212C58.2585 63.7994 56.1755 58.512 60.0396 53.5652C61.1766 52.115 63.0379 52.5054 65.0101 52.9194C67.1591 53.3689 69.379 53.8349 71.0609 52.1529C71.5068 51.7081 71.2803 50.97 70.8722 49.8037C70.3131 48.2044 69.6196 46.2149 71.5139 44.5423C72.8679 43.3429 76.0597 44.7954 78.624 45.9617C79.6407 46.4349 80.9051 47.0003 81.1882 46.9435C82.153 46.6927 82.0776 45.5714 81.8369 43.7545C81.6152 42.0985 81.3651 40.2059 82.9763 39.7327C84.3304 39.3258 86.1185 40.5087 87.8501 41.6537C89.1522 42.5125 90.4969 43.4044 91.1527 43.2175C91.2334 43.1916 91.3071 43.1478 91.3684 43.0892C91.4297 43.0306 91.477 42.9588 91.5065 42.8792C93.1413 39.4205 96.5195 37.7148 101.023 38.072C109.638 38.7581 121.464 47.1493 124.658 58.098C126.481 64.3506 126.168 73.6976 114.304 82.7016C114.229 82.7544 114.137 82.776 114.046 82.7618C113.956 82.7475 113.874 82.6987 113.819 82.6254C113.763 82.5522 113.739 82.4602 113.749 82.369C113.76 82.2778 113.806 82.1943 113.877 82.1362C125.417 73.3664 125.741 64.3269 123.978 58.2872C120.867 47.6154 109.353 39.437 100.966 38.7699C98.0033 38.5333 94.0684 39.1082 92.1458 43.1725C92.0727 43.3433 91.9626 43.4956 91.8234 43.6184C91.6843 43.7411 91.5196 43.8313 91.3414 43.8822C90.3648 44.1543 89.0131 43.2624 87.4467 42.2262C85.9275 41.2208 84.2054 40.0829 83.1674 40.3928C82.2073 40.6814 82.2899 41.869 82.5258 43.648C82.7475 45.304 82.9976 47.1966 81.3463 47.6154C80.8745 47.7408 79.9757 47.3504 78.3126 46.5934C76.1894 45.6258 72.9717 44.1661 71.9621 45.0604C70.4264 46.4183 70.9831 48.0128 71.5209 49.5553C71.9338 50.7381 72.3254 51.8595 71.5422 52.6426C69.5889 54.5943 67.06 54.062 64.8473 53.5889C63.0214 53.2056 61.4432 52.8791 60.5775 53.9792C56.9611 58.5971 58.879 63.4729 60.9124 68.6468C62.7242 73.2529 64.5996 78.0151 61.9811 82.4154C60.9313 84.2204 59.4475 85.3016 57.5603 85.621C57.1541 85.6888 56.743 85.7229 56.3312 85.7227Z" fill="#35375B"/>
<path d="M113.591 152.753C113.51 152.753 113.432 152.725 113.369 152.674C113.306 152.623 113.262 152.552 113.246 152.472C113.229 152.393 113.24 152.31 113.276 152.238C113.313 152.165 113.374 152.108 113.448 152.074L119.975 149.186C117.68 149.212 114.049 148.777 111.879 146.089C111.85 146.053 111.828 146.011 111.814 145.967C111.801 145.922 111.797 145.875 111.802 145.829C111.807 145.782 111.82 145.738 111.843 145.697C111.865 145.656 111.895 145.619 111.931 145.59C111.967 145.561 112.008 145.539 112.053 145.525C112.097 145.512 112.144 145.508 112.19 145.513C112.237 145.517 112.281 145.531 112.322 145.554C112.363 145.576 112.399 145.606 112.428 145.642C115.457 149.394 121.895 148.332 121.961 148.318C122.046 148.303 122.134 148.32 122.207 148.366C122.28 148.411 122.335 148.482 122.36 148.565C122.384 148.648 122.378 148.737 122.342 148.816C122.306 148.894 122.243 148.957 122.164 148.992L113.733 152.723C113.689 152.743 113.64 152.754 113.591 152.753Z" fill="#35375B"/>
</g>
<defs>
<clipPath id="clip0_298_10764">
<rect width="225" height="178" fill="white"/>
</clipPath>
</defs>
</svg>
