<svg width="206" height="133" viewBox="0 0 206 133" fill="none" xmlns="http://www.w3.org/2000/svg">
<g clip-path="url(#clip0_298_10615)">
<path d="M10.5125 29.394C10.5125 29.394 10.6814 34.9763 14.934 42.8393C19.4154 51.1318 23.5659 58.3683 23.5659 58.3683C23.5659 58.3683 36.827 65.3267 68.8762 53.9088L53.9605 41.171C20.0631 45.4017 10.5125 29.394 10.5125 29.394Z" fill="#E4E4E4"/>
<path d="M36.5203 60.6106C27.642 60.6106 23.5549 58.5656 23.495 58.5269C23.4648 58.5101 23.4394 58.4859 23.4211 58.4565C23.3824 58.3861 19.2214 51.1215 14.7892 42.9205C10.5648 35.1138 10.3466 29.4577 10.3466 29.4014C10.345 29.3621 10.3566 29.3234 10.3796 29.2915C10.4026 29.2596 10.4356 29.2363 10.4733 29.2254C10.5107 29.2155 10.5502 29.2176 10.5862 29.2315C10.6223 29.2454 10.653 29.2704 10.674 29.3028C10.6951 29.345 13.1382 33.3188 19.6438 36.7259C25.6671 39.8936 36.5097 43.174 53.9636 40.9953C53.9881 40.9925 54.013 40.9948 54.0366 41.0021C54.0602 41.0093 54.0821 41.0214 54.1009 41.0375L68.9919 53.7753C69.0152 53.7954 69.033 53.8212 69.0435 53.8502C69.0539 53.8792 69.0568 53.9103 69.0517 53.9407C69.045 53.9709 69.0308 53.9989 69.0105 54.0223C68.9903 54.0456 68.9645 54.0636 68.9356 54.0745C54.5409 59.2027 43.8813 60.6106 36.5203 60.6106ZM23.6851 58.2348C24.5547 58.6536 38.0481 64.6371 68.5237 53.8457L53.9108 41.3543C36.3936 43.5259 25.4981 40.1998 19.4361 37.025C14.2894 34.3219 11.6561 31.2598 10.7409 30.0525C10.9274 31.7349 11.7301 36.5604 15.0885 42.7727C19.3305 50.6076 23.3331 57.5977 23.6851 58.2348Z" fill="#35375B"/>
<path d="M27.0088 55.8626C26.9813 55.8632 26.9542 55.8571 26.9296 55.8448C26.9051 55.8326 26.8839 55.8145 26.8679 55.7922C26.5582 55.3734 19.3062 45.4901 19.3661 39.2496C19.3679 39.2038 19.3871 39.1605 19.4198 39.1284C19.4526 39.0964 19.4963 39.078 19.5421 39.0771C19.5888 39.0771 19.6336 39.0957 19.6666 39.1287C19.6996 39.1617 19.7181 39.2065 19.7181 39.2531C19.6618 45.3704 27.0756 55.479 27.1496 55.5811C27.1696 55.6069 27.1818 55.6378 27.1849 55.6703C27.1881 55.7028 27.1819 55.7355 27.1671 55.7646C27.1524 55.7937 27.1297 55.8181 27.1016 55.8348C27.0736 55.8515 27.0414 55.86 27.0088 55.8591V55.8626Z" fill="#FD4C00"/>
<path d="M34.8378 58.231C34.8049 58.2307 34.7728 58.2213 34.7448 58.2039C34.7169 58.1865 34.6943 58.1618 34.6794 58.1325L34.4013 57.7031C28.9659 49.4106 26.8784 45.1201 26.0828 42.9872C26.0722 42.9452 26.0774 42.9009 26.0974 42.8625C26.1175 42.8242 26.1509 42.7946 26.1914 42.7793C26.2319 42.7641 26.2766 42.7643 26.3169 42.7799C26.3573 42.7955 26.3905 42.8255 26.4101 42.864C27.2022 44.9758 29.2828 49.2382 34.6935 57.5095C34.8089 57.6633 34.9125 57.8257 35.0033 57.9952C35.0192 58.0391 35.0169 58.0874 34.9971 58.1297C34.9773 58.1719 34.9415 58.2046 34.8977 58.2205C34.8785 58.2273 34.8582 58.2309 34.8378 58.231Z" fill="#FD4C00"/>
<path d="M42.3923 58.1185C42.3694 58.1193 42.3467 58.1152 42.3255 58.1068C42.3043 58.0983 42.2851 58.0855 42.269 58.0692C42.1986 58.0024 35.07 51.1354 33.1162 43.9693C33.1041 43.9226 33.111 43.873 33.1354 43.8314C33.1598 43.7899 33.1998 43.7597 33.2465 43.7476C33.2931 43.7354 33.3427 43.7423 33.3843 43.7667C33.4259 43.7912 33.4561 43.8311 33.4682 43.8778C35.3903 50.9489 42.4486 57.7489 42.519 57.8158C42.5441 57.84 42.5615 57.8711 42.5689 57.9052C42.5763 57.9393 42.5734 57.9748 42.5606 58.0072C42.5477 58.0397 42.5256 58.0676 42.4968 58.0874C42.4681 58.1072 42.4342 58.118 42.3993 58.1185H42.3923Z" fill="#FD4C00"/>
<path d="M49.3623 56.0982C49.3259 56.098 49.2903 56.087 49.2602 56.0665C45.3988 52.933 42.3688 48.8966 40.4383 44.3142C40.4206 44.2707 40.4206 44.2221 40.4384 44.1787C40.4562 44.1352 40.4902 44.1005 40.5333 44.0819C40.5763 44.0644 40.6244 44.0645 40.6673 44.0823C40.7101 44.1001 40.7442 44.1341 40.7621 44.1769C42.6664 48.7035 45.6549 52.6923 49.4644 55.7919C49.4834 55.8053 49.4996 55.8223 49.5121 55.8419C49.5245 55.8615 49.5329 55.8834 49.5369 55.9063C49.5408 55.9292 49.5401 55.9527 49.535 55.9754C49.5298 55.998 49.5201 56.0194 49.5066 56.0383C49.4886 56.0585 49.4663 56.0744 49.4413 56.0848C49.4163 56.0951 49.3893 56.0997 49.3623 56.0982Z" fill="#FD4C00"/>
<path d="M60.8776 55.1376C60.855 55.1376 60.8327 55.1329 60.8121 55.1238C60.7915 55.1147 60.773 55.1014 60.7579 55.0848C60.7262 55.0602 57.8501 52.269 54.9563 50.0551C52.1612 47.8976 49.5174 43.6634 49.4928 43.6211C49.468 43.5814 49.4601 43.5336 49.4706 43.488C49.4812 43.4425 49.5094 43.403 49.5491 43.3783C49.5888 43.3535 49.6367 43.3456 49.6822 43.3561C49.7278 43.3667 49.7673 43.3949 49.792 43.4346C49.8166 43.4768 52.4252 47.6582 55.1711 49.7701C58.0789 52.0121 60.9726 54.7997 61.0008 54.8279C61.0172 54.8439 61.0302 54.8631 61.0391 54.8842C61.048 54.9054 61.0526 54.9281 61.0526 54.9511C61.0526 54.974 61.048 54.9967 61.0391 55.0179C61.0302 55.039 61.0172 55.0582 61.0008 55.0743C60.9696 55.1107 60.9254 55.1334 60.8776 55.1376Z" fill="#FD4C00"/>
<path d="M117.988 46.3838C112.542 58.0727 112.046 64.1935 112.046 64.1935L89.4242 66.1082L88.5723 84.0587C88.5406 84.9175 127.701 89.5108 130.563 76.3154C133.097 64.6194 137.251 55.2429 132.967 41.1957C130.418 32.7731 124.195 33.0687 117.988 46.3838Z" fill="#D0CECE"/>
<path d="M104.607 85.6993C100.419 85.7043 96.2341 85.4587 92.0751 84.9637C88.3963 84.4955 88.4069 84.221 88.4104 84.0591L89.2623 66.1086C89.2638 66.066 89.2807 66.0255 89.3098 65.9944C89.3389 65.9633 89.3783 65.9439 89.4207 65.9396L111.898 64.039C112.018 63.0253 112.894 56.9151 117.83 46.3173C121.23 39.0174 124.87 35.1211 128.106 35.3499C130.267 35.5012 132.059 37.5673 133.15 41.1609C136.642 52.6457 134.516 61.1 132.263 70.0507C131.749 72.0886 131.207 74.2004 130.749 76.3861C129.123 83.862 115.876 85.6993 104.607 85.6993ZM88.766 83.9993C90.0403 84.6434 110.993 87.2515 122.962 82.9785C127.271 81.4404 129.774 79.1913 130.404 76.2911C130.876 74.1159 131.408 72.0041 131.922 69.9556C134.164 61.0508 136.28 52.6457 132.816 41.2524C131.76 37.8066 130.084 35.8321 128.081 35.6913C125.004 35.4731 121.484 39.299 118.15 46.4545C112.785 57.971 112.24 64.1446 112.236 64.2044C112.232 64.246 112.214 64.285 112.184 64.3145C112.155 64.3441 112.116 64.3624 112.074 64.3663L89.6038 66.267L88.766 83.9993Z" fill="#35375B"/>
<path d="M89.5788 71.1518C89.5788 71.1518 83.6364 65.5027 81.306 64.4222C79.8978 63.771 73.2091 61.7754 73.0296 63.4789C72.8008 65.8406 78.4756 67.9348 77.7152 69.1597C76.8351 70.5676 75.9937 70.015 74.5891 69.1597C70.509 66.6748 72.234 59.7058 70.0725 60.1668C67.4499 60.723 66.5909 67.7659 67.045 71.3525C67.7913 77.2304 69.5691 78.7438 72.498 80.4263C76.2613 82.5768 88.5861 84.0656 88.5861 84.0656L89.5788 71.1518Z" fill="#7E75FC"/>
<path d="M86.5375 64.669L93.4866 64.2959C93.7827 64.2956 94.0713 64.3887 94.3115 64.5618C94.5516 64.7349 94.7311 64.9794 94.8244 65.2603C96.1058 68.5547 99.6578 79.1772 95.5284 86.8396C95.4094 87.076 95.2242 87.2726 94.9955 87.4057C94.7668 87.5388 94.5043 87.6026 94.24 87.5893L86.9916 87.1458C86.1714 87.0966 85.5835 86.1779 85.7454 85.2628C87.3155 77.3259 86.0693 69.9837 85.2948 66.6471C85.0836 65.658 85.6679 64.7183 86.5375 64.669Z" fill="white"/>
<path d="M94.289 87.7757H94.1939L86.9984 87.3357C86.7901 87.319 86.588 87.2576 86.4057 87.1555C86.2234 87.0534 86.0653 86.9132 85.9423 86.7444C85.782 86.533 85.6679 86.2903 85.6073 86.0321C85.5466 85.7738 85.5408 85.5057 85.5903 85.245C87.1322 77.4524 85.9705 70.2828 85.1397 66.7032C85.0738 66.4296 85.0673 66.1451 85.1208 65.8689C85.1742 65.5926 85.2863 65.331 85.4495 65.1017C85.5746 64.9291 85.7364 64.7862 85.9232 64.6834C86.1101 64.5806 86.3173 64.5203 86.5302 64.5069V64.6829V64.5069L93.4687 64.1338C93.8055 64.1318 94.1342 64.2372 94.4071 64.4347C94.6799 64.6321 94.8827 64.9114 94.986 65.232C98.9921 75.77 97.5804 82.8059 95.69 86.85C95.5717 87.1237 95.3762 87.357 95.1274 87.5214C94.8785 87.6858 94.5872 87.7742 94.289 87.7757ZM86.5443 64.8554C86.3831 64.8661 86.2262 64.9124 86.085 64.9909C85.9438 65.0694 85.8218 65.1782 85.7276 65.3094C85.5947 65.4971 85.5039 65.7112 85.4614 65.9372C85.4188 66.1631 85.4256 66.3956 85.4811 66.6187C86.3154 70.2264 87.4842 77.4524 85.9317 85.3084C85.8904 85.5198 85.8941 85.7375 85.9426 85.9473C85.9911 86.1572 86.0834 86.3544 86.2134 86.5262C86.3062 86.6555 86.4261 86.7631 86.5647 86.8415C86.7033 86.9199 86.8573 86.9673 87.016 86.9803L94.215 87.4237C94.4587 87.4363 94.7004 87.3738 94.9074 87.2448C95.1145 87.1158 95.2771 86.9264 95.3732 86.7022C97.232 82.7179 98.619 75.7911 94.6692 65.3587C94.5916 65.1077 94.4362 64.8879 94.2254 64.731C94.0147 64.5741 93.7596 64.4882 93.4969 64.4858L86.5583 64.8589L86.5443 64.8554Z" fill="#35375B"/>
<path d="M115.827 64.0703L112.046 64.1937L115.827 64.0703Z" fill="white"/>
<path d="M112.045 64.3702C111.999 64.3702 111.954 64.3516 111.921 64.3186C111.888 64.2855 111.869 64.2407 111.869 64.194C111.869 64.1473 111.888 64.1025 111.921 64.0694C111.954 64.0364 111.999 64.0178 112.045 64.0178L115.812 63.8945C115.859 63.8945 115.904 63.9131 115.937 63.9461C115.97 63.9792 115.988 64.024 115.988 64.0707C115.988 64.1174 115.97 64.1622 115.937 64.1953C115.904 64.2283 115.859 64.2469 115.812 64.2469L112.045 64.3702Z" fill="#35375B"/>
<path d="M123.184 81.919C120.97 80.6941 119.266 68.6743 119.266 68.6743C119.266 68.6743 118.4 41.8014 125.778 35.8777C131.583 31.2211 159.598 30.5559 167.572 36.3106C174.155 41.0587 172.715 54.9897 172.803 63.1097C172.842 66.7702 171.099 81.7817 171.099 81.7817C171.099 81.7817 143.824 93.3229 123.184 81.919Z" fill="#D0CECE"/>
<path d="M144.69 87.1142C137.776 87.1142 130.059 85.9175 123.096 82.0704C120.836 80.8209 119.164 69.1918 119.093 68.6955C119.055 67.5727 118.273 41.5938 125.669 35.737C131.988 30.7249 159.391 30.0069 167.614 35.9411C167.633 35.9545 167.649 35.9714 167.662 35.9911C167.674 36.0107 167.683 36.0326 167.687 36.0555C167.691 36.0784 167.69 36.1019 167.685 36.1245C167.68 36.1472 167.67 36.1686 167.656 36.1875C167.628 36.2246 167.587 36.2494 167.541 36.2566C167.495 36.2639 167.448 36.253 167.41 36.2262C159.264 30.3483 132.14 31.0522 125.888 36.0115C118.629 41.7733 119.438 68.4175 119.438 68.6674C120.023 72.7749 121.575 80.8315 123.265 81.7642C142.979 92.6753 169.149 82.3837 170.934 81.6586C171.085 80.3246 172.659 66.5591 172.624 63.1097C172.623 63.0867 172.626 63.0637 172.635 63.0421C172.643 63.0205 172.656 63.0009 172.672 62.9844C172.688 62.9679 172.707 62.9549 172.729 62.9462C172.75 62.9375 172.773 62.9333 172.796 62.9338C172.842 62.9337 172.887 62.9517 172.921 62.9838C172.954 63.016 172.974 63.0599 172.976 63.1062C173.011 66.735 171.289 81.6516 171.272 81.8029C171.268 81.8336 171.256 81.8627 171.238 81.8875C171.219 81.9122 171.195 81.9316 171.166 81.9437C165.923 83.989 160.47 85.4503 154.906 86.3011C151.526 86.8329 148.111 87.1047 144.69 87.1142Z" fill="#35375B"/>
<path d="M133.432 31.9425C133.587 30.2108 134.168 28.9789 136.051 28.3137C138.441 27.4689 143.658 27.4936 146.101 28.1623C148.309 28.7642 149.389 29.3696 150.558 31.1963C151.572 32.7802 151.523 35.9409 151.523 35.9409L134.576 37.3804C134.576 37.3804 133.34 33.0054 133.432 31.9425Z" fill="#35375B"/>
<path d="M138.336 37.3804C138.336 37.3804 137.512 53.8104 137.512 61.4024C137.512 67.1817 138.568 84.0024 138.568 84.0024H140.448C140.448 84.0024 140.976 65.1333 140.948 58.474C140.927 53.476 140.279 37.3804 140.279 37.3804H138.336Z" fill="#FD4C00"/>
<path d="M140.722 77.5999C140.699 77.5999 140.676 77.5952 140.654 77.5862C140.632 77.5771 140.613 77.5638 140.596 77.5471C140.58 77.5304 140.567 77.5106 140.559 77.4888C140.55 77.467 140.546 77.4438 140.546 77.4204C140.546 77.2585 141.001 61.1558 140.972 54.574C140.972 54.551 140.976 54.5282 140.985 54.5069C140.993 54.4856 141.006 54.4661 141.022 54.4497C141.038 54.4333 141.057 54.4203 141.078 54.4114C141.099 54.4026 141.122 54.398 141.145 54.398C141.169 54.3975 141.192 54.4017 141.214 54.4104C141.235 54.419 141.255 54.4319 141.272 54.4483C141.289 54.4647 141.302 54.4842 141.311 54.5058C141.32 54.5274 141.325 54.5506 141.325 54.574C141.353 61.1593 140.902 77.2655 140.898 77.4309C140.897 77.4764 140.877 77.5194 140.844 77.5509C140.812 77.5824 140.768 77.5999 140.722 77.5999Z" fill="white"/>
<path d="M138.012 79.4938C137.967 79.4931 137.924 79.4757 137.892 79.4451C137.859 79.4145 137.839 79.3729 137.836 79.3284C137.836 79.2263 137.184 69.0508 137.184 63.3313C137.184 55.8238 137.751 45.2999 137.758 45.1943C137.762 45.1485 137.783 45.1059 137.817 45.0751C137.851 45.0444 137.895 45.0278 137.941 45.0289C137.964 45.0302 137.987 45.0361 138.008 45.0462C138.029 45.0563 138.047 45.0704 138.063 45.0878C138.078 45.1051 138.09 45.1253 138.097 45.1472C138.105 45.1691 138.108 45.1923 138.107 45.2154C138.107 45.321 137.536 55.8308 137.536 63.3313C137.536 69.0403 138.181 79.2052 138.188 79.3037C138.19 79.3271 138.187 79.3507 138.179 79.373C138.172 79.3953 138.16 79.4159 138.145 79.4336C138.13 79.4514 138.111 79.4658 138.09 79.4761C138.069 79.4865 138.046 79.4925 138.022 79.4938H138.012Z" fill="#35375B"/>
<path d="M133.904 18.293C132.231 14.1327 133.819 11.3662 136.29 9.75771C137.822 8.76164 151.238 16.6775 151.723 18.469C153.093 23.4846 148.823 27.9511 144.25 28.6057C140.765 29.102 135.199 27.3668 133.615 22.4463C133.059 20.711 133.904 18.293 133.904 18.293Z" fill="#35375B"/>
<path d="M143.081 28.8594C139.663 28.8594 134.911 27.0467 133.45 22.4993C132.922 20.8661 133.583 18.7015 133.717 18.2967C131.781 13.4079 134.421 10.7575 136.181 9.6101C136.407 9.46227 136.885 9.3426 138.6 9.9867C142.824 11.5952 151.467 16.9065 151.879 18.434C152.156 19.4779 152.206 20.5694 152.023 21.6342C151.841 22.6989 151.432 23.7118 150.823 24.6041C150.073 25.7168 149.102 26.6629 147.97 27.383C146.837 28.1031 145.569 28.5818 144.243 28.789C143.858 28.839 143.47 28.8625 143.081 28.8594ZM136.688 9.84592C136.588 9.83683 136.488 9.85765 136.4 9.90575C134.351 11.2397 132.284 13.7774 134.076 18.2263C134.092 18.2659 134.092 18.31 134.076 18.3495C134.076 18.3742 133.256 20.7359 133.791 22.3937C135.372 27.3213 140.955 28.8981 144.232 28.43C145.509 28.2312 146.732 27.7706 147.822 27.0771C148.912 26.3835 149.848 25.4721 150.569 24.3999C151.152 23.5501 151.544 22.5835 151.716 21.5672C151.888 20.5509 151.837 19.5094 151.565 18.515C151.213 17.2021 142.905 11.9929 138.498 10.3176C137.925 10.0606 137.314 9.90123 136.688 9.84592Z" fill="#35375B"/>
<path d="M146.091 35.8211L139.036 38.3165L137.283 36.5567V25.1282L146.091 24.0723V35.8211Z" fill="#F9C5AE"/>
<path d="M140.416 30.2356C139.267 29.8739 138.29 29.1038 137.67 28.071L146.073 25.125C146.073 25.125 146.073 26.4801 146.073 29.2677C146.056 29.2712 142.5 30.9396 140.416 30.2356Z" fill="#35375B"/>
<path d="M135.128 19.4123C135.128 24.5757 137.135 28.5283 139.42 28.9613C143.707 29.7743 147.816 24.5651 147.816 19.4052C147.816 14.2454 144.647 10.0815 141.247 10.0815C136.846 10.0815 135.128 13.8863 135.128 19.4123Z" fill="#F9C5AE"/>
<path d="M138.515 23.5687C138.458 23.574 138.4 23.574 138.343 23.5687C138.226 23.5463 138.116 23.498 138.021 23.4273C137.926 23.3566 137.848 23.2654 137.793 23.1605C137.533 22.6923 137.793 22.0166 138.117 21.2352C138.42 20.5965 138.606 19.9087 138.666 19.2043C138.666 19.1576 138.685 19.1129 138.718 19.0799C138.751 19.0469 138.796 19.0283 138.842 19.0283C138.889 19.0283 138.934 19.0469 138.967 19.0799C139 19.1129 139.018 19.1576 139.018 19.2043C138.96 19.9486 138.767 20.676 138.448 21.3513C138.177 22.0201 137.924 22.6536 138.096 22.9739C138.127 23.0339 138.171 23.0862 138.224 23.127C138.278 23.1678 138.34 23.1961 138.406 23.2097C138.832 23.2907 139.494 22.8578 139.712 22.6712C139.749 22.6418 139.795 22.628 139.842 22.6326C139.889 22.6372 139.932 22.6599 139.962 22.6959C139.991 22.7323 140.004 22.7787 139.999 22.8248C139.993 22.871 139.97 22.9132 139.934 22.9422C139.905 22.9704 139.152 23.5687 138.515 23.5687Z" fill="#35375B"/>
<path d="M139.152 25.4065C138.805 25.4136 138.466 25.306 138.187 25.1003C138.15 25.0718 138.126 25.0296 138.119 24.9831C138.113 24.9366 138.125 24.8894 138.154 24.8521C138.182 24.8148 138.225 24.7903 138.271 24.784C138.318 24.7777 138.365 24.7902 138.402 24.8187C139.166 25.3994 140.31 24.7448 140.476 24.611C140.495 24.5899 140.519 24.5738 140.546 24.564C140.573 24.5542 140.602 24.551 140.63 24.5547C140.653 24.5581 140.675 24.5661 140.695 24.578C140.715 24.59 140.732 24.6057 140.746 24.6243C140.76 24.643 140.77 24.6641 140.775 24.6866C140.781 24.7091 140.782 24.7324 140.778 24.7553C140.754 24.9313 140.212 25.1601 140.102 25.2023C139.802 25.3315 139.479 25.4008 139.152 25.4065Z" fill="#35375B"/>
<path d="M140.986 17.3813C141.866 17.3813 143.567 18.036 143.426 18.8455C143.38 19.0954 143.13 18.3809 140.719 18.1416C140.335 18.1064 140.367 17.3813 140.986 17.3813Z" fill="#35375B"/>
<path d="M138.223 17.3464C137.456 17.1493 135.924 17.4274 135.843 18.2404C135.819 18.4939 136.741 17.7195 138.223 18.0997C138.561 18.1876 138.765 17.4872 138.223 17.3464Z" fill="#35375B"/>
<path d="M142.841 19.7399C142.801 19.7394 142.761 19.7258 142.729 19.7012C141.951 19.0712 141.69 18.86 140.687 19.3281C140.666 19.3412 140.642 19.3496 140.618 19.3529C140.593 19.3561 140.568 19.3541 140.544 19.347C140.52 19.3399 140.498 19.3278 140.479 19.3116C140.461 19.2954 140.445 19.2753 140.435 19.2528C140.424 19.2303 140.419 19.2058 140.418 19.181C140.418 19.1561 140.423 19.1315 140.433 19.1087C140.443 19.0859 140.457 19.0654 140.476 19.0486C140.494 19.0318 140.516 19.0191 140.539 19.0113C141.69 18.4693 142.088 18.7297 142.951 19.4266C142.979 19.4494 143 19.4804 143.01 19.5153C143.02 19.5503 143.019 19.5875 143.007 19.6218C142.995 19.6561 142.972 19.6859 142.943 19.7071C142.913 19.7282 142.878 19.7397 142.841 19.7399Z" fill="#35375B"/>
<path d="M138.29 19.2189C138.267 19.2188 138.244 19.214 138.223 19.2049C138.202 19.1959 138.183 19.1827 138.167 19.1661C137.656 18.6592 137.213 18.8599 136.685 19.1661C136.644 19.1894 136.596 19.1958 136.55 19.1839C136.505 19.1721 136.466 19.1429 136.442 19.1027C136.419 19.0625 136.412 19.0149 136.424 18.97C136.436 18.9252 136.465 18.8869 136.505 18.8634C136.938 18.6029 137.667 18.1594 138.413 18.9056C138.439 18.93 138.456 18.9615 138.463 18.9959C138.471 19.0303 138.467 19.0661 138.454 19.0987C138.441 19.1313 138.418 19.1591 138.389 19.1787C138.36 19.1982 138.325 19.2085 138.29 19.2083V19.2189Z" fill="#35375B"/>
<path d="M141.539 19.6657C141.593 19.67 141.647 19.6634 141.698 19.6463C141.749 19.6291 141.796 19.6017 141.836 19.5659C141.876 19.53 141.909 19.4864 141.932 19.4376C141.954 19.3888 141.967 19.3359 141.969 19.2821C141.981 19.1887 141.956 19.0942 141.899 19.0193C141.842 18.9444 141.758 18.8952 141.664 18.8826C141.571 18.87 141.476 18.895 141.401 18.9521C141.326 19.0092 141.277 19.0937 141.264 19.187C141.215 19.3525 141.335 19.6657 141.539 19.6657Z" fill="#35375B"/>
<path d="M137.277 19.363C137.327 19.3678 137.377 19.3625 137.425 19.3472C137.474 19.3319 137.518 19.3071 137.556 19.2742C137.594 19.2413 137.626 19.2011 137.648 19.1558C137.67 19.1106 137.683 19.0613 137.685 19.011C137.668 18.9428 137.631 18.8813 137.579 18.8344C137.526 18.7874 137.461 18.7573 137.391 18.7478C137.321 18.7384 137.25 18.75 137.187 18.7812C137.124 18.8125 137.072 18.8619 137.037 18.9231C136.974 19.0744 137.086 19.363 137.277 19.363Z" fill="#35375B"/>
<path d="M147.164 20.4929C146.872 21.6685 146.351 23.3087 147.604 23.4811C148.28 23.5656 149.597 22.2774 149.85 21.0913C150.202 19.3807 149.85 18.6943 148.967 18.6943C148.305 18.6943 147.453 19.3173 147.164 20.4929Z" fill="#F9C5AE"/>
<path d="M147.784 22.1047C147.691 22.1037 147.598 22.0931 147.506 22.0731C147.483 22.0685 147.461 22.0593 147.441 22.0462C147.422 22.0331 147.405 22.0162 147.392 21.9966C147.379 21.977 147.37 21.955 147.365 21.9319C147.361 21.9088 147.361 21.885 147.365 21.8619C147.37 21.8388 147.379 21.8168 147.392 21.7972C147.405 21.7776 147.422 21.7608 147.442 21.7478C147.461 21.7347 147.483 21.7256 147.507 21.721C147.53 21.7165 147.553 21.7165 147.577 21.7211C147.837 21.7739 147.929 21.7211 147.929 21.7211C148.01 21.6437 147.967 21.3691 147.929 21.1403C147.878 20.9864 147.861 20.8238 147.876 20.6626C147.892 20.5015 147.941 20.3454 148.02 20.2041C148.089 20.1337 148.172 20.0792 148.264 20.0446C148.356 20.0099 148.454 19.9959 148.552 20.0035C148.599 20.0035 148.643 20.022 148.676 20.055C148.709 20.088 148.728 20.1328 148.728 20.1795C148.728 20.2261 148.709 20.2709 148.676 20.3039C148.643 20.3369 148.599 20.3555 148.552 20.3555C148.505 20.35 148.457 20.354 148.412 20.3673C148.367 20.3806 148.324 20.4029 148.288 20.4329C148.193 20.549 148.235 20.8341 148.288 21.0876C148.341 21.4395 148.393 21.7704 148.179 21.9745C148.07 22.0682 147.928 22.115 147.784 22.1047Z" fill="#35375B"/>
<path d="M140.413 29.2463C139.905 29.2639 139.399 29.1753 138.927 28.9862C138.456 28.7971 138.029 28.5117 137.674 28.1481C137.644 28.1124 137.629 28.0663 137.632 28.0196C137.635 27.9729 137.656 27.9294 137.691 27.8982C137.709 27.8829 137.729 27.8712 137.751 27.8638C137.772 27.8564 137.795 27.8534 137.818 27.8551C137.841 27.8567 137.864 27.8629 137.884 27.8734C137.905 27.8838 137.923 27.8982 137.938 27.9158C138.462 28.5212 139.617 29.0456 141.015 28.8521C142.307 28.6761 144.781 27.7187 146.872 23.2909C146.884 23.267 146.9 23.2459 146.921 23.2294C146.942 23.213 146.966 23.2015 146.992 23.1959C147.018 23.1896 147.044 23.1892 147.07 23.1947C147.095 23.2002 147.119 23.2114 147.14 23.2276C147.266 23.3171 147.412 23.3729 147.566 23.3895C148.143 23.4739 149.326 22.4955 149.495 21.6296C149.5 21.6065 149.509 21.5845 149.522 21.565C149.535 21.5454 149.552 21.5286 149.572 21.5155C149.591 21.5024 149.613 21.4933 149.636 21.4888C149.659 21.4842 149.683 21.4842 149.706 21.4888C149.729 21.4935 149.751 21.5026 149.771 21.5157C149.791 21.5288 149.807 21.5457 149.82 21.5653C149.834 21.5849 149.843 21.6069 149.847 21.63C149.852 21.6531 149.852 21.6769 149.847 21.7C149.636 22.7207 148.333 23.8717 147.524 23.752C147.383 23.7317 147.245 23.6914 147.115 23.6323C144.968 28.0601 142.412 29.0316 141.071 29.2146C140.853 29.2406 140.633 29.2512 140.413 29.2463Z" fill="#35375B"/>
<path d="M151.28 18.2929C153.118 17.867 153.195 11.9574 148.914 9.49359C146.429 8.08571 147.094 6.51944 143.817 5.66415C141.222 4.98836 138.29 5.50576 136.375 8.09979C134.101 11.1831 135.498 14.8823 138.839 15.2659C141.817 15.6179 144.824 12.4713 145.721 13.3406C146.425 14.0094 146.098 14.9949 146.26 15.5299C146.527 16.4133 147.411 16.4943 147.034 17.9198C146.682 19.2925 145.813 20.6968 146.799 20.6968C147.393 20.6968 148.048 19.2889 148.309 18.6836L151.28 18.2929Z" fill="#35375B"/>
<path d="M146.806 20.9008C146.705 20.9097 146.604 20.8935 146.511 20.8535C146.418 20.8136 146.337 20.7512 146.274 20.672C146.035 20.32 146.253 19.7217 146.527 18.9544C146.651 18.6024 146.777 18.2504 146.879 17.8984C147.105 17.0572 146.879 16.7616 146.57 16.3885C146.365 16.162 146.208 15.8961 146.109 15.6071C146.057 15.3833 146.036 15.1537 146.045 14.9243C146.045 14.4421 146.045 13.8965 145.616 13.4953C145.288 13.182 144.44 13.622 143.458 14.1288C142.141 14.8081 140.504 15.6564 138.835 15.4628C138.106 15.4015 137.407 15.1445 136.811 14.7189C136.216 14.2933 135.746 13.7149 135.452 13.0448C134.773 11.4891 135.069 9.60953 136.245 8.02214C137.984 5.66394 140.821 4.7277 143.873 5.51963C145.83 6.02999 146.432 6.79728 147.073 7.60682C147.582 8.32944 148.244 8.93045 149.013 9.36667C150.237 10.0892 151.226 11.149 151.863 12.4193C152.5 13.6897 152.757 15.1166 152.604 16.5293C152.445 17.6204 151.98 18.3314 151.329 18.4827C151.284 18.4922 151.236 18.4836 151.196 18.4586C151.157 18.4337 151.129 18.3943 151.118 18.349C151.113 18.3263 151.112 18.3029 151.116 18.2799C151.12 18.257 151.128 18.2351 151.141 18.2155C151.153 18.1959 151.169 18.1789 151.188 18.1656C151.208 18.1522 151.229 18.1428 151.252 18.1378C151.745 18.0252 152.118 17.4057 152.255 16.48C152.402 15.1366 152.158 13.7793 151.552 12.5716C150.945 11.3638 150.002 10.3572 148.837 9.67289C148.031 9.21222 147.335 8.58311 146.795 7.82856C146.168 7.0331 145.626 6.34324 143.785 5.86456C140.891 5.11134 138.177 5.99479 136.526 8.23332C135.428 9.71864 135.146 11.4679 135.773 12.9075C136.043 13.5207 136.474 14.0496 137.02 14.4386C137.566 14.8275 138.206 15.0622 138.874 15.1179C140.437 15.2974 142.043 14.4773 143.296 13.8191C144.443 13.2243 145.352 12.7632 145.859 13.2419C146.365 13.7206 146.394 14.3999 146.397 14.9243C146.389 15.1203 146.406 15.3166 146.446 15.5086C146.532 15.7533 146.666 15.9783 146.841 16.1703C147.161 16.568 147.492 16.9798 147.221 17.9935C147.122 18.3454 146.992 18.7221 146.869 19.0705C146.665 19.6372 146.436 20.2778 146.573 20.4784C146.605 20.5086 146.644 20.5312 146.686 20.5446C146.728 20.558 146.772 20.5618 146.816 20.5558C147.07 20.5558 147.559 20.056 148.164 18.6481C148.174 18.6269 148.187 18.6076 148.204 18.5915C148.22 18.5754 148.24 18.5628 148.262 18.5543C148.283 18.5458 148.306 18.5416 148.329 18.542C148.353 18.5424 148.375 18.5474 148.397 18.5566C148.418 18.5659 148.437 18.5792 148.453 18.5959C148.469 18.6126 148.482 18.6323 148.491 18.6538C148.499 18.6754 148.503 18.6984 148.503 18.7216C148.502 18.7448 148.498 18.7677 148.488 18.7889C147.872 20.1687 147.309 20.9008 146.806 20.9008Z" fill="#35375B"/>
<path d="M139.301 38.2813L147.165 32.333L151.523 35.9407C150.58 38.4503 144.292 44.3 144.292 44.3L139.301 38.2813Z" fill="#35375B"/>
<path d="M139.3 38.2812L133.872 30.1401C133.872 30.1401 132.319 33.0228 132.112 34.6841C131.802 37.081 134.836 43.1314 134.836 43.1314L139.3 38.2812Z" fill="#35375B"/>
<path d="M138.688 37.947C138.661 37.9467 138.635 37.9402 138.611 37.928C138.587 37.9158 138.566 37.8982 138.55 37.8766C138.389 37.669 134.604 32.7343 135.998 30.7774C136.011 30.7584 136.028 30.7423 136.047 30.7299C136.067 30.7175 136.088 30.7091 136.111 30.7052C136.133 30.7013 136.157 30.7019 136.179 30.707C136.201 30.7122 136.222 30.7217 136.241 30.7351C136.26 30.7485 136.276 30.7654 136.289 30.7851C136.301 30.8047 136.31 30.8266 136.314 30.8495C136.318 30.8724 136.317 30.8959 136.312 30.9185C136.306 30.9412 136.297 30.9626 136.283 30.9815C135.041 32.7414 138.79 37.6126 138.829 37.669C138.857 37.7059 138.87 37.7525 138.864 37.7987C138.858 37.8449 138.834 37.8868 138.797 37.9153C138.765 37.9374 138.727 37.9485 138.688 37.947Z" fill="white"/>
<path d="M139.3 38.4573C139.273 38.4567 139.248 38.4504 139.224 38.4389C139.2 38.4274 139.179 38.4108 139.163 38.3905C139.133 38.3544 139.12 38.3083 139.124 38.2622C139.129 38.2161 139.151 38.1736 139.187 38.1441C139.437 37.9399 139.948 37.602 140.595 37.1762C142.708 35.7683 146.679 33.1567 146.995 31.4144C147.023 31.2886 147.023 31.1584 146.997 31.0323C146.971 30.9062 146.919 30.787 146.844 30.6823C146.83 30.6636 146.82 30.6424 146.815 30.6199C146.81 30.5973 146.809 30.574 146.812 30.5511C146.816 30.5282 146.824 30.5062 146.836 30.4865C146.848 30.4667 146.864 30.4495 146.883 30.4359C146.921 30.4092 146.968 30.3983 147.014 30.4055C147.06 30.4127 147.101 30.4375 147.129 30.4746C147.233 30.6177 147.305 30.7809 147.341 30.9537C147.378 31.1266 147.377 31.3051 147.34 31.4778C146.988 33.3643 143.116 35.9337 140.789 37.4613C140.148 37.8836 139.645 38.218 139.412 38.4081C139.382 38.4372 139.342 38.4547 139.3 38.4573Z" fill="white"/>
<path d="M122.216 246.564C122.216 246.564 115.746 196.563 115.175 178.433C114.605 160.686 115.369 131.768 116.936 115.806C117.773 107.229 121.579 80.3208 121.579 80.3208C121.579 80.3208 134.337 82.4326 146.369 82.4326C146.369 82.4326 151.435 113.181 152.466 122.17C154.139 136.714 154.304 166.166 155.283 180.661C156.36 196.809 160.947 244.55 160.947 244.55L122.216 246.564Z" fill="#35375B"/>
<path d="M148.056 49.9282V57.8898C148.053 58.0713 148.092 58.2509 148.169 58.415C148.247 58.5791 148.361 58.7233 148.503 58.8366L152.203 61.677C152.371 61.8103 152.58 61.8828 152.796 61.8828C153.011 61.8828 153.22 61.8103 153.389 61.677L157.106 58.8366C157.249 58.7235 157.363 58.5794 157.441 58.4153C157.519 58.2513 157.559 58.0715 157.557 57.8898V49.9282H148.056Z" fill="#35375B"/>
<path d="M152.882 62.0573C152.627 62.0574 152.38 61.9732 152.178 61.818L148.478 58.9776C148.315 58.8476 148.183 58.682 148.093 58.4936C148.004 58.3051 147.958 58.0987 147.96 57.89L147.865 49.9319C147.865 49.9086 147.869 49.8854 147.877 49.8636C147.886 49.8419 147.898 49.822 147.915 49.8052C147.948 49.7715 147.994 49.7526 148.041 49.7524H153.797C153.843 49.7533 153.888 49.7722 153.921 49.805C153.953 49.8378 153.972 49.882 153.973 49.9284C153.973 49.9751 153.955 50.0199 153.922 50.0529C153.889 50.0859 153.844 50.1044 153.797 50.1044H148.231L148.326 57.8865C148.324 58.0417 148.356 58.1955 148.421 58.3364C148.486 58.4772 148.583 58.6014 148.703 58.6995L152.407 61.5364C152.544 61.6473 152.716 61.7077 152.892 61.7077C153.069 61.7077 153.241 61.6473 153.378 61.5364L157.078 58.6995C157.199 58.6025 157.296 58.4791 157.362 58.3388C157.428 58.1985 157.461 58.045 157.458 57.89V54.6061C157.458 54.5594 157.477 54.5147 157.51 54.4817C157.543 54.4487 157.588 54.4301 157.634 54.4301C157.681 54.4301 157.726 54.4487 157.759 54.4817C157.792 54.5147 157.81 54.5594 157.81 54.6061V57.89C157.812 58.0987 157.767 58.3051 157.677 58.4936C157.588 58.682 157.456 58.8476 157.293 58.9776L153.586 61.818C153.384 61.9723 153.136 62.0563 152.882 62.0573Z" fill="#35375B"/>
<path d="M120.336 94.5403C120.289 94.5403 120.245 94.5217 120.212 94.4887C120.179 94.4557 120.16 94.4109 120.16 94.3643C120.16 94.3176 120.179 94.2728 120.212 94.2398C120.245 94.2068 120.289 94.1883 120.336 94.1883C120.378 94.1883 121.91 93.875 122.491 86.5892C122.494 86.5426 122.516 86.4993 122.552 86.4689C122.588 86.4385 122.634 86.4236 122.681 86.4273C122.727 86.4311 122.771 86.4532 122.801 86.4888C122.831 86.5245 122.846 86.5707 122.843 86.6174C122.22 94.3185 120.526 94.5403 120.336 94.5403Z" fill="#473929"/>
<path d="M190.099 233.41C190.099 233.41 162.64 196.207 154.153 183.733C138.857 161.232 139.504 118.868 139.504 118.868L143.623 82.4148L171.082 81.7812C171.082 81.7812 181.858 101.316 181.858 119.586C181.858 137.572 181.129 143.39 191.296 160.809C202.804 180.52 224.232 215.083 224.232 215.083L190.099 233.41Z" fill="#35375B"/>
<path d="M153.631 181.576C153.604 181.576 153.578 181.57 153.553 181.558C153.529 181.546 153.507 181.53 153.49 181.509C137.459 161.144 138.448 139.192 139.152 123.159C139.229 121.463 139.3 119.858 139.353 118.306C139.356 118.26 139.376 118.217 139.409 118.185C139.442 118.153 139.486 118.135 139.532 118.133C139.556 118.134 139.579 118.139 139.6 118.148C139.621 118.158 139.641 118.172 139.657 118.189C139.673 118.206 139.685 118.226 139.694 118.248C139.702 118.27 139.706 118.293 139.705 118.316C139.652 119.869 139.581 121.484 139.504 123.177C138.8 139.153 137.804 161.032 153.754 181.291C153.783 181.327 153.796 181.374 153.791 181.42C153.786 181.466 153.762 181.508 153.726 181.537C153.699 181.559 153.666 181.573 153.631 181.576Z" fill="white"/>
<path d="M168.949 103.357C168.909 103.357 168.87 103.343 168.839 103.318C168.808 103.293 168.786 103.259 168.776 103.22C168.625 102.541 168.466 101.858 168.297 101.164C168.287 101.119 168.295 101.071 168.319 101.032C168.343 100.992 168.382 100.964 168.428 100.953C168.45 100.947 168.474 100.946 168.497 100.95C168.52 100.953 168.542 100.961 168.562 100.973C168.582 100.985 168.6 101.001 168.613 101.02C168.627 101.039 168.637 101.061 168.642 101.083C168.808 101.787 168.97 102.463 169.121 103.142C169.126 103.165 169.127 103.189 169.123 103.211C169.119 103.234 169.111 103.256 169.098 103.276C169.086 103.296 169.07 103.313 169.051 103.326C169.032 103.339 169.01 103.349 168.987 103.354L168.949 103.357Z" fill="white"/>
<path d="M205.729 207.797C205.698 207.798 205.668 207.79 205.642 207.776C205.615 207.761 205.593 207.739 205.577 207.713C204.933 206.639 204.222 205.51 203.402 204.267C203.376 204.228 203.367 204.181 203.376 204.136C203.386 204.09 203.412 204.05 203.451 204.024C203.49 203.999 203.538 203.989 203.584 203.999C203.63 204.008 203.671 204.035 203.697 204.074C204.518 205.323 205.232 206.453 205.88 207.533C205.903 207.574 205.909 207.621 205.898 207.666C205.886 207.711 205.857 207.749 205.817 207.773C205.79 207.789 205.76 207.798 205.729 207.797ZM201.261 200.966C201.233 200.966 201.205 200.96 201.18 200.947C201.154 200.934 201.133 200.915 201.117 200.892C200.431 199.899 199.66 198.808 198.765 197.555C198.738 197.517 198.728 197.469 198.735 197.423C198.743 197.377 198.769 197.336 198.808 197.309C198.846 197.282 198.893 197.271 198.94 197.279C198.986 197.287 199.027 197.313 199.054 197.351C199.948 198.607 200.719 199.699 201.406 200.691C201.423 200.717 201.434 200.748 201.436 200.78C201.437 200.812 201.43 200.843 201.416 200.872C201.401 200.9 201.379 200.923 201.351 200.94C201.324 200.956 201.293 200.965 201.261 200.966ZM196.534 194.299C196.505 194.3 196.477 194.293 196.452 194.28C196.427 194.267 196.405 194.249 196.389 194.225L195.865 193.497L194.002 190.903C193.975 190.865 193.963 190.818 193.971 190.772C193.978 190.725 194.003 190.684 194.041 190.656C194.079 190.629 194.126 190.617 194.172 190.625C194.219 190.632 194.26 190.657 194.288 190.695L196.146 193.279L196.674 194.011C196.688 194.03 196.697 194.051 196.703 194.074C196.708 194.096 196.708 194.12 196.705 194.143C196.701 194.166 196.692 194.187 196.68 194.207C196.667 194.227 196.651 194.244 196.632 194.257C196.604 194.281 196.57 194.295 196.534 194.299ZM191.781 187.661C191.753 187.662 191.725 187.655 191.7 187.642C191.674 187.629 191.653 187.61 191.637 187.587C190.862 186.489 190.082 185.373 189.296 184.24C189.282 184.221 189.273 184.199 189.268 184.176C189.263 184.154 189.263 184.13 189.267 184.107C189.271 184.084 189.28 184.062 189.293 184.043C189.306 184.023 189.322 184.007 189.341 183.994C189.36 183.98 189.382 183.971 189.404 183.966C189.427 183.961 189.45 183.961 189.473 183.965C189.495 183.969 189.517 183.978 189.536 183.991C189.555 184.004 189.572 184.02 189.584 184.039C190.371 185.173 191.151 186.287 191.925 187.383C191.952 187.422 191.962 187.469 191.954 187.515C191.946 187.561 191.921 187.602 191.883 187.629C191.852 187.651 191.815 187.662 191.778 187.661H191.781ZM187.145 180.938C187.116 180.939 187.088 180.932 187.063 180.918C187.038 180.904 187.016 180.885 187 180.861C186.222 179.703 185.469 178.552 184.758 177.443C184.736 177.404 184.729 177.358 184.74 177.314C184.751 177.271 184.778 177.233 184.816 177.208C184.854 177.184 184.899 177.175 184.944 177.183C184.988 177.192 185.027 177.217 185.054 177.253C185.758 178.359 186.518 179.506 187.293 180.664C187.318 180.703 187.327 180.751 187.318 180.797C187.309 180.843 187.282 180.884 187.243 180.91C187.212 180.929 187.177 180.938 187.141 180.938H187.145ZM182.734 174.068C182.704 174.069 182.674 174.061 182.648 174.046C182.622 174.031 182.601 174.01 182.586 173.984C181.882 172.808 181.178 171.629 180.474 170.464C180.456 170.424 180.453 170.379 180.467 170.338C180.48 170.296 180.508 170.261 180.546 170.239C180.583 170.217 180.628 170.21 180.67 170.219C180.713 170.228 180.751 170.253 180.776 170.288C181.445 171.439 182.146 172.618 182.868 173.808C182.88 173.827 182.888 173.849 182.891 173.872C182.895 173.895 182.894 173.919 182.888 173.941C182.883 173.964 182.873 173.985 182.859 174.004C182.845 174.023 182.828 174.038 182.808 174.05C182.784 174.062 182.757 174.068 182.73 174.068H182.734ZM178.64 167.004C178.608 167.004 178.577 166.996 178.549 166.98C178.522 166.964 178.5 166.94 178.485 166.912C177.826 165.705 177.186 164.491 176.584 163.294C176.573 163.274 176.566 163.251 176.564 163.228C176.562 163.205 176.565 163.182 176.572 163.16C176.58 163.138 176.591 163.117 176.606 163.1C176.622 163.083 176.64 163.068 176.661 163.058C176.703 163.038 176.751 163.035 176.795 163.05C176.839 163.064 176.875 163.095 176.897 163.136C177.499 164.329 178.136 165.543 178.791 166.747C178.803 166.767 178.81 166.789 178.813 166.812C178.815 166.835 178.813 166.858 178.807 166.88C178.8 166.902 178.789 166.923 178.774 166.94C178.759 166.958 178.741 166.973 178.721 166.983C178.696 166.997 178.668 167.004 178.64 167.004ZM174.954 159.722C174.92 159.722 174.888 159.712 174.859 159.694C174.831 159.676 174.809 159.65 174.795 159.62C174.285 158.528 173.792 157.427 173.327 156.346C173.261 156.191 173.197 156.037 173.134 155.882C173.117 155.838 173.117 155.79 173.136 155.747C173.154 155.704 173.189 155.67 173.232 155.653C173.276 155.636 173.324 155.636 173.367 155.655C173.41 155.673 173.444 155.708 173.461 155.751C173.52 155.902 173.583 156.053 173.651 156.205C174.116 157.286 174.605 158.384 175.112 159.472C175.122 159.493 175.128 159.515 175.129 159.538C175.13 159.561 175.127 159.584 175.119 159.606C175.111 159.627 175.099 159.647 175.083 159.664C175.068 159.681 175.049 159.695 175.028 159.704C175.005 159.716 174.98 159.723 174.954 159.722ZM172.138 152.08C172.097 152.08 172.058 152.066 172.026 152.041C171.995 152.015 171.973 151.979 171.965 151.94C171.703 150.597 171.526 149.239 171.437 147.874C171.435 147.851 171.438 147.828 171.446 147.806C171.453 147.784 171.465 147.764 171.48 147.746C171.495 147.729 171.514 147.714 171.534 147.704C171.555 147.694 171.578 147.688 171.601 147.686C171.624 147.684 171.647 147.687 171.669 147.695C171.691 147.702 171.711 147.714 171.729 147.729C171.746 147.744 171.761 147.763 171.771 147.783C171.781 147.804 171.787 147.827 171.789 147.85C171.88 149.199 172.055 150.542 172.314 151.869C172.318 151.892 172.318 151.915 172.314 151.938C172.31 151.961 172.301 151.982 172.288 152.001C172.275 152.021 172.259 152.037 172.24 152.05C172.22 152.063 172.199 152.072 172.176 152.077L172.138 152.08ZM171.479 143.96C171.433 143.96 171.388 143.942 171.355 143.909C171.322 143.876 171.303 143.831 171.303 143.784V143.605C171.303 142.51 171.303 141.307 171.363 139.698C171.363 139.675 171.368 139.652 171.377 139.63C171.386 139.609 171.399 139.59 171.416 139.574C171.433 139.557 171.453 139.545 171.474 139.537C171.496 139.528 171.519 139.525 171.543 139.526C171.566 139.526 171.589 139.531 171.611 139.541C171.632 139.55 171.651 139.564 171.667 139.581C171.683 139.598 171.696 139.618 171.704 139.64C171.712 139.662 171.716 139.685 171.715 139.709C171.673 141.31 171.655 142.524 171.655 143.605V143.781C171.655 143.828 171.637 143.873 171.604 143.907C171.571 143.94 171.526 143.96 171.479 143.96ZM171.659 135.798C171.635 135.798 171.612 135.794 171.591 135.785C171.569 135.775 171.549 135.762 171.533 135.745C171.517 135.729 171.504 135.709 171.495 135.687C171.487 135.665 171.482 135.642 171.483 135.619C171.514 134.524 171.553 133.07 171.571 131.539C171.573 131.493 171.592 131.449 171.626 131.417C171.659 131.385 171.704 131.367 171.75 131.367C171.774 131.367 171.797 131.372 171.818 131.381C171.839 131.39 171.859 131.403 171.875 131.42C171.891 131.437 171.904 131.457 171.912 131.478C171.92 131.5 171.924 131.523 171.923 131.546C171.923 133.077 171.867 134.531 171.835 135.629C171.833 135.672 171.816 135.713 171.786 135.745C171.756 135.776 171.716 135.795 171.673 135.798H171.659ZM171.754 127.636C171.731 127.636 171.708 127.632 171.687 127.624C171.665 127.615 171.646 127.603 171.63 127.587C171.613 127.571 171.6 127.552 171.591 127.53C171.582 127.509 171.578 127.487 171.578 127.464C171.578 126.056 171.522 124.729 171.462 123.388C171.462 123.341 171.48 123.296 171.513 123.263C171.546 123.23 171.591 123.212 171.638 123.212C171.684 123.212 171.729 123.23 171.762 123.263C171.795 123.296 171.814 123.341 171.814 123.388C171.874 124.732 171.912 126.066 171.93 127.474C171.93 127.521 171.911 127.566 171.878 127.599C171.845 127.632 171.801 127.65 171.754 127.65V127.636ZM171.402 119.484C171.357 119.485 171.315 119.468 171.282 119.438C171.249 119.408 171.229 119.367 171.226 119.322C171.117 117.971 170.986 116.605 170.828 115.268C170.825 115.245 170.827 115.221 170.833 115.199C170.84 115.176 170.85 115.155 170.865 115.137C170.879 115.119 170.897 115.104 170.917 115.092C170.937 115.081 170.96 115.073 170.983 115.071C171.006 115.068 171.029 115.07 171.052 115.076C171.074 115.082 171.095 115.093 171.114 115.107C171.132 115.122 171.147 115.14 171.159 115.16C171.17 115.18 171.177 115.202 171.18 115.226C171.335 116.57 171.469 117.939 171.578 119.294C171.58 119.317 171.577 119.341 171.57 119.363C171.563 119.385 171.551 119.405 171.536 119.423C171.521 119.441 171.503 119.455 171.482 119.466C171.462 119.476 171.439 119.483 171.416 119.484H171.402ZM170.462 111.389C170.42 111.389 170.379 111.373 170.348 111.345C170.316 111.318 170.295 111.279 170.289 111.238C170.085 109.907 169.853 108.559 169.585 107.222C169.581 107.199 169.582 107.175 169.587 107.152C169.592 107.129 169.601 107.107 169.615 107.088C169.628 107.069 169.645 107.052 169.665 107.04C169.685 107.027 169.707 107.018 169.73 107.014C169.753 107.01 169.776 107.01 169.799 107.015C169.822 107.02 169.844 107.03 169.863 107.043C169.883 107.057 169.899 107.074 169.912 107.093C169.925 107.113 169.933 107.135 169.937 107.158C170.191 108.496 170.423 109.851 170.624 111.185C170.628 111.208 170.627 111.231 170.622 111.254C170.616 111.277 170.607 111.298 170.593 111.317C170.579 111.336 170.561 111.351 170.541 111.363C170.521 111.375 170.499 111.383 170.476 111.386L170.462 111.389Z" fill="white"/>
<path d="M163.717 99.5352C163.717 99.5352 159.31 100.239 157.134 96.4308C154.821 92.3937 154.462 90.6268 154.462 90.6268L160.718 89.145L163.717 99.5352Z" fill="#B0602B"/>
<path d="M162.58 99.5453C161.567 99.5646 160.566 99.3264 159.67 98.853C158.774 98.3796 158.013 97.6865 157.458 96.8386C155.515 93.8856 155.184 92.6854 155.174 92.6361C155.167 92.6139 155.165 92.5907 155.168 92.5678C155.171 92.5448 155.178 92.5227 155.19 92.5027C155.201 92.4827 155.217 92.4652 155.235 92.4512C155.254 92.4372 155.275 92.4271 155.297 92.4214C155.342 92.4095 155.389 92.4158 155.43 92.4389C155.47 92.4619 155.499 92.4999 155.512 92.5446C155.512 92.5446 155.864 93.7554 157.751 96.6451C159.81 99.7706 163.327 99.1476 163.362 99.1405C163.385 99.1354 163.408 99.1349 163.431 99.1391C163.454 99.1433 163.476 99.1521 163.495 99.1649C163.514 99.1777 163.531 99.1943 163.544 99.2137C163.557 99.2331 163.565 99.2549 163.57 99.2778C163.578 99.3239 163.568 99.3715 163.542 99.4103C163.515 99.4491 163.475 99.4761 163.429 99.4855C163.148 99.5275 162.864 99.5475 162.58 99.5453Z" fill="#473929"/>
<path d="M146.359 87.1278C137.009 87.1278 128.053 86.1353 121.787 84.4106C121.764 84.4044 121.742 84.3936 121.723 84.379C121.704 84.3644 121.688 84.3462 121.676 84.3255C121.664 84.3047 121.656 84.2818 121.653 84.2581C121.65 84.2343 121.652 84.2102 121.658 84.1871C121.664 84.164 121.675 84.1423 121.69 84.1234C121.704 84.1044 121.723 84.0885 121.743 84.0766C121.764 84.0647 121.787 84.0569 121.811 84.0538C121.834 84.0508 121.859 84.0524 121.882 84.0586C128.12 85.7798 137.04 86.7653 146.359 86.7653C156.254 86.7653 165.534 85.6742 171.814 83.7771C171.837 83.7701 171.86 83.7676 171.884 83.7699C171.907 83.7721 171.93 83.779 171.95 83.7902C171.971 83.8013 171.989 83.8165 172.004 83.8348C172.019 83.8531 172.029 83.8741 172.036 83.8967C172.042 83.9189 172.044 83.9422 172.042 83.9651C172.039 83.9881 172.032 84.0104 172.021 84.0306C172.01 84.0509 171.995 84.0688 171.977 84.0832C171.959 84.0977 171.938 84.1085 171.916 84.115C165.604 86.0332 156.289 87.1278 146.359 87.1278Z" fill="#473929"/>
<path d="M69.1787 53.7119C68.9217 53.7612 72.0584 60.0052 72.9666 73.373C73.3687 78.9188 73.0718 84.4931 72.083 89.9649L109.275 107.982C109.275 107.982 111.081 100.591 112.859 84.0483C113.025 82.489 109.772 68.1638 109.772 68.1638L69.1787 53.7119Z" fill="#FD4C00"/>
<path d="M109.275 108.158C109.248 108.157 109.222 108.151 109.198 108.14L72.0053 90.123C71.9702 90.1058 71.9418 90.0775 71.9246 90.0425C71.9074 90.0074 71.9023 89.9676 71.9102 89.9294C72.889 84.4731 73.1847 78.9161 72.7903 73.3868C72.0862 62.9086 70.0304 56.9216 69.27 54.6655C68.9919 53.8559 68.9602 53.7503 69.0271 53.6342C69.0561 53.5886 69.1014 53.5558 69.1538 53.5427C69.1849 53.534 69.2178 53.534 69.2489 53.5427L109.842 68.0122C109.87 68.0224 109.894 68.0393 109.914 68.0614C109.934 68.0835 109.948 68.1101 109.955 68.1389C110.088 68.7232 113.211 82.5099 113.042 84.0797C111.282 100.422 109.476 107.947 109.458 108.014C109.452 108.039 109.439 108.063 109.422 108.083C109.405 108.103 109.384 108.119 109.36 108.13C109.334 108.146 109.305 108.156 109.275 108.158ZM72.2834 89.8555L109.152 107.718C109.455 106.391 111.092 98.8413 112.672 84.0374C112.827 82.5873 109.895 69.5468 109.613 68.3043L69.4002 53.9862C69.4495 54.134 69.5164 54.3381 69.5938 54.5563C70.3683 56.823 72.4277 62.8417 73.1423 73.3657C73.5248 78.8803 73.2363 84.4209 72.2834 89.8661V89.8555Z" fill="#35375B"/>
<path d="M74.73 58.8438C74.73 58.8438 75.9375 69.7126 76.029 79.3179C76.0267 83.2489 75.5911 87.1677 74.73 91.0033L109.3 107.732C109.3 107.732 111.584 101.911 111.694 87.5892C111.736 81.7817 109.757 71.2578 109.757 71.2578L74.73 58.8438Z" fill="#FD4C00"/>
<path d="M109.276 107.982C112.06 106.328 152.984 97.1657 152.984 97.1657C152.984 97.1657 157.877 77.6243 156.536 57.6641C156.536 57.6641 109.772 67.1673 109.772 68.181C109.772 69.1946 109.276 107.982 109.276 107.982Z" fill="#FD4C00"/>
<path d="M109.275 108.158C109.244 108.159 109.214 108.15 109.187 108.133C109.16 108.118 109.138 108.095 109.122 108.068C109.107 108.041 109.099 108.01 109.099 107.979C109.099 107.591 109.596 69.1703 109.596 68.1813C109.596 67.8927 109.596 67.414 133.119 62.3738C144.676 59.8994 156.402 57.506 156.501 57.506C156.525 57.5006 156.55 57.5006 156.575 57.5061C156.599 57.5115 156.622 57.5224 156.641 57.5377C156.662 57.5524 156.679 57.5714 156.691 57.5933C156.703 57.6152 156.71 57.6394 156.712 57.6644C158.039 77.424 153.192 97.0253 153.153 97.2224C153.145 97.2535 153.129 97.2819 153.106 97.3043C153.083 97.3267 153.054 97.3422 153.023 97.3491C152.614 97.4406 112.092 106.525 109.37 108.148C109.34 108.16 109.307 108.164 109.275 108.158ZM109.934 68.2376C109.934 70.0784 109.487 104.188 109.441 107.697C113.806 105.786 150.115 97.6307 152.84 97.0183C153.216 95.445 157.603 76.7588 156.36 57.8756C138.251 61.5642 111.24 67.3084 109.934 68.2376Z" fill="#35375B"/>
<path d="M69.1787 53.7119L109.772 68.1814L156.536 57.6645L117.928 49.5059L69.1787 53.7119Z" fill="#E4E4E4"/>
<path d="M109.772 68.3574C109.753 68.3608 109.734 68.3608 109.716 68.3574L69.119 53.8774C69.0959 53.8744 69.0736 53.8668 69.0534 53.8552C69.0331 53.8436 69.0154 53.8281 69.0012 53.8096C68.987 53.7912 68.9765 53.7701 68.9705 53.7476C68.9644 53.7251 68.9628 53.7016 68.9658 53.6785C68.9688 53.6554 68.9764 53.6331 68.988 53.6129C68.9996 53.5927 69.0151 53.575 69.0336 53.5608C69.052 53.5465 69.0731 53.5361 69.0956 53.53C69.1181 53.524 69.1416 53.5224 69.1647 53.5254L117.914 49.3193H117.967L156.571 57.5062C156.61 57.5142 156.646 57.5352 156.671 57.566C156.697 57.5967 156.711 57.6352 156.712 57.6751C156.713 57.7154 156.7 57.7546 156.675 57.7861C156.649 57.8176 156.614 57.8394 156.575 57.8476L109.811 68.3539L109.772 68.3574ZM69.992 53.8175L109.772 67.9984L155.698 57.6681L117.918 49.6854L69.992 53.8175Z" fill="#35375B"/>
<path d="M161.443 49.3435C162.3 59.1243 162.312 68.9608 161.478 78.7436C156.863 81.9534 152.001 84.7911 146.936 87.2296C142.007 89.5491 135.973 92.474 135.973 92.474L142.148 111.304C142.217 111.502 142.326 111.682 142.468 111.836C142.609 111.989 142.781 112.111 142.972 112.196C143.163 112.28 143.37 112.324 143.579 112.325C143.788 112.326 143.994 112.284 144.186 112.202C150.442 109.626 187.758 103.508 187.31 89.352C187.004 79.6658 180.27 50.146 170.635 38.6682C166.009 33.1599 160.158 35.3316 161.443 49.3435Z" fill="#D0CECE"/>
<path d="M141.148 94.7233C141.148 94.7233 133.576 95.9834 129.64 94.5227C127.961 93.8997 118.516 93.4668 118.336 95.9834C118.171 98.2747 127.767 99.1511 127.366 100.679C126.901 102.439 120.864 103.597 119.012 103.463C113.619 103.072 112.676 99.0068 110.785 100.837C109.8 101.787 111.38 105.061 111.38 105.061C111.528 106.117 112.341 108.429 113.292 109.657C115.84 112.945 121.797 113.564 125.613 113.744C130.541 113.973 144.672 109.503 144.672 109.503L141.148 94.7233Z" fill="#F9C5AE"/>
<path d="M146.943 87.4024C146.911 87.4029 146.879 87.3943 146.851 87.3774C146.824 87.3606 146.802 87.3363 146.788 87.3073C146.777 87.2871 146.77 87.2648 146.768 87.2419C146.766 87.219 146.768 87.1958 146.775 87.1738C146.782 87.1518 146.793 87.1315 146.808 87.1139C146.823 87.0963 146.841 87.0819 146.862 87.0715C157.743 81.4048 163.245 77.519 163.298 77.4803C163.317 77.4644 163.338 77.4526 163.362 77.4455C163.385 77.4385 163.41 77.4363 163.434 77.4393C163.458 77.4422 163.481 77.4501 163.502 77.4626C163.523 77.475 163.542 77.4917 163.556 77.5115C163.57 77.5314 163.58 77.5539 163.585 77.5778C163.59 77.6017 163.59 77.6263 163.585 77.6502C163.58 77.6741 163.57 77.6966 163.556 77.7165C163.542 77.7363 163.523 77.753 163.502 77.7654C163.446 77.8041 157.93 81.704 147.024 87.3848C146.998 87.396 146.971 87.402 146.943 87.4024Z" fill="#35375B"/>
<path d="M113.521 73.623C113.474 73.623 113.43 73.6045 113.397 73.5715C113.364 73.5385 113.345 73.4937 113.345 73.447C113.345 73.4003 113.364 73.3556 113.397 73.3226C113.43 73.2896 113.474 73.271 113.521 73.271C123.631 72.4545 136.03 69.1847 144.651 66.5836C144.674 66.5736 144.699 66.5686 144.724 66.5689C144.748 66.5691 144.773 66.5746 144.795 66.585C144.818 66.5953 144.838 66.6104 144.854 66.6291C144.871 66.6478 144.883 66.6697 144.89 66.6935C144.898 66.7172 144.9 66.7422 144.897 66.7668C144.893 66.7915 144.885 66.8152 144.872 66.8364C144.859 66.8576 144.842 66.8758 144.822 66.8899C144.801 66.9039 144.778 66.9135 144.753 66.918C136.115 69.5225 123.691 72.7994 113.549 73.6054L113.521 73.623Z" fill="white"/>
<path d="M146.837 66.2737C146.799 66.2731 146.762 66.2606 146.732 66.2378C146.701 66.2151 146.679 66.1833 146.668 66.147C146.655 66.1027 146.66 66.0549 146.681 66.0141C146.703 65.9732 146.74 65.9426 146.784 65.9288L150.593 64.7426C150.64 64.7286 150.69 64.7337 150.733 64.7568C150.776 64.7799 150.808 64.8191 150.822 64.8658C150.836 64.9125 150.831 64.9628 150.808 65.0057C150.785 65.0486 150.745 65.0806 150.699 65.0946L146.897 66.2631L146.837 66.2737Z" fill="white"/>
<path d="M118.281 79.4935C118.236 79.4936 118.192 79.4765 118.16 79.4458C118.127 79.415 118.107 79.3729 118.105 79.3281C118.103 79.3049 118.105 79.2815 118.113 79.2594C118.12 79.2373 118.132 79.2169 118.147 79.1995C118.163 79.182 118.182 79.1679 118.203 79.158C118.224 79.148 118.247 79.1424 118.27 79.1415C135.023 78.1631 150.935 71.4158 151.094 71.3454C151.136 71.3293 151.183 71.3303 151.225 71.3481C151.267 71.366 151.3 71.3994 151.318 71.4413C151.336 71.4832 151.337 71.5303 151.32 71.5728C151.304 71.6153 151.272 71.6499 151.231 71.6692C151.072 71.7396 135.108 78.5115 118.291 79.4935H118.281Z" fill="white"/>
<path d="M114.587 86.1494C114.542 86.1495 114.499 86.1324 114.466 86.1016C114.434 86.0709 114.414 86.0288 114.411 85.9839C114.409 85.9375 114.425 85.8921 114.456 85.8573C114.487 85.8225 114.53 85.801 114.577 85.7974C132.766 84.7415 150.91 76.7799 151.09 76.6989C151.133 76.6798 151.181 76.6785 151.225 76.6953C151.269 76.7122 151.305 76.7458 151.324 76.7887C151.343 76.8316 151.344 76.8804 151.327 76.9243C151.31 76.9682 151.277 77.0036 151.234 77.0228C151.051 77.1037 132.854 85.0829 114.598 86.1494H114.587Z" fill="white"/>
<path d="M114.587 92.4566C114.564 92.4582 114.541 92.4553 114.519 92.448C114.497 92.4406 114.477 92.429 114.459 92.4138C114.442 92.3986 114.427 92.3801 114.417 92.3594C114.407 92.3386 114.4 92.3161 114.399 92.293C114.397 92.2699 114.4 92.2467 114.408 92.2247C114.415 92.2027 114.427 92.1824 114.442 92.1649C114.457 92.1474 114.475 92.1331 114.496 92.1228C114.517 92.1124 114.539 92.1063 114.563 92.1047C135.565 89.0073 153.233 80.7677 153.409 80.6832C153.43 80.6732 153.453 80.6674 153.476 80.6662C153.499 80.6651 153.522 80.6685 153.543 80.6764C153.565 80.6843 153.585 80.6964 153.602 80.7121C153.619 80.7278 153.632 80.7467 153.642 80.7677C153.652 80.7887 153.658 80.8115 153.659 80.8347C153.66 80.858 153.657 80.8813 153.649 80.9032C153.641 80.9252 153.629 80.9453 153.613 80.9625C153.597 80.9798 153.578 80.9937 153.557 81.0035C153.381 81.0844 135.667 89.3487 114.612 92.4531L114.587 92.4566Z" fill="white"/>
<path d="M161.478 78.9197C161.432 78.9197 161.388 78.9017 161.355 78.8694C161.322 78.8372 161.303 78.7933 161.302 78.7472C161.302 78.6029 160.95 64.0208 160.911 53.0886C160.911 53.0656 160.915 53.0428 160.923 53.0215C160.932 53.0002 160.944 52.9807 160.96 52.9643C160.977 52.948 160.996 52.9349 161.017 52.9261C161.038 52.9172 161.061 52.9126 161.084 52.9126C161.13 52.9126 161.175 52.9305 161.208 52.9627C161.242 52.9948 161.262 53.0387 161.263 53.0851C161.316 64.0138 161.651 78.5959 161.655 78.7402C161.655 78.7633 161.651 78.7863 161.642 78.8078C161.634 78.8294 161.621 78.849 161.605 78.8657C161.589 78.8823 161.57 78.8957 161.549 78.905C161.528 78.9142 161.505 78.9192 161.482 78.9197H161.478Z" fill="#35375B"/>
<path d="M163.499 106.933C163.452 106.941 163.404 106.929 163.366 106.902C163.328 106.874 163.302 106.832 163.294 106.785C163.287 106.739 163.298 106.691 163.326 106.653C163.354 106.615 163.396 106.589 163.442 106.581C188.303 98.2854 187.666 92.7594 186.782 85.1111L186.694 84.3473C185.99 77.9168 179.256 48.5871 170.501 38.7812C170.485 38.7639 170.473 38.7437 170.466 38.7217C170.458 38.6998 170.455 38.6766 170.456 38.6534C170.457 38.6302 170.463 38.6074 170.473 38.5865C170.483 38.5656 170.497 38.5468 170.515 38.5313C170.532 38.5158 170.552 38.5039 170.574 38.4963C170.596 38.4886 170.619 38.4853 170.643 38.4866C170.666 38.4879 170.689 38.4938 170.709 38.5039C170.73 38.514 170.749 38.5281 170.765 38.5454C179.565 48.4006 186.321 77.8535 187.043 84.3016L187.131 85.0618C188.032 92.8756 188.683 98.5212 163.544 106.909L163.499 106.933Z" fill="#35375B"/>
<path d="M135.502 92.2666L143.025 88.6061C143.32 88.4603 143.652 88.4081 143.977 88.4566C144.303 88.505 144.605 88.6518 144.845 88.8771C147.439 91.3585 155.153 99.6369 153.347 108.785C153.281 109.084 153.141 109.362 152.939 109.592C152.737 109.822 152.48 109.997 152.192 110.101L144.028 113.135C143.818 113.218 143.591 113.252 143.365 113.236C143.14 113.219 142.92 113.153 142.724 113.04C142.528 112.927 142.359 112.772 142.231 112.586C142.103 112.399 142.018 112.186 141.983 111.963C140.885 103.766 136.885 97.4688 134.844 94.7163C134.701 94.5195 134.604 94.2933 134.56 94.0543C134.516 93.8153 134.526 93.5694 134.589 93.3347C134.652 93.1 134.767 92.8823 134.925 92.6975C135.083 92.5127 135.28 92.3655 135.502 92.2666Z" fill="#D0CECE"/>
<path d="M143.49 113.41C143.178 113.41 142.873 113.326 142.606 113.167C142.394 113.042 142.214 112.871 142.079 112.666C141.943 112.461 141.856 112.228 141.824 111.984C140.744 103.949 136.896 97.7751 134.717 94.8115C134.562 94.6028 134.455 94.3623 134.403 94.1073C134.352 93.8523 134.358 93.5891 134.421 93.3367C134.487 93.0705 134.611 92.8223 134.785 92.6099C134.958 92.3975 135.177 92.2262 135.424 92.1083L135.502 92.2667L135.424 92.1083L142.954 88.4549C143.285 88.2911 143.658 88.2336 144.022 88.2903C144.386 88.347 144.724 88.5152 144.989 88.7717C153.181 96.7614 154.142 104.044 153.491 108.742C153.437 109.092 153.289 109.42 153.064 109.692C152.838 109.964 152.543 110.17 152.209 110.288L144.113 113.3C143.913 113.374 143.702 113.411 143.49 113.41ZM143.75 88.6238C143.527 88.6224 143.306 88.673 143.106 88.7717L135.579 92.4251C135.378 92.5207 135.201 92.6595 135.059 92.8317C134.918 93.0039 134.817 93.2052 134.763 93.4212C134.712 93.623 134.708 93.8333 134.748 94.0372C134.789 94.2411 134.875 94.4334 134.998 94.6003C137.209 97.5921 141.082 103.822 142.173 111.938C142.198 112.129 142.267 112.311 142.373 112.472C142.479 112.632 142.62 112.766 142.785 112.864C142.964 112.97 143.165 113.035 143.372 113.053C143.579 113.071 143.788 113.043 143.982 112.97L152.079 109.957C152.352 109.861 152.595 109.694 152.781 109.472C152.967 109.25 153.089 108.982 153.135 108.697C153.765 104.075 152.822 96.9127 144.739 89.0216C144.473 88.767 144.119 88.6246 143.75 88.6238Z" fill="#35375B"/>
<path d="M140.617 93.5233C140.047 93.7556 139.445 93.6008 139.269 93.1714C139.093 92.742 139.413 92.2281 139.973 91.9993C140.533 91.7705 141.145 91.9219 141.321 92.3513C141.497 92.7807 141.184 93.2946 140.617 93.5233Z" fill="#35375B"/>
<path d="M126.532 108.813H125.888C124.462 108.813 121.121 108.813 119.516 108.552C114.873 107.778 113.458 106.511 113.401 106.458C113.384 106.442 113.37 106.423 113.36 106.402C113.351 106.381 113.345 106.358 113.344 106.335C113.343 106.312 113.347 106.289 113.355 106.267C113.363 106.245 113.375 106.225 113.391 106.208C113.406 106.191 113.425 106.177 113.446 106.167C113.467 106.158 113.49 106.152 113.513 106.151C113.537 106.15 113.56 106.154 113.582 106.162C113.603 106.17 113.623 106.182 113.641 106.198C113.641 106.198 115.049 107.454 119.576 108.207C121.149 108.468 124.469 108.461 125.884 108.461C126.303 108.461 126.49 108.461 126.546 108.461C126.593 108.461 126.638 108.479 126.671 108.512C126.704 108.545 126.722 108.59 126.722 108.637C126.722 108.683 126.704 108.728 126.671 108.761C126.638 108.794 126.593 108.813 126.546 108.813H126.532Z" fill="#35375B"/>
<path d="M120.787 111.663H120.759C116.122 110.889 113.44 108.809 113.412 108.788C113.393 108.774 113.378 108.756 113.367 108.736C113.355 108.715 113.348 108.693 113.345 108.67C113.342 108.647 113.344 108.624 113.351 108.601C113.357 108.579 113.367 108.558 113.382 108.54C113.396 108.522 113.414 108.506 113.434 108.495C113.454 108.484 113.477 108.476 113.5 108.473C113.523 108.471 113.546 108.472 113.568 108.479C113.591 108.485 113.612 108.496 113.63 108.51C113.655 108.531 116.274 110.558 120.815 111.326C120.838 111.327 120.861 111.334 120.881 111.344C120.902 111.355 120.92 111.369 120.935 111.387C120.95 111.405 120.962 111.425 120.969 111.447C120.976 111.469 120.979 111.493 120.977 111.516C120.975 111.539 120.969 111.561 120.958 111.582C120.948 111.603 120.933 111.621 120.915 111.636C120.898 111.651 120.877 111.662 120.855 111.67C120.833 111.677 120.81 111.679 120.787 111.678V111.663Z" fill="#35375B"/>
<path d="M32.4014 48.6259L64.7498 73.7672L119.861 56.7459L89.2161 42.3433L32.4014 48.6259Z" fill="#E4E4E4"/>
<path d="M64.7499 73.943C64.7116 73.9444 64.6741 73.9319 64.6443 73.9078L32.2959 48.763C32.2683 48.7414 32.2476 48.7123 32.2363 48.6792C32.2251 48.646 32.2238 48.6103 32.2325 48.5764C32.243 48.5431 32.2629 48.5134 32.2897 48.4909C32.3165 48.4685 32.3492 48.4542 32.3839 48.4497L89.1987 42.167C89.2298 42.1585 89.2626 42.1585 89.2937 42.167L119.921 56.5732C119.953 56.5879 119.98 56.6124 119.998 56.6434C120.016 56.6744 120.023 56.7102 120.019 56.7457C120.017 56.781 120.004 56.8148 119.982 56.8425C119.96 56.8702 119.93 56.8905 119.896 56.9005L64.8027 73.9359C64.7857 73.9417 64.7678 73.9441 64.7499 73.943ZM32.838 48.7524L64.771 73.5734L119.361 56.7105L89.174 42.5225L32.838 48.7524Z" fill="#35375B"/>
<path d="M70.6185 68.016C70.5933 68.0158 70.5684 68.0104 70.5453 68.0001C70.5223 67.9898 70.5017 67.9748 70.4847 67.9562C70.453 67.9175 67.1861 64.1796 63.092 61.8565C61.9584 61.2089 58.9626 58.9211 55.7908 56.4996C52.1578 53.726 48.3981 50.868 46.9689 50.0831C46.9482 50.0724 46.9298 50.0576 46.9149 50.0397C46.9 50.0219 46.8887 50.0012 46.8819 49.9789C46.875 49.9566 46.8726 49.9332 46.8748 49.91C46.8771 49.8868 46.8839 49.8643 46.8949 49.8438C46.9179 49.8033 46.9557 49.7734 47.0004 49.7602C47.045 49.7471 47.0931 49.7518 47.1343 49.7734C48.5917 50.5618 52.362 53.4374 56.0056 56.2215C59.1739 58.636 62.1556 60.9133 63.268 61.5503C67.3974 63.905 70.6994 67.6852 70.7347 67.7239C70.7649 67.7596 70.7799 67.8057 70.7767 67.8524C70.7734 67.8991 70.752 67.9427 70.717 67.9738C70.6889 67.997 70.6547 68.0117 70.6185 68.016Z" fill="#FD4C00"/>
<path d="M79.3878 65.0347C79.3454 65.0345 79.3043 65.0196 79.2717 64.9924C79.1555 64.8904 67.4011 54.6867 58.748 49.0376C58.7252 49.027 58.7049 49.0115 58.6886 48.9924C58.6722 48.9732 58.6602 48.9508 58.6533 48.9265C58.6463 48.9023 58.6447 48.8769 58.6484 48.852C58.6522 48.8271 58.6612 48.8033 58.675 48.7822C58.6887 48.761 58.7068 48.7431 58.7281 48.7296C58.7493 48.7161 58.7732 48.7073 58.7982 48.7038C58.8231 48.7004 58.8485 48.7023 58.8727 48.7095C58.8968 48.7166 58.9192 48.7289 58.9382 48.7455C67.6158 54.4087 79.3843 64.6264 79.504 64.7285C79.5216 64.7433 79.536 64.7615 79.5465 64.7821C79.5569 64.8026 79.5631 64.825 79.5648 64.8479C79.5664 64.8709 79.5634 64.894 79.556 64.9157C79.5486 64.9375 79.5369 64.9576 79.5216 64.9748C79.5052 64.9942 79.4847 65.0097 79.4616 65.02C79.4384 65.0304 79.4132 65.0354 79.3878 65.0347Z" fill="#FD4C00"/>
<path d="M87.2239 62.6804C87.183 62.681 87.1432 62.6673 87.1113 62.6417C84.4275 60.5167 81.6049 58.5731 78.6624 56.8236C74.8781 54.6625 71.3366 51.9453 66.8165 47.7357C66.8 47.7194 66.7869 47.6999 66.7779 47.6785C66.769 47.657 66.7644 47.634 66.7644 47.6108C66.7644 47.5876 66.769 47.5646 66.7779 47.5431C66.7869 47.5217 66.8 47.5022 66.8165 47.4858C66.8325 47.4695 66.8517 47.4564 66.8728 47.4475C66.894 47.4387 66.9167 47.4341 66.9397 47.4341C66.9626 47.4341 66.9853 47.4387 67.0065 47.4475C67.0276 47.4564 67.0468 47.4695 67.0629 47.4858C71.5619 51.6708 75.0823 54.3739 78.8314 56.5174C81.7924 58.2759 84.6326 60.2302 87.3331 62.3672C87.3693 62.3962 87.3927 62.4384 87.3979 62.4846C87.4032 62.5307 87.39 62.5771 87.3612 62.6135C87.345 62.6345 87.3242 62.6514 87.3004 62.663C87.2766 62.6746 87.2504 62.6806 87.2239 62.6804Z" fill="#FD4C00"/>
<path d="M93.9548 60.0018C93.912 59.9997 93.8712 59.9837 93.8386 59.956C93.7224 59.8539 81.9469 49.5447 76.0503 46.5424C76.0095 46.5206 75.9787 46.484 75.9643 46.44C75.9499 46.3961 75.9529 46.3483 75.9729 46.3066C75.9833 46.2856 75.9979 46.2669 76.0156 46.2516C76.0334 46.2363 76.054 46.2247 76.0763 46.2175C76.0986 46.2103 76.1221 46.2076 76.1455 46.2096C76.1688 46.2116 76.1915 46.2183 76.2123 46.2291C82.1476 49.2491 93.9548 59.5864 94.0709 59.692C94.1034 59.7255 94.1216 59.7703 94.1216 59.817C94.1216 59.8636 94.1034 59.9084 94.0709 59.9419C94.0409 59.9755 93.9995 59.9968 93.9548 60.0018Z" fill="#FD4C00"/>
<path d="M103.695 57.3899C103.646 57.3886 103.6 57.3685 103.565 57.3336C103.537 57.2984 100.499 54.0391 96.8096 52.054C95.2887 51.3041 93.7226 50.6493 92.1205 50.0936C88.9064 48.8863 85.2593 47.5206 82.7599 45.3384C82.7274 45.3049 82.7092 45.2601 82.7092 45.2135C82.7092 45.1668 82.7274 45.122 82.7599 45.0885C82.7747 45.0709 82.793 45.0565 82.8135 45.0461C82.834 45.0356 82.8564 45.0294 82.8794 45.0278C82.9023 45.0261 82.9254 45.0291 82.9472 45.0365C82.969 45.0439 82.9891 45.0556 83.0063 45.0709C85.4705 47.2144 89.0754 48.5695 92.2613 49.7627C93.8789 50.3252 95.4602 50.987 96.9962 51.7443C100.738 53.7576 103.812 57.0591 103.843 57.0943C103.876 57.1272 103.894 57.1714 103.894 57.2174C103.894 57.2635 103.876 57.3077 103.843 57.3406C103.824 57.3594 103.801 57.3736 103.775 57.3821C103.749 57.3907 103.722 57.3933 103.695 57.3899Z" fill="#FD4C00"/>
<path d="M42.1248 6.15002L54.548 26.2511C54.548 26.2511 63.8382 11.6795 96.6301 33.7375L88.4946 19.979C50.563 -6.43997 42.1248 6.15002 42.1248 6.15002Z" fill="#E4E4E4"/>
<path d="M96.6302 33.9241C96.5948 33.9238 96.5604 33.9128 96.5316 33.8924C78.7644 21.943 68.0169 20.8941 62.1097 22.1154C56.7553 23.2241 54.717 26.3391 54.6959 26.3391C54.6805 26.3643 54.6587 26.3851 54.6328 26.3993C54.6068 26.4135 54.5776 26.4207 54.548 26.42C54.5181 26.4203 54.4885 26.413 54.462 26.3988C54.4356 26.3847 54.4131 26.3641 54.3967 26.3391L41.991 6.24156C41.9728 6.2132 41.9631 6.18022 41.9631 6.14653C41.9631 6.11283 41.9728 6.07985 41.991 6.05149C42.0473 5.96702 43.3991 4.00654 47.3842 3.25685C53.6292 2.08126 65.8624 4.00654 88.5932 19.8452C88.6141 19.8592 88.6321 19.8771 88.646 19.898L96.7815 33.6566C96.8019 33.6911 96.8099 33.7316 96.8041 33.7713C96.7984 33.8109 96.7792 33.8475 96.7498 33.8748C96.7341 33.8905 96.7154 33.9029 96.6949 33.9113C96.6744 33.9198 96.6524 33.9241 96.6302 33.9241ZM66.1476 21.3622C72.456 21.3622 82.0841 23.8612 96.0704 33.1603L88.3468 20.1022C65.7814 4.37963 53.6609 2.44731 47.4686 3.59826C44.1032 4.22476 42.6493 5.7664 42.343 6.1606L54.5586 25.9343C55.1324 25.1776 57.3045 22.7455 62.0217 21.7635C63.3795 21.4881 64.7621 21.3536 66.1476 21.3622Z" fill="#35375B"/>
<path d="M57.9203 20.785C57.8791 20.7855 57.839 20.7713 57.8073 20.7448C57.7757 20.7183 57.7546 20.6814 57.7478 20.6407C57.7478 20.5949 56.903 16.0193 54.752 13.1261C53.82 11.9037 52.7974 10.753 51.6929 9.68382C50.3974 8.37801 49.1723 7.14611 48.0634 5.1082C48.0516 5.0882 48.044 5.06604 48.041 5.04303C48.038 5.02003 48.0397 4.99665 48.0459 4.9743C48.0522 4.95196 48.0628 4.9311 48.0773 4.91298C48.0918 4.89487 48.1098 4.87986 48.1303 4.86886C48.1506 4.85771 48.1729 4.85069 48.196 4.84819C48.219 4.8457 48.2423 4.84778 48.2646 4.85432C48.2868 4.86086 48.3076 4.87173 48.3256 4.88631C48.3436 4.90088 48.3586 4.91888 48.3697 4.93925C49.4574 6.93141 50.6649 8.14923 51.9428 9.43744C53.0603 10.5174 54.0935 11.6811 55.0337 12.9184C57.2339 15.8785 58.0858 20.5316 58.0928 20.5773C58.1011 20.623 58.0909 20.6702 58.0645 20.7084C58.0381 20.7466 57.9977 20.7729 57.952 20.7815L57.9203 20.785Z" fill="#FD4C00"/>
<path d="M65.1797 19.5811C65.1393 19.5805 65.1003 19.5662 65.069 19.5407C65.0376 19.5151 65.0159 19.4797 65.0072 19.4403C65.0072 19.3523 63.1731 10.7713 57.2625 6.78695C57.225 6.7594 57.1993 6.71859 57.1908 6.67281C57.1823 6.62704 57.1916 6.57975 57.2167 6.54057C57.2431 6.50256 57.2834 6.47645 57.3288 6.46789C57.3743 6.45932 57.4213 6.469 57.4596 6.49481C63.4829 10.5601 65.3275 19.2819 65.3451 19.3699C65.3498 19.3926 65.3499 19.4159 65.3455 19.4386C65.3411 19.4613 65.3323 19.4829 65.3195 19.5022C65.3068 19.5215 65.2903 19.538 65.2712 19.551C65.252 19.5639 65.2305 19.5729 65.2078 19.5776L65.1797 19.5811Z" fill="#FD4C00"/>
<path d="M73.2306 20.1974C73.1869 20.1967 73.145 20.1797 73.1131 20.1498C73.0812 20.1198 73.0616 20.0791 73.0581 20.0355C73.0581 19.9757 72.516 14.1963 67.2672 9.55733C67.2347 9.52384 67.2166 9.47902 67.2166 9.43238C67.2166 9.38573 67.2347 9.34092 67.2672 9.30743C67.2835 9.29093 67.303 9.27784 67.3245 9.26891C67.3459 9.25997 67.3689 9.25537 67.3922 9.25537C67.4154 9.25537 67.4384 9.25997 67.4598 9.26891C67.4813 9.27784 67.5008 9.29093 67.5171 9.30743C72.875 14.045 73.4207 19.9616 73.4242 20.0214C73.4281 20.0676 73.4137 20.1134 73.384 20.149C73.3544 20.1846 73.3119 20.207 73.2658 20.2115L73.2306 20.1974Z" fill="#FD4C00"/>
<path d="M81.7145 23.7905C81.6723 23.791 81.6313 23.7764 81.599 23.7492C81.5667 23.7221 81.5453 23.6843 81.5385 23.6426C81.5385 23.5898 80.6267 18.0921 76.9058 14.0831C76.8894 14.067 76.8763 14.0479 76.8675 14.0267C76.8586 14.0056 76.854 13.9829 76.854 13.9599C76.854 13.937 76.8586 13.9143 76.8675 13.8931C76.8763 13.8719 76.8894 13.8528 76.9058 13.8367C76.9221 13.8202 76.9416 13.8071 76.963 13.7982C76.9845 13.7893 77.0075 13.7847 77.0307 13.7847C77.054 13.7847 77.077 13.7893 77.0984 13.7982C77.1199 13.8071 77.1394 13.8202 77.1557 13.8367C80.9506 17.9266 81.8694 23.5265 81.88 23.5828C81.8835 23.6057 81.8824 23.629 81.8769 23.6515C81.8713 23.674 81.8614 23.6951 81.8477 23.7138C81.8339 23.7324 81.8167 23.7482 81.7968 23.7601C81.777 23.7721 81.755 23.78 81.7321 23.7834L81.7145 23.7905Z" fill="#FD4C00"/>
<path d="M88.8539 26.6346C88.8172 26.6349 88.7814 26.6234 88.7516 26.6019C88.7218 26.5803 88.6997 26.5499 88.6885 26.5149C88.271 25.3363 87.7306 24.205 87.0762 23.1395C86.6467 22.3898 86.1116 21.4536 85.4287 20.102C85.4178 20.0815 85.4113 20.0591 85.4093 20.036C85.4074 20.0129 85.4101 19.9897 85.4173 19.9677C85.4245 19.9457 85.4361 19.9253 85.4514 19.9079C85.4666 19.8905 85.4852 19.8763 85.5061 19.8662C85.5478 19.8463 85.5956 19.8432 85.6396 19.8576C85.6835 19.872 85.7202 19.9028 85.742 19.9436C86.4214 21.2846 86.953 22.2174 87.3789 22.9671C88.0472 24.0489 88.5972 25.1994 89.0194 26.3988C89.0353 26.4427 89.033 26.491 89.0132 26.5333C88.9934 26.5755 88.9577 26.6082 88.9138 26.624C88.8946 26.6309 88.8743 26.6345 88.8539 26.6346Z" fill="#FD4C00"/>
<path d="M15.6799 64.6828L34.5102 87.4413C34.5102 87.4413 69.4777 91.7916 89.2832 75.4567L69.175 61.8882C51.8479 79.9056 15.6799 64.6828 15.6799 64.6828Z" fill="#E4E4E4"/>
<path d="M45.1064 88.1277C41.5603 88.1482 38.0158 87.9731 34.489 87.6033C34.444 87.5967 34.4027 87.5743 34.3728 87.5399L15.5461 64.7815C15.5212 64.7512 15.5076 64.7133 15.5076 64.6741C15.5076 64.635 15.5212 64.597 15.5461 64.5668C15.5687 64.5346 15.6016 64.5112 15.6394 64.5003C15.6772 64.4894 15.7175 64.4918 15.7538 64.5069C22.2632 67.0616 29.0462 68.8556 35.9676 69.8534C46.1519 71.2613 60.1593 71.0008 69.0588 61.7581C69.0874 61.7281 69.1257 61.7092 69.1669 61.7047C69.2081 61.7001 69.2496 61.7103 69.2841 61.7334L89.3923 75.3019C89.4148 75.3174 89.4334 75.3378 89.4469 75.3616C89.4603 75.3854 89.4681 75.4119 89.4697 75.4392C89.4706 75.4664 89.4653 75.4935 89.4544 75.5185C89.4434 75.5435 89.427 75.5657 89.4063 75.5835C79.141 84.0519 64.764 86.8712 54.4951 87.7476C51.0804 88.0397 47.8909 88.1277 45.1064 88.1277ZM34.5982 87.2759C36.3583 87.4766 69.8544 91.0526 88.9839 75.4638L69.1961 62.11C60.1875 71.3704 46.1308 71.6344 35.9007 70.2054C29.1835 69.2298 22.5946 67.5159 16.2537 65.0947L34.5982 87.2759Z" fill="#35375B"/>
<path d="M39.847 83.4639C39.8085 83.4637 39.7711 83.4508 39.7405 83.4273C39.71 83.4038 39.6881 83.3709 39.678 83.3337C39.6717 83.3115 39.6698 83.2882 39.6726 83.2653C39.6754 83.2424 39.6827 83.2203 39.6942 83.2003C39.7057 83.1802 39.7211 83.1627 39.7395 83.1488C39.7579 83.1348 39.7789 83.1247 39.8013 83.119L42.871 82.2883C41.1108 81.5175 39.5091 80.6763 37.8087 79.7858C36.1084 78.8953 34.3201 77.9661 32.391 77.1214C32.3696 77.1122 32.3504 77.0989 32.3343 77.0822C32.3183 77.0654 32.3058 77.0456 32.2976 77.0239C32.2893 77.0022 32.2856 76.9791 32.2865 76.956C32.2874 76.9328 32.293 76.91 32.303 76.8891C32.3117 76.8679 32.3247 76.8487 32.3411 76.8327C32.3575 76.8167 32.377 76.8042 32.3984 76.7959C32.4199 76.7877 32.4427 76.7839 32.4656 76.7848C32.4886 76.7857 32.5111 76.7912 32.5318 76.8011C34.475 77.6493 36.2528 78.5785 37.9707 79.4761C39.8118 80.4369 41.5544 81.345 43.473 82.1651C43.5068 82.1786 43.5354 82.2027 43.5544 82.2338C43.5734 82.2649 43.5819 82.3013 43.5786 82.3376C43.5764 82.3738 43.563 82.4085 43.5403 82.4369C43.5176 82.4652 43.4867 82.4859 43.4518 82.496L39.8787 83.4569L39.847 83.4639Z" fill="#FD4C00"/>
<path d="M47.4618 85.1252L38.4497 84.907C38.4206 84.9108 38.391 84.907 38.3638 84.8959C38.3367 84.8847 38.3129 84.8668 38.2948 84.8437L33.9824 79.5887C33.9598 79.562 33.9458 79.5292 33.942 79.4944C33.9382 79.4596 33.9448 79.4245 33.961 79.3936C33.9773 79.3626 34.0024 79.3372 34.0331 79.3205C34.0639 79.3039 34.0989 79.2968 34.1337 79.3001L43.1141 80.0921C43.1603 80.0958 43.2031 80.1173 43.2338 80.1519C43.6246 80.6094 43.959 81.0213 44.2899 81.4084C45.2531 82.6676 46.3601 83.8098 47.5885 84.812C47.6171 84.8349 47.6378 84.8662 47.6478 84.9015C47.6577 84.9368 47.6564 84.9743 47.644 85.0088C47.6316 85.0433 47.6087 85.0731 47.5786 85.0939C47.5484 85.1148 47.5125 85.1258 47.4758 85.1252H47.4618ZM38.499 84.5586L46.9478 84.7592C45.8573 83.8193 44.8653 82.7709 43.9872 81.6302C43.6879 81.2782 43.3676 80.8699 42.998 80.437L34.5175 79.6802L37.8935 83.7913C38.2068 84.1819 38.3934 84.4107 38.499 84.5586Z" fill="#35375B"/>
<path d="M53.0028 85.0586C52.9764 85.0583 52.9504 85.0521 52.9267 85.0405C52.903 85.029 52.8821 85.0123 52.8655 84.9918C52.7986 84.9108 46.198 76.7416 41.8152 73.3767C41.7815 73.3472 41.7603 73.306 41.756 73.2614C41.7516 73.2168 41.7645 73.1722 41.7918 73.1368C41.8192 73.1013 41.8591 73.0777 41.9033 73.0706C41.9476 73.0635 41.9928 73.0735 42.0299 73.0987C46.4444 76.4706 53.0732 84.675 53.1401 84.756C53.1616 84.7818 53.1753 84.8132 53.1795 84.8466C53.1837 84.88 53.1783 84.9138 53.1638 84.9442C53.1494 84.9745 53.1265 85.0001 53.098 85.0179C53.0695 85.0357 53.0364 85.045 53.0028 85.0446V85.0586Z" fill="#FD4C00"/>
<path d="M57.5897 85.0124C57.5641 85.0124 57.5388 85.0068 57.5157 84.9958C57.4926 84.9848 57.4722 84.9689 57.456 84.949C57.382 84.8575 50.014 75.8823 45.6276 72.535C45.5916 72.506 45.5682 72.4641 45.5623 72.4182C45.5564 72.3723 45.5684 72.3259 45.5959 72.2887C45.6098 72.2702 45.6272 72.2546 45.6471 72.2428C45.667 72.231 45.689 72.2233 45.7118 72.22C45.7347 72.2168 45.758 72.218 45.7804 72.2238C45.8028 72.2295 45.8239 72.2396 45.8424 72.2535C50.2569 75.6289 57.6531 84.6358 57.727 84.7273C57.7419 84.7449 57.7531 84.7654 57.76 84.7875C57.7668 84.8095 57.7691 84.8327 57.7668 84.8557C57.7645 84.8787 57.7577 84.901 57.7466 84.9212C57.7355 84.9415 57.7205 84.9593 57.7024 84.9737C57.6711 85.0004 57.6308 85.0143 57.5897 85.0124Z" fill="#FD4C00"/>
<path d="M62.4758 81.75C62.4485 81.7497 62.4217 81.7433 62.3973 81.7311C62.3729 81.7189 62.3516 81.7013 62.335 81.6796C62.3066 81.6427 62.294 81.5961 62.2999 81.5499C62.3059 81.5037 62.3299 81.4618 62.3667 81.4332L64.7676 79.5854C63.12 79.2545 61.7506 78.8814 60.3038 78.4872C58.8569 78.093 57.3502 77.6847 55.5231 77.3152C55.5006 77.311 55.4792 77.3023 55.46 77.2897C55.4409 77.2771 55.4245 77.2609 55.4117 77.2419C55.3989 77.2229 55.39 77.2015 55.3856 77.179C55.3812 77.1566 55.3812 77.1334 55.3858 77.111C55.39 77.088 55.3988 77.0661 55.4116 77.0466C55.4243 77.027 55.4409 77.0102 55.4602 76.9971C55.4795 76.984 55.5013 76.9749 55.5242 76.9703C55.5471 76.9657 55.5706 76.9656 55.5935 76.9702C57.4312 77.3222 58.9379 77.7516 60.3953 78.1493C61.9478 78.5682 63.4087 78.9694 65.2181 79.3144C65.2513 79.3214 65.2819 79.3377 65.3062 79.3614C65.3305 79.3851 65.3475 79.4151 65.3554 79.4481C65.3624 79.481 65.3601 79.5151 65.3489 79.5467C65.3378 79.5784 65.3181 79.6064 65.2921 79.6276L62.5814 81.7148C62.5513 81.7384 62.514 81.7508 62.4758 81.75Z" fill="#FD4C00"/>
<path d="M61.5641 83.9037C61.5251 83.9037 61.4872 83.891 61.4561 83.8675C61.4249 83.844 61.4023 83.811 61.3916 83.7735C61.3853 83.7511 61.3836 83.7276 61.3866 83.7045C61.3896 83.6814 61.3972 83.6592 61.4091 83.6391C61.4209 83.619 61.4367 83.6016 61.4555 83.5878C61.4743 83.574 61.4956 83.5641 61.5183 83.5588L69.689 81.4399C68.0102 80.429 66.4329 79.2586 64.9788 77.9449L56.8821 78.7368L58.7373 80.465C59.547 81.2182 59.9448 81.5878 60.1454 81.7884C60.1713 81.7963 60.1953 81.8095 60.2158 81.8271V81.8482C60.332 81.989 60.3003 82.0207 60.251 82.0805C60.2175 82.113 60.1727 82.1312 60.1261 82.1312C60.0794 82.1312 60.0346 82.113 60.0011 82.0805L56.5582 78.8741C56.3575 78.6875 56.2766 78.6101 56.3962 78.4834C56.4249 78.4505 56.4654 78.4303 56.5089 78.4271L65.0211 77.5683C65.0453 77.5658 65.0699 77.5686 65.093 77.5765C65.1161 77.5844 65.1372 77.5972 65.1548 77.614C66.9537 79.226 67.8021 79.7927 70.2171 81.3414C70.245 81.3607 70.2671 81.3873 70.2808 81.4184C70.2945 81.4495 70.2992 81.4838 70.2945 81.5174C70.2894 81.5516 70.2743 81.5835 70.2511 81.6091C70.228 81.6348 70.1978 81.6531 70.1643 81.6617L61.6063 83.9037H61.5641Z" fill="#35375B"/>
<path d="M73.4559 81.1589C73.4298 81.1578 73.4042 81.151 73.3811 81.1388C73.3579 81.1266 73.3378 81.1094 73.3221 81.0885C73.2693 81.0287 67.76 75.0311 63.2469 72.8946C63.2261 72.8845 63.2075 72.8703 63.1921 72.853C63.1768 72.8356 63.165 72.8154 63.1575 72.7935C63.15 72.7716 63.1468 72.7484 63.1483 72.7253C63.1498 72.7022 63.1558 72.6796 63.166 72.6588C63.1754 72.6378 63.189 72.6189 63.2059 72.6032C63.2228 72.5875 63.2426 72.5754 63.2643 72.5675C63.286 72.5596 63.309 72.5562 63.332 72.5574C63.355 72.5585 63.3776 72.5643 63.3983 72.5743C67.9748 74.746 73.5263 80.7893 73.5826 80.8527C73.599 80.8687 73.6121 80.8879 73.621 80.909C73.6298 80.9302 73.6344 80.9529 73.6344 80.9759C73.6344 80.9988 73.6298 81.0215 73.621 81.0427C73.6121 81.0638 73.599 81.083 73.5826 81.099C73.5667 81.1172 73.5473 81.1318 73.5255 81.1421C73.5037 81.1524 73.48 81.1581 73.4559 81.1589Z" fill="#FD4C00"/>
<path d="M77.328 79.5007C77.2805 79.5005 77.2349 79.4816 77.2013 79.4479C77.1274 79.374 69.9917 72.0565 65.4786 69.9094C65.4576 69.9 65.4387 69.8864 65.423 69.8695C65.4073 69.8526 65.3952 69.8328 65.3873 69.8111C65.3795 69.7895 65.376 69.7665 65.3772 69.7434C65.3783 69.7204 65.3841 69.6979 65.3941 69.6771C65.414 69.6354 65.4495 69.6031 65.493 69.5873C65.5364 69.5714 65.5844 69.5734 65.6265 69.5927C70.2029 71.7608 77.3808 79.1276 77.4512 79.2015C77.4754 79.2261 77.4917 79.2572 77.4983 79.291C77.5049 79.3248 77.5014 79.3598 77.4883 79.3917C77.4752 79.4236 77.453 79.4509 77.4245 79.4702C77.396 79.4896 77.3625 79.5002 77.328 79.5007Z" fill="#FD4C00"/>
</g>
<defs>
<clipPath id="clip0_298_10615">
<rect width="206" height="133" fill="white"/>
</clipPath>
</defs>
</svg>
