<svg width="196" height="211" viewBox="0 0 196 211" fill="none" xmlns="http://www.w3.org/2000/svg">
<g clip-path="url(#clip0_298_10189)">
<path d="M39.272 18.3677L47.7386 21.6821C49.2239 22.3252 50.4122 23.4135 51.1549 24.8481L54.3237 30.8339L51.9966 31.7738L48.5308 29.6466L46.7978 32.6147L42.0447 30.5865L44.2727 26.7774C44.2727 26.7774 43.7281 25.046 42.8864 25.3923C41.9952 25.7386 40.2127 29.0035 37.6381 28.1625L37.5391 27.3216C37.5391 27.3216 40.4108 26.9753 42.0447 23.8093C42.0447 23.8093 42.3913 22.8694 41.9952 22.5725C41.5495 22.2757 38.4798 20.297 38.4798 20.297L39.272 18.3677Z" fill="#35375B"/>
<path d="M42.3417 30.5376L23.1309 53.0955C21.3485 55.1732 22.1902 58.3392 24.7648 59.2791L38.2817 64.226C40.6582 65.1165 43.2329 63.5334 43.4804 61.0105L46.8968 32.1701L42.3417 30.5376Z" fill="white"/>
<path d="M39.6185 64.8195C39.1234 64.8195 38.6282 64.7206 38.1331 64.5722L24.6163 59.6253C23.2795 59.1306 22.3387 58.0917 21.9426 56.7066C21.5465 55.3215 21.8931 53.9364 22.8338 52.848L42.1931 30.0923L47.2929 31.9226L43.827 61.0599C43.6785 62.3461 42.9358 63.4839 41.8465 64.1764C41.1534 64.6217 40.4107 64.8195 39.6185 64.8195ZM42.4407 30.9332L23.428 53.3427C22.6853 54.2332 22.3882 55.4204 22.6853 56.5582C22.9824 57.696 23.7746 58.5864 24.9134 58.9822L38.4302 63.9291C39.4699 64.3249 40.5592 64.1764 41.4999 63.6323C42.4407 63.0387 43.0348 62.0987 43.1833 61.0104L46.5502 32.4668L42.4407 30.9332Z" fill="#35375B"/>
<path d="M39.272 18.3677L47.7386 21.6821C49.2239 22.3252 50.4122 23.4135 51.1549 24.8481L54.3237 30.8339L51.9966 31.7738L48.5308 29.6466L46.7978 32.6147L42.0447 30.5865L44.2727 26.7774C44.2727 26.7774 43.7281 25.046 42.8864 25.3923C41.9952 25.7386 40.2127 29.0035 37.6381 28.1625L37.5391 27.3216C37.5391 27.3216 40.4108 26.9753 42.0447 23.8093C42.0447 23.8093 42.3913 22.8694 41.9952 22.5725C41.5495 22.2757 38.4798 20.297 38.4798 20.297L39.272 18.3677Z" fill="#35375B"/>
<path d="M42.1439 43.1518C39.3712 42.4592 36.6976 41.3709 34.0239 40.332L24.5176 51.512C28.3795 52.7982 32.4395 53.3424 36.4995 54.035C39.0741 54.4802 41.6983 54.5791 44.2729 54.8265L45.6098 43.7454C44.4215 43.597 43.2827 43.4486 42.1439 43.1518Z" fill="#D0CECE"/>
<path d="M38.6286 45.3775C38.6286 45.3775 38.282 39.6886 41.5003 38.5508C44.9661 37.3141 48.5805 30.7842 48.5805 30.7842C48.5805 30.7842 51.2046 33.6534 48.2339 39.3423C45.2632 45.0313 45.4612 47.9005 45.4612 47.9005L38.6286 45.3775Z" fill="#F9C5AE"/>
<path d="M48.8279 31.0317C48.8279 31.0317 44.9659 27.1236 41.302 24.3534C40.8069 23.9576 40.0642 24.8975 40.3613 25.4417C41.401 27.6678 46.5008 31.3285 46.5008 31.3285C46.5008 31.3285 41.104 28.6572 40.5098 29.2013C40.1632 29.4982 39.272 31.378 38.5293 32.9115C37.9847 33.9998 38.3808 34.0988 39.3711 34.8408C40.6089 35.7807 41.4506 36.7206 41.4506 36.9185C41.4506 37.3637 39.5196 39.9361 39.3215 40.5792C39.3215 40.5792 45.5105 40.7276 46.8969 39.392C48.4318 37.9574 48.8279 31.0317 48.8279 31.0317Z" fill="#F9C5AE"/>
<path d="M38.7275 32.3672L43.8768 35.1869C43.8768 35.1869 40.7575 33.2082 38.7275 32.3672Z" fill="#35375B"/>
<path d="M39.5693 30.7349L45.9069 33.6041C45.8574 33.6041 41.6488 31.378 39.5693 30.7349Z" fill="#35375B"/>
<path d="M45.2133 46.7628L38.6777 44.9819C38.1825 50.3741 41.3513 72.833 46.5006 78.5714C49.4218 81.8364 52.9867 81.1438 54.5711 80.2534C58.532 78.0273 57.5913 72.9814 55.8089 68.2324C55.6108 67.4903 45.2133 46.7628 45.2133 46.7628Z" fill="#F9C5AE"/>
<path d="M58.2846 205.212C63.9289 205.212 70.9597 200.216 73.9304 192.647H87.9423C87.9423 192.647 86.7045 198.237 88.0414 202.392C89.3782 206.548 89.6258 210.802 86.8036 210.802C83.9814 210.802 72.5936 210.555 67.2958 210.802C61.998 211.049 49.1743 210.802 49.1743 210.802C49.1743 210.802 51.6004 205.212 58.2846 205.212Z" fill="#35375B"/>
<path d="M87.6458 200.81L87.6953 201.304C87.6458 201.304 80.6646 202.096 80.6646 209.021H80.1694C80.1694 201.651 87.5467 200.81 87.6458 200.81Z" fill="white"/>
<path d="M81.9517 204.272L81.5061 204.519C81.4565 204.47 77.7431 198.633 70.4648 198.583V198.088C78.0402 198.187 81.9022 204.223 81.9517 204.272Z" fill="white"/>
<path d="M80.7631 206.449L80.3175 206.696C80.268 206.647 76.3565 200.364 68.6821 200.315V199.82C76.6536 199.919 80.7136 206.399 80.7631 206.449Z" fill="white"/>
<path d="M62.2952 208.823H61.8001C61.8001 205.558 58.9779 205.261 58.8789 205.261L58.9284 204.767C58.9284 204.717 62.2952 205.064 62.2952 208.823Z" fill="white"/>
<path d="M88.9326 208.477C88.685 209.862 88.7841 210.802 86.8036 210.802C84.0309 210.802 72.5936 210.555 67.2958 210.802C61.998 211.049 49.1743 210.802 49.1743 210.802C49.1743 210.802 49.5704 209.912 50.4121 208.873L88.9326 208.477Z" fill="white"/>
<path d="M88.4873 208.823C88.4873 208.823 88.4873 208.873 88.4873 208.823C88.3387 209.961 88.2397 210.456 86.7543 210.456C86.0612 210.456 84.8729 210.456 83.338 210.406C80.8624 210.357 77.4461 210.357 74.2773 210.357C71.158 210.357 68.8804 210.406 67.2465 210.456C65.6622 210.555 63.3351 210.555 60.2158 210.555C55.9083 210.555 51.3036 210.456 49.7688 210.456C49.9668 210.159 50.2144 209.714 50.6105 209.219L88.4873 208.823ZM88.9329 208.477L50.4619 208.873C49.5707 209.912 49.2241 210.802 49.2241 210.802C49.2241 210.802 54.918 210.901 60.2653 210.901C62.939 210.901 65.5631 210.852 67.2961 210.802C69.128 210.703 71.6531 210.703 74.3268 210.703C79.4265 210.703 84.9719 210.802 86.8039 210.802C88.7843 210.802 88.6853 209.862 88.9329 208.477Z" fill="#35375B"/>
<path d="M97.6473 48.7923C104.331 55.2232 104.331 68.382 89.5273 88.8127C86.1605 88.318 72.9407 82.1838 70.2671 76.4454C70.2671 76.4454 74.3271 66.3538 81.2093 55.8663C88.141 45.4284 94.8746 46.1209 97.6473 48.7923Z" fill="#D0CECE"/>
<path d="M101.261 55.6683L101.756 55.5693C103.588 65.1663 100.42 74.1697 89.9229 88.7631L89.5269 88.4662C99.8749 74.0213 103.093 65.1169 101.261 55.6683Z" fill="#35375B"/>
<path d="M82.3478 76.5432C85.17 76.6421 91.359 77.3347 93.9832 81.6385C96.6073 85.9423 99.0829 92.9174 91.161 101.624C91.161 101.624 92.5473 178.697 88.7349 197.149C88.7349 197.149 73.2376 199.771 56.0073 195.912C56.0073 195.912 67.2961 82.1826 69.128 79.2145C70.861 76.1969 79.8227 76.4442 82.3478 76.5432Z" fill="#FD4C00"/>
<path d="M75.8616 138.231H76.3567C76.3567 138.676 78.2382 184.237 75.416 197.445L74.9209 197.346C77.7431 184.188 75.9111 138.676 75.8616 138.231Z" fill="#35375B"/>
<path d="M83.239 77.3842C93.5375 89.9988 84.1302 102.564 84.1302 102.564C88.6358 130.662 107.748 155.991 116.462 165.835C119.185 168.951 120.67 172.909 120.621 177.064C120.571 180.181 120.522 184.683 120.522 191.262C120.522 209.417 106.757 207.24 102.252 206.399C97.7461 205.509 85.3185 197.643 77.1985 181.071C69.0785 164.549 59.4731 103.158 59.4731 93.709C59.4731 83.3205 61.3546 78.9672 64.9195 74.9108C67.6427 71.8437 80.9614 74.614 83.239 77.3842Z" fill="#FD4C00"/>
<path d="M70.6627 131.85C84.0805 172.167 99.3302 190.421 99.4788 190.619L99.0827 190.965C98.9341 190.768 83.6349 172.464 70.1676 132.048C62.6417 109.391 61.3049 82.8261 61.2554 82.5293H61.7505C61.8 82.7272 63.1368 109.292 70.6627 131.85Z" fill="#35375B"/>
<path d="M71.7026 82.4297L71.4551 82.4792L71.5046 82.7266C71.5046 82.776 72.2968 88.4155 71.7026 91.7299L71.6531 91.8783L77.0499 96.6768L81.4565 95.1433L81.506 95.0938C81.6051 94.9454 84.4768 91.1858 83.6846 84.8043V84.6559L83.5856 84.6064C83.437 84.5569 77.5946 81.5888 71.7026 82.4297ZM71.9997 82.9244C77.1985 82.2813 82.2982 84.6064 83.14 85.0021C83.7836 90.6416 81.4565 94.2034 81.0604 94.6981L77.0995 96.0832L72.1482 91.6805C72.6929 88.6629 72.1483 84.0622 71.9997 82.9244Z" fill="#35375B"/>
<path d="M96.1611 85.9921L95.963 86.4373C95.963 86.4373 93.735 85.3985 91.606 85.6953C92.0021 86.7341 93.1408 90.2959 91.606 94.5502L93.7845 98.2604L93.3389 98.5078L91.0613 94.5997L91.1108 94.5008C92.8933 89.7023 91.0613 85.6458 91.0118 85.5964L90.8633 85.2995L91.2099 85.2501C93.5369 84.8049 96.0125 85.9426 96.1611 85.9921Z" fill="#35375B"/>
<path d="M114.828 172.068C117.65 170.93 120.72 173.008 120.67 176.025C120.621 179.142 120.571 183.94 120.571 191.262C120.571 209.417 106.807 207.29 102.301 206.399C94.3792 204.767 99.3304 187.75 105.272 179.785C108.49 175.432 111.907 173.255 114.828 172.068Z" fill="#35375B"/>
<path d="M69.6236 154.903L69.1285 155.002C63.7317 131.158 59.2261 100.437 59.2261 93.7095H59.7212C59.7212 100.437 64.2763 131.108 69.6236 154.903Z" fill="#35375B"/>
<path d="M86.1599 82.6774L86.6055 82.4795C91.0616 92.6206 85.0706 101.673 84.3774 102.712C88.1899 126.161 102.152 147.284 110.173 157.821L109.777 158.118C101.707 147.531 87.6452 126.26 83.8823 102.663V102.564L83.9318 102.465C83.9814 102.366 90.7645 93.0659 86.1599 82.6774Z" fill="#35375B"/>
<path d="M90.7653 45.18C84.0812 49.5828 81.457 46.4662 80.9619 45.7242V36.8692C87.0519 34.9399 90.7653 33.2085 90.7653 33.2085V45.18Z" fill="#F9C5AE"/>
<path d="M86.2597 38.4023C86.2597 38.4023 86.1607 43.5966 80.9619 43.4977V39.5401C81.6551 39.5896 83.7346 39.9854 86.2597 38.4023Z" fill="#35375B"/>
<path d="M79.7239 21.2865C80.8131 21.0391 84.279 21.237 85.4673 21.6822C88.339 22.6716 89.2797 26.0355 90.468 29.7457C90.8146 30.9329 91.0126 33.3569 90.6165 34.2968C89.4778 36.8692 84.3285 40.7278 81.5063 40.7278C76.5056 40.7773 75.7134 33.5053 75.7134 29.3005C75.7134 25.5903 77.5948 21.7812 79.7239 21.2865Z" fill="#F9C5AE"/>
<path d="M78.9809 28.2611L79.0799 28.3106V28.4095C79.0799 28.5085 79.5255 31.1304 78.2382 32.7134C78.1887 32.7628 78.1887 32.8123 78.1887 32.8123C78.2877 33.0596 79.0304 33.4059 79.6741 33.6038L79.5255 34.0985C79.278 34.049 77.8916 33.6038 77.6936 32.9607C77.6441 32.8123 77.6441 32.6144 77.7926 32.3671C78.7828 31.1303 78.5848 29.1021 78.5353 28.6074C78.2877 28.459 77.446 28.1127 76.3072 28.5085L76.1587 28.0138C77.7926 27.5191 78.9314 28.2611 78.9809 28.2611Z" fill="#35375B"/>
<path d="M83.1898 18.8623C90.3691 18.8623 92.102 25.8374 91.6564 28.7561C91.6564 28.7561 86.9528 30.7843 87.3984 27.9151C87.943 24.4523 84.7247 22.9188 82.1006 21.9294C81.1598 22.2262 76.5057 24.2544 75.8125 27.371C75.862 27.371 75.664 18.8623 83.1898 18.8623Z" fill="#35375B"/>
<path d="M85.0715 33.3564L85.5667 33.5049C84.6754 36.1762 81.0115 36.4235 80.863 36.473L80.8135 35.9783C80.8135 35.9288 84.2793 35.6815 85.0715 33.3564Z" fill="#35375B"/>
<path d="M84.5267 26.9257L84.4277 27.4203C82.0016 26.9257 81.3084 28.0635 81.3084 28.1129L80.8628 27.8656C80.8628 27.7666 81.7045 26.332 84.5267 26.9257Z" fill="#35375B"/>
<path d="M83.0904 30.6852C83.5826 30.6852 83.9816 30.2865 83.9816 29.7947C83.9816 29.303 83.5826 28.9043 83.0904 28.9043C82.5982 28.9043 82.1992 29.303 82.1992 29.7947C82.1992 30.2865 82.5982 30.6852 83.0904 30.6852Z" fill="#35375B"/>
<path d="M77.7438 30.6852C78.236 30.6852 78.635 30.2865 78.635 29.7947C78.635 29.303 78.236 28.9043 77.7438 28.9043C77.2516 28.9043 76.8525 29.303 76.8525 29.7947C76.8525 30.2865 77.2516 30.6852 77.7438 30.6852Z" fill="#35375B"/>
<path d="M78.882 44.3885C78.882 44.3885 79.6246 43.3001 80.4664 42.5086C81.3081 41.7171 89.0815 43.7948 90.9134 43.9927C92.7454 44.1906 93.9336 46.9114 93.9336 46.9114C98.3402 48.1976 101.162 53.8865 100.073 58.2398C98.9839 62.5931 94.1317 81.8365 94.1317 81.8365C78.5849 72.5363 64.969 75.455 64.969 75.455C62.1964 69.5682 63.2856 52.4519 66.5039 47.8513C70.861 41.6677 78.882 44.3885 78.882 44.3885Z" fill="#D0CECE"/>
<path d="M94.0825 81.886C94.0825 81.886 97.4493 69.2714 98.8356 62.9888C100.271 56.6568 99.6278 50.5721 96.459 48.346C93.2903 46.1199 95.3698 48.9891 95.3698 48.9891C95.3698 48.9891 97.8454 56.9041 93.0922 60.8122C88.3391 64.7202 87.6459 55.1232 87.3983 50.8689C87.1508 46.6146 81.3578 43.4485 79.7239 43.3496L78.8822 44.4379C78.8822 44.4379 85.0713 52.0067 79.7239 60.367C74.3766 68.7272 69.8215 74.4656 69.1778 75.1087C68.5342 75.7518 68.0391 78.72 68.0391 78.72L89.7749 80.9461L94.0825 81.886Z" fill="#FD4C00"/>
<path d="M63.3849 75.554C58.9288 80.7978 52.3932 81.1935 48.8283 80.2041C46.8973 79.66 45.3625 76.5434 46.0556 73.2785C46.7488 69.964 56.2056 60.9607 56.2056 60.9607C58.8298 59.625 67.7915 70.2608 63.3849 75.554Z" fill="#F9C5AE"/>
<path d="M82.3481 47.2081C84.9722 49.731 87.6459 56.2115 83.4869 62.7414C79.2783 69.2713 70.4156 79.9566 59.7705 87.4264C59.7705 87.4264 52.1457 76.3454 52.6408 63.6318C52.6408 63.6318 62.5432 49.5826 68.6827 45.6251C73.2874 42.6075 78.2386 43.2011 82.3481 47.2081Z" fill="#D0CECE"/>
<path d="M70.5148 57.3491L70.8614 57.6954C67.247 61.1582 57.8397 62.1971 57.4436 62.1971L57.394 61.7024C57.4931 61.7024 66.9994 60.6635 70.5148 57.3491Z" fill="#35375B"/>
<path d="M82.8428 64.2259C75.8121 75.9006 60.0672 87.4763 59.9187 87.6247L59.6216 87.229C59.7701 87.13 75.416 75.5543 82.3972 63.9785L82.8428 64.2259Z" fill="#35375B"/>
<path d="M117.848 172.018C118.393 172.562 119.136 173.156 119.977 173.75C121.463 174.739 123.394 175.629 125.77 176.025C132.405 177.113 134.534 181.318 132.999 187.354C131.514 193.438 130.622 197.594 131.91 203.184C133.197 208.774 128.592 210.95 124.78 210.95C122.453 210.95 118.938 210.95 116.561 211C115.917 211 115.917 210.406 116.462 210.06C118.195 208.972 120.076 206.844 120.522 204.47C121.067 201.749 120.027 199.375 119.136 196.901C116.611 189.827 111.758 178.944 108.292 176.371C114.729 170.336 117.848 172.018 117.848 172.018Z" fill="#35375B"/>
<path d="M122.156 202.738C122.998 197.89 122.404 192.845 122.156 190.52C121.859 187.848 120.473 183.99 121.859 180.329C123.493 175.926 126.117 176.025 126.365 176.075C132.455 177.113 134.485 181.417 132.999 187.304C131.514 193.389 130.623 197.544 131.91 203.134C133.197 208.724 128.593 210.901 124.78 210.901C122.998 210.901 120.176 210.901 118.047 210.95C117.354 210.95 117.056 210.109 117.601 209.664C119.285 208.427 121.562 206.251 122.156 202.738Z" fill="#35375B"/>
<path d="M123.691 202.738C124.533 197.89 123.939 192.844 123.691 190.519C123.394 187.848 122.008 183.989 123.394 180.328C125.028 175.926 127.652 176.025 127.9 176.074C133.99 177.113 136.02 181.417 134.534 187.304C133.049 193.388 132.158 197.544 133.445 203.134C134.732 208.724 130.128 210.9 126.315 210.9C124.335 210.9 121.116 210.9 118.938 210.9C118.443 210.9 118.245 210.307 118.641 210.01C120.275 208.872 122.998 206.646 123.691 202.738Z" fill="white"/>
<path d="M127.701 176.47C127.751 176.47 127.8 176.47 127.8 176.47C130.424 176.915 132.355 178.004 133.494 179.685C134.732 181.565 134.98 184.138 134.187 187.254C132.653 193.487 131.811 197.643 133.098 203.233C133.544 205.211 133.247 206.893 132.256 208.13C131.068 209.664 128.84 210.554 126.315 210.554C124.334 210.554 121.116 210.554 118.938 210.554C118.839 210.554 118.839 210.505 118.789 210.455C118.789 210.406 118.789 210.356 118.839 210.307C120.72 208.922 123.344 206.646 124.037 202.788C124.879 198.088 124.334 193.141 124.087 190.767L124.037 190.519C123.988 189.876 123.839 189.134 123.691 188.343C123.245 186.017 122.701 183.148 123.74 180.477C125.127 176.618 127.305 176.47 127.701 176.47ZM127.701 176.074C127.058 176.074 124.83 176.421 123.344 180.329C121.958 183.989 123.344 187.848 123.641 190.519C123.889 192.844 124.483 197.89 123.641 202.738C122.948 206.646 120.225 208.872 118.591 210.059C118.195 210.356 118.393 210.95 118.888 210.95C121.067 210.95 124.285 210.95 126.265 210.95C130.127 210.95 134.683 208.773 133.395 203.183C132.108 197.593 132.999 193.438 134.484 187.353C135.92 181.466 133.94 177.163 127.85 176.124C127.85 176.074 127.8 176.074 127.701 176.074Z" fill="#35375B"/>
<path d="M128.889 189.035C131.323 189.035 133.296 186.488 133.296 183.346C133.296 180.204 131.323 177.657 128.889 177.657C126.456 177.657 124.483 180.204 124.483 183.346C124.483 186.488 126.456 189.035 128.889 189.035Z" fill="#E4D9DF"/>
<path d="M122.304 174.64V175.134C121.512 175.134 120.274 176.025 119.482 177.657C118.789 179.092 117.65 183.049 121.809 188.095L121.413 188.441C117.056 183.148 118.294 178.993 119.036 177.459C119.779 175.827 121.165 174.64 122.304 174.64Z" fill="white"/>
<path d="M120.324 186.71L120.522 187.155C120.373 187.205 116.61 188.936 118.046 193.339L117.551 193.487C115.967 188.689 120.274 186.71 120.324 186.71Z" fill="white"/>
<path d="M118.74 183.495L118.938 183.94C118.789 183.99 114.977 185.721 116.462 190.124L115.967 190.272C114.383 185.474 118.69 183.495 118.74 183.495Z" fill="white"/>
<path d="M98.2882 63.6057L95.3794 76.9956L95.8628 77.1004L98.7716 63.7105L98.2882 63.6057Z" fill="#35375B"/>
<path d="M87.2993 19.8022C99.9744 25.8869 101.064 51.8087 101.064 51.8087C101.064 51.8087 99.4793 53.5401 97.6474 53.8369L97.0037 51.6108L95.9144 54.6284C93.8844 56.2609 86.0615 56.9535 86.0615 56.9535C86.0615 56.9535 90.8642 36.7701 90.8642 33.0105C90.8147 31.1801 87.2993 19.8022 87.2993 19.8022Z" fill="#35375B"/>
<path d="M90.4679 32.961C91.9172 32.961 93.092 31.7872 93.092 30.3392C93.092 28.8911 91.9172 27.7173 90.4679 27.7173C89.0186 27.7173 87.8438 28.8911 87.8438 30.3392C87.8438 31.7872 89.0186 32.961 90.4679 32.961Z" fill="#F9C5AE"/>
<path d="M90.0223 29.7458C89.7252 29.449 89.5272 29.1522 90.0223 28.5585C90.1708 28.3607 90.4184 28.2617 90.6659 28.2617C91.4581 28.2617 92.2503 29.2016 92.3494 29.3006L91.9533 29.6468C91.6562 29.3006 91.062 28.7564 90.6659 28.7564C90.5669 28.7564 90.5174 28.8059 90.4184 28.8554C90.1708 29.1522 90.2203 29.1522 90.3689 29.35C90.5174 29.4985 90.7155 29.6963 90.765 30.0426C90.864 30.5868 90.6164 30.8341 90.4184 30.9825C90.3689 31.032 90.3194 31.0815 90.3194 31.0815C90.3194 31.0815 90.3194 31.0814 90.3689 31.1309C90.5174 31.3783 91.1611 31.1309 91.1611 31.1309L91.3591 31.5762C91.1611 31.6751 90.9135 31.7246 90.6659 31.7246C90.3689 31.7246 90.1213 31.6256 89.9233 31.3783C89.6757 30.9825 89.9233 30.7352 90.0718 30.5868C90.2203 30.4384 90.3194 30.3889 90.2698 30.1415C90.2698 29.9931 90.1213 29.8942 90.0223 29.7458Z" fill="#35375B"/>
<path d="M38.7548 8.01126L39.5073 7.36816L33.1995 0.000225796L32.447 0.643323L38.7548 8.01126Z" fill="#35375B"/>
<path d="M12.4048 22.6717L30.8433 23.7104L30.899 22.7227L12.4605 21.6839L12.4048 22.6717Z" fill="#35375B"/>
<path d="M31.426 16.7228L31.7876 15.8018L25.2427 13.2364L24.8811 14.1574L31.426 16.7228Z" fill="#35375B"/>
<path d="M32.8063 13.8332L33.3198 12.9873L18.461 3.98253L17.9474 4.82845L32.8063 13.8332Z" fill="#35375B"/>
<path d="M37.985 170.732L37.8365 171.87L37.5394 174.245L36.9947 178.301L36.6977 180.676L32.8357 209.862C32.7367 210.456 32.2416 210.951 31.5979 210.951H8.57477C7.93111 210.951 7.43599 210.505 7.33696 209.862L3.47501 180.725L3.17794 178.549L2.58379 174.245L2.28672 171.87L2.13818 170.732H37.985Z" fill="#FD4C00"/>
<path d="M37.8366 171.87L37.49 174.244H2.58389L2.2373 171.87H37.8366Z" fill="#35375B"/>
<path d="M37.9359 172.563H1.59395C0.900782 172.563 0.306641 171.969 0.306641 171.276V169.199C0.306641 168.506 0.900782 167.913 1.59395 167.913H37.9359C38.6291 167.913 39.2232 168.506 39.2232 169.199V171.276C39.2232 171.969 38.6786 172.563 37.9359 172.563Z" fill="#35375B"/>
<path d="M22.5874 167.912C22.5874 167.912 18.8244 169.644 19.7157 175.63C20.6069 181.615 21.6961 185.325 17.1905 187.205C12.6849 189.085 8.82298 194.23 8.922 187.799C9.02103 181.368 8.22883 180.873 6.84249 178.548C5.50566 176.174 2.98054 170.139 6.0503 167.764C9.12005 165.439 22.4883 165.389 22.5874 167.912Z" fill="white"/>
<path d="M15.3586 166.379C19.4186 166.379 21.7457 167.072 22.1418 167.764C21.2505 168.308 18.5274 170.435 19.3196 175.729C19.4186 176.273 19.4681 176.817 19.5671 177.361C20.3593 182.308 20.8049 185.326 17.042 186.909C15.7052 187.453 14.4179 188.294 13.3286 189.036C12.0908 189.827 10.952 190.619 10.2588 190.619C10.0608 190.619 9.91225 190.569 9.81322 190.47C9.46664 190.124 9.3181 189.234 9.3181 187.898C9.41713 182.11 8.72396 181.022 7.63469 179.191C7.48615 178.944 7.33761 178.697 7.18908 178.449C5.95127 176.322 3.42615 170.337 6.29786 168.16C7.58517 167.072 11.2986 166.379 15.3586 166.379ZM15.3586 166.033C11.6452 166.033 7.58517 166.626 6.0503 167.814C2.98054 170.139 5.50566 176.223 6.84249 178.598C8.17932 180.972 9.02103 181.467 8.922 187.849C8.87249 190.174 9.36762 190.965 10.2093 190.965C11.6947 190.965 14.3188 188.442 17.1905 187.205C21.6961 185.326 20.6069 181.665 19.7157 175.63C18.8244 169.644 22.5874 167.913 22.5874 167.913C22.5378 166.626 19.1215 166.033 15.3586 166.033Z" fill="#35375B"/>
<path d="M36.9457 178.548L36.6486 180.923C36.5496 181.071 36.5001 181.269 36.4011 181.418C34.8167 184.435 32.8362 186.859 30.5091 188.591C30.113 188.887 29.6674 189.184 29.2218 189.432C29.3208 189.926 29.0733 190.47 28.5782 190.718C25.8055 192.053 23.726 192.647 19.567 192.647C15.3089 192.647 11.8926 190.817 11.744 190.718C11.2984 190.47 11.0509 189.976 11.1499 189.481C10.6548 189.184 10.2091 188.887 9.76353 188.541C7.38695 186.81 5.35696 184.386 3.67354 181.368C3.57452 181.22 3.52501 181.071 3.42598 180.923L3.12891 178.746C3.47549 179.488 3.82208 180.28 4.26769 181.071C6.19866 184.584 8.62476 187.205 11.447 188.887C11.7935 188.541 12.3382 188.442 12.8333 188.689C12.8828 188.689 15.9031 190.322 19.567 190.322C23.3299 190.322 25.0628 189.778 27.5879 188.591C28.0335 188.393 28.5782 188.492 28.8752 188.788C31.6479 187.106 33.9255 184.534 35.7574 181.022C36.203 180.23 36.5991 179.389 36.9457 178.548Z" fill="#35375B"/>
<path d="M20.062 191.162C3.07936 191.162 0.00959605 170.484 0.00959605 170.286C-0.0399161 170.088 0.108623 169.94 0.306672 169.89C0.504721 169.841 0.653259 169.989 0.702771 170.187C0.752283 170.385 3.72301 190.47 20.1115 190.47C36.5001 190.47 38.9262 170.385 38.9757 170.187C38.9757 169.989 39.1737 169.89 39.3718 169.89C39.5698 169.89 39.6688 170.088 39.6688 170.286C39.5698 170.484 37.0447 191.162 20.062 191.162Z" fill="#35375B"/>
<path d="M19.4182 192.004C15.1602 192.004 11.7439 190.173 11.5953 190.074C11.0507 189.777 10.8526 189.085 11.1497 188.491C11.4468 187.947 12.14 187.749 12.7341 188.046C12.7836 188.046 15.8039 189.678 19.4182 189.678C23.1812 189.678 24.9636 189.134 27.4392 187.947C28.0334 187.65 28.7265 187.898 28.9741 188.491C29.2712 189.085 29.0236 189.777 28.4295 190.025C25.7063 191.36 23.6268 192.004 19.4182 192.004Z" fill="#D0CECE"/>
<path d="M163.169 129.889C170.142 122.564 175.796 113.772 175.827 104.49C175.852 97.2031 172.955 91.265 167.47 87.3407C163.432 84.5851 158.769 82.8803 153.901 82.3799C155.001 79.2519 155.487 75.9431 155.332 72.6353C154.356 48.5948 121.588 26.1137 121.258 25.887L120.89 26.4217C121.22 26.6483 153.726 48.9507 154.686 72.6749C154.831 75.9339 154.338 79.1921 153.234 82.2662C147.666 81.6798 142.032 82.2719 136.699 84.004C125.846 87.7286 119.416 92.4546 119.062 96.9758C118.912 98.9844 120.038 100.765 122.176 101.881C126.662 104.234 135.089 103.465 142.503 97.4459C147.949 93.0218 151.68 88.1766 153.656 82.9521C158.467 83.4286 163.078 85.1061 167.065 87.8311C172.472 91.7076 175.181 97.3339 175.175 104.48C175.084 128.29 137.22 148.98 136.826 149.18L137.128 149.743C137.351 149.601 151.972 141.65 163.169 129.889ZM152.999 82.8834C151.038 87.943 147.402 92.6334 142.089 96.9544C134.889 102.796 126.751 103.584 122.483 101.289C120.561 100.281 119.591 98.772 119.709 96.9995C119.867 94.9815 121.866 89.7519 136.925 84.5909C142.11 82.9104 147.585 82.3289 152.999 82.8834Z" fill="#35375B"/>
</g>
<defs>
<clipPath id="clip0_298_10189">
<rect width="196" height="211" fill="white"/>
</clipPath>
</defs>
</svg>
