<svg width="209" height="205" viewBox="0 0 209 205" fill="none" xmlns="http://www.w3.org/2000/svg">
<path fill-rule="evenodd" clip-rule="evenodd" d="M207.628 202.825V168.868C207.628 167.903 201.1 167.383 193.02 167.383C184.94 167.383 178.412 167.913 178.412 168.868V202.825C178.412 203.886 184.951 204.809 193.02 204.809C201.09 204.809 207.639 203.918 207.639 202.825H207.628Z" fill="#FC4C00"/>
<path fill-rule="evenodd" clip-rule="evenodd" d="M207.448 202.825V168.868C207.448 168.518 206.002 168.21 203.642 167.966C200.984 167.701 197.21 167.563 193.01 167.563C188.81 167.563 185.057 167.701 182.378 167.977C180.007 168.21 178.561 168.518 178.561 168.868V202.676V202.878C178.561 203.313 180.146 203.748 182.687 204.098C189.536 204.876 196.452 204.876 203.302 204.098C205.789 203.758 207.342 203.334 207.427 202.899L207.448 202.825ZM207.809 168.868V202.825C207.809 203.482 206.108 204.034 203.365 204.406C196.487 205.184 189.543 205.184 182.665 204.406C180.156 204.066 178.519 203.567 178.264 202.994V168.89C178.264 168.317 179.837 167.903 182.41 167.637C184.983 167.372 188.864 167.224 193.042 167.224C197.22 167.224 201.026 167.362 203.674 167.637C206.321 167.913 207.809 168.317 207.809 168.89V168.868Z" fill="#35375B"/>
<path fill-rule="evenodd" clip-rule="evenodd" d="M192.882 170.322C189.309 170.336 185.739 170.151 182.187 169.77C184.018 169.347 185.889 169.12 187.768 169.091V169.165V169.261C187.928 169.876 190.724 170.099 194.371 170.141C195.359 170.141 196.423 170.141 197.56 170.141H198.538C196.773 170.269 194.87 170.322 192.882 170.322Z" fill="#D42C03"/>
<path fill-rule="evenodd" clip-rule="evenodd" d="M207.639 202.835V169.94C207.639 168.985 201.133 171.001 193.074 171.001V204.798C201.122 204.798 207.639 203.928 207.639 202.835Z" fill="#FFA17A"/>
<path fill-rule="evenodd" clip-rule="evenodd" d="M193.244 171.118L193.063 170.768C196.626 170.715 200.18 170.396 203.695 169.813C204.75 169.627 205.815 169.503 206.884 169.441C207.448 169.441 207.746 169.569 207.746 169.876V202.772C207.749 202.88 207.723 202.988 207.671 203.083C207.619 203.178 207.542 203.258 207.448 203.313C206.159 203.93 204.761 204.291 203.333 204.374C199.889 204.778 196.424 204.972 192.957 204.957C192.904 204.957 193.031 204.607 192.957 204.607C196.403 204.623 199.847 204.428 203.27 204.024C205.747 203.684 207.299 203.26 207.384 202.825V169.876C207.384 169.823 207.203 169.802 206.874 169.802C205.805 169.863 204.74 169.984 203.684 170.163C200.232 170.737 196.743 171.056 193.244 171.118Z" fill="#35375B"/>
<path fill-rule="evenodd" clip-rule="evenodd" d="M178.933 169.197C179.981 169.464 181.047 169.656 182.123 169.77C185.731 170.163 189.359 170.347 192.989 170.322C196.443 170.339 199.896 170.176 203.333 169.834C204.84 169.732 206.326 169.436 207.756 168.953C207.542 168.861 207.322 168.783 207.097 168.72C206.049 168.45 204.983 168.252 203.908 168.125C196.856 167.422 189.752 167.404 182.697 168.072C181.191 168.174 179.704 168.47 178.274 168.953C178.491 169.052 178.715 169.134 178.944 169.197H178.933ZM178.636 170.195C177.849 169.897 177.2 169.823 177.041 168.953C177.2 168.083 177.849 168.009 178.636 167.722C179.748 167.429 180.882 167.223 182.027 167.107C185.677 166.701 189.348 166.51 193.021 166.534C199.463 166.534 204.95 167.011 207.416 167.722C208.203 168.009 208.851 168.083 209 168.953C208.851 169.823 208.203 169.897 207.416 170.195C206.298 170.479 205.161 170.682 204.014 170.799C200.364 171.201 196.693 171.388 193.021 171.362C186.588 171.362 181.102 170.895 178.615 170.195H178.636Z" fill="#FFA17A"/>
<path fill-rule="evenodd" clip-rule="evenodd" d="M193.063 190.579C188.704 190.579 184.621 190.356 181.07 189.995V180.445C184.579 180.785 188.587 180.976 192.85 180.976H193.063V190.579Z" fill="#FFA17A"/>
<path fill-rule="evenodd" clip-rule="evenodd" d="M193.382 190.579H193.063V180.944C197.39 180.944 201.441 180.732 204.981 180.381V190.059C201.505 190.398 197.56 190.579 193.382 190.579Z" fill="white"/>
<path fill-rule="evenodd" clip-rule="evenodd" d="M197.475 159.382C192.159 159.382 187.79 159.902 187.79 160.538V169.208C187.79 169.834 192.297 170.195 197.518 170.195C202.738 170.195 206.81 169.537 207.086 169.208V160.538C207.161 159.902 202.823 159.382 197.475 159.382Z" fill="white"/>
<path fill-rule="evenodd" clip-rule="evenodd" d="M197.475 159.52C195.192 159.503 192.909 159.616 190.639 159.859C188.959 160.061 187.928 160.294 187.928 160.538V169.027V169.165C187.928 169.378 188.927 169.579 190.511 169.738C192.297 169.919 194.764 170.014 197.528 170.014C199.772 170.014 201.781 169.887 203.418 169.728C204.642 169.667 205.853 169.453 207.022 169.091V160.496C207.022 160.252 205.959 160.018 204.301 159.817C202.03 159.574 199.748 159.46 197.465 159.477L197.475 159.52ZM190.607 159.594C195.175 159.141 199.776 159.141 204.343 159.594C206.172 159.806 207.299 160.135 207.299 160.538V169.346H207.193C205.982 169.742 204.723 169.974 203.45 170.035C201.486 170.231 199.513 170.327 197.539 170.322C194.817 170.322 192.297 170.226 190.49 170.046C188.97 169.887 187.949 169.653 187.726 169.346H187.651V160.538C187.651 160.135 188.789 159.806 190.607 159.594Z" fill="#35375B"/>
<path fill-rule="evenodd" clip-rule="evenodd" d="M197.475 161.44H196.125V161.292H195.689C193.084 161.292 190.83 161.196 189.395 161.09C189.395 161.09 189.31 161.026 189.31 160.995C189.31 160.581 193.435 160.39 197.475 160.39C201.515 160.39 205.704 160.581 205.704 160.995C205.704 161.408 201.526 161.44 197.475 161.44Z" fill="#E3E3E3"/>
<path fill-rule="evenodd" clip-rule="evenodd" d="M197.103 166.916H196.136V163.733H197.284C198.783 163.733 200.197 163.733 201.462 163.626V166.81C200.144 166.874 198.666 166.916 197.103 166.916Z" fill="#E3E3E3"/>
<path fill-rule="evenodd" clip-rule="evenodd" d="M194.392 170.141C190.745 170.141 187.949 169.876 187.79 169.261V169.165V169.091V169.208C187.821 169.696 190.628 170.025 194.392 170.141Z" fill="#AF2402"/>
<path fill-rule="evenodd" clip-rule="evenodd" d="M196.136 170.173H195.689H194.392C190.628 170.057 187.822 169.728 187.811 169.24V160.952C188.337 161.076 188.876 161.144 189.416 161.154C189.98 161.43 192.936 161.461 196.146 161.472V163.775C193.498 163.804 190.853 163.58 188.247 163.106V166.29C190.86 166.732 193.507 166.942 196.157 166.916L196.136 170.173Z" fill="#35375B"/>
<path fill-rule="evenodd" clip-rule="evenodd" d="M196.125 161.44C192.935 161.44 189.959 161.44 189.395 161.122C190.83 161.228 193.084 161.324 195.689 161.324H196.125V161.44Z" fill="#AEAEAE"/>
<path fill-rule="evenodd" clip-rule="evenodd" d="M196.136 166.905C193.486 166.931 190.838 166.722 188.226 166.279V163.096C190.831 163.57 193.477 163.794 196.125 163.764L196.136 166.905Z" fill="#E3E3E3"/>
<path fill-rule="evenodd" clip-rule="evenodd" d="M188.109 160.496C188.81 160.633 189.521 160.718 190.235 160.751C192.074 160.878 194.637 160.92 197.465 160.92C200.727 161.048 203.994 160.878 207.225 160.411L206.821 160.284C206.119 160.136 205.409 160.03 204.694 159.965C202.855 159.796 200.293 159.7 197.475 159.7C194.21 159.576 190.941 159.808 187.726 160.39L188.109 160.496ZM190.235 161.44C188.353 161.196 187.226 161.377 186.907 160.379C187.216 159.424 188.343 159.541 190.224 159.254C192.106 158.968 194.668 158.979 197.507 158.979C200.346 158.979 202.919 159.074 204.79 159.254C206.661 159.435 207.809 159.424 208.107 160.379C207.788 161.345 206.661 161.165 204.779 161.44C202.897 161.716 200.335 161.6 197.507 161.6C194.679 161.6 192.074 161.568 190.203 161.44H190.235Z" fill="#35375B"/>
<path fill-rule="evenodd" clip-rule="evenodd" d="M47.439 73.2605L80.0467 73.7911L79.2919 69.6739L47.5134 69.1646L47.439 73.2605Z" fill="#E3E3E3"/>
<path fill-rule="evenodd" clip-rule="evenodd" d="M47.7476 72.963L79.643 73.483L79.0051 69.9706L47.8433 69.4719L47.7901 72.963H47.7476ZM80.0364 74.0878L47.1416 73.5573L47.216 68.8564L79.5473 69.3764L80.4085 74.0985L80.0364 74.0878Z" fill="#35375B"/>
<path fill-rule="evenodd" clip-rule="evenodd" d="M52.5103 95.8943L86.1386 96.2445L85.1818 92.3183L52.574 91.7983L52.5103 95.8943Z" fill="#E3E3E3"/>
<path fill-rule="evenodd" clip-rule="evenodd" d="M52.8188 95.5973L85.7774 95.9369L84.98 92.6155L52.872 92.1062V95.5973H52.8188ZM86.1176 96.5629L52.2021 96.1915L52.2872 91.4907L85.4159 92.0213L86.4791 96.5417L86.1176 96.5629Z" fill="#35375B"/>
<path fill-rule="evenodd" clip-rule="evenodd" d="M58.5708 124.694L93.6132 125.256L92.465 121.139L58.6346 120.598L58.5708 124.694Z" fill="#E3E3E3"/>
<path fill-rule="evenodd" clip-rule="evenodd" d="M58.8789 124.396L93.2196 124.948L92.2308 121.436L58.932 120.894V124.396H58.8789ZM93.613 125.553L58.2622 124.99L58.3366 120.29C69.7906 120.459 81.2411 120.643 92.688 120.841L94.0063 125.563L93.613 125.553Z" fill="#35375B"/>
<path fill-rule="evenodd" clip-rule="evenodd" d="M66.2256 155.562L101.672 156.135L100.524 152.018L66.2894 151.466L66.2256 155.562Z" fill="#E3E3E3"/>
<path fill-rule="evenodd" clip-rule="evenodd" d="M66.523 155.275L101.278 155.827L100.29 152.304L66.5868 151.773L66.523 155.275ZM101.672 156.432L65.917 155.859L65.9914 151.158L100.747 151.72L102.065 156.442L101.672 156.432Z" fill="#35375B"/>
<path fill-rule="evenodd" clip-rule="evenodd" d="M105.967 184.796L111.517 183.565L78.0693 47.3901L72.5195 48.621L105.967 184.796Z" fill="#E3E3E3"/>
<path fill-rule="evenodd" clip-rule="evenodd" d="M106.191 184.435L111.156 183.374L77.8462 47.7509L72.8812 48.812L106.191 184.435ZM111.581 183.852L105.744 185.146C94.5594 139.532 83.3641 93.9455 72.1582 48.3875L78.2928 47.0293C89.4987 92.6155 100.698 138.202 111.889 183.788L111.581 183.852Z" fill="#35375B"/>
<path fill-rule="evenodd" clip-rule="evenodd" d="M106.19 184.743L72.8809 49.1198L72.9553 48.7165L75.7195 48.1011L109.444 184.021L106.19 184.743Z" fill="#E3E3E3"/>
<path fill-rule="evenodd" clip-rule="evenodd" d="M105.903 184.817L72.5728 49.1304L72.7003 48.4619L75.943 47.751C87.2198 93.2594 98.5073 138.761 109.805 184.255L105.967 185.114L105.903 184.828V184.817ZM73.1894 49.1092L106.414 184.382L109.082 183.799L75.4859 48.4513L73.2 48.9607L73.1894 49.1092Z" fill="#35375B"/>
<path fill-rule="evenodd" clip-rule="evenodd" d="M68.4687 182.62L74.9434 181.421L47.9599 47.4959L40.9004 47.0078L68.4687 182.62Z" fill="#D7D7D7"/>
<path fill-rule="evenodd" clip-rule="evenodd" d="M68.7026 182.27L74.5926 181.209L47.7048 47.7506L41.3257 47.3049L68.7558 182.238L68.7026 182.27ZM74.9966 181.708L68.2348 182.971C58.9851 137.547 49.7496 92.12 40.5283 46.6895L48.2045 47.22C57.1777 92.0351 66.2112 136.847 75.305 181.655L74.9966 181.708Z" fill="#35375B"/>
<path fill-rule="evenodd" clip-rule="evenodd" d="M68.5324 182.514L57.9006 130.105L59.8781 119.42L72.6362 181.761L68.5855 182.514H68.5324ZM54.3814 112.787L52.2551 102.325L56.2952 102.484L54.3814 112.787ZM55.3383 97.1783H51.2132L46.9604 76.1572H51.0324L55.3383 97.1783Z" fill="#E3E3E3"/>
<path fill-rule="evenodd" clip-rule="evenodd" d="M68.2457 182.515L57.6139 130.052C58.3475 125.967 59.1236 121.882 59.8785 117.796C64.2375 139.175 68.5966 160.56 72.9556 181.952L68.3202 182.812V182.515H68.2457ZM58.1987 130.042L68.7773 182.111L72.2327 181.475L59.8891 120.969L58.1987 130.063V130.042ZM54.0948 112.82L51.894 102.007L56.6464 102.198L54.4031 114.369L54.0948 112.851V112.82ZM52.6276 102.643L54.3712 111.217L55.9341 102.728L52.6276 102.601V102.643ZM55.3387 97.4756H50.9691C49.5019 90.267 48.0382 83.0619 46.5781 75.8604H51.2986C52.7658 83.069 54.2366 90.2741 55.7108 97.4756H55.3387ZM51.4581 96.8708H54.9666L50.8096 76.4546H47.3117L51.4581 96.8708Z" fill="#35375B"/>
<path fill-rule="evenodd" clip-rule="evenodd" d="M45.1744 47.3049L43.9624 47.22L45.1106 47.0078L45.1744 47.3049Z" fill="#3F8ACE"/>
<path fill-rule="evenodd" clip-rule="evenodd" d="M45.1535 47.6021L41.5918 47.3581L45.3448 46.6577L45.5468 47.634L45.1535 47.6021Z" fill="#35375B"/>
<path fill-rule="evenodd" clip-rule="evenodd" d="M50.1713 71.8172H46.0674L41.1768 47.7296L43.9623 47.2202L45.1743 47.3051L50.1713 71.8172Z" fill="#E3E3E3"/>
<path fill-rule="evenodd" clip-rule="evenodd" d="M50.1715 72.157H45.8231C44.1433 63.958 42.4776 55.7519 40.8262 47.5387L43.9519 46.9551L45.4191 47.0612L50.533 72.157H50.1715ZM46.3122 71.5627H49.7994L44.9194 47.5811L43.9838 47.5175L41.5279 47.9738L46.3122 71.5627Z" fill="#35375B"/>
<path d="M35.9664 48.2516L0.349609 188.633L5.8842 190.032L41.501 49.6504L35.9664 48.2516Z" fill="white"/>
<path fill-rule="evenodd" clip-rule="evenodd" d="M5.82623 190.324L0 188.881C11.9005 141.866 23.8117 94.8648 35.7335 47.8779L41.8574 49.4272C29.9002 96.4141 17.9855 143.404 6.11329 190.398L5.82623 190.324ZM0.733594 188.414L5.67738 189.666L41.1238 49.8729L36.1481 48.6101L0.733594 188.414Z" fill="#35375B"/>
<path fill-rule="evenodd" clip-rule="evenodd" d="M5.62405 190.165L2.38135 189.348L2.43451 189.157L5.67721 189.974L5.62405 190.165Z" fill="url(#paint0_linear_298_10069)"/>
<path fill-rule="evenodd" clip-rule="evenodd" d="M5.54978 190.462L2.02002 189.56L2.22202 188.796L6.03884 189.751L5.84747 190.537L5.54978 190.462Z" fill="#35375B"/>
<path fill-rule="evenodd" clip-rule="evenodd" d="M5.67727 189.974L2.43457 189.157L38.2956 49.0454L41.2194 49.7776L35.6271 71.8173H34.3725L33.5645 76.1573H34.532L29.2055 97.1783H27.6319L26.6113 101.317L28.1316 101.37L22.1459 125.012L20.902 124.98L19.1584 130.392L20.7532 130.477L13.9594 157.281L11.8225 157.1L10.5998 162.937L12.471 163.17L5.67727 189.974Z" fill="#E3E3E3"/>
<path fill-rule="evenodd" clip-rule="evenodd" d="M5.60306 190.261L2.12646 189.369C14.0979 142.467 26.1012 95.5688 38.1364 48.6738L41.6343 49.5652C39.6851 57.078 37.7607 64.6085 35.8612 72.1567H34.6279L33.9262 75.9025H34.915C33.0863 83.1111 31.2612 90.3162 29.4396 97.5177H27.8661L26.9836 101.073L28.5146 101.126C26.4662 109.204 24.4214 117.283 22.3801 125.362H21.1149L19.5626 130.201L21.1361 130.285C18.8184 139.411 16.5042 148.544 14.1936 157.684L12.0672 157.503L11.004 162.809L12.8859 163.043L5.89012 190.335L5.60306 190.261ZM2.79627 188.934L5.45422 189.603L12.0991 163.414L10.2385 163.181L11.5888 156.814L13.7151 156.994L20.36 130.784L18.7333 130.699L20.6577 124.704H21.891L27.7491 101.656L26.2288 101.592L27.3983 96.8704H28.9718L34.1388 76.4543H33.2032L34.1282 71.52H35.3934L40.8475 50.0002L38.5191 49.406L2.79627 188.934Z" fill="#35375B"/>
<path fill-rule="evenodd" clip-rule="evenodd" d="M44.8554 200.554L38.4019 199.174L66.7888 45.7451L73.2529 47.1246L44.8554 200.554Z" fill="white"/>
<path fill-rule="evenodd" clip-rule="evenodd" d="M44.7918 200.851L38.0513 199.408C47.5348 148.07 57.0361 96.7289 66.5551 45.3843L73.5934 46.8911C64.046 98.2286 54.5447 149.57 45.0895 200.914L44.7918 200.851ZM38.7423 198.941L44.6536 200.203L72.9448 47.4004L67.0761 46.1483L38.7423 198.941Z" fill="#35375B"/>
<path fill-rule="evenodd" clip-rule="evenodd" d="M66.1616 76.1574H33.5645L34.3725 71.8174H66.1616V76.1574Z" fill="white"/>
<path fill-rule="evenodd" clip-rule="evenodd" d="M66.1617 76.4543H33.2031L34.1281 71.52H66.4594V76.4543H66.1617ZM33.9261 75.8601H65.9172V72.1567H34.6278L33.9261 75.8601Z" fill="#35375B"/>
<path fill-rule="evenodd" clip-rule="evenodd" d="M58.326 102.569L26.6113 101.317L27.632 97.1782H60.2291L58.326 102.569Z" fill="white"/>
<path fill-rule="evenodd" clip-rule="evenodd" d="M58.3047 102.866L26.2285 101.593L27.398 96.8706H60.6543L58.5279 102.877L58.3047 102.866ZM26.9834 101.03L58.1133 102.251L59.8037 97.4755H27.9083L26.9834 101.03Z" fill="#35375B"/>
<path fill-rule="evenodd" clip-rule="evenodd" d="M52.8296 132.196L19.1587 130.392L20.9023 124.98L54.2117 126.052L52.8296 132.196Z" fill="white"/>
<path fill-rule="evenodd" clip-rule="evenodd" d="M52.8187 132.492L18.7969 130.667L20.7212 124.672L54.6261 125.733C54.1157 127.983 53.6125 130.232 53.1163 132.482H52.8612L52.8187 132.492ZM19.5624 130.116L52.5954 131.877L53.8393 126.338L21.1146 125.277L19.5624 130.116Z" fill="#35375B"/>
<path fill-rule="evenodd" clip-rule="evenodd" d="M46.0572 167.414L10.6001 162.936L11.8228 157.1L47.5562 160.092L46.0572 167.414Z" fill="white"/>
<path fill-rule="evenodd" clip-rule="evenodd" d="M46.0249 167.711L10.2383 163.191L11.5885 156.824C23.7017 157.822 35.8113 158.833 47.9174 159.859L46.3014 167.796H46.0249V167.711ZM10.94 162.682L45.8017 167.085L47.1732 160.358L12.0882 157.418L10.94 162.682Z" fill="#35375B"/>
<path fill-rule="evenodd" clip-rule="evenodd" d="M72.6046 46.9867L69.2344 46.2652L69.2663 46.1484L73.0087 46.9549L72.6046 46.9867Z" fill="#3F8ACE"/>
<path fill-rule="evenodd" clip-rule="evenodd" d="M72.5406 47.2839L68.8833 46.4987L69.0215 45.7983L75.0285 47.0823L72.5938 47.2945L72.5406 47.2839Z" fill="#35375B"/>
<path fill-rule="evenodd" clip-rule="evenodd" d="M73.1573 47.1036L72.6045 46.9869L73.0085 46.9551L73.1786 46.9975L73.1573 47.1036Z" fill="url(#paint1_linear_298_10069)"/>
<path fill-rule="evenodd" clip-rule="evenodd" d="M73.0936 47.4005L70.5845 46.8593L73.0192 46.6577L73.5295 46.7638L73.3913 47.4642L73.0936 47.4005Z" fill="#35375B"/>
<path fill-rule="evenodd" clip-rule="evenodd" d="M44.7809 200.426L40.7515 199.556L59.2721 99.8735L60.2289 97.1782H59.7824L63.6843 76.1572H66.1615V71.8172H64.4923L69.2341 46.2651L72.6044 46.9867L73.1572 47.1034L44.7809 200.426Z" fill="#E3E3E3"/>
<path fill-rule="evenodd" clip-rule="evenodd" d="M44.7174 200.713L40.4009 199.79C42.2827 189.635 59.5381 97.4754 59.4212 97.4754C60.7537 90.2668 62.0933 83.0617 63.44 75.8602H65.9172V72.1568H64.1311C65.7471 63.3919 67.3702 54.6446 69.0004 45.915L73.5083 46.8807C63.961 98.1687 54.4668 149.457 45.0257 200.745L44.7174 200.67V200.713ZM41.0919 199.323L44.5473 200.066L72.8066 47.337L69.4789 46.626L64.854 71.5201H66.4594V76.4544H63.9291L60.1441 96.8706L59.5381 99.9479L41.0919 199.323Z" fill="#35375B"/>
<path fill-rule="evenodd" clip-rule="evenodd" d="M66.1618 76.1574H63.6846L64.4926 71.8174H66.1618V76.1574Z" fill="#D7D7D7"/>
<path fill-rule="evenodd" clip-rule="evenodd" d="M66.1619 76.4543H63.3232L64.2376 71.52H66.4596V76.4543H66.1619ZM64.0356 75.8601H65.9174V72.1567H64.7373L64.0356 75.8601Z" fill="#35375B"/>
<path fill-rule="evenodd" clip-rule="evenodd" d="M35.0529 46.7319L71.3286 43.209L70.6482 52.1543L33.4263 54.457L35.0529 46.7319Z" fill="white"/>
<path fill-rule="evenodd" clip-rule="evenodd" d="M35.0211 46.4352L71.6583 42.8804L70.9353 52.4306L33.0542 54.7863C33.6283 52.0061 34.2131 49.2365 34.8084 46.4564H35.0211V46.4352ZM70.9991 43.5064L35.2975 47.0082L33.7984 54.1178L70.3718 51.8469L70.9991 43.5064Z" fill="#35375B"/>
<path fill-rule="evenodd" clip-rule="evenodd" d="M70.51 43.0713L77.8459 43.8884L79.4832 52.0166H70.106L70.51 43.0713Z" fill="#E3E3E3"/>
<path fill-rule="evenodd" clip-rule="evenodd" d="M70.5421 42.7739L78.1013 43.6122L79.8449 52.3241H69.7979L70.2231 42.7739H70.5421ZM77.6122 44.164L70.8185 43.4106L70.4464 51.7193H79.1326L77.6122 44.164Z" fill="#35375B"/>
<path fill-rule="evenodd" clip-rule="evenodd" d="M155.224 68.485C153.236 74.5653 142.392 85.0705 140.893 86.1104C140.893 86.1104 138.373 81.8659 138.873 79.5632C139.287 77.6532 143.508 70.8089 144.954 67.4451L145.156 66.957C145.325 66.5938 145.419 66.2005 145.432 65.8004C145.358 65.0682 143.062 63.2961 140.393 61.195C136.916 58.4467 132.812 55.1572 132.153 52.8758C130.973 48.8541 126.837 32.9053 126.837 32.9053C126.837 32.9053 136.97 35.0912 139.829 37.6061C142.689 40.121 154.969 61.0995 155.469 66.4795C155.523 67.1576 155.439 67.8396 155.224 68.485Z" fill="#35375B"/>
<path fill-rule="evenodd" clip-rule="evenodd" d="M155.224 68.4854C153.236 74.5657 142.392 85.0709 140.893 86.1108C140.893 86.1108 138.373 81.8663 138.873 79.5637C139.309 77.5475 143.955 70.0877 145.156 66.9574C148.589 66.3346 152.132 66.8723 155.224 68.4854Z" fill="#F9C5AE"/>
<path fill-rule="evenodd" clip-rule="evenodd" d="M126.859 31.4944V32.736C126.859 32.736 127.199 36.6091 122.415 37.1821C117.63 37.7551 114.037 36.0149 114.164 33.0225C114.638 30.996 114.944 28.9339 115.079 26.8573C115.091 26.0792 115.034 25.3015 114.909 24.5334L124.169 24.353L126.901 24.7987L126.859 31.4944Z" fill="#F9C5AE"/>
<path fill-rule="evenodd" clip-rule="evenodd" d="M126.89 24.7987V31.4944C125.846 31.9837 124.706 32.2373 123.552 32.2372C119.299 32.2372 116.535 29.1175 115.047 26.8573C115.059 26.0792 115.002 25.3015 114.876 24.5334L124.137 24.353L126.89 24.7987Z" fill="#35375B"/>
<path fill-rule="evenodd" clip-rule="evenodd" d="M141.817 94.0478C136.629 96.696 130.867 98.0263 125.041 97.9209C121.664 97.8957 118.293 97.6404 114.951 97.1569C106.998 95.9791 102.98 93.7613 103.011 92.9124C103.043 92.0635 103.096 89.729 103.182 88.6679C104.447 74.1091 103.798 62.7869 105.499 54.2872L105.563 53.9795C107.817 43.1665 111.347 37.0014 113.09 34.4016C113.408 33.9178 113.763 33.4601 114.154 33.0327C114.154 35.0489 118.406 36.7998 121.968 36.5663C124.924 36.3753 126.848 34.1257 126.848 32.916C127.092 32.916 140.191 41.9993 140.201 50.4353C140.244 88.254 142.54 94.0584 141.817 94.0478Z" fill="#FC4C00"/>
<path fill-rule="evenodd" clip-rule="evenodd" d="M114.972 97.0401C114.972 97.0401 114.972 97.125 114.972 97.1568C107.02 95.979 103.001 93.7612 103.033 92.9123C103.065 92.0634 103.118 89.7289 103.203 88.6678C104.468 74.109 103.82 62.7868 105.521 54.2871C109.678 59.8474 118.258 74.438 114.972 97.0401Z" fill="#FC4C00"/>
<path fill-rule="evenodd" clip-rule="evenodd" d="M103.012 92.9547C106.201 97.0401 122.68 99.4595 124.552 99.4807C132.292 99.5656 142.913 94.4085 145.337 93.2731C145.199 90.8749 142.902 84.2959 140.18 49.9577C140.18 49.543 140.016 49.1451 139.723 48.8509C139.431 48.5567 139.033 48.39 138.618 48.3872H115.228C114.703 48.3886 114.184 48.4937 113.701 48.6966C113.217 48.8994 112.779 49.1959 112.411 49.5689C112.044 49.942 111.754 50.3841 111.558 50.8698C111.363 51.3554 111.266 51.875 111.273 52.3983C111.347 55.9482 111.119 59.4981 110.592 63.0096C109.752 68.1879 107.945 73.0267 104.213 74.1833L103.926 74.82C103.926 75.7538 103.852 76.7088 103.809 77.6744V78.2687C103.809 78.3854 103.809 78.4915 103.809 78.6082V79.2025C103.809 79.5314 103.809 79.8604 103.809 80.1893V80.9745C103.809 81.4839 103.809 82.0357 103.724 82.5026V83.0013C103.724 83.6698 103.628 84.3383 103.586 85.0175C103.586 85.2297 103.586 85.4419 103.586 85.6541C103.586 85.8664 103.586 85.8558 103.586 85.9619L103.522 86.7577C103.522 87.0442 103.469 87.3307 103.448 87.6172C103.129 88.1372 102.969 92.9123 103.012 92.9547Z" fill="#35375B"/>
<path fill-rule="evenodd" clip-rule="evenodd" d="M136.768 78.9375L135.705 82.4923L134.641 86.0152L88.4781 72.1569C88.4019 72.1805 88.3204 72.1805 88.2442 72.1569C88.1778 72.1441 88.1156 72.1149 88.0634 72.072C87.4787 71.6581 87.3724 70.1513 87.8295 68.4641C87.8494 68.3674 87.8742 68.2718 87.904 68.1776C88.4462 66.3525 89.4243 64.9942 90.1792 64.9942C90.2384 64.9785 90.3007 64.9785 90.3599 64.9942C90.4214 65.0116 90.4792 65.0404 90.53 65.0791L136.768 78.9375Z" fill="white"/>
<path fill-rule="evenodd" clip-rule="evenodd" d="M135.705 82.492L134.641 86.015L88.4781 72.1566C88.4019 72.1803 88.3204 72.1803 88.2442 72.1566C88.1778 72.1439 88.1156 72.1147 88.0634 72.0717C87.4787 71.6579 87.3724 70.1511 87.8295 68.4639C89.7114 69.8752 98.7271 76.1252 114.111 79.1601C130.048 82.2904 135.024 82.4814 135.705 82.492Z" fill="#E3E3E3"/>
<path fill-rule="evenodd" clip-rule="evenodd" d="M136.863 78.9269C136.087 78.6935 134.992 80.1154 134.407 82.1103C133.823 84.1053 133.971 85.8667 134.748 86.0896C135.524 86.3124 136.619 84.9011 137.204 82.9062C137.788 80.9113 137.629 79.1498 136.863 78.9269Z" fill="#E3E3E3"/>
<path fill-rule="evenodd" clip-rule="evenodd" d="M90.9021 63.774L85.4586 62.8933C85.4066 62.8611 85.3488 62.8395 85.2885 62.8296H85.1078C84.3529 62.9463 83.5662 64.4107 83.2685 66.2889C83.2626 66.3878 83.2626 66.487 83.2685 66.586C83.1553 67.3209 83.1553 68.0688 83.2685 68.8038C83.2841 69.0571 83.3516 69.3046 83.4668 69.5309C83.582 69.7572 83.7424 69.9576 83.9383 70.1196C83.9979 70.1517 84.0626 70.1732 84.1296 70.1832H84.321L131.898 77.887L132.494 74.258L133.089 70.5971L90.9021 63.774Z" fill="white"/>
<path fill-rule="evenodd" clip-rule="evenodd" d="M110.688 73.7592C100.503 73.1013 95.1123 67.732 90.9021 63.774L85.4586 62.8933C85.4066 62.8611 85.3488 62.8395 85.2885 62.8296H85.1078C84.3529 62.9463 83.5662 64.4107 83.2685 66.2889C83.2626 66.3878 83.2626 66.487 83.2685 66.586C83.1553 67.3209 83.1553 68.0688 83.2685 68.8038C83.394 69.2855 83.6225 69.7343 83.9383 70.1196C83.9979 70.1517 84.0626 70.1732 84.1296 70.1832H84.321L131.898 77.887L132.494 74.258C131.76 74.3535 126.859 74.7991 110.688 73.7592Z" fill="#E3E3E3"/>
<path fill-rule="evenodd" clip-rule="evenodd" d="M133.174 70.5757C132.377 70.4483 131.473 71.9976 131.154 74.0244C130.835 76.0511 131.218 77.8126 132.015 77.9293C132.812 78.046 133.706 76.518 134.035 74.4806C134.365 72.4433 133.961 70.6924 133.174 70.5757Z" fill="#E3E3E3"/>
<path fill-rule="evenodd" clip-rule="evenodd" d="M116.237 84.551C108.544 83.4157 101.233 80.4655 94.9101 75.9452C93.8469 75.1812 93.3685 74.7037 93.3685 74.7037C87.7124 62.8296 97.9508 42.0315 99.822 38.4979C101.831 34.699 114.154 33.0225 114.154 33.0225C112.793 37.3541 111.878 41.8126 111.421 46.329C110.656 53.8631 102.448 68.5491 102.788 69.7801C103.501 70.5353 104.358 71.1413 105.308 71.5628C109.561 73.9927 117.864 77.9295 118.374 78.8421C119.076 80.073 116.237 84.551 116.237 84.551Z" fill="#F9C5AE"/>
<path fill-rule="evenodd" clip-rule="evenodd" d="M118.374 78.8418C118.374 78.8418 126.146 79.7225 128.081 80.8686C129.144 81.4734 124.456 82.4178 124.977 82.7574C126.497 83.8185 128.538 83.9883 130.665 84.8796C130.665 85.9408 127.475 86.8003 124.807 87.6492C122.138 88.4981 116.237 84.6037 116.237 84.6037L118.374 78.8418Z" fill="#F9C5AE"/>
<path fill-rule="evenodd" clip-rule="evenodd" d="M111.421 46.3291C110.656 53.8631 102.448 68.5491 102.788 69.7801C103.501 70.5353 104.358 71.1413 105.308 71.5628C105.216 71.5681 105.124 71.5681 105.032 71.5628C98.5781 71.2869 95.6649 74.8417 94.9101 75.9452C93.8469 75.1812 93.3685 74.7037 93.3685 74.7037C87.7124 62.8297 97.9508 42.0315 99.822 38.4979C101.831 34.699 114.154 33.0225 114.154 33.0225C112.793 37.3541 111.878 41.8126 111.421 46.3291Z" fill="#35375B"/>
<path fill-rule="evenodd" clip-rule="evenodd" d="M127.433 28.0561C127.433 28.0561 115.568 30.4436 114.185 23.0475C112.803 15.6515 110.347 10.9825 117.864 9.14673C125.381 7.31097 127.433 9.85768 128.496 12.2134C129.559 14.5691 130.484 27.239 127.433 28.0561Z" fill="#F9C5AE"/>
<path fill-rule="evenodd" clip-rule="evenodd" d="M114.43 25.1807C113.262 22.6906 111.837 20.3292 110.177 18.1347C108.263 15.9594 109.305 5.11466 117.619 5.46484C125.933 5.81501 128.836 11.7149 128.921 12.8928C129.006 14.0706 122.319 13.1474 120.49 14.6224C118.661 16.0974 120.405 18.5274 118.364 19.3975C116.322 20.2676 114.621 20.2676 114.972 22.1777C115.171 23.2111 114.977 24.2813 114.43 25.1807Z" fill="#35375B"/>
<path fill-rule="evenodd" clip-rule="evenodd" d="M116.95 0.424193C114.945 0.875055 113.075 1.79523 111.496 3.10886L111.113 3.44842C106.212 8.1174 108.168 15.5347 108.168 15.5347C108.455 16.4272 108.811 17.2963 109.231 18.1345C109.678 18.8667 116.174 18.0178 116.514 16.6277C116.88 15.5792 117.456 14.6154 118.205 13.7944L125.519 13.2851C127.546 12.9029 129.541 12.3636 131.484 11.6722C131.441 11.1841 128.953 -2.57881 116.95 0.424193Z" fill="#FC4C00"/>
<path fill-rule="evenodd" clip-rule="evenodd" d="M135.545 10.1654C134.056 9.84712 132.539 9.67651 131.016 9.65607C129.26 10.9289 127.296 11.8876 125.211 12.4893C123.403 10.2079 118.236 4.7112 111.517 3.10889H111.453C111.315 3.28928 111.23 3.35295 111.134 3.46967L111.039 3.60762C116.514 4.55203 121.67 10.696 123.499 12.988C121.753 13.407 119.975 13.6767 118.183 13.7945C118.183 13.7945 130.165 14.0173 135.641 11.1417C135.738 11.0962 135.82 11.0216 135.873 10.9281C135.926 10.8346 135.95 10.7269 135.939 10.6197C135.929 10.5126 135.885 10.4114 135.814 10.33C135.744 10.2486 135.65 10.1911 135.545 10.1654Z" fill="#35375B"/>
<path fill-rule="evenodd" clip-rule="evenodd" d="M104.022 70.7139C104.022 70.7139 95.7821 70.0347 93.0923 74.8204C93.109 75.0275 93.1743 75.2277 93.2827 75.4049C93.3912 75.5822 93.5399 75.7316 93.7168 75.841C93.8936 75.9504 94.0938 76.0169 94.3011 76.035C94.5084 76.0531 94.7171 76.0224 94.9103 75.9452C94.9103 75.9452 101.885 71.1914 105.308 71.5628C105.168 71.3372 104.98 71.1446 104.758 70.9981C104.536 70.8516 104.285 70.7547 104.022 70.7139Z" fill="#FC4C00"/>
<path fill-rule="evenodd" clip-rule="evenodd" d="M144.912 67.4452C148.249 67.7403 151.512 68.594 154.565 69.9707C154.565 69.9707 155.767 68.7928 155.288 68.1243C154.81 67.4558 147.229 65.0364 144.912 67.4452Z" fill="#FC4C00"/>
<g style="mix-blend-mode:multiply">
<path fill-rule="evenodd" clip-rule="evenodd" d="M125.88 22.1987C126.196 22.2557 126.52 22.2375 126.827 22.1456C126.978 22.0965 127.122 22.0249 127.252 21.9334C127.252 21.9334 127.326 21.9334 127.326 21.8591C127.302 21.7699 127.266 21.6843 127.22 21.6044C126.921 20.9387 126.565 20.2997 126.157 19.6944C126.107 19.6412 126.079 19.571 126.079 19.4981C126.079 19.4251 126.107 19.3549 126.157 19.3018C126.182 19.2758 126.213 19.2551 126.247 19.2411C126.281 19.227 126.317 19.2197 126.353 19.2197C126.39 19.2197 126.426 19.227 126.46 19.2411C126.494 19.2551 126.524 19.2758 126.55 19.3018C126.805 19.6838 127.039 20.0764 127.262 20.4796L127.55 21.0632C127.658 21.2667 127.747 21.4798 127.815 21.6999C127.932 22.188 127.443 22.4745 127.06 22.6125C126.65 22.7673 126.206 22.8077 125.774 22.7292C125.701 22.7187 125.634 22.6814 125.587 22.6245C125.54 22.5676 125.515 22.4953 125.519 22.4215C125.526 22.3822 125.542 22.3449 125.564 22.312C125.587 22.2791 125.616 22.2512 125.65 22.2303C125.684 22.2093 125.722 22.1956 125.762 22.1902C125.802 22.1847 125.842 22.1876 125.88 22.1987Z" fill="#4E54CB"/>
</g>
<path fill-rule="evenodd" clip-rule="evenodd" d="M121.989 18.7818C121.989 19.3017 122.34 19.7049 122.702 19.6943C123.063 19.6837 123.318 19.2486 123.287 18.7287C123.255 18.2087 122.936 17.8055 122.585 17.8161C122.234 17.8267 121.968 18.2618 121.989 18.7818Z" fill="#35375B"/>
<path fill-rule="evenodd" clip-rule="evenodd" d="M127.762 18.4317C127.762 18.9516 128.103 19.3548 128.464 19.3442C128.826 19.3336 129.081 18.8986 129.049 18.3786C129.017 17.8586 128.698 17.4554 128.347 17.466C127.996 17.4766 127.73 17.9117 127.762 18.4317Z" fill="#35375B"/>
<g style="mix-blend-mode:multiply">
<path fill-rule="evenodd" clip-rule="evenodd" d="M127.582 24.4803C126.723 24.6924 125.825 24.6924 124.966 24.4803C124.63 24.3765 124.32 24.2014 124.057 23.967C123.795 23.7325 123.586 23.4443 123.446 23.122C123.318 22.7824 122.776 22.9522 122.904 23.3024C123.061 23.6866 123.298 24.0334 123.598 24.3204C123.898 24.6074 124.256 24.8282 124.647 24.9684C125.609 25.2648 126.63 25.3087 127.613 25.0957C127.689 25.0856 127.758 25.0491 127.809 24.9927C127.859 24.9363 127.888 24.8637 127.89 24.788C127.891 24.7472 127.884 24.7065 127.869 24.6685C127.854 24.6305 127.832 24.596 127.803 24.5671C127.774 24.5382 127.739 24.5156 127.701 24.5006C127.663 24.4857 127.622 24.4788 127.582 24.4803Z" fill="#4E54CB"/>
</g>
<path fill-rule="evenodd" clip-rule="evenodd" d="M129.155 16.2243C129.243 16.2178 129.326 16.1802 129.389 16.1182C129.42 16.0875 129.444 16.0511 129.46 16.011C129.477 15.971 129.485 15.9281 129.485 15.8848C129.481 15.7961 129.443 15.7123 129.378 15.6513C129.348 15.6208 129.311 15.5967 129.271 15.5803C129.231 15.5639 129.188 15.5556 129.145 15.5558L126.518 15.3754C126.477 15.3651 126.433 15.3651 126.391 15.3754C126.347 15.3859 126.307 15.4079 126.274 15.4391C126.243 15.4661 126.218 15.4984 126.2 15.5346C126.19 15.5765 126.19 15.62 126.2 15.6619C126.189 15.7073 126.189 15.7545 126.2 15.7999L126.263 15.906C126.294 15.9399 126.33 15.9686 126.37 15.9909C126.412 16.0004 126.455 16.0004 126.497 15.9909L129.166 16.1713L129.155 16.2243Z" fill="#35375B"/>
<path fill-rule="evenodd" clip-rule="evenodd" d="M121.564 16.5641L124.69 16.1927C124.802 16.177 124.904 16.1202 124.977 16.0335C125.013 15.9894 125.039 15.9383 125.054 15.8834C125.068 15.8286 125.071 15.7712 125.062 15.7152C125.058 15.6578 125.043 15.6018 125.016 15.5507C124.989 15.4997 124.952 15.4548 124.907 15.4188C124.862 15.3829 124.81 15.3567 124.754 15.3419C124.699 15.3272 124.641 15.3242 124.584 15.3332L121.458 15.7046C121.403 15.7205 121.352 15.7476 121.308 15.7841C121.264 15.8206 121.228 15.8658 121.203 15.9168C121.133 16.0073 121.102 16.1213 121.116 16.2344C121.13 16.3475 121.188 16.4506 121.277 16.5217C121.321 16.5582 121.372 16.5854 121.427 16.6019C121.482 16.6183 121.539 16.6235 121.596 16.6172L121.564 16.5641Z" fill="#35375B"/>
<path fill-rule="evenodd" clip-rule="evenodd" d="M111.474 33.4785C111.474 33.4785 118.321 41.437 118.725 48.3874H115.249C114.408 43.1661 112.334 38.2194 109.199 33.956L111.474 33.4785Z" fill="#35375B"/>
<path fill-rule="evenodd" clip-rule="evenodd" d="M128.496 33.4575C131.443 37.949 133.313 43.0579 133.961 48.3876H137.437C137.15 42.9228 133.78 37.1396 131.834 34.264C130.58 33.9563 129.389 33.6379 128.496 33.4575Z" fill="#35375B"/>
<path fill-rule="evenodd" clip-rule="evenodd" d="M133.089 181.167L136.193 201.254C136.283 201.793 136.557 202.285 136.969 202.644C137.381 203.006 137.91 203.206 138.458 203.206H159.913C160.231 203.217 160.547 203.144 160.827 202.994C161.11 202.849 161.355 202.638 161.54 202.379C161.728 202.119 161.849 201.816 161.89 201.498C161.925 201.183 161.889 200.864 161.784 200.564C161.221 199.153 159.807 197.572 156.468 196.84C150.855 195.651 150.833 183.671 150.993 179.596L133.089 181.167Z" fill="#FFA17A"/>
<path fill-rule="evenodd" clip-rule="evenodd" d="M153.247 192.287C152.384 192.659 151.581 193.156 150.865 193.762C150.578 193.996 150.993 194.41 151.269 194.166C151.954 193.6 152.717 193.136 153.534 192.786C153.874 192.638 153.587 192.15 153.247 192.287Z" fill="#35375B"/>
<path fill-rule="evenodd" clip-rule="evenodd" d="M152.035 189.942C151.147 190.234 150.345 190.736 149.696 191.407C149.44 191.672 149.844 192.086 150.1 191.821C150.688 191.21 151.418 190.755 152.226 190.494C152.577 190.388 152.428 189.826 152.077 189.932L152.035 189.942Z" fill="#35375B"/>
<path fill-rule="evenodd" clip-rule="evenodd" d="M151.301 187.427C150.636 187.649 149.997 187.944 149.398 188.308C149.09 188.51 149.398 189.008 149.696 188.807C150.248 188.467 150.836 188.19 151.45 187.979C151.801 187.862 151.652 187.3 151.301 187.417V187.427Z" fill="#35375B"/>
<path fill-rule="evenodd" clip-rule="evenodd" d="M150.578 195.248L150.45 195.12C150.423 195.095 150.392 195.076 150.357 195.063C150.322 195.05 150.285 195.044 150.248 195.046C150.212 195.047 150.177 195.054 150.144 195.069C150.111 195.084 150.082 195.105 150.057 195.131C150.006 195.182 149.975 195.25 149.972 195.322C149.97 195.359 149.976 195.396 149.989 195.43C150.002 195.465 150.021 195.497 150.046 195.524L150.163 195.651C150.221 195.697 150.292 195.723 150.365 195.725C150.402 195.726 150.438 195.719 150.471 195.704C150.504 195.69 150.533 195.668 150.557 195.64C150.611 195.587 150.641 195.515 150.642 195.439C150.647 195.369 150.624 195.301 150.578 195.248Z" fill="#35375B"/>
<path fill-rule="evenodd" clip-rule="evenodd" d="M148.356 193.052C148.419 193.041 148.476 193.007 148.516 192.956C148.56 192.906 148.586 192.843 148.59 192.776C148.589 192.709 148.566 192.644 148.523 192.592C148.481 192.54 148.422 192.504 148.356 192.489C148.291 192.504 148.232 192.537 148.186 192.585C148.143 192.639 148.12 192.707 148.122 192.776C148.122 192.841 148.145 192.905 148.186 192.956C148.229 193.008 148.29 193.042 148.356 193.052Z" fill="#35375B"/>
<path fill-rule="evenodd" clip-rule="evenodd" d="M147.612 190.431C147.674 190.412 147.73 190.375 147.771 190.324C147.807 190.271 147.825 190.208 147.825 190.144C147.825 190.08 147.807 190.017 147.771 189.964C147.729 189.916 147.674 189.883 147.612 189.868C147.553 189.883 147.501 189.916 147.463 189.964C147.422 190.015 147.399 190.078 147.399 190.144C147.399 190.21 147.422 190.273 147.463 190.324C147.5 190.375 147.552 190.412 147.612 190.431Z" fill="#35375B"/>
<path fill-rule="evenodd" clip-rule="evenodd" d="M105.659 181.167L108.763 201.254C108.837 201.8 109.1 202.303 109.507 202.676C109.919 203.038 110.448 203.238 110.996 203.238H132.451C132.769 203.249 133.084 203.176 133.365 203.026C133.648 202.88 133.893 202.669 134.078 202.41C134.266 202.15 134.387 201.848 134.428 201.53C134.463 201.214 134.427 200.895 134.322 200.596C133.759 199.185 132.345 197.603 129.006 196.871C123.393 195.683 123.371 183.703 123.531 179.628L105.659 181.167Z" fill="#FFA17A"/>
<path fill-rule="evenodd" clip-rule="evenodd" d="M125.817 192.287C124.954 192.659 124.152 193.156 123.435 193.762C123.148 193.996 123.563 194.41 123.839 194.166C124.524 193.6 125.287 193.136 126.104 192.786C126.444 192.638 126.157 192.15 125.817 192.287Z" fill="#35375B"/>
<path fill-rule="evenodd" clip-rule="evenodd" d="M124.605 189.942C123.716 190.231 122.913 190.734 122.266 191.407C122.011 191.672 122.415 192.086 122.67 191.821C123.258 191.21 123.989 190.755 124.796 190.494C125.147 190.388 124.998 189.826 124.647 189.932L124.605 189.942Z" fill="#35375B"/>
<path fill-rule="evenodd" clip-rule="evenodd" d="M123.86 187.427C123.199 187.651 122.565 187.946 121.968 188.308C121.66 188.51 121.968 189.008 122.266 188.807C122.818 188.467 123.406 188.19 124.02 187.979C124.371 187.862 124.222 187.3 123.86 187.417V187.427Z" fill="#35375B"/>
<path fill-rule="evenodd" clip-rule="evenodd" d="M123.148 195.248L123.021 195.12C122.994 195.095 122.962 195.076 122.927 195.063C122.893 195.05 122.856 195.044 122.819 195.046C122.783 195.047 122.747 195.054 122.714 195.069C122.681 195.084 122.652 195.105 122.627 195.131C122.576 195.182 122.546 195.25 122.542 195.322C122.541 195.359 122.546 195.396 122.559 195.43C122.572 195.465 122.591 195.497 122.617 195.524L122.734 195.651C122.791 195.697 122.862 195.723 122.936 195.725C122.972 195.726 123.008 195.719 123.041 195.704C123.074 195.69 123.103 195.668 123.127 195.64C123.181 195.587 123.212 195.515 123.212 195.439C123.217 195.369 123.194 195.301 123.148 195.248Z" fill="#35375B"/>
<path fill-rule="evenodd" clip-rule="evenodd" d="M120.926 193.052C120.99 193.041 121.047 193.007 121.086 192.956C121.13 192.906 121.157 192.843 121.16 192.776C121.159 192.709 121.136 192.644 121.093 192.592C121.051 192.54 120.992 192.504 120.926 192.489C120.862 192.504 120.802 192.537 120.756 192.585C120.713 192.639 120.691 192.707 120.692 192.776C120.692 192.841 120.715 192.905 120.756 192.956C120.799 193.008 120.86 193.042 120.926 193.052Z" fill="#35375B"/>
<path fill-rule="evenodd" clip-rule="evenodd" d="M120.14 190.431C120.202 190.412 120.258 190.375 120.299 190.324C120.334 190.271 120.353 190.208 120.353 190.144C120.353 190.08 120.334 190.017 120.299 189.964C120.257 189.916 120.201 189.883 120.14 189.868C120.08 189.88 120.027 189.914 119.991 189.964C119.949 190.015 119.927 190.078 119.927 190.144C119.927 190.21 119.949 190.273 119.991 190.324C120.026 190.377 120.079 190.415 120.14 190.431Z" fill="#35375B"/>
<path fill-rule="evenodd" clip-rule="evenodd" d="M126.242 143.507C126.491 144.802 126.668 146.109 126.774 147.423C127.444 160.549 130.58 190.558 132.441 191.258C135.97 192.585 162.954 186.695 161.901 181.878C157.425 161.345 150.663 105.476 144.89 92.0424C144.89 92.0424 115.77 85.2936 115.621 93.8358C115.44 101.391 123.978 131.039 126.242 143.507Z" fill="#35375B"/>
<path fill-rule="evenodd" clip-rule="evenodd" d="M131.834 93.8673L125.455 139.931V191.555C125.455 191.555 98.9501 192.255 94.3784 191.12C94.3784 191.12 101.076 142.499 101.395 130.031C101.714 117.562 101.544 93.7081 105.074 91.4055C108.604 89.1028 131.834 93.8673 131.834 93.8673Z" fill="#35375B"/>
<path fill-rule="evenodd" clip-rule="evenodd" d="M130.771 116.258C130.773 116.219 130.784 116.181 130.802 116.147C130.82 116.113 130.845 116.083 130.876 116.06C130.907 116.036 130.943 116.02 130.981 116.012C131.019 116.004 131.058 116.004 131.096 116.013C131.134 116.021 131.169 116.038 131.2 116.062C131.23 116.086 131.255 116.116 131.273 116.15C131.291 116.185 131.301 116.223 131.302 116.261C131.304 116.3 131.296 116.339 131.281 116.374L125.764 139.995C125.744 140.061 125.7 140.117 125.641 140.152C125.582 140.187 125.512 140.2 125.445 140.186C125.41 140.179 125.378 140.164 125.349 140.144C125.32 140.124 125.296 140.099 125.277 140.069C125.258 140.039 125.246 140.006 125.24 139.972C125.234 139.937 125.235 139.902 125.243 139.868L130.771 116.258Z" fill="white"/>
<defs>
<linearGradient id="paint0_linear_298_10069" x1="1.19058" y1="195.514" x2="32.1521" y2="131.563" gradientUnits="userSpaceOnUse">
<stop stop-color="#234395"/>
<stop offset="0.22" stop-color="#234395"/>
<stop offset="1" stop-color="#060214"/>
</linearGradient>
<linearGradient id="paint1_linear_298_10069" x1="23.9744" y1="147.681" x2="77.0128" y2="38.132" gradientUnits="userSpaceOnUse">
<stop stop-color="#3E87C8"/>
<stop offset="0.22" stop-color="#3E87C8"/>
<stop offset="1" stop-color="#000F21"/>
</linearGradient>
</defs>
</svg>
