<svg width="719" height="322" viewBox="0 0 719 322" fill="none" xmlns="http://www.w3.org/2000/svg">
<path d="M1.30078 297.908L47.6914 283.674C37.6088 262.557 17.6629 217.164 18.5405 204.526C19.6376 188.727 29.8248 187.632 34.84 185.755C39.8552 183.878 63.0505 183.253 71.2002 185.755C79.3499 188.258 87.9698 188.571 85.7756 198.895C84.0203 207.154 76.2676 256.457 72.6107 280.076C74.4914 278.564 82.5158 274.664 99.5675 271.16C120.882 266.781 137.965 265.06 138.279 262.714C138.592 260.367 129.815 240.971 127.778 237.687C125.741 234.402 120.882 227.519 123.233 237.687M123.233 237.687C123.683 240.137 125.692 246.008 130.129 249.887C135.675 254.736 142.197 261.149 161.16 262.714C176.331 263.965 192.14 261.463 198.148 260.055L202.379 245.195C206.767 245.195 217.205 245.195 223.85 245.195C232.157 245.195 235.291 242.849 247.359 242.692C259.427 242.536 276.51 244.726 281.996 255.675C287.481 266.624 285.13 265.842 280.428 264.278C275.727 262.714 255.979 258.647 259.741 256.457C263.502 254.267 271.652 257.396 275.57 260.055C279.488 262.714 284.503 270.535 272.279 266.937C260.054 263.34 254.569 260.055 242.031 260.055C232 260.055 219.776 260.68 214.917 260.993C215.544 259.064 217.08 253.954 218.208 248.949C219.619 242.692 219.932 241.91 217.425 241.284C214.917 240.659 184.983 233.933 177.303 232.838C169.624 231.743 166.332 230.491 160.377 232.838C154.421 235.184 153.481 240.735 160.377 236.123C167.273 231.51 168.997 230.961 166.332 222.045C163.668 213.129 159.75 198.269 156.772 184.348C153.794 170.426 148.622 151.5 139.219 144.93C129.815 138.36 120.725 135.545 113.516 138.986C106.307 142.427 102.075 144.93 104.426 162.605C106.777 180.281 112.105 207.654 113.359 214.224C114.613 220.793 112.889 222.983 115.553 227.363C118.218 231.743 125.44 244.569 126.174 247.228M123.233 237.687C123.962 240.839 125.218 244.111 126.174 247.228M295.317 204.056C289.518 206.246 296.101 211.095 300.019 215.006C303.937 218.916 312.243 212.66 318.826 207.967C325.408 203.274 330.737 203.274 323.214 183.565C315.691 163.857 303.78 147.745 300.019 142.427C296.258 137.109 293.907 141.802 291.399 146.651C288.891 151.5 287.167 163.857 283.093 163.857C279.018 163.857 274.943 153.533 272.905 149.466C270.868 145.399 259.897 122.875 256.449 114.585C253.001 106.294 253.785 104.73 263.345 88.7753C272.905 72.8205 286.384 75.7925 295.317 78.2952C302.464 80.2974 305.504 87.4718 306.131 90.8087C306.549 90.6523 307.134 89.0569 306.131 83.9263C304.877 77.5131 300.489 73.2898 293.907 69.3793C287.324 65.4688 291.242 71.1892 293.907 74.3847C296.571 77.5802 298.922 77.0438 297.981 75.4796C297.041 73.9154 287.794 68.2843 272.905 65.3124C258.017 62.3404 250.18 73.2898 246.105 85.1776C242.031 97.0655 241.717 121.467 243.128 128.975C244.538 136.483 246.419 129.444 246.105 124.439C245.792 119.434 245.635 118.964 249.083 120.216C252.531 121.467 255.666 128.193 261.465 136.483C267.263 144.773 270.084 138.986 272.279 136.483C274.473 133.981 273.062 131.165 285.757 134.606C298.452 138.047 298.765 134.919 303.78 126.16C308.796 117.4 307.385 103.322 302.37 91.5908C297.355 79.8594 302.37 84.2391 300.489 88.7753C298.608 93.3114 294.22 101.758 288.891 109.266C283.563 116.774 281.212 122.093 279.488 131.165C277.764 140.237 282.152 146.651 285.757 149.466C289.362 152.282 290.459 152.751 285.757 154.941C281.055 157.131 277.137 156.192 267.577 152.751C258.017 149.31 256.92 141.958 249.083 136.483C241.247 131.009 238.583 131.947 226.828 138.986C215.074 146.025 218.365 166.672 219.619 177.934C220.873 189.197 221.186 200.146 217.425 213.129C213.663 226.112 213.507 210.157 213.977 200.928C214.447 191.699 214.447 175.432 214.917 169.644C215.387 163.857 215.074 162.605 205.827 161.198C196.58 159.79 188.274 163.075 180.438 171.521C172.601 179.968 182.789 212.972 185.296 226.581C187.804 240.189 195.953 232.838 202.379 231.743C208.805 230.648 247.829 219.542 254.412 216.101C260.994 212.66 240.62 197.33 232.157 184.348C223.694 171.365 223.85 171.834 223.85 156.192C223.85 140.55 230.433 141.802 240.62 143.679C250.807 145.556 266.166 171.208 272.279 179.811C278.391 188.415 279.488 192.481 277.921 195.923C276.353 199.364 276.353 195.453 277.921 191.856C279.488 188.258 296.101 170.426 297.981 168.393C299.862 166.359 301.116 169.488 303.78 170.426C306.445 171.365 316.632 177.934 318.826 176.214C321.02 174.493 313.654 168.236 309.893 165.264C306.131 162.292 302.84 159.477 301.116 163.857C299.392 168.236 301.429 167.454 303.78 165.264C306.131 163.075 313.341 146.651 314.751 141.802C316.162 136.952 317.729 142.271 316.632 153.533C315.535 164.795 322.274 156.818 329.17 146.651C336.066 136.483 336.222 144.304 332.774 151.656C329.327 159.008 319.453 170.426 312.243 177.934C305.034 185.443 290.615 198.582 279.488 210.157C268.36 221.732 265.853 212.972 261.935 207.967C258.017 202.962 244.538 181.219 237.329 174.18C230.12 167.141 232.314 179.968 238.583 195.453C244.852 210.939 239.836 213.285 224.948 220.793C210.059 228.301 196.267 229.084 193.603 228.614C190.938 228.145 184.199 206.403 181.691 201.554C179.184 196.705 169.467 173.242 163.825 152.125C158.183 131.009 164.765 144.461 166.332 150.561C167.9 156.661 172.131 169.801 173.072 178.716C173.824 185.849 171.713 208.905 170.564 219.542C170.146 213.911 168.715 199.239 166.332 185.599C163.355 168.549 156.459 157.756 153.011 150.561C149.563 143.366 142.04 134.293 137.181 133.824C132.323 133.355 148.152 142.271 153.011 143.522C157.869 144.773 156.929 128.506 156.929 122.405C156.929 116.305 160.22 115.992 167.586 118.808C174.952 121.623 182.945 109.266 182.945 100.037C182.945 90.8087 182.945 69.5357 177.46 65.6252C171.974 61.7147 166.019 75.0104 156.929 87.5239C147.839 100.037 146.428 93.4679 142.04 86.8983C137.652 80.3286 139.376 78.7644 130.129 102.697C120.882 126.629 111.949 129.914 104.426 136.64C96.9031 143.366 90.9476 146.181 87.8131 146.494C84.6786 146.807 85.7756 139.455 87.8131 129.914C89.8505 120.372 96.5897 115.21 100.665 101.602C104.739 87.9932 103.486 65.7816 111.949 51.8603C120.412 37.939 137.808 36.0619 156.459 35.2798C175.109 34.4977 181.065 52.9552 182.945 57.8042C184.826 62.6532 188.431 66.2509 180.124 80.7979C171.818 95.3449 161.317 86.5854 156.459 102.697C151.6 118.808 138.435 122.405 119.785 129.914C101.135 137.422 91.5745 151.5 88.7534 161.041C85.9324 170.583 90.4774 189.04 91.5745 206.716C92.6715 224.391 89.8505 242.536 88.5967 249.887C87.3429 257.239 84.5218 262.714 84.0517 267.094C83.5815 271.473 104.583 266.155 119.001 262.714C128.95 260.339 128.304 254.167 126.174 247.228M295.317 204.056C301.116 201.867 305.661 201.554 305.818 196.705C305.974 191.856 306.445 190.917 313.341 190.917C316.415 190.917 353.016 192.731 394.524 194.841M295.317 204.056C289.153 207.498 275.915 215.319 272.279 219.073C267.734 223.765 265.383 233.307 268.831 229.397C271.589 226.268 273.741 222.358 274.473 220.793C272.488 223.922 269.269 230.022 272.279 229.397C275.288 228.771 278.966 223.4 280.428 220.793C279.383 222.149 277.607 225.642 278.861 228.771C280.428 232.681 281.682 233.463 281.996 228.614C282.309 223.765 282.466 220.793 286.541 220.793C290.615 220.793 294.847 221.263 297.981 219.073C301.116 216.883 305.034 212.19 302.527 208.906C300.52 206.278 296.884 204.578 295.317 204.056ZM780.538 318.086L719.729 320.12C719.729 318.921 719.259 315.458 717.378 311.204C715.027 305.886 702.646 289.462 695.907 280.076C689.167 270.691 681.018 254.893 681.488 252.859C681.958 250.826 715.497 300.724 722.863 308.075C730.229 315.427 732.737 312.299 736.498 306.98C740.26 301.662 744.335 291.026 747.313 281.641C750.29 272.255 756.246 250.982 758.44 241.441C760.634 231.899 764.709 224.078 760.321 211.252C755.932 198.425 746.842 190.292 744.648 188.884C742.454 187.476 735.088 181.845 727.565 187.632C720.042 193.42 716.438 215.475 715.184 224.078C713.93 232.681 712.99 253.329 712.99 267.25C712.99 281.171 716.281 275.227 717.378 265.842C718.475 256.457 718.789 249.731 718.945 236.279C719.102 222.827 720.199 195.297 720.042 191.074C719.886 186.85 720.042 178.404 717.691 170.113C715.341 161.823 703.743 142.271 701.079 138.047C698.414 133.824 696.377 127.411 691.518 130.383C686.66 133.355 682.898 142.584 680.234 147.276C677.57 151.969 677.256 155.097 677.57 155.723C677.883 156.349 680.077 154.315 684.152 155.097C688.227 155.879 693.086 161.667 699.511 168.236C705.937 174.806 701.392 182.314 699.511 191.856C697.631 201.397 682.742 242.536 676.629 255.518C670.517 268.501 666.599 265.999 658.92 266.155C651.24 266.311 641.366 263.809 627.888 260.524C614.41 257.239 593.75 246.603 589.49 245.508C585.23 244.413 582.438 245.508 577.109 248.636C571.78 251.764 569.9 250.826 567.549 249.575C565.198 248.323 572.407 242.848 578.049 239.72C583.691 236.592 581.811 240.659 577.109 242.223C572.407 243.787 570.527 244.413 564.571 245.508C558.615 246.603 558.929 246.29 559.869 243.631C560.81 240.971 568.332 236.435 571.78 236.435C575.228 236.435 562.847 239.877 557.518 240.659C552.19 241.441 559.086 233.307 568.332 227.989C577.579 222.67 586.983 226.112 591.998 226.737C596.01 227.238 600.252 226.946 601.872 226.737C601.14 227.884 598.925 231.555 595.916 237.061C592.155 243.943 591.841 242.379 594.035 247.228C596.229 252.077 605.633 251.764 608.767 254.58C611.902 257.396 607.357 256.613 605.633 254.58C603.909 252.547 603.909 252.547 603.752 245.508C603.627 239.877 608.088 232.942 610.335 230.179C620.987 231.743 643.204 235.184 646.852 236.435C651.411 237.999 646.382 239.407 643.09 239.094C639.799 238.782 641.993 236.905 643.09 232.212C644.187 227.519 657.352 194.358 660.644 183.096C663.935 171.834 664.875 161.667 671.458 150.561C678.04 139.455 689.324 129.288 691.518 126.16C693.713 123.031 684.622 123.188 679.137 120.998C673.652 118.808 674.749 110.518 675.376 103.948C676.003 97.3784 676.629 89.0881 675.376 84.2391C674.122 79.3901 657.822 80.0158 654.061 78.7645C650.3 77.5131 651.553 67.5022 650.613 60.6198C649.673 53.7373 631.649 57.8042 624.91 57.6478C618.171 57.4914 612.686 54.363 622.246 46.0728C631.806 37.7825 648.105 37.4697 655.942 38.2518C662.211 38.8775 665.345 45.4992 666.129 48.7319C666.599 47.3241 667.069 42.3187 671.614 47.9498C676.159 53.5809 682.428 67.6587 683.525 74.5411C684.622 81.4236 684.779 95.0321 682.428 103.322C680.077 111.613 664.248 109.579 657.196 109.579C650.143 109.579 649.359 104.574 648.889 102.227C648.419 99.8811 645.911 85.0212 643.247 84.2391C641.116 83.6135 639.433 91.1737 638.859 95.0321C638.336 90.9652 636.79 82.4247 634.784 80.7979C632.276 78.7645 633.217 77.3567 628.201 69.0664C623.186 60.7762 622.246 65.7816 620.052 80.0158C617.858 94.25 622.716 119.277 629.925 126.942C637.135 134.606 647.949 128.193 650.613 130.383C653.277 132.573 655.158 141.489 660.33 148.997C665.502 156.505 676.473 139.299 679.137 131.634C681.801 123.97 677.57 123.031 672.241 126.942C666.913 130.852 660.017 141.176 653.748 149.779C647.479 158.382 637.762 181.063 635.724 193.576C633.687 206.09 635.411 207.028 636.665 211.095C637.918 215.162 645.755 189.979 650.613 175.901C655.472 161.823 653.277 163.231 651.867 165.89C650.456 168.549 638.859 212.19 637.762 215.944C636.665 219.698 635.724 222.827 628.515 225.486C621.305 228.145 607.357 225.955 600.618 225.486C593.879 225.017 588.236 224.391 583.378 222.827C578.52 221.263 584.005 218.916 586.983 217.978C589.365 217.227 601.558 213.807 607.357 212.19C608.924 214.276 613.124 219.636 617.387 224.391C622.716 230.335 621.932 223.609 619.738 221.575C617.983 219.949 613.26 215.162 611.118 212.972L634.47 204.369C617.126 203.848 581.967 202.555 580.087 201.554C577.736 200.302 575.698 184.504 574.601 177.152C573.504 169.801 571.467 125.221 571.624 120.528C571.78 115.836 574.131 117.869 576.952 122.093C579.773 126.316 581.967 133.668 581.184 138.986C580.4 144.304 579.303 143.991 578.833 140.081C578.363 136.17 580.087 126.003 581.184 123.657C582.281 121.311 585.102 129.757 588.863 136.17C592.625 142.584 606.73 176.839 608.297 185.912C609.865 194.984 606.73 199.677 601.872 205.308C597.013 210.939 586.983 214.693 582.438 216.726C577.893 218.76 574.131 218.134 569.9 217.509C565.668 216.883 564.884 221.575 563.787 223.14C562.69 224.704 559.869 228.614 557.518 229.866C555.167 231.117 547.645 231.743 545.137 232.525C542.629 233.307 541.376 233.15 542.629 232.525C543.883 231.899 554.227 228.614 555.011 227.989C555.794 227.363 543.57 230.648 542.629 229.866C541.877 229.24 549.316 226.685 553.13 225.486C549.212 226.842 540.498 229.615 536.987 229.866C532.599 230.179 531.345 230.179 533.853 228.614C536.36 227.05 548.428 221.575 549.055 222.045C549.682 222.514 539.652 225.799 533.853 226.581C528.054 227.363 531.345 224.704 532.286 223.14C533.038 221.888 542.838 216.987 547.645 214.693C547.906 214.849 547.018 215.475 541.376 216.726C534.323 218.291 537.614 215.631 540.279 213.442C542.943 211.252 562.063 205.308 563.787 205.308C565.511 205.308 570.213 212.66 573.034 217.509C575.855 222.358 573.504 222.67 571.153 221.575C568.803 220.481 565.982 216.883 562.847 213.442C560.339 210.689 555.324 209.688 553.13 209.531C563.422 203.014 584.35 189.791 585.729 189.04C587.453 188.102 589.02 188.415 587.61 192.951C586.199 197.487 584.789 192.951 584.005 189.979C583.221 187.007 579.773 174.65 580.087 163.075C580.4 151.5 582.438 161.354 581.967 165.89C581.497 170.426 578.833 187.476 576.952 191.856C575.072 196.235 572.251 195.923 568.489 195.297C565.48 194.796 561.489 190.5 559.869 188.415C561.959 179.968 566.608 161.417 568.489 154.784C570.84 146.494 568.332 145.399 564.258 140.707C560.183 136.014 564.258 136.483 567.392 135.232C570.527 133.981 567.549 128.037 564.258 121.154C560.966 114.272 559.086 118.651 558.302 122.093C557.518 125.534 554.384 134.293 553.13 138.36C551.876 142.427 550.936 140.081 549.525 138.36C548.115 136.64 545.921 134.293 545.451 137.735C545.074 140.488 550.413 170.061 553.13 184.504C553.914 168.08 555.262 133.105 554.384 124.595C553.287 113.959 548.585 108.328 539.965 110.987C531.345 113.646 524.293 111.456 519.591 105.512C514.889 99.5682 521.628 83.1442 527.114 70.7871C532.599 58.4299 537.614 63.4353 544.98 66.7202C552.346 70.005 559.713 79.7029 561.123 87.9932C562.251 94.6254 556.682 101.185 553.757 103.635C554.227 102.592 555.23 99.8498 555.481 97.2219C555.794 93.9371 555.324 91.5908 553.757 89.7138C552.503 88.2122 549.369 92.9465 547.958 95.5013C548.481 94.615 549.525 91.8724 549.525 87.9932C549.525 83.1442 545.607 83.457 541.846 82.0493C538.084 80.6415 539.965 76.4182 541.846 72.5077C543.727 68.5972 538.868 69.6921 534.48 68.91C530.091 68.1279 528.367 64.9995 529.935 62.0276C531.502 59.0556 533.383 56.8657 539.965 59.212C546.548 61.5583 560.026 70.9435 563.16 74.2283C566.295 77.5131 571.153 91.7473 563.16 97.2219C556.766 101.602 556.63 110.413 557.362 114.272C553.757 119.225 545.607 129.632 541.846 131.634C537.144 134.137 535.577 124.595 533.383 118.651C531.189 112.707 526.487 118.651 520.531 123.031C514.576 127.411 522.412 129.288 524.293 130.852C526.173 132.416 521.472 133.198 517.71 135.232C513.949 137.265 516.3 139.299 517.71 145.399C518.839 150.279 525.285 171.208 528.367 181.063C528.367 178.091 528.179 170.332 527.427 163.075C526.487 154.002 529.308 128.819 529.935 124.595C530.562 120.372 531.345 115.523 528.367 115.21C525.39 114.897 519.434 116.462 513.949 118.651C508.463 120.841 507.21 130.852 507.21 134.293C507.21 137.735 504.389 142.427 502.351 140.707C500.314 138.986 500 139.455 500.784 142.427C501.567 145.399 507.21 152.907 507.21 162.136C507.21 171.365 496.709 182.158 492.948 188.415C489.186 194.671 491.851 195.453 495.925 197.33C500 199.207 525.233 200.772 544.353 203.9C563.474 207.028 555.011 201.867 549.525 199.677C544.04 197.487 541.846 198.425 544.353 200.772C546.861 203.118 557.048 206.09 559.869 205.308C562.69 204.526 560.81 200.615 558.302 198.425C555.794 196.235 539.025 189.979 535.577 187.476C532.818 185.474 531.606 193.941 531.345 198.425C528.681 198.842 523.54 199.426 524.293 198.425C525.045 197.424 527.323 190.709 528.367 187.476C528.315 186.485 526.111 184.035 517.71 182.158C507.21 179.811 504.545 180.124 502.351 181.063C500.157 182.001 499.843 183.722 502.351 184.504C504.859 185.286 504.859 183.096 505.799 181.063C506.739 179.029 514.262 163.387 513.949 156.192C513.635 148.997 509.717 128.037 507.21 123.031C504.702 118.026 496.396 135.388 492.948 143.835C489.5 152.282 476.962 179.655 473.357 189.979C470.473 198.238 482.186 199.885 488.403 199.677C472.181 198.832 451.15 197.742 429.317 196.621M429.317 196.621C430.884 190.079 433.423 177.184 431.041 177.934C428.063 178.873 420.384 185.912 413.488 181.063C406.592 176.214 404.084 173.398 401.89 165.108C399.696 156.818 393.897 131.478 394.524 112.082C395.151 92.6858 399.539 66.8766 400.636 62.3404C401.734 57.8042 402.204 55.4579 404.868 63.2789C407.532 71.0999 410.824 73.6026 407.846 76.1053C404.868 78.608 401.42 79.3901 403.614 80.9543C405.808 82.5185 410.824 84.2391 407.846 88.9317C404.868 93.6243 396.718 104.417 396.875 110.83C397.032 117.244 400.793 145.556 402.517 152.907C404.241 160.259 404.241 166.985 410.197 167.767C416.152 168.549 424.459 168.08 422.421 169.801C420.384 171.521 417.093 174.65 420.07 175.119C423.048 175.588 433.549 175.588 434.959 173.398C436.37 171.208 433.079 157.913 431.041 149.31C429.004 140.707 425.556 125.69 426.653 113.333C427.75 100.976 429.474 96.127 428.534 92.5294C427.593 88.9317 423.832 89.2445 426.653 93.3115C429.474 97.3784 438.721 111.3 444.363 113.333C450.005 115.367 451.572 113.646 456.117 106.764C460.662 99.8811 468.498 81.58 469.125 77.8259C469.752 74.0719 470.066 73.9154 467.872 72.3513C466.116 71.0999 458.573 65.7816 455.02 63.2789L458.625 53.8938C461.028 56.24 466.242 61.4019 467.872 63.2789C469.909 65.6252 471.946 67.6587 470.222 68.2843C468.498 68.91 467.245 66.3175 467.872 65.156C468.498 63.9944 472.887 59.8377 475.394 55.7708C477.902 51.7039 479.312 46.542 478.686 41.693C478.059 36.844 476.648 33.8721 473.984 38.7211C471.32 43.5701 471.163 53.1117 467.872 50.2961C464.58 47.4806 465.207 44.665 463.013 41.693C460.819 38.7211 460.349 42.1623 459.879 45.4471C459.408 48.7319 451.572 66.5637 450.162 70.7871C448.751 75.0104 444.363 85.334 443.109 88.9317C441.855 92.5293 440.601 97.2219 442.482 94.0936C444.363 90.9652 447.341 86.429 443.109 78.608C438.877 70.7871 432.295 68.2843 429.474 65.156C426.653 62.0276 425.712 63.4353 424.929 66.7202C424.145 70.005 422.108 74.6975 423.362 78.608C424.615 82.5185 427.28 78.7645 426.653 74.5411C426.026 70.3178 428.69 67.3458 423.048 62.8097C417.406 58.2735 408.316 56.3965 405.652 55.1451C402.987 53.8938 401.263 50.9218 399.696 55.1451C398.129 59.3684 390.92 70.1614 387.785 72.3513C384.651 74.5411 382.927 75.4796 380.419 70.7871C377.911 66.0945 375.247 59.5249 373.21 57.6478C371.58 56.1462 371.068 47.0113 371.015 42.6315C373.21 46.9591 379.165 56.0211 385.434 57.6478C393.27 59.6813 396.562 56.0836 398.599 45.4471C400.636 34.8106 399.853 27.6153 397.972 22.9227C396.091 18.2301 395.151 15.2581 387.785 15.7274C381.892 16.1028 376.135 12.6511 373.993 10.8784C374.725 12.8076 375.592 17.1039 373.21 18.8558C370.827 20.6077 370.127 27.0939 370.075 30.118C368.926 27.7717 366.126 23.2355 364.12 23.8612M429.317 196.621C417.746 196.026 405.949 195.422 394.524 194.841M364.12 23.8612C361.612 24.6433 362.396 27.7717 364.12 32.4643C364.949 34.7211 366.104 36.6523 366.941 37.4401M364.12 23.8612C363.858 21.4107 364.214 15.6649 367.724 12.2862C372.112 8.06289 392.8 14.1633 396.718 14.9454C400.636 15.7275 398.599 10.8784 390.293 5.71663C381.986 0.554868 373.993 0.71121 371.015 2.58824C368.633 4.08987 368.874 6.23798 369.291 7.12433C365.373 4.77812 362.27 8.09413 361.142 13.2247C359.731 19.6379 366.47 29.4923 367.724 34.967C368.375 37.8087 367.843 38.2904 366.941 37.4401M366.941 37.4401C367.985 40.3698 369.605 47.2616 367.724 51.3911C365.373 56.5529 358.477 57.8043 355.97 59.2121C353.462 60.6199 351.581 59.8378 351.425 67.1895C351.268 74.5411 354.403 83.1441 354.716 76.1053C355.029 69.0665 351.895 63.2789 349.544 62.8097C347.193 62.3404 345.939 65.7818 344.999 69.0665C344.059 72.3513 337.79 92.0602 336.693 101.758C335.596 111.456 333.558 119.746 336.693 125.534C339.827 131.321 343.589 136.014 355.97 130.227C365.875 125.597 371.59 105.356 373.21 95.8142C368.56 94.615 359.198 91.8099 358.948 90.1831C358.634 88.1497 358.321 81.8929 362.709 82.3622C366.22 82.7376 371.172 85.8555 373.21 87.3676C377.389 82.0493 385.403 70.9436 384.024 69.0665C382.3 66.7202 378.852 76.1053 375.717 74.5411C372.583 72.977 373.993 67.033 373.21 62.3404C372.426 57.6478 371.486 48.732 367.411 59.2121C363.336 69.6922 363.649 81.4237 361.769 85.1777C359.888 88.9317 352.365 96.1271 350.641 103.01C348.917 109.892 342.491 123.5 348.604 127.88C354.716 132.26 354.716 136.327 353.619 142.427C352.522 148.528 345.626 175.901 346.253 180.437C346.88 184.973 345.939 186.068 355.97 184.817C366 183.565 379.479 184.035 381.046 172.147C382.613 160.259 383.24 122.875 383.083 110.83C382.927 98.7862 381.673 90.3396 381.829 87.3676C381.986 84.3956 384.964 76.2618 385.904 80.1723C386.845 84.0828 386.374 136.014 386.688 143.835C387.001 151.656 387.942 163.387 389.666 167.767C391.39 172.147 393.427 179.186 394.524 172.147C395.621 165.108 395.621 152.438 395.778 146.651C395.935 140.863 391.39 138.829 392.957 146.651C394.524 154.472 398.912 169.801 399.696 174.337C400.48 178.873 394.994 178.717 391.233 178.873C387.472 179.029 386.688 179.029 391.233 181.063C395.778 183.096 404.711 186.381 398.442 187.007C392.173 187.632 361.925 186.381 364.433 188.727C366.439 190.604 385.33 193.586 394.524 194.841" stroke="white" stroke-width="2" stroke-linecap="round" stroke-linejoin="round"/>
</svg>
