<svg width="22" height="18" viewBox="0 0 22 18" fill="none" xmlns="http://www.w3.org/2000/svg">
<path d="M9.75 9.00001C9.75 8.5858 9.41421 8.25001 9 8.25001C8.58579 8.25001 8.25 8.5858 8.25 9.00001V13C8.25 13.4142 8.58579 13.75 9 13.75C9.41421 13.75 9.75 13.4142 9.75 13V9.00001Z" fill="#35375B"/>
<path d="M13.75 9.00001C13.75 8.5858 13.4142 8.25001 13 8.25001C12.5858 8.25001 12.25 8.5858 12.25 9.00001V13C12.25 13.4142 12.5858 13.75 13 13.75C13.4142 13.75 13.75 13.4142 13.75 13V9.00001Z" fill="#35375B"/>
<path fill-rule="evenodd" clip-rule="evenodd" d="M14.5304 0.46967C14.2375 0.176777 13.7626 0.176777 13.4697 0.46967C13.1768 0.762563 13.1768 1.23744 13.4697 1.53033L16.1894 4.25001H6.05331L8.77297 1.53035C9.06586 1.23745 9.06586 0.762578 8.77297 0.469685C8.48008 0.176792 8.0052 0.176792 7.71231 0.469685L3.93198 4.25001H1C0.585786 4.25001 0.25 4.5858 0.25 5.00001C0.25 5.41422 0.585786 5.75001 1 5.75001H1.54431C1.77073 6.60621 2.06357 7.59336 2.40431 8.74198L3.42921 12.1969C3.83637 13.5702 4.08598 14.412 4.52349 15.0966C5.2767 16.2751 6.43365 17.1386 7.77772 17.5256C8.55843 17.7503 9.43649 17.7502 10.8688 17.75H11.1312C12.5635 17.7502 13.4416 17.7503 14.2223 17.5256C15.5663 17.1386 16.7233 16.2751 17.4765 15.0966C17.914 14.412 18.1636 13.5702 18.5708 12.1969L19.5956 8.7422C19.9364 7.59355 20.2293 6.60623 20.4557 5.75001H21C21.4142 5.75001 21.75 5.41422 21.75 5.00001C21.75 4.5858 21.4142 4.25001 21 4.25001H18.3107L14.5304 0.46967ZM3.84743 8.33246C3.55304 7.34006 3.30126 6.491 3.09786 5.75001H18.9021C18.6987 6.491 18.447 7.34006 18.1526 8.33247L17.17 11.6446C16.7134 13.1837 16.5216 13.8052 16.2126 14.2888C15.6559 15.1598 14.8007 15.7981 13.8073 16.0841C13.2558 16.2429 12.6055 16.25 11 16.25C9.39454 16.25 8.74417 16.2429 8.1927 16.0841C7.19926 15.7981 6.34412 15.1598 5.7874 14.2888C5.47836 13.8052 5.28656 13.1837 4.82997 11.6446L3.84743 8.33246Z" fill="#35375B"/>
</svg>
