<svg width="28" height="28" viewBox="0 0 28 28" fill="none" xmlns="http://www.w3.org/2000/svg">
<path fill-rule="evenodd" clip-rule="evenodd" d="M23.4823 9.95124C23.0636 7.75255 22.0039 5.65102 20.3048 3.94978C15.7941 -0.566594 8.48031 -0.566594 3.96962 3.94978C2.59361 5.32752 1.3784 7.36693 0.846942 9.63111C0.312266 11.909 0.460505 14.4677 1.90464 16.7945C1.97859 16.9136 2.02432 16.9874 2.05663 17.0426C2.07153 17.0681 2.07937 17.0826 2.08267 17.0889C2.08568 17.0969 2.08754 17.1024 2.08862 17.1058C2.08861 17.1099 2.08844 17.117 2.08774 17.1276C2.08685 17.1325 2.08479 17.1433 2.08059 17.1619C2.06991 17.2092 2.05364 17.2725 2.0247 17.3843L2.0163 17.4167C1.85044 18.0574 1.71412 18.584 1.63399 19.0095C1.55333 19.4378 1.50666 19.87 1.59246 20.2922C1.83711 21.4958 2.77689 22.4375 3.98059 22.6827C4.40285 22.7688 4.83514 22.722 5.26301 22.6412C5.68807 22.5609 6.2141 22.4244 6.85393 22.2583L6.88638 22.2499C6.99801 22.2209 7.06119 22.2047 7.10841 22.194C7.12679 22.1898 7.13752 22.1877 7.14248 22.1868C7.15227 22.1862 7.15897 22.186 7.16315 22.1859C7.16659 22.187 7.17181 22.1888 7.17909 22.1916C7.18541 22.1949 7.20006 22.2028 7.22574 22.2178C7.28137 22.2502 7.35579 22.2962 7.47557 22.3703C8.25047 22.8498 9.05698 23.1849 9.87399 23.3971C10.1771 23.8193 10.5179 24.2222 10.8963 24.6011C12.0112 25.7173 13.714 26.7304 15.6107 27.1847C17.5206 27.6422 19.6966 27.5463 21.6656 26.328C21.7611 26.2689 21.8195 26.2329 21.8625 26.2076C21.8968 26.2158 21.944 26.228 22.0223 26.2483L22.0538 26.2565C22.5766 26.3922 23.0144 26.5058 23.37 26.5729C23.7284 26.6406 24.11 26.6841 24.4898 26.6067C25.5463 26.3915 26.371 25.5651 26.5856 24.5089C26.6628 24.1292 26.6194 23.7476 26.5519 23.3889C26.4849 23.033 26.3714 22.5947 26.2359 22.0713L26.2277 22.0397C26.2072 21.9605 26.195 21.9131 26.1868 21.8786C26.212 21.8359 26.2478 21.778 26.307 21.6827C27.5241 19.7217 27.6467 17.5676 27.1985 15.6584C26.7536 13.7629 25.7371 12.0562 24.5829 10.9006C24.2351 10.5523 23.867 10.2358 23.4823 9.95124ZM18.9781 5.27477C15.1998 1.49174 9.07455 1.49174 5.29628 5.27477C4.15881 6.41368 3.12163 8.1454 2.67233 10.0596C2.22625 11.96 2.36887 13.9869 3.49773 15.8057C3.50842 15.8229 3.51925 15.8403 3.53016 15.8578C3.63778 16.0305 3.75369 16.2166 3.8209 16.3856C3.94011 16.6853 3.98139 16.9565 3.95674 17.2781C3.9429 17.4588 3.89432 17.6452 3.85166 17.8088C3.84767 17.8241 3.84373 17.8392 3.83987 17.8541C3.66354 18.5353 3.54364 19.0005 3.47659 19.3565C3.40873 19.7168 3.41783 19.8594 3.42989 19.9187C3.52491 20.3862 3.88957 20.7507 4.35496 20.8455C4.41353 20.8574 4.55537 20.8667 4.91513 20.7987C5.27054 20.7316 5.73505 20.6116 6.41538 20.435C6.43028 20.4312 6.4454 20.4272 6.46072 20.4232C6.624 20.3805 6.81013 20.3319 6.99038 20.3179C7.31169 20.2931 7.58119 20.3339 7.88073 20.4526C8.04929 20.5195 8.23598 20.6354 8.40957 20.7432C8.42725 20.7542 8.44478 20.7651 8.46215 20.7758C8.49632 20.797 8.53055 20.8178 8.56486 20.8382C7.43455 17.4633 8.21103 13.5892 10.8963 10.9006C13.6792 8.11412 17.7345 7.37985 21.1887 8.69645C20.7183 7.44912 19.9816 6.27957 18.9781 5.27477ZM22.0992 11.269C19.0653 9.21728 14.9083 9.53687 12.223 12.2255C9.55976 14.8921 9.22309 19.0091 11.2167 22.0411C11.5034 22.4771 11.8387 22.8913 12.223 23.2761C13.0935 24.1477 14.4885 24.9879 16.0475 25.3613C17.5933 25.7315 19.231 25.6295 20.6791 24.7335C20.6934 24.7246 20.7082 24.7155 20.7233 24.7061C20.8627 24.6194 21.0303 24.5152 21.184 24.4543C21.454 24.3472 21.7012 24.3098 21.9909 24.3322C22.1552 24.3449 22.3235 24.389 22.455 24.4234C22.4681 24.4269 22.4809 24.4302 22.4932 24.4334C23.0558 24.5794 23.432 24.6765 23.7179 24.7305C24.0081 24.7853 24.0993 24.7728 24.1155 24.7695C24.4336 24.7047 24.6831 24.4555 24.7482 24.1354C24.7516 24.1186 24.764 24.0267 24.7093 23.736C24.6553 23.4496 24.5583 23.0728 24.4125 22.5096C24.4093 22.4972 24.406 22.4845 24.4026 22.4713C24.3681 22.3395 24.3241 22.171 24.3115 22.0064C24.2893 21.7164 24.3271 21.4678 24.4346 21.1975C24.4959 21.0435 24.6 20.8765 24.6866 20.7377C24.6959 20.7228 24.705 20.7082 24.7139 20.6939C25.6157 19.2409 25.7327 17.6187 25.3731 16.0869C25.0104 14.5414 24.1719 13.1424 23.2562 12.2255C22.8944 11.8633 22.5066 11.5446 22.0992 11.269Z" fill="#FD4C00"/>
<path d="M15.2498 17.75C15.2498 18.4404 14.6902 19 13.9998 19C13.3095 19 12.7498 18.4404 12.7498 17.75C12.7498 17.0596 13.3095 16.5 13.9998 16.5C14.6902 16.5 15.2498 17.0596 15.2498 17.75Z" fill="#FD4C00"/>
<path d="M18.9998 17.75C18.9998 18.4404 18.4402 19 17.7498 19C17.0595 19 16.4998 18.4404 16.4998 17.75C16.4998 17.0596 17.0595 16.5 17.7498 16.5C18.4402 16.5 18.9998 17.0596 18.9998 17.75Z" fill="#FD4C00"/>
<path d="M22.7498 17.75C22.7498 18.4404 22.1902 19 21.4998 19C20.8095 19 20.2498 18.4404 20.2498 17.75C20.2498 17.0596 20.8095 16.5 21.4998 16.5C22.1902 16.5 22.7498 17.0596 22.7498 17.75Z" fill="#FD4C00"/>
</svg>
