<svg width="22" height="29" viewBox="0 0 22 29" fill="none" xmlns="http://www.w3.org/2000/svg">
<path d="M15.48 10.5882C15.8049 10.185 15.7414 9.59486 15.3382 9.26999C14.935 8.94513 14.3449 9.00861 14.02 9.41178L11.4931 12.5478C10.9743 13.1917 10.6469 13.5944 10.3744 13.8488C10.2464 13.9684 10.1646 14.0216 10.1176 14.0451C10.0826 14.0626 10.0701 14.0625 10.0634 14.0625H10.0616C10.0549 14.0625 10.0424 14.0626 10.0074 14.0451C9.96039 14.0216 9.8786 13.9684 9.75057 13.8488C9.47811 13.5944 9.15073 13.1917 8.63188 12.5478L7.98001 11.7388C7.65514 11.3356 7.06495 11.2721 6.66178 11.597C6.25861 11.9218 6.19513 12.512 6.51999 12.9152L7.21259 13.7747C7.67822 14.3527 8.08904 14.8626 8.47081 15.2192C8.8807 15.602 9.39033 15.9375 10.0625 15.9375C10.7347 15.9375 11.2443 15.602 11.6542 15.2192C12.036 14.8626 12.4468 14.3527 12.9124 13.7747L15.48 10.5882Z" fill="#FD4C00"/>
<path fill-rule="evenodd" clip-rule="evenodd" d="M11 0.3125C4.89583 0.3125 0.0625 5.61597 0.0625 12.0109C0.0625 14.0618 1.08138 16.4768 2.3633 18.7432C3.66597 21.0462 5.3286 23.3453 6.78629 25.2041L6.83492 25.2661C7.54642 26.1735 8.15254 26.9466 8.7403 27.4805C9.38155 28.063 10.0887 28.4443 11 28.4443C11.9113 28.4443 12.6185 28.063 13.2597 27.4805C13.8475 26.9466 14.4536 26.1735 15.1651 25.2661L15.2137 25.2041C16.6714 23.3453 18.334 21.0462 19.6367 18.7432C20.9186 16.4768 21.9375 14.0618 21.9375 12.0109C21.9375 5.61597 17.1042 0.3125 11 0.3125ZM1.9375 12.0109C1.9375 6.51964 6.05848 2.1875 11 2.1875C15.9415 2.1875 20.0625 6.51964 20.0625 12.0109C20.0625 13.544 19.263 15.5955 18.0047 17.82C16.7671 20.0079 15.1678 22.2242 13.7383 24.0471C12.9646 25.0337 12.4552 25.6782 11.999 26.0926C11.5829 26.4705 11.3052 26.5693 11 26.5693C10.6948 26.5693 10.4171 26.4705 10.001 26.0926C9.54484 25.6782 9.03543 25.0337 8.26173 24.0471C6.83223 22.2242 5.23285 20.0079 3.99531 17.82C2.73703 15.5955 1.9375 13.544 1.9375 12.0109Z" fill="#FD4C00"/>
</svg>
