<svg width="46" height="47" viewBox="0 0 46 47" fill="none" xmlns="http://www.w3.org/2000/svg">
<path d="M10.4338 2.82466C11.1076 2.28558 11.2169 1.30231 10.6778 0.628464C10.1387 -0.0453831 9.15544 -0.154635 8.4816 0.384442L3.27326 4.55111C2.59942 5.09019 2.49016 6.07346 3.02924 6.7473C3.56832 7.42115 4.55159 7.5304 5.22543 6.99132L10.4338 2.82466Z" fill="#FD4C00"/>
<path d="M37.5171 0.384442C36.8433 -0.154635 35.86 -0.0453831 35.3209 0.628464C34.7818 1.30231 34.8911 2.28558 35.5649 2.82466L40.7733 6.99132C41.4471 7.5304 42.4304 7.42115 42.9695 6.7473C43.5085 6.07346 43.3993 5.09019 42.7254 4.55111L37.5171 0.384442Z" fill="#FD4C00"/>
<path d="M24.5619 13.5837C24.5619 12.7208 23.8623 12.0212 22.9994 12.0212C22.1364 12.0212 21.4369 12.7208 21.4369 13.5837V24.0004C21.4371 25.4856 23.2328 26.2295 24.283 25.1793L28.5237 20.9386C29.1339 20.3284 29.1339 19.3391 28.5237 18.7289C27.9135 18.1187 26.9241 18.1187 26.314 18.7289L24.5619 20.481V13.5837Z" fill="#FD4C00"/>
<path fill-rule="evenodd" clip-rule="evenodd" d="M22.9994 1.60455C10.6305 1.60455 0.603516 11.6315 0.603516 24.0004C0.603516 36.3693 10.6305 46.3962 22.9994 46.3962C35.3682 46.3962 45.3952 36.3693 45.3952 24.0004C45.3952 11.6315 35.3682 1.60455 22.9994 1.60455ZM3.72852 24.0004C3.72852 13.3574 12.3564 4.72955 22.9994 4.72955C33.6423 4.72955 42.2702 13.3574 42.2702 24.0004C42.2702 34.6434 33.6423 43.2712 22.9994 43.2712C12.3564 43.2712 3.72852 34.6434 3.72852 24.0004Z" fill="#FD4C00"/>
</svg>
