<svg width="513" height="576" viewBox="0 0 513 576" fill="none" xmlns="http://www.w3.org/2000/svg">
<path fill-rule="evenodd" clip-rule="evenodd" d="M278.938 257.867L316.906 237.629C317.922 237.086 319.097 236.917 320.225 237.152C321.403 237.376 322.463 238.011 323.215 238.943L350.421 275.18C350.836 275.714 351.113 276.342 351.228 277.008C351.343 277.674 351.291 278.359 351.079 279C350.865 279.632 350.507 280.204 350.032 280.672C349.558 281.148 348.972 281.497 348.328 281.687C345.338 282.523 340.734 282.164 335.233 277.389C326.085 269.419 305.755 284.582 299.058 290.015L278.938 257.867Z" fill="#FFA17A"/>
<path fill-rule="evenodd" clip-rule="evenodd" d="M323.364 277.777C322.902 275.822 322.731 273.811 322.856 271.807C322.856 271.031 324.112 271.21 324.052 271.986C323.962 273.853 324.144 275.723 324.59 277.538C324.769 278.404 323.573 278.523 323.364 277.777Z" fill="#35375B"/>
<path fill-rule="evenodd" clip-rule="evenodd" d="M317.803 278.762C317.138 276.845 316.973 274.79 317.324 272.792C317.324 272.016 318.67 272.195 318.52 272.971C318.239 274.711 318.383 276.492 318.939 278.165C319.208 278.911 318.072 279.359 317.803 278.612V278.762Z" fill="#35375B"/>
<path fill-rule="evenodd" clip-rule="evenodd" d="M312.661 280.583C312.19 279.179 311.879 277.727 311.734 276.254C311.734 275.478 312.93 275.359 312.96 276.254C313.089 277.624 313.37 278.976 313.797 280.284C314.036 281.03 312.9 281.478 312.661 280.732V280.583Z" fill="#35375B"/>
<path fill-rule="evenodd" clip-rule="evenodd" d="M324.888 269.598H324.529C324.384 269.566 324.256 269.481 324.17 269.359C324.115 269.215 324.115 269.056 324.17 268.911C324.191 268.761 324.265 268.623 324.38 268.523C324.524 268.468 324.684 268.468 324.828 268.523H325.187C325.266 268.539 325.342 268.572 325.409 268.618C325.476 268.664 325.532 268.723 325.575 268.792C325.605 268.858 325.621 268.929 325.621 269.001C325.621 269.073 325.605 269.144 325.575 269.21C325.572 269.286 325.551 269.361 325.515 269.428C325.479 269.495 325.428 269.553 325.366 269.598C325.291 269.631 325.209 269.648 325.127 269.648C325.045 269.648 324.963 269.631 324.888 269.598Z" fill="#35375B"/>
<path fill-rule="evenodd" clip-rule="evenodd" d="M318.462 268.643C318.492 268.708 318.507 268.78 318.507 268.852C318.507 268.924 318.492 268.995 318.462 269.061C318.433 269.191 318.359 269.308 318.253 269.389C318.127 269.432 317.99 269.432 317.864 269.389C317.721 269.385 317.584 269.332 317.476 269.24C317.43 269.104 317.43 268.957 317.476 268.822C317.516 268.696 317.588 268.583 317.685 268.494C317.811 268.454 317.947 268.454 318.074 268.494C318.217 268.492 318.356 268.546 318.462 268.643Z" fill="#35375B"/>
<path fill-rule="evenodd" clip-rule="evenodd" d="M313.079 270.643C313.125 270.768 313.125 270.905 313.079 271.031C313.05 271.161 312.976 271.278 312.87 271.359C312.744 271.402 312.607 271.402 312.481 271.359C312.365 271.398 312.239 271.398 312.122 271.359C312.079 271.233 312.079 271.097 312.122 270.971C312.167 270.84 312.25 270.726 312.361 270.643C312.477 270.599 312.605 270.599 312.72 270.643C312.846 270.6 312.983 270.6 313.109 270.643H313.079Z" fill="#35375B"/>
<path fill-rule="evenodd" clip-rule="evenodd" d="M197.948 336.341L205.063 378.727C205.267 379.868 205.053 381.045 204.46 382.042C203.868 383.039 202.936 383.791 201.835 384.159L158.783 398.397C158.154 398.635 157.472 398.697 156.81 398.576C156.14 398.486 155.502 398.229 154.956 397.83C154.423 397.419 153.994 396.889 153.703 396.283C153.412 395.676 153.268 395.01 153.282 394.338C153.462 391.144 155.225 387.025 161.534 383.323C171.998 377.174 164.075 353.146 161.025 345.057L197.948 336.341Z" fill="#FFA17A"/>
<path fill-rule="evenodd" clip-rule="evenodd" d="M164.88 372.04C166.858 372.228 168.8 372.69 170.65 373.414C171.368 373.712 170.83 374.816 170.112 374.518C168.36 373.834 166.517 373.412 164.641 373.264C163.864 373.115 164.103 371.981 164.88 372.04Z" fill="#35375B"/>
<path fill-rule="evenodd" clip-rule="evenodd" d="M165.719 366.489C167.698 366.457 169.653 366.93 171.399 367.862C171.514 367.95 171.595 368.074 171.628 368.215C171.661 368.355 171.645 368.503 171.581 368.633C171.518 368.763 171.412 368.867 171.281 368.928C171.149 368.988 171.001 369.002 170.861 368.966C169.309 368.128 167.573 367.687 165.808 367.682C165.031 367.682 164.941 366.488 165.808 366.459L165.719 366.489Z" fill="#35375B"/>
<path fill-rule="evenodd" clip-rule="evenodd" d="M165.568 360.996C167.047 361.001 168.521 361.171 169.963 361.504C170.71 361.713 170.411 362.907 169.694 362.698C168.36 362.39 166.997 362.23 165.628 362.22C165.461 362.22 165.302 362.154 165.184 362.036C165.066 361.919 165 361.759 165 361.593C165 361.427 165.066 361.268 165.184 361.15C165.302 361.032 165.461 360.966 165.628 360.966L165.568 360.996Z" fill="#35375B"/>
<path fill-rule="evenodd" clip-rule="evenodd" d="M172.176 376.1L172.356 375.772C172.44 375.643 172.567 375.548 172.714 375.503C172.858 375.445 173.019 375.445 173.163 375.503C173.291 375.582 173.395 375.696 173.462 375.831C173.508 375.977 173.508 376.133 173.462 376.279V376.637C173.37 376.759 173.246 376.852 173.103 376.906C172.957 376.95 172.801 376.95 172.654 376.906C172.516 376.825 172.41 376.698 172.356 376.548C172.296 376.49 172.249 376.42 172.219 376.343C172.188 376.266 172.173 376.183 172.176 376.1Z" fill="#35375B"/>
<path fill-rule="evenodd" clip-rule="evenodd" d="M175.227 370.339C175.161 370.369 175.09 370.384 175.018 370.384C174.946 370.384 174.874 370.369 174.809 370.339C174.746 370.307 174.691 370.261 174.65 370.203C174.608 370.146 174.581 370.08 174.569 370.011C174.524 369.885 174.524 369.748 174.569 369.623C174.624 369.489 174.718 369.374 174.838 369.294C174.976 369.263 175.119 369.263 175.257 369.294C175.353 369.391 175.434 369.501 175.496 369.623C175.526 369.76 175.526 369.903 175.496 370.041C175.44 370.166 175.346 370.27 175.227 370.339Z" fill="#35375B"/>
<path fill-rule="evenodd" clip-rule="evenodd" d="M174.955 364.578C174.82 364.581 174.688 364.543 174.575 364.468C174.463 364.393 174.377 364.286 174.328 364.16C174.297 364.033 174.297 363.9 174.328 363.772C174.372 363.641 174.456 363.527 174.567 363.444C174.702 363.441 174.834 363.479 174.947 363.554C175.059 363.629 175.145 363.736 175.195 363.862C175.224 363.999 175.224 364.142 175.195 364.28C175.142 364.398 175.06 364.501 174.955 364.578Z" fill="#35375B"/>
<path fill-rule="evenodd" clip-rule="evenodd" d="M262.705 55.5195C257.853 52.7378 252.16 51.7951 246.669 52.8642C241.178 53.9332 236.257 56.9424 232.808 61.3401C229.693 60.3844 226.416 60.0742 223.177 60.4283C219.938 60.7825 216.806 61.7936 213.973 63.3997C202.971 69.7277 196.244 87.4582 205.004 97.0995C207.156 107.009 211.133 114.86 220.998 115.009C226.978 125.725 244.916 128.829 255.499 118.8C264.678 121.785 274.484 116.472 280.852 109.188C282.347 107.457 283.632 104.771 284.2 104.413C284.2 104.413 307.849 100.055 305.696 77.1901C303.633 53.251 278.729 36.7444 262.705 55.5195Z" fill="#FFE7DF"/>
<path fill-rule="evenodd" clip-rule="evenodd" d="M201.234 192.975L237.978 222.675C237.978 222.675 219.471 240.913 212.505 247.748C205.539 254.584 198.753 278.941 198.125 280.582C193.969 301.477 200.278 311.626 201.115 342.699C197.168 346.848 163.624 352.191 158.512 353.474C145.925 327.804 141.351 278.493 141.411 272.553C141.471 262.673 201.234 192.975 201.234 192.975Z" fill="#D0CECE"/>
<path fill-rule="evenodd" clip-rule="evenodd" d="M193.254 201.542L234.033 178.916C234.031 179.421 234.102 179.924 234.242 180.409C239.445 192.348 245.813 199.721 251.493 218.914C256.007 234.107 261.299 270.314 261.299 270.314C268.475 263.144 276.246 256.594 284.529 250.733C285.964 249.659 305.457 293.925 305.457 293.925C284.021 329.983 242.165 330.461 238.039 328.789C223.569 323.088 202.163 219.422 202.163 219.422C199.323 213.601 193.254 201.542 193.254 201.542Z" fill="#D0CECE"/>
<path fill-rule="evenodd" clip-rule="evenodd" d="M245.812 119.904C245.812 119.904 285.605 111.964 294.455 110.741C303.304 109.517 334.217 96.7413 335.383 96.2935C336.549 95.8458 341.363 82.6823 343.097 83.9061C344.831 85.1299 340.107 91.9952 342.349 93.0101C344.592 94.025 363.128 86.4433 363.277 87.9954C363.427 90.9804 352.813 92.2937 353.142 93.6668C353.471 95.0399 363.995 91.0102 365.31 93.0698C366.626 95.1294 355.175 97.0099 354.936 98.1143C354.697 99.2187 365.818 97.9352 365.101 100.293C364.712 101.577 354.248 102.204 354.637 103.756C355.026 105.308 362.978 105.726 362.38 107.159C361.782 108.591 355.923 107.159 351.767 108.024C348.092 108.421 344.566 109.69 341.482 111.726C335.294 115.128 311.406 126.202 297.145 128.71L251.403 136.829L245.812 119.904Z" fill="#FFA17A"/>
<path fill-rule="evenodd" clip-rule="evenodd" d="M199.981 115.636C199.981 115.636 185.033 78.0258 181.116 69.9367C177.2 61.8476 172.147 30.6253 171.968 29.4015C171.789 28.1777 179.024 15.3724 177.05 14.6261C175.077 13.8799 171.848 19.3722 169.815 18.1483C167.782 16.9245 163.986 -0.746204 162.64 2.65278e-05C160.129 1.46264 163.417 11.2532 163.178 11.5815C162.76 11.3726 159.71 1.0149 157.199 1.04475C154.688 1.0746 160.189 11.9994 159.591 12.5964C158.993 13.1934 152.834 3.28344 151.249 5.19379C150.412 6.20866 156.123 13.8501 155.465 14.1485C153.97 14.656 147.871 9.85026 146.974 11.1636C146.077 12.477 151.519 15.7604 152.954 19.7005C154.389 23.6406 156.302 25.1331 156.84 32.1476C157.378 39.1622 158.903 64.2654 164.583 77.608C170.264 90.9506 182.761 120.322 182.761 120.322L199.981 115.636Z" fill="#FFA17A"/>
<path fill-rule="evenodd" clip-rule="evenodd" d="M187.064 132.65C185.09 125.367 177.826 114.561 176.301 111.517C176.301 111.517 186.436 99.756 193.88 99.9351C193.88 99.9351 201.653 110.412 207.483 113.666C208.443 114.088 209.445 114.408 210.473 114.621C216.123 114.621 235.915 114.203 239.592 115.367C243.06 127.993 255.228 178.707 248.831 187.363C246.588 190.348 189.784 205.273 184.552 201.572C183.446 200.825 185.957 140.5 187.064 132.65Z" fill="#35375B"/>
<path fill-rule="evenodd" clip-rule="evenodd" d="M229.457 115.785C231.369 115.083 233.401 114.768 235.436 114.86L259.533 114.561C259.533 114.561 263.031 133.784 259.982 138.441C259.982 138.441 236.363 141.873 236.991 143.903L229.457 115.785Z" fill="#35375B"/>
<path fill-rule="evenodd" clip-rule="evenodd" d="M223.448 103.01C222.406 108.082 221.805 113.236 221.655 118.412C222.043 122.77 219.921 136.829 211.071 136.769C202.222 136.709 209.546 118.86 210.443 114.621C211.138 108.804 211.537 102.956 211.639 97.0995L223.448 103.01Z" fill="#FFA17A"/>
<path fill-rule="evenodd" clip-rule="evenodd" d="M211.402 103.756C211.582 100.144 211.642 97.0995 211.642 97.0995L223.451 103.069C223.451 103.069 223.032 105.308 222.554 108.203C220.463 108.741 218.255 108.599 216.25 107.799C214.245 107 212.547 105.584 211.402 103.756Z" fill="#35375B"/>
<path fill-rule="evenodd" clip-rule="evenodd" d="M228.085 72.5037C231.079 74.5046 233.27 77.4958 234.273 80.9511C235.888 86.712 233.825 101.487 221.986 104.83C210.146 108.174 205.124 96.5323 207.635 87.3686C210.146 78.2049 215.588 66.8025 228.085 72.5037Z" fill="#FFA17A"/>
<path fill-rule="evenodd" clip-rule="evenodd" d="M226.707 71.6381C226.707 71.6381 228.71 88.2044 233.793 91.2192C238.875 94.234 236.782 101.577 236.782 101.577C236.782 101.577 241.596 84.5927 237.59 79.1004C234.798 75.5749 231.005 72.9738 226.707 71.6381Z" fill="#FFE7DF"/>
<path fill-rule="evenodd" clip-rule="evenodd" d="M230.745 93.6668C229.34 95.7861 229.31 98.3233 230.745 99.3382C232.18 100.353 234.392 99.3382 235.797 97.2487C237.202 95.1593 237.232 92.5624 235.797 91.5774C234.362 90.5923 232.15 91.5177 230.745 93.6668Z" fill="#FFA17A"/>
<g style="mix-blend-mode:multiply">
<path fill-rule="evenodd" clip-rule="evenodd" d="M211.79 91.0699C212.186 90.7187 212.616 90.4087 213.075 90.1446C213.577 89.8089 214.047 89.4293 214.48 89.0103C215.319 88.141 215.997 87.1305 216.484 86.0254C216.57 85.8906 216.703 85.7919 216.857 85.7479C217.011 85.704 217.176 85.7177 217.321 85.7866C217.387 85.8261 217.445 85.8789 217.49 85.9415C217.536 86.0042 217.568 86.0754 217.585 86.1509C217.601 86.2264 217.603 86.3045 217.588 86.3804C217.574 86.4564 217.544 86.5286 217.5 86.5925C216.649 88.4009 215.314 89.9398 213.643 91.0401C213.016 91.4878 212.149 91.8758 212.537 92.7713C212.926 93.6668 214.032 93.8459 214.899 94.025C215.766 94.2041 215.288 95.3383 214.57 95.1592C213.992 95.118 213.429 94.959 212.914 94.692C212.4 94.4251 211.946 94.0558 211.58 93.6071C211.335 93.2186 211.223 92.7612 211.261 92.3036C211.299 91.8461 211.484 91.4131 211.79 91.0699Z" fill="#484DB2"/>
</g>
<path fill-rule="evenodd" clip-rule="evenodd" d="M224.673 89.6969C224.165 90.6819 223.178 91.2192 222.521 90.9207C221.863 90.6222 221.714 89.6073 222.222 88.6223C222.73 87.6373 223.687 87.1 224.374 87.3985C225.062 87.697 225.182 88.7417 224.673 89.6969Z" fill="#35375B"/>
<path fill-rule="evenodd" clip-rule="evenodd" d="M213.732 85.697C213.224 86.6522 212.237 87.1895 211.579 86.891C210.922 86.5925 210.772 85.5777 211.28 84.5926C211.789 83.6076 212.745 83.0703 213.433 83.3688C214.121 83.6673 214.24 84.712 213.732 85.697Z" fill="#35375B"/>
<path fill-rule="evenodd" clip-rule="evenodd" d="M215.976 78.2646C215.784 78.0731 215.53 77.9566 215.259 77.9363C214.432 77.7987 213.582 77.9451 212.849 78.3517C212.116 78.7583 211.543 79.4011 211.223 80.175C211.385 79.967 211.589 79.7943 211.821 79.6675L212.239 79.4586C212.779 79.3246 213.344 79.3246 213.883 79.4586C214.439 79.5315 215.002 79.5315 215.558 79.4586C215.702 79.4509 215.841 79.4017 215.957 79.3169C216.074 79.2322 216.164 79.1155 216.215 78.981C216.22 78.7219 216.136 78.4691 215.976 78.2646Z" fill="#35375B"/>
<path fill-rule="evenodd" clip-rule="evenodd" d="M225.601 81.2794C225.865 81.2039 226.144 81.2039 226.408 81.2794C227.19 81.5031 227.861 82.0084 228.292 82.6976C228.723 83.3867 228.882 84.2108 228.74 85.0105C228.73 84.7631 228.647 84.5242 228.501 84.324C228.436 84.1879 228.344 84.0662 228.232 83.9658C227.821 83.6113 227.327 83.3651 226.797 83.2494C226.245 83.1347 225.719 82.9224 225.242 82.6226C225.121 82.5594 225.026 82.4568 224.971 82.3319C224.917 82.2071 224.907 82.0674 224.943 81.9361C225.002 81.7874 225.09 81.6524 225.204 81.5394C225.317 81.4264 225.452 81.3379 225.601 81.2794Z" fill="#35375B"/>
<g style="mix-blend-mode:multiply">
<path fill-rule="evenodd" clip-rule="evenodd" d="M221.714 97.5472C220.528 98.1645 219.21 98.4869 217.872 98.4869C216.535 98.4869 215.217 98.1645 214.03 97.5472C213.343 97.2189 212.805 98.2636 213.462 98.5919C214.862 99.2898 216.413 99.633 217.977 99.5913C219.541 99.5497 221.071 99.1245 222.431 98.3532C223.029 98.1442 222.402 97.189 221.714 97.5472Z" fill="#484DB2"/>
</g>
<path fill-rule="evenodd" clip-rule="evenodd" d="M370.721 418.784C378.823 417.411 385.011 412.367 391.23 407.352C397.478 401.676 405.088 397.708 413.324 395.83C431.68 392.487 449.2 400.666 465.972 407.143C477.183 411.531 507.828 423.59 512.282 404.158C512.282 400.666 511.026 394.189 505.735 392.01C498.619 395.532 487.617 393.592 480.502 391.592C466.66 387.711 453.864 380.846 439.992 377.115C427.196 373.712 413.084 372.876 401.126 379.652C390.781 385.622 383.188 396.099 370.78 398.188C369.555 398.487 371.797 418.605 370.721 418.784Z" fill="#FC4C00"/>
<path fill-rule="evenodd" clip-rule="evenodd" d="M512.373 404.248C512.439 404.074 512.489 403.894 512.522 403.71C513.051 398.953 513.131 394.156 512.761 389.383C512.761 385.831 513.419 381.264 511.924 377.861C510.159 374.707 507.604 372.064 504.51 370.19C501.043 373.753 499.029 378.478 498.859 383.443C499.128 384.786 499.679 386.058 500.474 387.174C501.996 389.079 503.8 390.74 505.825 392.099C511.237 394.278 512.253 400.755 512.373 404.248Z" fill="#35375B"/>
<path fill-rule="evenodd" clip-rule="evenodd" d="M318.312 427.918C327.102 431.321 337.027 428.575 345.667 426.247C345.927 422.839 345.927 419.416 345.667 416.008C345.492 412.598 345.492 409.181 345.667 405.77C337.177 408.039 327.729 410.635 318.97 407.651C316.028 406.614 313.374 404.895 311.226 402.636C308.723 406.853 307.353 411.644 307.25 416.546C308.159 419.128 309.619 421.482 311.529 423.446C313.439 425.41 315.753 426.936 318.312 427.918Z" fill="#FC4C00"/>
<path fill-rule="evenodd" clip-rule="evenodd" d="M306.683 390.457C306.314 394.297 306.245 398.159 306.474 402.009C306.28 405.867 306.28 409.732 306.474 413.591C306.599 414.604 306.819 415.603 307.132 416.575C307.234 411.674 308.604 406.883 311.108 402.666C313.815 399.828 315.652 396.275 316.4 392.427V391.025C315.46 387.557 313.625 384.397 311.078 381.861C308.883 384.292 307.367 387.257 306.683 390.457Z" fill="#35375B"/>
<path fill-rule="evenodd" clip-rule="evenodd" d="M30.3739 406.248C30.2952 406.323 30.2326 406.413 30.1898 406.513C30.1471 406.613 30.125 406.721 30.125 406.83C30.125 406.938 30.1471 407.046 30.1898 407.146C30.2326 407.246 30.2952 407.337 30.3739 407.412C30.5301 407.563 30.7392 407.648 30.9569 407.648C31.1746 407.648 31.3837 407.563 31.5399 407.412C32.6477 406.319 33.5313 405.022 34.1409 403.591C34.7487 402.166 35.0638 400.633 35.0677 399.084C35.0678 398.975 35.0459 398.868 35.0035 398.768C34.9611 398.669 34.899 398.578 34.8208 398.503C34.7427 398.428 34.6501 398.369 34.5487 398.33C34.4473 398.292 34.3391 398.274 34.2306 398.278C34.0137 398.278 33.8051 398.362 33.649 398.512C33.4928 398.662 33.4012 398.867 33.3935 399.084C33.3927 400.416 33.1285 401.734 32.6162 402.964C32.0854 404.191 31.3243 405.306 30.3739 406.248Z" fill="#FFA17A"/>
<path fill-rule="evenodd" clip-rule="evenodd" d="M116.598 531.584L152.474 528.331C148.05 477.856 153.64 459.499 149.485 412.158C147.99 394.756 146.316 377.324 143.505 360.071C142.16 351.892 139.35 342.788 138.662 333.923C138.098 333.061 137.379 332.312 136.539 331.714C134.355 330.448 131.859 329.818 129.334 329.893C117.376 329.217 105.417 328.938 93.4581 329.058C89.8168 328.896 86.1773 329.412 82.7251 330.58C78.3639 332.612 74.4884 335.551 71.3585 339.202C68.2285 342.852 65.9166 347.128 64.5777 351.743C52.619 392.666 64.9365 483.408 65.086 528.331L100.364 531.465C101.291 493.974 101.859 485.139 106.045 411.053C107.211 436.395 113.609 508.869 116.598 531.584Z" fill="#FC4C00"/>
<path fill-rule="evenodd" clip-rule="evenodd" d="M105.684 230.525L70.5258 243.868C67.3124 245.329 64.5129 247.564 62.3786 250.372C60.2443 253.18 58.8421 256.474 58.2979 259.957L35.2475 309.029C31.6897 333.475 28.4908 349.952 26.9062 380.01C55.1289 376.607 24.5743 382.338 52.7969 378.936C55.0668 359.196 58.9667 339.678 64.4567 320.58C63.8289 336.55 60.899 342.221 60.0918 362.787C60.0918 362.787 90.1381 358.131 105.894 341.027C121.649 358.131 145.896 360.668 145.896 360.668C144.58 328.431 181.533 262.166 141.142 243.808L105.864 230.525V292.97L105.684 230.525Z" fill="#35375B"/>
<path d="M54.4141 314.939L61.7089 318.581" stroke="#F4F1F1" stroke-width="0.46" stroke-miterlimit="10" stroke-linecap="round"/>
<path fill-rule="evenodd" clip-rule="evenodd" d="M26.9062 396.338V375.443C35.463 372.523 44.7148 372.314 53.3949 374.846L53.6938 399.293L26.9062 396.338Z" fill="white"/>
<path fill-rule="evenodd" clip-rule="evenodd" d="M26.25 396.338V374.936H26.6088C30.7913 373.467 35.1811 372.671 39.6139 372.578C44.267 372.5 48.9075 373.083 53.3963 374.309H53.785C53.785 382.786 53.9943 391.263 54.084 399.741L26.25 396.756V396.308V396.338ZM27.2964 375.682V395.86L53.0376 398.576L52.7685 375.115C48.4929 373.956 44.0733 373.413 39.6438 373.503C35.4378 373.566 31.2691 374.301 27.2964 375.682Z" fill="#35375B"/>
<path fill-rule="evenodd" clip-rule="evenodd" d="M48.7909 386.099C49.1423 385.89 49.4489 385.613 49.6931 385.285C49.9374 384.957 50.1146 384.584 50.2145 384.188C50.3144 383.791 50.3352 383.379 50.2756 382.975C50.216 382.571 50.0773 382.182 49.8672 381.831C49.6572 381.48 49.38 381.174 49.0514 380.93C48.7229 380.686 48.3495 380.509 47.9525 380.41C47.5555 380.31 47.1427 380.289 46.7377 380.349C46.3327 380.408 45.9433 380.547 45.592 380.756C44.8867 381.184 44.3784 381.871 44.177 382.67C43.9756 383.469 44.0973 384.315 44.5157 385.025C44.7126 385.389 44.9834 385.708 45.3106 385.963C45.6378 386.217 46.0144 386.4 46.4165 386.501C46.8185 386.602 47.2373 386.619 47.646 386.55C48.0548 386.48 48.4447 386.327 48.7909 386.099Z" fill="#35375B"/>
<path fill-rule="evenodd" clip-rule="evenodd" d="M121.349 266.852L127.777 264.106C129.013 255.993 129.682 247.805 129.78 239.6L105.863 230.645V293.089V230.645L81.9453 239.6C81.9642 247.799 82.5536 255.988 83.7092 264.106L90.137 266.852L84.7556 269.837C87.7453 285.03 93.7247 300.88 105.683 308.462C117.642 300.88 123.622 285.03 126.611 269.837L121.349 266.852Z" fill="white"/>
<path fill-rule="evenodd" clip-rule="evenodd" d="M113.22 318.849C113.22 319.203 113.115 319.55 112.918 319.844C112.721 320.139 112.441 320.368 112.113 320.504C111.785 320.639 111.425 320.675 111.077 320.606C110.729 320.537 110.409 320.366 110.158 320.116C109.907 319.865 109.736 319.546 109.667 319.199C109.598 318.851 109.634 318.491 109.769 318.164C109.905 317.837 110.135 317.557 110.43 317.36C110.725 317.163 111.072 317.058 111.427 317.058C111.902 317.058 112.359 317.247 112.695 317.583C113.031 317.919 113.22 318.374 113.22 318.849Z" fill="white"/>
<path fill-rule="evenodd" clip-rule="evenodd" d="M113.22 335.027C113.22 335.382 113.115 335.728 112.918 336.022C112.721 336.317 112.441 336.547 112.113 336.682C111.785 336.818 111.425 336.853 111.077 336.784C110.729 336.715 110.409 336.544 110.158 336.294C109.907 336.043 109.736 335.724 109.667 335.377C109.598 335.029 109.634 334.669 109.769 334.342C109.905 334.015 110.135 333.735 110.43 333.538C110.725 333.342 111.072 333.236 111.427 333.236C111.902 333.236 112.359 333.425 112.695 333.761C113.031 334.097 113.22 334.552 113.22 335.027Z" fill="white"/>
<path fill-rule="evenodd" clip-rule="evenodd" d="M72.4102 329.446H91.1256V323.565H72.6493L72.4102 329.446Z" fill="white"/>
<path fill-rule="evenodd" clip-rule="evenodd" d="M114.563 233.212L108.524 238.077L101.528 234.764L100.332 224.735L113.367 223.212L114.563 233.212Z" fill="#FF9486"/>
<path fill-rule="evenodd" clip-rule="evenodd" d="M120.844 531.316L125.358 560.269C125.481 561.053 125.872 561.771 126.464 562.299C127.054 562.811 127.806 563.097 128.587 563.105H159.53C159.986 563.107 160.436 563.005 160.846 562.807C161.26 562.594 161.618 562.287 161.892 561.911C162.138 561.531 162.301 561.104 162.37 560.658C162.429 560.194 162.378 559.724 162.221 559.284C161.505 557.803 160.42 556.531 159.069 555.59C157.718 554.649 156.147 554.071 154.508 553.912C146.495 552.21 146.495 534.838 146.495 528.958L120.844 531.316Z" fill="#35375B"/>
<path fill-rule="evenodd" clip-rule="evenodd" d="M149.902 547.255C148.669 547.793 147.521 548.507 146.494 549.375C146.076 549.733 146.674 550.33 147.062 549.972C148.046 549.159 149.144 548.495 150.321 548.001C150.829 547.792 150.411 547.076 149.902 547.255Z" fill="#35375B"/>
<path fill-rule="evenodd" clip-rule="evenodd" d="M148.169 543.823C146.897 544.267 145.743 544.991 144.79 545.942C144.432 546.33 145.029 546.927 145.388 546.539C146.216 545.671 147.242 545.015 148.378 544.628C148.856 544.479 148.647 543.673 148.139 543.823H148.169Z" fill="#35375B"/>
<path fill-rule="evenodd" clip-rule="evenodd" d="M147.121 540.271C146.158 540.594 145.236 541.025 144.37 541.554C143.922 541.852 144.37 542.569 144.789 542.27C145.591 541.783 146.443 541.383 147.33 541.076C147.838 541.076 147.629 540.121 147.121 540.271Z" fill="#35375B"/>
<path fill-rule="evenodd" clip-rule="evenodd" d="M146.074 551.464L145.895 551.285C145.847 551.265 145.797 551.255 145.745 551.255C145.694 551.255 145.643 551.265 145.596 551.285C145.508 551.257 145.414 551.257 145.327 551.285C145.307 551.332 145.297 551.383 145.297 551.434C145.297 551.485 145.307 551.536 145.327 551.583C145.297 551.67 145.297 551.765 145.327 551.852L145.506 552.031C145.554 552.051 145.604 552.061 145.656 552.061C145.707 552.061 145.758 552.051 145.805 552.031C145.893 552.059 145.987 552.059 146.074 552.031C146.094 551.984 146.104 551.933 146.104 551.882C146.104 551.831 146.094 551.78 146.074 551.733C146.104 551.645 146.104 551.551 146.074 551.464Z" fill="#35375B"/>
<path fill-rule="evenodd" clip-rule="evenodd" d="M142.879 548.36C142.956 548.387 143.04 548.387 143.118 548.36C143.143 548.272 143.143 548.179 143.118 548.091C143.147 548.004 143.147 547.909 143.118 547.822C143.095 547.778 143.061 547.742 143.019 547.716C142.976 547.69 142.928 547.677 142.879 547.677C142.829 547.677 142.781 547.69 142.739 547.716C142.696 547.742 142.662 547.778 142.639 547.822C142.61 547.909 142.61 548.004 142.639 548.091C142.614 548.179 142.614 548.272 142.639 548.36C142.717 548.387 142.801 548.387 142.879 548.36Z" fill="#35375B"/>
<path fill-rule="evenodd" clip-rule="evenodd" d="M141.802 544.569C141.848 544.566 141.891 544.551 141.929 544.525C141.966 544.498 141.994 544.462 142.011 544.419C142.041 544.343 142.041 544.257 142.011 544.181C142.037 544.093 142.037 544 142.011 543.912C142.011 543.857 141.989 543.803 141.95 543.764C141.911 543.725 141.858 543.703 141.802 543.703C141.747 543.703 141.693 543.725 141.654 543.764C141.615 543.803 141.593 543.857 141.593 543.912C141.567 544 141.567 544.093 141.593 544.181C141.563 544.257 141.563 544.343 141.593 544.419C141.61 544.462 141.639 544.498 141.676 544.525C141.713 544.551 141.757 544.566 141.802 544.569Z" fill="#35375B"/>
<path fill-rule="evenodd" clip-rule="evenodd" d="M96.1186 531.316L91.6341 560.299C91.5114 561.083 91.1205 561.8 90.5279 562.329C89.9268 562.841 89.1651 563.126 88.3753 563.135H57.4321C56.9765 563.137 56.5266 563.035 56.1166 562.836C55.7181 562.613 55.3717 562.308 55.1001 561.941C54.8369 561.567 54.663 561.138 54.5919 560.687C54.485 560.236 54.485 559.766 54.5919 559.314C55.31 557.835 56.3962 556.564 57.7467 555.623C59.0971 554.683 60.6667 554.104 62.3053 553.941C70.4372 552.21 70.4372 534.808 70.198 529.017L96.1186 531.316Z" fill="#35375B"/>
<path fill-rule="evenodd" clip-rule="evenodd" d="M67.0571 547.255C68.2996 547.792 69.4577 548.506 70.4952 549.375C70.9138 549.733 70.3158 550.33 69.8973 549.972C68.9183 549.152 67.8193 548.488 66.6385 548.001C66.1303 547.792 66.5787 547.076 67.0571 547.255Z" fill="#35375B"/>
<path fill-rule="evenodd" clip-rule="evenodd" d="M68.7646 543.823C70.0404 544.257 71.1972 544.983 72.143 545.942C72.5017 546.33 71.9337 546.927 71.5749 546.539C70.7421 545.677 69.718 545.023 68.5852 544.628C68.077 544.479 68.2863 543.673 68.7945 543.823H68.7646Z" fill="#35375B"/>
<path fill-rule="evenodd" clip-rule="evenodd" d="M69.8687 540.27C70.8236 540.588 71.7369 541.019 72.5893 541.554C73.0377 541.852 72.5893 542.569 72.1707 542.27C71.3718 541.777 70.5192 541.377 69.6295 541.076C69.5224 541.045 69.4324 540.972 69.3791 540.874C69.3259 540.776 69.3138 540.661 69.3455 540.554C69.3772 540.447 69.4501 540.357 69.5482 540.304C69.6464 540.251 69.7616 540.239 69.8687 540.27Z" fill="#35375B"/>
<path fill-rule="evenodd" clip-rule="evenodd" d="M70.9155 551.464L71.0949 551.285C71.1372 551.266 71.183 551.256 71.2294 551.256C71.2758 551.256 71.3216 551.266 71.3639 551.285C71.475 551.285 71.5814 551.329 71.6599 551.407C71.7384 551.486 71.7825 551.592 71.7825 551.703C71.8015 551.745 71.8113 551.791 71.8113 551.837C71.8113 551.883 71.8015 551.929 71.7825 551.971L71.6031 552.15C71.5608 552.169 71.515 552.179 71.4686 552.179C71.4222 552.179 71.3764 552.169 71.3341 552.15C71.223 552.15 71.1166 552.106 71.0381 552.028C70.9596 551.95 70.9155 551.843 70.9155 551.733C70.8965 551.69 70.8867 551.645 70.8867 551.598C70.8867 551.552 70.8965 551.506 70.9155 551.464Z" fill="#35375B"/>
<path fill-rule="evenodd" clip-rule="evenodd" d="M74.113 548.36C74.0356 548.387 73.9512 548.387 73.8738 548.36C73.848 548.272 73.848 548.179 73.8738 548.091C73.8442 548.004 73.8442 547.909 73.8738 547.822C73.8964 547.778 73.9307 547.742 73.9729 547.716C74.0151 547.69 74.0635 547.677 74.113 547.677C74.1624 547.677 74.2108 547.69 74.253 547.716C74.2952 547.742 74.3295 547.778 74.3521 547.822C74.3817 547.909 74.3817 548.004 74.3521 548.091C74.3779 548.179 74.3779 548.272 74.3521 548.36C74.2748 548.387 74.1903 548.387 74.113 548.36Z" fill="#35375B"/>
<path fill-rule="evenodd" clip-rule="evenodd" d="M75.1615 544.569C75.1615 544.569 75.012 544.569 74.9522 544.419C74.9222 544.343 74.9222 544.257 74.9522 544.181C74.9265 544.093 74.9265 544 74.9522 543.912C75.0089 543.846 75.0807 543.795 75.1615 543.763L75.4007 543.912C75.4264 544 75.4264 544.093 75.4007 544.181C75.4307 544.257 75.4307 544.343 75.4007 544.419C75.3762 544.462 75.3415 544.498 75.2998 544.524C75.2581 544.55 75.2106 544.565 75.1615 544.569Z" fill="#35375B"/>
<path fill-rule="evenodd" clip-rule="evenodd" d="M138.453 242.883C136.24 242.555 147.033 256.882 145.329 258.315C144.32 259.284 143.578 260.498 143.176 261.837C141.71 266.055 141.502 270.607 142.578 274.941C143.445 278.702 143.057 282.761 146.046 285.717C148.408 288.045 151.727 298.79 152.983 298.82C151.278 298.82 228.622 333.714 227.456 334.878C223.599 338.878 229.847 301.626 231.97 303.566C198.396 287.209 183.238 282.672 183.328 280.403C149.664 250.315 163.207 255.509 138.453 242.883Z" fill="#35375B"/>
<path fill-rule="evenodd" clip-rule="evenodd" d="M220.46 308.551C220.932 309.068 221.207 309.733 221.238 310.432C221.095 311.077 220.723 311.65 220.191 312.044C220.999 311.805 221.656 311.596 222.284 311.476C223.416 311.26 224.586 311.363 225.663 311.775C227.462 312.415 229.104 313.433 230.476 314.76C235.337 319.188 239.147 324.644 241.627 330.729C241.924 331.614 242.315 332.465 242.793 333.266C243.272 334.013 245.783 336.012 245.783 333.923C245.725 331.426 245.219 328.959 244.288 326.64C243.421 324.461 241.299 322.252 241.299 319.924C243.421 320.163 244.797 322.222 245.723 324.132C246.782 326.438 247.594 328.85 248.145 331.326C248.384 332.341 248.862 333.565 249.879 333.565C250.206 333.529 250.512 333.387 250.75 333.161C250.987 332.934 251.144 332.635 251.194 332.311C251.29 331.657 251.218 330.99 250.985 330.371C249.66 325.726 247.579 321.329 244.826 317.357C244.954 317.12 245.166 316.939 245.421 316.851C245.676 316.762 245.954 316.772 246.202 316.879C246.706 317.096 247.14 317.447 247.457 317.894C249.671 320.569 251.419 323.596 252.629 326.849C252.899 327.505 253.347 328.311 254.035 328.192C254.722 328.073 254.872 326.908 254.662 326.132C253.372 321.393 251.202 316.938 248.265 312.999C248.429 312.795 248.663 312.658 248.922 312.614C249.181 312.57 249.447 312.622 249.67 312.76C250.107 313.043 250.475 313.42 250.746 313.864C251.896 315.684 253.438 317.224 255.26 318.372C258.848 319.954 255.828 314.909 254.872 313.775C251.152 309.467 246.673 305.876 241.657 303.178C238.291 301.47 235.08 299.472 232.06 297.209L231.761 296.94C227.576 301.477 223.032 305.954 220.46 308.551Z" fill="#FFA17A"/>
<path fill-rule="evenodd" clip-rule="evenodd" d="M13.6629 422.754H26.9072V418.665C26.8909 417.775 27.0546 416.89 27.3884 416.064C27.7223 415.239 28.2194 414.488 28.85 413.859C29.4807 413.229 30.232 412.733 31.0591 412.399C31.8862 412.066 32.7721 411.903 33.6639 411.919H50.4061C51.2827 411.915 52.1514 412.084 52.9621 412.418C53.7728 412.751 54.5093 413.241 55.1292 413.86C55.7491 414.479 56.24 415.214 56.5736 416.023C56.9073 416.833 57.077 417.7 57.0731 418.575V422.665H70.4071C74.0258 422.68 77.4919 424.123 80.0508 426.677C82.6097 429.232 84.0542 432.693 84.0699 436.306V464.125C84.0542 467.738 82.6097 471.199 80.0508 473.754C77.4919 476.308 74.0258 477.751 70.4071 477.766H13.6031C10.0101 477.735 6.57265 476.298 4.02914 473.765C1.48564 471.231 0.039006 467.802 0 464.215L0 436.395C0.015734 432.782 1.46026 429.322 4.01914 426.767C6.57802 424.212 10.0441 422.77 13.6629 422.754ZM32.2587 422.754H51.8112V418.665C51.8036 418.295 51.6531 417.943 51.3912 417.681C51.1293 417.42 50.7764 417.27 50.4061 417.262H33.6639C33.2936 417.27 32.9406 417.42 32.6787 417.681C32.4168 417.943 32.2663 418.295 32.2587 418.665V422.754Z" fill="#35375B"/>
<path fill-rule="evenodd" clip-rule="evenodd" d="M96.3867 218.048L97.7321 232.973L105.864 237.54L97.7321 232.973C97.7321 232.973 93.4867 275.18 105.864 292.88C118.241 275.18 120.812 237.51 120.812 237.51C120.812 237.51 119.437 222.914 119.228 222.586C119.019 222.257 96.3867 218.048 96.3867 218.048Z" fill="#E3E3E3"/>
<path fill-rule="evenodd" clip-rule="evenodd" d="M96.3867 218.048L97.4929 230.645C97.8422 231.762 98.4459 232.784 99.2568 233.63C100.097 234.455 101.122 235.069 102.246 235.421C103.711 235.958 105.864 239.51 108.644 239.032C112.95 237.736 116.919 235.515 120.274 232.525C120.274 232.525 119.407 223.093 119.198 222.884C118.989 222.675 96.3867 218.048 96.3867 218.048Z" fill="#35375B"/>
<path fill-rule="evenodd" clip-rule="evenodd" d="M114.237 200.646C113.519 203.303 112.233 211.9 117.226 213.093C122.219 214.287 126.763 208.616 128.737 203.93C130.919 198.706 126.524 190.945 118.392 189.423C113.31 188.468 115.522 195.96 114.237 200.646Z" fill="#35375B"/>
<path fill-rule="evenodd" clip-rule="evenodd" d="M125.119 197.691C125.328 200.676 126.644 207.392 126.584 210.109C126.116 216.267 124.922 222.348 123.026 228.227C120.694 233.033 106.464 231.481 103.145 229.451C98.4512 226.466 98.0625 218.138 98.0625 218.138C98.0625 218.138 99.4677 197.244 99.2285 197.512C98.9893 197.781 125.119 197.691 125.119 197.691Z" fill="#FFA17A"/>
<path fill-rule="evenodd" clip-rule="evenodd" d="M102.727 193.453C102.249 196.885 109.065 202.407 114.955 202.915C117.177 203.29 119.462 202.996 121.517 202.071C123.572 201.147 125.304 199.632 126.495 197.721C128.528 194.05 124.552 186.438 115.702 185.423C104.909 184.17 103.175 189.99 102.727 193.453Z" fill="#35375B"/>
<path fill-rule="evenodd" clip-rule="evenodd" d="M92.2614 196.766C91.1552 199.333 91.9026 209.452 96.8954 210.646C101.888 211.84 108.854 205.392 109.871 200.467C110.409 197.721 111.096 190.796 106.074 189.572C103.293 188.975 100.39 189.367 97.8675 190.681C95.3453 191.994 93.3622 194.147 92.2614 196.766Z" fill="#35375B"/>
<path fill-rule="evenodd" clip-rule="evenodd" d="M113.996 211.153C114.099 211.15 114.2 211.126 114.292 211.081C114.384 211.035 114.466 210.971 114.531 210.892C114.596 210.813 114.643 210.72 114.67 210.621C114.696 210.522 114.701 210.419 114.684 210.317C114.675 210.216 114.643 210.118 114.592 210.03C114.54 209.942 114.469 209.867 114.385 209.81C114.307 209.744 114.216 209.695 114.119 209.664C114.021 209.633 113.919 209.622 113.817 209.631L110.827 209.9C110.724 209.906 110.623 209.934 110.531 209.98C110.439 210.026 110.356 210.09 110.289 210.168C110.168 210.332 110.105 210.532 110.11 210.735C110.136 210.931 110.232 211.111 110.379 211.243C110.538 211.373 110.741 211.437 110.947 211.422L113.936 211.183L113.996 211.153Z" fill="#35375B"/>
<path fill-rule="evenodd" clip-rule="evenodd" d="M111.636 211.303C111.606 211.42 111.606 211.543 111.636 211.661C111.606 211.768 111.606 211.882 111.636 211.989C111.692 212.097 111.774 212.19 111.876 212.258C111.984 212.28 112.096 212.28 112.204 212.258C112.317 212.309 112.439 212.335 112.563 212.335C112.687 212.335 112.809 212.309 112.922 212.258C113.026 212.196 113.117 212.114 113.189 212.017C113.261 211.919 113.313 211.808 113.34 211.691C113.37 211.573 113.37 211.45 113.34 211.332C113.37 211.225 113.37 211.112 113.34 211.004C113.294 210.89 113.21 210.795 113.101 210.735C113.003 210.714 112.901 210.714 112.802 210.735C112.69 210.684 112.567 210.658 112.444 210.658C112.32 210.658 112.197 210.684 112.085 210.735C111.874 210.867 111.716 211.067 111.636 211.303Z" fill="#35375B"/>
<path fill-rule="evenodd" clip-rule="evenodd" d="M123.954 211.183C124.05 211.181 124.146 211.159 124.233 211.118C124.321 211.077 124.399 211.018 124.462 210.944C124.537 210.878 124.596 210.795 124.632 210.701C124.668 210.608 124.682 210.507 124.671 210.407C124.674 210.305 124.653 210.204 124.612 210.112C124.571 210.019 124.509 209.936 124.432 209.87C124.362 209.8 124.278 209.745 124.185 209.709C124.092 209.673 123.993 209.657 123.894 209.661L120.904 209.482H120.605C120.517 209.46 120.425 209.46 120.336 209.482C120.252 209.54 120.189 209.624 120.157 209.721C120.13 209.818 120.13 209.921 120.157 210.019C120.143 210.118 120.143 210.218 120.157 210.317C120.195 210.413 120.245 210.503 120.306 210.586L120.545 210.765H120.844L123.834 210.914L123.954 211.183Z" fill="#35375B"/>
<path fill-rule="evenodd" clip-rule="evenodd" d="M123.386 211.153C123.418 211.406 123.354 211.662 123.207 211.87C123.047 212.06 122.824 212.187 122.579 212.228C122.461 212.257 122.338 212.257 122.22 212.228C122.112 212.25 122 212.25 121.891 212.228C121.79 212.16 121.708 212.068 121.652 211.959C121.621 211.852 121.621 211.738 121.652 211.631C121.633 211.51 121.64 211.387 121.671 211.269C121.701 211.151 121.756 211.04 121.831 210.944C121.988 210.745 122.211 210.608 122.459 210.556H122.818L123.147 210.706C123.248 210.773 123.33 210.866 123.386 210.974C123.395 211.034 123.395 211.094 123.386 211.153Z" fill="#35375B"/>
<path fill-rule="evenodd" clip-rule="evenodd" d="M96.1483 219.183C100.154 219.183 100.424 212.019 100.424 212.019C100.424 212.019 97.8225 206.736 94.0854 206.586C86.7009 206.288 91.9328 219.004 96.1483 219.183Z" fill="#FFA17A"/>
<path d="M120.814 219.302C120.093 219.891 119.203 220.236 118.273 220.287C117.332 220.287 116.473 220.042 117.001 219C118.317 219.391 120.001 219 119.947 217.899C119.963 217.866 119.971 217.831 119.971 217.795C119.971 217.758 119.963 217.723 119.947 217.69C119.866 217.158 119.673 216.649 119.379 216.198C118.033 213.414 117.445 210.325 117.675 207.243C117.648 207.155 117.648 207.062 117.675 206.974C117.659 206.885 117.659 206.794 117.675 206.706H117.944H118.243C118.446 206.715 118.638 206.8 118.781 206.944C118.91 207.094 118.984 207.284 118.991 207.482C118.77 210.297 119.306 213.121 120.545 215.66C120.915 216.283 121.159 216.973 121.263 217.69C121.352 217.972 121.352 218.274 121.263 218.556C121.179 218.839 121.025 219.095 120.814 219.302Z" fill="#35375B"/>
<path fill-rule="evenodd" clip-rule="evenodd" d="M96.7779 216.019C96.9738 215.973 97.1512 215.869 97.2861 215.72C97.3481 215.641 97.3933 215.549 97.419 215.452C97.4447 215.354 97.4504 215.253 97.4356 215.153C97.31 213.916 96.9336 212.718 96.3294 211.631C95.7048 210.577 94.8704 209.663 93.8779 208.944C93.7802 208.916 93.6766 208.916 93.5789 208.944H93.28C93.1917 208.922 93.0991 208.922 93.0109 208.944C92.9268 208.998 92.8553 209.069 92.8016 209.153C92.7849 209.252 92.7849 209.353 92.8016 209.452C92.7869 209.551 92.7869 209.651 92.8016 209.75C92.8399 209.846 92.8902 209.936 92.9511 210.019C93.0048 210.103 93.0762 210.174 93.1604 210.228C93.9721 210.848 94.6443 211.631 95.1336 212.526C95.6577 213.439 95.9646 214.461 96.0305 215.511C96.0395 215.613 96.071 215.711 96.1227 215.799C96.1744 215.886 96.245 215.962 96.3294 216.019C96.4033 216.091 96.4933 216.145 96.592 216.176C96.6907 216.207 96.7954 216.215 96.8975 216.198L96.7779 216.019Z" fill="#35375B"/>
<path fill-rule="evenodd" clip-rule="evenodd" d="M95.9973 213.302C96.0985 213.301 96.1984 213.279 96.2909 213.238C96.3834 213.197 96.4666 213.138 96.5354 213.064C96.6717 212.918 96.7466 212.726 96.7447 212.526C96.7432 212.313 96.6572 212.109 96.5055 211.959C96.3553 211.83 96.1654 211.756 95.9674 211.75L92.6787 211.511H92.3797C92.2819 211.485 92.1786 211.485 92.0808 211.511L91.9014 211.75C91.8714 211.847 91.8714 211.951 91.9014 212.049C91.8867 212.148 91.8867 212.248 91.9014 212.347C91.9506 212.443 92.0108 212.534 92.0808 212.616C92.1393 212.7 92.2231 212.762 92.3199 212.795C92.4176 212.823 92.5213 212.823 92.6189 212.795L95.8777 213.064L95.9973 213.302Z" fill="#35375B"/>
<path fill-rule="evenodd" clip-rule="evenodd" d="M99.9757 208.258C101.901 207.448 103.592 206.168 104.893 204.536C106.194 202.903 107.063 200.97 107.42 198.915C107.465 198.827 107.488 198.73 107.488 198.631C107.488 198.533 107.465 198.436 107.42 198.348C107.373 198.259 107.304 198.182 107.221 198.125C107.138 198.068 107.042 198.032 106.942 198.02C106.843 197.993 106.74 197.988 106.639 198.005C106.539 198.021 106.443 198.059 106.358 198.116C106.273 198.172 106.201 198.246 106.147 198.332C106.093 198.419 106.058 198.516 106.045 198.617C105.733 200.374 105.006 202.032 103.922 203.452C102.836 204.862 101.433 205.997 99.8262 206.765C99.6641 206.797 99.5169 206.881 99.4076 207.004C99.3178 207.129 99.2566 207.271 99.2282 207.422C99.2 207.57 99.2 207.722 99.2282 207.87C99.2999 208.004 99.4161 208.11 99.5571 208.168C99.6229 208.198 99.6942 208.213 99.7664 208.213C99.8386 208.213 99.9099 208.198 99.9757 208.168V208.258Z" fill="#E3E3E3"/>
<path fill-rule="evenodd" clip-rule="evenodd" d="M98.6602 203.989H98.9591C100.084 203.257 101.009 202.258 101.651 201.08C102.293 199.903 102.631 198.584 102.636 197.244C102.603 197.041 102.509 196.854 102.367 196.706C102.296 196.64 102.21 196.59 102.118 196.559C102.025 196.528 101.927 196.517 101.829 196.527C101.728 196.529 101.628 196.55 101.536 196.591C101.443 196.632 101.36 196.692 101.291 196.766C101.166 196.918 101.093 197.106 101.082 197.303C101.082 198.375 100.808 199.428 100.285 200.364C99.7611 201.299 99.0063 202.085 98.0921 202.646C97.9367 202.743 97.8202 202.891 97.7633 203.064C97.7039 203.228 97.7039 203.408 97.7633 203.572C97.8217 203.737 97.9387 203.875 98.0921 203.96C98.1722 203.995 98.2587 204.013 98.3463 204.013C98.4338 204.013 98.5203 203.995 98.6004 203.96L98.6602 203.989Z" fill="#E3E3E3"/>
<path fill-rule="evenodd" clip-rule="evenodd" d="M124.611 208.676C124.809 208.646 124.995 208.564 125.149 208.437C125.22 208.361 125.275 208.272 125.311 208.175C125.347 208.077 125.363 207.974 125.358 207.87C125.357 207.769 125.335 207.669 125.294 207.577C125.253 207.484 125.193 207.401 125.119 207.333C124.973 207.196 124.781 207.122 124.581 207.124L118.333 206.706C118.235 206.678 118.131 206.678 118.034 206.706H117.795C117.71 206.771 117.638 206.852 117.585 206.945C117.571 207.044 117.571 207.144 117.585 207.243C117.571 207.342 117.571 207.443 117.585 207.541C117.575 207.631 117.575 207.721 117.585 207.81C117.644 207.894 117.728 207.957 117.824 207.989C117.922 208.016 118.026 208.016 118.123 207.989L124.342 208.407L124.611 208.676Z" fill="#35375B"/>
<path fill-rule="evenodd" clip-rule="evenodd" d="M108.854 208.765L114.385 208.109C114.487 208.1 114.585 208.068 114.673 208.017C114.761 207.965 114.836 207.894 114.893 207.81C114.968 207.629 114.968 207.425 114.893 207.243C114.872 207.046 114.776 206.864 114.624 206.736C114.545 206.674 114.453 206.629 114.356 206.603C114.258 206.577 114.156 206.572 114.056 206.586L108.525 207.243C108.424 207.252 108.326 207.284 108.238 207.335C108.15 207.387 108.074 207.457 108.017 207.542C107.947 207.714 107.947 207.907 108.017 208.079C108.024 208.182 108.051 208.282 108.098 208.375C108.144 208.467 108.208 208.549 108.286 208.616C108.468 208.691 108.672 208.691 108.854 208.616V208.765Z" fill="#35375B"/>
<path fill-rule="evenodd" clip-rule="evenodd" d="M53.5751 399.144L26.668 396.338C26.668 406.427 28.7906 421.083 41.6164 421.411C56.6246 421.441 51.9009 407.442 53.5751 399.144Z" fill="#FFA17A"/>
<path d="M32.2305 410.218C38.0167 411.654 44.0478 411.807 49.8995 410.665" stroke="#35375B" stroke-width="0.75" stroke-linecap="round" stroke-linejoin="round"/>
<path fill-rule="evenodd" clip-rule="evenodd" d="M120.095 231.54L108.914 238.555L121.74 249.151C121.052 238.585 120.095 231.54 120.095 231.54Z" fill="white"/>
<path fill-rule="evenodd" clip-rule="evenodd" d="M97.7641 231.54L108.916 238.555L96.0898 249.151C96.7775 238.585 97.7641 231.54 97.7641 231.54Z" fill="white"/>
<path fill-rule="evenodd" clip-rule="evenodd" d="M112.712 240.674C110.223 243.157 107.133 244.956 103.743 245.898C97.537 250.076 92.0369 255.215 87.4496 261.121C83.3836 266.225 80.364 272.046 76.597 277.359C73.4505 281.17 69.3127 284.041 64.6383 285.657C58.438 288.311 51.9452 290.225 45.295 291.358L38.8672 284.672L46.5806 275.717C51.5212 276.502 56.5806 276.024 61.286 274.328C65.9915 272.631 70.1894 269.772 73.4877 266.016C84.43 253.121 94.8341 246.077 103.056 242.734L104.371 238.794L107.361 236.227L112.712 240.674Z" fill="#FC4C00"/>
<path fill-rule="evenodd" clip-rule="evenodd" d="M104.906 292.97V245.659C105.505 245.498 106.085 245.278 106.64 245.002V292.97H104.906Z" fill="white"/>
<path fill-rule="evenodd" clip-rule="evenodd" d="M309.163 367.653L308.355 350.191C310.777 346.012 326.294 339.564 329.851 352.221C333.409 364.877 309.163 367.653 309.163 367.653Z" fill="#FFA17A"/>
<path fill-rule="evenodd" clip-rule="evenodd" d="M187.691 353.803C186.232 350.344 185.48 346.63 185.48 342.878C185.48 339.126 186.232 335.411 187.691 331.953V331.744C191.76 321.54 193.791 310.639 193.67 299.656C193.477 291.222 194.412 282.8 196.45 274.613C197.635 269.643 199.57 264.882 202.191 260.494C203.217 258.857 204.442 257.353 205.838 256.017C208.371 253.418 211.463 251.43 214.88 250.202C218.297 248.974 221.949 248.54 225.559 248.931C229.17 249.322 232.643 250.529 235.717 252.46C238.791 254.391 241.383 256.996 243.299 260.076C245.872 264.499 247.748 269.291 248.86 274.284C251.03 283.692 251.805 293.367 251.162 302.999C250.63 312.846 252.38 322.682 256.274 331.744C256.483 332.222 256.663 332.729 256.842 333.207C258.251 336.687 258.945 340.414 258.883 344.168C258.822 347.921 258.005 351.624 256.483 355.056C255.168 357.713 253.344 359.981 251.819 362.489C250.157 364.984 249.264 367.91 249.248 370.906C249.241 372.349 249.704 373.755 250.567 374.912C251.429 376.07 252.645 376.916 254.032 377.324C252.584 377.826 251.022 377.902 249.532 377.542C248.042 377.182 246.688 376.402 245.631 375.294C244.901 378.004 243.899 380.634 242.641 383.144L243.119 383.503H242.462C238.405 391.313 231.758 397.475 223.656 400.934C226.141 397.461 227.393 393.259 227.214 388.995C225.452 388.315 223.838 387.302 222.461 386.01C220.857 387.61 218.916 388.833 216.78 389.592C216.86 393.338 218.057 396.976 220.218 400.039C212.706 396.737 206.488 391.064 202.519 383.891H200.995L202.071 383.085C200.523 380.249 199.309 377.244 198.453 374.13C197.378 375.22 196.012 375.979 194.518 376.318C193.024 376.656 191.464 376.56 190.023 376.04C191.413 375.651 192.637 374.819 193.512 373.672C194.386 372.524 194.861 371.124 194.866 369.682C194.923 366.675 194.069 363.72 192.414 361.205C190.8 358.787 188.976 356.489 187.691 353.803Z" fill="#35375B"/>
<path fill-rule="evenodd" clip-rule="evenodd" d="M119.409 386.607C103.055 383.085 89.5117 406.606 89.5117 406.606C89.5117 406.606 115.492 465.677 172.326 470.871C229.16 476.065 292.99 474.931 292.99 474.931L244.258 315.954H195.586C188.351 337.087 168.409 444.932 119.409 386.607Z" fill="#F4F1F1"/>
<path fill-rule="evenodd" clip-rule="evenodd" d="M209.667 521.734L197.978 553.613C197.679 554.474 197.679 555.409 197.978 556.27C198.295 557.131 198.91 557.851 199.712 558.299L231.074 575.582C231.547 575.825 232.067 575.967 232.598 576C233.125 576.012 233.648 575.899 234.123 575.672C234.601 575.427 235.019 575.08 235.349 574.657C235.656 574.221 235.861 573.721 235.947 573.194C236.276 570.687 235.498 567.224 231.133 563.463C223.898 557.195 233.525 539.584 237.113 533.823L209.667 521.734Z" fill="#FFA17A"/>
<path fill-rule="evenodd" clip-rule="evenodd" d="M230.207 554.24C228.65 554.065 227.074 554.146 225.543 554.479C224.945 554.479 225.214 555.523 225.812 555.404C227.258 555.114 228.74 555.043 230.207 555.195C230.775 555.195 230.775 554.3 230.207 554.24Z" fill="#35375B"/>
<path fill-rule="evenodd" clip-rule="evenodd" d="M230.206 549.763C228.671 549.493 227.095 549.585 225.602 550.031C225.479 550.067 225.375 550.15 225.314 550.262C225.252 550.374 225.237 550.505 225.273 550.628C225.309 550.751 225.392 550.854 225.504 550.916C225.616 550.978 225.748 550.992 225.871 550.956C227.27 550.498 228.765 550.415 230.206 550.718C230.804 550.718 231.013 549.882 230.415 549.763H230.206Z" fill="#35375B"/>
<path fill-rule="evenodd" clip-rule="evenodd" d="M231.221 545.554C230.079 545.34 228.915 545.26 227.753 545.315C227.126 545.315 227.185 546.33 227.753 546.27C228.844 546.221 229.937 546.291 231.012 546.479C231.61 546.479 231.849 545.643 231.221 545.524V545.554Z" fill="#35375B"/>
<path fill-rule="evenodd" clip-rule="evenodd" d="M223.897 556.329V556.031C223.861 555.927 223.786 555.841 223.687 555.792C223.572 555.749 223.444 555.749 223.329 555.792C223.265 555.809 223.206 555.839 223.154 555.88C223.103 555.921 223.06 555.973 223.03 556.031C223.008 556.083 222.996 556.139 222.996 556.195C222.996 556.251 223.008 556.307 223.03 556.359V556.658C223.076 556.772 223.161 556.867 223.269 556.926C223.385 556.97 223.512 556.97 223.628 556.926C223.74 556.892 223.836 556.818 223.897 556.717C223.948 556.593 223.948 556.454 223.897 556.329Z" fill="#35375B"/>
<path fill-rule="evenodd" clip-rule="evenodd" d="M222.373 551.404C222.481 551.435 222.595 551.435 222.702 551.404C222.8 551.359 222.883 551.286 222.942 551.195C222.983 551.09 222.983 550.972 222.942 550.867C222.963 550.779 222.963 550.687 222.942 550.598C222.834 550.568 222.72 550.568 222.613 550.598C222.558 550.61 222.508 550.635 222.466 550.672C222.424 550.709 222.392 550.755 222.373 550.807C222.351 550.859 222.34 550.915 222.34 550.971C222.34 551.028 222.351 551.084 222.373 551.136C222.341 551.222 222.341 551.318 222.373 551.404Z" fill="#35375B"/>
<path fill-rule="evenodd" clip-rule="evenodd" d="M223.419 546.987H223.718C223.816 546.941 223.899 546.869 223.958 546.778C223.999 546.672 223.999 546.555 223.958 546.449C223.932 546.348 223.881 546.256 223.808 546.181C223.711 546.151 223.607 546.151 223.509 546.181C223.41 546.225 223.327 546.297 223.27 546.39C223.256 546.489 223.256 546.589 223.27 546.688C223.254 546.787 223.254 546.888 223.27 546.987H223.419Z" fill="#35375B"/>
<path fill-rule="evenodd" clip-rule="evenodd" d="M149.276 434.186L113.968 421.62C113.005 421.255 111.941 421.255 110.978 421.62C110.041 421.982 109.259 422.657 108.766 423.53L89.9305 458.245C89.6465 458.757 89.4925 459.331 89.4821 459.916C89.4647 460.504 89.5876 461.087 89.8409 461.618C90.1179 462.134 90.5059 462.582 90.9769 462.931C91.4509 463.283 92.0063 463.509 92.5914 463.588C95.3718 463.916 99.1687 463.021 103.324 458.185C110.201 450.156 129.634 460.633 136.211 464.483L149.276 434.186Z" fill="#FFA17A"/>
<path fill-rule="evenodd" clip-rule="evenodd" d="M113.609 457.051C113.765 455.334 113.664 453.604 113.31 451.917C113.161 451.23 112.144 451.529 112.264 452.215C112.593 453.815 112.684 455.455 112.533 457.081C112.413 457.767 113.609 457.708 113.609 457.051Z" fill="#35375B"/>
<path fill-rule="evenodd" clip-rule="evenodd" d="M118.452 457.17C118.772 455.48 118.669 453.737 118.153 452.096C117.914 451.439 116.897 451.738 117.106 452.394C117.589 453.857 117.702 455.415 117.435 456.932C117.415 457.066 117.446 457.203 117.522 457.315C117.599 457.427 117.715 457.506 117.847 457.536C117.98 457.566 118.119 457.546 118.236 457.478C118.354 457.41 118.442 457.3 118.482 457.17H118.452Z" fill="#35375B"/>
<path fill-rule="evenodd" clip-rule="evenodd" d="M123.144 458.155C123.359 456.884 123.439 455.593 123.383 454.305C123.383 453.648 122.247 453.708 122.307 454.305C122.372 455.493 122.302 456.685 122.098 457.857C122.098 458.543 123.024 458.782 123.144 458.096V458.155Z" fill="#35375B"/>
<path fill-rule="evenodd" clip-rule="evenodd" d="M111.158 450.186H111.487C111.612 450.129 111.716 450.035 111.786 449.917C111.829 449.791 111.829 449.655 111.786 449.529C111.752 449.392 111.666 449.275 111.546 449.201C111.42 449.157 111.284 449.157 111.158 449.201H110.829C110.769 449.218 110.714 449.248 110.667 449.29C110.621 449.331 110.584 449.382 110.56 449.439C110.517 449.565 110.517 449.702 110.56 449.827C110.614 449.961 110.708 450.076 110.829 450.156C110.931 450.204 111.048 450.215 111.158 450.186Z" fill="#35375B"/>
<path fill-rule="evenodd" clip-rule="evenodd" d="M116.599 448.454C116.556 448.57 116.556 448.697 116.599 448.813C116.655 448.921 116.737 449.013 116.838 449.081C116.954 449.125 117.081 449.125 117.197 449.081C117.315 449.059 117.421 448.995 117.496 448.902C117.526 448.785 117.526 448.661 117.496 448.544C117.44 448.436 117.358 448.343 117.257 448.275C117.141 448.232 117.014 448.232 116.898 448.275C116.78 448.298 116.675 448.361 116.599 448.454Z" fill="#35375B"/>
<path fill-rule="evenodd" clip-rule="evenodd" d="M121.502 449.559C121.473 449.676 121.473 449.799 121.502 449.917L121.741 450.156C121.793 450.178 121.849 450.189 121.906 450.189C121.962 450.189 122.018 450.178 122.07 450.156C122.195 450.151 122.313 450.097 122.399 450.006C122.43 449.899 122.43 449.785 122.399 449.678C122.365 449.566 122.29 449.47 122.19 449.41C122.072 449.38 121.949 449.38 121.831 449.41C121.723 449.441 121.622 449.491 121.532 449.559H121.502Z" fill="#35375B"/>
<path fill-rule="evenodd" clip-rule="evenodd" d="M248.593 402.964L237.411 540.897C223.27 540.897 214.391 542.181 200.847 536.509L207.963 459.081C207.963 459.081 207.634 480.154 193.732 480.154C179.83 480.154 126.703 462.245 126.703 462.245L133.819 427.769L179.86 440.604C182.471 428.107 185.062 415.6 187.633 403.084L248.593 402.964Z" fill="#35375B"/>
<path d="M215.258 427.948C214.451 438.873 211.79 454.514 207.664 463.11" stroke="white" stroke-width="0.5" stroke-miterlimit="22.93"/>
<path fill-rule="evenodd" clip-rule="evenodd" d="M191.76 324.938V322.67C191.58 300.462 213.285 299.208 231.134 303.357C248.145 307.447 247.607 333.684 249.849 348.639C250.567 353.355 254.812 405.651 253.855 405.561C231.087 403.47 208.223 402.603 185.362 402.964C184.315 376.518 191.82 351.355 191.76 324.938Z" fill="white"/>
<path fill-rule="evenodd" clip-rule="evenodd" d="M227.934 302.79C227.934 302.79 228.412 333.923 225.781 360.757C236.185 380.935 254.123 456.693 254.123 456.693C257.412 456.693 260.731 419.292 264.019 419.232C258.16 387.094 252.29 354.957 246.41 322.819C245.154 310.133 241.477 296.88 227.934 302.79Z" fill="#F4F1F1"/>
<path fill-rule="evenodd" clip-rule="evenodd" d="M213.942 302.014C213.942 302.014 221.028 338.699 210.564 358.728C200.1 378.757 182.371 417.501 182.371 417.501L172.445 417.352C178.425 385.204 185.959 353.056 191.818 320.909C192.984 311.297 200.578 300.701 213.942 302.014Z" fill="#F4F1F1"/>
<path fill-rule="evenodd" clip-rule="evenodd" d="M246.409 366.847C246.409 366.847 265.423 386.935 285.274 384.756C305.126 382.577 325.874 372.13 325.874 372.13L309.222 349.833C309.222 349.833 286.261 358.966 273.077 354.101C259.892 349.236 246.468 319.954 243.18 315.954L244.615 337.027L246.409 366.847Z" fill="#F4F1F1"/>
<path fill-rule="evenodd" clip-rule="evenodd" d="M244.168 272.852C243.239 272.848 242.331 273.13 241.567 273.657C240.155 268.123 237.439 263.006 233.644 258.733C232.33 256.987 230.562 255.635 228.532 254.823C227.591 254.373 226.58 254.09 225.542 253.987C224.854 253.987 224.167 253.987 223.479 253.987C222.791 253.987 222.134 253.987 221.416 253.987C220.369 254.137 219.357 254.47 218.427 254.972C216.436 255.869 214.73 257.294 213.494 259.091C209.864 263.604 207.391 268.931 206.288 274.613C205.503 274.116 204.587 273.866 203.658 273.896C200.937 274.195 200.16 278.493 200.967 281.717C201.434 283.294 202.355 284.7 203.614 285.761C204.873 286.822 206.416 287.492 208.052 287.687C209.483 290.455 211.339 292.983 213.553 295.179C215.808 297.78 218.817 299.616 222.164 300.432H222.463H223.031H223.778C224.037 300.447 224.297 300.447 224.555 300.432H225.333H225.662H226.05H226.648H226.917C230.241 299.512 233.177 297.543 235.288 294.821C237.412 292.533 239.158 289.924 240.461 287.09C242.101 286.791 243.615 286.013 244.812 284.854C246.01 283.696 246.836 282.21 247.187 280.582C247.845 277.299 246.858 273.031 244.168 272.852Z" fill="#FFA17A"/>
<path fill-rule="evenodd" clip-rule="evenodd" d="M230.026 285.478C229.773 284.975 229.462 284.504 229.099 284.075C228.72 283.559 228.39 283.01 228.112 282.433C227.61 281.278 227.307 280.047 227.215 278.792C227.186 278.622 227.091 278.471 226.952 278.37C226.812 278.27 226.638 278.228 226.468 278.254C226.312 278.29 226.175 278.384 226.086 278.517C225.997 278.651 225.963 278.813 225.99 278.971C226.197 281.123 226.97 283.183 228.232 284.94C228.71 285.597 229.428 286.314 228.74 287.06C228.052 287.806 226.827 287.597 225.75 287.478C224.674 287.358 224.883 288.642 225.75 288.731C226.945 289.016 228.203 288.846 229.278 288.254C229.705 287.948 230.012 287.505 230.148 286.999C230.285 286.493 230.241 285.955 230.026 285.478Z" fill="#35375B"/>
<path fill-rule="evenodd" clip-rule="evenodd" d="M219.263 280.045C219.301 280.425 219.483 280.776 219.772 281.026C220.062 281.276 220.436 281.406 220.818 281.388C221.002 281.385 221.184 281.344 221.352 281.267C221.52 281.19 221.671 281.08 221.794 280.943C221.918 280.806 222.011 280.645 222.07 280.47C222.128 280.295 222.15 280.109 222.133 279.926C222.095 279.546 221.913 279.195 221.624 278.945C221.335 278.695 220.961 278.565 220.579 278.583C220.394 278.586 220.212 278.627 220.044 278.704C219.876 278.781 219.726 278.891 219.602 279.028C219.479 279.165 219.385 279.326 219.327 279.501C219.268 279.676 219.247 279.862 219.263 280.045Z" fill="#35375B"/>
<path fill-rule="evenodd" clip-rule="evenodd" d="M231.341 279.717C231.378 280.097 231.561 280.448 231.85 280.698C232.139 280.948 232.513 281.077 232.895 281.06C233.079 281.053 233.258 281.008 233.424 280.93C233.59 280.852 233.739 280.742 233.862 280.606C233.984 280.469 234.078 280.31 234.138 280.137C234.198 279.964 234.223 279.78 234.211 279.597C234.173 279.218 233.991 278.867 233.701 278.617C233.412 278.367 233.038 278.237 232.656 278.254C232.47 278.253 232.286 278.291 232.116 278.366C231.945 278.442 231.793 278.552 231.669 278.69C231.544 278.828 231.451 278.991 231.394 279.168C231.338 279.345 231.319 279.532 231.341 279.717Z" fill="#35375B"/>
<path fill-rule="evenodd" clip-rule="evenodd" d="M216.932 273.747C217.9 273.424 218.904 273.223 219.922 273.15C221.387 273.15 221.028 270.792 219.563 270.882C218.322 270.97 217.097 271.211 215.916 271.598C214.481 272.046 215.437 274.135 216.812 273.687L216.932 273.747Z" fill="#35375B"/>
<path fill-rule="evenodd" clip-rule="evenodd" d="M232.746 273.747C231.777 273.426 230.773 273.226 229.756 273.15C228.291 273.15 228.65 270.792 230.115 270.882C231.365 270.97 232.6 271.211 233.792 271.598C235.197 272.046 234.24 274.135 232.865 273.687L232.746 273.747Z" fill="#35375B"/>
<path fill-rule="evenodd" clip-rule="evenodd" d="M208.941 277.069L213.665 279.431C213.67 278.331 214.564 277.442 215.665 277.442H222.938C224.043 277.442 224.938 278.337 224.938 279.442V279.457H228.254V279.442C228.254 278.337 229.149 277.442 230.254 277.442H237.527C238.632 277.442 239.527 278.337 239.527 279.442V281.41C239.527 282.515 238.632 283.41 237.527 283.41H230.254C229.149 283.41 228.254 282.515 228.254 281.41V280.757H224.938V281.41C224.938 282.515 224.043 283.41 222.938 283.41H215.665C214.56 283.41 213.665 282.515 213.665 281.41V280.885L208.359 278.232C208.038 278.071 207.908 277.681 208.069 277.36C208.229 277.039 208.62 276.909 208.941 277.069ZM222.938 278.742H215.665C215.278 278.742 214.965 279.055 214.965 279.442V281.41C214.965 281.797 215.278 282.11 215.665 282.11H222.938C223.325 282.11 223.638 281.797 223.638 281.41V279.442C223.638 279.055 223.325 278.742 222.938 278.742ZM230.254 278.742H237.527C237.914 278.742 238.227 279.055 238.227 279.442V281.41C238.227 281.797 237.914 282.11 237.527 282.11H230.254C229.867 282.11 229.554 281.797 229.554 281.41V279.442C229.554 279.055 229.867 278.742 230.254 278.742Z" fill="#35375B"/>
<path fill-rule="evenodd" clip-rule="evenodd" d="M215.915 313.954C220.399 322.55 228.412 314.611 227.874 305.566V303.477V303.119V296.373L214.121 295.029V300.432C214.121 301.447 214.121 302.492 214.3 303.417C214.3 303.656 214.3 304.82 214.3 306.104C214.286 306.382 214.286 306.661 214.3 306.939C214.318 309.367 214.869 311.762 215.915 313.954Z" fill="#FFA17A"/>
<g style="mix-blend-mode:multiply" opacity="0.49">
<path fill-rule="evenodd" clip-rule="evenodd" d="M226.919 300.134C224.494 300.681 221.965 300.537 219.618 299.719C217.271 298.901 215.201 297.442 213.645 295.507C213.794 297.656 213.645 299.746 213.824 301.835C214.003 303.925 214.003 305.417 214.003 307.238C220.76 307.895 226.919 303.775 226.919 300.134Z" fill="#35375B"/>
</g>
<path fill-rule="evenodd" clip-rule="evenodd" d="M229.158 291.925C228.351 296.134 220.189 294.194 219.441 290.045L229.158 291.925Z" fill="white"/>
<path d="M209.07 326.311C210.848 326.035 212.669 326.29 214.302 327.044C215.935 327.798 217.308 329.018 218.249 330.55C220.092 333.623 221.302 337.033 221.806 340.579L222.614 344.609C223.946 348.559 223.946 352.837 222.614 356.788C221.826 358.36 220.626 359.69 219.141 360.636C217.657 361.582 215.943 362.109 214.183 362.16" stroke="#FC4C00" stroke-width="0.75" stroke-miterlimit="10"/>
<path fill-rule="evenodd" clip-rule="evenodd" d="M211.339 362.907C211.205 362.51 211.205 362.08 211.339 361.683C211.401 361.413 211.535 361.166 211.728 360.966C211.923 360.813 212.153 360.708 212.398 360.661C212.642 360.614 212.894 360.627 213.133 360.698C213.761 360.698 215.136 361.086 215.226 361.832C215.315 362.578 214.269 363.354 213.791 363.593C213.585 363.71 213.358 363.784 213.123 363.813C212.888 363.841 212.65 363.823 212.422 363.759C212.194 363.696 211.981 363.587 211.795 363.441C211.609 363.295 211.454 363.113 211.339 362.907Z" fill="white" stroke="#FC4C00" stroke-width="0.57" stroke-miterlimit="22.93"/>
<path d="M208.502 326.162C206.888 326.931 205.536 328.155 204.611 329.683C203.687 331.21 203.231 332.975 203.3 334.759C203.481 338.332 204.376 341.833 205.931 345.057C206.469 346.31 206.977 347.594 207.485 348.877C208.643 352.877 211.065 356.396 214.392 358.907C215.922 359.768 217.656 360.203 219.413 360.167C221.17 360.13 222.884 359.623 224.377 358.698" stroke="#FC4C00" stroke-width="0.75" stroke-miterlimit="10"/>
<path fill-rule="evenodd" clip-rule="evenodd" d="M227.842 356.788C227.521 356.403 227.068 356.15 226.571 356.078C226.075 356.007 225.569 356.121 225.152 356.399C224.468 356.972 224.03 357.783 223.926 358.668C223.926 358.668 223.926 358.668 223.926 358.877C223.926 359.086 223.926 358.877 224.105 358.877C224.969 359.219 225.932 359.219 226.796 358.877C227.075 358.779 227.338 358.638 227.573 358.459C227.781 358.265 227.93 358.017 228.004 357.743C228.078 357.468 228.074 357.179 227.992 356.907C227.945 356.863 227.895 356.823 227.842 356.788Z" fill="white" stroke="#FC4C00" stroke-width="0.57" stroke-miterlimit="22.93"/>
<path fill-rule="evenodd" clip-rule="evenodd" d="M227.605 303.477C232.509 305.119 234.452 306.462 236.006 309.745C237.561 313.029 238.189 317.894 238.996 325.715C239.335 331.139 239.195 336.583 238.578 341.982C237.964 347.351 236.658 352.619 234.691 357.653L236.156 358.25C238.18 353.084 239.517 347.675 240.132 342.161C240.765 336.663 240.905 331.119 240.551 325.595C239.893 317.625 239.325 312.611 237.561 309.089C235.797 305.566 233.047 303.537 227.725 301.775L227.605 303.477Z" fill="#FC4C00"/>
<path fill-rule="evenodd" clip-rule="evenodd" d="M229.637 359.325C229.637 360.328 229.935 361.309 230.493 362.144C231.052 362.978 231.846 363.629 232.774 364.013C233.703 364.397 234.725 364.497 235.711 364.302C236.697 364.106 237.602 363.622 238.313 362.913C239.024 362.203 239.508 361.299 239.704 360.315C239.9 359.33 239.799 358.31 239.415 357.383C239.03 356.456 238.379 355.663 237.543 355.105C236.707 354.548 235.724 354.25 234.719 354.25C233.371 354.25 232.078 354.785 231.125 355.737C230.172 356.688 229.637 357.979 229.637 359.325Z" fill="white"/>
<path fill-rule="evenodd" clip-rule="evenodd" d="M232.207 359.325C232.207 359.821 232.354 360.305 232.63 360.718C232.906 361.13 233.298 361.451 233.757 361.641C234.216 361.831 234.721 361.881 235.208 361.784C235.695 361.687 236.143 361.448 236.494 361.098C236.845 360.747 237.085 360.3 237.181 359.814C237.278 359.327 237.229 358.823 237.039 358.365C236.848 357.907 236.527 357.515 236.114 357.24C235.701 356.964 235.215 356.817 234.718 356.817C234.052 356.817 233.414 357.082 232.943 357.552C232.472 358.022 232.207 358.66 232.207 359.325Z" fill="#C9E3E5"/>
<path fill-rule="evenodd" clip-rule="evenodd" d="M235.855 261.181C236.007 259.48 235.728 257.768 235.044 256.203C234.359 254.638 233.292 253.271 231.939 252.226C230.256 251.09 228.364 250.3 226.373 249.9C224.382 249.5 222.331 249.499 220.339 249.898C216.452 250.548 212.756 252.042 209.512 254.276C206.268 256.509 203.554 259.427 201.564 262.822C199.544 266.341 198.274 270.239 197.831 274.27C197.389 278.302 197.784 282.382 198.993 286.254C200.517 290.97 203.298 295.835 201.982 300.611C200.947 302.999 199.697 305.286 198.245 307.447C196.463 311.382 196.104 315.813 197.229 319.983C198.336 324.083 200.125 327.967 202.52 331.475C204.495 334.111 205.947 337.1 206.796 340.281C207.202 341.831 207.095 343.47 206.491 344.955C205.888 346.44 204.82 347.69 203.447 348.519C205.311 348.352 207.119 347.798 208.756 346.893C210.393 345.989 211.823 344.753 212.954 343.266C215.327 340.181 216.4 336.293 215.944 332.431C214.868 324.282 207.184 317.775 207.812 309.596C208.291 303.626 213.313 298.373 212.865 292.313C212.566 288.104 209.576 284.403 209.457 280.165C209.517 278.317 209.998 276.508 210.863 274.874C211.728 273.239 212.955 271.823 214.449 270.732C217.426 268.648 220.73 267.074 224.226 266.076C223.418 267.419 221.684 267.21 220.847 268.553C223.837 267.509 226.827 269.18 229.816 268.225C230.505 268 231.167 267.7 231.789 267.329C232.686 270.105 239.981 271.001 241.237 273.657C242.412 278.075 241.999 282.765 240.071 286.911C243.049 283.172 245.043 278.75 245.871 274.046C245.781 272.822 244.436 260.195 235.855 261.181Z" fill="#35375B"/>
<path d="M183.326 357.832C173.878 389.383 149.542 425.441 119.406 386.607" stroke="#B9B0B0" stroke-width="0.4" stroke-miterlimit="22.93" stroke-linecap="round"/>
<path fill-rule="evenodd" clip-rule="evenodd" d="M190.324 359.295C191.657 365.987 194.684 372.227 199.117 377.421C203.55 382.615 209.24 386.589 215.647 388.965C238.398 398.248 267.398 399.561 267.398 399.561L262.585 365.474C262.585 365.474 234.542 378.368 223.151 365.295C205.452 344.997 227.038 329.655 206.708 313.178L190.324 359.295Z" fill="#F4F1F1"/>
<path d="M190.324 359.295C191.657 365.987 194.684 372.227 199.117 377.421C203.55 382.615 209.24 386.589 215.647 388.965C238.398 398.248 267.398 399.561 267.398 399.561" stroke="#B9B0B0" stroke-width="0.5" stroke-miterlimit="22.93"/>
<path fill-rule="evenodd" clip-rule="evenodd" d="M405.372 404.666C403.734 401.836 401.525 399.377 398.884 397.445C396.244 395.513 393.23 394.15 390.035 393.442L331.855 380.756L330.211 388.219L405.372 404.666Z" fill="#F4F1F1" stroke="#35375B" stroke-width="0.4" stroke-miterlimit="22.93"/>
<path d="M328.828 379.061L326.75 388.537L329.992 389.246L332.07 379.769L328.828 379.061Z" fill="#FC4C00"/>
<path fill-rule="evenodd" clip-rule="evenodd" d="M328.865 379.085L321.421 377.473L288.534 370.279C285.298 369.682 281.957 370.365 279.216 372.183C276.475 374.001 274.55 376.812 273.847 380.022C273.144 383.232 273.719 386.588 275.45 389.382C277.181 392.176 279.933 394.189 283.123 394.994L297.204 397.979C299.651 398.52 302.203 398.33 304.542 397.433C306.881 396.536 308.904 394.972 310.359 392.935L312.392 389.95C313.272 388.738 314.489 387.809 315.891 387.279C317.294 386.748 318.821 386.639 320.285 386.965L326.832 388.398L328.865 379.085ZM308.416 385.293C308.052 385.701 307.712 386.129 307.399 386.577L305.366 389.413C305.221 389.64 305.05 389.85 304.858 390.04C304.073 390.902 303.073 391.542 301.959 391.893C300.846 392.244 299.659 392.295 298.52 392.039L284.438 389.054C283.587 388.864 282.785 388.5 282.08 387.987C281.376 387.473 280.784 386.821 280.343 386.07C279.875 385.348 279.555 384.542 279.401 383.697C279.247 382.851 279.262 381.984 279.446 381.144C279.687 380.029 280.224 378.998 281 378.16C281.744 377.335 282.687 376.714 283.738 376.353C284.789 375.993 285.915 375.906 287.01 376.1L306.831 380.428C307.318 380.557 307.765 380.806 308.129 381.153C308.494 381.5 308.765 381.933 308.917 382.412C309.069 382.892 309.097 383.402 308.999 383.895C308.901 384.388 308.68 384.849 308.356 385.234L308.416 385.293Z" fill="#35375B"/>
<path fill-rule="evenodd" clip-rule="evenodd" d="M336.25 388.756L331.586 381.204L333.38 381.144L337.954 388.696L336.25 388.756Z" fill="#35375B"/>
<path fill-rule="evenodd" clip-rule="evenodd" d="M344.621 390.248L339.987 382.726L337.984 382.786L342.708 390.308L344.621 390.248Z" fill="#797C98"/>
<path fill-rule="evenodd" clip-rule="evenodd" d="M378.045 440.335C374.835 439.715 371.788 438.437 369.097 436.582C366.406 434.727 364.129 432.337 362.409 429.56L331.227 378.816L337.744 374.787L378.045 440.335Z" fill="#F4F1F1" stroke="#35375B" stroke-width="0.4" stroke-miterlimit="22.93"/>
<path fill-rule="evenodd" clip-rule="evenodd" d="M349.794 398.218L375.804 439.738C376.59 439.979 377.389 440.179 378.196 440.335L349.016 392.935C348.777 393.822 348.723 394.748 348.857 395.657C348.99 396.566 349.309 397.437 349.794 398.218Z" fill="#35375B"/>
<path d="M336.867 371.527L328.59 376.607L330.328 379.43L338.605 374.349L336.867 371.527Z" fill="#FC4C00"/>
<path fill-rule="evenodd" clip-rule="evenodd" d="M336.879 371.503L333.351 365.802C332.571 364.518 332.183 363.035 332.236 361.534C332.289 360.033 332.781 358.58 333.65 357.355L335.653 354.37C337.101 352.329 337.916 349.908 337.996 347.408C338.076 344.908 337.417 342.44 336.102 340.311L328.538 328.341C326.726 325.594 323.915 323.659 320.699 322.945C317.483 322.232 314.116 322.797 311.309 324.52C308.503 326.242 306.479 328.988 305.666 332.175C304.853 335.363 305.314 338.741 306.952 341.594L324.621 370.249L328.598 376.757L336.879 371.652V371.503ZM322.887 355.474L312.274 338.221C311.675 337.242 311.343 336.124 311.311 334.977C311.28 333.83 311.55 332.695 312.094 331.684C312.795 330.436 313.88 329.447 315.19 328.866C316.499 328.285 317.962 328.143 319.359 328.461C321.054 328.885 322.514 329.957 323.425 331.446L330.959 343.714C331.575 344.709 331.916 345.849 331.947 347.018C331.979 348.187 331.7 349.343 331.139 350.37L330.72 351.027L328.717 354.012C328.383 354.45 328.093 354.92 327.85 355.414C327.582 355.824 327.216 356.161 326.786 356.397C326.356 356.632 325.875 356.759 325.385 356.764C324.894 356.77 324.41 356.656 323.974 356.431C323.539 356.206 323.166 355.877 322.887 355.474Z" fill="#35375B"/>
<path fill-rule="evenodd" clip-rule="evenodd" d="M338.102 386.129C338.059 386.609 338.18 387.089 338.447 387.49C338.713 387.892 339.108 388.191 339.567 388.338L339.926 384.219C339.451 384.285 339.011 384.509 338.68 384.856C338.349 385.203 338.145 385.652 338.102 386.129Z" fill="#35375B"/>
<path fill-rule="evenodd" clip-rule="evenodd" d="M342.347 386.487C342.383 386.005 342.255 385.525 341.984 385.124C341.713 384.723 341.314 384.425 340.852 384.279L340.523 388.428C341.001 388.356 341.441 388.125 341.772 387.773C342.103 387.421 342.306 386.968 342.347 386.487Z" fill="#35375B"/>
<path fill-rule="evenodd" clip-rule="evenodd" d="M340.527 388.428L340.856 384.279H340.407H339.929L339.57 388.398C339.728 388.426 339.89 388.426 340.049 388.398L340.527 388.428Z" fill="#35375B"/>
<path fill-rule="evenodd" clip-rule="evenodd" d="M106.135 218.616C104.252 224.406 115.583 227.57 119.469 223.003L106.135 218.616Z" fill="white"/>
<path fill-rule="evenodd" clip-rule="evenodd" d="M263.961 375.234C265.994 374.787 277.833 371.324 280.165 371.205C282.497 371.085 274.963 374.19 276.757 374.548C279.448 375.025 283.125 374.1 282.736 378.189C283.842 378.548 284.171 380.607 284.052 382.189C284.583 382.665 284.948 383.299 285.093 383.997C285.238 384.695 285.156 385.421 284.859 386.07C285.094 386.274 285.282 386.526 285.411 386.81C285.54 387.093 285.606 387.4 285.606 387.711C285.606 388.022 285.54 388.33 285.411 388.613C285.282 388.896 285.094 389.148 284.859 389.353C281.002 393.233 271.196 395.144 266.921 395.95L263.961 375.234Z" fill="#FFA17A"/>
<path fill-rule="evenodd" clip-rule="evenodd" d="M311.405 358.011C327.58 371.175 329.643 352.221 329.344 352.042C326.03 350.478 322.841 348.662 319.806 346.609C315.98 342.52 310.598 357.325 311.405 358.011Z" fill="#FFA17A"/>
<path d="M325.874 354.758C325.372 357.09 324.234 359.239 322.586 360.966C320.164 363.086 320.164 362.668 320.164 362.668" stroke="#35375B" stroke-width="0.4" stroke-miterlimit="22.93" stroke-linecap="round"/>
<path d="M323.156 353.355C322.644 355.684 321.507 357.83 319.867 359.563C317.445 361.683 317.445 361.265 317.445 361.265" stroke="#35375B" stroke-width="0.4" stroke-miterlimit="22.93" stroke-linecap="round"/>
<path d="M319.269 351.355C318.752 353.682 317.616 355.827 315.98 357.564C313.529 359.683 313.559 359.265 313.559 359.265" stroke="#35375B" stroke-width="0.4" stroke-miterlimit="22.93" stroke-linecap="round"/>
<path d="M279.357 389.263C278.592 384.846 277.594 380.472 276.367 376.16" stroke="#35375B" stroke-width="0.4" stroke-miterlimit="22.93" stroke-linecap="round"/>
<path fill-rule="evenodd" clip-rule="evenodd" d="M82.9651 92.3236C82.9651 92.3236 81.9187 96.3234 82.9651 97.3681C84.0115 98.4129 88.4063 99.8755 88.5558 97.3681C88.7053 94.8608 88.4063 91.0103 87.2104 91.0103C85.7462 91.2706 84.3202 91.7118 82.9651 92.3236Z" fill="#35375B"/>
<path fill-rule="evenodd" clip-rule="evenodd" d="M77.3133 124.232C77.3133 124.232 74.7123 121.039 73.2473 121.247C71.7824 121.456 67.9855 124.232 69.9587 125.725C71.9319 127.217 75.1607 129.366 75.9381 128.411C76.5602 127.077 77.0218 125.675 77.3133 124.232Z" fill="#FC4C00"/>
<path fill-rule="evenodd" clip-rule="evenodd" d="M93.996 117.098C93.996 117.098 85.5352 117.994 85.5352 119.636C85.5352 124.083 97.1351 131.725 107.031 128.59C111.157 127.337 118.571 119.636 117.076 117.009L111.486 115.158C111.486 115.158 107.151 123.158 101.291 123.158C99.5855 123.06 97.9567 122.419 96.6436 121.328C95.3306 120.237 94.4026 118.755 93.996 117.098Z" fill="#FC4C00"/>
<path fill-rule="evenodd" clip-rule="evenodd" d="M109.422 127.516C113.458 124.949 118.391 119.367 117.076 117.098L111.485 115.248C111.485 115.248 107.629 122.531 102.098 123.188C104.288 125.018 106.762 126.48 109.422 127.516Z" fill="#FFA17A"/>
<path fill-rule="evenodd" clip-rule="evenodd" d="M152.713 153.634C152.713 153.634 148.079 146.53 146.733 147.276C142.787 149.306 141.262 163.066 148.467 170.499C151.457 173.484 161.592 176.737 163.416 174.14L162.549 168.35C162.549 168.35 153.43 168.111 150.769 162.917C150.054 161.366 149.858 159.627 150.207 157.955C150.557 156.284 151.435 154.769 152.713 153.634Z" fill="#E3E3E3"/>
<path fill-rule="evenodd" clip-rule="evenodd" d="M150.47 172.081C154.626 174.528 161.771 176.289 163.236 174.14L162.369 168.35C162.369 168.35 154.057 168.141 151.008 163.604C150.362 166.38 150.18 169.245 150.47 172.081Z" fill="#35375B"/>
<path fill-rule="evenodd" clip-rule="evenodd" d="M427.344 304.969C427.344 304.969 429.048 308.73 430.543 308.88C432.038 309.029 436.343 307.357 434.848 305.328C433.353 303.298 430.692 300.492 429.765 301.268C428.802 302.393 427.988 303.637 427.344 304.969Z" fill="#35375B"/>
<path fill-rule="evenodd" clip-rule="evenodd" d="M443.25 333.207C443.25 333.207 439.214 332.371 438.227 333.505C437.241 334.639 436.015 339.057 438.526 339.057C441.037 339.057 444.894 338.55 444.804 337.386C444.463 335.933 443.94 334.53 443.25 333.207Z" fill="#FC4C00"/>
<path fill-rule="evenodd" clip-rule="evenodd" d="M451.591 317.148C451.591 317.148 445.612 323.118 446.688 324.431C449.499 327.864 463.311 326.431 469.051 317.804C471.443 314.223 472.34 303.686 469.44 302.492L463.939 304.611C463.939 304.611 465.673 313.566 461.158 317.237C459.766 318.252 458.083 318.791 456.36 318.775C454.637 318.759 452.964 318.188 451.591 317.148Z" fill="#FC4C00"/>
<path fill-rule="evenodd" clip-rule="evenodd" d="M470.157 315.387C471.652 310.82 471.832 303.447 469.44 302.492L463.939 304.611C463.939 304.611 465.523 312.73 461.727 316.551C464.582 316.626 467.43 316.233 470.157 315.387Z" fill="#FFA17A"/>
<path fill-rule="evenodd" clip-rule="evenodd" d="M282.046 262.464C282.046 262.464 288.026 268.434 286.949 269.747C284.139 273.18 270.327 271.747 264.586 263.121C262.195 259.539 261.298 249.002 264.198 247.808L269.669 249.927C269.669 249.927 267.965 258.882 272.479 262.554C273.871 263.568 275.554 264.107 277.278 264.091C279.001 264.075 280.673 263.504 282.046 262.464Z" fill="#FC4C00"/>
<path fill-rule="evenodd" clip-rule="evenodd" d="M263.481 260.703C261.986 256.166 261.807 248.763 264.198 247.808L269.669 249.927C269.669 249.927 268.115 258.046 271.882 261.867C269.037 261.941 266.198 261.547 263.481 260.703Z" fill="#FFA17A"/>
<path fill-rule="evenodd" clip-rule="evenodd" d="M397.627 283.388C397.627 283.388 392.993 276.284 391.647 277.03C387.701 279.06 386.176 292.821 393.381 300.253C396.371 303.238 406.506 306.492 408.33 303.895L407.463 298.104C407.463 298.104 398.344 297.865 395.683 292.701C394.966 291.146 394.768 289.401 395.118 287.725C395.468 286.049 396.347 284.529 397.627 283.388Z" fill="#E3E3E3"/>
<path fill-rule="evenodd" clip-rule="evenodd" d="M395.446 301.835C399.602 304.283 406.747 306.044 408.212 303.895L407.345 298.104C407.345 298.104 399.034 297.895 395.985 293.358C395.338 296.135 395.156 298.999 395.446 301.835Z" fill="#35375B"/>
<path fill-rule="evenodd" clip-rule="evenodd" d="M366.058 315.834C366.058 315.834 363.487 312.641 361.992 312.849C360.498 313.058 356.731 315.834 358.704 317.327C360.677 318.819 363.936 320.968 364.683 320.013C365.319 318.685 365.781 317.28 366.058 315.834Z" fill="#FC4C00"/>
<path fill-rule="evenodd" clip-rule="evenodd" d="M170.98 224.615C170.98 224.615 168.409 221.421 166.915 221.63C165.42 221.839 161.683 224.615 163.626 226.108C165.569 227.6 168.858 229.749 169.605 228.794C170.241 227.466 170.703 226.061 170.98 224.615Z" fill="#FC4C00"/>
<path fill-rule="evenodd" clip-rule="evenodd" d="M291.048 314.223C291.048 314.223 288.447 310.999 286.982 311.238C285.517 311.476 281.72 314.223 283.693 315.745C285.666 317.267 288.895 319.386 289.672 318.401C290.295 317.068 290.757 315.665 291.048 314.223Z" fill="#FC4C00"/>
<path d="M209.309 230.884L209.458 251.718" stroke="#F4F1F1" stroke-width="0.46" stroke-miterlimit="10" stroke-linecap="round"/>
<path fill-rule="evenodd" clip-rule="evenodd" d="M205.751 81.369C205.871 81.2123 206.033 81.0927 206.218 81.024C206.403 80.9553 206.604 80.9404 206.797 80.9809L207.395 81.1302C209.433 81.5815 211.432 82.1903 213.375 82.951C215.647 83.9658 216.723 84.5031 217.321 84.8315L218.098 85.1598L218.965 85.309C219.623 85.309 220.729 85.518 222.942 85.8762C223.839 86.0254 224.885 86.2045 225.931 86.4732C227.095 86.7507 228.242 87.0894 229.37 87.488C229.55 87.5629 229.702 87.6927 229.804 87.8588C229.906 88.025 229.953 88.2191 229.938 88.4134V88.5626C230.117 89.0701 231.133 89.5476 232.06 89.9954C232.987 90.4431 233.884 90.861 233.884 91.4281V91.7565H233.794C233.582 91.7135 233.38 91.6326 233.196 91.5177C232.449 91.1296 230.894 90.3237 230.595 90.6222C230.391 90.8137 230.127 90.9296 229.848 90.9506C229.639 90.9506 229.459 90.9506 229.13 91.7266V91.9356C228.891 92.443 228.682 92.9206 228.084 93.1295C227.576 93.2606 227.053 93.3208 226.529 93.3086C225.813 93.3649 225.093 93.3649 224.377 93.3086C223.36 93.1616 222.36 92.9218 221.387 92.5923C220.7 92.3991 220.066 92.052 219.533 91.5774C219.121 90.7459 218.868 89.845 218.786 88.9208C218.786 88.3835 218.607 87.8761 218.517 87.4582C218.384 87.2235 218.172 87.0436 217.919 86.9508C217.626 86.8645 217.315 86.8645 217.022 86.9508C216.621 87.2737 216.241 87.6227 215.886 87.9955C215.244 88.7336 214.474 89.3503 213.614 89.8163C213.17 89.9063 212.712 89.9063 212.268 89.8163C211.548 89.6946 210.838 89.5149 210.146 89.279C208.967 88.9091 207.834 88.4085 206.767 87.7865C206.046 87.4445 205.466 86.8647 205.123 86.1448C205.089 85.9172 205.089 85.6859 205.123 85.4583C205.123 85.2195 205.123 84.921 205.123 84.6225C205.175 84.1583 205.265 83.6991 205.392 83.2495C205.488 82.7956 205.607 82.3472 205.751 81.9062V81.369ZM228.592 88.1149L226.709 87.6074L224.825 87.0702C224.257 87.0702 223.061 86.6821 222.015 86.503C221.454 86.3869 220.883 86.3269 220.311 86.3239C219.563 86.3239 219.414 86.9806 219.474 87.7865C219.533 88.5925 219.474 88.5626 219.653 88.9805V89.667C219.684 89.9748 219.787 90.2711 219.952 90.5327C220.097 90.772 220.303 90.9679 220.55 91.0998C221.323 91.4882 222.149 91.7598 223.001 91.9057C224.174 92.1371 225.364 92.267 226.559 92.2938C226.952 92.3124 227.343 92.2302 227.695 92.055C227.913 91.8972 228.079 91.6793 228.174 91.4281L229.011 89.0701C229.085 88.8884 229.085 88.6846 229.011 88.5029C228.968 88.4186 228.909 88.3436 228.837 88.2821C228.765 88.2206 228.682 88.1739 228.592 88.1447V88.1149ZM209.279 82.4734L207.455 81.8764C207.271 81.8149 207.071 81.8149 206.887 81.8764C206.707 81.9588 206.567 82.1091 206.498 82.2943L205.93 84.7121C205.872 84.9674 205.872 85.2328 205.93 85.4881C206.073 85.8388 206.339 86.1254 206.678 86.2941C207.668 86.9177 208.72 87.4379 209.817 87.8462C210.708 88.2063 211.643 88.4471 212.597 88.5626C212.885 88.5856 213.173 88.5342 213.434 88.4134C213.731 88.3121 213.992 88.1251 214.182 87.8761L214.66 87.3686C214.983 87.063 215.283 86.7337 215.557 86.3836C216.006 85.8165 216.185 85.2792 215.557 84.8016C214.205 84.0955 212.795 83.5063 211.342 83.0405L209.279 82.4734Z" fill="#35375B"/>
</svg>
