<svg xmlns="http://www.w3.org/2000/svg" xmlns:xlink="http://www.w3.org/1999/xlink"><symbol id="icon-award" viewBox="0 0 30 29">
<path fill-rule="evenodd" clip-rule="evenodd" d="M17.5309 7.19765C16.7403 4.68412 13.258 4.68412 12.4674 7.19765C12.3547 7.556 12.0441 7.77039 11.7242 7.77039C9.08788 7.77039 8.13404 11.1625 10.1494 12.6751C10.4272 12.8836 10.5575 13.2696 10.4433 13.6325C10.056 14.864 10.5528 16.016 11.4004 16.6521C12.2523 17.2915 13.5038 17.4372 14.5499 16.6521C14.8199 16.4494 15.1784 16.4494 15.4484 16.6521C16.4946 17.4372 17.746 17.2915 18.598 16.6521C19.4455 16.016 19.9423 14.864 19.555 13.6325C19.4408 13.2696 19.5712 12.8836 19.8489 12.6751C21.8643 11.1625 20.9104 7.77039 18.2741 7.77039C17.9542 7.77039 17.6437 7.556 17.5309 7.19765ZM11.7242 9.64539C12.8961 9.64539 13.9077 8.86749 14.256 7.76024C14.4962 6.99659 15.5021 6.99659 15.7423 7.76024C16.0906 8.86749 17.1022 9.64539 18.2741 9.64539C18.6367 9.64539 18.9073 9.86839 19.0173 10.2181C19.128 10.57 19.0376 10.9397 18.7234 11.1755C17.7942 11.8729 17.4195 13.0924 17.7664 14.1951C17.8944 14.6022 17.7412 14.9508 17.4725 15.1524C17.2081 15.3508 16.8772 15.38 16.5739 15.1524C15.637 14.4493 14.3613 14.4493 13.4244 15.1524C13.1212 15.38 12.7902 15.3508 12.5259 15.1524C12.2572 14.9508 12.1039 14.6022 12.232 14.1951C12.5788 13.0924 12.2041 11.8729 11.2749 11.1755C10.9608 10.9397 10.8703 10.57 10.981 10.2181C11.091 9.86839 11.3616 9.64539 11.7242 9.64539Z"/>
<path fill-rule="evenodd" clip-rule="evenodd" d="M14.9992 0.3125C8.95855 0.3125 4.06166 5.20938 4.06166 11.25C4.06166 12.7182 4.35144 14.1207 4.87745 15.4018C4.51444 15.822 4.17817 16.4047 3.72543 17.1892L1.44296 21.1426C1.16113 21.6305 0.900524 22.0818 0.750276 22.4553C0.603109 22.8212 0.417768 23.4556 0.827345 24.0428C1.24211 24.6375 1.90789 24.6728 2.30246 24.6532C2.70195 24.6333 3.20981 24.5333 3.75535 24.4259L4.74443 24.2314C5.29276 24.1235 5.61808 24.0613 5.85946 24.0447C5.9697 24.0371 6.02889 24.0422 6.05802 24.0471C6.0714 24.0494 6.07769 24.0515 6.0793 24.052C6.08065 24.0525 6.08138 24.0528 6.08297 24.0538C6.08456 24.0547 6.08519 24.0551 6.08628 24.0561C6.08758 24.0572 6.09253 24.0616 6.10117 24.0721C6.11997 24.0948 6.15398 24.1435 6.20254 24.2428C6.30885 24.4601 6.41764 24.773 6.5984 25.3018L6.92442 26.2555C7.1042 26.7817 7.27157 27.2716 7.45412 27.6275C7.63442 27.979 7.99785 28.5379 8.72023 28.5998C9.43357 28.6609 9.89034 28.1832 10.1336 27.8728C10.382 27.5559 10.6425 27.1046 10.9242 26.6165L13.1605 22.743C13.2977 22.5054 13.4228 22.2887 13.5351 22.0902C14.0143 22.1544 14.5031 22.1875 14.9992 22.1875C15.3832 22.1875 15.7629 22.1677 16.1373 22.1289C16.2438 22.3167 16.3614 22.5204 16.4896 22.7424L18.7263 26.6165C19.008 27.1046 19.2684 27.5559 19.5168 27.8728C19.7601 28.1832 20.2168 28.6609 20.9302 28.5998C21.6526 28.5379 22.016 27.979 22.1963 27.6275C22.3788 27.2716 22.5462 26.7818 22.726 26.2556L23.052 25.3018C23.2328 24.773 23.3416 24.4601 23.4479 24.2428C23.4964 24.1435 23.5305 24.0948 23.5493 24.0721C23.5503 24.0707 23.5514 24.0695 23.5523 24.0684C23.5591 24.0605 23.563 24.0571 23.5641 24.0561L23.5657 24.0548L23.5675 24.0538C23.569 24.0528 23.5698 24.0525 23.5711 24.052C23.5727 24.0515 23.579 24.0494 23.5924 24.0471C23.6215 24.0422 23.6807 24.0371 23.791 24.0447C24.0323 24.0613 24.3577 24.1235 24.906 24.2314L25.8951 24.4259C26.4406 24.5333 26.9485 24.6333 27.348 24.6532C27.7425 24.6728 28.4083 24.6375 28.8231 24.0428C29.2327 23.4556 29.0473 22.8212 28.9001 22.4553C28.7499 22.0818 28.4893 21.6306 28.2075 21.1427L25.9015 17.1485C25.5594 16.5553 25.2822 16.0747 24.9986 15.6879C25.6018 14.3307 25.9367 12.8284 25.9367 11.25C25.9367 5.20938 21.0398 0.3125 14.9992 0.3125ZM5.93666 11.25C5.93666 6.24492 9.99408 2.1875 14.9992 2.1875C20.0042 2.1875 24.0617 6.24492 24.0617 11.25C24.0617 12.7484 23.6987 14.1593 23.0569 15.4022C21.7715 17.891 19.3679 19.7064 16.5152 20.1864C16.0228 20.2693 15.5164 20.3125 14.9992 20.3125C14.3944 20.3125 13.8043 20.2534 13.2342 20.1409C10.4403 19.5897 8.10438 17.7519 6.87352 15.2679C6.27407 14.0581 5.93666 12.6948 5.93666 11.25ZM5.29478 18.221C5.53179 17.8105 5.71187 17.5004 5.85912 17.2594C7.21122 19.312 9.23656 20.8826 11.6229 21.6562L9.33266 25.623C9.16909 25.9063 9.03879 26.1308 8.92987 26.3093C8.8601 26.1196 8.77872 25.8833 8.67741 25.5869L8.35601 24.6467C8.19752 24.1829 8.05145 23.7554 7.88683 23.4189C7.70509 23.0474 7.45166 22.6789 7.02047 22.43C6.58927 22.181 6.14344 22.1458 5.73082 22.1741C5.35708 22.1998 4.91386 22.2871 4.43296 22.3817L3.45797 22.5735C3.15065 22.6339 2.90534 22.6816 2.70614 22.716C2.80624 22.5325 2.93552 22.3074 3.09908 22.0241L5.29478 18.221ZM18.0801 21.7473C20.4867 21.0422 22.5477 19.5329 23.9541 17.5314C24.0675 17.7232 24.1993 17.9502 24.3556 18.221L26.5513 22.0241C26.7149 22.3074 26.8442 22.5325 26.9443 22.716C26.7451 22.6816 26.4998 22.6339 26.1924 22.5735L25.2176 22.3817C24.7367 22.2871 24.2934 22.1998 23.9196 22.1741C23.507 22.1458 23.0611 22.181 22.63 22.43C22.1988 22.6789 21.9453 23.0474 21.7636 23.4189C21.599 23.7554 21.4529 24.1829 21.2944 24.6467L20.973 25.5869C20.8717 25.8833 20.7903 26.1196 20.7206 26.3093C20.6116 26.1308 20.4813 25.9063 20.3178 25.623L18.0801 21.7473Z"/>
</symbol><symbol id="icon-catalog" viewBox="0 0 22 18">
<path d="M9.75 9.00001C9.75 8.5858 9.41421 8.25001 9 8.25001C8.58579 8.25001 8.25 8.5858 8.25 9.00001V13C8.25 13.4142 8.58579 13.75 9 13.75C9.41421 13.75 9.75 13.4142 9.75 13V9.00001Z"/>
<path d="M13.75 9.00001C13.75 8.5858 13.4142 8.25001 13 8.25001C12.5858 8.25001 12.25 8.5858 12.25 9.00001V13C12.25 13.4142 12.5858 13.75 13 13.75C13.4142 13.75 13.75 13.4142 13.75 13V9.00001Z"/>
<path fill-rule="evenodd" clip-rule="evenodd" d="M14.5304 0.46967C14.2375 0.176777 13.7626 0.176777 13.4697 0.46967C13.1768 0.762563 13.1768 1.23744 13.4697 1.53033L16.1894 4.25001H6.05331L8.77297 1.53035C9.06586 1.23745 9.06586 0.762578 8.77297 0.469685C8.48008 0.176792 8.0052 0.176792 7.71231 0.469685L3.93198 4.25001H1C0.585786 4.25001 0.25 4.5858 0.25 5.00001C0.25 5.41422 0.585786 5.75001 1 5.75001H1.54431C1.77073 6.60621 2.06357 7.59336 2.40431 8.74198L3.42921 12.1969C3.83637 13.5702 4.08598 14.412 4.52349 15.0966C5.2767 16.2751 6.43365 17.1386 7.77772 17.5256C8.55843 17.7503 9.43649 17.7502 10.8688 17.75H11.1312C12.5635 17.7502 13.4416 17.7503 14.2223 17.5256C15.5663 17.1386 16.7233 16.2751 17.4765 15.0966C17.914 14.412 18.1636 13.5702 18.5708 12.1969L19.5956 8.7422C19.9364 7.59355 20.2293 6.60623 20.4557 5.75001H21C21.4142 5.75001 21.75 5.41422 21.75 5.00001C21.75 4.5858 21.4142 4.25001 21 4.25001H18.3107L14.5304 0.46967ZM3.84743 8.33246C3.55304 7.34006 3.30126 6.491 3.09786 5.75001H18.9021C18.6987 6.491 18.447 7.34006 18.1526 8.33247L17.17 11.6446C16.7134 13.1837 16.5216 13.8052 16.2126 14.2888C15.6559 15.1598 14.8007 15.7981 13.8073 16.0841C13.2558 16.2429 12.6055 16.25 11 16.25C9.39454 16.25 8.74417 16.2429 8.1927 16.0841C7.19926 15.7981 6.34412 15.1598 5.7874 14.2888C5.47836 13.8052 5.28656 13.1837 4.82997 11.6446L3.84743 8.33246Z"/>
</symbol><symbol id="icon-document" viewBox="0 0 26 28">
<path d="M7.0625 11.5C7.0625 10.9822 7.48223 10.5625 8 10.5625H11.75C12.2678 10.5625 12.6875 10.9822 12.6875 11.5C12.6875 12.0178 12.2678 12.4375 11.75 12.4375H8C7.48223 12.4375 7.0625 12.0178 7.0625 11.5Z"/>
<path d="M7.0625 16.5C7.0625 15.9822 7.48223 15.5625 8 15.5625H18C18.5178 15.5625 18.9375 15.9822 18.9375 16.5C18.9375 17.0178 18.5178 17.4375 18 17.4375H8C7.48223 17.4375 7.0625 17.0178 7.0625 16.5Z"/>
<path d="M7.0625 21.5C7.0625 20.9822 7.48223 20.5625 8 20.5625H11.75C12.2678 20.5625 12.6875 20.9822 12.6875 21.5C12.6875 22.0178 12.2678 22.4375 11.75 22.4375H8C7.48223 22.4375 7.0625 22.0178 7.0625 21.5Z"/>
<path fill-rule="evenodd" clip-rule="evenodd" d="M18.0405 0.667156C19.3838 0.772715 20.5061 0.989657 21.4727 1.4771C21.7365 1.61011 21.9865 1.76209 22.2247 1.93519C22.8349 2.37851 23.3715 2.91511 23.8148 3.52529C24.5471 4.5332 24.875 5.71367 25.0328 7.17059C25.1875 8.59826 25.1875 10.3978 25.1875 12.6934V15.3066C25.1875 17.6022 25.1875 19.4017 25.0328 20.8294C24.875 22.2863 24.5471 23.4668 23.8148 24.4747C23.3715 25.0849 22.8349 25.6215 22.2247 26.0648C21.2168 26.7971 20.0363 27.125 18.5794 27.2828C17.1517 27.4375 15.3522 27.4375 13.0566 27.4375H12.9434C10.6478 27.4375 8.84826 27.4375 7.4206 27.2828C5.96367 27.125 4.7832 26.7971 3.77529 26.0648C3.16511 25.6215 2.62851 25.0849 2.18519 24.4747C1.4529 23.4668 1.12501 22.2863 0.96716 20.8294C0.812482 19.4017 0.81249 17.6022 0.8125 15.3066V12.6934C0.81249 10.3978 0.812482 8.59826 0.96716 7.17059C1.12501 5.71367 1.45291 4.5332 2.18519 3.52529C2.62851 2.91511 3.16511 2.37851 3.77529 1.93519C4.23487 1.60129 4.73374 1.34904 5.28449 1.15901C6.19541 0.8447 7.24589 0.70209 8.48105 0.632154C9.71126 0.562497 11.1906 0.562498 12.9745 0.5625H13.0381C15.0693 0.562496 16.7087 0.562493 18.0405 0.667156ZM17.8936 2.53639C16.6436 2.43816 15.0772 2.4375 13 2.4375C11.1856 2.4375 9.75835 2.43783 8.58704 2.50416C8.1789 2.52726 7.80987 2.55809 7.47396 2.5982C8.51365 3.62564 9.34897 4.41821 10.0946 5.01502C11.0977 5.81781 11.8557 6.19651 12.6239 6.31818C13.1745 6.40539 13.7354 6.40539 14.286 6.31818C15.0327 6.19991 15.7701 5.83868 16.732 5.08112C17.4667 4.50252 18.2886 3.72905 19.3115 2.72104C18.9045 2.63948 18.4378 2.57916 17.8936 2.53639ZM21.1886 3.50081C19.9033 4.78006 18.8461 5.80288 17.8921 6.55417C16.7974 7.41627 15.7645 7.98238 14.5793 8.17009C13.8344 8.28808 13.0755 8.28808 12.3306 8.17009C11.1113 7.97698 10.053 7.38332 8.92302 6.47889C7.91119 5.66906 6.77608 4.55449 5.37101 3.15154C5.1945 3.24058 5.03124 3.34032 4.87739 3.4521C4.42639 3.77977 4.02977 4.17639 3.7021 4.62739C3.24074 5.2624 2.97181 6.07517 2.83125 7.37256C2.68879 8.68749 2.6875 10.3855 2.6875 12.75V15.25C2.6875 17.6145 2.68879 19.3125 2.83125 20.6274C2.97181 21.9248 3.24074 22.7376 3.7021 23.3726C4.02977 23.8236 4.42639 24.2202 4.87739 24.5479C5.5124 25.0093 6.32517 25.2782 7.62256 25.4188C8.93749 25.5612 10.6355 25.5625 13 25.5625C15.3645 25.5625 17.0625 25.5612 18.3774 25.4188C19.6748 25.2782 20.4876 25.0093 21.1226 24.5479C21.5736 24.2202 21.9702 23.8236 22.2979 23.3726C22.7593 22.7376 23.0282 21.9248 23.1688 20.6274C23.3112 19.3125 23.3125 17.6145 23.3125 15.25V12.75C23.3125 10.3855 23.3112 8.68749 23.1688 7.37256C23.0282 6.07517 22.7593 5.2624 22.2979 4.62739C21.9863 4.19851 21.6124 3.81881 21.1886 3.50081Z"/>
</symbol><symbol id="icon-dollar" viewBox="0 0 26 26">
<path fill-rule="evenodd" clip-rule="evenodd" d="M13.9375 4.25C13.9375 3.73223 13.5178 3.3125 13 3.3125C12.4822 3.3125 12.0625 3.73223 12.0625 4.25V4.63509C11.654 4.73756 11.2532 4.89766 10.8716 5.11799C7.46927 7.08233 7.90171 12.1236 11.5889 13.4798L12.0626 13.6541L12.0625 19.5243C11.3939 19.3357 10.7965 18.8963 10.4225 18.2484L9.95304 17.4353C9.69415 16.9869 9.12079 16.8333 8.67239 17.0922C8.22399 17.3511 8.07035 17.9244 8.32924 18.3728L8.79869 19.1859C9.52178 20.4384 10.7408 21.2245 12.0625 21.4419L12.0625 21.75C12.0625 22.2678 12.4822 22.6875 13 22.6875C13.5178 22.6875 13.9375 22.2678 13.9375 21.75L13.9375 21.3649C14.346 21.2625 14.7469 21.1024 15.1285 20.882C18.5309 18.9177 18.0984 13.8764 14.4113 12.5202L13.9376 12.3459L13.9375 6.47566C14.6062 6.66422 15.2036 7.10372 15.5776 7.75156L16.0471 8.56468C16.306 9.01308 16.8793 9.16672 17.3277 8.90783C17.7761 8.64895 17.9298 8.07558 17.6709 7.62718L17.2014 6.81406C16.4783 5.5616 15.2592 4.77542 13.9375 4.55813V4.25ZM11.8091 6.74179C11.8923 6.69374 11.9769 6.65055 12.0625 6.61211L12.0626 11.65C10.0287 10.7519 9.83818 7.8797 11.8091 6.74179ZM13.9375 19.3879L13.9376 14.35C15.9714 15.2481 16.162 18.1203 14.191 19.2582C14.1078 19.3063 14.0232 19.3495 13.9375 19.3879Z"/>
<path fill-rule="evenodd" clip-rule="evenodd" d="M18.5794 0.96716C17.1517 0.812482 15.3522 0.81249 13.0566 0.8125H12.9434C10.6478 0.81249 8.84827 0.812482 7.4206 0.96716C5.96367 1.12501 4.7832 1.45291 3.77529 2.18519C3.16511 2.62851 2.62851 3.16511 2.18519 3.77529C1.45291 4.7832 1.12501 5.96367 0.96716 7.4206C0.812482 8.84826 0.81249 10.6478 0.8125 12.9434V13.0566C0.81249 15.3522 0.812482 17.1517 0.96716 18.5794C1.12501 20.0363 1.45291 21.2168 2.18519 22.2247C2.62851 22.8349 3.16511 23.3715 3.77529 23.8148C4.7832 24.5471 5.96367 24.875 7.4206 25.0328C8.84824 25.1875 10.6477 25.1875 12.9433 25.1875H13.0566C15.3522 25.1875 17.1518 25.1875 18.5794 25.0328C20.0363 24.875 21.2168 24.5471 22.2247 23.8148C22.8349 23.3715 23.3715 22.8349 23.8148 22.2247C24.5471 21.2168 24.875 20.0363 25.0328 18.5794C25.1875 17.1518 25.1875 15.3523 25.1875 13.0567V12.9434C25.1875 10.6478 25.1875 8.84824 25.0328 7.4206C24.875 5.96367 24.5471 4.7832 23.8148 3.77529C23.3715 3.16511 22.8349 2.62851 22.2247 2.18519C21.2168 1.45291 20.0363 1.12501 18.5794 0.96716ZM4.87739 3.7021C5.5124 3.24074 6.32517 2.97181 7.62256 2.83125C8.93749 2.68879 10.6355 2.6875 13 2.6875C15.3645 2.6875 17.0625 2.68879 18.3774 2.83125C19.6748 2.97181 20.4876 3.24074 21.1226 3.7021C21.5736 4.02977 21.9702 4.42639 22.2979 4.87739C22.7593 5.5124 23.0282 6.32517 23.1688 7.62256C23.3112 8.93749 23.3125 10.6355 23.3125 13C23.3125 15.3645 23.3112 17.0625 23.1688 18.3774C23.0282 19.6748 22.7593 20.4876 22.2979 21.1226C21.9702 21.5736 21.5736 21.9702 21.1226 22.2979C20.4876 22.7593 19.6748 23.0282 18.3774 23.1688C17.0625 23.3112 15.3645 23.3125 13 23.3125C10.6355 23.3125 8.93749 23.3112 7.62256 23.1688C6.32517 23.0282 5.5124 22.7593 4.87739 22.2979C4.42639 21.9702 4.02977 21.5736 3.7021 21.1226C3.24074 20.4876 2.97181 19.6748 2.83125 18.3774C2.68879 17.0625 2.6875 15.3645 2.6875 13C2.6875 10.6355 2.68879 8.93749 2.83125 7.62256C2.97181 6.32517 3.24074 5.5124 3.7021 4.87739C4.02977 4.42639 4.42639 4.02977 4.87739 3.7021Z"/>
</symbol><symbol id="icon-home" viewBox="0 0 30 30">
<path d="M15.9364 22.2746C15.9364 21.7568 15.5167 21.3371 14.9989 21.3371C14.4811 21.3371 14.0614 21.7568 14.0614 22.2746V24.7746C14.0614 25.2923 14.4811 25.7121 14.9989 25.7121C15.5167 25.7121 15.9364 25.2923 15.9364 24.7746V22.2746Z"/>
<path fill-rule="evenodd" clip-rule="evenodd" d="M15.2624 1.56733C15.0868 1.56089 14.911 1.56089 14.7354 1.56733C13.5762 1.60986 12.5324 2.00404 11.3878 2.66022C10.2725 3.29967 8.98846 4.2326 7.35923 5.41631L7.27067 5.48066C5.64142 6.66436 4.35735 7.59728 3.40453 8.46043C2.4268 9.34616 1.72934 10.2171 1.33068 11.3064C1.27029 11.4715 1.21597 11.6386 1.16783 11.8076C0.850055 12.9233 0.902383 14.0378 1.17277 15.3291C1.43627 16.5874 1.92674 18.0969 2.54907 20.0122L2.5829 20.1163C3.20519 22.0316 3.69566 23.5411 4.22212 24.714C4.76236 25.9176 5.37515 26.8501 6.28798 27.5659C6.42627 27.6743 6.56848 27.7776 6.71433 27.8756C7.63271 28.4927 8.65431 28.7894 9.88617 28.9386C11.1966 29.0974 12.835 29.0973 14.9362 29.0973H15.0616C17.1628 29.0973 18.8012 29.0974 20.1117 28.9386C21.3435 28.7894 22.3651 28.4927 23.2835 27.8756C23.4293 27.7776 23.5716 27.6743 23.7098 27.5659C24.6227 26.8501 25.2355 25.9176 25.7757 24.714C26.3022 23.5411 26.7926 22.0316 27.4149 20.1163L27.4488 20.0122C28.0711 18.097 28.5616 16.5874 28.825 15.3291C29.0954 14.0378 29.1478 12.9233 28.83 11.8076C28.7819 11.6386 28.7275 11.4715 28.6671 11.3064C28.2685 10.2171 27.571 9.34616 26.5933 8.46043C25.6405 7.59728 24.3564 6.66436 22.7271 5.48065L22.6386 5.41629C21.0093 4.23259 19.7253 3.29967 18.61 2.66022C17.4655 2.00404 16.4216 1.60986 15.2624 1.56733ZM14.8042 3.44107C14.9339 3.43631 15.0639 3.43631 15.1937 3.44107C15.938 3.46838 16.6793 3.71459 17.6774 4.28684C18.6946 4.87004 19.8975 5.74245 21.5808 6.9654C23.264 8.18835 24.4655 9.06282 25.3345 9.85003C26.1871 10.6225 26.6504 11.2514 26.9063 11.9508C26.951 12.0728 26.9911 12.1964 27.0267 12.3213C27.2307 13.0376 27.2257 13.8187 26.9898 14.9448C26.7495 16.0924 26.2915 17.5061 25.6486 19.4849C25.0057 21.4636 24.5453 22.8765 24.0651 23.9462C23.594 24.9959 23.139 25.6308 22.5529 26.0904C22.4507 26.1705 22.3456 26.2469 22.2377 26.3193C21.8683 26.5676 21.4539 26.7519 20.9364 26.8864V22.2746C20.9364 18.9954 18.2781 16.3371 14.9989 16.3371C11.7197 16.3371 9.06141 18.9954 9.06141 22.2746V26.8864C8.54396 26.7519 8.1295 26.5676 7.76007 26.3193C7.65227 26.2469 7.54715 26.1705 7.44495 26.0904C6.85885 25.6308 6.40385 24.9959 5.93271 23.9462C5.45256 22.8765 4.99215 21.4636 4.34921 19.4849C3.70627 17.5061 3.24828 16.0924 3.00797 14.9448C2.77216 13.8187 2.76707 13.0376 2.9711 12.3213C3.00668 12.1964 3.04683 12.0728 3.09147 11.9508C3.34744 11.2514 3.81068 10.6225 4.66336 9.85003C5.53235 9.06282 6.73379 8.18835 8.41703 6.9654C10.1003 5.74245 11.3032 4.87004 12.3204 4.28684C13.3186 3.71459 14.0599 3.46838 14.8042 3.44107ZM14.9989 18.2121C17.2426 18.2121 19.0614 20.0309 19.0614 22.2746V27.1522C18.0072 27.2214 16.703 27.2223 14.9989 27.2223C13.2948 27.2223 11.9907 27.2214 10.9364 27.1522V22.2746C10.9364 20.0309 12.7553 18.2121 14.9989 18.2121Z"/>
</symbol><symbol id="icon-message" viewBox="0 0 28 28">
<path fill-rule="evenodd" clip-rule="evenodd" d="M23.4823 9.95124C23.0636 7.75255 22.0039 5.65102 20.3048 3.94978C15.7941 -0.566594 8.48031 -0.566594 3.96962 3.94978C2.59361 5.32752 1.3784 7.36693 0.846942 9.63111C0.312266 11.909 0.460505 14.4677 1.90464 16.7945C1.97859 16.9136 2.02432 16.9874 2.05663 17.0426C2.07153 17.0681 2.07937 17.0826 2.08267 17.0889C2.08568 17.0969 2.08754 17.1024 2.08862 17.1058C2.08861 17.1099 2.08844 17.117 2.08774 17.1276C2.08685 17.1325 2.08479 17.1433 2.08059 17.1619C2.06991 17.2092 2.05364 17.2725 2.0247 17.3843L2.0163 17.4167C1.85044 18.0574 1.71412 18.584 1.63399 19.0095C1.55333 19.4378 1.50666 19.87 1.59246 20.2922C1.83711 21.4958 2.77689 22.4375 3.98059 22.6827C4.40285 22.7688 4.83514 22.722 5.26301 22.6412C5.68807 22.5609 6.2141 22.4244 6.85393 22.2583L6.88638 22.2499C6.99801 22.2209 7.06119 22.2047 7.10841 22.194C7.12679 22.1898 7.13752 22.1877 7.14248 22.1868C7.15227 22.1862 7.15897 22.186 7.16315 22.1859C7.16659 22.187 7.17181 22.1888 7.17909 22.1916C7.18541 22.1949 7.20006 22.2028 7.22574 22.2178C7.28137 22.2502 7.35579 22.2962 7.47557 22.3703C8.25047 22.8498 9.05698 23.1849 9.87399 23.3971C10.1771 23.8193 10.5179 24.2222 10.8963 24.6011C12.0112 25.7173 13.714 26.7304 15.6107 27.1847C17.5206 27.6422 19.6966 27.5463 21.6656 26.328C21.7611 26.2689 21.8195 26.2329 21.8625 26.2076C21.8968 26.2158 21.944 26.228 22.0223 26.2483L22.0538 26.2565C22.5766 26.3922 23.0144 26.5058 23.37 26.5729C23.7284 26.6406 24.11 26.6841 24.4898 26.6067C25.5463 26.3915 26.371 25.5651 26.5856 24.5089C26.6628 24.1292 26.6194 23.7476 26.5519 23.3889C26.4849 23.033 26.3714 22.5947 26.2359 22.0713L26.2277 22.0397C26.2072 21.9605 26.195 21.9131 26.1868 21.8786C26.212 21.8359 26.2478 21.778 26.307 21.6827C27.5241 19.7217 27.6467 17.5676 27.1985 15.6584C26.7536 13.7629 25.7371 12.0562 24.5829 10.9006C24.2351 10.5523 23.867 10.2358 23.4823 9.95124ZM18.9781 5.27477C15.1998 1.49174 9.07455 1.49174 5.29628 5.27477C4.15881 6.41368 3.12163 8.1454 2.67233 10.0596C2.22625 11.96 2.36887 13.9869 3.49773 15.8057C3.50842 15.8229 3.51925 15.8403 3.53016 15.8578C3.63778 16.0305 3.75369 16.2166 3.8209 16.3856C3.94011 16.6853 3.98139 16.9565 3.95674 17.2781C3.9429 17.4588 3.89432 17.6452 3.85166 17.8088C3.84767 17.8241 3.84373 17.8392 3.83987 17.8541C3.66354 18.5353 3.54364 19.0005 3.47659 19.3565C3.40873 19.7168 3.41783 19.8594 3.42989 19.9187C3.52491 20.3862 3.88957 20.7507 4.35496 20.8455C4.41353 20.8574 4.55537 20.8667 4.91513 20.7987C5.27054 20.7316 5.73505 20.6116 6.41538 20.435C6.43028 20.4312 6.4454 20.4272 6.46072 20.4232C6.624 20.3805 6.81013 20.3319 6.99038 20.3179C7.31169 20.2931 7.58119 20.3339 7.88073 20.4526C8.04929 20.5195 8.23598 20.6354 8.40957 20.7432C8.42725 20.7542 8.44478 20.7651 8.46215 20.7758C8.49632 20.797 8.53055 20.8178 8.56486 20.8382C7.43455 17.4633 8.21103 13.5892 10.8963 10.9006C13.6792 8.11412 17.7345 7.37985 21.1887 8.69645C20.7183 7.44912 19.9816 6.27957 18.9781 5.27477ZM22.0992 11.269C19.0653 9.21728 14.9083 9.53687 12.223 12.2255C9.55976 14.8921 9.22309 19.0091 11.2167 22.0411C11.5034 22.4771 11.8387 22.8913 12.223 23.2761C13.0935 24.1477 14.4885 24.9879 16.0475 25.3613C17.5933 25.7315 19.231 25.6295 20.6791 24.7335C20.6934 24.7246 20.7082 24.7155 20.7233 24.7061C20.8627 24.6194 21.0303 24.5152 21.184 24.4543C21.454 24.3472 21.7012 24.3098 21.9909 24.3322C22.1552 24.3449 22.3235 24.389 22.455 24.4234C22.4681 24.4269 22.4809 24.4302 22.4932 24.4334C23.0558 24.5794 23.432 24.6765 23.7179 24.7305C24.0081 24.7853 24.0993 24.7728 24.1155 24.7695C24.4336 24.7047 24.6831 24.4555 24.7482 24.1354C24.7516 24.1186 24.764 24.0267 24.7093 23.736C24.6553 23.4496 24.5583 23.0728 24.4125 22.5096C24.4093 22.4972 24.406 22.4845 24.4026 22.4713C24.3681 22.3395 24.3241 22.171 24.3115 22.0064C24.2893 21.7164 24.3271 21.4678 24.4346 21.1975C24.4959 21.0435 24.6 20.8765 24.6866 20.7377C24.6959 20.7228 24.705 20.7082 24.7139 20.6939C25.6157 19.2409 25.7327 17.6187 25.3731 16.0869C25.0104 14.5414 24.1719 13.1424 23.2562 12.2255C22.8944 11.8633 22.5066 11.5446 22.0992 11.269Z"/>
<path d="M15.2498 17.75C15.2498 18.4404 14.6902 19 13.9998 19C13.3095 19 12.7498 18.4404 12.7498 17.75C12.7498 17.0596 13.3095 16.5 13.9998 16.5C14.6902 16.5 15.2498 17.0596 15.2498 17.75Z"/>
<path d="M18.9998 17.75C18.9998 18.4404 18.4402 19 17.7498 19C17.0595 19 16.4998 18.4404 16.4998 17.75C16.4998 17.0596 17.0595 16.5 17.7498 16.5C18.4402 16.5 18.9998 17.0596 18.9998 17.75Z"/>
<path d="M22.7498 17.75C22.7498 18.4404 22.1902 19 21.4998 19C20.8095 19 20.2498 18.4404 20.2498 17.75C20.2498 17.0596 20.8095 16.5 21.4998 16.5C22.1902 16.5 22.7498 17.0596 22.7498 17.75Z"/>
</symbol><symbol id="icon-pen" viewBox="0 0 26 26">
<path d="M13.5273 10.4999C14.3633 11.3359 14.3633 12.6913 13.5273 13.5273C12.6913 14.3633 11.336 14.3633 10.5 13.5273C9.66399 12.6913 9.66399 11.3359 10.5 10.4999C11.336 9.66395 12.6913 9.66395 13.5273 10.4999Z"/>
<path fill-rule="evenodd" clip-rule="evenodd" d="M13.6141 0.601395C12.6843 0.427648 11.6871 0.504301 10.063 0.629134L9.71724 0.655656C7.57492 0.819692 6.26345 0.92011 5.16938 1.38815C3.46956 2.11533 2.11533 3.46956 1.38815 5.16938C0.92011 6.26345 0.819693 7.57492 0.655656 9.71724L0.629135 10.063C0.504302 11.6871 0.427648 12.6843 0.601395 13.6141C0.871044 15.0571 1.57607 16.3829 2.62166 17.4133C3.29538 18.0772 4.16504 18.5712 5.58133 19.3758L8.17068 20.8472C9.41561 21.5548 10.178 21.9881 10.9514 22.2216C11.7954 22.4765 12.6687 22.571 13.5288 22.511L15.0469 24.0291C17.5272 26.5094 21.5486 26.5094 24.029 24.0291C26.5093 21.5487 26.5093 17.5273 24.029 15.0469L22.511 13.5289C22.571 12.6688 22.4765 11.7954 22.2216 10.9514C21.9881 10.178 21.5548 9.41561 20.8472 8.17068L19.3758 5.58132C18.5712 4.16504 18.0772 3.29537 17.4133 2.62166C16.3829 1.57607 15.0571 0.871044 13.6141 0.601395ZM10.06 2.50989C11.8772 2.37045 12.6124 2.32167 13.2697 2.44449C14.3362 2.6438 15.3162 3.1649 16.0778 3.93773C16.5471 4.41398 16.9177 5.05084 17.8182 6.63542L19.152 8.98273C19.9449 10.378 20.2618 10.9471 20.4267 11.4933C20.6498 12.2325 20.7067 13.0019 20.6043 13.7497C20.5027 14.4912 20.2446 15.2112 19.8367 15.8591C19.5327 16.342 19.0762 16.8066 17.9414 17.9414C16.8066 19.0762 16.342 19.5327 15.8591 19.8367C15.2112 20.2446 14.4911 20.5027 13.7496 20.6043C13.0018 20.7067 12.2325 20.6498 11.4933 20.4267C10.9471 20.2618 10.378 19.9449 8.98272 19.152L6.63542 17.8182C5.05084 16.9177 4.41398 16.5471 3.93773 16.0778C3.1649 15.3162 2.6438 14.3362 2.44449 13.2697C2.32167 12.6124 2.37045 11.8772 2.50989 10.06C2.69451 7.65404 2.78168 6.67908 3.11203 5.90685C3.25512 5.57237 3.43106 5.256 3.63592 4.96165L9.83707 11.1628C10.2032 11.5289 10.7968 11.5289 11.1629 11.1628C11.529 10.7967 11.529 10.2031 11.1629 9.83697L4.96176 3.63584C5.25608 3.43101 5.57242 3.2551 5.90685 3.11203C6.67908 2.78168 7.65404 2.69451 10.06 2.50989ZM16.3727 22.7032L15.6879 22.0185C16.0922 21.8575 16.484 21.6589 16.8581 21.4234C17.5418 20.993 18.1618 20.3728 19.1743 19.3601L19.3601 19.1743C20.3728 18.1618 20.993 17.5418 21.4234 16.8581C21.6589 16.4841 21.8575 16.0923 22.0184 15.688L22.7032 16.3727C24.4513 18.1209 24.4513 20.9551 22.7032 22.7032C20.9551 24.4513 18.1208 24.4513 16.3727 22.7032Z"/>
</symbol><symbol id="icon-shield" viewBox="0 0 26 28">
<path d="M13.9367 10.25C13.9367 9.73223 13.517 9.3125 12.9992 9.3125C12.4814 9.3125 12.0617 9.73223 12.0617 10.25V13.0625H9.24921C8.73145 13.0625 8.31171 13.4822 8.31171 14C8.31171 14.5178 8.73145 14.9375 9.24921 14.9375H12.0617V17.75C12.0617 18.2678 12.4814 18.6875 12.9992 18.6875C13.517 18.6875 13.9367 18.2678 13.9367 17.75V14.9375H16.7492C17.267 14.9375 17.6867 14.5178 17.6867 14C17.6867 13.4822 17.267 13.0625 16.7492 13.0625H13.9367V10.25Z"/>
<path fill-rule="evenodd" clip-rule="evenodd" d="M9.95281 0.5625C8.02557 0.5625 6.46323 2.12484 6.46323 4.05208C6.46323 4.94379 5.74036 5.66667 4.84865 5.66667H4.46257C2.4925 5.66667 0.737601 7.19091 0.844486 9.3081C0.97139 11.8219 1.52971 15.7398 3.56615 19.451C4.13651 20.4904 4.89825 21.5115 5.72171 22.4629L5.7837 22.5345C6.96829 23.9033 7.95598 25.0445 9.01782 25.8224C10.1599 26.6591 11.3789 27.0759 12.9993 27.0759C14.6196 27.0759 15.8386 26.6591 16.9807 25.8224C18.0426 25.0445 19.0303 23.9033 20.2149 22.5345L20.2768 22.4629C21.1003 21.5115 21.862 20.4904 22.4324 19.451C24.5366 15.6164 25.0612 11.2833 25.1647 8.58201C25.2454 6.47499 23.5031 4.9375 21.522 4.9375H20.7853C20.095 4.9375 19.5353 4.37786 19.5353 3.6875C19.5353 1.96161 18.1362 0.5625 16.4103 0.5625H9.95281ZM8.33823 4.05208C8.33823 3.16037 9.0611 2.4375 9.95281 2.4375H16.4103C17.1007 2.4375 17.6603 2.99714 17.6603 3.6875C17.6603 5.41339 19.0594 6.8125 20.7853 6.8125H21.522C22.5691 6.8125 23.3263 7.59138 23.2911 8.51023C23.1922 11.0912 22.689 15.0858 20.7886 18.549C20.3024 19.435 19.6292 20.3461 18.8591 21.2358C17.5965 22.6946 16.7439 23.6716 15.8726 24.3099C15.0632 24.9029 14.2353 25.2009 12.9993 25.2009C11.7633 25.2009 10.9353 24.9029 10.1259 24.3099C9.25467 23.6716 8.40207 22.6946 7.13942 21.2358C6.36932 20.3461 5.69611 19.435 5.20994 18.549C3.36182 15.181 2.83641 11.577 2.7171 9.21357C2.67171 8.31436 3.4124 7.54167 4.46257 7.54167H4.84865C6.77589 7.54167 8.33823 5.97933 8.33823 4.05208Z"/>
</symbol></svg>