<svg width="400" height="661" viewBox="0 0 400 661" fill="none" xmlns="http://www.w3.org/2000/svg">
<path fill-rule="evenodd" clip-rule="evenodd" d="M189.853 291.086C186.565 283.279 184.871 274.893 184.871 266.421C184.871 257.949 186.565 249.562 189.853 241.755C189.834 241.599 189.834 241.441 189.853 241.284C198.913 218.246 203.423 193.669 203.131 168.913C202.784 149.991 204.937 131.107 209.535 112.75C212.168 101.531 216.52 90.7867 222.437 80.8992C224.778 77.1694 227.56 73.7364 230.724 70.6749C236.424 64.8039 243.391 60.3154 251.091 57.5529C258.791 54.7903 267.021 53.8269 275.15 54.7363C283.28 55.6457 291.093 58.4039 297.994 62.7997C304.894 67.1956 310.698 73.1126 314.962 80.0982C320.746 90.0762 324.969 100.881 327.487 112.137C332.361 133.364 334.106 155.191 332.666 176.923C331.455 199.146 335.387 221.349 344.156 241.802C344.579 242.839 345.05 243.923 345.427 245.053C348.584 252.905 350.144 261.309 350.015 269.771C349.885 278.234 348.07 286.586 344.673 294.337C341.707 300.133 337.563 305.221 334.314 310.97C330.551 316.534 328.535 323.097 328.523 329.816C328.852 336.601 333.231 343.48 339.259 344.328C335.997 345.422 332.491 345.56 329.154 344.725C325.816 343.89 322.787 342.118 320.424 339.617C318.697 345.753 316.33 351.691 313.361 357.332L314.444 358.18H312.984C303.824 375.777 288.847 389.649 270.606 397.429C276.253 389.578 279.075 380.045 278.611 370.384C274.673 368.926 271.047 366.736 267.922 363.929C264.298 367.649 259.868 370.486 254.974 372.221C255.119 380.673 257.81 388.884 262.696 395.78C245.803 388.294 231.803 375.51 222.814 359.358H219.423C220.27 358.788 221.087 358.174 221.872 357.521C218.358 351.078 215.608 344.247 213.679 337.166C211.266 339.59 208.215 341.279 204.882 342.038C201.548 342.797 198.068 342.594 194.844 341.454C200.918 340.653 205.344 333.868 205.815 327.319C205.84 320.629 203.908 314.078 200.259 308.472C196.775 302.253 192.725 297.07 189.853 291.086Z" fill="#35375B"/>
<path fill-rule="evenodd" clip-rule="evenodd" d="M133.774 255.372C132.334 256.116 130.838 256.746 129.3 257.257C126.349 258.581 123.069 258.992 119.883 258.435C117.587 257.523 115.571 256.026 114.034 254.091C112.497 252.157 111.494 249.853 111.125 247.409C110.325 243.734 112.773 186.158 113.008 175.886C114.609 170.892 139.094 157.841 145.263 161.139C147.193 199.256 153.032 204.015 153.315 212.543C153.597 220.082 143.897 225.5 143.238 232.945C142.861 239.117 143.473 245.902 139.283 251.132C137.765 252.917 135.887 254.362 133.774 255.372Z" fill="#FFA17A"/>
<path fill-rule="evenodd" clip-rule="evenodd" d="M330.689 628.583C331.239 629.315 331.625 630.158 331.819 631.053C332.014 631.949 332.012 632.876 331.816 633.77C331.619 634.665 331.231 635.507 330.679 636.238C330.127 636.969 329.424 637.572 328.618 638.006C325.342 639.559 321.625 639.909 318.117 638.996L330.689 628.583Z" fill="black"/>
<path fill-rule="evenodd" clip-rule="evenodd" d="M239.484 778.508L164.805 771.912C169.984 712.686 174.74 674.569 180.296 638.901C172.715 638.383 167.394 637.959 166.782 637.818C166.782 634.802 166.782 631.74 166.782 628.677C166.782 595.695 168.007 562.714 170.832 529.732C173.892 493.452 177.377 457.078 183.31 421.364C186.088 404.308 191.927 385.273 193.386 366.85C194.52 365.005 196.008 363.403 197.765 362.138C202.324 359.507 207.526 358.201 212.786 358.369C237.648 356.861 262.603 356.296 287.512 356.626C295.084 356.27 302.655 357.341 309.831 359.783C328.666 367.557 337.565 386.733 342.792 403.884C349.996 428.573 351.597 463.957 356.306 489.212C357.2 503.63 357.812 518.047 358.377 532.418C358.707 541.134 360.59 594.518 360.214 638.336C352.531 639.886 344.764 640.988 336.953 641.634C336.953 676.359 346.841 721.355 346.653 772.006L273.245 778.602C271.409 700.389 270.137 682.013 261.52 527.518C258.978 580.053 245.699 731.109 239.484 778.508Z" fill="#35375B"/>
<path fill-rule="evenodd" clip-rule="evenodd" d="M198.331 233.18C198.331 231.672 198.331 230.165 198.331 228.469C197.954 183.99 250.785 183.896 286.336 192.189C320.521 200.151 319.296 252.875 324.005 282.841C325.37 292.264 333.94 396.863 332.01 396.722C286.61 392.708 241.027 391.135 195.459 392.01C193.057 338.816 198.425 285.998 198.331 233.18Z" fill="white"/>
<path fill-rule="evenodd" clip-rule="evenodd" d="M134.243 266.068C133.89 266.485 133.449 266.82 132.953 267.049C132.457 267.279 131.917 267.398 131.371 267.398C130.824 267.398 130.284 267.279 129.788 267.049C129.292 266.82 128.852 266.485 128.499 266.068C127.205 264.242 126.559 262.036 126.662 259.801C126.549 259.976 126.488 260.181 126.488 260.39C126.488 260.599 126.549 260.804 126.662 260.979L134.243 266.068Z" fill="black"/>
<path fill-rule="evenodd" clip-rule="evenodd" d="M357.387 401.528C357.763 408.03 363.508 449.917 363.979 456.372C364.45 462.827 366.522 491.097 367.322 502.876C367.887 512.299 373.349 623.965 373.914 662.554L367.087 665.192C358.631 667.681 349.96 669.369 341.189 670.234C334.926 670.894 328.664 671.271 322.354 671.553C314.444 629.148 302.013 428.62 301.919 424.285C301.354 407.229 301.354 390.22 300.742 373.164C299.957 341.753 299.188 310.216 298.434 278.553C298.058 264.418 297.964 249.859 297.399 235.489C296.268 209.056 296.268 215.276 287.369 189.786L286.945 188.702C296.822 190.502 306.515 193.199 315.904 196.759C327.505 201.169 337.75 208.544 345.615 218.15C362.641 238.956 375.279 262.998 382.766 288.825C388.897 309.191 393.617 329.956 396.892 350.972C403.014 401.198 357.34 400.868 357.387 401.528Z" fill="#F4F1F1"/>
<path fill-rule="evenodd" clip-rule="evenodd" d="M112.539 220.836C116.333 216.716 120.751 213.218 125.629 210.47C136.035 203.214 145.5 194.733 156.282 187.995L159.061 223.945C158.684 221.448 180.815 199.256 182.981 197.89C192.745 191.079 204.095 186.893 215.941 185.734C231.213 184.768 246.531 184.768 261.803 185.734C254.929 189.456 244.052 196.523 241.697 203.968C239.456 212.342 238.331 220.977 238.354 229.646C237.836 246.231 237.271 262.864 236.753 279.496C235.686 312.697 234.744 345.93 233.928 379.195C233.206 411.14 232.782 443.053 232.657 474.936C232.657 477.15 228.372 634.048 227.242 676.924C209.036 675.987 191.034 672.644 173.704 666.983C170.032 665.522 166.406 664.014 162.78 662.271C163.251 650.633 163.769 639.043 164.287 627.405C166.924 567.724 169.639 507.917 172.433 447.985C173.814 417.83 175.243 387.707 176.718 357.615C177.283 345.428 177.879 333.224 178.507 321.006C178.507 316.718 178.178 279.826 180.72 280.721C176.859 279.307 173.045 282.558 170.126 285.433C158.789 296.606 145.933 306.123 131.939 313.702C130.416 314.514 128.732 314.977 127.008 315.056C125.285 315.136 123.565 314.831 121.974 314.164C120.383 313.496 118.96 312.483 117.808 311.197C116.657 309.911 115.806 308.385 115.317 306.729C108.534 283.665 106.264 259.508 108.631 235.583C108.669 230.416 110.014 225.343 112.539 220.836Z" fill="#F4F1F1"/>
<path fill-rule="evenodd" clip-rule="evenodd" d="M163.723 218.574C153.137 227.9 145.045 239.723 140.18 252.969L142.487 253.817C147.228 240.991 155.036 229.521 165.23 220.412L163.723 218.574Z" fill="#35375B"/>
<path fill-rule="evenodd" clip-rule="evenodd" d="M368.501 451.519C364.687 422.73 361.156 398.041 357.2 373.352C353.245 348.663 348.96 324.068 343.734 295.562L341.285 295.987C346.653 324.539 350.985 349.134 354.94 373.729C358.896 398.324 362.427 423.06 366.194 451.848L368.501 451.519Z" fill="#35375B"/>
<path fill-rule="evenodd" clip-rule="evenodd" d="M206.004 376.273C202.946 386.862 196.514 396.16 187.688 402.753L202.473 422.542C215.714 412.709 225.346 398.782 229.877 382.917L206.004 376.273Z" fill="#35375B"/>
<path fill-rule="evenodd" clip-rule="evenodd" d="M354.093 394.178C344.064 389.233 335.975 381.073 331.115 370.996L308.938 381.645C312.473 389.145 317.249 395.995 323.063 401.905C328.912 407.782 335.689 412.653 343.122 416.322L354.093 394.178Z" fill="#35375B"/>
<path fill-rule="evenodd" clip-rule="evenodd" d="M261.33 185.875C242.967 187.289 232.184 192.895 226.062 201.895C219.941 210.894 218.199 223.71 218.246 239.211H214.762C214.762 223.05 216.457 209.716 223.143 199.916C229.829 190.116 241.507 183.849 261.095 182.341L261.33 185.875Z" fill="#FC4C00"/>
<path fill-rule="evenodd" clip-rule="evenodd" d="M216.598 240.766C220.673 239.81 224.953 240.31 228.699 242.179C232.87 244.148 236.444 247.189 239.058 250.99C241.384 254.473 243.178 258.285 244.379 262.298C245.603 266.209 246.451 270.261 247.298 274.266L249.182 283.359C250.246 288.008 250.939 292.735 251.253 297.494C251.549 302.346 250.66 307.198 248.664 311.629C246.783 315.493 243.865 318.756 240.235 321.053C236.612 323.359 232.427 324.63 228.134 324.728V321.194C231.762 321.124 235.299 320.048 238.352 318.084C241.436 316.14 243.928 313.385 245.556 310.122C247.331 306.162 248.092 301.822 247.769 297.494C247.483 292.878 246.822 288.292 245.791 283.783L243.908 274.69C243.107 270.826 242.26 266.868 241.083 263.052C240.024 259.387 238.438 255.895 236.374 252.686C234.103 249.422 231.019 246.807 227.428 245.101C224.384 243.578 220.91 243.146 217.586 243.876L216.598 240.766Z" fill="#FC4C00"/>
<path fill-rule="evenodd" clip-rule="evenodd" d="M221.967 325.105C221.688 324.199 221.688 323.23 221.967 322.325C222.088 321.729 222.364 321.177 222.768 320.723C223.227 320.38 223.759 320.147 224.322 320.041C224.885 319.935 225.464 319.959 226.017 320.11C227.382 320.393 230.49 320.958 230.725 322.749C230.961 324.539 228.607 326.094 227.524 326.66C226.577 327.174 225.468 327.299 224.431 327.009C223.393 326.718 222.51 326.036 221.967 325.105Z" fill="white"/>
<path fill-rule="evenodd" clip-rule="evenodd" d="M220.741 325.529C220.49 324.98 220.346 324.388 220.317 323.785C220.222 323.161 220.222 322.525 220.317 321.901C220.4 321.511 220.527 321.132 220.694 320.77C220.89 320.347 221.161 319.964 221.494 319.639C222.094 319.054 222.874 318.689 223.708 318.603C224.426 318.508 225.155 318.508 225.874 318.603C226.92 318.779 227.946 319.063 228.934 319.451C229.615 319.643 230.228 320.024 230.702 320.549C231.177 321.074 231.494 321.722 231.618 322.419C231.648 323.392 231.331 324.344 230.723 325.105C229.934 326.044 228.976 326.827 227.898 327.413C226.667 328.006 225.264 328.139 223.943 327.79C223.295 327.636 222.688 327.347 222.16 326.941C221.633 326.535 221.197 326.021 220.882 325.435L220.741 325.529ZM223.095 324.257C223.411 324.736 223.901 325.074 224.461 325.199C225.143 325.46 225.898 325.46 226.58 325.199C227.324 324.8 227.98 324.255 228.51 323.597C228.792 323.33 228.988 322.986 229.075 322.608C229.075 322.608 228.557 322.089 227.992 321.854C227.179 321.569 226.345 321.348 225.497 321.194C225.059 321.149 224.617 321.149 224.178 321.194C223.909 321.23 223.651 321.326 223.425 321.477C223.32 321.584 223.24 321.712 223.19 321.854C223.163 322.057 223.163 322.263 223.19 322.466C223.148 322.826 223.148 323.19 223.19 323.55C223.137 323.782 223.106 324.019 223.095 324.257Z" fill="#FC4C00"/>
<path fill-rule="evenodd" clip-rule="evenodd" d="M216.224 243.734C213.057 244.973 210.402 247.248 208.691 250.189C206.652 253.613 205.548 257.512 205.489 261.497C205.492 265.33 206.063 269.14 207.184 272.805C208.354 276.627 209.721 280.386 211.28 284.066L214.765 292.641C216.397 296.974 218.381 301.166 220.698 305.174C222.813 309.023 225.877 312.267 229.597 314.598C232.736 316.428 236.325 317.342 239.956 317.236C243.577 317.161 247.109 316.103 250.174 314.174L252.104 317.095C248.489 319.391 244.316 320.658 240.035 320.757C235.753 320.857 231.526 319.786 227.808 317.66C223.624 315.061 220.146 311.468 217.684 307.2C215.273 303.02 213.195 298.656 211.469 294.149L208.031 285.574C206.416 281.788 205.001 277.919 203.794 273.983C202.56 269.984 201.926 265.824 201.91 261.639C201.99 257.023 203.272 252.508 205.63 248.54C207.775 244.904 211.098 242.112 215.047 240.625L216.224 243.734Z" fill="#FC4C00"/>
<path fill-rule="evenodd" clip-rule="evenodd" d="M258.978 310.97C258.24 310.118 257.221 309.56 256.106 309.395C254.992 309.231 253.856 309.472 252.903 310.075C251.383 311.404 250.409 313.251 250.172 315.257C250.139 315.331 250.121 315.412 250.121 315.493C250.121 315.574 250.139 315.655 250.172 315.729C250.277 315.848 250.405 315.945 250.549 316.011C252.508 316.74 254.664 316.74 256.623 316.011C257.252 315.775 257.84 315.441 258.366 315.022C258.835 314.588 259.172 314.031 259.339 313.414C259.505 312.797 259.494 312.146 259.307 311.535C259.225 311.332 259.114 311.141 258.978 310.97Z" fill="white"/>
<path fill-rule="evenodd" clip-rule="evenodd" d="M258.037 311.912C257.813 311.621 257.529 311.382 257.204 311.211C256.879 311.04 256.521 310.942 256.154 310.923C255.374 310.815 254.581 310.964 253.894 311.347C253.336 311.839 252.873 312.43 252.528 313.09C252.203 313.735 251.95 314.415 251.775 315.116C252.455 315.359 253.171 315.486 253.894 315.493C254.773 315.53 255.651 315.402 256.483 315.116L257.19 314.786L257.755 314.409C258.045 314.141 258.257 313.799 258.367 313.42C258.486 313.052 258.486 312.657 258.367 312.289C258.367 312.289 258.367 312.289 258.367 311.912H258.037ZM260.203 310.357L260.486 310.875C260.584 311.055 260.663 311.245 260.721 311.441C260.972 312.302 260.972 313.218 260.721 314.079C260.491 314.948 260.017 315.733 259.356 316.341C259.014 316.619 258.652 316.871 258.273 317.095C257.908 317.28 257.531 317.438 257.143 317.566C256.015 317.989 254.814 318.181 253.611 318.131C252.414 318.095 251.233 317.839 250.127 317.378L249.703 317.142C249.481 316.99 249.29 316.799 249.138 316.577C248.99 316.332 248.893 316.059 248.855 315.776V315.21C249.056 314.007 249.454 312.844 250.033 311.771C250.558 310.746 251.297 309.847 252.199 309.132C253.428 308.346 254.898 308.028 256.342 308.237C257.07 308.313 257.775 308.536 258.414 308.892C259.054 309.249 259.614 309.731 260.062 310.31L260.203 310.357Z" fill="#FC4C00"/>
<path fill-rule="evenodd" clip-rule="evenodd" d="M215.894 238.127C217.055 237.946 218.241 238.234 219.19 238.928C220.139 239.621 220.774 240.664 220.956 241.826C221.137 242.988 220.849 244.175 220.156 245.125C219.463 246.074 218.421 246.71 217.259 246.891C216.098 247.072 214.912 246.784 213.963 246.091C213.014 245.397 212.379 244.355 212.197 243.192C212.016 242.03 212.304 240.844 212.997 239.894C213.69 238.944 214.732 238.309 215.894 238.127Z" fill="white"/>
<path fill-rule="evenodd" clip-rule="evenodd" d="M283.273 184.414C298.341 188.655 306.534 192.707 311.525 200.858C316.516 209.009 317.74 220.506 319.341 240.295C320.134 252.768 319.819 265.288 318.399 277.705C317.005 290.121 313.997 302.301 309.453 313.938L306.157 312.619C310.599 301.271 313.543 289.391 314.915 277.281C316.296 265.081 316.595 252.783 315.81 240.53C314.256 221.448 312.937 210.14 308.464 202.837C303.991 195.534 296.645 191.812 282.52 187.807L283.273 184.414Z" fill="#FC4C00"/>
<path fill-rule="evenodd" clip-rule="evenodd" d="M295.141 316.294C295.141 318.558 295.812 320.772 297.069 322.655C298.326 324.538 300.113 326.005 302.204 326.872C304.295 327.738 306.595 327.965 308.815 327.523C311.034 327.081 313.073 325.991 314.673 324.39C316.274 322.788 317.363 320.748 317.805 318.527C318.246 316.307 318.02 314.004 317.154 311.912C316.288 309.82 314.821 308.032 312.94 306.774C311.058 305.516 308.846 304.844 306.583 304.844C305.08 304.844 303.592 305.141 302.204 305.716C300.816 306.291 299.554 307.135 298.492 308.198C297.429 309.261 296.587 310.523 296.012 311.912C295.437 313.301 295.141 314.79 295.141 316.294Z" fill="white"/>
<path fill-rule="evenodd" clip-rule="evenodd" d="M300.93 316.294C300.93 317.412 301.261 318.505 301.882 319.435C302.503 320.365 303.385 321.09 304.418 321.517C305.45 321.945 306.586 322.057 307.682 321.839C308.779 321.621 309.785 321.083 310.576 320.292C311.366 319.501 311.904 318.494 312.122 317.397C312.34 316.3 312.228 315.163 311.8 314.13C311.373 313.097 310.649 312.214 309.719 311.593C308.79 310.971 307.698 310.64 306.58 310.64C305.082 310.64 303.644 311.236 302.585 312.296C301.525 313.356 300.93 314.794 300.93 316.294Z" fill="#C9E3E5"/>
<path fill-rule="evenodd" clip-rule="evenodd" d="M284.263 203.968C282.963 206.479 280.896 208.51 278.362 209.765C275.829 211.019 272.962 211.432 270.178 210.943C267.393 210.454 264.838 209.089 262.883 207.047C260.928 205.004 259.675 202.39 259.307 199.586V198.314C258 194.014 257.505 189.508 257.847 185.027L258.177 180.315V179.514V164.343L289.537 160.903L289.066 173.483C289.066 175.745 289.066 178.195 288.642 180.409V186.44C288.642 187.1 288.642 187.76 288.642 188.372C288.357 193.831 286.861 199.159 284.263 203.968Z" fill="#FFA17A"/>
<g style="mix-blend-mode:multiply" opacity="0.49">
<path fill-rule="evenodd" clip-rule="evenodd" d="M287.228 188.466C282.499 189.033 277.706 188.697 273.102 187.477C268.761 186.198 264.964 183.517 262.307 179.852C259.649 176.186 258.279 171.743 258.411 167.217V164.296L289.771 160.856L289.3 173.436C289.3 175.698 289.3 178.148 288.876 180.362V186.959L287.228 188.466Z" fill="#35375B"/>
</g>
<path fill-rule="evenodd" clip-rule="evenodd" d="M224.699 108.368C226.784 108.393 228.815 109.032 230.538 110.206C233.662 97.6736 239.768 86.0833 248.337 76.4231C251.294 72.4955 255.267 69.4494 259.826 67.6123C261.976 66.552 264.31 65.9123 266.7 65.7277C268.254 65.7277 269.808 65.7277 271.409 65.7277C273.01 65.7277 274.47 65.7277 276.118 66.0104C278.489 66.3206 280.786 67.0547 282.898 68.1777C287.375 70.272 291.212 73.5253 294.01 77.601C302.134 87.6486 307.708 99.5142 310.255 112.185C312.024 111.06 314.094 110.501 316.188 110.583C322.262 111.242 324.052 120.948 322.215 128.204C319.861 137.628 312.798 140.219 306.3 141.915C303.062 148.153 298.867 153.844 293.869 158.783C288.846 164.692 282.064 168.836 274.517 170.609H273.857C273.424 170.731 272.984 170.825 272.539 170.892H271.644H269.149H267.407H266.653H265.759L264.487 170.562H263.828C256.362 168.451 249.763 164.011 244.993 157.888C240.224 152.716 236.285 146.835 233.316 140.455C226.912 138.476 219.943 135.413 218.06 126.084C216.6 118.451 218.578 108.886 224.699 108.368Z" fill="#FFA17A"/>
<path fill-rule="evenodd" clip-rule="evenodd" d="M256.482 136.968C257.055 135.817 257.767 134.741 258.601 133.764C259.455 132.596 260.196 131.35 260.814 130.042C262.026 127.463 262.76 124.685 262.98 121.844C263.07 121.474 263.292 121.149 263.604 120.932C263.917 120.715 264.298 120.62 264.675 120.666C264.857 120.699 265.029 120.769 265.183 120.871C265.336 120.973 265.467 121.105 265.569 121.259C265.67 121.413 265.739 121.586 265.771 121.767C265.804 121.949 265.8 122.135 265.758 122.315C265.291 127.099 263.552 131.671 260.72 135.554C259.637 137.062 258.036 138.711 259.59 140.266C261.144 141.821 263.875 141.491 265.947 141.208C268.019 140.926 267.972 143.847 265.947 144.035C263.269 144.705 260.436 144.317 258.036 142.952C257.163 142.259 256.539 141.3 256.259 140.22C255.978 139.14 256.057 137.999 256.482 136.968Z" fill="#35375B"/>
<path fill-rule="evenodd" clip-rule="evenodd" d="M280.262 124.058C279.885 126.697 278.143 128.77 276.353 128.77C274.564 128.77 273.434 126.414 273.811 123.775C274.187 121.137 275.882 119.064 277.672 119.064C279.461 119.064 280.591 121.42 280.262 124.058Z" fill="#35375B"/>
<path fill-rule="evenodd" clip-rule="evenodd" d="M253.187 123.927C252.811 126.566 251.068 128.639 249.279 128.639C247.49 128.639 246.36 126.283 246.736 123.644C247.113 121.006 248.808 118.933 250.598 118.933C252.387 118.933 253.517 121.288 253.187 123.927Z" fill="#35375B"/>
<path fill-rule="evenodd" clip-rule="evenodd" d="M278.99 146.062C276.788 147.99 274.148 149.35 271.3 150.024C268.452 150.697 265.483 150.663 262.651 149.925C261.05 149.454 260.438 151.998 262.039 152.422C265.323 153.257 268.763 153.263 272.05 152.441C275.337 151.619 278.369 149.993 280.874 147.711C282.145 146.486 280.262 144.695 278.99 146.062Z" fill="#35375B"/>
<path fill-rule="evenodd" clip-rule="evenodd" d="M232.889 89.9456C234.511 86.6342 237.129 83.9151 240.376 82.1713C240.065 78.3779 240.708 74.5669 242.246 71.0857C243.784 67.6045 246.168 64.5639 249.181 62.241C252.96 59.6681 257.213 57.876 261.693 56.9698C266.172 56.0636 270.787 56.0616 275.267 56.9639C284.036 58.4179 292.378 61.7844 299.702 66.8246C307.025 71.8648 313.151 78.4554 317.645 86.1291C322.188 94.0617 325.044 102.848 326.032 111.937C327.021 121.027 326.121 130.222 323.39 138.947C319.952 149.642 313.973 160.573 316.845 171.316C319.072 176.678 321.766 181.834 324.897 186.723C328.936 195.589 329.752 205.589 327.204 214.993C324.759 224.222 320.797 232.98 315.479 240.907C311.174 246.726 307.981 253.291 306.062 260.272C304.649 267.434 307.145 276.103 313.596 278.883C309.371 278.555 305.261 277.347 301.53 275.334C297.8 273.322 294.532 270.55 291.936 267.198C286.659 260.211 284.326 251.432 285.438 242.745C287.839 224.369 305.12 209.763 303.708 191.246C302.625 177.582 291.324 165.992 292.36 152.328C293.066 142.905 299.752 134.471 299.988 124.906C299.87 120.737 298.793 116.651 296.842 112.966C294.89 109.281 292.116 106.095 288.734 103.657C282.076 99.0015 274.694 95.4829 266.886 93.2437C268.722 96.2592 276.868 97.9554 278.752 101.065C272.113 98.7093 260.812 100.264 254.643 98.0967C253.091 97.5668 251.593 96.8884 250.17 96.0707C247.11 108.934 225.309 113.551 234.02 142.009C226.957 135.46 227.569 100.076 232.889 89.9456Z" fill="#35375B"/>
<path fill-rule="evenodd" clip-rule="evenodd" d="M113.009 175.886L145.97 175.038C145.97 175.038 147.806 159.584 144.51 151.197C138.483 135.837 123.886 123.728 109.949 129.901C88.5242 139.465 113.009 175.886 113.009 175.886Z" fill="#FFA17A"/>
<path fill-rule="evenodd" clip-rule="evenodd" d="M93.7042 138.947C98.8366 145.119 105.099 151.15 109.855 157.794C110.284 158.447 110.468 159.232 110.373 160.008C110.228 160.774 109.81 161.461 109.196 161.94C108.543 162.37 107.758 162.553 106.983 162.458C106.217 162.314 105.531 161.895 105.052 161.28C100.343 154.778 94.0808 148.747 88.9484 142.434C86.547 139.512 91.2557 136.12 93.7042 138.947Z" fill="#FFA17A"/>
<path fill-rule="evenodd" clip-rule="evenodd" d="M97.4216 125.66C100.522 131.666 104.436 137.215 109.052 142.151C111.595 144.884 106.839 148.276 104.343 145.59C99.4152 140.281 95.2619 134.3 92.0067 127.827C90.2645 124.482 95.7265 122.456 97.4216 125.754V125.66Z" fill="#FFA17A"/>
<path fill-rule="evenodd" clip-rule="evenodd" d="M110.373 136.638C106.233 130.606 102.49 124.31 99.166 117.792C97.4709 114.446 102.933 112.42 104.628 115.718C107.745 121.692 111.253 127.452 115.128 132.963C115.363 133.276 115.531 133.635 115.62 134.016C115.709 134.397 115.718 134.793 115.646 135.178C115.599 135.559 115.469 135.924 115.266 136.25C115.062 136.576 114.791 136.853 114.469 137.062C113.832 137.529 113.039 137.732 112.256 137.628C111.5 137.494 110.824 137.072 110.373 136.45V136.638Z" fill="#FFA17A"/>
<path fill-rule="evenodd" clip-rule="evenodd" d="M116.495 110.347C120.174 121.112 125.898 131.063 133.352 139.654C135.612 142.622 130.903 146.014 128.643 143.093C120.848 134.103 114.867 123.687 111.033 112.42C110.044 108.839 115.742 106.766 116.495 110.394V110.347Z" fill="#FFA17A"/>
<path fill-rule="evenodd" clip-rule="evenodd" d="M132.55 141.35C132.61 141.195 132.637 141.031 132.631 140.865C132.625 140.7 132.586 140.538 132.516 140.388C132.445 140.238 132.345 140.104 132.222 139.994C132.098 139.884 131.954 139.8 131.797 139.748C131.491 139.643 131.156 139.663 130.864 139.804C130.573 139.945 130.35 140.196 130.243 140.502C129.427 142.65 129.074 144.946 129.207 147.239C129.286 149.539 129.831 151.8 130.808 153.883C130.878 154.029 130.977 154.16 131.098 154.267C131.219 154.375 131.361 154.458 131.514 154.51C131.667 154.563 131.829 154.584 131.991 154.574C132.153 154.563 132.311 154.52 132.456 154.448C132.751 154.305 132.979 154.054 133.093 153.747C133.207 153.439 133.198 153.1 133.068 152.799C132.225 151.028 131.745 149.105 131.656 147.145C131.546 145.172 131.85 143.198 132.55 141.35Z" fill="#35375B"/>
<path fill-rule="evenodd" clip-rule="evenodd" d="M312.984 380.42L355.645 392.34L400 309.98L386.204 310.828L354.797 312.901L340.86 313.797L312.984 380.42Z" fill="#35375B"/>
<path fill-rule="evenodd" clip-rule="evenodd" d="M320.942 344.799L326.687 343.951C327.023 343.902 327.366 343.948 327.678 344.082C327.99 344.217 328.259 344.436 328.454 344.714C328.649 344.993 328.764 345.32 328.784 345.659C328.805 345.999 328.73 346.337 328.57 346.637L327.11 349.181L338.599 354.882C340.013 355.62 341.198 356.729 342.028 358.091C342.858 359.452 343.3 361.015 343.308 362.609V380.231C343.308 380.231 351.972 384.943 365.721 373.493C374.291 379.76 376.08 388.712 372.172 399.926C372.172 399.926 356.163 412.176 328.193 392.576L310.112 380.655C308.875 379.849 307.86 378.745 307.16 377.445C306.461 376.144 306.1 374.688 306.11 373.211V363.787C306.09 361.613 306.822 359.499 308.182 357.804L316.092 347.768C317.256 346.179 318.998 345.112 320.942 344.799Z" fill="#FFA17A"/>
<g style="mix-blend-mode:multiply">
<path fill-rule="evenodd" clip-rule="evenodd" d="M325.415 349.464C324.096 348.522 323.155 349.464 322.966 350.689C322.95 351.569 323.117 352.443 323.457 353.254C323.798 354.065 324.304 354.797 324.944 355.401C327.567 358.133 330.602 360.439 333.937 362.233C334.083 362.316 334.21 362.427 334.313 362.56C334.415 362.693 334.49 362.845 334.534 363.007C334.577 363.169 334.589 363.337 334.567 363.504C334.546 363.67 334.492 363.83 334.408 363.976C334.325 364.121 334.214 364.249 334.081 364.351C333.948 364.454 333.797 364.529 333.635 364.573C333.473 364.616 333.304 364.628 333.138 364.606C332.972 364.585 332.811 364.531 332.666 364.447C328.239 362.256 324.409 359.022 321.507 355.024C320.853 354.031 320.504 352.868 320.504 351.678C320.504 350.489 320.853 349.326 321.507 348.333C321.825 347.873 322.241 347.489 322.725 347.207C323.208 346.926 323.748 346.755 324.305 346.705C324.862 346.656 325.423 346.73 325.949 346.921C326.474 347.113 326.951 347.418 327.345 347.815C328.334 348.663 326.545 350.642 325.415 349.464Z" fill="#35375B"/>
</g>
<g style="mix-blend-mode:multiply" opacity="0.49">
<path fill-rule="evenodd" clip-rule="evenodd" d="M362.569 329.816C370.15 333.256 379.85 328.026 384.276 318.179C385.224 315.874 385.842 313.447 386.112 310.97L354.706 312.996C354.057 316.272 354.469 319.67 355.883 322.695C357.298 325.72 359.64 328.215 362.569 329.816Z" fill="#52C2C7"/>
</g>
<path fill-rule="evenodd" clip-rule="evenodd" d="M286.007 110.488C283.721 109.731 281.347 109.271 278.944 109.122C275.648 109.122 276.448 103.798 279.744 103.986C282.548 104.199 285.315 104.752 287.984 105.635C291.186 106.672 289.02 111.384 285.913 110.347L286.007 110.488Z" fill="#35375B"/>
<path fill-rule="evenodd" clip-rule="evenodd" d="M250.361 110.488C252.647 109.731 255.021 109.271 257.424 109.122C260.72 109.122 259.92 103.798 256.624 103.986C253.82 104.199 251.053 104.752 248.384 105.635C245.182 106.672 247.348 111.384 250.456 110.347L250.361 110.488Z" fill="#35375B"/>
<path fill-rule="evenodd" clip-rule="evenodd" d="M301.941 119.132L291.758 124.223V123.986C291.758 121.776 289.967 119.986 287.758 119.986H271.745C269.536 119.986 267.745 121.776 267.745 123.986V124.548H260.683V123.986C260.683 121.776 258.892 119.986 256.683 119.986H240.67C238.461 119.986 236.67 121.776 236.67 123.986V128.698C236.67 130.907 238.461 132.698 240.67 132.698H256.683C258.892 132.698 260.683 130.907 260.683 128.698V127.048H267.745V128.698C267.745 130.907 269.536 132.698 271.745 132.698H287.758C289.967 132.698 291.758 130.907 291.758 128.698V127.019L303.059 121.368C303.676 121.06 303.926 120.309 303.618 119.691C303.309 119.074 302.558 118.824 301.941 119.132ZM271.745 122.486H287.758C288.587 122.486 289.258 123.157 289.258 123.986V128.698C289.258 129.527 288.587 130.198 287.758 130.198H271.745C270.917 130.198 270.245 129.527 270.245 128.698V123.986C270.245 123.157 270.917 122.486 271.745 122.486ZM256.683 122.486H240.67C239.841 122.486 239.17 123.157 239.17 123.986V128.698C239.17 129.527 239.841 130.198 240.67 130.198H256.683C257.511 130.198 258.183 129.527 258.183 128.698V123.986C258.183 123.157 257.511 122.486 256.683 122.486Z" fill="#35375B"/>
<path fill-rule="evenodd" clip-rule="evenodd" d="M1.32102 1.13086C1.32102 1.13086 -6.96621 111.148 53.1162 157.417L151.574 150.773C151.574 150.773 93.7519 83.6321 98.8843 19.1294L1.32102 1.13086Z" fill="white"/>
<path fill-rule="evenodd" clip-rule="evenodd" d="M2.2144 2.21448C1.55519 13.4754 -2.63552 113.08 53.3033 156.427L149.642 149.925C141.449 139.983 93.6564 79.2501 97.8471 19.9303L2.2144 2.21448ZM52.4557 158.123C-7.95629 111.619 0.378025 1.36638 0.378025 1.03657L0.472198 0L99.7777 18.3755V19.2236C94.7394 83.3022 152.091 149.925 152.279 150.161L153.456 151.574C119.884 153.836 86.3109 156.286 52.7382 158.359L52.4557 158.123Z" fill="#35375B"/>
<path opacity="0.32" fill-rule="evenodd" clip-rule="evenodd" d="M90.1709 25.1603C90.1709 25.1603 91.9601 69.874 102.272 85.6581L18.8348 81.983C12.8268 59.3052 10.0371 35.8944 10.5475 12.4388L90.1709 25.1603Z" fill="#F4F1F1"/>
<path opacity="0.32" fill-rule="evenodd" clip-rule="evenodd" d="M91.1141 25.1132C91.1141 25.1132 92.9034 69.5912 103.074 85.1397L104.063 86.6946L18.13 82.9252V82.2656C11.9508 59.5013 9.01809 35.9773 9.41899 12.3917V11.308C36.5408 15.7055 63.694 20.056 90.8787 24.3593V25.1132H91.1141ZM100.531 84.6685C91.6791 68.8374 89.4661 31.7566 89.4661 25.9613L11.4437 13.5225C11.0555 36.3111 13.7964 59.0452 19.5897 81.0877L100.531 84.6685Z" fill="#35375B"/>
<path opacity="0.32" fill-rule="evenodd" clip-rule="evenodd" d="M105.571 93.7621C105.571 93.7621 121.533 124.812 127.749 131.455L44.4056 135.649C34.4626 122.613 26.8625 107.945 21.9453 92.3015L105.571 93.7621Z" fill="#F4F1F1"/>
<path opacity="0.32" fill-rule="evenodd" clip-rule="evenodd" d="M106.416 93.338C106.416 93.338 122.285 124.247 128.406 130.607L129.866 132.115C101.237 133.528 72.6083 135.036 43.9797 136.403L43.6972 136.026C33.6526 122.897 25.9724 108.117 21.0015 92.3486L20.6719 91.1235C49.1435 91.7203 77.6309 92.2857 106.134 92.8197L106.416 93.338ZM125.769 130.419C118.126 118.949 111.191 107.022 105.004 94.7044L23.1675 93.0553C28.0219 107.985 35.3607 121.987 44.8743 134.471L125.769 130.419Z" fill="#35375B"/>
<path fill-rule="evenodd" clip-rule="evenodd" d="M139.66 161.798C140.979 160.291 147.288 160.997 147.618 159.019C149.784 146.062 145.97 127.215 131.844 118.64C130.149 117.65 127.465 113.315 125.346 116.614C123.227 119.912 129.49 127.074 131.043 129.948C134.575 136.45 131.043 136.544 131.891 144.931C131.989 146.625 131.989 148.325 131.891 150.019C130.196 151.998 129.019 155.909 126.711 158.547C126.711 158.547 114.186 167.971 115.458 168.395C115.74 168.159 121.249 183.378 139.66 161.798Z" fill="#FFA17A"/>
<path opacity="0.36" fill-rule="evenodd" clip-rule="evenodd" d="M94.9284 18.4226C84.7578 25.1603 32.9626 62.2882 23.5453 121.42C18.7202 112.163 14.7637 102.478 11.7266 92.4899C25.2875 55.2678 52.2681 28.27 69.9255 13.8052L94.9284 18.4226Z" fill="white"/>
<path opacity="0.36" fill-rule="evenodd" clip-rule="evenodd" d="M86.4056 24.5478C65.8101 40.2041 48.7665 60.0527 36.3997 82.7839L18.8365 81.9829C18.8365 81.9829 18.4598 80.6166 17.8477 78.1194C28.8122 56.3408 43.7985 36.8366 62.0148 20.6371L86.4056 24.5478Z" fill="white"/>
<path opacity="0.36" fill-rule="evenodd" clip-rule="evenodd" d="M31.9266 92.3015C30.0913 96.8242 28.5191 101.449 27.2179 106.154C25.1712 101.581 23.4865 96.8552 22.1797 92.0188L31.9266 92.3015Z" fill="white"/>
<path opacity="0.36" fill-rule="evenodd" clip-rule="evenodd" d="M101.706 54.9851C83.2485 69.5912 49.9112 101.583 41.5769 147.004C36.0668 141.084 31.205 134.593 27.0742 127.639C42.7069 77.2712 83.7193 44.4781 98.8812 33.8297C99.2589 40.9455 100.204 48.0197 101.706 54.9851Z" fill="white"/>
<path opacity="0.36" fill-rule="evenodd" clip-rule="evenodd" d="M94.1746 61.2516C86.0999 68.3384 78.6195 76.0758 71.8086 84.3859L49.207 83.3965C61.0127 66.8196 75.1424 52.0303 91.1611 39.4838C91.8674 45.7974 92.8091 53.6187 94.1746 61.2516Z" fill="white"/>
<path opacity="0.36" fill-rule="evenodd" clip-rule="evenodd" d="M65.2649 92.961C55.9277 105.798 48.8567 120.14 44.3585 135.366C39.5707 129.045 35.2733 122.366 31.5039 115.389C34.7689 107.481 38.6744 99.8545 43.1814 92.5841L65.2649 92.961Z" fill="white"/>
</svg>
