<svg width="215" height="197" viewBox="0 0 215 197" fill="none" xmlns="http://www.w3.org/2000/svg">
<g clip-path="url(#clip0_298_8932)">
<path d="M110.143 31.8343C110.806 32.371 111.676 32.6426 112.242 33.2827C112.887 34.0027 112.997 35.0244 113.191 35.9663C113.385 36.9082 113.776 37.9364 114.661 38.3136C115.29 38.583 116.028 38.4451 116.65 38.1606C118.435 37.3458 119.554 35.3843 119.614 33.4185C119.675 31.4527 118.775 29.5387 117.419 28.1204C116.516 27.1257 115.342 26.4176 114.041 26.0835C112.75 25.786 110.911 26.3141 109.971 27.1849C109.65 27.4869 109.398 27.8541 109.231 28.2618C109.064 28.6696 108.986 29.1084 109.002 29.5487C109.018 29.9891 109.129 30.4209 109.325 30.8152C109.522 31.2094 109.801 31.5568 110.143 31.8343Z" fill="#F4F1F1"/>
<path d="M204.125 84.4858C209.361 78.4044 213.495 71.2122 213.15 63.8552C212.881 58.0799 210.347 53.4895 205.843 50.5978C202.533 48.5747 198.769 47.4091 194.89 47.2062C195.637 44.6837 195.891 42.0423 195.637 39.4272C193.907 20.4151 167.037 3.90295 166.766 3.73652L166.496 4.17479C166.767 4.34123 193.422 20.7222 195.126 39.4842C195.371 42.061 195.109 44.6627 194.356 47.1426C189.919 46.8993 185.476 47.5925 181.318 49.1772C172.862 52.5602 167.953 56.561 167.851 60.1579C167.813 61.7556 168.776 63.1219 170.515 63.9212C174.164 65.6075 180.815 64.663 186.453 59.5984C190.594 55.876 193.359 51.888 194.718 47.6693C198.551 47.8556 202.273 49.0016 205.542 51.0025C209.982 53.8594 212.354 58.2102 212.633 63.8732C213.507 82.7455 184.313 100.647 184.009 100.821L184.271 101.255C184.442 101.133 195.716 94.2515 204.125 84.4858ZM194.194 47.641C192.841 51.7285 190.145 55.5899 186.105 59.2254C180.629 64.1408 174.209 65.0892 170.735 63.44C169.171 62.7173 168.342 61.5604 168.365 60.151C168.41 58.5456 169.787 54.3219 181.52 49.6333C185.564 48.0954 189.88 47.4169 194.194 47.641Z" fill="#35375B"/>
<path d="M153.774 26.77C153.774 26.77 155.752 30.159 154.594 33.3681C152.853 38.1877 153.665 40.037 154.414 41.8186C155.22 43.7328 156.206 45.4288 161.349 46.4936C168.815 48.0421 166.326 47.1307 168.434 45.3462C175.877 39.0726 169.107 34.3267 168.868 30.2062C168.709 27.2007 153.774 26.77 153.774 26.77Z" fill="#35375B"/>
<path d="M186.632 182.978L190.118 191.452L189.962 193.316C189.962 193.316 193.909 195.416 195.137 195.478C196.365 195.54 199.27 194.251 198.615 193.773C194.913 191.118 198.635 193.478 195.367 189.903C194.222 185.744 193.626 182.978 193.626 182.978H186.632Z" fill="#F9C5AE"/>
<path d="M165.107 49.2481C168.611 49.2467 172.111 49.4486 175.591 49.8527C175.591 49.8527 175.765 49.9324 176.057 50.0916C176.816 50.6166 178.124 52.233 177.084 56.9287C175.67 63.279 171.393 77.779 174.51 80.8937C176.981 83.3595 175.895 87.2352 173.624 87.7396C165.949 89.5978 158.273 91.5504 150.597 87.598C150.175 87.6865 146.783 85.9817 148.687 81.2712C147.775 62.8219 148.811 52.8465 152.82 51.0738C155.994 49.6728 160.744 49.2658 165.084 49.2481H165.107Z" fill="#FC4C00"/>
<path d="M162.852 182.978L162.016 193.301C162.016 193.301 158.069 195.401 156.841 195.463C155.613 195.525 151.97 195.36 151.822 195.13C151.648 194.676 151.64 194.176 151.799 193.717C151.988 193.342 153.36 192.614 154.025 192.136C154.689 191.658 157.003 190.431 157.482 189.847C157.96 189.263 155.808 182.963 155.808 182.963L162.852 182.978Z" fill="#F9C5AE"/>
<path d="M152.968 85.8287C149.721 87.9878 148.419 95.5623 149.921 113.911C149.641 117.699 149.136 171.1 153.552 185.438C154.01 186.913 155.852 186.868 156.747 186.895L163.602 186.88C164.405 186.665 165.775 187.125 166.315 184.736C169.421 171.009 166.846 129.874 166.846 129.874C166.846 129.874 181.294 178.206 184.964 185.37C186.024 187.435 187.869 186.815 188.551 186.892H195.548C196.728 186.857 197.909 186.774 197.774 184.096C197.162 173.306 189.637 144.227 188.22 138.938C186.449 132.337 181.725 110.903 180.131 98.0811C180.993 94.6243 176.293 85.0117 176.293 85.0117C168.322 86.5219 159.808 90.9757 152.971 85.8346L152.968 85.8287Z" fill="#35375B"/>
<path d="M164.478 34.8311C166.896 39.8158 167.971 47.2191 169.101 47.7559C169.101 47.7559 169.81 50.8412 165.925 50.9002C164.804 50.9223 163.694 50.6731 162.691 50.1739C161.687 49.6747 160.82 48.9402 160.162 48.0332L160.206 42.1341L164.478 34.8311Z" fill="#F9C5AE"/>
<path d="M154.758 31.4427L154.758 31.4427L155.449 37.5136L155.449 37.5141L155.449 37.5168L155.451 37.5303L155.459 37.5837C155.466 37.6308 155.477 37.7001 155.492 37.7887C155.523 37.9658 155.57 38.2194 155.636 38.5243C155.77 39.1345 155.982 39.9477 156.295 40.7629C156.609 41.5797 157.022 42.3897 157.553 43.0003C158.083 43.6094 158.721 44.0102 159.491 44.0371L154.758 31.4427ZM154.758 31.4427C154.464 28.8526 155.041 27.0029 156.047 25.772C157.055 24.5397 158.508 23.9093 159.999 23.7863C161.491 23.6631 163.011 24.0497 164.14 24.8376C165.266 25.6234 166 26.8036 165.949 28.2808C165.863 30.7793 165.812 32.4369 165.773 33.6764C165.717 35.4878 165.689 36.4064 165.619 37.7521C165.591 38.2847 165.342 38.9506 164.935 39.6573M154.758 31.4427L164.935 39.6573M164.935 39.6573C164.529 40.3608 163.973 41.0914 163.348 41.7507M164.935 39.6573L163.348 41.7507M163.348 41.7507C162.722 42.4101 162.031 42.9942 161.356 43.4074M163.348 41.7507L161.356 43.4074M161.356 43.4074C160.677 43.8226 160.031 44.0555 159.491 44.0371L161.356 43.4074Z" fill="#F9C5AE" stroke="#35375B" stroke-width="0.3"/>
<path d="M153.577 30.5629C153.577 30.5629 154.285 33.1113 156.101 33.5125C157.825 33.893 158.53 35.0964 160.181 34.5507C163.077 33.595 162.008 33.5066 164.137 35.586C165.964 37.3557 167.177 33.8163 167.177 33.8163C167.177 33.8163 169.648 37.9161 170.673 35.8809C172.521 32.2147 169.554 27.6842 166.23 24.3777C162.906 21.0713 159.159 23.7436 159.159 23.7436C159.159 23.7436 156.284 23.8232 154.028 25.0178C151.475 26.3834 151.578 29.2415 153.577 30.5629Z" fill="#35375B"/>
<path d="M169.101 47.7588C171.302 48.343 173.47 49.043 175.596 49.8559C166.046 64.6656 153.292 62.8339 152.864 51.077C156.218 49.6288 160.186 48.036 160.186 48.036L169.101 47.7588Z" fill="#F9C5AE"/>
<path d="M169.101 47.7588C169.101 47.7588 168.251 50.4134 166.601 55.578C164.951 60.7427 167.425 82.5162 167.602 88.3976C167.779 94.279 171.321 115.474 172.55 120.043C173.237 122.615 177.314 123.583 182.85 124.043C183.665 124.111 184.149 124.214 184.792 124.205C185.026 125.807 185.235 126.346 185.513 127.662C187.396 127.205 187.13 123.645 188.973 122.704C191.975 121.176 191.21 118.689 190.502 115.33C189.793 111.97 184.001 102.443 180.577 95.503C177.152 88.5628 180.281 83.9349 180.281 83.9349L181.884 71.4112C181.884 71.4112 182.18 58.4155 182.18 51.7407C178.584 49.1008 169.101 47.7588 169.101 47.7588Z" fill="#F4F1F1"/>
<path d="M169.516 47.5596C169.516 47.5596 173.197 52.6121 174.083 54.199C174.969 55.7859 170.316 58.0334 169.729 58.9625C169.141 59.8916 170.909 63.493 171.435 65.6698C171.771 67.0561 169.055 71.4656 167.036 74.4889C166.484 66.7434 166.077 58.3402 167.013 55.3759C168.66 50.2142 169.507 47.5596 169.507 47.5596H169.516Z" fill="white"/>
<path d="M160.162 48.0332C160.162 48.0332 156.124 57.398 155.884 62.6924C155.645 67.9869 156.593 87.8668 155.294 93.9841C153.995 100.101 152.932 116.734 152.932 119.675C152.932 122.615 149.756 123.465 149.756 123.465V128.205C149.756 128.205 142.966 126.683 142.033 123.273C141.1 119.863 143.509 118.229 144.332 115.407C145.156 112.584 148.959 97.0015 148.312 90.0023C147.665 83.003 147.025 57.0588 148.852 53.363C150.68 49.6673 160.156 48.0539 160.156 48.0539L160.162 48.0332Z" fill="#F4F1F1"/>
<path d="M155.66 49.2632C155.66 49.2632 150.641 50.0242 146.464 55.7905C142.287 61.5569 139.931 62.253 139.361 62.253C138.791 62.253 127.213 59.9818 125.601 60.8578C123.989 61.7339 123.759 69.792 125.282 70.553C126.805 71.314 138.726 74.0364 142.786 74.2281C146.845 74.4198 150.013 68.7154 149.951 68.4618C149.889 68.2081 150.712 56.5485 150.712 56.5485L155.66 49.2632Z" fill="#F4F1F1"/>
<path d="M160.577 47.8335C160.577 47.8335 156.538 57.1983 156.299 62.4927C156.211 64.6488 156.299 69.2383 156.367 74.3233C155.207 72.5271 151.909 67.1678 152.255 64.6577C152.671 61.6226 155.295 59.4164 155.295 58.794C155.295 58.1716 152.588 55.7973 153.837 54.3431C155.086 52.889 160.577 47.8335 160.577 47.8335Z" fill="white"/>
<path d="M150.417 193.39C150.417 193.39 154.801 190.788 155.303 190.652C156.956 190.21 158.423 193.036 159.014 193.307C159.604 193.578 162.016 193.307 162.016 193.307C162.016 193.307 163.046 196.681 162.016 196.681H148.891C148.891 196.681 147.568 195.395 149.815 193.808L150.417 193.39Z" fill="#FF9600"/>
<path d="M195.657 190.903C194.051 190.903 192.887 193.035 192.3 193.301C191.712 193.566 189.962 193.301 189.962 193.301C189.962 193.301 188.932 196.675 189.962 196.675H199.506C200.097 195.817 200.944 194.08 198.621 193.463C197.735 192.283 197.248 190.891 195.645 190.891L195.657 190.903Z" fill="#35375B"/>
<path d="M168.461 36.2056C167.847 37.3294 166.658 37.8633 165.804 37.3854C164.951 36.9076 164.739 35.6305 165.347 34.5067C165.955 33.3829 167.148 32.852 168.004 33.3269C168.86 33.8017 169.069 35.0759 168.461 36.2056Z" fill="#F9C5AE"/>
<path d="M110.81 53.6075C109.792 53.227 106.875 53.2211 105.653 53.2004C104.257 53.1768 103.253 53.2152 103.964 54.0086C104.401 54.4982 105.987 54.7519 106.184 54.8433C106.096 54.9407 105.768 57.7634 105.804 58.5804C105.836 59.2499 105.759 60.2262 107.365 61.6302C108.971 63.0342 114.979 65.3761 114.979 65.3761C115.569 65.4587 121.146 66.786 123.753 67.5411C123.56 65.6036 123.64 63.6486 123.992 61.7334L114.823 60.3501C114.823 60.3501 114.415 59.7602 113.848 58.952C113.848 58.952 111.572 54.3625 111.118 53.7962C111.034 53.7067 110.928 53.6415 110.81 53.6075Z" fill="#F9C5AE"/>
<path d="M123.352 60.5597C123.352 60.5597 122.127 59.3799 121.46 61.5862C120.792 63.7924 120.11 68.1843 121.755 69.0927C123.399 70.0012 125.123 70.1693 125.746 69.7652C126.369 69.3612 125.321 64.6566 125.885 62.1879C126.449 59.7191 123.352 60.5597 123.352 60.5597Z" fill="#D5D5D5"/>
<path d="M107.132 55.1328C106.627 54.9677 106.184 54.8379 106.184 54.8379C106.149 54.8821 105.042 55.2774 105.974 56.2183C105.918 56.761 105.853 57.3686 105.827 57.8582C106.036 58.2358 106.281 58.6458 106.565 59.0793C107.518 60.5541 108.72 60.3388 107.796 59.5011C106.872 58.6634 107.079 58.5307 107.359 58.2889C107.64 58.047 110.001 57.7727 110.001 57.7727C110.001 57.7727 108.924 55.9705 108.44 55.6608C108.021 55.4452 107.583 55.2685 107.132 55.1328Z" fill="#DD8B66"/>
<path d="M166.238 67.3381L154.134 69.6122C153.872 69.6604 153.622 69.7597 153.399 69.9046C153.176 70.0494 152.984 70.2368 152.834 70.4561C152.684 70.6753 152.578 70.9221 152.523 71.1822C152.469 71.4423 152.466 71.7107 152.516 71.9718L155.793 89.3741C155.842 89.635 155.942 89.8838 156.087 90.1061C156.232 90.3284 156.42 90.52 156.639 90.6698C156.858 90.8196 157.105 90.9248 157.365 90.9793C157.625 91.0338 157.893 91.0366 158.154 90.9875L170.258 88.7134C170.52 88.6653 170.769 88.5659 170.992 88.421C171.215 88.2761 171.407 88.0886 171.557 87.8693C171.707 87.65 171.813 87.4032 171.867 87.1431C171.921 86.883 171.923 86.6147 171.873 86.3538L168.596 68.9515C168.548 68.6905 168.449 68.4416 168.304 68.2191C168.159 67.9966 167.972 67.8049 167.753 67.655C167.533 67.505 167.287 67.3999 167.027 67.3455C166.767 67.2911 166.499 67.2886 166.238 67.3381Z" fill="#848EAE"/>
<path d="M173.985 74.0391C173.985 74.0391 160.325 75.1628 158.143 75.5138C155.962 75.8648 153.656 76.496 153.325 76.9621C152.735 77.7909 152.392 80.9558 152.735 81.0354C153.077 81.115 153.547 81.4985 154.105 82.171C155.534 83.9024 156.407 83.7785 156.93 83.6457C157.452 83.513 157.556 82.4659 158.586 81.9851C161.069 80.8525 162.846 79.8703 163.189 79.1831C163.531 78.4958 175.219 81.3864 175.927 80.7257C177.873 78.9176 176.214 74.5641 173.985 74.0391Z" fill="#F9C5AE"/>
<path d="M182.194 51.7407C182.194 51.7407 184.338 52.8144 186.366 55.9586C188.161 58.737 193.094 66.1728 194.576 77.1953C195.335 82.8614 176.815 81.1388 176.815 81.1388L182.194 51.7407Z" fill="#F4F1F1"/>
<path d="M177.758 73.0747C179.379 73.0279 180.996 72.893 182.602 72.6706C184.394 72.358 183.588 71.5498 182.735 69.9364C181.882 68.323 181.885 71.4111 181.885 71.4111L177.758 73.0747Z" fill="#D5D5D5"/>
<path d="M175.735 72.8301C175.735 72.8301 174.51 71.6355 173.843 73.8565C173.176 76.0775 172.497 80.4547 174.138 81.3631C175.78 82.2716 177.507 82.4397 178.127 82.0356C178.747 81.6315 177.705 76.927 178.271 74.4582C178.838 71.9895 175.735 72.8301 175.735 72.8301Z" fill="#D5D5D5"/>
<path d="M119.363 127.642H137.478V191.44H119.363V127.642Z" fill="#D0CECE"/>
<path d="M72.6389 99.6974C72.6389 139.979 65.1344 132.237 68.866 172.896C68.8896 173.094 35.8013 172.896 35.6006 172.896C15.9389 172.896 0 140.124 0 99.6944C0 59.265 15.9419 26.4927 35.6006 26.4927H69.1612C73.8847 26.5133 72.6478 59.4568 72.6478 99.6944L72.6389 99.6974Z" fill="#D0CECE"/>
<path d="M111 99.5C111 140.091 93.7612 173 72.5 173C51.2388 173 34 140.094 34 99.5C34 58.9059 51.2388 26 72.5 26C93.7612 26 111 58.9 111 99.5Z" fill="#E4E4E4"/>
<path d="M110.437 99.6974C110.437 119.878 106.739 138.135 100.776 151.335C94.8003 164.563 86.6078 172.599 77.6721 172.599C68.7364 172.599 60.5439 164.563 54.5681 151.335C48.6049 138.135 44.9074 119.878 44.9074 99.6974C44.9074 79.5167 48.6041 61.2602 54.567 48.0601C60.5424 34.8322 68.7349 26.7956 77.6721 26.7956C86.6093 26.7956 94.8018 34.83 100.777 48.0568C106.74 61.2557 110.437 79.5122 110.437 99.6974Z" stroke="#35375B" stroke-width="0.6"/>
<path d="M104.292 99.6973C104.292 127.06 93.5021 149.25 80.1936 149.25C66.885 149.25 56.0947 127.069 56.0947 99.6973C56.0947 72.3344 66.885 50.145 80.1936 50.145C93.4962 50.1509 104.292 72.3344 104.292 99.6973Z" fill="#35375B"/>
<path d="M56.6201 110.083C56.9842 113.639 57.5609 117.17 58.3472 120.657H211.02C211.543 120.66 212.06 120.56 212.543 120.362C213.027 120.165 213.466 119.873 213.836 119.505C214.206 119.137 214.499 118.699 214.699 118.217C214.899 117.735 215.001 117.218 215 116.696V114.041C215.001 113.521 214.899 113.005 214.7 112.524C214.502 112.043 214.21 111.606 213.841 111.238C213.473 110.87 213.035 110.578 212.554 110.379C212.072 110.181 211.556 110.079 211.035 110.08L56.6201 110.083Z" fill="#848EAE"/>
<path d="M93.6642 124.058H163.18C163.703 124.056 164.222 124.159 164.706 124.358C165.19 124.558 165.63 124.851 166 125.221C166.371 125.591 166.664 126.031 166.864 126.514C167.064 126.998 167.166 127.516 167.165 128.04V128.334C167.166 128.858 167.064 129.376 166.864 129.86C166.664 130.343 166.371 130.783 166 131.153C165.63 131.523 165.19 131.816 164.706 132.016C164.222 132.215 163.703 132.318 163.18 132.316H93.6642C93.1405 132.318 92.6217 132.215 92.1376 132.016C91.6536 131.816 91.2138 131.523 90.8434 131.153C90.4731 130.783 90.1796 130.343 89.9797 129.86C89.7798 129.376 89.6776 128.858 89.6787 128.334V128.04C89.6776 127.516 89.7798 126.998 89.9797 126.514C90.1796 126.031 90.4731 125.591 90.8434 125.221C91.2138 124.851 91.6536 124.558 92.1376 124.358C92.6217 124.159 93.1405 124.056 93.6642 124.058Z" fill="#D0CECE"/>
<path d="M58.3477 120.657C58.7728 122.527 59.254 124.335 59.7824 126.069H210.909C211.272 126.081 211.634 126.02 211.973 125.889C212.312 125.759 212.621 125.561 212.883 125.309C213.144 125.056 213.351 124.754 213.493 124.42C213.635 124.085 213.708 123.726 213.708 123.363C213.708 123 213.635 122.64 213.493 122.306C213.351 121.972 213.144 121.669 212.883 121.417C212.621 121.165 212.312 120.967 211.973 120.836C211.634 120.706 211.272 120.645 210.909 120.657H58.3477Z" fill="#BFC0C4"/>
<path d="M191.677 112.325C191.677 112.325 197.605 111.968 199.395 112.504C201.184 113.041 202.22 114.218 203.903 114.218C205.585 114.218 205.857 112.056 205.556 109.661C205.255 107.266 205.883 95.1671 205.579 92.9254C205.275 90.6838 203.342 89.1648 203.463 90.9994C203.584 92.834 200.274 99.1106 199.22 101.842C198.166 104.573 195.232 105.069 193.23 105.517C191.229 105.965 191.68 112.325 191.68 112.325H191.677Z" fill="#DD8B66"/>
<path d="M193.909 112.684C193.909 112.684 198.169 111.968 199.829 112.504C201.488 113.041 202.252 114.218 203.932 114.218C205.612 114.218 206.397 112.056 206.669 109.661C206.94 107.266 208.549 95.1671 208.774 92.9254C208.998 90.6838 207.43 89.1648 207.115 90.9994C206.799 92.834 202.01 99.1106 200.301 101.842C198.592 104.573 195.548 105.069 193.449 105.517C191.35 105.965 193.909 112.684 193.909 112.684Z" fill="#F9C5AE"/>
<path d="M107.956 97.1669C107.956 97.1669 117.214 94.8868 138.659 98.562C160.104 102.237 188.962 103.057 192.268 103.057C195.575 103.057 195.188 103.311 195.061 105.083C194.981 106.263 194.453 109.941 194.494 112.26C194.518 113.44 192.903 114.351 192.103 114.218H99.46C99.46 114.218 105.04 99.323 107.956 97.1669Z" fill="#35375B"/>
<path d="M64.8009 93.1611C61.952 93.1877 59.8235 93.3558 58.8729 93.751C57.9486 94.1287 57.0536 94.5744 56.1952 95.0842C56.1283 96.6062 56.0948 98.1478 56.0948 99.7091C56.0873 104.569 56.4386 109.422 57.1458 114.23H103.014C103.014 114.23 107.962 107.337 109.229 101.842C110.495 96.3466 108.089 95.7154 105.296 95.7154C103.029 95.7154 77.1529 93.0609 64.8038 93.1641L64.8009 93.1611Z" fill="#FC4C00"/>
<path d="M100.059 110.233C100.059 110.233 105.898 109.021 107.478 109.443C109.057 109.865 112.6 110.841 112.564 112.369C112.529 113.897 111.056 114.242 111.056 114.242H88.2293C86.5052 114.611 84.2468 110.49 87.9961 107.325C90.0301 108.071 99.7636 110.334 100.059 110.233Z" fill="#F9C5AE"/>
<path d="M87.9963 107.278C87.9963 107.278 86.6973 104.918 84.4773 105.346C82.2572 105.774 72.1754 104.65 70.0823 104.334C67.9892 104.019 73.5069 103.889 76.8724 104.143C80.2379 104.396 84.1673 103.511 86.6383 104.016C89.1093 104.52 87.9963 107.278 87.9963 107.278Z" fill="#E24900"/>
<path d="M100.78 53.6284C100.78 54.5959 100.107 55.3775 99.2771 55.3775C98.4475 55.3775 97.7744 54.5959 97.7744 53.6314C97.7744 52.6669 98.4475 51.8853 99.2771 51.8853C100.107 51.8882 100.78 52.6639 100.78 53.6284Z" fill="#4DB45E"/>
<path d="M103.716 61.604C103.716 62.5685 103.046 63.3531 102.214 63.3531C101.384 63.3531 100.711 62.5715 100.711 61.607C100.711 60.6425 101.384 59.8608 102.214 59.8608C103.043 59.8608 103.716 60.6425 103.716 61.607V61.604Z" fill="white"/>
<path d="M106.495 70.565C106.495 71.5295 105.824 72.3111 104.995 72.3111C104.165 72.3111 103.492 71.5295 103.492 70.565C103.492 69.6005 104.165 68.8188 104.995 68.8188C105.824 68.8188 106.495 69.6005 106.495 70.565Z" fill="#FF9600"/>
<path d="M108.201 79.4341C108.201 80.4016 107.528 81.1832 106.698 81.1832C105.868 81.1832 105.195 80.4016 105.195 79.4341C105.195 78.4667 105.868 77.688 106.698 77.688C107.528 77.688 108.201 78.4696 108.201 79.4341Z" fill="#121745"/>
<path d="M93.6642 190.363H163.18C165.388 190.363 167.165 190.528 167.165 192.723V193.018C167.166 193.541 167.064 194.059 166.864 194.543C166.664 195.027 166.371 195.466 166 195.836C165.63 196.206 165.19 196.499 164.706 196.699C164.222 196.899 163.703 197.001 163.18 197H93.6642C93.1405 197.001 92.6217 196.899 92.1376 196.699C91.6536 196.499 91.2138 196.206 90.8434 195.836C90.4731 195.466 90.1796 195.027 89.9797 194.543C89.7798 194.059 89.6776 193.541 89.6787 193.018V192.723C89.6787 190.517 91.4559 190.363 93.6642 190.363Z" fill="#BFC0C4"/>
<path d="M29.558 32.0868L36.7422 27.5435L37.0532 28.2322L29.869 32.7756L29.558 32.0868Z" fill="#35375B"/>
<path d="M24.473 38.3177L24.083 37.6888C21.7762 39.7176 19.7458 42.1602 18.0609 44.9337L18.5863 45.4018C20.234 42.6907 22.2186 40.3025 24.473 38.3177Z" fill="#35375B"/>
<path d="M13.4513 53.2391L12.9717 52.7035C10.7409 55.5884 9.06754 59.0322 8.06657 62.7981L8.68522 63.0455C9.65777 59.3869 11.2838 56.0414 13.4513 53.2391Z" fill="#35375B"/>
<path d="M5.2989 71.9612L4.71152 71.6186C3.43988 74.897 2.75022 78.4689 2.68553 82.1116L3.33511 82.1446C3.39663 78.6095 4.06514 75.1429 5.2989 71.9612Z" fill="#35375B"/>
<path d="M1.9687 94.1228C1.94566 93.7194 1.91832 93.3162 1.88667 92.9133L1.24196 92.9657C1.50001 96.4169 1.48544 99.8828 1.19846 103.317L1.85144 103.409C2.10593 100.329 2.14515 97.2223 1.9687 94.1228Z" fill="#35375B"/>
<path d="M5.45082 123.53C4.24575 120.588 3.37627 117.472 2.86629 114.266L2.22602 114.396C2.74746 117.671 3.63606 120.856 4.86741 123.862L5.45082 123.53Z" fill="#35375B"/>
<path d="M12.8652 143.076C11.2215 139.511 9.66811 135.825 8.25196 132.124L7.66522 132.435C9.08915 136.159 10.6476 139.858 12.3009 143.44L12.8652 143.076Z" fill="#35375B"/>
<path d="M25.5734 161.311C22.9324 158.769 19.9352 155.887 18.5899 151.875L17.9903 152.151C19.4007 156.356 22.6015 159.439 25.1738 161.913L25.5734 161.311Z" fill="#35375B"/>
<path d="M30.8853 165.742L31.1963 165.069L38.6361 170.149L38.3251 170.822L30.8853 165.742Z" fill="#35375B"/>
<path d="M55.2576 176.612C52.0016 176.22 48.7935 175.319 45.7151 173.932L45.4998 174.66C48.6316 176.069 51.8949 176.986 55.2068 177.385L55.2576 176.612Z" fill="#35375B"/>
<path d="M63.4875 177.9L72.3135 176.542L72.409 177.313L63.583 178.67L63.4875 177.9Z" fill="#35375B"/>
<path d="M22.4046 0H63.4875C64.3487 0 65.1747 0.341828 65.7837 0.950289C66.3928 1.55875 66.7349 2.384 66.7349 3.2445V68.7008C66.7349 69.5612 66.3928 70.3865 65.7837 70.995C65.1747 71.6034 64.3487 71.9453 63.4875 71.9453H22.4046C21.5434 71.9453 20.7174 71.6034 20.1084 70.995C19.4994 70.3865 19.1572 69.5612 19.1572 68.7008V3.2445C19.1572 2.384 19.4994 1.55875 20.1084 0.950289C20.7174 0.341828 21.5434 0 22.4046 0Z" fill="#EFEFEF"/>
<path d="M22.4046 0C21.5434 0 20.7174 0.341827 20.1084 0.950288C19.4994 1.55875 19.1572 2.384 19.1572 3.2445V6.11735H66.7319V3.2445C66.7319 2.384 66.3898 1.55875 65.7808 0.950288C65.1718 0.341827 64.3458 0 63.4845 0H22.4046Z" fill="#35375B"/>
<path d="M55.7204 2.94081C55.7204 3.206 55.6149 3.46033 55.4272 3.64785C55.2395 3.83536 54.985 3.94071 54.7195 3.94071C54.5216 3.94071 54.3281 3.88207 54.1635 3.7722C53.999 3.66233 53.8707 3.50616 53.7949 3.32345C53.7192 3.14075 53.6994 2.9397 53.738 2.74574C53.7766 2.55178 53.8719 2.37362 54.0119 2.23378C54.1518 2.09394 54.3302 1.99871 54.5243 1.96013C54.7184 1.92155 54.9197 1.94135 55.1025 2.01703C55.2854 2.09271 55.4417 2.22087 55.5517 2.3853C55.6617 2.54973 55.7204 2.74305 55.7204 2.94081Z" fill="white"/>
<path d="M62.6666 2.94081C62.6666 3.206 62.5612 3.46033 62.3735 3.64785C62.1858 3.83536 61.9313 3.94071 61.6658 3.94071C61.4679 3.94071 61.2744 3.88207 61.1098 3.7722C60.9452 3.66233 60.817 3.50616 60.7412 3.32345C60.6655 3.14075 60.6457 2.9397 60.6843 2.74574C60.7229 2.55178 60.8182 2.37362 60.9582 2.23378C61.0981 2.09394 61.2765 1.99871 61.4706 1.96013C61.6647 1.92155 61.8659 1.94135 62.0488 2.01703C62.2317 2.09271 62.388 2.22087 62.498 2.3853C62.6079 2.54973 62.6666 2.74305 62.6666 2.94081Z" fill="white"/>
<path d="M59.1237 2.94081C59.1237 3.206 59.0182 3.46033 58.8305 3.64785C58.6428 3.83536 58.3883 3.94071 58.1229 3.94071C57.8574 3.94071 57.6029 3.83536 57.4152 3.64785C57.2275 3.46033 57.1221 3.206 57.1221 2.94081C57.1221 2.67562 57.2275 2.4213 57.4152 2.23378C57.6029 2.04626 57.8574 1.94092 58.1229 1.94092C58.3883 1.94092 58.6428 2.04626 58.8305 2.23378C59.0182 2.4213 59.1237 2.67562 59.1237 2.94081Z" fill="white"/>
<path d="M31.9463 35.4858H53.9431V39.0754H31.9463V35.4858Z" fill="#FC4C00"/>
<path d="M36.9414 43.9541H60.0896V45.2165H36.9414V43.9541Z" fill="white"/>
<path d="M36.8467 47.6294H53.3318V48.8918H36.8467V47.6294Z" fill="white"/>
<path d="M33.7501 46.1986C33.7501 46.72 33.6473 47.2362 33.4476 47.7179C33.2479 48.1996 32.9552 48.6372 32.5862 49.0059C32.2172 49.3745 31.7792 49.667 31.2971 49.8665C30.815 50.066 30.2982 50.1687 29.7764 50.1687C28.9905 50.1687 28.2222 49.9358 27.5688 49.4996C26.9153 49.0634 26.406 48.4433 26.1052 47.7179C25.8045 46.9925 25.7258 46.1942 25.8791 45.4241C26.0324 44.654 26.4109 43.9466 26.9666 43.3913C27.5223 42.8361 28.2304 42.458 29.0012 42.3048C29.772 42.1516 30.571 42.2302 31.2971 42.5307C32.0232 42.8312 32.6438 43.3401 33.0804 43.9929C33.517 44.6458 33.7501 45.4134 33.7501 46.1986Z" fill="#FC4C00"/>
<path d="M28.0283 45.3994L30.0328 47.3609L29.1472 48.2457L27.1367 46.2843L28.0283 45.3994Z" fill="white"/>
<path d="M28.2471 47.358L31.5211 44.146L32.4067 45.0309L29.1298 48.24L28.2471 47.358Z" fill="white"/>
<path d="M36.9414 54.189H60.0896V55.4514H36.9414V54.189Z" fill="white"/>
<path d="M36.8467 57.8643H53.3318V59.1267H36.8467V57.8643Z" fill="white"/>
<path d="M33.7501 56.4335C33.7501 56.9548 33.6473 57.4711 33.4476 57.9528C33.2479 58.4344 32.9552 58.8721 32.5862 59.2407C32.2172 59.6094 31.7792 59.9018 31.2971 60.1013C30.8149 60.3009 30.2982 60.4035 29.7764 60.4035C28.9906 60.4035 28.2225 60.1708 27.5691 59.7347C26.9157 59.2986 26.4063 58.6787 26.1055 57.9534C25.8047 57.2282 25.7258 56.4301 25.8789 55.66C26.032 54.89 26.4101 54.1826 26.9656 53.6272C27.521 53.0719 28.2287 52.6935 28.9994 52.54C29.77 52.3865 30.5689 52.4647 31.295 52.7647C32.0212 53.0648 32.642 53.5732 33.0789 54.2257C33.5159 54.8781 33.7495 55.6454 33.7501 56.4305V56.4335Z" fill="#FC4C00"/>
<path d="M28.0282 55.6313L30.0328 57.5898L29.1471 58.4747L27.1455 56.5133L28.0282 55.6313Z" fill="white"/>
<path d="M28.2471 57.59L31.5211 54.3809L32.4067 55.2657L29.1298 58.4748L28.2471 57.59Z" fill="white"/>
<path d="M38.8366 12.149C38.8366 12.149 37.4815 12.9601 37.2335 15.2814C36.9856 17.6027 37.3693 17.9655 36.2416 19.5228C35.1139 21.0802 35.2939 21.1687 35.9257 21.4607C36.5575 21.7527 36.649 21.732 36.8114 22.7673C36.9737 23.8026 36.8763 25.9027 37.8269 26.3068C38.7775 26.7109 41.7977 25.2007 41.4847 27.4099C41.1718 29.6191 40.6935 30.0055 41.2574 30.1382C41.8213 30.271 47.6696 30.1382 47.6696 30.1382C47.6696 30.1382 48.4372 30.1176 48.0061 29.3065C47.5751 28.4953 47.4157 26.3274 47.9382 24.3217C48.4608 22.3161 51.1443 19.5199 49.9251 15.2342C48.7058 10.9485 42.7246 9.19059 38.8425 12.146L38.8366 12.149Z" fill="#35375B"/>
<path d="M39.0489 13.6596C39.0489 13.6596 40.3833 11.8102 43.2735 11.8338C44.532 11.8209 45.7598 12.2224 46.7672 12.9762C47.7746 13.73 48.5056 14.7942 48.8472 16.0045C49.4554 18.2373 48.4635 20.3108 47.5601 21.0541C46.6567 21.7974 46.9076 22.8828 46.453 23.0627C45.9984 23.2426 46.9283 19.1841 45.9334 19.364C44.9385 19.5439 42.5266 19.364 42.438 17.2993C42.3495 15.2346 37.6436 18.8537 39.0489 13.6596Z" fill="white"/>
<path fill-rule="evenodd" clip-rule="evenodd" d="M166.188 36.9877C166.154 37.0041 166.118 37.0041 166.084 36.9877C166.051 36.9676 166.025 36.9295 166.011 36.8816C165.997 36.8337 165.996 36.7798 166.01 36.7316L166.732 34.129C166.746 34.079 166.773 34.0389 166.808 34.0173C166.842 33.9957 166.881 33.9943 166.916 34.0133C166.949 34.0334 166.975 34.0715 166.989 34.1194C167.003 34.1673 167.004 34.2212 166.99 34.2694L166.268 36.8803C166.252 36.93 166.223 36.9686 166.188 36.9877Z" fill="#35375B"/>
<path fill-rule="evenodd" clip-rule="evenodd" d="M167.83 34.6437L166.402 35.3839C166.348 35.4039 166.291 35.4115 166.241 35.4054C166.191 35.3994 166.151 35.38 166.128 35.3506C166.105 35.3212 166.1 35.2837 166.114 35.2443C166.128 35.2049 166.16 35.1662 166.205 35.1347L167.609 34.4165C167.637 34.4017 167.667 34.3903 167.697 34.383C167.728 34.3758 167.758 34.3728 167.787 34.3744C167.815 34.376 167.841 34.382 167.863 34.3921C167.884 34.4022 167.901 34.4162 167.912 34.4332C167.935 34.4622 167.938 34.4993 167.923 34.5378C167.908 34.5763 167.875 34.6138 167.83 34.6437Z" fill="#35375B"/>
<path fill-rule="evenodd" clip-rule="evenodd" d="M160.991 36.0461C160.939 36.6051 160.671 37.0295 160.403 36.9984C160.135 36.9673 159.957 36.5016 160.009 35.9633C160.061 35.4251 160.329 34.98 160.597 35.0007C160.865 35.0214 161.043 35.4872 160.991 36.0461Z" fill="#35375B"/>
<path fill-rule="evenodd" clip-rule="evenodd" d="M156.988 36.0421C156.936 36.5988 156.675 37.0731 156.398 36.9906C156.122 36.9081 155.957 36.4957 156.01 35.9596C156.062 35.4234 156.331 34.9801 156.6 35.0007C156.869 35.0213 157.048 35.4647 156.988 36.0421Z" fill="#35375B"/>
<path fill-rule="evenodd" clip-rule="evenodd" d="M159.774 41.049C159.556 41.3108 159.295 41.4955 159.013 41.5868C158.731 41.6782 158.436 41.6735 158.156 41.5731C158.123 41.5625 158.089 41.5702 158.06 41.5945C158.031 41.6187 158.011 41.6576 158.003 41.7024C157.996 41.7473 158.001 41.7945 158.019 41.8337C158.037 41.8729 158.065 41.9008 158.098 41.9114C158.421 42.0263 158.761 42.0295 159.086 41.9207C159.41 41.8118 159.71 41.5944 159.958 41.2878C160.084 41.1352 159.895 40.8964 159.774 41.049Z" fill="#35375B"/>
<path d="M158 36.5C158 36.5 157.5 38.1552 157 38.9828C157.5 39.8103 158.5 39.3966 158.5 39.3966" stroke="#35375B" stroke-width="0.3" stroke-linecap="round"/>
</g>
<defs>
<clipPath id="clip0_298_8932">
<rect width="215" height="197" fill="white"/>
</clipPath>
</defs>
</svg>
