<svg width="229" height="197" viewBox="0 0 229 197" fill="none" xmlns="http://www.w3.org/2000/svg">
<path d="M207.037 27.522C207.049 27.4981 207.059 27.4728 207.065 27.4468C207.056 27.475 207.037 27.4962 207.037 27.522Z" fill="#EBEBEB"/>
<path d="M44.5266 110.625C42.2107 85.0061 39.6631 64.4972 37.8242 49.5216C35.5917 31.4279 34.3503 21.462 35.3786 18.5092C36.6107 14.9259 45.9046 14.1952 50.8955 13.802L51.5301 13.7531C64.8097 12.6828 76.1162 11.7311 85.2017 10.9609C108.586 9.0017 120.323 8.01278 126.585 8.20591C132.767 8.39671 133.675 9.70441 134.395 12.8596C134.796 14.6094 135.432 20.3847 135.578 22.2973L134.884 22.3509C134.738 20.4545 134.108 14.7374 133.726 13.0155C133.149 10.4839 132.829 9.09012 126.572 8.89699C120.314 8.70386 108.609 9.69743 85.2596 11.6729C76.1741 12.4361 64.8676 13.3878 51.5856 14.4652L50.9511 14.514C46.8125 14.8398 37.1179 15.603 36.034 18.7535C35.0706 21.5458 36.3675 32.0539 38.5144 49.4518C40.3672 64.432 42.8962 84.9479 45.2168 110.576L44.5266 110.625Z" fill="#35375B"/>
<path d="M61.7478 197C61.1549 197 60.6037 197 60.0896 196.977C53.9083 196.786 53.0004 195.478 52.2778 192.323C51.6942 189.763 51.5043 187.613 50.7053 178.571C50.2907 173.88 49.7233 167.458 48.8525 158.158L49.5473 158.093C50.4158 167.4 50.9832 173.818 51.4001 178.508C52.1968 187.513 52.3844 189.652 52.9587 192.167C53.5331 194.682 53.8527 196.093 60.1127 196.286C66.3357 196.476 78.0614 195.49 101.42 193.526C110.506 192.763 121.812 191.811 135.092 190.734L135.726 190.683C139.865 190.357 149.559 189.596 150.641 186.445C151.66 183.488 149.905 169.51 148.047 154.714L148.742 154.628C151.002 172.631 152.302 183.772 151.303 186.673C150.071 190.254 140.777 190.987 135.787 191.378L135.152 191.429C121.872 192.5 110.568 193.452 101.483 194.222C80.0137 196.02 68.3598 197 61.7478 197Z" fill="#35375B"/>
<path d="M84.931 24.1657C84.7197 24.1661 84.5091 24.1419 84.3033 24.0936C83.8907 23.9993 83.5088 23.8007 83.194 23.5165C82.9105 23.251 82.6991 22.9172 82.58 22.5466C82.4608 22.1761 82.4378 21.7811 82.5131 21.3991C82.6659 20.6545 83.1755 20.0728 83.6016 19.6516C84.0662 19.1783 84.6876 18.8927 85.3478 18.8489H85.3756C85.6708 18.8221 85.9684 18.8549 86.2508 18.9453C86.5332 19.0357 86.7948 19.1819 87.0202 19.3752C87.2457 19.5685 87.4304 19.8052 87.5636 20.0712C87.6967 20.3372 87.7757 20.6273 87.7958 20.9244C87.8424 21.3834 87.783 21.847 87.6224 22.2792C87.4617 22.7114 87.2041 23.1006 86.8694 23.4165C86.3382 23.8993 85.6473 24.1664 84.931 24.1657ZM85.3941 19.5446C84.8971 19.5774 84.4293 19.7918 84.0787 20.1472C83.722 20.5009 83.2982 20.9779 83.1824 21.5434C83.1295 21.8064 83.1443 22.0786 83.2254 22.3343C83.3064 22.59 83.4511 22.8207 83.6456 23.0046C83.8731 23.2075 84.1479 23.3491 84.4446 23.4165C84.7848 23.4904 85.1376 23.4823 85.4741 23.393C85.8107 23.3036 86.1213 23.1354 86.3807 22.9022C86.6335 22.6593 86.8276 22.3615 86.948 22.0316C87.0684 21.7016 87.112 21.3484 87.0755 20.9989C87.0645 20.7891 87.0109 20.5838 86.9182 20.3956C86.8254 20.2074 86.6953 20.0402 86.5359 19.9042C86.3766 19.7683 86.1912 19.6665 85.9913 19.605C85.7914 19.5436 85.5811 19.5238 85.3733 19.5469L85.3941 19.5446Z" fill="#35375B"/>
<path d="M104.718 185.662L98.7578 186.206L98.8207 186.901L104.781 186.357L104.718 185.662Z" fill="#35375B"/>
<path d="M67.0885 161.809C67.6906 160.18 68.478 158.451 69.8491 157.337C70.9098 156.478 72.2391 156.224 73.5708 156.294C74.4596 156.358 75.3414 156.498 76.2064 156.713C77.3157 156.962 78.4105 157.273 79.4858 157.644C81.0056 158.197 82.4892 158.846 83.9278 159.587C84.9445 160.089 85.9797 160.624 87.133 160.687C89.4258 160.815 91.4453 159.291 92.9831 157.751C94.5209 156.21 95.7762 154.433 97.6359 153.316C98.5412 152.755 99.5832 152.457 100.647 152.455C101.792 152.498 102.914 152.79 103.935 153.311C106.054 154.316 107.849 155.871 109.943 156.915C111.796 157.846 114.031 158.544 116.078 157.886C116.575 157.728 117.044 157.492 117.467 157.188C117.829 156.929 117.481 156.322 117.118 156.585C115.286 157.895 112.961 157.483 111.02 156.652C108.871 155.722 107.083 154.2 105.031 153.092C103.027 152.006 100.711 151.308 98.4835 152.134C96.4617 152.881 94.9702 154.544 93.5575 156.108C92.0822 157.737 90.3731 159.535 88.115 159.936C86.7972 160.168 85.6717 159.675 84.5253 159.112C83.1172 158.414 81.716 157.73 80.2431 157.181C78.2692 156.411 76.2075 155.891 74.1058 155.633C72.7162 155.489 71.2479 155.622 70.0181 156.362C68.617 157.202 67.7022 158.651 67.0306 160.108C66.799 160.601 66.5975 161.108 66.4099 161.62C66.2547 162.041 66.924 162.223 67.0792 161.804L67.0885 161.809Z" fill="#FD4C00"/>
<path d="M68.3652 169.739C69.1503 167.97 70.3268 166.12 72.2884 165.55C73.8609 165.085 75.6488 165.434 77.2028 165.802C79.0356 166.244 80.8258 166.848 82.5527 167.607C83.6991 168.101 84.7783 168.738 85.9224 169.236C87.0084 169.738 88.2255 169.878 89.3963 169.636C91.2097 169.222 92.7429 167.924 94.0051 166.611C95.478 165.085 96.7842 163.303 98.674 162.258C99.6104 161.729 100.677 161.479 101.75 161.537C102.862 161.63 103.945 161.947 104.934 162.467C107.007 163.486 108.779 165.01 110.849 166.027C112.69 166.932 114.914 167.61 116.94 166.944C117.423 166.782 117.879 166.546 118.292 166.246C118.654 165.988 118.306 165.383 117.94 165.643C116.15 166.928 113.89 166.558 111.975 165.767C109.846 164.889 108.07 163.389 106.074 162.276C104.121 161.183 101.863 160.415 99.6375 161.085C97.6041 161.706 96.0755 163.307 94.6837 164.838C93.3288 166.327 91.9045 167.97 89.9776 168.717C88.8605 169.154 87.6209 169.154 86.5037 168.717C85.4106 168.308 84.3962 167.668 83.3285 167.191C81.6147 166.414 79.8411 165.777 78.025 165.287C76.339 164.843 74.521 164.482 72.7747 164.736C70.8641 165.013 69.4166 166.388 68.4647 167.994C68.2071 168.439 67.9751 168.899 67.7699 169.371C67.5893 169.778 68.1868 170.134 68.3698 169.725L68.3652 169.739Z" fill="#FD4C00"/>
<path d="M50.9159 45.8775L50.8857 45.1795C51.2077 45.1655 83.2419 43.7322 92.3737 39.8486L92.6447 40.4908C83.3971 44.4372 52.2383 45.831 50.9159 45.8775Z" fill="#35375B"/>
<path d="M51.8686 56.2787L51.8408 55.5806C52.0053 55.5806 68.6037 54.8384 81.2697 52.9932L81.3692 53.6912C68.657 55.5341 52.0238 56.2694 51.8686 56.2787Z" fill="#35375B"/>
<path d="M52.7948 66.6683L52.7646 65.9703C52.8758 65.9703 64.0341 65.4723 74.9816 64.2856L75.0557 64.9837C64.0897 66.1704 52.9106 66.6637 52.7948 66.6683Z" fill="#35375B"/>
<path d="M85.3175 143.722C78.2376 126.545 56.4491 109.299 27.5507 112.575C21.3578 113.273 12.9601 116.098 7.26522 121.812C-2.478 131.585 -2.90414 151.491 8.93502 160.671C16.1492 166.255 26.4529 165.878 35.0428 162.833C50.1312 157.467 60.3909 145.907 85.3175 143.722Z" fill="#FD4C00"/>
<path d="M13.3217 81.9579C13.3078 82.0044 13.2383 81.9928 13.1967 81.9579C13.2175 81.9951 13.1272 81.9998 13.1967 82.0742C13.331 82.0928 13.3634 82.037 13.3472 81.9183C13.3842 81.9183 13.4004 81.9672 13.4189 81.9881C13.4085 81.929 13.386 81.8726 13.353 81.8226C13.3199 81.7726 13.2769 81.7299 13.2268 81.6973C13.2846 81.8345 13.2291 81.8043 13.3217 81.9579Z" fill="#FD4C00"/>
<path d="M13.6764 81.2993C13.6647 81.3172 13.658 81.338 13.6572 81.3593C13.6655 81.3456 13.6751 81.3327 13.6859 81.3209L13.6764 81.2993Z" fill="#FD4C00"/>
<path d="M12.2168 82.7143L12.2364 82.7266C12.2291 82.7143 12.2217 82.7094 12.2168 82.7143Z" fill="#FD4C00"/>
<path d="M10.7998 84.2965C10.8346 84.3163 10.8672 84.3397 10.8971 84.3663C10.8322 84.3011 10.8901 84.2103 10.7998 84.2965Z" fill="#FD4C00"/>
<path d="M13.7061 81.2993L13.6846 81.3209C13.6896 81.3373 13.6987 81.3522 13.7109 81.3642C13.6989 81.3305 13.6989 81.3137 13.7061 81.2993Z" fill="#FD4C00"/>
<path d="M15.3141 88.2939L15.209 88.3669C15.2476 88.3483 15.2831 88.3237 15.3141 88.2939Z" fill="#FD4C00"/>
<path d="M6.85096 88.1019L6.83664 88.0684C6.83426 88.0747 6.83442 88.0818 6.83708 88.088C6.83975 88.0943 6.84472 88.0993 6.85096 88.1019Z" fill="#FD4C00"/>
<path d="M14.9459 88.6271C14.9109 88.6108 14.8724 88.6035 14.8338 88.6059C14.8314 88.6175 14.8314 88.6296 14.8338 88.6412L14.9459 88.6271Z" fill="#FD4C00"/>
<path d="M14.322 81.1317C14.183 81.2597 14.1853 81.3923 14.1043 81.5156L14.0649 81.5319C14.0163 81.483 14.0649 81.3806 14.0649 81.3806C14.0231 81.3668 13.9775 81.3694 13.9376 81.388C13.8976 81.4065 13.8661 81.4397 13.8495 81.4807C13.8495 81.4388 13.8148 81.4179 13.7661 81.39C13.7106 81.4365 13.8101 81.5528 13.699 81.5435C13.6775 81.4838 13.6657 81.4209 13.6642 81.3574C13.6183 81.4469 13.5803 81.5404 13.5508 81.6366C13.4836 81.5901 13.5183 81.511 13.5137 81.4505C13.4535 81.5435 13.3516 81.6692 13.4211 81.7832L13.4929 81.7716C13.4743 81.7995 13.4072 81.7064 13.4141 81.6715C13.4141 81.5459 13.5345 81.6273 13.5647 81.6715L13.5369 81.7297C13.7499 81.8879 13.6758 81.5668 13.8078 81.497C13.824 81.5482 13.8379 81.5994 13.8541 81.6506C13.6111 81.7955 13.4074 81.9985 13.2613 82.2416C13.2034 82.1974 13.1478 82.1555 13.0876 82.1183C13.1061 82.1183 13.1223 82.1183 13.1269 82.0996L13.0204 81.988V82.0741C12.9389 82.0344 12.8458 82.0262 12.7587 82.0508L12.8073 82.2183L12.7008 82.1927L12.7471 82.109C12.636 82.109 12.6915 82.1788 12.7193 82.2439C12.683 82.2227 12.6402 82.2153 12.5989 82.223L12.7054 82.4277C12.629 82.3928 12.5966 82.2951 12.5155 82.3323C12.5642 82.4277 12.6985 82.3928 12.7008 82.5022C12.5896 82.5022 12.5341 82.4347 12.5665 82.5348C12.547 82.5284 12.5296 82.5167 12.5161 82.5012C12.5026 82.4856 12.4936 82.4667 12.49 82.4463C12.5109 82.5301 12.4275 82.5883 12.49 82.679C12.3604 82.6558 12.3997 82.8559 12.2422 82.7302C12.2836 82.8002 12.2984 82.8828 12.2839 82.9629C12.1519 82.7302 12.1496 83.1095 11.9643 82.928C12.0894 83.1211 11.8786 83.1863 11.8879 83.3585C11.8879 83.3422 11.8624 83.3073 11.8879 83.3073C11.8277 83.3492 11.7652 83.3212 11.7073 83.3282C11.8346 83.4539 11.7883 83.5609 11.8277 83.6819C11.6424 83.6284 11.7119 83.5004 11.5706 83.4073C11.6795 83.5027 11.5706 83.6144 11.6818 83.6773C11.559 83.6517 11.6054 83.6773 11.4757 83.6051C11.6285 83.768 11.4595 83.6749 11.5173 83.8099C11.3738 83.7982 11.3552 83.6773 11.3274 83.8099C11.2464 83.7936 11.2556 83.6726 11.2556 83.6726C11.1792 83.7447 11.3344 83.8262 11.3853 83.9053C11.3274 84.0286 11.258 83.8564 11.1676 83.8215C11.1422 83.9076 11.2001 84.0542 11.1514 84.0984C11.1306 84.0798 11.1144 84.0798 11.1028 84.0449C11.1306 84.2055 10.9198 84.2124 10.9499 84.4056C10.9371 84.399 10.9253 84.3903 10.9152 84.38C10.9732 84.4304 11.0253 84.4874 11.0704 84.5498C11.0356 84.5847 11.0704 84.6918 10.9847 84.6173C11.0102 84.601 10.9847 84.5661 10.9847 84.5289V84.5987C10.8504 84.5033 11.0055 84.5126 10.9314 84.4195C10.8897 84.5242 10.8712 84.6964 10.7855 84.7081C10.679 84.594 10.8944 84.5591 10.7322 84.5103L10.8596 84.487C10.628 84.3474 10.9268 84.4568 10.7021 84.3009C10.5562 84.3544 10.6164 84.4661 10.4705 84.5196C10.4937 84.608 10.5539 84.6173 10.5771 84.7057C10.4821 84.957 10.2181 84.473 10.2019 84.7406C10.225 84.85 10.3154 85.0222 10.1625 84.9966L10.1023 84.8267C9.97029 84.8896 10.1648 85.0897 9.96798 85.0594C9.96798 84.9873 10.0398 84.95 10.0097 84.9454C9.85449 84.8779 9.99808 85.0664 9.93092 85.1059L9.8406 84.978C9.71785 85.078 9.609 85.2595 9.47236 85.3642C9.46078 85.3177 9.47236 85.2595 9.40751 85.2362C9.31515 85.3089 9.20888 85.3617 9.09533 85.3914C8.98177 85.421 8.86336 85.4268 8.74747 85.4084L8.72199 85.5643C8.70346 85.5643 8.66873 85.5225 8.67799 85.4899C8.57146 85.4899 8.70578 85.569 8.67799 85.6365C8.6502 85.7039 8.5784 85.5969 8.59693 85.5457C8.46261 85.7226 8.24722 85.9785 8.01331 85.9832V85.9273C7.85351 85.9785 8.0411 86.2415 7.86277 86.2368V86.2019C7.58486 86.3624 7.44127 86.7464 7.16799 86.8744C7.30926 87.0023 6.94797 87.1606 7.19578 87.2676C7.0244 87.4049 6.96418 87.3374 6.83681 87.5934C6.81133 87.6655 6.9804 87.7283 7.00124 87.826L6.86228 87.8121C6.90628 87.8586 6.9526 87.9028 6.99892 87.9447L6.82523 87.9982L6.86228 88.0843C6.8708 88.0646 6.88514 88.048 6.90337 88.0368C6.9216 88.0255 6.94283 88.0202 6.96418 88.0215C7.0244 88.1471 6.86923 88.3333 6.80207 88.3449C6.84793 88.4445 6.89895 88.5416 6.95492 88.6358C6.89934 88.6358 6.87155 88.5893 6.82986 88.5543C6.99892 88.694 6.68858 88.6079 6.84375 88.7382C6.87155 88.7103 6.92713 88.7382 6.95492 88.7382C6.88312 88.8289 6.92944 88.9988 6.99892 89.1058H6.89934C6.97745 89.3426 7.09066 89.5661 7.23515 89.769C7.23515 89.6666 7.39032 89.6061 7.43664 89.6596L7.32316 89.7597C7.42274 89.7597 7.33474 89.6666 7.47601 89.6922C7.50843 89.7759 7.36716 89.8318 7.29536 89.8109L7.4019 89.8807C7.36716 89.9109 7.33242 89.8993 7.28147 89.9249C7.38337 89.9109 7.28147 90.1831 7.44822 90.1436L7.41579 90.1762C7.53814 90.3218 7.68091 90.4488 7.83961 90.5531C7.92762 90.46 7.96931 90.5368 8.07121 90.4949C8.1708 90.6253 8.22869 90.7858 8.42092 90.8859C8.56682 90.8859 8.50429 90.8067 8.58998 90.7649C8.54598 90.8719 8.71968 90.9417 8.58998 90.9789C8.77287 91.0525 8.97233 91.0742 9.16666 91.0418C9.14581 90.9882 9.12034 90.9603 9.14581 90.9254C9.17129 90.8905 9.24308 90.9976 9.22687 91.0511H9.21297C9.50478 90.944 9.98882 91.449 10.1857 91.1465L10.1741 91.1604C10.2505 91.0999 10.3246 91.0418 10.4057 90.9813C10.5215 90.9813 10.3594 91.0836 10.4613 91.1325C10.6674 90.8742 10.8805 91.0185 11.0125 90.8254C11.2881 91.0906 11.5011 90.5927 11.7767 90.7067L11.7327 90.6369C11.7466 90.5438 11.8115 90.6532 11.8555 90.6532C11.8231 90.5973 11.7721 90.6113 11.7837 90.5578C12.1427 90.2716 12.6684 90.2436 13.1084 90.0552C13.2682 89.9854 12.9741 89.6503 13.2566 89.7015L13.2844 89.8597C13.4743 89.527 13.8704 89.4804 14.058 89.1617C14.058 89.2012 14.0881 89.2384 14.058 89.2571C14.1807 89.3059 14.2733 89.1035 14.2178 89.0244C14.2641 89.0011 14.2757 89.0825 14.3289 89.0988C14.4262 89.0988 14.3845 88.8778 14.4818 88.9383C14.498 88.9499 14.4818 88.9802 14.4818 88.9941C14.4818 88.9243 14.6624 88.8708 14.5466 88.7987C14.6833 88.7661 14.6948 88.6009 14.8199 88.5939C14.7782 88.445 15.0283 88.5032 14.9125 88.3403C15.0422 88.5008 15.1858 88.3147 15.1789 88.189C15.202 88.2519 15.2738 88.189 15.3086 88.2728C15.3734 88.21 15.4082 88.1239 15.3248 88.0587C15.6189 88.1192 15.422 87.6794 15.7115 87.8377C15.8107 87.5902 15.9267 87.35 16.0589 87.1187C16.2095 87.2629 15.8945 87.3304 16.0589 87.4677C16.1562 87.235 16.1029 87.021 16.2905 86.8813C16.3507 86.8534 16.3392 86.9628 16.3531 87C16.4364 86.7673 16.6449 86.6626 16.6819 86.4323C16.6891 86.4422 16.6942 86.4535 16.697 86.4655C16.6998 86.4775 16.7002 86.4899 16.6981 86.5021C16.719 86.4648 16.7792 86.4439 16.6981 86.3927V86.4392C16.5522 86.4067 16.5684 86.1437 16.5129 86.0949C16.6912 86.3089 16.6819 85.9739 16.8927 86.2577C16.8928 86.2338 16.8865 86.2103 16.8742 86.1898C16.8619 86.1692 16.8443 86.1525 16.8232 86.1414C16.8603 86.1205 16.8973 86.1414 16.932 86.2042C16.9737 86.0576 16.8626 86.0413 16.932 85.9366C16.9691 85.9622 16.9691 85.9948 17.0038 86.0367C16.9691 85.9297 16.9367 85.8296 17.0247 85.7575C17.0455 85.7784 17.0803 85.7877 17.0641 85.8156C17.1544 85.6458 17.0363 85.4177 17.2169 85.2898C17.3536 85.4457 17.3096 85.2572 17.4624 85.3317L17.4763 85.2013H17.3813C17.4369 85.1129 17.3605 84.9687 17.4485 84.9198L17.4786 85.0175C17.4948 84.9547 17.518 84.8919 17.5296 84.8267C17.4971 84.8536 17.4631 84.8785 17.4277 84.9012C17.3883 84.7732 17.2308 84.8267 17.3211 84.7243C17.3211 84.7546 17.3582 84.6359 17.4694 84.6196C17.4392 84.5568 17.3952 84.4917 17.4694 84.4358C17.5273 84.4358 17.6454 84.5033 17.6824 84.5033C17.5666 84.4149 17.7079 84.2543 17.5736 84.1612C17.6143 84.1882 17.6615 84.2034 17.7102 84.2055L17.606 84.1426C17.6523 84.1031 17.6685 84.0984 17.738 84.1194C17.7797 83.9797 17.5203 84.1194 17.6361 83.9774C17.6361 83.9914 17.6593 83.9774 17.6732 84.017C17.7473 83.8518 17.6361 83.6842 17.6894 83.5307C17.8584 83.4795 17.7334 83.6726 17.877 83.6168C17.8445 83.3678 17.6454 83.1514 17.6268 82.9187V82.9629C17.3952 82.9955 17.6963 82.7721 17.5504 82.6953C17.5759 82.7163 17.6871 82.6837 17.6593 82.6953C17.643 82.5324 17.4786 82.4138 17.2957 82.2649H17.3628C17.3628 82.1532 17.2493 82.0508 17.2123 81.9531C17.1451 81.9717 17.115 81.9251 17.0687 82.0089C17.1405 81.5435 16.6055 81.7878 16.4966 81.4039C16.5175 81.4155 16.7282 81.4039 16.3392 81.3225C16.3091 81.4225 16.3392 81.3923 16.3392 81.4877C16.3156 81.5081 16.2876 81.5225 16.2574 81.5298C16.2272 81.5371 16.1956 81.537 16.1655 81.5296C16.2813 81.5016 16.2373 81.3737 16.2164 81.2969C16.2164 81.3271 16.184 81.355 16.1747 81.3876C16.1377 81.1712 16.0821 81.5715 15.9848 81.4062L16.0126 81.3551C15.9478 81.3551 15.8783 81.4202 15.8273 81.3853C15.8273 81.262 15.8991 81.3504 15.9316 81.255C15.8436 81.2317 15.7 81.4342 15.6629 81.2992C15.7069 81.2736 15.7579 81.2829 15.8019 81.2597C15.7509 81.1014 15.7301 81.134 15.6722 81.0968C15.6143 81.0595 15.5842 81.0386 15.5355 81.0107L15.5703 81.0549C15.4128 81.3551 15.3387 81.0782 15.1766 81.2876C15.3248 81.0991 15.2043 81.1759 15.2206 81.0386C15.1835 80.9967 15.1233 80.9525 15.1418 80.913C15.0677 81.02 15.0144 80.8269 14.9102 80.9921C14.9102 80.9479 14.8315 80.9921 14.8407 80.8804C14.7435 80.9176 14.8685 80.9548 14.8639 81.0107C14.7967 81.0875 14.711 81.0595 14.6091 81.0316C14.5573 81.0107 14.4997 81.0093 14.4469 81.0277C14.3942 81.0461 14.3498 81.083 14.322 81.1317ZM13.8866 81.4784C13.9204 81.5038 13.9462 81.5386 13.9607 81.5784L13.8727 81.6319C13.8657 81.5877 13.8704 81.5389 13.8866 81.4784ZM9.4492 85.3922L9.4932 85.3619L9.45152 85.3945L9.4492 85.3922ZM9.25929 85.4899C9.2887 85.4805 9.31735 85.4688 9.34498 85.455C9.37278 85.4922 9.38436 85.5364 9.36351 85.5434C9.3612 85.5108 9.3033 85.5085 9.25466 85.4899H9.25929ZM16.6703 81.7297C16.6512 81.7609 16.6295 81.7905 16.6055 81.8181L16.5453 81.7762C16.5601 81.7592 16.5788 81.7462 16.5998 81.7381C16.6208 81.7299 16.6434 81.7271 16.6657 81.7297H16.6703ZM14.5072 81.3876L14.4239 81.4062C14.4245 81.3646 14.4357 81.3237 14.4563 81.2876C14.4771 81.3201 14.491 81.355 14.5096 81.3876H14.5072Z" fill="#FD4C00"/>
<path d="M6.80469 87.7945L6.8381 87.7969L6.81185 87.7681L6.80469 87.7945Z" fill="#FD4C00"/>
<path d="M15.6724 81.1095L15.5977 81.0483C15.62 81.0717 15.6451 81.0922 15.6724 81.1095Z" fill="#FD4C00"/>
<path d="M15.2326 80.9897C15.2311 81.0089 15.2311 81.0282 15.2326 81.0474V80.9897Z" fill="#FD4C00"/>
<path d="M16.7101 86.5142C16.7088 86.5195 16.7088 86.5252 16.7101 86.5305C16.7032 86.575 16.7101 86.5493 16.7101 86.5142Z" fill="#FD4C00"/>
<path d="M17.4883 84.6362C17.5025 84.6625 17.5143 84.6901 17.5233 84.7186C17.5443 84.688 17.5584 84.6621 17.4883 84.6362Z" fill="#FD4C00"/>
<path d="M17.4855 84.8072C17.5003 84.7982 17.5119 84.7847 17.5187 84.7686C17.5254 84.7525 17.5269 84.7347 17.5229 84.7178C17.5103 84.7288 17.5004 84.7426 17.494 84.7581C17.4875 84.7736 17.4846 84.7904 17.4855 84.8072Z" fill="#FD4C00"/>
<path d="M13.2891 81.5606C13.2891 81.5606 13.2891 81.5606 13.2891 81.5777L13.3012 81.5483L13.2891 81.5606Z" fill="#FD4C00"/>
<path d="M13.3008 81.5762V81.6074C13.3008 81.6074 13.3079 81.5906 13.3008 81.5762Z" fill="#FD4C00"/>
<path d="M13.2947 81.6064C13.2804 81.6209 13.2613 81.6353 13.278 81.6713L13.2947 81.6064Z" fill="#FD4C00"/>
<path d="M13.8564 81.1624V81.1997C13.8564 81.1228 14.0301 81.2392 14.0394 81.1554C14.0023 81.1577 13.9051 81.1088 13.8564 81.1624Z" fill="#FD4C00"/>
<path d="M17.7849 83.7718L17.8619 83.7107L17.7568 83.6777L17.7849 83.7718Z" fill="#FD4C00"/>
<path d="M179.635 187.747L179.579 187.665C179.593 187.695 179.612 187.723 179.635 187.747Z" fill="#EBEBEB"/>
<path d="M179.655 180.957L179.684 180.94C179.678 180.939 179.672 180.94 179.666 180.943C179.661 180.946 179.657 180.951 179.655 180.957Z" fill="#EBEBEB"/>
<path d="M179.366 187.502C179.379 187.469 179.385 187.433 179.384 187.397C179.374 187.402 179.365 187.409 179.356 187.418L179.366 187.502Z" fill="#EBEBEB"/>
<path d="M184.82 133.164C209.22 108.649 209.22 68.9027 184.82 44.388C160.42 19.8733 120.86 19.8733 96.4602 44.388C72.0603 68.9028 72.0603 108.649 96.4602 133.164C120.86 157.678 160.42 157.678 184.82 133.164Z" fill="#35375B"/>
<path d="M87.9969 50.8896C87.7411 50.8796 87.4858 50.9215 87.2465 51.013C86.6351 51.2014 85.9519 51.4527 85.7064 52.0438C85.4447 52.6767 85.8176 53.398 86.297 53.8843C86.7063 54.3315 87.2508 54.6308 87.8464 54.7359C88.143 54.7824 88.4466 54.7453 88.7235 54.6286C89.0003 54.5119 89.2394 54.3203 89.4143 54.0751C89.8913 53.3212 89.4976 52.3207 88.9928 51.5854C88.9812 51.5854 88.2401 50.9152 87.9969 50.8896Z" fill="white"/>
<path d="M100.175 62.9452C99.9188 62.9355 99.6637 62.9774 99.4243 63.0686C98.8128 63.257 98.1296 63.5083 97.8842 64.0994C97.6224 64.7323 97.9953 65.4559 98.4747 65.9399C98.8843 66.3867 99.4287 66.6859 100.024 66.7915C100.321 66.8385 100.625 66.8016 100.902 66.6849C101.18 66.5682 101.419 66.3763 101.594 66.1307C102.069 65.3768 101.675 64.3762 101.173 63.641C101.173 63.641 100.429 62.9708 100.175 62.9452Z" fill="white"/>
<path d="M109.116 75.0869C108.86 75.0768 108.605 75.1188 108.366 75.2102C107.754 75.3987 107.069 75.65 106.823 76.241C106.562 76.8739 106.937 77.5953 107.416 78.0816C107.825 78.5282 108.369 78.8274 108.963 78.9332C109.26 78.9802 109.564 78.9432 109.842 78.8265C110.119 78.7098 110.358 78.518 110.533 78.2724C111.011 77.5185 110.615 76.5179 110.112 75.7826C110.112 75.7826 109.369 75.1125 109.116 75.0869Z" fill="white"/>
<path d="M89.0442 81.6137C88.2985 81.8464 87.4462 82.1652 87.423 83.0866C87.4175 83.4566 87.5421 83.8167 87.7751 84.1034C88.3378 84.8341 89.2179 85.4995 90.2161 85.3274C90.4133 85.299 90.6024 85.2298 90.7715 85.1241C90.9407 85.0184 91.086 84.8784 91.1984 84.7132C91.3108 84.548 91.3878 84.3611 91.4244 84.1644C91.461 83.9677 91.4565 83.7654 91.4111 83.5706C91.3362 83.1735 91.1582 82.8034 90.8951 82.4977C90.6319 82.192 90.293 81.9617 89.9127 81.8301C89.5282 81.6951 89.1554 81.5788 89.0442 81.6137Z" fill="white"/>
<path d="M86.9018 67.4451C86.1561 67.6778 85.3038 67.9966 85.2667 68.918C85.262 69.2883 85.3875 69.6484 85.6211 69.9349C86.1838 70.6655 87.0639 71.331 88.0621 71.1588C88.2593 71.1305 88.4484 71.0613 88.6176 70.9555C88.7867 70.8498 88.932 70.7099 89.0444 70.5447C89.1568 70.3794 89.2338 70.1925 89.2704 69.9958C89.307 69.7991 89.3025 69.5969 89.2571 69.402C89.1814 69.0053 89.003 68.6356 88.74 68.3301C88.477 68.0246 88.1385 67.794 87.7587 67.6615C87.3858 67.5173 87.013 67.4102 86.9018 67.4451Z" fill="white"/>
<path d="M91.7211 59.9481C91.5423 59.9373 91.3632 59.9642 91.1954 60.0273C90.8094 60.1151 90.4708 60.3466 90.2478 60.6751C90.0247 61.0036 89.9339 61.4049 89.9934 61.798C90.2042 63.0871 91.8323 63.6036 92.7841 62.7287C93.736 61.8538 92.9764 60.0156 91.7211 59.9481Z" fill="white"/>
<path d="M98.9399 53.1376C98.761 53.1267 98.5819 53.1537 98.4141 53.2167C98.0281 53.3045 97.6895 53.536 97.4665 53.8646C97.2435 54.1931 97.1526 54.5943 97.2122 54.9875C97.4229 56.2765 99.051 56.7931 99.9913 55.9182C100.932 55.0433 100.195 53.2051 98.9399 53.1376Z" fill="white"/>
<path d="M93.3233 74.2651C93.1452 74.2541 92.9668 74.281 92.7999 74.3442C92.4138 74.432 92.0753 74.6635 91.8522 74.9921C91.6292 75.3206 91.5384 75.7218 91.5979 76.115C91.8087 77.4017 93.4345 77.9206 94.3886 77.0457C95.3428 76.1708 94.5878 74.3419 93.3233 74.2651Z" fill="white"/>
<path d="M109.491 65.2744C109.313 65.2646 109.135 65.2915 108.968 65.3536C108.582 65.4419 108.243 65.6738 108.02 66.0028C107.797 66.3317 107.706 66.7332 107.766 67.1266C107.977 68.4134 109.602 68.9299 110.557 68.0574C111.511 67.1848 110.747 65.3443 109.491 65.2744Z" fill="white"/>
<path d="M83.4415 88.3197C83.2627 88.3089 83.0836 88.3358 82.9158 88.3988C82.5302 88.4872 82.1922 88.7189 81.9696 89.0473C81.7471 89.3758 81.6565 89.7768 81.7161 90.1696C81.9246 91.4563 83.5527 91.9752 84.5069 91.1003C85.461 90.2254 84.6968 88.3872 83.4415 88.3197Z" fill="white"/>
<path d="M100.135 81.5067C99.9494 81.5023 99.7652 81.5347 99.5926 81.6021C99.1939 81.6988 98.8441 81.9386 98.6091 82.2763C98.3741 82.614 98.27 83.0263 98.3165 83.4357C98.5018 84.7434 100.169 85.2297 101.163 84.3269C102.156 83.4241 101.429 81.5463 100.135 81.5067Z" fill="white"/>
<path d="M93.7566 90.4904C93.5777 90.4814 93.3988 90.5091 93.2309 90.5719C92.8447 90.6592 92.506 90.8906 92.2833 91.2194C92.0605 91.5481 91.9704 91.9496 92.0312 92.3426C92.2396 93.6293 93.8678 94.1459 94.8104 93.2733C95.7529 92.4008 95.0118 90.5532 93.7566 90.4904Z" fill="white"/>
<path d="M107.329 56.7861C107.15 56.7751 106.971 56.802 106.803 56.8652C106.417 56.953 106.078 57.1845 105.855 57.513C105.632 57.8416 105.541 58.2428 105.601 58.6359C105.812 59.925 107.44 60.4416 108.392 59.5667C109.343 58.6918 108.581 56.8536 107.329 56.7861Z" fill="white"/>
<path d="M106.029 87.8935C105.85 87.8839 105.671 87.9108 105.503 87.9726C105.117 88.061 104.779 88.293 104.556 88.622C104.333 88.951 104.243 89.3525 104.303 89.7457C104.512 91.0324 106.14 91.549 107.083 90.6764C108.025 89.8039 107.284 87.961 106.029 87.8935Z" fill="white"/>
<path d="M83.1866 61.3584C83.0086 61.3486 82.8305 61.3755 82.6632 61.4375C82.277 61.5259 81.9384 61.7578 81.7154 62.0867C81.4924 62.4157 81.4016 62.8172 81.4612 63.2106C81.6697 64.4974 83.2978 65.0139 84.2519 64.1414C85.2061 63.2688 84.4419 61.4259 83.1866 61.3584Z" fill="white"/>
<path d="M101.694 75.145C102.298 74.7099 102.62 73.9257 102.157 73.1764C102.076 73.0419 101.972 72.9223 101.851 72.8228C101.551 72.3918 101.1 72.0909 100.589 71.9804C100.473 71.9373 100.353 71.9084 100.23 71.8943C99.2595 71.792 98.6226 72.6762 98.5555 73.5743C98.5409 73.6737 98.5355 73.7742 98.5393 73.8745C98.5504 74.1449 98.6235 74.4091 98.7529 74.6465C98.8822 74.8839 99.0643 75.0881 99.2851 75.2432C99.5058 75.3983 99.7592 75.5002 100.025 75.5409C100.292 75.5815 100.564 75.5599 100.82 75.4777C100.979 75.4608 101.135 75.4224 101.284 75.3637C101.431 75.3125 101.569 75.2387 101.694 75.145Z" fill="white"/>
<path d="M80.6901 73.5233C81.2969 73.0881 81.6165 72.304 81.1533 71.5547C81.0707 71.4199 80.9667 71.2997 80.8453 71.1987C80.5452 70.7693 80.0955 70.4687 79.5854 70.3564C79.4692 70.3146 79.3488 70.2858 79.2264 70.2703C78.2537 70.1679 77.6053 71.0521 77.5497 71.9503C77.5373 72.0499 77.5319 72.1502 77.5335 72.2505C77.5447 72.5209 77.6179 72.7851 77.7472 73.0225C77.8765 73.2599 78.0586 73.4642 78.2792 73.6195C78.4999 73.7748 78.7532 73.8769 79.0195 73.9179C79.2857 73.959 79.5579 73.9378 79.8147 73.856C79.9734 73.8389 80.1292 73.8005 80.2779 73.742C80.4256 73.6908 80.5647 73.617 80.6901 73.5233Z" fill="white"/>
<path d="M81.5541 78.1791C81.4526 78.0584 81.3255 77.962 81.182 77.8971C81.0385 77.8323 80.8823 77.8007 80.725 77.8045C80.5912 77.8099 80.4591 77.8366 80.3336 77.8836C80.0915 77.9194 79.8622 78.0157 79.6667 78.1637C79.4713 78.3117 79.316 78.5066 79.215 78.7306C79.1762 78.7919 79.1414 78.8556 79.1108 78.9214C79.034 79.0914 78.9907 79.2747 78.9834 79.4612C78.9398 79.5585 78.9157 79.6634 78.9125 79.77C78.9093 79.8766 78.9271 79.9828 78.9649 80.0825C78.9902 80.1498 79.0204 80.2151 79.0552 80.278C79.2683 81.3367 80.4147 81.7648 81.4221 81.4018C82.6241 80.969 83.1961 79.5171 82.1169 78.5398C81.9515 78.3878 81.7611 78.2658 81.5541 78.1791Z" fill="white"/>
<path d="M175.038 39.9326C174.827 40.0781 174.647 40.2639 174.508 40.4794C174.128 40.9959 173.727 41.6079 173.88 42.2315C174.044 42.8947 174.774 43.253 175.446 43.3554C176.038 43.4729 176.653 43.3911 177.194 43.1227C177.46 42.983 177.683 42.7718 177.837 42.5125C177.99 42.2533 178.069 41.9562 178.065 41.6544C178 40.7633 177.092 40.1955 176.249 39.9047C176.249 39.8953 175.258 39.8023 175.038 39.9326Z" fill="white"/>
<path d="M194.089 63.9874C193.626 64.6157 193.133 65.3836 193.649 66.1468C193.863 66.4476 194.177 66.6627 194.534 66.7541C195.421 67.0054 196.516 67.0054 197.222 66.2887C197.364 66.148 197.475 65.9792 197.548 65.793C197.622 65.6069 197.656 65.4074 197.648 65.2074C197.64 65.0074 197.591 64.8111 197.504 64.6311C197.417 64.4512 197.293 64.2914 197.141 64.162C196.846 63.8881 196.484 63.6974 196.091 63.6092C195.699 63.5209 195.29 63.5382 194.907 63.6594C194.531 63.7641 194.158 63.8944 194.089 63.9874Z" fill="white"/>
<path d="M168.935 49.5005C168.724 49.6457 168.544 49.8325 168.407 50.0496C168.027 50.5638 167.627 51.1758 167.779 51.7994C167.944 52.4626 168.671 52.8209 169.345 52.9233C169.937 53.042 170.552 52.9602 171.094 52.6906C171.359 52.5506 171.581 52.3392 171.735 52.08C171.888 51.8208 171.967 51.5239 171.962 51.2223C171.897 50.3312 170.989 49.7634 170.149 49.4725C170.149 49.4632 169.155 49.3678 168.935 49.5005Z" fill="white"/>
<path d="M183.973 53.8846C183.51 54.5128 183.016 55.2807 183.533 56.0439C183.749 56.3441 184.063 56.559 184.42 56.6512C185.307 56.9025 186.402 56.9025 187.106 56.1742C187.249 56.034 187.36 55.8655 187.434 55.6795C187.507 55.4935 187.542 55.294 187.534 55.0939C187.526 54.8939 187.477 54.6976 187.389 54.5178C187.302 54.338 187.178 54.1786 187.025 54.0498C186.73 53.7755 186.368 53.5845 185.975 53.4963C185.583 53.408 185.174 53.4256 184.79 53.5472C184.411 53.6612 184.042 53.7892 183.973 53.8846Z" fill="white"/>
<path d="M183.414 44.9772C183.265 45.0759 183.137 45.2042 183.039 45.3542C182.781 45.656 182.646 46.0446 182.661 46.4422C182.677 46.8397 182.841 47.2166 183.122 47.4972C184.048 48.407 185.67 47.8486 185.922 46.5828C186.175 45.317 184.454 44.2815 183.414 44.9772Z" fill="white"/>
<path d="M193.188 55.5251C193.039 55.6238 192.911 55.752 192.813 55.902C192.555 56.2039 192.42 56.5928 192.436 56.9905C192.452 57.3882 192.617 57.765 192.899 58.0451C193.825 58.9549 195.446 58.3964 195.696 57.1306C195.946 55.8648 194.237 54.8294 193.188 55.5251Z" fill="white"/>
<path d="M175.288 69.3791C175.137 69.4765 175.01 69.605 174.913 69.756C174.654 70.0575 174.519 70.4463 174.534 70.844C174.55 71.2417 174.715 71.6187 174.996 71.899C175.922 72.8065 177.544 72.2504 177.796 70.9846C178.048 69.7188 176.335 68.681 175.288 69.3791Z" fill="white"/>
<path d="M193.56 72.7275C193.41 72.8249 193.282 72.9534 193.185 73.1044C192.927 73.406 192.791 73.7947 192.807 74.1924C192.822 74.5901 192.987 74.9671 193.268 75.2475C194.195 76.1549 195.816 75.5965 196.066 74.333C196.316 73.0695 194.607 72.0317 193.56 72.7275Z" fill="white"/>
<path d="M183.169 77.7834C183.019 77.8821 182.892 78.0103 182.793 78.1603C182.535 78.4622 182.4 78.8511 182.416 79.2488C182.432 79.6465 182.598 80.0233 182.879 80.3034C183.805 81.2108 185.427 80.6547 185.677 79.3889C185.927 78.1231 184.218 77.0877 183.169 77.7834Z" fill="white"/>
<path d="M177.393 51.213C177.244 51.3125 177.116 51.4416 177.018 51.5923C176.76 51.8937 176.625 52.282 176.641 52.6791C176.656 53.0762 176.821 53.4528 177.101 53.733C178.028 54.6428 179.649 54.0844 179.901 52.8209C180.154 51.5574 178.433 50.5173 177.393 51.213Z" fill="white"/>
<path d="M182.583 62.4823C182.815 61.7703 182.609 60.9466 181.796 60.6208C181.648 60.5621 181.491 60.5283 181.333 60.5208C180.837 60.3529 180.297 60.3803 179.82 60.5976C179.702 60.6336 179.588 60.6828 179.48 60.7441C178.639 61.2421 178.653 62.3334 179.13 63.0943C179.177 63.1828 179.232 63.2669 179.295 63.3456C179.52 63.5377 179.783 63.6795 180.067 63.7617C180.35 63.8439 180.648 63.8646 180.941 63.8223C181.233 63.7801 181.513 63.6759 181.762 63.5167C182.012 63.3575 182.224 63.1469 182.386 62.8988C182.473 62.7708 182.539 62.6304 182.583 62.4823Z" fill="white"/>
<path d="M186.036 65.7074C185.882 65.6712 185.723 65.6697 185.569 65.7031C185.415 65.7365 185.271 65.804 185.146 65.9006C185.042 65.9858 184.952 66.0871 184.88 66.2007C184.706 66.374 184.579 66.5886 184.51 66.8245C184.44 67.0604 184.431 67.31 184.484 67.5503C184.486 67.6224 184.496 67.694 184.512 67.7644C184.55 67.9478 184.624 68.1217 184.729 68.2763C184.77 68.4826 184.891 68.6641 185.065 68.7812C185.125 68.8211 185.188 68.8561 185.253 68.8859C186.052 69.6096 187.228 69.2698 187.823 68.374C188.532 67.3083 188.132 65.7982 186.689 65.6562C186.47 65.635 186.249 65.6523 186.036 65.7074Z" fill="white"/>
<path d="M170.357 60.3343C170.297 60.5118 170.269 60.6985 170.273 60.8858C170.249 60.9736 170.244 61.0655 170.257 61.1557C170.269 61.2305 170.29 61.3039 170.317 61.3744C170.387 61.7343 170.546 62.0707 170.781 62.3517C170.951 62.5916 171.18 62.7833 171.446 62.908C171.712 63.0328 172.005 63.0864 172.298 63.0637C172.58 63.0383 172.851 62.9407 173.085 62.7802C173.318 62.6197 173.508 62.4017 173.634 62.1469C173.728 62.0671 173.813 61.9774 173.889 61.8793C175.565 59.706 170.746 58.282 170.357 60.3343Z" fill="white"/>
<path d="M171.573 100.678C167.652 96.338 161.79 95.3259 161.79 95.3259L158.298 94.6604L153.055 91.8379L140.692 117.312L127.808 91.9054L122.577 94.7418L117.746 95.9657C117.746 95.9657 113.345 96.4544 109.443 100.815C107.261 103.253 102.358 121.077 98.4629 136.306C102.297 139.558 106.489 142.358 110.957 144.651C113.181 138.992 115.969 132.279 116.444 128.595C117.906 135.11 118.981 141.705 119.663 148.348C133.392 152.989 148.261 152.948 161.964 148.229C162.89 140.125 164.63 133.763 165.005 128.511L165.072 128.06C165.568 131.783 168.314 138.764 170.521 144.562C174.9 142.297 179.012 139.544 182.778 136.355C178.803 121.093 173.778 103.118 171.573 100.678Z" fill="#F4F1F1"/>
<path d="M140.692 117.312L128.077 92.3752C128.077 92.3752 132.106 92.3752 132.769 88.7896C133.165 86.7452 133.341 84.6637 133.292 82.5815C133.292 82.5815 128.92 79.3541 127.502 75.3682C127.502 75.3682 125.418 76.3851 124.341 73.7557C124.341 73.7557 123.12 68.4296 129.221 63.8968C135.321 59.3641 141.826 56.1763 144.434 52.1904C144.434 52.1904 145.657 57.6516 150.5 62.026C155.342 66.4005 156.635 72.2642 156.171 75.0309C155.899 75.3344 155.538 75.544 155.14 75.63C154.742 75.716 154.328 75.6741 153.955 75.5102C153.955 75.5102 151.148 80.3733 148.397 82.1999C148.397 82.1999 146.4 89.9623 152.797 92.715L140.692 117.312Z" fill="#FFA17A"/>
<path d="M126.743 81.1131C125.529 79.0934 121.277 69.893 129.221 63.8944C137.164 57.8958 141.264 56.7161 144.434 52.188C144.434 52.188 146.229 58.289 152.285 64.1434C158.342 69.9978 155.743 78.9189 155.743 78.9189C155.743 78.9189 158.865 79.1144 158.833 64.8461C158.802 51.9925 155.268 47.653 155.268 47.653C155.268 47.653 143.383 33.0403 127.766 44.6816C123.975 47.5064 121.379 53.6981 121.678 68.576C121.905 79.9102 126.743 81.1131 126.743 81.1131Z" fill="#FFE7DF"/>
<path d="M130.641 97.1592C130.641 97.1592 134.877 101.334 140.451 101.32C146.026 101.306 150.528 97.3826 150.528 97.3826L140.692 117.312L130.641 97.1592Z" fill="#FD4C00"/>
<path d="M128.337 82.9747C124.316 78.5234 122.954 71.4195 125.363 67.4639C126.002 66.4145 126.813 65.521 127.834 64.4995C128.905 63.4084 130.048 62.3908 131.255 61.4536C132.763 60.3498 134.333 59.3351 135.958 58.4147C137.348 57.598 138.775 56.751 140.092 55.797C142.408 54.1147 145.303 51.3388 145.824 47.667L146.519 47.7647C145.963 51.6808 142.941 54.6034 140.498 56.3741C139.154 57.3444 137.719 58.2007 136.313 59.0267C134.712 59.933 133.166 60.9321 131.681 62.019C130.499 62.9375 129.38 63.9348 128.332 65.0044C127.345 65.9887 126.565 66.8473 125.963 67.8385C123.7 71.5615 125.036 78.2721 128.858 82.514L128.337 82.9747Z" fill="#35375B"/>
<path d="M153.889 85.1247L153.263 84.8246C156.39 78.2372 156.35 71.7942 154.986 68.6087C154.134 66.6099 152.589 64.9648 151.093 63.3756C150.517 62.7636 149.921 62.1307 149.37 61.4815C147.876 59.7294 146.621 57.7702 145.41 55.8738C144.819 54.9431 144.02 53.6935 144.101 52.3184L144.796 52.3649C144.727 53.4236 145.296 54.4102 145.994 55.4968C147.193 57.3723 148.435 59.3129 149.898 61.0278C150.438 61.663 151.028 62.2889 151.598 62.8893C153.136 64.5181 154.725 66.2144 155.626 68.3271C157.048 71.6662 157.11 78.3419 153.889 85.1247Z" fill="#35375B"/>
<path d="M140.525 73.3487C139.682 73.3487 138.48 73.1719 137.809 72.5087C137.646 72.3515 137.52 72.16 137.44 71.9479C137.36 71.7359 137.328 71.5085 137.346 71.2824C137.428 70.4718 137.563 69.6673 137.749 68.8741C138.193 66.7009 138.802 63.7225 137.779 62.9569C136.755 62.1914 134.435 62.6591 132.318 63.2362L132.135 62.5637C134.527 61.9099 136.917 61.4375 138.196 62.3962C139.571 63.4293 138.939 66.5263 138.427 69.0138C138.249 69.7749 138.119 70.5467 138.038 71.3243C138.025 71.4509 138.042 71.5788 138.086 71.6979C138.131 71.817 138.202 71.9241 138.295 72.0107C138.812 72.525 140.004 72.7088 140.912 72.6367L140.972 73.3347C140.843 73.3347 140.69 73.3487 140.525 73.3487Z" fill="#35375B"/>
<path d="M131.284 66.2912L130.909 65.7025C131.836 65.1091 133.707 64.7717 134.821 65.2138L134.566 65.863C133.749 65.5419 132.123 65.7537 131.284 66.2912Z" fill="#35375B"/>
<path d="M134.084 67.5176C133.874 67.519 133.666 67.4723 133.476 67.3813C133.287 67.2902 133.12 67.157 132.989 66.9918C132.676 66.5846 132.581 65.8981 133.318 65.2792C133.739 64.8906 134.575 65.093 134.835 65.2443C135 65.3517 135.136 65.4979 135.232 65.6704C135.328 65.8428 135.381 66.0362 135.385 66.2337C135.39 66.4312 135.346 66.6268 135.258 66.8035C135.17 66.9803 135.041 67.1328 134.881 67.2477C134.652 67.4234 134.372 67.5183 134.084 67.5176ZM133.804 65.7841C133.6 65.9447 133.302 66.2495 133.538 66.5659C133.647 66.7017 133.804 66.7904 133.976 66.8137C134.148 66.8371 134.323 66.7934 134.464 66.6916C134.533 66.6463 134.59 66.5851 134.63 66.5132C134.67 66.4413 134.693 66.3607 134.696 66.2783C134.699 66.1958 134.682 66.1138 134.647 66.0391C134.612 65.9645 134.56 65.8994 134.494 65.8493C134.279 65.7547 134.041 65.7287 133.811 65.7748L133.804 65.7841Z" fill="#35375B"/>
<path d="M147.687 66.2518C146.844 65.719 145.218 65.5142 144.403 65.84L144.146 65.1908C145.257 64.744 147.128 65.0721 148.057 65.6562L147.687 66.2518Z" fill="#35375B"/>
<path d="M144.879 67.4825C144.594 67.4827 144.316 67.3896 144.087 67.2172C143.927 67.1026 143.797 66.9505 143.709 66.7742C143.62 66.5979 143.576 66.4026 143.579 66.2052C143.583 66.0077 143.634 65.8141 143.728 65.641C143.823 65.4679 143.958 65.3204 144.122 65.2115C144.381 65.0602 145.215 64.8531 145.639 65.2417C146.38 65.856 146.29 66.5448 145.979 66.952C145.847 67.1175 145.68 67.2511 145.489 67.3429C145.299 67.4348 145.09 67.4824 144.879 67.4825ZM144.981 65.7187C144.807 65.7173 144.633 65.7505 144.472 65.8165C144.412 65.8622 144.363 65.9209 144.328 65.9881C144.294 66.0553 144.275 66.1294 144.272 66.205C144.268 66.2944 144.288 66.3832 144.328 66.4628C144.369 66.5424 144.43 66.6099 144.504 66.6588C144.646 66.7606 144.821 66.8039 144.993 66.7796C145.166 66.7554 145.322 66.6655 145.43 66.5285C145.662 66.219 145.366 65.9049 145.162 65.7466C145.105 65.7234 145.043 65.7138 144.981 65.7187Z" fill="#35375B"/>
<path d="M139.891 78.1326C138.652 78.1531 137.436 77.7988 136.4 77.1158L136.794 76.541C138.841 77.9511 141.82 77.4904 142.971 76.555L143.408 77.0971C142.667 77.6998 141.331 78.1326 139.891 78.1326Z" fill="#35375B"/>
<path d="M141.496 80.9433C140.412 80.1987 138.841 80.436 138.235 80.9293L137.79 80.3848C138.561 79.7589 140.463 79.3913 141.882 80.3686L141.496 80.9433Z" fill="#35375B"/>
<path d="M137.913 149.904L137.848 121.712C137.847 121.658 137.858 121.605 137.882 121.556L152.911 91.3257L153.531 91.6375L138.543 121.794L138.607 149.904H137.913Z" fill="#35375B"/>
<path d="M140.569 120.609L140.053 120.144C145.284 114.273 153.786 108.64 155.551 107.497L152.381 103.472C152.342 103.423 152.318 103.365 152.309 103.304C152.3 103.242 152.308 103.18 152.332 103.122C152.356 103.065 152.394 103.015 152.443 102.977C152.492 102.94 152.551 102.916 152.612 102.909L156.781 102.485L157.939 94.4927L158.634 94.5927L157.446 102.855C157.435 102.932 157.398 103.004 157.343 103.058C157.287 103.112 157.215 103.145 157.138 103.153L153.323 103.539L156.334 107.369C156.364 107.408 156.386 107.452 156.398 107.5C156.41 107.547 156.412 107.597 156.404 107.645C156.395 107.693 156.377 107.739 156.35 107.78C156.323 107.821 156.287 107.855 156.246 107.881C156.151 107.942 146.338 114.141 140.569 120.609Z" fill="#35375B"/>
<path d="M128.017 91.3923L127.396 91.7051L139.425 115.819L140.046 115.506L128.017 91.3923Z" fill="#35375B"/>
<path d="M138.45 118.492C132.88 113.057 124.832 108.005 124.751 107.954C124.71 107.928 124.675 107.895 124.648 107.854C124.62 107.814 124.602 107.769 124.594 107.721C124.585 107.673 124.586 107.623 124.598 107.575C124.61 107.528 124.631 107.483 124.661 107.444L127.658 103.603L123.843 103.235C123.766 103.227 123.693 103.194 123.637 103.14C123.581 103.086 123.544 103.014 123.533 102.937L122.306 94.679L123 94.5767L124.186 102.565L128.355 102.967C128.416 102.975 128.475 102.998 128.524 103.036C128.573 103.073 128.612 103.123 128.635 103.181C128.659 103.238 128.667 103.301 128.658 103.362C128.65 103.424 128.625 103.482 128.587 103.53L125.437 107.572C127.012 108.584 133.946 113.133 138.925 117.994L138.45 118.492Z" fill="#35375B"/>
<path d="M164.715 125.412C164.671 124.03 164.535 122.704 164.403 121.421C164.171 119.129 163.94 116.968 164.278 114.836L164.972 114.943C164.651 116.986 164.871 119.106 165.102 121.349C165.234 122.643 165.373 123.983 165.417 125.389L164.715 125.412Z" fill="#35375B"/>
<path d="M140.185 86.2531H140.106C137.149 86.2136 134.349 83.6936 132.496 82.0346C132.072 81.6506 131.704 81.3225 131.387 81.0642C128.763 78.9468 126.986 75.7962 125.597 70.854L126.266 70.6655C127.602 75.4589 129.316 78.4977 131.824 80.5198C132.155 80.7897 132.519 81.1247 132.961 81.5133C134.738 83.1096 137.42 85.5202 140.118 85.5551H140.187C143.395 85.5551 146.778 82.721 148.807 81.02C149.039 80.8223 149.27 80.6384 149.458 80.4802C151.848 78.5303 153.557 75.5356 154.84 71.0518L155.507 71.2449C154.185 75.8707 152.402 78.9794 149.896 81.0177C149.701 81.1759 149.486 81.3551 149.252 81.5529C147.149 83.3166 143.645 86.2531 140.185 86.2531Z" fill="#35375B"/>
<path d="M118.009 108.829C117.192 105.155 115.886 96.3404 121.367 93.9019L121.65 94.5417C116.638 96.7709 117.907 105.168 118.686 108.677L118.009 108.829Z" fill="#35375B"/>
<path d="M116.212 117.778C115.932 116.807 115.633 115.532 115.804 114.276C115.899 113.509 116.173 112.776 116.604 112.137C117.035 111.497 117.611 110.97 118.285 110.597C118.879 110.262 119.545 110.072 120.226 110.045C120.908 110.018 121.586 110.154 122.206 110.441C123.255 110.934 124.1 111.837 124.952 113.352L124.357 113.687C123.581 112.303 122.831 111.493 121.923 111.067C121.402 110.826 120.832 110.713 120.26 110.737C119.687 110.761 119.129 110.921 118.63 111.204C118.048 111.522 117.55 111.974 117.176 112.524C116.803 113.073 116.565 113.704 116.483 114.364C116.33 115.49 116.608 116.673 116.87 117.578L116.212 117.778Z" fill="#35375B"/>
<path d="M115.093 119.427C114.535 117.689 113.901 115.716 114.181 113.668C114.309 112.637 114.679 111.652 115.26 110.793C115.841 109.934 116.616 109.225 117.523 108.726C118.339 108.267 119.252 108.009 120.187 107.974C121.122 107.938 122.052 108.126 122.9 108.521C125.098 109.554 126.275 111.716 127.382 114.026L126.756 114.331C125.705 112.137 124.596 110.089 122.606 109.154C121.856 108.805 121.034 108.64 120.208 108.672C119.382 108.704 118.575 108.933 117.854 109.34C117.044 109.787 116.35 110.421 115.831 111.19C115.312 111.958 114.983 112.84 114.869 113.761C114.612 115.651 115.218 117.542 115.753 119.211L115.093 119.427Z" fill="#35375B"/>
<path d="M127.178 129.242C123.783 129.242 119.649 127.441 116.249 120.556L116.872 120.246C120.395 127.38 125.441 130.042 131.073 127.736L131.337 128.383C130.019 128.935 128.606 129.226 127.178 129.242Z" fill="#35375B"/>
<path d="M124.424 132.153L124.109 131.529C127.298 129.9 130.189 123.909 126.636 115.706L127.273 115.427C131.006 124.046 127.854 130.396 124.424 132.153Z" fill="#35375B"/>
<path d="M131.099 128.043C131.01 127.884 130.979 127.698 131.012 127.518C131.046 127.338 131.141 127.175 131.282 127.059L132.253 126.256C132.365 126.162 132.497 126.094 132.638 126.057C132.779 126.02 132.927 126.014 133.071 126.04C133.215 126.067 133.351 126.124 133.47 126.209C133.589 126.294 133.688 126.405 133.76 126.533C133.832 126.66 133.876 126.802 133.887 126.949C133.898 127.095 133.878 127.242 133.826 127.38C133.775 127.517 133.694 127.642 133.589 127.744C133.485 127.847 133.359 127.925 133.221 127.974L132.035 128.395C131.863 128.456 131.675 128.455 131.504 128.391C131.332 128.326 131.189 128.203 131.099 128.043Z" fill="#FD4C00"/>
<path d="M123.941 131.932C124.007 132.103 124.011 132.292 123.952 132.465C123.893 132.639 123.775 132.786 123.619 132.881L122.542 133.532C122.418 133.609 122.278 133.657 122.132 133.674C121.987 133.69 121.84 133.674 121.702 133.627C121.563 133.58 121.437 133.503 121.331 133.401C121.225 133.299 121.143 133.176 121.091 133.039C121.038 132.902 121.016 132.755 121.026 132.608C121.036 132.462 121.078 132.319 121.149 132.191C121.219 132.062 121.318 131.951 121.436 131.865C121.554 131.779 121.69 131.72 121.834 131.692L123.068 131.459C123.246 131.423 123.43 131.451 123.589 131.537C123.749 131.623 123.873 131.763 123.941 131.932Z" fill="#FD4C00"/>
<path d="M156.362 121.945L155.711 121.696C155.755 121.582 160.072 110.185 160.537 103.509C161.017 96.6636 158.916 94.3996 158.902 94.3787L159.396 93.8877C159.493 93.9854 161.735 96.3472 161.232 103.558C160.757 110.332 156.406 121.831 156.362 121.945Z" fill="#35375B"/>
<path d="M155.102 129.435C154.308 129.436 153.532 129.2 152.871 128.757C152.211 128.314 151.696 127.685 151.391 126.948C151.087 126.212 151.006 125.401 151.16 124.618C151.314 123.836 151.696 123.116 152.256 122.552C152.817 121.987 153.531 121.601 154.31 121.445C155.088 121.288 155.896 121.366 156.63 121.67C157.364 121.974 157.992 122.49 158.434 123.152C158.877 123.814 159.114 124.593 159.116 125.391C159.117 125.922 159.013 126.447 158.812 126.937C158.611 127.427 158.316 127.873 157.943 128.249C157.57 128.624 157.127 128.922 156.64 129.126C156.153 129.33 155.63 129.435 155.102 129.435ZM155.102 122.066C154.445 122.066 153.802 122.261 153.255 122.628C152.709 122.995 152.283 123.516 152.031 124.126C151.78 124.737 151.714 125.408 151.843 126.056C151.972 126.703 152.289 127.298 152.754 127.765C153.219 128.231 153.812 128.548 154.457 128.676C155.102 128.804 155.77 128.737 156.377 128.483C156.983 128.229 157.502 127.8 157.866 127.25C158.229 126.7 158.423 126.054 158.421 125.394C158.417 124.511 158.066 123.666 157.444 123.042C156.823 122.419 155.981 122.068 155.102 122.066Z" fill="#35375B"/>
<path d="M148.235 62.7498C146.834 61.8586 143.786 61.9075 142.855 62.6125L142.436 62.0564C143.665 61.1257 147.067 61.1815 148.605 62.1611L148.235 62.7498Z" fill="#35375B"/>
<path d="M122.528 78.8445C120.444 75.9825 119.67 73.0809 120.212 70.2235C121.449 63.6687 129.245 58.6986 134.393 55.4107C135.72 54.5638 136.866 53.8331 137.649 53.2305L138.068 53.7889C137.26 54.4102 136.105 55.1478 134.764 56.0041C129.71 59.2268 122.074 64.0992 120.893 70.3584C120.391 73.018 121.125 75.7358 123.091 78.4373L122.528 78.8445Z" fill="#35375B"/>
<path d="M156.797 78.8979L156.234 78.4907C156.262 78.4488 159.217 74.1185 155.892 65.5324L156.54 65.2788C160.023 74.2488 156.931 78.7118 156.797 78.8979Z" fill="white"/>
<path d="M139.8 153.623C127.056 153.62 114.599 149.826 103.999 142.718C93.3999 135.609 85.1335 125.506 80.243 113.683C75.3525 101.86 74.057 88.8459 76.5202 76.2836C78.9833 63.7214 85.0946 52.1736 94.0829 43.0972C100.045 37.0452 107.142 32.2415 114.965 28.9643C122.787 25.6872 131.179 24.0017 139.654 24.0054H139.809C152.553 24.0083 165.01 27.8034 175.609 34.9117C186.208 42.02 194.474 52.1232 199.364 63.9464C204.254 75.7696 205.55 88.7832 203.086 101.345C200.623 113.907 194.512 125.455 185.524 134.531C179.561 140.581 172.463 145.383 164.641 148.658C156.818 151.933 148.427 153.616 139.953 153.611L139.8 153.623ZM139.8 24.6941H139.647C122.724 24.7354 106.51 31.529 94.5717 43.5805C82.6336 55.6319 75.949 71.9543 75.9884 88.9572C76.0694 124.258 104.683 152.913 139.802 152.925H139.95C175.139 152.843 203.699 124.016 203.618 88.6617C203.577 71.6854 196.836 55.4184 184.874 43.4285C172.913 31.4386 156.706 24.7046 139.809 24.7034L139.8 24.6941Z" fill="#35375B"/>
<path d="M9.71781 153.243C9.62749 150.614 11.6169 148.434 13.5113 147.268C14.8199 146.46 16.2696 145.914 17.6801 145.385C17.511 145.153 17.3512 144.92 17.2007 144.687C14.484 140.415 14.3567 134.356 16.8695 128.876C18.2104 125.921 19.9937 123.813 22.1498 122.617C24.8062 121.147 28.0995 121.291 30.163 122.969C33.329 125.54 33.0094 130.47 31.2863 134.214C29.0345 139.052 25.1258 142.915 20.2739 145.097C19.7968 145.309 19.3082 145.504 18.8218 145.693C20.2099 147.199 21.98 148.298 23.9424 148.871C26.6011 149.653 29.1973 149.355 31.2469 148.038C33.0209 146.898 34.1534 145.036 35.2512 143.235C36.5366 141.125 37.8659 138.942 40.2305 137.884C43.0351 136.627 44.5521 138.84 45.3673 140.029L45.4483 140.148C46.0518 140.969 46.9138 141.562 47.8947 141.829C48.8755 142.097 49.9175 142.023 50.8515 141.621C52.0534 141.058 52.9752 139.952 53.8622 138.882C54.9553 137.572 56.0878 136.215 57.7785 135.766C59.4321 135.326 61.0486 135.911 62.6119 136.476C63.6656 136.858 64.7564 137.251 65.8334 137.316L65.7917 138.014C64.6152 137.942 63.4757 137.53 62.3756 137.132C60.8471 136.581 59.402 136.057 57.9545 136.434C56.507 136.811 55.4672 138.04 54.3949 139.324C53.4523 140.453 52.4796 141.618 51.1363 142.247C49.0126 143.238 46.2033 142.479 44.8694 140.536L44.7883 140.418C43.9893 139.254 42.785 137.493 40.5084 138.514C38.3384 139.489 37.1225 141.483 35.8371 143.596C34.7 145.458 33.5212 147.398 31.6152 148.622C29.3918 150.051 26.5965 150.377 23.7409 149.539C21.5697 148.903 19.623 147.66 18.127 145.956L17.9325 146.03C16.5429 146.549 15.1256 147.086 13.8657 147.864C12.138 148.925 10.3223 150.889 10.4033 153.215L9.71781 153.243ZM26.0592 122.296C24.8121 122.3 23.5861 122.62 22.4949 123.227C20.4708 124.348 18.7894 126.349 17.4948 129.17C15.0792 134.438 15.1788 140.241 17.7796 144.315C17.9566 144.595 18.1483 144.865 18.354 145.125C18.9075 144.915 19.4657 144.694 20.003 144.455C24.6965 142.341 28.4774 138.602 30.6563 133.921C32.2636 130.431 32.6017 125.845 29.73 123.508C28.6765 122.695 27.378 122.268 26.0499 122.298L26.0592 122.296Z" fill="#35375B"/>
</svg>
