<svg width="16" height="8" viewBox="0 0 16 8" fill="none" xmlns="http://www.w3.org/2000/svg">
<path d="M14.9159 2.15995C15.2803 1.7922 15.2777 1.19862 14.9099 0.834137C14.5422 0.469657 13.9486 0.472305 13.5841 0.840052L11.4 3.04376C10.5136 3.93813 9.90353 4.55163 9.38662 4.96676C8.8845 5.37001 8.56198 5.50835 8.27313 5.54516C8.09176 5.56828 7.90824 5.56828 7.72687 5.54516C7.43802 5.50835 7.1155 5.37001 6.61338 4.96676C6.09647 4.55163 5.48642 3.93813 4.6 3.04377L2.41586 0.840053C2.05138 0.472306 1.4578 0.469658 1.09005 0.834138C0.722305 1.19862 0.719657 1.7922 1.08414 2.15995L3.30762 4.40336C4.14505 5.24833 4.82948 5.93892 5.43933 6.42868C6.07348 6.93797 6.71716 7.30663 7.4898 7.40512C7.82858 7.4483 8.17142 7.4483 8.5102 7.40512C9.28284 7.30663 9.92652 6.93797 10.5607 6.42868C11.1705 5.93892 11.8549 5.24833 12.6924 4.40337L14.9159 2.15995Z" fill="#35375B"/>
</svg>
