<svg width="26" height="28" viewBox="0 0 26 28" fill="none" xmlns="http://www.w3.org/2000/svg">
<path d="M7.0625 11.5C7.0625 10.9822 7.48223 10.5625 8 10.5625H11.75C12.2678 10.5625 12.6875 10.9822 12.6875 11.5C12.6875 12.0178 12.2678 12.4375 11.75 12.4375H8C7.48223 12.4375 7.0625 12.0178 7.0625 11.5Z" fill="#FD4C00"/>
<path d="M7.0625 16.5C7.0625 15.9822 7.48223 15.5625 8 15.5625H18C18.5178 15.5625 18.9375 15.9822 18.9375 16.5C18.9375 17.0178 18.5178 17.4375 18 17.4375H8C7.48223 17.4375 7.0625 17.0178 7.0625 16.5Z" fill="#FD4C00"/>
<path d="M7.0625 21.5C7.0625 20.9822 7.48223 20.5625 8 20.5625H11.75C12.2678 20.5625 12.6875 20.9822 12.6875 21.5C12.6875 22.0178 12.2678 22.4375 11.75 22.4375H8C7.48223 22.4375 7.0625 22.0178 7.0625 21.5Z" fill="#FD4C00"/>
<path fill-rule="evenodd" clip-rule="evenodd" d="M18.0405 0.667156C19.3838 0.772715 20.5061 0.989657 21.4727 1.4771C21.7365 1.61011 21.9865 1.76209 22.2247 1.93519C22.8349 2.37851 23.3715 2.91511 23.8148 3.52529C24.5471 4.5332 24.875 5.71367 25.0328 7.17059C25.1875 8.59826 25.1875 10.3978 25.1875 12.6934V15.3066C25.1875 17.6022 25.1875 19.4017 25.0328 20.8294C24.875 22.2863 24.5471 23.4668 23.8148 24.4747C23.3715 25.0849 22.8349 25.6215 22.2247 26.0648C21.2168 26.7971 20.0363 27.125 18.5794 27.2828C17.1517 27.4375 15.3522 27.4375 13.0566 27.4375H12.9434C10.6478 27.4375 8.84826 27.4375 7.4206 27.2828C5.96367 27.125 4.7832 26.7971 3.77529 26.0648C3.16511 25.6215 2.62851 25.0849 2.18519 24.4747C1.4529 23.4668 1.12501 22.2863 0.96716 20.8294C0.812482 19.4017 0.81249 17.6022 0.8125 15.3066V12.6934C0.81249 10.3978 0.812482 8.59826 0.96716 7.17059C1.12501 5.71367 1.45291 4.5332 2.18519 3.52529C2.62851 2.91511 3.16511 2.37851 3.77529 1.93519C4.23487 1.60129 4.73374 1.34904 5.28449 1.15901C6.19541 0.8447 7.24589 0.70209 8.48105 0.632154C9.71126 0.562497 11.1906 0.562498 12.9745 0.5625H13.0381C15.0693 0.562496 16.7087 0.562493 18.0405 0.667156ZM17.8936 2.53639C16.6436 2.43816 15.0772 2.4375 13 2.4375C11.1856 2.4375 9.75835 2.43783 8.58704 2.50416C8.1789 2.52726 7.80987 2.55809 7.47396 2.5982C8.51365 3.62564 9.34897 4.41821 10.0946 5.01502C11.0977 5.81781 11.8557 6.19651 12.6239 6.31818C13.1745 6.40539 13.7354 6.40539 14.286 6.31818C15.0327 6.19991 15.7701 5.83868 16.732 5.08112C17.4667 4.50252 18.2886 3.72905 19.3115 2.72104C18.9045 2.63948 18.4378 2.57916 17.8936 2.53639ZM21.1886 3.50081C19.9033 4.78006 18.8461 5.80288 17.8921 6.55417C16.7974 7.41627 15.7645 7.98238 14.5793 8.17009C13.8344 8.28808 13.0755 8.28808 12.3306 8.17009C11.1113 7.97698 10.053 7.38332 8.92302 6.47889C7.91119 5.66906 6.77608 4.55449 5.37101 3.15154C5.1945 3.24058 5.03124 3.34032 4.87739 3.4521C4.42639 3.77977 4.02977 4.17639 3.7021 4.62739C3.24074 5.2624 2.97181 6.07517 2.83125 7.37256C2.68879 8.68749 2.6875 10.3855 2.6875 12.75V15.25C2.6875 17.6145 2.68879 19.3125 2.83125 20.6274C2.97181 21.9248 3.24074 22.7376 3.7021 23.3726C4.02977 23.8236 4.42639 24.2202 4.87739 24.5479C5.5124 25.0093 6.32517 25.2782 7.62256 25.4188C8.93749 25.5612 10.6355 25.5625 13 25.5625C15.3645 25.5625 17.0625 25.5612 18.3774 25.4188C19.6748 25.2782 20.4876 25.0093 21.1226 24.5479C21.5736 24.2202 21.9702 23.8236 22.2979 23.3726C22.7593 22.7376 23.0282 21.9248 23.1688 20.6274C23.3112 19.3125 23.3125 17.6145 23.3125 15.25V12.75C23.3125 10.3855 23.3112 8.68749 23.1688 7.37256C23.0282 6.07517 22.7593 5.2624 22.2979 4.62739C21.9863 4.19851 21.6124 3.81881 21.1886 3.50081Z" fill="#FD4C00"/>
</svg>
