<svg width="28" height="29" viewBox="0 0 28 29" fill="none" xmlns="http://www.w3.org/2000/svg">
<path d="M6.46065 2.2946C6.86496 1.97115 6.93051 1.38119 6.60706 0.976883C6.28362 0.572575 5.69366 0.507024 5.28935 0.83047L2.16435 3.33047C1.76004 3.65392 1.69449 4.24388 2.01794 4.64819C2.34138 5.05249 2.93134 5.11805 3.33565 4.7946L6.46065 2.2946Z" fill="#FD4C00"/>
<path d="M22.7107 0.83047C22.3063 0.507024 21.7164 0.572575 21.3929 0.976883C21.0695 1.38119 21.135 1.97115 21.5393 2.2946L24.6643 4.7946C25.0687 5.11805 25.6586 5.05249 25.9821 4.64819C26.3055 4.24388 26.24 3.65392 25.8357 3.33047L22.7107 0.83047Z" fill="#FD4C00"/>
<path d="M14.9375 8.75003C14.9375 8.23227 14.5178 7.81253 14 7.81253C13.4822 7.81253 13.0625 8.23227 13.0625 8.75003V15C13.0626 15.8912 14.14 16.3375 14.7702 15.7074L17.3146 13.163C17.6807 12.7968 17.6807 12.2032 17.3146 11.8371C16.9485 11.471 16.3549 11.471 15.9888 11.8371L14.9375 12.8884V8.75003Z" fill="#FD4C00"/>
<path fill-rule="evenodd" clip-rule="evenodd" d="M14 1.56253C6.57867 1.56253 0.5625 7.57871 0.5625 15C0.5625 22.4214 6.57867 28.4375 14 28.4375C21.4213 28.4375 27.4375 22.4214 27.4375 15C27.4375 7.57871 21.4213 1.56253 14 1.56253ZM2.4375 15C2.4375 8.61424 7.61421 3.43753 14 3.43753C20.3858 3.43753 25.5625 8.61424 25.5625 15C25.5625 21.3858 20.3858 26.5625 14 26.5625C7.61421 26.5625 2.4375 21.3858 2.4375 15Z" fill="#FD4C00"/>
</svg>
