<svg width="46" height="46" viewBox="0 0 46 46" fill="none" xmlns="http://www.w3.org/2000/svg">
<path d="M20.3606 16.2334C20.5242 16.215 20.8769 16.2464 21.7159 16.6588C22.544 17.0659 23.603 17.7156 25.1417 18.6626C26.6796 19.6091 27.738 20.2624 28.4844 20.8245C29.2311 21.3868 29.4675 21.7176 29.5598 21.9386C29.8413 22.6124 29.8413 23.3882 29.5598 24.062C29.4675 24.2831 29.2311 24.6138 28.4844 25.1761C27.738 25.7383 26.6796 26.3916 25.1417 27.3381C23.603 28.285 22.544 28.9348 21.7159 29.3419C20.8769 29.7543 20.5242 29.7856 20.3606 29.7673C19.7533 29.6993 19.1695 29.3562 18.7741 28.7762C18.6406 28.5803 18.484 28.18 18.3984 27.1862C18.314 26.2046 18.3126 24.8894 18.3126 23.0003C18.3126 21.1112 18.314 19.7961 18.3984 18.8145C18.484 17.8206 18.6406 17.4203 18.7741 17.2245C19.1695 16.6444 19.7533 16.3014 20.3606 16.2334Z" fill="#FD4C00"/>
<path fill-rule="evenodd" clip-rule="evenodd" d="M0.604248 23.0003C0.604248 10.6314 10.6312 0.604492 23.0001 0.604492C35.369 0.604492 45.3959 10.6314 45.3959 23.0003C45.3959 35.3692 35.369 45.3962 23.0001 45.3962C10.6312 45.3962 0.604248 35.3692 0.604248 23.0003ZM26.7099 15.9584C25.2578 15.0647 24.0722 14.3349 23.0945 13.8543C22.1122 13.3714 21.0893 13.0072 20.0127 13.1278C18.4566 13.3021 17.0752 14.1686 16.1919 15.4645C15.5925 16.3439 15.3827 17.4114 15.285 18.5465C15.1875 19.6783 15.1876 21.1288 15.1876 22.9255V23.0752C15.1876 24.8718 15.1875 26.3223 15.285 27.4541C15.3827 28.5893 15.5925 29.6567 16.1919 30.5362C17.0752 31.8321 18.4566 32.6985 20.0127 32.8729C21.0893 32.9935 22.1122 32.6292 23.0945 32.1463C24.0722 31.6657 25.2578 30.936 26.7099 30.0423L26.8475 29.9576C28.3011 29.0631 29.4864 28.3336 30.3644 27.6724C31.2558 27.0011 32.0286 26.2597 32.4434 25.2664C33.0467 23.8219 33.0467 22.1787 32.4434 20.7342C32.0286 19.741 31.2558 18.9996 30.3644 18.3282C29.4864 17.667 28.3011 16.9376 26.8475 16.043L26.7099 15.9584Z" fill="#FD4C00"/>
</svg>
