<svg width="26" height="26" viewBox="0 0 26 26" fill="none" xmlns="http://www.w3.org/2000/svg">
<path d="M13.5273 10.4999C14.3633 11.3359 14.3633 12.6913 13.5273 13.5273C12.6913 14.3633 11.336 14.3633 10.5 13.5273C9.66399 12.6913 9.66399 11.3359 10.5 10.4999C11.336 9.66395 12.6913 9.66395 13.5273 10.4999Z" fill="#FD4C00"/>
<path fill-rule="evenodd" clip-rule="evenodd" d="M13.6141 0.601395C12.6843 0.427648 11.6871 0.504301 10.063 0.629134L9.71724 0.655656C7.57492 0.819692 6.26345 0.92011 5.16938 1.38815C3.46956 2.11533 2.11533 3.46956 1.38815 5.16938C0.92011 6.26345 0.819693 7.57492 0.655656 9.71724L0.629135 10.063C0.504302 11.6871 0.427648 12.6843 0.601395 13.6141C0.871044 15.0571 1.57607 16.3829 2.62166 17.4133C3.29538 18.0772 4.16504 18.5712 5.58133 19.3758L8.17068 20.8472C9.41561 21.5548 10.178 21.9881 10.9514 22.2216C11.7954 22.4765 12.6687 22.571 13.5288 22.511L15.0469 24.0291C17.5272 26.5094 21.5486 26.5094 24.029 24.0291C26.5093 21.5487 26.5093 17.5273 24.029 15.0469L22.511 13.5289C22.571 12.6688 22.4765 11.7954 22.2216 10.9514C21.9881 10.178 21.5548 9.41561 20.8472 8.17068L19.3758 5.58132C18.5712 4.16504 18.0772 3.29537 17.4133 2.62166C16.3829 1.57607 15.0571 0.871044 13.6141 0.601395ZM10.06 2.50989C11.8772 2.37045 12.6124 2.32167 13.2697 2.44449C14.3362 2.6438 15.3162 3.1649 16.0778 3.93773C16.5471 4.41398 16.9177 5.05084 17.8182 6.63542L19.152 8.98273C19.9449 10.378 20.2618 10.9471 20.4267 11.4933C20.6498 12.2325 20.7067 13.0019 20.6043 13.7497C20.5027 14.4912 20.2446 15.2112 19.8367 15.8591C19.5327 16.342 19.0762 16.8066 17.9414 17.9414C16.8066 19.0762 16.342 19.5327 15.8591 19.8367C15.2112 20.2446 14.4911 20.5027 13.7496 20.6043C13.0018 20.7067 12.2325 20.6498 11.4933 20.4267C10.9471 20.2618 10.378 19.9449 8.98272 19.152L6.63542 17.8182C5.05084 16.9177 4.41398 16.5471 3.93773 16.0778C3.1649 15.3162 2.6438 14.3362 2.44449 13.2697C2.32167 12.6124 2.37045 11.8772 2.50989 10.06C2.69451 7.65404 2.78168 6.67908 3.11203 5.90685C3.25512 5.57237 3.43106 5.256 3.63592 4.96165L9.83707 11.1628C10.2032 11.5289 10.7968 11.5289 11.1629 11.1628C11.529 10.7967 11.529 10.2031 11.1629 9.83697L4.96176 3.63584C5.25608 3.43101 5.57242 3.2551 5.90685 3.11203C6.67908 2.78168 7.65404 2.69451 10.06 2.50989ZM16.3727 22.7032L15.6879 22.0185C16.0922 21.8575 16.484 21.6589 16.8581 21.4234C17.5418 20.993 18.1618 20.3728 19.1743 19.3601L19.3601 19.1743C20.3728 18.1618 20.993 17.5418 21.4234 16.8581C21.6589 16.4841 21.8575 16.0923 22.0184 15.688L22.7032 16.3727C24.4513 18.1209 24.4513 20.9551 22.7032 22.7032C20.9551 24.4513 18.1208 24.4513 16.3727 22.7032Z" fill="#FD4C00"/>
</svg>
