<svg width="273" height="306" viewBox="0 0 273 306" fill="none" xmlns="http://www.w3.org/2000/svg">
<path d="M8.6117 278.426L2.14216 294.043C1.97185 294.453 1.95396 294.91 2.09175 295.331C2.22953 295.753 2.51386 296.111 2.89317 296.341L17.5876 305.268C17.804 305.403 18.0501 305.484 18.3046 305.503C18.5591 305.522 18.8144 305.479 19.0486 305.377C19.2827 305.276 19.4887 305.119 19.6488 304.92C19.8088 304.721 19.9181 304.487 19.9673 304.236C20.1709 303.033 19.8723 301.359 17.8545 299.454C13.8235 295.64 21.9037 284.456 21.9037 284.456" fill="#35375B"/>
<path d="M16.8973 292.36C17.433 292.579 17.999 292.715 18.5757 292.763C18.8653 292.763 18.8608 292.342 18.5757 292.31C18.0404 292.262 17.5156 292.133 17.0194 291.926C16.7525 291.813 16.6349 292.247 16.8973 292.356V292.36Z" fill="#35375B"/>
<path d="M16.1736 294.374C16.7192 294.691 17.3309 294.877 17.9606 294.917C18.2457 294.917 18.2457 294.492 17.9606 294.465C17.4091 294.423 16.8741 294.258 16.3953 293.981C16.3443 293.951 16.2837 293.944 16.2269 293.959C16.17 293.974 16.1216 294.011 16.0922 294.062C16.0628 294.113 16.0548 294.174 16.0701 294.231C16.0854 294.288 16.1226 294.336 16.1736 294.365V294.374Z" fill="#35375B"/>
<path d="M15.9145 296.722C16.4497 296.969 17.027 297.112 17.6156 297.143C17.9052 297.143 17.9052 296.691 17.6156 296.691C17.106 296.661 16.6061 296.538 16.1407 296.329C15.8829 296.211 15.6566 296.596 15.9145 296.713V296.722Z" fill="#35375B"/>
<path d="M31.4076 193.761L33.5249 231.411C34.0692 241.054 32.1036 250.673 27.8199 259.329L11.9492 288.573" stroke="#FD4C00" stroke-width="25" stroke-miterlimit="10"/>
<path d="M55.9297 287.222L58.5085 303.93C58.5765 304.368 58.799 304.768 59.1358 305.056C59.4726 305.345 59.9016 305.504 60.3453 305.504H77.537C77.7928 305.507 78.0454 305.448 78.2733 305.332C78.5012 305.216 78.6974 305.046 78.8452 304.837C78.9929 304.629 79.0878 304.387 79.1215 304.134C79.1553 303.88 79.127 303.622 79.0391 303.382C78.5866 302.251 77.4601 300.975 74.7456 300.392C69.3167 299.233 70.4205 285.462 70.4205 285.462" fill="#35375B"/>
<path d="M70.245 294.826C70.816 294.736 71.3698 294.559 71.8872 294.301C72.1451 294.17 71.9189 293.785 71.661 293.912C71.1782 294.151 70.6606 294.313 70.1274 294.392C69.8423 294.437 69.9645 294.867 70.245 294.844V294.826Z" fill="#35375B"/>
<path d="M70.6637 296.926C71.2932 296.912 71.9116 296.758 72.4734 296.473C72.7312 296.342 72.505 295.953 72.2472 296.084C71.7573 296.338 71.2155 296.476 70.6637 296.487C70.6037 296.487 70.5462 296.511 70.5038 296.553C70.4613 296.596 70.4375 296.653 70.4375 296.713C70.4375 296.773 70.4613 296.831 70.5038 296.873C70.5462 296.915 70.6037 296.939 70.6637 296.939V296.926Z" fill="#35375B"/>
<path d="M71.6708 299.066C72.2567 299 72.8247 298.824 73.3447 298.546C73.5981 298.41 73.3719 298.026 73.1185 298.161C72.6682 298.401 72.1773 298.554 71.6708 298.614C71.3858 298.65 71.3858 299.098 71.6708 299.066Z" fill="#35375B"/>
<path d="M71 206.714L74.5967 198.937C74.5967 198.937 84.0974 203.072 81.591 207.858C79.0847 212.645 71 206.714 71 206.714Z" fill="#F5E6DF"/>
<path d="M82.6972 200.915L75.5626 200.101C74.4225 199.969 74.4316 201.761 75.5626 201.91L82.6972 202.725C83.8418 202.856 83.8328 201.064 82.6972 200.915Z" fill="#F5E6DF"/>
<path d="M79.3159 211.509C77.9767 210.236 76.5999 209.009 75.1853 207.826C74.5248 207.279 73.5747 208.22 74.2353 208.777C75.6498 209.962 77.0267 211.188 78.3658 212.455C78.9947 213.052 79.9447 212.102 79.3159 211.509Z" fill="#F5E6DF"/>
<path d="M82.4443 210.858C81.1058 210.067 79.8871 209.089 78.825 207.954C78.2323 207.325 77.2822 208.275 77.8749 208.904C79.017 210.119 80.3254 211.167 81.7612 212.016C81.9147 212.106 82.0978 212.132 82.27 212.087C82.4422 212.042 82.5896 211.93 82.6796 211.776C82.7695 211.623 82.7948 211.44 82.7499 211.268C82.7049 211.095 82.5934 210.948 82.4398 210.858H82.4443Z" fill="#F5E6DF"/>
<path d="M80.0364 207.632C81.3249 208.682 82.6855 209.64 84.1081 210.5C84.2617 210.59 84.4447 210.615 84.6169 210.57C84.7892 210.525 84.9365 210.414 85.0265 210.26C85.1165 210.107 85.1418 209.924 85.0968 209.751C85.0518 209.579 84.9403 209.432 84.7867 209.342C83.4556 208.546 82.1813 207.658 80.9729 206.686C80.3078 206.148 79.3532 207.089 80.0273 207.632H80.0364Z" fill="#F5E6DF"/>
<path d="M86.0801 206.641C83.6642 205.795 81.6554 204.072 79.7462 202.407C79.0993 201.837 78.1447 202.782 78.7962 203.352C80.8773 205.162 83.0624 207.008 85.7091 207.935C86.5279 208.22 86.8808 206.922 86.0665 206.641H86.0801Z" fill="#F5E6DF"/>
<path d="M41.1094 184.4C41.2632 184.464 53.0531 192.666 56.591 195.05C60.1289 197.434 73.543 203.117 73.543 203.117" stroke="#EE926A" stroke-width="10" stroke-miterlimit="10"/>
<path d="M206.781 27.0234V118.579C206.781 120.475 207.534 122.293 208.875 123.633C210.215 124.974 212.034 125.727 213.929 125.727C215.825 125.727 217.643 124.974 218.984 123.633C220.324 122.293 221.078 120.475 221.078 118.579V112.657C221.078 111.194 221.657 109.791 222.689 108.755C223.721 107.719 225.121 107.134 226.583 107.128C227.311 107.125 228.033 107.266 228.706 107.542C229.379 107.819 229.992 108.226 230.507 108.739C231.023 109.253 231.432 109.863 231.712 110.536C231.991 111.208 232.135 111.929 232.135 112.657V137.141C232.135 139.037 232.888 140.855 234.228 142.196C235.569 143.536 237.387 144.289 239.283 144.289C241.179 144.289 242.997 143.536 244.337 142.196C245.678 140.855 246.431 139.037 246.431 137.141V130.599C246.431 129.303 246.946 128.06 247.862 127.143C248.778 126.226 250.021 125.71 251.317 125.709C252.613 125.709 253.857 125.194 254.774 124.278C255.691 123.362 256.206 122.119 256.208 120.823V60.1267L206.781 27.0234Z" fill="#FD4C00"/>
<path d="M152.05 172.96L150.087 160.885C146.786 163.609 142.981 165.656 138.89 166.911C135.994 167.761 135.401 169.539 135.641 171.259C135.771 172.418 135.644 173.592 135.27 174.696C134.895 175.801 134.282 176.81 133.474 177.651C132.483 178.746 131.778 180.366 132.058 182.791C132.655 188.048 139.993 189.084 143.491 185.813C144.689 184.743 146.256 184.181 147.861 184.243C148.766 184.243 149.743 183.791 150.63 182.338C152.987 178.407 152.05 172.96 152.05 172.96Z" fill="#35375B"/>
<path d="M171.371 120.222L164.806 125.727C164.806 125.727 157.952 117.937 162.273 114.679C166.593 111.422 171.371 120.222 171.371 120.222Z" fill="#F5E6DF"/>
<path d="M158.241 120.453L164.349 124.23C165.331 124.836 166.231 123.289 165.254 122.683L159.146 118.91C158.165 118.304 157.264 119.851 158.241 120.453Z" fill="#F5E6DF"/>
<path d="M165.866 112.296C166.556 114.069 167.301 115.82 168.101 117.548C168.467 118.327 169.621 117.648 169.259 116.87C168.508 115.246 167.807 113.608 167.155 111.943C166.848 111.147 165.549 111.491 165.866 112.296Z" fill="#F5E6DF"/>
<path d="M162.754 111.558C163.629 112.842 164.317 114.243 164.799 115.72C165.066 116.534 166.36 116.173 166.093 115.363C165.578 113.776 164.844 112.268 163.912 110.884C163.428 110.174 162.266 110.843 162.754 111.558Z" fill="#F5E6DF"/>
<path d="M163.534 115.435C162.834 113.988 162.034 112.591 161.141 111.255C160.661 110.54 159.499 111.21 159.983 111.929C160.877 113.266 161.677 114.665 162.376 116.114C162.752 116.887 163.91 116.209 163.534 115.435Z" fill="#F5E6DF"/>
<path d="M157.659 113.833C159.532 115.666 160.636 118.136 161.663 120.507C162.006 121.294 163.165 120.615 162.821 119.828C161.744 117.349 160.559 114.802 158.604 112.888C157.989 112.282 157.039 113.232 157.659 113.833Z" fill="#F5E6DF"/>
<path d="M171.229 177.972C171.229 177.972 180.011 155.722 180.698 148.941C181.386 142.159 167.348 121.968 167.348 121.968" stroke="#FFA27A" stroke-width="11" stroke-miterlimit="10"/>
<path d="M87.6289 191.622L208.845 70.4286C210.483 68.7902 212.542 67.6363 214.795 67.0942C217.048 66.5521 219.407 66.643 221.612 67.3567L251.141 76.9163C252.558 77.3753 254.074 77.4349 255.522 77.0885C256.971 76.7421 258.296 76.0032 259.352 74.9528L267.627 66.6781C269.145 65.1587 269.998 63.0986 269.998 60.9505C269.998 58.8025 269.145 56.7424 267.627 55.223L217.798 5.37131C216.278 3.85293 214.218 3 212.07 3C209.922 3 207.862 3.85293 206.343 5.37131L205.917 5.79658C204.399 7.31598 203.546 9.37612 203.546 11.5242C203.546 13.6722 204.399 15.7323 205.917 17.2517L245.63 56.9648" stroke="#35375B" stroke-width="5" stroke-miterlimit="10"/>
<path d="M254.976 56.3767L218.293 19.693C216.623 18.0234 213.916 18.0234 212.246 19.693L208.011 23.9286C206.341 25.5982 206.341 28.3052 208.011 29.9748L244.694 66.6584C246.364 68.328 249.071 68.3281 250.741 66.6584L254.976 62.4229C256.646 60.7533 256.646 58.0463 254.976 56.3767Z" fill="#FFA27A"/>
<path d="M91.5759 190.464L89.1574 188.045C87.8429 186.731 85.7117 186.731 84.3972 188.045L47.0738 225.369C45.7593 226.683 45.7593 228.814 47.0738 230.129L49.4923 232.547C50.8068 233.862 52.938 233.862 54.2525 232.547L91.5759 195.224C92.8904 193.909 92.8904 191.778 91.5759 190.464Z" fill="#35375B" stroke="#35375B" stroke-width="9" stroke-miterlimit="10"/>
<path d="M181.594 287.222L184.177 303.93C184.244 304.363 184.463 304.759 184.794 305.048C185.125 305.336 185.548 305.497 185.987 305.504H203.178C203.434 305.506 203.686 305.447 203.913 305.33C204.14 305.214 204.336 305.044 204.483 304.836C204.631 304.627 204.725 304.386 204.759 304.132C204.792 303.879 204.764 303.622 204.676 303.382C204.224 302.251 203.097 300.975 200.387 300.392C194.958 299.233 196.057 285.462 196.057 285.462" fill="#FFA27A"/>
<path d="M197.835 296.736C197.145 297.033 196.503 297.431 195.93 297.917C195.699 298.111 196.029 298.437 196.256 298.247C196.8 297.79 197.41 297.416 198.065 297.138C198.341 297.021 198.106 296.623 197.835 296.736Z" fill="#35375B"/>
<path d="M196.868 294.827C196.156 295.061 195.511 295.464 194.99 296.003C194.787 296.22 195.112 296.546 195.316 296.334C195.778 295.848 196.353 295.485 196.99 295.275C197.27 295.184 197.148 294.736 196.868 294.822V294.827Z" fill="#35375B"/>
<path d="M196.272 292.831C195.74 293.01 195.23 293.248 194.752 293.541C194.503 293.7 194.752 294.102 194.987 293.944C195.43 293.667 195.903 293.444 196.399 293.279C196.679 293.184 196.557 292.736 196.272 292.826V292.831Z" fill="#35375B"/>
<path d="M195.694 299.067L195.595 298.967C195.551 298.928 195.494 298.908 195.435 298.909C195.376 298.911 195.32 298.935 195.278 298.977C195.237 299.018 195.213 299.074 195.211 299.133C195.209 299.192 195.23 299.249 195.269 299.293L195.369 299.393C195.413 299.432 195.47 299.453 195.529 299.451C195.588 299.449 195.644 299.425 195.685 299.383C195.727 299.342 195.751 299.286 195.753 299.227C195.754 299.168 195.734 299.111 195.694 299.067Z" fill="#35375B"/>
<path d="M193.916 297.351C193.968 297.34 194.015 297.312 194.049 297.271C194.083 297.23 194.101 297.178 194.101 297.125C194.101 297.071 194.083 297.02 194.049 296.978C194.015 296.937 193.968 296.909 193.916 296.898C193.863 296.909 193.816 296.937 193.783 296.978C193.749 297.02 193.73 297.071 193.73 297.125C193.73 297.178 193.749 297.23 193.783 297.271C193.816 297.312 193.863 297.34 193.916 297.351Z" fill="#35375B"/>
<path d="M193.323 295.242C193.372 295.228 193.415 295.199 193.446 295.158C193.477 295.117 193.494 295.067 193.494 295.016C193.494 294.965 193.477 294.915 193.446 294.875C193.415 294.834 193.372 294.804 193.323 294.79C193.274 294.804 193.231 294.834 193.2 294.875C193.169 294.915 193.152 294.965 193.152 295.016C193.152 295.067 193.169 295.117 193.2 295.158C193.231 295.199 193.274 295.228 193.323 295.242Z" fill="#35375B"/>
<path d="M118.702 274.559L107.355 287.095C107.058 287.423 106.888 287.846 106.876 288.288C106.863 288.73 107.009 289.162 107.287 289.506L118.145 302.862C118.305 303.061 118.51 303.219 118.743 303.321C118.977 303.424 119.232 303.469 119.486 303.452C119.741 303.435 119.988 303.357 120.205 303.224C120.423 303.092 120.606 302.908 120.738 302.69C121.33 301.627 121.611 299.944 120.353 297.473C117.838 292.529 129.211 284.711 129.211 284.711" fill="#FFA27A"/>
<path d="M121.578 293.183C120.915 292.831 120.203 292.58 119.465 292.437C119.176 292.378 119.049 292.826 119.343 292.889C120.042 293.023 120.717 293.26 121.347 293.591C121.61 293.726 121.845 293.328 121.578 293.193V293.183Z" fill="#35375B"/>
<path d="M122.384 291.208C121.754 290.802 121.032 290.56 120.285 290.502C119.986 290.475 119.991 290.955 120.285 290.955C120.951 291.012 121.593 291.233 122.153 291.597C122.402 291.755 122.633 291.357 122.384 291.199V291.208Z" fill="#35375B"/>
<path d="M123.58 289.484C123.106 289.184 122.599 288.939 122.069 288.755C121.784 288.66 121.666 289.104 121.942 289.208C122.435 289.378 122.905 289.606 123.344 289.886C123.598 290.045 123.833 289.647 123.58 289.488V289.484Z" fill="#35375B"/>
<path d="M118.395 292.948V292.808C118.427 292.51 117.943 292.514 117.943 292.808V292.948C117.915 293.243 118.395 293.243 118.395 292.948Z" fill="#35375B"/>
<path d="M118.787 290.601C118.839 290.59 118.886 290.562 118.92 290.521C118.954 290.48 118.972 290.428 118.972 290.375C118.972 290.321 118.954 290.27 118.92 290.228C118.886 290.187 118.839 290.159 118.787 290.148C118.735 290.159 118.688 290.187 118.654 290.228C118.62 290.27 118.602 290.321 118.602 290.375C118.602 290.428 118.62 290.48 118.654 290.521C118.688 290.562 118.735 290.59 118.787 290.601Z" fill="#35375B"/>
<path d="M120.045 288.804C120.097 288.793 120.144 288.765 120.178 288.724C120.211 288.683 120.23 288.631 120.23 288.578C120.23 288.524 120.211 288.473 120.178 288.432C120.144 288.39 120.097 288.362 120.045 288.352C119.992 288.362 119.945 288.39 119.912 288.432C119.878 288.473 119.859 288.524 119.859 288.578C119.859 288.631 119.878 288.683 119.912 288.724C119.945 288.765 119.992 288.793 120.045 288.804Z" fill="#35375B"/>
<path d="M156.705 194.056C156.705 194.056 156.393 238.202 145.702 253.575C135.011 268.948 119.941 284.009 119.941 284.009" stroke="#35375B" stroke-width="25" stroke-miterlimit="10"/>
<path d="M37.5352 194.843C37.5352 194.843 52.9173 232.393 55.9304 245.649C58.9435 258.905 63.0695 290.71 63.0695 290.71" stroke="#FD4C00" stroke-width="25" stroke-miterlimit="10"/>
<path d="M38.0946 159.021L36.9727 166.567" stroke="#F5E6DF" stroke-width="5" stroke-miterlimit="10"/>
<path d="M38.2491 160.062C39.6923 163.391 40.9183 164.265 40.9183 164.265L41.6241 160.08C41.6241 160.08 37.2221 157.691 38.2491 160.062Z" fill="#35375B"/>
<path d="M40.6937 165.924L36.8346 165.694C33.2373 165.482 29.6939 166.645 26.9219 168.947C24.1499 171.249 22.3565 174.519 21.9049 178.094L20.0635 192.671C20.0349 192.899 20.0546 193.13 20.1211 193.35C20.1877 193.569 20.2996 193.773 20.4498 193.946C20.6 194.12 20.7849 194.26 20.9927 194.358C21.2005 194.455 21.4265 194.508 21.656 194.512L48.2264 195.051C48.8409 195.064 49.4357 194.834 49.8807 194.41C50.3258 193.986 50.585 193.403 50.6016 192.789L51.054 177.226C51.1365 174.364 50.1006 171.583 48.1663 169.473C46.2319 167.363 43.5514 166.09 40.6937 165.924Z" fill="#FFA27A"/>
<path d="M85.8945 190.952L86.4646 182.401C86.4646 182.401 96.8294 182.854 96.1915 188.224C95.5536 193.594 85.8945 190.952 85.8945 190.952Z" fill="#F5E6DF"/>
<path d="M94.8366 181.316L87.8829 183.125C86.77 183.415 87.2405 185.139 88.3354 184.849L95.289 183.039C96.4019 182.754 95.9314 181.026 94.8366 181.316Z" fill="#F5E6DF"/>
<path d="M95.2912 192.413C93.5901 191.707 91.8619 191.056 90.1201 190.458C89.3012 190.178 88.9483 191.472 89.7626 191.752C91.509 192.356 93.2342 193.007 94.9383 193.707C95.7345 194.037 96.0829 192.739 95.2912 192.413Z" fill="#F5E6DF"/>
<path d="M98.1344 190.735C96.6016 190.477 95.1124 190.007 93.7098 189.337C92.9362 188.966 92.2575 190.12 93.0357 190.495C94.5366 191.226 96.1326 191.742 97.777 192.029C98.6185 192.174 98.985 190.88 98.1344 190.735Z" fill="#F5E6DF"/>
<path d="M94.7503 188.608C96.2813 189.102 97.8443 189.49 99.4282 189.771C100.27 189.925 100.632 188.631 99.7811 188.482C98.1991 188.197 96.6379 187.807 95.1077 187.314C94.2843 187.047 93.9314 188.341 94.7503 188.608Z" fill="#F5E6DF"/>
<path d="M100.014 185.478C97.3904 185.559 94.8569 184.655 92.4319 183.754C91.6221 183.456 91.2737 184.754 92.0745 185.048C94.6126 185.989 97.2682 186.903 100.014 186.817C100.874 186.79 100.879 185.46 100.014 185.46V185.478Z" fill="#F5E6DF"/>
<path d="M44.4864 154.954C44.5317 155.073 44.5521 155.201 44.5463 155.328C44.5405 155.456 44.5086 155.581 44.4527 155.696C44.3967 155.81 44.3179 155.913 44.221 155.996C44.1241 156.079 44.0112 156.142 43.8893 156.18L43.5092 155.049C43.4821 154.976 43.8531 154.741 43.9209 154.718C43.9733 154.695 44.0299 154.682 44.0872 154.682C44.1446 154.681 44.2015 154.692 44.2545 154.714C44.3074 154.736 44.3553 154.769 44.3952 154.81C44.4351 154.851 44.4662 154.9 44.4864 154.954Z" fill="#F5E6DF"/>
<path d="M35.6175 148.669L35.9092 148.558C37.2321 148.053 38.7013 148.095 39.9934 148.674C41.2856 149.253 42.2948 150.321 42.7992 151.644L44.5883 156.336C44.9584 157.307 44.9278 158.385 44.503 159.334C44.0782 160.282 43.2941 161.023 42.3231 161.393C40.5697 162.062 38.6224 162.006 36.9098 161.239C35.1971 160.472 33.8594 159.056 33.1909 157.302L32.5284 155.565C32.024 154.242 32.0659 152.773 32.6447 151.481C33.2235 150.188 34.2919 149.179 35.6149 148.675L35.6175 148.669Z" fill="#F5E6DF"/>
<path d="M42.1944 156.84C42.4087 157.018 42.6725 157.125 42.9499 157.148C43.2349 157.18 43.2349 156.732 42.9499 156.696C42.7849 156.683 42.6274 156.622 42.4975 156.519C42.2758 156.343 41.9591 156.655 42.1808 156.836L42.1944 156.84Z" fill="#35375B"/>
<path d="M42.0388 154.696C42.2586 154.696 42.4369 154.517 42.4369 154.298C42.4369 154.078 42.2586 153.899 42.0388 153.899C41.8189 153.899 41.6406 154.078 41.6406 154.298C41.6406 154.517 41.8189 154.696 42.0388 154.696Z" fill="#35375B"/>
<path d="M41.2689 153.147C41.4295 153.019 41.6059 152.913 41.7937 152.831C42.0561 152.713 41.8299 152.328 41.572 152.446C41.3491 152.546 41.1406 152.675 40.9522 152.831C40.726 153.011 41.0472 153.328 41.2689 153.147Z" fill="#35375B"/>
<path d="M41.0014 202.176C42.0012 201.371 42.9785 200.543 43.9285 199.683C44.1457 199.489 43.829 199.172 43.6118 199.367C42.6618 200.226 41.6891 201.059 40.6847 201.859C40.463 202.036 40.7797 202.353 41.0014 202.176Z" fill="#35375B"/>
<path d="M158.043 195.051C158.043 195.051 177.832 227.602 180.854 240.862C183.876 254.123 188.73 290.7 188.73 290.7" stroke="#35375B" stroke-width="25" stroke-miterlimit="10"/>
<path d="M163.817 159.179L162.695 166.72" stroke="#F5E6DF" stroke-width="5" stroke-miterlimit="10"/>
<path d="M162.527 160.007C163.314 161.932 164.777 163.503 166.64 164.427L167.346 160.242C167.346 160.242 161.5 157.623 162.527 160.007Z" fill="#35375B"/>
<path d="M166.36 165.924L157.537 165.395C155.283 165.259 153.06 165.986 151.322 167.429C149.583 168.872 148.459 170.922 148.177 173.163L145.716 192.671C145.687 192.899 145.707 193.129 145.773 193.349C145.839 193.568 145.951 193.771 146.101 193.945C146.25 194.118 146.435 194.259 146.642 194.356C146.849 194.454 147.075 194.507 147.304 194.513L173.879 195.051C174.492 195.063 175.086 194.832 175.53 194.408C175.974 193.985 176.233 193.402 176.249 192.789L176.702 177.226C176.785 174.367 175.751 171.589 173.821 169.48C171.89 167.37 169.214 166.095 166.36 165.924Z" fill="#FFA27A"/>
<path d="M169.67 153.108C169.782 153.175 169.878 153.264 169.954 153.37C170.029 153.477 170.082 153.597 170.108 153.725C170.134 153.853 170.134 153.984 170.107 154.112C170.08 154.239 170.026 154.359 169.95 154.465L168.955 153.809C168.887 153.764 169.036 153.357 169.077 153.293C169.102 153.241 169.138 153.194 169.182 153.156C169.226 153.118 169.278 153.09 169.333 153.072C169.389 153.055 169.447 153.049 169.505 153.055C169.563 153.061 169.619 153.079 169.67 153.108Z" fill="#F5E6DF"/>
<path d="M159.699 149.904L159.952 149.72C161.095 148.886 162.524 148.54 163.923 148.758C165.322 148.977 166.576 149.743 167.411 150.887L170.37 154.944C170.983 155.783 171.236 156.832 171.076 157.858C170.915 158.885 170.353 159.806 169.514 160.418C167.998 161.524 166.105 161.982 164.25 161.692C162.396 161.402 160.733 160.388 159.627 158.872L158.532 157.369C157.697 156.225 157.351 154.797 157.57 153.398C157.789 151.999 158.555 150.745 159.698 149.91L159.699 149.904Z" fill="#F5E6DF"/>
<path d="M163.816 151.818C163.816 151.818 166.797 151.329 168.227 150.08C168.259 150.052 168.285 150.018 168.303 149.979C168.321 149.94 168.33 149.897 168.33 149.854C168.33 149.811 168.321 149.769 168.303 149.73C168.285 149.691 168.259 149.656 168.227 149.628C167.177 148.845 163.25 146.294 160.223 149.334C159.915 149.652 159.526 149.879 159.097 149.99C158.292 150.193 156.808 150.895 155.306 153.202C153.555 155.917 150.293 154.071 150.293 154.071C150.293 154.071 154.577 166.594 156.817 166.34C159.78 165.996 162.906 162.947 163.056 157.839C163.056 157.839 161.436 157.419 161.581 156.373C161.726 155.328 162.906 154.985 163.816 155.577C163.816 155.573 165.015 152.433 163.816 151.818Z" fill="#35375B"/>
<path d="M167.345 156.586C167.732 156.721 168.149 156.736 168.544 156.631C168.601 156.616 168.65 156.578 168.679 156.527C168.708 156.475 168.716 156.414 168.7 156.358C168.685 156.301 168.647 156.252 168.596 156.223C168.545 156.194 168.484 156.186 168.427 156.201C168.109 156.286 167.772 156.271 167.463 156.156C167.192 156.061 167.074 156.491 167.345 156.609V156.586Z" fill="#35375B"/>
<path d="M167 154.455C167.22 154.455 167.398 154.277 167.398 154.057C167.398 153.837 167.22 153.659 167 153.659C166.78 153.659 166.602 153.837 166.602 154.057C166.602 154.277 166.78 154.455 167 154.455Z" fill="#35375B"/>
<path d="M165.888 153.22C166.011 153.052 166.153 152.9 166.314 152.767C166.535 152.586 166.219 152.27 165.997 152.451C165.811 152.607 165.645 152.786 165.504 152.984C165.332 153.22 165.721 153.437 165.888 153.211V153.22Z" fill="#35375B"/>
<path d="M174.084 169.819C176.536 173.158 176.418 177.343 176.237 181.292C176.237 181.577 176.69 181.577 176.69 181.292C176.875 177.27 176.97 172.99 174.477 169.593C174.305 169.362 173.921 169.593 174.088 169.819H174.084Z" fill="#35375B"/>
<path d="M154.899 130.654L146.619 132.862C146.619 132.862 143.715 122.909 149.008 121.778C154.301 120.647 154.899 130.654 154.899 130.654Z" fill="#F5E6DF"/>
<path d="M142.876 125.243L146.812 131.252C147.44 132.211 148.988 131.315 148.354 130.347L144.418 124.343C143.794 123.384 142.242 124.28 142.876 125.248V125.243Z" fill="#F5E6DF"/>
<path d="M153.272 121.257C153.148 123.1 153.085 124.943 153.082 126.786C153.082 126.966 153.154 127.138 153.281 127.266C153.408 127.393 153.581 127.464 153.761 127.464C153.941 127.464 154.113 127.393 154.241 127.266C154.368 127.138 154.439 126.966 154.439 126.786C154.439 124.94 154.503 123.097 154.629 121.257C154.684 120.398 153.344 120.402 153.272 121.257Z" fill="#F5E6DF"/>
<path d="M150.789 119.29C151.021 120.824 151.041 122.383 150.848 123.922C150.744 124.777 152.087 124.768 152.205 123.922C152.401 122.267 152.365 120.592 152.097 118.946C151.965 118.095 150.671 118.453 150.807 119.299L150.789 119.29Z" fill="#F5E6DF"/>
<path d="M149.837 123.058C149.808 121.391 149.666 119.728 149.412 118.081C149.285 117.23 147.991 117.592 148.123 118.438C148.35 119.97 148.474 121.514 148.494 123.062C148.494 123.242 148.565 123.415 148.692 123.542C148.82 123.669 148.992 123.741 149.172 123.741C149.352 123.741 149.525 123.669 149.652 123.542C149.779 123.415 149.851 123.242 149.851 123.062L149.837 123.058Z" fill="#F5E6DF"/>
<path d="M145.168 119.009C146.073 121.466 146.073 124.149 145.987 126.736C145.96 127.6 147.303 127.6 147.344 126.736C147.417 124.022 147.444 121.212 146.48 118.652C146.181 117.851 144.883 118.199 145.186 119.009H145.168Z" fill="#F5E6DF"/>
<path d="M150.094 131.007C150.094 131.007 154.618 150.8 154.898 157.102C155.215 163.811 153.03 179.972 153.03 179.972" stroke="#FFA27A" stroke-width="11" stroke-miterlimit="10"/>
<path d="M158.244 120.452C160.054 121.592 161.737 122.931 163.551 124.071C164.189 124.474 164.813 123.927 164.908 123.302C165.103 121.809 165.017 119.38 163.271 118.842C162.452 118.588 160.669 118.842 160.104 119.574C159.538 120.307 160.325 121.086 161.122 121.067C162.271 121.04 162.275 119.258 161.122 119.258C160.864 119.258 160.891 119.131 161.262 119.344L161.669 119.878L161.438 120.746C161.316 120.886 161.108 120.846 161.357 120.832C161.512 120.808 161.663 120.767 161.809 120.71C162.04 120.651 162.483 120.448 162.714 120.543C162.945 120.638 163.08 121.185 163.121 121.447C163.209 122.063 163.209 122.687 163.121 123.302L164.478 122.529C162.669 121.389 160.986 120.054 159.172 118.909C158.19 118.294 157.294 119.841 158.267 120.452H158.244Z" fill="#F5E6DF"/>
<path d="M42.4375 172.037C42.4375 172.037 54.9604 183.176 63.0676 184.402C71.1749 185.628 89.163 186.162 89.163 186.162" stroke="#FFA27A" stroke-width="11" stroke-miterlimit="10"/>
<path d="M44.8743 181.271L50.05 185.248C50.2807 185.42 50.5024 185.031 50.2762 184.859C48.5419 183.544 46.8107 182.226 45.0825 180.905C44.8517 180.733 44.63 181.117 44.8562 181.289L44.8743 181.271Z" fill="#35375B"/>
<path d="M34.0246 161.559C34.0433 161.584 34.0678 161.605 34.0962 161.619C34.1245 161.633 34.1558 161.641 34.1875 161.64C35.0054 161.697 35.8262 161.697 36.6441 161.64C37.8385 161.373 39.0555 157.428 38.0963 156.546C37.1372 155.664 36.6441 154.944 37.2322 154.284C37.3874 154.143 37.5793 154.048 37.7858 154.011C37.9923 153.975 38.2051 153.997 38.3995 154.076C38.4614 154.093 38.5265 154.096 38.5897 154.084C38.6529 154.072 38.7126 154.046 38.7641 154.008C38.8157 153.969 38.8578 153.92 38.8871 153.862C38.9164 153.805 38.9322 153.742 38.9333 153.678C38.9311 153.64 38.9311 153.602 38.9333 153.565C38.9517 153.085 39.1119 152.621 39.3937 152.232C39.6756 151.843 40.0664 151.546 40.5168 151.379C41.7157 150.927 43.1091 150.054 42.8784 148.538C42.5119 146.109 36.2505 146.48 33.7531 149.669C33.3888 150.111 32.9585 150.494 32.4773 150.805C31.7987 151.257 30.8848 152.212 30.6677 154.089C30.2876 156.958 33.5224 160.962 34.0246 161.559Z" fill="#35375B"/>
<path d="M31.7886 214.297C35.4199 220.5 38.6668 226.92 41.511 233.52C41.6286 233.783 42.0132 233.556 41.9001 233.294C39.0544 226.693 35.806 220.273 32.1732 214.071C32.1432 214.02 32.0941 213.983 32.0369 213.968C31.9796 213.953 31.9188 213.962 31.8678 213.992C31.8168 214.022 31.7798 214.071 31.765 214.128C31.7501 214.185 31.7586 214.246 31.7886 214.297Z" fill="#35375B"/>
<path d="M153.692 210.568L162.809 222.1C162.99 222.327 163.302 222.01 163.125 221.784L154.009 210.252C153.833 210.025 153.516 210.342 153.692 210.568Z" fill="#35375B"/>
<path d="M159.311 201.403C160.199 200.486 161.04 199.524 161.831 198.521C162.008 198.295 161.691 197.979 161.515 198.205C160.725 199.207 159.885 200.169 158.999 201.087C158.796 201.295 159.112 201.611 159.311 201.403Z" fill="#35375B"/>
<path d="M246.433 167.508C246.433 163.56 243.233 160.359 239.285 160.359C235.337 160.359 232.137 163.56 232.137 167.508V170.824C232.137 174.772 235.337 177.972 239.285 177.972C243.233 177.972 246.433 174.772 246.433 170.824V167.508Z" fill="#FFA27A"/>
<path d="M221.078 148.873C221.078 144.925 217.877 141.725 213.929 141.725C209.982 141.725 206.781 144.925 206.781 148.873V152.189C206.781 156.137 209.982 159.337 213.929 159.337C217.877 159.337 221.078 156.137 221.078 152.189V148.873Z" fill="#FFA27A"/>
</svg>
