<svg width="985" height="1420" viewBox="0 0 985 1420" fill="none" xmlns="http://www.w3.org/2000/svg">
<g filter="url(#filter0_f_298_3664)">
<path fill-rule="evenodd" clip-rule="evenodd" d="M220.295 400.366C282.195 396.31 338.623 426.681 392.83 456.841C454.451 491.126 523.293 522.382 553.836 585.941C586.224 653.337 599.13 740.976 559.99 804.689C521.665 867.073 426.871 854.346 364.948 893.413C309.589 928.338 285.476 1013.01 220.295 1019C155.05 1024.99 108.26 959.984 54.9476 921.897C1.09419 883.423 -68.4911 857.649 -92.0966 795.817C-116.054 733.062 -97.2133 661.074 -67.6535 600.755C-40.6923 545.738 13.1535 513.423 63.4424 478.426C112.581 444.229 160.557 404.28 220.295 400.366Z" fill="#FD4C00" fill-opacity="0.35"/>
</g>
<defs>
<filter id="filter0_f_298_3664" x="-503" y="0" width="1487.2" height="1419.38" filterUnits="userSpaceOnUse" color-interpolation-filters="sRGB">
<feFlood flood-opacity="0" result="BackgroundImageFix"/>
<feBlend mode="normal" in="SourceGraphic" in2="BackgroundImageFix" result="shape"/>
<feGaussianBlur stdDeviation="200" result="effect1_foregroundBlur_298_3664"/>
</filter>
</defs>
</svg>
