<svg width="498" height="422" viewBox="0 0 498 422" fill="none" xmlns="http://www.w3.org/2000/svg">
<path fill-rule="evenodd" clip-rule="evenodd" d="M186.41 300.151C182.649 291.227 180.711 281.642 180.711 271.96C180.711 262.277 182.649 252.692 186.41 243.768V243.214C196.795 216.895 201.957 188.81 201.607 160.523C201.197 138.885 203.621 117.286 208.817 96.2755C211.914 83.5215 216.965 71.3219 223.792 60.1085C226.412 55.8681 229.561 51.9782 233.165 48.5329C239.666 41.785 247.628 36.6135 256.44 33.4152C265.253 30.2168 274.682 29.0765 284.004 30.0818C293.326 31.087 302.294 34.2111 310.22 39.2144C318.145 44.2177 324.818 50.9673 329.726 58.9454C336.375 70.3566 341.22 82.724 344.091 95.6109C349.67 119.874 351.669 144.821 350.025 169.662C348.637 195.063 353.135 220.442 363.17 243.824L364.668 247.534C368.277 256.501 370.058 266.097 369.905 275.76C369.753 285.423 367.671 294.958 363.78 303.806C360.342 310.619 355.627 316.434 351.745 322.915C347.406 329.326 345.088 336.888 345.089 344.626C345.047 348.357 346.227 352 348.45 355C350.673 357.999 353.816 360.191 357.402 361.242C353.635 362.486 349.59 362.626 345.747 361.644C341.903 360.662 338.422 358.601 335.716 355.703C333.722 362.72 331.009 369.513 327.618 375.974L328.839 376.916H327.175C316.732 397.044 299.591 412.908 278.7 421.778C285.164 412.825 288.408 401.954 287.907 390.929C283.472 389.208 279.378 386.714 275.816 383.562C271.717 387.694 266.728 390.838 261.23 392.756C261.402 402.426 264.474 411.821 270.048 419.729C250.711 411.159 234.69 396.54 224.402 378.079C223.127 378.079 221.796 378.079 220.52 378.079C221.493 377.444 222.42 376.741 223.293 375.974C219.271 368.618 216.142 360.809 213.975 352.712C211.197 355.516 207.675 357.469 203.824 358.342C199.973 359.215 195.952 358.972 192.234 357.642C199.167 356.755 204.214 348.946 204.768 341.026C204.753 333.35 202.456 325.852 198.168 319.481C194.397 312.945 189.738 307.019 186.41 300.151Z" fill="#35375B"/>
<path fill-rule="evenodd" clip-rule="evenodd" d="M276.758 174.258C276.758 174.258 235.327 174.258 213.031 196.413C196.392 213.029 202.327 334.878 206.542 399.624H387.739C378.532 341.69 355.404 200.234 346.197 182.899C334.605 161.464 276.758 174.258 276.758 174.258Z" fill="#EDE9E9"/>
<path fill-rule="evenodd" clip-rule="evenodd" d="M342.871 178.858C342.871 178.858 366.554 189.215 400.053 243.549C430.669 293.396 435.05 339.145 420.907 367.391C406.764 395.638 359.344 395.084 359.344 395.084L342.871 178.858Z" fill="#F4F1F1"/>
<path fill-rule="evenodd" clip-rule="evenodd" d="M251.415 177.418C232.034 176.3 212.738 180.743 195.804 190.224C178.871 199.704 165.008 213.826 155.852 230.92C138.605 260.733 129.074 294.37 128.121 328.787L224.183 314.885L251.415 177.418Z" fill="#F4F1F1"/>
<path d="M280.5 259.5L260 261L238 332.5C289.145 350.075 315.12 361.425 365 369.5L370.5 278C347.498 264.236 326.576 260.842 280.5 259.5Z" fill="#F4F1F1"/>
<path fill-rule="evenodd" clip-rule="evenodd" d="M399.663 294.006H399.053C368.438 276.116 296.114 273.956 295.393 273.901C295.228 273.901 295.065 273.868 294.913 273.803C294.761 273.738 294.624 273.643 294.51 273.524C294.396 273.405 294.308 273.264 294.25 273.11C294.192 272.956 294.166 272.791 294.173 272.627C294.173 272.462 294.206 272.299 294.271 272.147C294.336 271.996 294.431 271.859 294.55 271.745C294.669 271.631 294.81 271.543 294.965 271.485C295.119 271.427 295.284 271.401 295.449 271.408C298.444 271.408 369.159 273.845 400.329 291.624C400.612 291.797 400.816 292.072 400.899 292.393C400.982 292.713 400.936 293.053 400.773 293.341C400.66 293.537 400.498 293.701 400.304 293.817C400.11 293.933 399.89 293.998 399.663 294.006Z" fill="#35375B"/>
<path fill-rule="evenodd" clip-rule="evenodd" d="M393.119 390.487C392.287 390.487 322.904 383.896 265 357.255C264.703 357.111 264.473 356.857 264.359 356.547C264.245 356.237 264.257 355.895 264.39 355.593C264.535 355.296 264.789 355.067 265.099 354.953C265.409 354.839 265.752 354.851 266.054 354.984C323.514 381.348 392.287 387.939 393.23 387.994C393.516 388.055 393.773 388.212 393.957 388.438C394.141 388.665 394.241 388.948 394.241 389.24C394.241 389.532 394.141 389.815 393.957 390.042C393.773 390.269 393.516 390.426 393.23 390.487H393.119Z" fill="#35375B"/>
<path fill-rule="evenodd" clip-rule="evenodd" d="M260.731 187.499C258.218 187.156 255.867 186.063 253.987 184.363C252.107 182.663 250.784 180.436 250.193 177.973C250.16 177.813 250.16 177.648 250.191 177.487C250.222 177.327 250.284 177.174 250.374 177.038C250.464 176.902 250.58 176.785 250.716 176.693C250.851 176.602 251.004 176.538 251.164 176.505C251.324 176.472 251.489 176.471 251.65 176.502C251.81 176.533 251.963 176.596 252.1 176.686C252.236 176.776 252.354 176.892 252.445 177.027C252.537 177.162 252.601 177.314 252.634 177.474C253.079 179.421 254.109 181.185 255.586 182.531C257.063 183.877 258.916 184.741 260.898 185.007C261.227 185.061 261.522 185.243 261.719 185.512C261.916 185.781 261.999 186.117 261.951 186.447C261.911 186.74 261.765 187.009 261.54 187.203C261.315 187.397 261.028 187.502 260.731 187.499Z" fill="#35375B"/>
<path fill-rule="evenodd" clip-rule="evenodd" d="M331.946 91.4035C329.548 91.4117 327.208 92.1455 325.235 93.5081C321.692 79.1304 314.707 65.8263 304.88 54.738C301.477 50.245 296.914 46.7607 291.68 44.6578C289.215 43.4474 286.543 42.7144 283.805 42.4977C282.03 42.4977 280.255 42.4977 278.258 42.4977C276.262 42.4977 274.709 42.4977 272.712 42.7746C269.993 43.1591 267.364 44.0217 264.947 45.3224C259.81 47.6261 255.414 51.3072 252.246 55.9565C242.912 67.4113 236.515 80.9661 233.611 95.4466C231.558 94.2046 229.187 93.5885 226.789 93.6743C220.355 94.4497 218.303 105.527 220.355 113.89C223.017 124.413 231.115 127.57 238.602 129.509C242.325 136.616 247.134 143.1 252.856 148.728C258.632 155.465 266.4 160.197 275.041 162.242H275.818H277.315H278.314H281.364C282.029 162.297 282.696 162.297 283.361 162.242H284.193H285.247L286.689 161.854H287.465C296.008 159.497 303.581 154.494 309.096 147.565C314.555 141.668 319.065 134.96 322.462 127.681C329.839 125.41 337.77 121.866 339.933 111.065C341.486 102.813 338.935 91.8466 331.946 91.4035Z" fill="#FFA17A"/>
<path fill-rule="evenodd" clip-rule="evenodd" d="M295.56 123.968C294.877 122.667 294.059 121.442 293.119 120.312C292.132 118.977 291.278 117.549 290.568 116.048C289.183 113.101 288.338 109.931 288.072 106.687C287.979 106.257 287.728 105.877 287.369 105.621C287.01 105.365 286.569 105.251 286.131 105.303C285.925 105.342 285.729 105.422 285.555 105.539C285.38 105.657 285.232 105.808 285.118 105.984C285.004 106.16 284.926 106.357 284.891 106.564C284.855 106.77 284.862 106.982 284.911 107.186C285.364 112.649 287.279 117.891 290.457 122.362C291.733 124.078 293.563 125.962 291.733 127.9C289.903 129.839 286.852 129.285 284.467 129.008C282.082 128.731 282.138 131.999 284.467 132.22C287.532 132.986 290.775 132.529 293.508 130.946C294.635 130.226 295.464 129.123 295.841 127.841C296.219 126.558 296.119 125.182 295.56 123.968Z" fill="#35375B"/>
<path fill-rule="evenodd" clip-rule="evenodd" d="M269.01 106.231C269.103 107.582 269.543 108.83 270.241 109.716C270.939 110.602 271.841 111.06 272.76 110.994C273.21 110.985 273.653 110.841 274.063 110.569C274.473 110.298 274.841 109.905 275.143 109.415C275.446 108.925 275.678 108.349 275.823 107.722C275.969 107.095 276.025 106.43 275.99 105.77C275.885 104.412 275.433 103.164 274.727 102.279C274.021 101.394 273.113 100.939 272.188 101.007C271.743 101.025 271.305 101.177 270.901 101.453C270.497 101.73 270.136 102.124 269.839 102.613C269.542 103.101 269.315 103.674 269.172 104.296C269.03 104.918 268.975 105.576 269.01 106.231Z" fill="#35375B"/>
<path fill-rule="evenodd" clip-rule="evenodd" d="M300.007 105.191C300.099 106.552 300.545 107.81 301.253 108.703C301.961 109.597 302.877 110.059 303.811 109.994C304.258 109.965 304.697 109.805 305.101 109.523C305.506 109.24 305.867 108.842 306.164 108.351C306.46 107.86 306.686 107.287 306.828 106.665C306.97 106.044 307.025 105.386 306.99 104.733C306.897 103.392 306.456 102.154 305.758 101.274C305.06 100.395 304.158 99.9408 303.238 100.006C302.79 100.025 302.35 100.176 301.944 100.449C301.537 100.722 301.172 101.112 300.871 101.596C300.569 102.08 300.337 102.647 300.189 103.265C300.04 103.882 299.978 104.537 300.007 105.191Z" fill="#35375B"/>
<path fill-rule="evenodd" clip-rule="evenodd" d="M261.73 93.675C264.354 92.8248 267.075 92.3039 269.828 92.1241C273.599 92.1241 272.656 86.0871 268.885 86.3086C265.672 86.5183 262.502 87.1515 259.456 88.1917C255.796 89.3549 258.236 94.7273 261.786 93.7303L261.73 93.675Z" fill="#35375B"/>
<path fill-rule="evenodd" clip-rule="evenodd" d="M302.549 93.675C299.925 92.8248 297.205 92.3039 294.452 92.1241C290.68 92.1241 291.623 86.0871 295.395 86.3086C298.607 86.5183 301.777 87.1515 304.823 88.1917C308.484 89.3549 305.988 94.7273 302.438 93.7303L302.549 93.675Z" fill="#35375B"/>
<path fill-rule="evenodd" clip-rule="evenodd" d="M240.781 101.393L253.332 106.84C253.571 104.301 255.708 102.314 258.31 102.314H277.856C280.479 102.314 282.629 104.333 282.84 106.901H291.564C291.774 104.333 293.925 102.314 296.547 102.314H316.093C318.855 102.314 321.093 104.553 321.093 107.314V110.965C321.093 113.727 318.855 115.965 316.093 115.965H296.547C293.786 115.965 291.547 113.727 291.547 110.965V109.901H282.856V110.965C282.856 113.727 280.618 115.965 277.856 115.965H258.31C255.549 115.965 253.31 113.727 253.31 110.965V110.101L239.587 104.144C238.827 103.815 238.478 102.931 238.808 102.171C239.138 101.411 240.021 101.063 240.781 101.393ZM277.856 105.314H258.31C257.206 105.314 256.31 106.209 256.31 107.314V110.965C256.31 112.07 257.206 112.965 258.31 112.965H277.856C278.961 112.965 279.856 112.07 279.856 110.965V107.314C279.856 106.209 278.961 105.314 277.856 105.314ZM296.547 105.314H316.093C317.198 105.314 318.093 106.209 318.093 107.314V110.965C318.093 112.07 317.198 112.965 316.093 112.965H296.547C295.442 112.965 294.547 112.07 294.547 110.965V107.314C294.547 106.209 295.442 105.314 296.547 105.314Z" fill="#35375B"/>
<path fill-rule="evenodd" clip-rule="evenodd" d="M289.573 175.699L289.24 170.16V169.274V151.883L253.633 148.726V150.553V162.627C253.633 165.231 253.633 168.166 254.077 170.548C254.52 172.929 254.077 176.806 254.077 179.686C261.564 186.942 284.969 183.619 289.573 175.699Z" fill="#FFA17A"/>
<g style="mix-blend-mode:multiply" opacity="0.49">
<path fill-rule="evenodd" clip-rule="evenodd" d="M287.518 161.742C275.095 165.12 262.948 160.191 253.242 149.944C253.686 155.483 253.63 161.022 253.797 166.56C253.963 172.099 254.241 175.754 254.241 180.517C271.6 181.958 287.518 170.88 287.518 161.742Z" fill="#35375B"/>
</g>
<path fill-rule="evenodd" clip-rule="evenodd" d="M310.536 61.3265C310.886 56.9847 310.146 52.6244 308.383 48.6401C306.621 44.6558 303.891 41.1732 300.442 38.5074C296.118 35.5515 291.245 33.4896 286.111 32.4433C280.977 31.3969 275.685 31.3873 270.547 32.415C260.526 34.0578 250.991 37.8877 242.622 43.6318C234.253 49.3759 227.255 56.8927 222.128 65.6465C216.928 74.7143 213.657 84.7563 212.521 95.1443C211.386 105.532 212.409 116.042 215.528 126.017C219.466 138.202 226.621 150.719 223.071 163.07C220.438 169.192 217.264 175.068 213.587 180.628C208.99 190.762 208.068 202.179 210.98 212.918C213.809 223.601 218.421 233.731 224.624 242.881C229.687 249.502 233.451 257.019 235.717 265.036C237.325 273.233 234.496 283.147 227.064 286.304C231.865 285.912 236.531 284.522 240.762 282.224C244.994 279.925 248.697 276.768 251.634 272.956C257.631 265.043 260.316 255.114 259.122 245.263C256.349 224.216 236.549 207.49 238.157 186.388C239.377 170.769 252.355 157.476 251.191 142.079C250.248 130.614 242.539 121.032 242.539 109.955C242.69 105.178 243.933 100.499 246.173 96.2752C248.412 92.0514 251.59 88.395 255.461 85.5855C263.095 80.2964 271.545 76.2924 280.475 73.7329C278.367 77.1114 270.27 77.7761 268.162 81.1546C275.761 78.4407 287.408 81.7085 294.507 79.2715C296.273 78.6457 297.98 77.8673 299.61 76.9453C301.606 83.37 344.923 91.7333 322.349 128.897C341.706 111.174 340.985 57.7818 310.536 61.3265Z" fill="#35375B"/>
<path fill-rule="evenodd" clip-rule="evenodd" d="M283.469 143.188C283.254 143.264 283.019 143.264 282.804 143.188L272.71 137.649C272.503 137.581 272.313 137.468 272.155 137.319C271.996 137.17 271.872 136.988 271.791 136.786C271.71 136.584 271.674 136.366 271.686 136.149C271.698 135.932 271.757 135.72 271.859 135.528C271.961 135.335 272.104 135.168 272.278 135.037C272.452 134.906 272.653 134.814 272.866 134.768C273.079 134.722 273.299 134.723 273.512 134.771C273.724 134.819 273.924 134.913 274.096 135.046L284.19 140.585C284.532 140.772 284.787 141.086 284.901 141.458C285.015 141.83 284.979 142.232 284.8 142.579C284.649 142.785 284.448 142.95 284.215 143.057C283.981 143.163 283.725 143.209 283.469 143.188Z" fill="#35375B"/>
<path fill-rule="evenodd" clip-rule="evenodd" d="M128.396 328.787C128.396 328.787 121.019 381.404 180.642 372.763C221.573 354.984 284.579 249.197 284.579 249.197L304.767 236.293C304.767 236.293 300.885 252.908 317.08 243.936C321.631 241.553 325.326 237.814 327.652 233.239C329.978 228.663 330.819 223.478 330.058 218.403L311.09 185.171C311.09 185.171 338.822 158.309 330.779 156.925C318.023 154.82 278.256 182.291 278.256 182.291C278.256 182.291 280.475 165.676 271.212 168.5C261.95 171.325 257.679 201.732 257.679 201.732L151.468 323.082L128.396 328.787Z" fill="#FFA17A"/>
<path fill-rule="evenodd" clip-rule="evenodd" d="M304.769 237.345C304.545 237.339 304.327 237.275 304.136 237.158C303.945 237.041 303.789 236.876 303.682 236.68C303.575 236.483 303.522 236.262 303.528 236.039C303.534 235.815 303.598 235.597 303.715 235.407L311.147 224.329C311.331 224.058 311.615 223.87 311.938 223.808C312.26 223.745 312.594 223.814 312.866 223.997C313.138 224.181 313.326 224.465 313.389 224.787C313.451 225.109 313.383 225.442 313.199 225.714L308.485 232.637L315.362 229.314C315.507 229.239 315.666 229.193 315.829 229.18C315.992 229.167 316.156 229.187 316.312 229.239C316.467 229.291 316.61 229.373 316.733 229.481C316.856 229.589 316.955 229.721 317.026 229.868C317.16 230.17 317.171 230.512 317.057 230.822C316.943 231.132 316.713 231.386 316.416 231.53L305.323 237.068L304.769 237.345Z" fill="#35375B"/>
<path fill-rule="evenodd" clip-rule="evenodd" d="M303.882 191.153C303.681 191.16 303.482 191.112 303.306 191.014C303.13 190.916 302.984 190.773 302.884 190.599C302.779 190.472 302.704 190.324 302.661 190.165C302.618 190.006 302.61 189.84 302.636 189.678C302.662 189.516 302.722 189.361 302.813 189.224C302.903 189.087 303.022 188.97 303.161 188.882L310.371 183.842C310.655 183.664 310.995 183.6 311.324 183.662C311.652 183.723 311.946 183.906 312.146 184.174C312.239 184.308 312.305 184.459 312.339 184.619C312.373 184.778 312.374 184.943 312.343 185.103C312.312 185.263 312.249 185.415 312.158 185.551C312.067 185.686 311.95 185.802 311.813 185.891L304.603 190.931C304.396 191.087 304.141 191.165 303.882 191.153Z" fill="#35375B"/>
<path fill-rule="evenodd" clip-rule="evenodd" d="M278.257 183.288C277.95 183.276 277.656 183.159 277.425 182.955C277.221 182.784 277.081 182.547 277.031 182.284C276.98 182.022 277.022 181.751 277.148 181.515C278.244 179.015 278.647 176.268 278.315 173.559C277.983 170.85 276.929 168.28 275.262 166.118C274.32 165.121 273.599 165.121 273.155 165.232C269.605 166.007 265.279 175.7 263.393 181.848C263.28 182.163 263.051 182.424 262.752 182.578C262.454 182.732 262.109 182.768 261.785 182.678C261.471 182.565 261.213 182.334 261.068 182.034C260.923 181.733 260.902 181.388 261.008 181.072C261.563 179.355 266.555 164.456 272.6 163.072C273.416 162.896 274.265 162.953 275.05 163.237C275.835 163.521 276.524 164.02 277.037 164.678C278.808 166.633 280.053 169.006 280.655 171.573C281.256 174.14 281.195 176.818 280.476 179.355L292.844 171.435C293.129 171.279 293.461 171.233 293.777 171.304C294.094 171.375 294.374 171.56 294.564 171.823C294.656 171.964 294.719 172.123 294.749 172.289C294.78 172.455 294.777 172.625 294.741 172.79C294.705 172.955 294.636 173.111 294.539 173.249C294.442 173.387 294.318 173.505 294.175 173.595L278.923 183.066C278.738 183.223 278.5 183.302 278.257 183.288Z" fill="#35375B"/>
<path fill-rule="evenodd" clip-rule="evenodd" d="M295.339 258.279C295.151 258.276 294.966 258.236 294.794 258.16C294.623 258.084 294.468 257.973 294.34 257.836L251.69 201.785L223.958 237.066C223.72 237.296 223.402 237.425 223.071 237.425C222.74 237.425 222.421 237.296 222.183 237.066C221.953 236.828 221.824 236.511 221.824 236.18C221.824 235.849 221.953 235.531 222.183 235.294L251.135 198.739C251.238 198.584 251.378 198.456 251.543 198.369C251.707 198.282 251.891 198.238 252.078 198.241C252.453 198.302 252.801 198.476 253.076 198.739L296.337 256.285C296.568 256.523 296.696 256.84 296.696 257.171C296.696 257.502 296.568 257.82 296.337 258.057C296.195 258.161 296.033 258.234 295.861 258.272C295.689 258.311 295.512 258.313 295.339 258.279Z" fill="#35375B"/>
<path fill-rule="evenodd" clip-rule="evenodd" d="M251.69 202.452L295.339 257.063C295.339 257.063 278.7 362.296 226.177 394.863C173.654 427.43 124.902 381.016 128.396 328.787C129.45 312.172 161.674 313.002 178.312 295.223C190.514 282.263 202.328 266.201 213.199 252.466C234.995 224.994 251.69 202.452 251.69 202.452Z" fill="#F4F1F1"/>
<path fill-rule="evenodd" clip-rule="evenodd" d="M213.643 252.024C213.643 252.024 189.683 251.691 178.646 256.288C167.608 260.885 146.976 289.52 150.304 293.895C153.632 298.271 161.397 293.895 161.397 293.895C161.397 293.895 157.348 304.363 166.943 304.086C176.538 303.809 213.643 252.024 213.643 252.024Z" fill="#F38362"/>
<path fill-rule="evenodd" clip-rule="evenodd" d="M160.453 295.778C160.143 295.776 159.846 295.658 159.621 295.445C159.391 295.208 159.262 294.89 159.262 294.559C159.262 294.229 159.391 293.911 159.621 293.673L180.309 270.023C180.406 269.866 180.537 269.731 180.692 269.629C180.847 269.527 181.023 269.46 181.207 269.433C181.39 269.406 181.578 269.419 181.756 269.472C181.934 269.524 182.098 269.615 182.238 269.738C182.377 269.861 182.488 270.012 182.562 270.182C182.637 270.352 182.673 270.536 182.669 270.722C182.665 270.907 182.62 271.089 182.538 271.256C182.456 271.422 182.339 271.568 182.194 271.685L161.507 295.335C161.373 295.479 161.209 295.593 161.028 295.67C160.846 295.746 160.65 295.783 160.453 295.778Z" fill="#35375B"/>
<path fill-rule="evenodd" clip-rule="evenodd" d="M62.616 422C59.6741 422 56.8526 420.833 54.7724 418.756C52.6921 416.678 51.5234 413.861 51.5234 410.923C51.5234 407.985 52.6921 405.167 54.7724 403.09C56.8526 401.013 59.6741 399.846 62.616 399.846H486.906C489.848 399.846 492.67 401.013 494.75 403.09C496.83 405.167 497.999 407.985 497.999 410.923C497.999 413.861 496.83 416.678 494.75 418.756C492.67 420.833 489.848 422 486.906 422H62.616Z" fill="#E3E3E3"/>
<path fill-rule="evenodd" clip-rule="evenodd" d="M76.8694 87.4871C77.6711 84.5933 79.5911 82.1361 82.207 80.656C84.8229 79.1758 87.9205 78.7941 90.8183 79.5946C93.7161 80.3952 96.1768 82.3125 97.6589 84.9248C99.1411 87.5371 99.5234 90.6304 98.7218 93.5242C97.9201 96.418 96.0001 98.8752 93.3842 100.355C92.0889 101.088 90.6618 101.559 89.1842 101.741C87.7067 101.923 86.2077 101.813 84.7729 101.417C83.338 101.02 81.9954 100.346 80.8217 99.431C79.648 98.5164 78.6661 97.38 77.9322 96.0865C76.4501 93.4742 76.0677 90.3809 76.8694 87.4871ZM118.633 34.5382C120.74 26.8396 115.582 19.8056 105.045 16.8701C100.789 15.4325 96.2415 15.0797 91.8149 15.8439C87.3883 16.608 83.2231 18.4649 79.698 21.2456L68.6055 8.94992C74.5323 4.55253 81.4431 1.6642 88.7396 0.535056C96.0361 -0.594092 103.498 0.069983 110.48 2.46977C130.668 8.00836 141.594 20.9687 137.213 36.7536C131.001 58.908 106.93 54.6433 102.438 70.816L85.1888 65.8312C90.846 45.7262 114.972 48.2185 118.633 34.5382Z" fill="#35375B"/>
<path fill-rule="evenodd" clip-rule="evenodd" d="M34.997 88.7061C34.5226 87.1397 34.5252 85.4677 35.0046 83.9028C35.4839 82.3379 36.4184 80.9506 37.6892 79.9173C38.9601 78.884 40.5098 78.2514 42.1416 78.0998C43.7733 77.9482 45.4133 78.2845 46.8532 79.066C48.2931 79.8474 49.4678 81.0388 50.228 82.4885C50.9882 83.9383 51.2996 85.5811 51.1227 87.208C50.9457 88.8349 50.2883 90.3726 49.2341 91.6256C48.1799 92.8785 46.7765 93.7902 45.2022 94.2447C44.1686 94.5825 43.0769 94.706 41.9939 94.6076C40.9109 94.5092 39.8594 94.1909 38.9039 93.6724C37.9484 93.1538 37.1091 92.4458 36.4372 91.5919C35.7654 90.7379 35.2753 89.7559 34.997 88.7061ZM40.9315 39.6896C39.3231 34.151 33.4441 31.6586 25.6793 33.8187C22.482 34.5468 19.5159 36.0565 17.0474 38.2123C14.5788 40.3681 12.6851 43.1024 11.5363 46.1697L0 42.625C2.04527 37.6367 5.27492 33.2202 9.41043 29.7562C13.5459 26.2922 18.4632 23.8847 23.7381 22.7415C38.4912 18.5321 50.1938 22.7415 53.4661 33.8187C58.125 50.1575 41.3752 56.5269 44.7585 68.3241L32.002 71.9242C27.7869 57.2469 43.7601 49.7144 40.9315 39.6896Z" fill="#35375B"/>
</svg>
