<svg width="561" height="490" viewBox="0 0 561 490" fill="none" xmlns="http://www.w3.org/2000/svg">
<g clip-path="url(#clip0_298_4558)">
<g clip-path="url(#clip1_298_4558)">
<path d="M173.195 336.792C160.251 331.72 149.999 327.181 142.049 321.53C131.969 314.375 127.074 306.314 127.074 296.881C127.074 274.736 153.912 264.397 179.863 254.385C183.129 253.107 186.506 251.829 189.759 250.518L192.798 258.026C189.481 259.346 186.099 260.662 182.808 261.939C159.411 270.968 135.235 280.302 135.235 296.894C135.235 311.978 154.607 320.818 176.19 329.259L173.195 336.792Z" fill="#FD4C00"/>
<path d="M144.592 430.95C144.422 430.963 144.253 430.908 144.123 430.797C143.994 430.686 143.913 430.529 143.9 430.36C143.887 430.19 143.942 430.023 144.054 429.894C144.165 429.765 144.323 429.685 144.494 429.672L227.036 416.743C227.206 416.716 227.38 416.758 227.52 416.859C227.659 416.96 227.752 417.112 227.779 417.282C227.806 417.451 227.764 417.624 227.662 417.763C227.56 417.901 227.408 417.994 227.237 418.02L144.695 430.941L144.592 430.95Z" fill="#35375B"/>
<path d="M192.797 258.026L189.758 250.518C203.138 245.169 216.433 239.109 223.05 231.031L229.364 236.141C221.585 245.637 207.193 252.272 192.797 258.026Z" fill="#FD4C00"/>
<path d="M141.434 279.681C141.349 279.688 141.264 279.679 141.183 279.654C141.102 279.629 141.027 279.588 140.962 279.534C140.831 279.425 140.748 279.269 140.733 279.099C140.718 278.93 140.771 278.761 140.88 278.631C140.99 278.5 141.148 278.418 141.318 278.403L229.53 262.527C229.7 262.497 229.876 262.536 230.018 262.634C230.16 262.733 230.256 262.884 230.286 263.053C230.317 263.222 230.278 263.397 230.178 263.538C230.079 263.679 229.928 263.775 229.757 263.805L141.55 279.672L141.434 279.681Z" fill="#35375B"/>
<path d="M133.892 297.895C133.808 297.902 133.723 297.892 133.642 297.867C133.561 297.842 133.486 297.801 133.422 297.747C133.357 297.692 133.303 297.626 133.264 297.551C133.225 297.477 133.201 297.395 133.194 297.311C133.186 297.227 133.196 297.143 133.221 297.062C133.247 296.982 133.288 296.908 133.343 296.843C133.453 296.713 133.61 296.632 133.781 296.617L235.356 278.407C235.527 278.377 235.702 278.415 235.845 278.513C235.987 278.611 236.084 278.762 236.115 278.931C236.146 279.1 236.107 279.275 236.008 279.416C235.909 279.558 235.758 279.654 235.588 279.685L134.012 297.899L133.892 297.895Z" fill="#35375B"/>
<path d="M140.729 313.468C140.559 313.484 140.389 313.432 140.257 313.323C140.125 313.215 140.042 313.058 140.026 312.889C140.01 312.72 140.063 312.551 140.172 312.42C140.281 312.289 140.439 312.206 140.609 312.191L229.52 295.029C229.69 294.996 229.866 295.033 230.01 295.13C230.153 295.227 230.252 295.377 230.285 295.546C230.317 295.715 230.28 295.891 230.183 296.033C230.085 296.176 229.934 296.274 229.764 296.306L140.853 313.468C140.812 313.472 140.77 313.472 140.729 313.468Z" fill="#35375B"/>
<path d="M223.095 356.608C223.057 356.612 223.018 356.612 222.98 356.608L142.002 342.001C141.832 341.97 141.681 341.874 141.582 341.732C141.483 341.591 141.444 341.416 141.475 341.247C141.506 341.078 141.603 340.927 141.745 340.829C141.888 340.731 142.063 340.693 142.234 340.723L223.211 355.339C223.382 355.354 223.539 355.436 223.649 355.566C223.758 355.697 223.811 355.865 223.796 356.035C223.781 356.204 223.698 356.361 223.567 356.47C223.436 356.579 223.266 356.631 223.095 356.616V356.608Z" fill="#FD4C00"/>
<path d="M231.524 374.979H231.408L136.334 357.932C136.164 357.902 136.013 357.805 135.914 357.664C135.815 357.522 135.777 357.348 135.807 357.178C135.838 357.009 135.935 356.859 136.077 356.76C136.22 356.662 136.395 356.624 136.566 356.655L231.635 373.689C231.803 373.719 231.951 373.814 232.049 373.953C232.146 374.092 232.184 374.263 232.154 374.43C232.131 374.58 232.055 374.718 231.939 374.819C231.824 374.919 231.677 374.976 231.524 374.979Z" fill="#FD4C00"/>
<path d="M224.939 390.591H224.815L144.326 374.971C144.159 374.938 144.011 374.841 143.915 374.701C143.82 374.56 143.784 374.388 143.816 374.221C143.849 374.054 143.946 373.907 144.088 373.812C144.229 373.717 144.403 373.682 144.571 373.714L225.055 389.322C225.226 389.338 225.383 389.421 225.492 389.553C225.6 389.684 225.652 389.853 225.636 390.023C225.619 390.192 225.536 390.348 225.404 390.456C225.271 390.564 225.101 390.616 224.931 390.6L224.939 390.591Z" fill="#FD4C00"/>
<path d="M240.912 434.761H232.769C232.769 418.153 208.575 408.831 185.195 399.802C159.24 389.79 132.406 379.438 132.406 357.302C132.406 335.166 159.219 324.817 185.195 314.801C208.592 305.777 232.769 296.442 232.769 279.847C232.769 263.251 208.571 253.916 185.17 244.905C178.964 242.507 172.539 240.029 166.578 237.423L169.856 230C175.655 232.555 181.994 234.978 188.118 237.346C214.069 247.358 240.912 257.711 240.912 279.847C240.912 301.983 214.078 312.331 188.123 322.343C164.726 331.371 140.549 340.706 140.549 357.302C140.549 373.897 164.743 383.232 188.123 392.26C214.074 402.272 240.912 412.629 240.912 434.761Z" fill="#35375B"/>
<path d="M144.311 435.6L139.168 429.34C149.308 421.091 164.849 415.095 179.884 409.299C203.28 400.271 227.457 390.936 227.457 374.34C227.457 357.745 203.263 348.41 179.884 339.382C177.651 338.53 175.418 337.678 173.202 336.792L176.202 329.268C178.401 330.119 180.621 330.971 182.837 331.823C208.766 341.856 235.596 352.221 235.596 374.34C235.596 396.459 208.766 406.829 182.807 416.841C168.376 422.411 153.453 428.169 144.311 435.6Z" fill="#FD4C00"/>
<path d="M344.616 380.234C339.873 390.09 333.137 402.692 331.872 405.487C331.872 405.487 339.251 423.688 362.967 440.648C362.967 440.648 390.852 434.564 443.508 409.485C441.927 401.235 439.845 385.716 437.184 374.571C451.514 376.716 467.414 380.91 475.104 386.572C524.955 423.271 397.983 470.048 367.052 481.272C367.052 481.272 311.951 456.177 278.405 396.951C278.405 396.951 311.329 386.82 344.616 380.234Z" fill="#FFA27A"/>
<path d="M395.426 267.854C395.426 267.854 411.236 226.961 438.268 183.459L458.822 153.912C463.992 147.346 473.848 137.416 473.848 137.416C451.486 122.495 427 113.399 427 113.399C393.491 157.889 356.905 249.616 356.905 249.616L395.426 267.854Z" fill="#FD4C00"/>
<path d="M430.889 353.966C430.228 351.259 429.261 348.636 428.006 346.149L434.331 342.546C446.126 335.416 466.348 323.003 478.043 292.695C492.019 256.477 475.096 206.584 433.024 197.668C433.024 197.668 447.417 156.817 466.896 145.614C466.896 145.614 506.797 175.072 514.856 241.434C522.529 304.363 475.708 346.091 432.497 358.767C432.062 357.135 431.525 355.531 430.889 353.966Z" fill="#FD4C00"/>
<path d="M401.41 332.183C401.41 332.183 391.491 318.571 385.378 306.777C385.378 306.777 352.496 301.822 316.142 293.873C316.142 293.873 325.049 320.938 335.642 335.458C335.616 335.458 362.531 334.671 401.41 332.183Z" fill="#E4E4E4"/>
<path d="M449.597 190.825C442.083 181.156 442.499 168.239 450.526 161.975C458.552 155.711 471.149 158.471 478.662 168.14C486.175 177.808 485.759 190.725 477.733 196.989C469.707 203.253 457.11 200.493 449.597 190.825Z" fill="white"/>
<path d="M460.866 153.976C461.075 153.976 461.276 153.893 461.425 153.744C461.573 153.596 461.656 153.394 461.656 153.184V132.532C461.656 132.321 461.573 132.12 461.425 131.971C461.276 131.823 461.075 131.739 460.866 131.739C460.656 131.739 460.455 131.823 460.307 131.971C460.158 132.12 460.075 132.321 460.075 132.532V153.184C460.075 153.394 460.158 153.596 460.307 153.744C460.455 153.893 460.656 153.976 460.866 153.976Z" fill="#35375B"/>
<path d="M450.088 157.991C450.298 157.991 450.499 157.907 450.647 157.759C450.796 157.61 450.879 157.408 450.879 157.198V125.913C450.879 125.703 450.796 125.502 450.647 125.353C450.499 125.205 450.298 125.121 450.088 125.121C449.879 125.121 449.678 125.205 449.529 125.353C449.381 125.502 449.298 125.703 449.298 125.913V157.198C449.298 157.408 449.381 157.61 449.529 157.759C449.678 157.907 449.879 157.991 450.088 157.991Z" fill="#35375B"/>
<path d="M439.299 183.856C439.509 183.856 439.71 183.772 439.858 183.624C440.007 183.475 440.09 183.273 440.09 183.063V115.687C440.09 115.477 440.007 115.275 439.858 115.127C439.71 114.978 439.509 114.895 439.299 114.895C439.09 114.895 438.889 114.978 438.74 115.127C438.592 115.275 438.509 115.477 438.509 115.687V183.063C438.509 183.273 438.592 183.475 438.74 183.624C438.889 183.772 439.09 183.856 439.299 183.856Z" fill="#35375B"/>
<path d="M428.506 201.894C428.716 201.894 428.917 201.811 429.065 201.662C429.214 201.513 429.297 201.312 429.297 201.102V109.671C429.297 109.461 429.214 109.26 429.065 109.111C428.917 108.962 428.716 108.879 428.506 108.879C428.297 108.879 428.096 108.962 427.947 109.111C427.799 109.26 427.716 109.461 427.716 109.671V201.112C427.719 201.321 427.803 201.519 427.951 201.666C428.099 201.812 428.298 201.894 428.506 201.894Z" fill="#35375B"/>
<path d="M417.717 226.571C417.927 226.57 418.127 226.486 418.275 226.338C418.423 226.19 418.506 225.989 418.508 225.779V125.913C418.508 125.703 418.425 125.502 418.276 125.353C418.128 125.205 417.927 125.121 417.717 125.121C417.508 125.121 417.307 125.205 417.158 125.353C417.01 125.502 416.927 125.703 416.927 125.913V225.779C416.927 225.989 417.01 226.191 417.158 226.339C417.307 226.488 417.508 226.571 417.717 226.571Z" fill="#35375B"/>
<path d="M396.135 269.28C396.345 269.28 396.546 269.197 396.694 269.048C396.842 268.9 396.926 268.698 396.926 268.488V163.816C396.926 163.606 396.842 163.404 396.694 163.255C396.546 163.107 396.345 163.023 396.135 163.023C395.926 163.023 395.724 163.107 395.576 163.255C395.428 163.404 395.345 163.606 395.345 163.816V268.488C395.345 268.698 395.428 268.9 395.576 269.048C395.724 269.197 395.926 269.28 396.135 269.28Z" fill="#35375B"/>
<path d="M385.342 264.469C385.552 264.469 385.753 264.386 385.901 264.237C386.05 264.088 386.133 263.887 386.133 263.677V183.064C386.133 182.854 386.05 182.652 385.901 182.504C385.753 182.355 385.552 182.271 385.342 182.271C385.133 182.271 384.932 182.355 384.783 182.504C384.635 182.652 384.552 182.854 384.552 183.064V263.693C384.556 263.9 384.641 264.098 384.789 264.243C384.937 264.388 385.135 264.469 385.342 264.469Z" fill="#35375B"/>
<path d="M374.553 260.861C374.763 260.861 374.964 260.778 375.112 260.629C375.26 260.481 375.344 260.279 375.344 260.069V208.332C375.344 208.122 375.26 207.921 375.112 207.772C374.964 207.624 374.763 207.54 374.553 207.54C374.344 207.54 374.142 207.624 373.994 207.772C373.846 207.921 373.763 208.122 373.763 208.332V260.069C373.763 260.279 373.846 260.481 373.994 260.629C374.142 260.778 374.344 260.861 374.553 260.861Z" fill="#35375B"/>
<path d="M363.76 254.845C363.97 254.845 364.171 254.762 364.319 254.613C364.467 254.465 364.551 254.263 364.551 254.053V231.193C364.551 230.983 364.467 230.781 364.319 230.632C364.171 230.484 363.97 230.4 363.76 230.4C363.551 230.4 363.349 230.484 363.201 230.632C363.053 230.781 362.97 230.983 362.97 231.193V254.053C362.97 254.263 363.053 254.465 363.201 254.613C363.349 254.762 363.551 254.845 363.76 254.845Z" fill="#35375B"/>
<path d="M356.345 246.854C356.709 245.94 393.311 154.694 427.621 108.704L426.356 107.759C391.92 153.912 355.244 245.348 354.875 246.262L356.345 246.854Z" fill="#35375B"/>
<path d="M462.926 152.032C467.998 145.559 473.419 139.368 479.164 133.487L478.036 132.378C472.254 138.298 466.799 144.531 461.698 151.05L462.926 152.032Z" fill="#35375B"/>
<path d="M399.605 269.307C399.763 268.864 415.721 224.437 442.41 181.505L441.066 180.671C414.288 223.745 398.271 268.351 398.113 268.774L399.605 269.307Z" fill="#35375B"/>
<path d="M486.082 140.037L490.941 132.262L490.372 131.823C474.983 119.966 423.339 97.8394 421.152 96.894L420.53 96.6299L415.66 104.415L416.514 104.78C417.041 105.007 470.161 127.772 485.392 139.509L486.082 140.037ZM488.839 132.642L485.676 137.723C470.419 126.452 425.026 106.718 417.985 103.687L421.147 98.6212C427.102 101.183 473.845 121.503 488.839 132.647V132.642Z" fill="#35375B"/>
<path d="M406.788 282.322L411.652 274.537L410.804 274.172C410.277 273.945 357.157 251.18 341.926 239.443L341.236 238.915L336.371 246.69L336.94 247.128C352.335 258.986 403.947 281.123 406.166 282.058L406.788 282.322ZM409.333 275.265L406.171 280.331C400.221 277.769 353.468 257.449 338.485 246.304L341.647 241.223C356.899 252.5 402.292 272.234 409.333 275.265Z" fill="#35375B"/>
<path d="M472.237 120.864C472.364 120.684 485.344 102.377 499.991 84.3759L500.57 83.6628L470.788 66L470.356 66.3592C460.648 74.4247 441.285 105.197 440.462 106.502L441.801 107.347C441.996 107.035 461.301 76.3949 470.946 67.9385L498.188 84.1065C483.748 101.912 471.072 119.781 470.946 119.966L472.237 120.864Z" fill="#35375B"/>
<path d="M382.587 288.264L388.152 273.564L386.671 272.999L381.712 286.114L351.835 272.339L357.711 259.182L356.272 258.537L349.753 273.121L382.587 288.264Z" fill="#35375B"/>
<path d="M367.219 303.867L375.52 285.332L374.081 284.683L366.365 301.902L351.998 297.026L358.043 275.091L356.52 274.668L350.08 298.046L367.219 303.867Z" fill="#35375B"/>
<path d="M314.139 348.732H314.571C315.045 348.732 362.82 347.005 430.623 342.166L432.02 342.066L431.213 340.92C431.039 340.677 413.758 315.957 403.233 294.761L403.049 294.391L402.643 294.333C402.543 294.333 392.566 292.801 376.623 290.076L376.36 291.66C390.516 294.08 399.976 295.548 402 295.86C411.286 314.457 425.616 335.606 429.126 340.709C365.492 345.225 319.825 346.973 314.94 347.153C298.496 323.452 284.335 281.207 281.737 273.248C302.512 277.838 324.779 282.333 347.932 286.606L348.222 285.047C324.584 280.685 301.875 276.068 280.73 271.404L279.397 271.108L279.808 272.413C279.961 272.91 295.524 322.195 313.886 348.415L314.139 348.732Z" fill="#35375B"/>
<path d="M310.391 363.416C311.019 363.385 373.751 359.915 433.016 349.462L432.742 347.877C373.577 358.314 310.934 361.774 310.307 361.811L310.391 363.416Z" fill="#35375B"/>
<path d="M362.837 441.694L363.981 441.446C364.26 441.383 392.557 435.055 444.696 410.198L445.223 409.939L445.112 409.337C444.754 407.436 444.379 405.386 443.984 403.226C441.022 387.01 436.964 364.8 428.779 349.255L427.383 349.994C435.452 365.312 439.504 387.396 442.424 403.511C442.782 405.45 443.12 407.298 443.447 409.031C397.716 430.782 370.585 438.161 364.819 439.581C366.247 431.659 374.832 385.611 387.07 356.655L385.61 356.037C372.166 387.824 363.143 439.972 363.053 440.495L362.837 441.694Z" fill="#35375B"/>
<path d="M363.367 441.299L364.289 440.005C342.681 424.581 334.675 407.938 333.579 405.492C336.905 398.166 345.39 379.785 355.525 360.358L354.123 359.624C343.814 379.373 335.213 398.045 331.987 405.16L331.845 405.466L331.972 405.783C332.061 405.968 339.719 424.397 363.367 441.299Z" fill="#35375B"/>
<path d="M424.71 334.645C445.94 322.618 462.002 303.17 469.824 280.019C475.086 264.777 474.489 248.115 468.148 233.29L466.698 233.919C471.067 244.034 474.899 260.154 468.327 279.507C460.633 302.291 444.826 321.43 423.93 333.261L424.71 334.645Z" fill="#35375B"/>
<path d="M440.137 342.003C452.469 334.08 469.65 318.054 481.292 286.901C487.664 269.894 486.036 250.63 476.76 232.672C467.906 215.563 453.323 202.565 438.698 198.751L438.297 200.288C452.501 203.985 466.704 216.662 475.358 233.406C484.439 250.958 486.025 269.761 479.811 286.347C468.296 317.093 451.415 332.886 439.256 340.672L440.137 342.003Z" fill="#35375B"/>
<path d="M434.798 366.242C458.662 359.946 481.625 344.977 497.8 325.175C511.286 308.669 526.496 280.807 522.364 241.799C518.596 206.241 506.19 181.2 496.461 166.452C485.894 150.448 476.054 142.742 475.959 142.684L474.99 143.935C475.085 144.015 484.761 151.6 495.186 167.408C504.809 181.981 517.063 206.764 520.794 241.968C528.346 313.275 473.266 354.474 434.398 364.71L434.798 366.242Z" fill="#35375B"/>
<path d="M466.987 200.838C470.793 200.856 474.523 199.772 477.728 197.716C487.679 191.309 490.008 177.117 482.925 166.024C479.639 160.783 474.535 156.945 468.595 155.249C465.827 154.434 462.918 154.22 460.061 154.619C457.203 155.019 454.464 156.024 452.025 157.568C447.16 160.695 443.998 165.713 443.007 171.713C442.134 177.83 443.487 184.058 446.818 189.258C450.148 194.458 455.235 198.283 461.148 200.035C463.05 200.564 465.014 200.834 466.987 200.838ZM476.859 196.374C474.607 197.794 472.079 198.716 469.444 199.08C466.808 199.445 464.126 199.242 461.575 198.487C456.036 196.841 451.272 193.255 448.152 188.383C445.031 183.511 443.761 177.678 444.573 171.945C445.474 166.394 448.42 161.762 452.873 158.899C457.327 156.036 462.75 155.276 468.157 156.786C473.723 158.379 478.502 161.981 481.576 166.896C488.19 177.222 486.076 190.448 476.832 196.38L476.859 196.374Z" fill="white"/>
<path d="M465.607 186.503C467.072 186.511 468.509 186.094 469.744 185.304C470.674 184.696 471.464 183.897 472.061 182.96C472.659 182.023 473.051 180.969 473.212 179.869C473.548 177.542 473.035 175.172 471.768 173.193C470.501 171.215 468.564 169.761 466.313 169.099C465.248 168.786 464.129 168.705 463.031 168.859C461.932 169.014 460.879 169.402 459.941 169.997C456.12 172.453 455.198 177.883 457.918 182.103C458.733 183.419 459.863 184.511 461.206 185.28C462.548 186.048 464.061 186.468 465.607 186.503ZM464.079 170.377C464.693 170.377 465.305 170.46 465.897 170.625C467.767 171.188 469.375 172.402 470.431 174.049C471.486 175.695 471.919 177.666 471.652 179.604C471.527 180.485 471.216 181.329 470.74 182.079C470.263 182.83 469.633 183.47 468.89 183.957C465.807 185.943 461.48 184.723 459.246 181.237C457.011 177.75 457.712 173.314 460.795 171.317C461.783 170.69 462.931 170.364 464.1 170.377H464.079Z" fill="#FD4C00"/>
<path d="M359.223 322.322C360.957 322.338 362.664 321.901 364.177 321.054C365.081 320.577 365.862 319.896 366.459 319.066C367.056 318.236 367.453 317.279 367.619 316.269C368.193 312.286 364.625 308.462 359.677 307.754C357.418 307.394 355.104 307.797 353.099 308.9C352.197 309.379 351.417 310.059 350.82 310.889C350.223 311.719 349.825 312.676 349.658 313.686C349.089 317.668 352.651 321.493 357.605 322.2C358.141 322.28 358.682 322.32 359.223 322.322ZM358.053 309.217C358.521 309.22 358.987 309.253 359.45 309.318C363.54 309.909 366.502 312.925 366.059 316.042C365.92 316.815 365.605 317.546 365.138 318.178C364.671 318.809 364.064 319.323 363.366 319.681C361.668 320.606 359.714 320.942 357.806 320.637C353.716 320.045 350.749 317.029 351.197 313.913C351.332 313.142 351.643 312.412 352.105 311.781C352.568 311.149 353.169 310.634 353.863 310.274C355.146 309.568 356.59 309.211 358.053 309.238V309.217Z" fill="#35375B"/>
<path d="M367.052 482.122L367.342 482.022C381.962 476.803 410.274 466.076 435.672 452.887C468.126 436.021 485.523 420.566 487.373 406.971C488.427 399.254 484.448 392.181 475.563 385.906C466.898 379.795 454.761 375.712 439.487 373.758L439.287 375.342C454.302 377.254 466.203 381.248 474.656 387.206C483.02 393.1 486.778 399.682 485.808 406.749C481.676 437.141 394.295 470.66 367.084 480.411C365.092 479.534 352.596 473.824 336.564 461.76C313.496 444.311 294.12 422.439 279.565 397.416C284.656 395.884 309.569 388.542 340.284 382.526L339.979 380.973C305.574 387.707 278.422 396.111 278.153 396.196L277.204 396.486L277.721 397.326C292.434 422.917 312.138 445.278 335.657 463.076C353.228 476.28 366.615 481.948 366.752 482.006L367.052 482.122Z" fill="#35375B"/>
<path d="M364.277 501L364.62 500.879C385.954 493.262 455.332 462.183 478.258 434.685L477.046 433.666C455.68 459.294 389.095 490.389 364.419 499.268C360.008 496.627 310.441 466.266 276.816 412.189L275.478 413.029C293.918 442.645 316.987 464.935 333.087 478.414C350.543 493.024 363.829 500.741 363.961 500.815L364.277 501Z" fill="#35375B"/>
<path d="M240.588 176.841C242.09 181.413 243.937 185.865 246.111 190.157C252.963 203.615 266.897 215.589 280.368 222.377L280.268 222.429C293.502 215.183 308.064 202.564 314.467 188.878C320.871 175.193 323.674 160.039 324.365 144.938C324.497 142.586 324.497 140.228 324.365 137.876L324.154 137.971L279.725 118.581L279.43 118.703L234.696 139.608L234.49 139.519C234.441 141.874 234.524 144.23 234.738 146.575C235.555 156.838 237.373 167.09 240.588 176.841Z" fill="#FFA27A"/>
<path d="M278.301 225.519L277.974 224.901L277.69 225.467C275.387 224.305 273.062 222.995 270.78 221.574L271.618 220.227C273.727 221.547 275.887 222.768 278.027 223.861C289.922 217.248 306.06 204.318 313.106 189.269C319.146 176.355 322.619 160.942 323.425 143.459C323.515 141.468 323.589 139.144 323.478 136.82L277.374 116.701L239.517 134.379L238.848 132.943L276.752 115.259L277.41 115L324.005 135.33L324.943 134.876L325.022 136.049C325.16 138.547 325.16 141.051 325.022 143.549C324.211 161.238 320.69 176.852 314.561 189.961C307.536 204.983 292.241 217.602 279.745 224.738H279.798L278.301 225.519Z" fill="white"/>
<path d="M257.035 174.263C257.946 177.014 259.065 179.69 260.381 182.271C264.503 190.368 272.882 197.588 280.988 201.661L280.925 201.693C288.888 197.335 297.648 189.74 301.479 181.51C305.311 173.281 307.018 164.159 307.44 155.074C307.518 153.667 307.518 152.256 307.44 150.849L307.319 150.907L280.593 139.244L280.414 139.318L253.493 151.863L253.367 151.81C253.339 153.22 253.39 154.631 253.519 156.035C253.958 162.224 255.138 168.337 257.035 174.242V174.263Z" fill="white"/>
<path d="M279.641 178.257L270.539 169.135L271.662 168.015L279.641 176.018L293.085 162.538L294.203 163.658L279.641 178.257Z" fill="#FD4C00"/>
</g>
<path d="M281.715 66.0339L299.809 74.5901L299.138 76.0227L281.044 67.4665L281.715 66.0339Z" fill="#35375B"/>
<path d="M263.956 63.5952L264.412 62.0804C257.666 60.0168 250.65 58.9886 243.602 59.0306L243.611 60.6166C250.501 60.5768 257.361 61.581 263.956 63.5952Z" fill="#35375B"/>
<path d="M223.14 60.0074L223.31 58.4298C215.271 57.5415 207.139 58.4102 199.473 60.9763L199.982 62.4793C207.43 59.9865 215.33 59.1432 223.14 60.0074Z" fill="#35375B"/>
<path d="M180.331 66.5737L180.024 65.0175C172.759 66.4711 165.872 69.4115 159.794 73.6553L160.701 74.9613C166.598 70.8404 173.28 67.9851 180.331 66.5737Z" fill="#35375B"/>
<path d="M139.006 86.6641C139.635 86.1353 140.256 85.5983 140.871 85.0533L139.831 83.8592C134.545 88.5024 128.832 92.6319 122.767 96.1921L123.582 97.576C129.018 94.3764 134.177 90.7264 139.006 86.6641Z" fill="#35375B"/>
<path d="M95.8645 128.732C98.9127 122.853 102.744 117.419 107.254 112.579L106.093 111.487C101.486 116.433 97.571 121.985 94.4565 127.992L95.8645 128.732Z" fill="#35375B"/>
<path d="M74.7432 166.634C78.1639 159.154 81.9182 151.703 85.9014 144.502L84.5221 143.731C80.5129 150.975 76.7452 158.451 73.3098 165.971L74.7432 166.634Z" fill="#35375B"/>
<path d="M63.6008 213.29C63.867 205.091 64.1647 195.79 68.7621 188.354L67.4223 187.516C62.6035 195.31 62.2768 205.25 62.0218 213.232L63.6008 213.29Z" fill="#35375B"/>
<path d="M64.1844 228.959L65.75 228.758L68.4179 249.357L66.8523 249.558L64.1844 228.959Z" fill="#35375B"/>
<path d="M82.4059 289.515C78.2304 282.697 74.9621 275.362 72.6843 267.696L71.1695 268.15C73.4901 275.946 76.8153 283.408 81.0606 290.344L82.4059 289.515Z" fill="#35375B"/>
<path d="M92.4707 307.109L107.762 322.688L106.638 323.798L91.3468 308.219L92.4707 307.109Z" fill="#35375B"/>
</g>
<defs>
<clipPath id="clip0_298_4558">
<rect width="561" height="490" fill="white"/>
</clipPath>
<clipPath id="clip1_298_4558">
<rect width="484" height="435" fill="white" transform="translate(77.4766 55)"/>
</clipPath>
</defs>
</svg>
