<svg width="193" height="182" viewBox="0 0 193 182" fill="none" xmlns="http://www.w3.org/2000/svg">
<g clip-path="url(#clip0_298_10308)">
<g clip-path="url(#clip1_298_10308)">
<path d="M112.925 42.7562L107.401 69.1095L130.182 73.8571L135.706 47.5038C135.991 46.0824 135.934 44.6609 135.535 43.3248C135.137 41.9887 134.425 40.7378 133.428 39.686C132.289 38.5204 131.833 36.8999 132.147 35.3079L132.83 32.0102L121.724 29.7075L121.041 33.0052C120.699 34.5972 119.617 35.9049 118.136 36.5019C115.46 37.5822 113.523 39.9134 112.925 42.7562Z" fill="#E4E4E4"/>
<path d="M130.353 74.1126L107.145 69.2797L112.698 42.699C113.296 39.7993 115.318 37.4113 118.051 36.2741C119.475 35.7056 120.5 34.4547 120.814 32.948L121.554 29.4229L133.115 31.8393L132.375 35.3644C132.062 36.8711 132.517 38.4347 133.599 39.515C134.624 40.5669 135.365 41.8461 135.764 43.2391C136.162 44.6321 136.219 46.1104 135.934 47.5319L130.353 74.1126ZM107.686 68.9101L130.011 73.5724L135.479 47.4466C135.764 46.1104 135.707 44.689 135.336 43.3813C134.966 42.0736 134.254 40.8511 133.286 39.8561C132.119 38.6337 131.606 36.928 131.948 35.2791L132.603 32.2089L121.953 29.9914L121.298 33.0617C120.956 34.7106 119.817 36.0751 118.251 36.729C115.659 37.8093 113.751 40.0836 113.182 42.8127L107.686 68.9101Z" fill="#35375B"/>
<path d="M121.298 31.7827L121.07 32.8914C122.18 33.6306 124.145 34.3981 126.452 34.8814C128.758 35.3647 130.866 35.45 132.176 35.2226L132.403 34.1139C131.093 34.3697 128.986 34.256 126.68 33.7727C124.402 33.2894 122.437 32.5219 121.298 31.7827Z" fill="white"/>
<path d="M109.851 57.4537L132.603 62.2013L134.995 50.8867L112.214 46.1392L109.851 57.4537Z" fill="#FC4C00"/>
<path d="M118.82 33.261L134.083 36.445L135.763 28.4281L120.5 25.2441L118.82 33.261Z" fill="#FD4C00"/>
<path d="M155.326 23.8511C156.323 24.0501 156.978 24.8177 156.835 25.5568L132.916 141.432C132.773 142.171 131.833 142.626 130.837 142.398C129.84 142.199 129.185 141.432 129.328 140.693L153.247 24.8177C153.418 24.107 154.33 23.6521 155.326 23.8511Z" fill="#FC4C00"/>
<path d="M124.304 18.1377L185.416 32.1538L186.48 27.5268L125.369 13.5107L124.304 18.1377Z" fill="#E4E4E4"/>
<path d="M185.596 32.4368L185.368 32.38L124.031 18.3078L125.198 13.2476L125.426 13.3044L186.764 27.3766L185.596 32.4368ZM124.6 17.9667L185.254 31.8967L186.223 27.7177L125.568 13.7877L124.6 17.9667Z" fill="#35375B"/>
<path d="M125.426 13.532L155.241 20.3549L156.665 20.696L186.479 27.5473L193 15.6357L187.476 14.3849L184.486 19.6726L185.796 13.9869L182.578 13.2477L181.496 16.2896L181.809 13.0771L181.183 12.935L179.161 18.2796L179.56 12.5654L172.754 11.0019L170.732 17.711L171.472 10.7176L170.333 10.4333L169.365 13.333L169.935 10.348L167.429 9.77943L163.812 16.9719L165.293 9.29614L155.412 7.02186L154.728 9.18243L155.013 6.93657L152.479 6.33957L150.457 13.9016L150.343 5.85629L147.837 5.28771L147.04 8.18743L147.438 5.20243L146.299 4.94657L143.879 11.5704L144.99 4.63386L142.398 4.03686L141.117 7.78943L141.373 3.80943L138.212 3.07029L136.077 8.38643L136.561 2.70071L131.976 1.64886L130.666 7.30614L130.296 1.25086L124.771 0L125.426 13.532Z" fill="#35375B"/>
<path d="M81.544 6.14062L66.053 12.1675C63.3763 13.3331 61.1836 15.3515 59.8168 17.9385L54.0361 28.8551L58.2506 30.5608L64.6292 26.6661L67.8186 32.0959L76.5038 28.4002L72.4602 21.4636C72.4602 21.4636 73.4284 18.3365 75.023 18.9619C76.6177 19.5873 79.9209 25.5573 84.6195 24.0506L84.8473 22.5155C84.8473 22.5155 79.5792 21.89 76.6462 16.1191C76.6462 16.1191 75.9912 14.4418 76.7885 13.8448C77.5574 13.2762 83.2241 9.72262 83.2241 9.72262L81.544 6.14062Z" fill="#D0CECE"/>
<path d="M75.9618 28.3145L111.016 69.479C114.234 73.26 112.696 79.0594 108.026 80.7652L83.3656 89.8054C79.0372 91.3974 74.3672 88.5262 73.8261 83.9492L67.5898 31.3279L75.9618 28.3145Z" fill="#E4E4E4"/>
<path d="M80.8886 90.4877C79.5502 90.4877 78.2119 90.1182 77.0443 89.4075C75.108 88.2135 73.855 86.2519 73.5987 84.006L67.334 31.1857L76.0192 28.0586L111.159 69.3653C112.753 71.2132 113.294 73.6296 112.668 75.9892C112.041 78.3487 110.361 80.1682 108.083 81.021L83.423 90.0613C82.5972 90.3172 81.7429 90.4877 80.8886 90.4877ZM67.8466 31.47L74.0543 83.9207C74.3106 86.0245 75.4782 87.8723 77.3006 88.981C79.1231 90.0897 81.2873 90.3172 83.2806 89.578L107.941 80.5377C110.077 79.7417 111.643 78.036 112.241 75.8186C112.81 73.6012 112.298 71.3553 110.817 69.5927L75.8768 28.5703L67.8466 31.47Z" fill="#35375B"/>
<path d="M81.544 6.14062L66.053 12.1675C63.3763 13.3331 61.1836 15.3515 59.8168 17.9385L54.0361 28.8551L58.2506 30.5608L64.6292 26.6661L67.8186 32.0959L76.5038 28.4002L72.4602 21.4636C72.4602 21.4636 73.4284 18.3365 75.023 18.9619C76.6177 19.5873 79.9209 25.5573 84.6195 24.0506L84.8473 22.5155C84.8473 22.5155 79.5792 21.89 76.6462 16.1191C76.6462 16.1191 75.9912 14.4418 76.7885 13.8448C77.5574 13.2762 83.2241 9.72262 83.2241 9.72262L81.544 6.14062Z" fill="#35375B"/>
<path d="M76.3331 51.342C81.4303 50.0627 86.2997 48.1295 91.1692 46.168L108.511 66.5513C101.421 68.9108 94.0168 69.8774 86.6415 71.0998C81.9429 71.8674 77.1874 72.1232 72.4604 72.5497L70.0684 52.2801C72.1186 52.1664 74.1974 51.8537 76.3331 51.342Z" fill="#35375B"/>
<path d="M168.055 59.8989L167.599 63.3672L166.631 70.6165L164.979 82.9261L164.04 90.0616L158.003 135.405L156.152 149.42L152.307 178.361C152.051 180.209 150.485 181.602 148.605 181.602H78.9244C77.045 181.602 75.4503 180.209 75.2225 178.361L71.3498 149.42L69.4988 135.405L63.4904 90.2038L62.6076 83.6368L60.8706 70.6449L59.9024 63.3956L59.4468 59.9273H168.055V59.8989Z" fill="#E4E4E4"/>
<path d="M148.577 182H78.9245C76.8457 182 75.0802 180.465 74.7955 178.389L58.9912 59.4727H168.539L152.735 178.389C152.421 180.465 150.656 182 148.577 182ZM59.9309 60.2971L75.6213 178.304C75.8491 179.953 77.2729 181.204 78.9245 181.204H148.577C150.229 181.204 151.652 179.953 151.88 178.304L167.571 60.2971H59.9309Z" fill="#35375B"/>
<path d="M167.599 63.3672L166.631 70.6165H60.8709L59.9312 63.3672H167.599Z" fill="#C5BFC1"/>
<path d="M164.951 83.6372L164.011 90.7728C163.755 91.2561 163.527 91.7678 163.271 92.2511C158.458 101.433 152.45 108.74 145.388 113.999C144.135 114.937 142.853 115.79 141.543 116.586C141.885 118.149 141.145 119.798 139.635 120.509C131.207 124.517 124.999 126.422 112.298 126.422C99.3987 126.422 89.0334 120.822 88.6063 120.594C87.2109 119.827 86.556 118.292 86.8692 116.813C85.4169 115.96 83.9931 115.051 82.6263 114.027C75.4218 108.768 69.2425 101.462 64.2022 92.2795C63.9459 91.8246 63.7181 91.3698 63.4619 90.9149L62.5791 84.3479C63.5758 86.6506 64.7433 89.0102 66.0247 91.3413C71.8908 102.03 79.1807 109.962 87.8089 115.051C88.891 113.97 90.5711 113.686 91.9664 114.454C92.0519 114.511 101.25 119.429 112.27 119.429C123.66 119.429 128.985 117.808 136.588 114.198C137.955 113.544 139.522 113.857 140.547 114.852C148.89 109.763 155.867 101.917 161.391 91.3698C162.758 88.7543 163.926 86.1389 164.951 83.6372Z" fill="#C5BFC1"/>
<path d="M113.751 121.788C101.877 121.788 91.2549 118.433 82.2565 111.866C75.052 106.607 68.8727 99.3007 63.8325 90.1183C55.2896 74.5679 53.04 58.79 53.0115 58.6195C52.9261 58.0509 53.3248 57.5392 53.8943 57.4539C54.4638 57.3686 54.9764 57.7666 55.0618 58.3352C55.0903 58.4773 57.3114 73.9425 65.6549 89.1518C76.7891 109.421 92.9635 119.712 113.751 119.712C134.539 119.712 150.457 109.421 161.078 89.1233C169.052 73.914 170.846 58.5057 170.874 58.3636C170.931 57.795 171.444 57.397 172.013 57.4539C172.583 57.5108 172.981 58.0225 172.924 58.591C172.896 58.7616 171.045 74.5395 162.929 90.0899C158.117 99.2723 152.108 106.578 145.046 111.838C136.162 118.433 125.654 121.788 113.751 121.788Z" fill="#FC4C00"/>
<path d="M111.929 124.232C99.0291 124.232 88.6923 118.632 88.2366 118.405C86.5281 117.466 85.9301 115.334 86.8413 113.657C87.781 111.951 89.8883 111.354 91.5968 112.264C91.6823 112.321 100.88 117.239 111.9 117.239C123.291 117.239 128.616 115.619 136.219 112.008C137.956 111.184 140.063 111.923 140.889 113.657C141.715 115.391 140.974 117.495 139.237 118.319C130.837 122.356 124.601 124.232 111.929 124.232Z" fill="#35375B"/>
<path d="M167.97 65.4992H57.9378C55.7737 65.4992 54.0366 63.765 54.0366 61.6045V55.3786C54.0366 53.218 55.7737 51.4839 57.9378 51.4839H167.97C170.134 51.4839 171.871 53.218 171.871 55.3786V61.6045C171.871 63.7366 170.134 65.4992 167.97 65.4992Z" fill="#FC4C00"/>
</g>
<path d="M31.558 19.7713L36.8979 13.1577L37.4141 13.7098L32.0742 20.3234L31.558 19.7713Z" fill="#35375B"/>
<path d="M28.7482 27.3071L28.1765 26.8372C26.6454 29.5005 25.5091 32.4665 24.8063 35.6347L25.4544 35.9088C26.142 32.8117 27.2525 29.9118 28.7482 27.3071Z" fill="#35375B"/>
<path d="M23.1143 44.982L22.4878 44.6293C21.3041 48.0786 20.828 51.8777 21.0922 55.7653L21.7575 55.8005C21.501 52.0236 21.9639 48.3328 23.1143 44.982Z" fill="#35375B"/>
<path d="M21.4216 65.3314L20.7552 65.1961C20.6062 68.7093 21.1027 72.3131 22.2137 75.7829L22.8394 75.605C21.76 72.2382 21.2773 68.7409 21.4216 65.3314Z" fill="#35375B"/>
<path d="M25.3998 87.3863C25.2481 87.0118 25.0925 86.6388 24.9329 86.2676L24.3393 86.5246C25.6943 89.7092 26.7958 92.9954 27.6293 96.3393L28.2773 96.2166C27.5268 93.2178 26.5643 90.2641 25.3998 87.3863Z" fill="#35375B"/>
<path d="M38.1607 114.109C36.0729 111.711 34.2467 109.04 32.7322 106.168L32.1678 106.498C33.7156 109.431 35.5818 112.16 37.715 114.61L38.1607 114.109Z" fill="#35375B"/>
<path d="M51.4702 130.228C48.767 127.382 46.11 124.392 43.578 121.343L43.1226 121.827C45.6693 124.895 48.3352 127.895 51.0531 130.754L51.4702 130.228Z" fill="#35375B"/>
<path d="M69.3715 143.404C66.0529 141.847 62.2876 140.083 59.7227 136.717L59.2437 137.171C61.9324 140.699 65.9552 142.588 69.1866 144.102L69.3715 143.404Z" fill="#35375B"/>
<path d="M75.826 145.89L75.9038 145.152L84.5826 147.568L84.5048 148.305L75.826 145.89Z" fill="#35375B"/>
<path d="M102.4 148.338C99.1909 149.015 95.8635 149.194 92.5024 148.872L92.5329 149.63C95.9518 149.957 99.3363 149.774 102.601 149.087L102.4 148.338Z" fill="#35375B"/>
<path d="M110.607 146.909L118.526 142.784L118.865 143.482L110.945 147.608L110.607 146.909Z" fill="#35375B"/>
</g>
<defs>
<clipPath id="clip0_298_10308">
<rect width="193" height="182" fill="white"/>
</clipPath>
<clipPath id="clip1_298_10308">
<rect width="140" height="182" fill="white" transform="translate(53)"/>
</clipPath>
</defs>
</svg>
