<svg width="478" height="427" viewBox="0 0 478 427" fill="none" xmlns="http://www.w3.org/2000/svg">
<path d="M453.619 304.567C450.552 300.987 447.529 297.403 444.941 292.842L446.597 290.253C443.734 287.903 440.143 282.621 440.313 278.304C439.764 278.971 438.243 279.399 438.073 280.823C433.086 279.589 439.43 276.985 436.048 275.431C437.081 275.82 438.043 276.118 438.886 275.257C436.293 273.408 433.525 271.296 430.582 268.919C431.415 268.282 431.679 265.593 432.148 264.115C432.442 262.372 432.148 260.629 430.652 260.072C429.619 260.644 428.707 262.163 428.876 262.855L427.086 262.038L430.432 258.235L425.54 258.598L428.911 256.283C427.255 255.247 422.512 257.572 422.013 256.158C421.205 250.184 422.976 250.338 424.098 244.991C417.34 248.944 420.986 239.733 415.769 242.004C417.764 234.78 411.335 230.553 408.816 224.449C400.388 222.875 393.47 221.257 386.273 219.614C384.383 226.654 381.784 237.04 379.729 248.65C379.425 251.115 379.605 252.295 380.447 253.445C382.378 256.089 385.071 255.606 387.235 253.968C388.193 253.246 388.826 252.648 389.824 251.887C393.859 248.815 399.3 252.066 398.333 259.853C397.365 267.64 391.31 269.497 388.128 265.504C386.777 263.801 383.684 258.16 379.415 261.695C378.318 262.606 377.854 263.686 377.55 266.176C376.552 276.332 376.138 286.639 377.365 296.004L376.806 296.84C386.622 299.135 396.258 301.266 406.133 302.864C408.627 303.173 409.784 302.994 410.936 302.152C413.584 300.221 413.101 297.532 411.435 295.371C410.712 294.415 410.113 293.783 409.35 292.787C406.313 288.804 409.455 283.328 417.33 284.294C425.071 285.254 426.991 291.304 422.991 294.48C421.205 295.894 415.644 298.926 419.175 303.178C420.088 304.273 421.17 304.736 423.664 305.045C433.618 306.065 443.632 306.368 453.629 305.951L453.679 305.453C453.689 305.199 453.654 304.871 453.619 304.567ZM422.617 262.053L422.442 261.555L423.44 261.496L422.617 262.053ZM426.876 265.912L427.639 266.231C427.18 266.325 426.951 266.186 426.876 265.912ZM433.021 278.513C433.455 278.615 433.878 278.76 434.283 278.946C433.874 278.812 433.455 278.633 433.021 278.513Z" fill="#FC4C00"/>
<path d="M208.622 125.231C215.475 120.352 221.689 115.846 227.53 111.465C257.634 86.9739 252.886 91.3503 260.497 84.5293C264.383 80.6459 266.692 79.3564 269.849 79.2568C277.096 79.0328 279.909 84.375 279.988 90.3744C280.023 93.0231 279.839 94.935 279.869 97.7131C279.964 107.053 289.599 112.988 301.116 105.331C304.137 103.131 306.797 100.475 309.001 97.4592C316.672 85.9632 310.727 76.3442 301.37 76.2496C298.587 76.2247 296.672 76.404 294.018 76.3691C288.033 76.2895 282.657 73.4814 282.881 66.2473C282.981 63.0957 284.273 60.7706 288.158 56.9121C303.41 40.283 319.006 20.567 328.936 5.13281C370.452 31.8639 422.148 87.3473 449.175 124.036L449.25 125.231C438.646 143.229 423.893 160.655 408.352 177.01C404.467 180.894 402.158 182.183 399.001 182.283C391.754 182.507 388.941 177.164 388.861 171.16C388.826 168.516 389.011 166.599 388.981 163.826C388.871 152.803 375.918 147.426 363.485 159.843C351.185 172.121 356.288 185.18 367.475 185.295C370.258 185.32 372.173 185.14 374.826 185.175C380.811 185.255 386.188 188.058 385.963 195.297C385.868 198.449 384.572 200.774 380.686 204.632C361.31 222.178 342.627 236.706 329.749 246.419L330.323 245.369C316.328 228.048 302.392 211.254 287.355 195.083C283.465 191.2 281.156 189.91 277.998 189.811C270.752 189.586 267.939 194.929 267.859 200.933C267.824 203.577 268.008 205.494 267.979 208.272C267.869 217.602 258.233 223.547 246.717 215.879C245.219 214.766 243.797 213.554 242.462 212.25C230.163 199.972 235.265 186.913 246.452 186.798C249.235 186.773 251.156 186.958 253.804 186.923C259.819 186.843 265.166 184.035 264.941 176.801C264.846 173.644 263.555 171.324 259.664 167.461C243.674 152.305 226.812 138.076 208.622 125.231Z" fill="#35375B"/>
<path d="M419.02 118.864C418.973 118.854 418.924 118.854 418.876 118.864H419.02Z" fill="#FC4C00"/>
<path d="M308.891 111.749L308.562 111.799C308.613 111.835 308.675 111.85 308.737 111.84C308.798 111.831 308.854 111.798 308.891 111.749Z" fill="#FC4C00"/>
<path d="M418.876 118.883C418.427 118.948 417.973 118.958 417.524 118.987C417.978 119.039 418.436 119.003 418.876 118.883Z" fill="#FC4C00"/>
<path d="M306.064 111.48L306.123 111.166L305.854 111.37L306.064 111.48Z" fill="#FC4C00"/>
<path d="M279.679 99.7196C279.884 99.8391 279.899 100.466 279.595 100.591C280.093 101.163 280.093 100.725 280.143 100.252C279.59 97.6335 280.043 94.3276 279.989 90.3744C279.909 84.375 277.096 79.0328 269.849 79.2568C265.176 79.4012 262.891 82.4034 258.762 86.0727C260.218 87.0386 258.637 90.3196 260.757 89.7172C261.565 89.0949 262.413 87.4867 263.25 89.1646L262.228 90.4491C263.764 91.5892 263.999 88.7862 265.26 90.8474C264.732 91.2756 263.814 90.5935 263.984 90.9271C264.597 92.814 265.086 90.5138 265.914 91.0217L265.565 92.5153C267.355 93.3268 269.605 93.4115 271.59 94.223C271.34 94.5815 270.861 94.8404 271.161 95.5125C273.809 96.1597 276.263 98.4699 278.368 100.491L279.679 99.7196ZM271.739 93.8546L271.156 93.6106L271.749 93.8297L271.739 93.8546ZM273.066 94.4769C273.121 94.0338 273.35 93.6704 273.565 93.8147C273.345 94.0139 273.809 94.5416 274.033 95.0644C273.725 94.8461 273.402 94.6497 273.066 94.4769Z" fill="#FC4C00"/>
<path d="M413.6 119.943C413.388 119.63 413.092 119.382 412.747 119.227C412.688 119.337 412.65 119.457 412.632 119.58L413.6 119.943Z" fill="#FC4C00"/>
<path d="M409.066 119.759C410.482 120.083 411.559 118.709 412.746 119.227C413.275 117.733 415.14 119.436 415.11 117.454C415.27 119.47 417.694 118.619 418.407 117.489C418.213 118.161 419.23 117.922 419.021 118.843C419.988 118.564 420.816 117.962 420.492 116.986C422.646 118.903 423.754 114.143 425.25 116.931C427.439 115.438 431.524 113.063 432.886 112.351C433.18 114.342 430.118 113.466 430.617 115.492C432.891 113.889 433.938 111.753 436.422 111.445C437.095 111.509 436.247 112.411 436.108 112.814C437.13 112.15 438.254 111.656 439.435 111.35C410.931 75.5029 365.909 28.9464 328.936 5.12793C319.006 20.5621 303.41 40.2831 288.158 56.9072C284.273 60.7857 282.981 63.0908 282.881 66.2424C282.657 73.4766 288.009 76.2846 294.018 76.3643C296.672 76.3991 298.587 76.2199 301.37 76.2448C310.727 76.3394 316.672 85.9584 309.001 97.4543C306.801 100.472 304.144 103.129 301.126 105.331C299.956 106.113 298.719 106.791 297.43 107.357C297.52 107.477 297.614 107.596 297.699 107.726C298.562 106.078 300.442 109.657 301.225 107.193C302.627 109.09 302.033 109.364 304.218 111.116C304.841 111.445 305.53 109.837 306.382 109.827L306.113 111.166L307.495 110.115L307.734 111.898L308.552 111.798C308.39 111.654 308.269 111.469 308.201 111.262C308.134 111.056 308.122 110.835 308.168 110.623C309.46 110.394 310.821 112.47 310.717 113.167L313.709 112.923C313.584 113.322 313.27 113.421 312.936 113.566C314.113 113.152 312.727 115.154 314.208 114.392C314.083 114.029 314.452 113.62 314.537 113.362C315.036 114.417 316.607 114.825 317.814 114.785L317.43 115.657C319.47 116.448 321.889 116.374 324.213 117.006C323.445 116.349 323.894 114.78 324.597 114.805L324.647 116.299C325.22 115.527 324.018 115.567 325.086 114.721C325.924 115.114 325.42 116.508 324.846 116.842L325.983 116.623C325.983 117.071 325.699 117.23 325.55 117.758C326.113 117.001 327.17 119.65 328.043 118.221V118.659C330.397 119.157 331.535 118.893 333.45 119.222C333.649 117.982 334.357 118.415 335.051 117.529C336.397 118.201 337.834 119.57 339.54 119.69C340.801 119.251 340.003 118.694 340.617 118.022C340.582 119.172 342.293 119.326 341.325 120.013C343.097 120.205 344.888 120.082 346.617 119.65C346.377 119.152 346.083 118.888 346.283 118.525C346.781 118.41 347.28 119.167 347.185 119.704L347.051 119.804C349.938 118.594 353.425 123.722 355.859 121.875L358.352 120.879C359.445 121.183 357.644 121.676 358.422 122.463C361.106 120.845 362.517 123.045 364.707 121.865C366.273 125.316 370.587 121.89 372.796 124.111L372.672 123.314C373.255 122.522 373.37 123.757 373.799 123.936C373.739 123.314 373.17 123.229 373.534 122.786C378.427 121.701 383.659 123.956 388.751 124.17C390.612 124.245 389.604 119.968 392.008 121.681L391.43 123.21C395.046 121.258 399.026 122.503 402.522 120.526C402.337 120.894 402.367 121.338 402.023 121.377C402.881 122.343 404.856 121.054 404.781 120.177C405.355 120.177 404.991 120.949 405.38 121.347C406.213 121.875 407.165 119.734 407.679 120.69C407.739 120.8 407.634 120.934 407.524 121.049C408.113 120.645 409.624 120.795 409.066 119.759Z" fill="#FC4C00"/>
<path d="M288.243 185.882C288.517 185.643 288.692 185.31 288.732 184.949C288.771 184.587 288.673 184.224 288.457 183.931C288.241 183.639 287.923 183.438 287.565 183.368C287.208 183.299 286.837 183.366 286.527 183.557C286.32 183.669 286.147 183.836 286.03 184.04C285.913 184.244 285.855 184.477 285.864 184.712C285.573 184.958 285.376 185.296 285.305 185.669C285.235 186.043 285.294 186.429 285.475 186.764C285.634 187.031 285.892 187.226 286.194 187.305C286.495 187.384 286.815 187.342 287.086 187.187C287.237 187.092 287.365 186.965 287.462 186.816C287.558 186.666 287.621 186.497 287.644 186.321C287.863 186.203 288.065 186.056 288.243 185.882Z" fill="white"/>
<path d="M303.275 206.559C303.364 206.423 303.421 206.269 303.442 206.109C303.463 205.948 303.448 205.785 303.397 205.631C303.346 205.477 303.261 205.336 303.149 205.219C303.036 205.102 302.899 205.012 302.746 204.956C302.651 204.807 302.525 204.68 302.376 204.583C302.228 204.487 302.06 204.423 301.885 204.397C301.709 204.37 301.531 204.382 301.36 204.43C301.189 204.478 301.031 204.563 300.896 204.677C299.98 205.465 299.144 206.342 298.402 207.296C299.3 208.317 300.183 209.337 301.076 210.358C301.814 209.093 302.547 207.827 303.275 206.559Z" fill="white"/>
<path d="M319.191 231.294C319.435 230.572 318.622 230.074 318.014 230.323L319.076 231.602C319.116 231.513 319.156 231.398 319.191 231.294Z" fill="white"/>
<path d="M320.941 233.161C321.275 232.494 320.517 231.453 319.789 232.011L319.56 232.19L320.702 233.584C320.781 233.445 320.866 233.311 320.941 233.161Z" fill="white"/>
<path d="M318.946 190.497C319.325 189.417 317.729 188.456 316.951 189.357C316.452 189.965 316.343 189.855 315.38 190.811C314.382 191.375 313.615 192.272 313.216 193.345C313.136 193.646 313.177 193.965 313.331 194.235C313.485 194.505 313.739 194.704 314.038 194.789C314.258 194.853 314.492 194.848 314.709 194.775C314.926 194.702 315.115 194.565 315.25 194.381C316.11 194.036 316.884 193.511 317.522 192.841C318.16 192.171 318.646 191.372 318.946 190.497Z" fill="white"/>
<path d="M310.188 220.062C311.669 219.886 313.058 219.25 314.157 218.243C315.256 217.236 316.01 215.909 316.313 214.451C316.351 214.291 316.342 214.123 316.287 213.968C316.232 213.813 316.133 213.677 316.002 213.577C315.871 213.477 315.714 213.417 315.55 213.404C315.385 213.391 315.221 213.426 315.076 213.505C314.018 214.03 313.03 214.684 312.133 215.451C312.014 215.438 311.893 215.449 311.778 215.486C311.664 215.523 311.559 215.584 311.47 215.666C310.464 216.55 309.738 217.707 309.38 218.996C309.245 219.444 309.639 220.112 310.188 220.062Z" fill="white"/>
<path d="M324.876 173.719C324.402 173.436 324.058 173.625 323.539 173.844C323.452 173.762 323.348 173.699 323.235 173.658C323.122 173.617 323.001 173.6 322.881 173.608C322.761 173.615 322.644 173.647 322.537 173.701C322.43 173.756 322.335 173.831 322.258 173.924L320.677 175.671C320.546 175.802 320.455 175.967 320.413 176.147C320.371 176.327 320.38 176.515 320.439 176.69C320.498 176.865 320.604 177.021 320.747 177.139C320.889 177.257 321.062 177.333 321.245 177.359C321.275 177.469 321.325 177.572 321.395 177.663C321.434 177.814 321.509 177.954 321.613 178.071C321.717 178.189 321.847 178.28 321.992 178.338C322.138 178.395 322.295 178.418 322.452 178.404C322.608 178.389 322.758 178.338 322.891 178.255C323.096 178.106 323.29 177.951 323.48 177.792C323.664 177.919 323.887 177.976 324.11 177.952C324.332 177.929 324.539 177.826 324.692 177.663C325.248 177.101 325.669 176.42 325.923 175.671C325.97 175.51 325.974 175.339 325.935 175.176C325.896 175.013 325.814 174.862 325.699 174.74C325.701 174.501 325.62 174.269 325.47 174.083C325.32 173.897 325.11 173.769 324.876 173.719Z" fill="white"/>
<path d="M299.25 168.098C299.215 168.282 299.231 168.473 299.297 168.648C299.363 168.824 299.476 168.978 299.624 169.094L299.515 169.268C299.016 170.099 300.038 171.23 300.896 170.647C302.284 169.72 303.433 168.478 304.248 167.023C304.329 166.842 304.358 166.643 304.333 166.447C304.308 166.251 304.23 166.065 304.106 165.911C303.982 165.757 303.818 165.639 303.632 165.572C303.446 165.505 303.245 165.49 303.051 165.529L303.126 165.394C303.288 165.185 303.361 164.919 303.327 164.655C303.294 164.392 303.156 164.153 302.946 163.99C302.736 163.828 302.47 163.756 302.206 163.789C301.942 163.823 301.702 163.96 301.54 164.17C301.123 164.496 300.745 164.868 300.412 165.28C300.22 165.245 300.021 165.265 299.84 165.339C299.659 165.413 299.502 165.538 299.39 165.698L298.677 166.694C298.61 166.822 298.573 166.963 298.566 167.107C298.559 167.251 298.584 167.395 298.639 167.528C298.693 167.662 298.776 167.782 298.882 167.88C298.987 167.979 299.113 168.053 299.25 168.098Z" fill="white"/>
<path d="M299.779 187.396C300.175 188.056 300.709 188.624 301.345 189.059C301.453 189.129 301.575 189.176 301.702 189.197C301.829 189.218 301.959 189.213 302.084 189.181C302.209 189.15 302.326 189.093 302.428 189.015C302.53 188.936 302.615 188.838 302.677 188.725H302.712C302.915 188.89 303.164 188.991 303.425 189.014C305.285 189.193 306.677 185.837 307.066 184.448C307.275 183.701 306.427 182.875 305.709 183.233C305.6 183.178 305.481 183.146 305.359 183.139C305.237 183.132 305.115 183.151 305.001 183.194C304.966 183.135 304.927 183.079 304.886 183.024C305.011 182.86 305.141 182.701 305.26 182.526C305.924 181.605 304.412 180.43 303.674 181.307C302.658 182.507 301.549 183.626 300.358 184.652C300.198 184.644 300.039 184.667 299.889 184.722C299.181 184.418 298.467 185.28 298.607 185.972C298.673 186.286 298.814 186.579 299.018 186.827C299.222 187.075 299.483 187.27 299.779 187.396Z" fill="white"/>
<path d="M369.305 187.227C369.314 187.488 369.422 187.737 369.607 187.922C369.792 188.106 370.041 188.214 370.303 188.223C370.439 188.233 370.575 188.233 370.712 188.223C370.771 188.223 370.831 188.223 370.896 188.223C371.025 188.307 371.171 188.36 371.324 188.378C371.477 188.396 371.632 188.379 371.777 188.327C371.922 188.275 372.052 188.191 372.159 188.081C372.266 187.97 372.346 187.837 372.392 187.69C372.533 187.566 372.658 187.424 372.761 187.267C373.161 186.881 373.471 186.412 373.669 185.893C373.715 185.775 373.732 185.648 373.719 185.523C373.706 185.397 373.663 185.277 373.594 185.171C372.387 185.171 371.295 185.226 370.103 185.261C369.829 185.506 369.615 185.811 369.477 186.152C369.338 186.493 369.28 186.86 369.305 187.227Z" fill="white"/>
<path d="M373.036 211.1C373.196 210.825 373.336 210.539 373.455 210.244C373.506 210.072 373.51 209.889 373.466 209.714C373.422 209.54 373.332 209.381 373.204 209.254C373.077 209.127 372.918 209.036 372.743 208.992C372.569 208.948 372.385 208.953 372.213 209.004L371.948 209.114C371.888 208.935 371.773 208.78 371.619 208.671C372.233 207.839 371.32 206.475 370.347 207.147C369.58 207.669 368.88 208.283 368.263 208.974C368.123 209.154 368.04 209.37 368.022 209.597C368.004 209.823 368.053 210.05 368.163 210.249C368.053 210.368 367.933 210.483 367.829 210.607C367.683 210.749 367.584 210.932 367.545 211.131C367.506 211.33 367.529 211.536 367.611 211.722C367.693 211.908 367.83 212.064 368.004 212.17C368.177 212.276 368.379 212.327 368.582 212.315C368.703 212.495 368.885 212.626 369.095 212.683C369.304 212.741 369.528 212.722 369.724 212.629C369.782 212.722 369.853 212.807 369.933 212.883C369.986 213.041 370.075 213.184 370.193 213.303C370.31 213.421 370.454 213.511 370.612 213.565L373.041 211.444C373.059 211.33 373.057 211.214 373.036 211.1Z" fill="white"/>
<path d="M330.886 194.027L332.472 192.36C332.632 192.36 332.791 192.335 332.971 192.31C333.012 192.515 333.112 192.704 333.258 192.853C333.404 193.003 333.591 193.107 333.795 193.153C333.999 193.198 334.213 193.184 334.409 193.111C334.605 193.039 334.776 192.911 334.901 192.743C335.488 191.939 335.904 191.024 336.123 190.054C336.169 189.902 336.177 189.742 336.148 189.586C336.118 189.43 336.052 189.283 335.954 189.158C335.857 189.033 335.731 188.933 335.587 188.866C335.442 188.8 335.284 188.768 335.126 188.775H334.627C334.417 187.749 332.956 187.515 332.073 188.531C331.562 188.716 331.026 188.824 330.482 188.849C330.3 188.86 330.125 188.919 329.973 189.018C329.82 189.118 329.697 189.256 329.615 189.418C329.533 189.58 329.494 189.761 329.504 189.943C329.513 190.124 329.57 190.3 329.669 190.453C329.493 190.635 329.386 190.872 329.365 191.125C329.235 191.21 329.134 191.332 329.072 191.474C329.011 191.617 328.993 191.774 329.021 191.926C329.066 192.389 329.116 192.847 329.165 193.305C329.245 194.127 330.228 194.714 330.886 194.027Z" fill="white"/>
<path d="M332.722 204.742C331.928 205.096 331.265 205.69 330.827 206.44C330.674 206.739 330.645 207.086 330.747 207.405C330.849 207.725 331.073 207.992 331.37 208.148C331.922 208.64 332.581 208.998 333.295 209.193C334.792 208.482 336.068 207.381 336.991 206.007C337.084 205.886 337.148 205.746 337.179 205.597C337.209 205.447 337.205 205.293 337.166 205.146C338.183 202.343 334.592 202.661 332.722 204.742Z" fill="white"/>
<path d="M332.048 162.443C332.323 162.481 332.602 162.411 332.827 162.249C333.077 162.13 333.299 161.96 333.48 161.751L334.323 161.069C334.482 160.913 334.585 160.708 334.614 160.486C334.643 160.265 334.597 160.041 334.482 159.849C334.366 159.661 334.192 159.515 333.987 159.432C333.782 159.349 333.555 159.333 333.34 159.386L333.111 159.456C333.046 159.376 332.966 159.31 332.876 159.262C332.644 159.132 332.371 159.097 332.114 159.164C331.856 159.231 331.635 159.394 331.495 159.62C331.163 160.099 331.024 160.686 331.106 161.263V161.452C331.107 161.706 331.205 161.95 331.38 162.134C331.555 162.319 331.794 162.429 332.048 162.443Z" fill="white"/>
<path d="M339.2 239.19C339.988 238.578 340.791 237.961 341.604 237.323C341.15 237.269 340.916 237.458 339.2 239.19Z" fill="white"/>
<path d="M351.734 220.137L350.657 221.212C350.547 221.321 350.46 221.451 350.401 221.593C350.342 221.736 350.312 221.889 350.312 222.043C350.312 222.198 350.342 222.351 350.401 222.493C350.46 222.636 350.547 222.766 350.657 222.875C350.766 222.984 350.896 223.071 351.039 223.13C351.182 223.189 351.335 223.219 351.489 223.219C351.644 223.219 351.797 223.189 351.94 223.13C352.083 223.071 352.213 222.984 352.322 222.875L353.4 221.799C353.618 221.578 353.741 221.279 353.741 220.968C353.741 220.657 353.618 220.358 353.4 220.137C353.176 219.922 352.877 219.802 352.567 219.802C352.256 219.802 351.958 219.922 351.734 220.137Z" fill="white"/>
<path d="M354.253 205.125C355.09 204.832 355.37 204.1 355.799 203.358L357.624 200.206C357.746 199.993 357.785 199.743 357.733 199.503C357.682 199.263 357.544 199.051 357.345 198.907C357.405 198.671 357.371 198.421 357.25 198.21L357.375 197.986C357.488 197.813 357.545 197.61 357.538 197.404C357.531 197.198 357.459 196.999 357.334 196.835C357.209 196.671 357.035 196.55 356.838 196.488C356.641 196.427 356.429 196.428 356.233 196.492L352.637 197.383C352.458 197.414 352.288 197.482 352.138 197.582C351.435 198.062 350.83 198.672 350.357 199.38C350.288 199.488 350.241 199.608 350.22 199.735C350.199 199.861 350.204 199.991 350.235 200.115C350.265 200.24 350.321 200.357 350.399 200.459C350.477 200.561 350.575 200.646 350.687 200.709C350.679 200.925 350.733 201.138 350.843 201.324C350.952 201.51 351.112 201.661 351.305 201.76C351.076 202.223 350.866 202.696 350.667 203.179C350.263 204.174 351.574 204.712 352.292 204.174C352.409 204.18 352.526 204.163 352.636 204.122C352.745 204.082 352.846 204.02 352.931 203.94C352.922 204.108 352.949 204.275 353.01 204.432C353.071 204.588 353.165 204.729 353.285 204.847C353.407 204.975 353.561 205.068 353.731 205.117C353.901 205.166 354.081 205.169 354.253 205.125Z" fill="white"/>
<path d="M334.542 228.148C335.257 227.704 335.804 227.037 336.098 226.251C336.604 225.603 337.102 224.958 337.594 224.314C337.675 224.195 337.729 224.059 337.752 223.917C337.775 223.775 337.767 223.63 337.729 223.492C337.691 223.353 337.623 223.224 337.53 223.114C337.437 223.005 337.321 222.916 337.191 222.855C337.222 222.711 337.221 222.561 337.187 222.417C337.153 222.274 337.088 222.139 336.996 222.024C337.058 221.845 337.058 221.652 336.997 221.473C336.935 221.295 336.815 221.143 336.656 221.041C336.498 220.938 336.309 220.892 336.121 220.91C335.933 220.927 335.756 221.008 335.619 221.137L334.941 221.735C334.762 221.824 334.906 221.735 332.482 223.906C332.384 223.992 332.31 224.103 332.266 224.226C332.222 224.349 332.21 224.481 332.231 224.61C332.252 224.739 332.305 224.861 332.385 224.964C332.466 225.067 332.571 225.148 332.692 225.2C332.75 225.366 332.856 225.512 332.996 225.618C332.9 225.85 332.894 226.109 332.981 226.345C333.068 226.58 333.241 226.774 333.465 226.888C332.996 227.585 333.659 228.69 334.542 228.148Z" fill="white"/>
<path d="M348.193 186.311C348.312 186.382 348.448 186.419 348.587 186.419C348.726 186.419 348.862 186.382 348.981 186.311C349.169 186.527 349.43 186.667 349.714 186.704C349.787 186.848 349.892 186.974 350.02 187.073C350.149 187.171 350.297 187.24 350.456 187.273C350.614 187.307 350.778 187.304 350.936 187.266C351.093 187.228 351.24 187.155 351.365 187.052C352.105 186.441 352.717 185.69 353.165 184.842C353.239 184.707 353.282 184.557 353.291 184.404C353.3 184.251 353.275 184.097 353.217 183.955C353.16 183.812 353.072 183.684 352.96 183.579C352.848 183.474 352.713 183.395 352.567 183.348C352.599 183.066 352.521 182.782 352.349 182.555C352.178 182.328 351.925 182.175 351.644 182.128C351.524 181.948 351.349 181.811 351.146 181.735C351.073 181.59 350.969 181.463 350.841 181.364C350.712 181.265 350.563 181.196 350.404 181.163C350.246 181.129 350.081 181.132 349.924 181.171C349.766 181.21 349.62 181.283 349.495 181.387C349.146 181.685 348.811 181.989 348.497 182.308C348.158 182.601 347.846 182.924 347.565 183.274C347.36 183.547 347.066 183.821 347.31 184.324L346.836 184.822C345.949 185.753 347.23 187.047 348.193 186.311Z" fill="white"/>
<path d="M348.672 171.932C349.126 171.185 348.727 169.99 347.25 170.144C347.037 170.144 346.828 170.202 346.647 170.314C345.649 170.812 345.684 171.698 346.148 172.106C346.186 172.139 346.226 172.169 346.268 172.196C346.349 172.304 346.451 172.396 346.567 172.465C346.925 172.638 347.332 172.679 347.717 172.582C348.102 172.484 348.44 172.254 348.672 171.932Z" fill="white"/>
<path d="M225.814 279.961C224.612 274.066 223.111 268.216 221.759 262.356L217.151 242.366C216.153 238.134 212.986 231.065 207.435 231.647C196.887 232.757 195.39 239.922 191.725 247.171C189.565 251.438 184.493 255.505 181.121 258.986C165.465 275.162 136.233 267.385 115.68 275.416C111.69 276.964 104.947 279.478 103.899 284.153C103.261 287.001 104.992 290.212 105.894 292.846L109.211 302.555C109.381 303.053 142.493 303.312 174.672 298.9C201.65 295.201 228.632 286.742 228.632 286.742C228.632 286.742 226.313 282.231 225.814 279.961Z" fill="#FFA27A"/>
<path d="M128.757 259.334C135.241 252.598 136.348 244.398 146.852 226.15C147.315 225.339 146.098 224.657 145.51 225.289C141.425 229.77 138.976 235.59 136.438 241.037C135.111 243.885 133.794 246.738 132.318 249.501C130.752 252.443 128.827 255.062 127.016 257.845C126.238 259.06 127.71 260.424 128.757 259.334Z" fill="#FFA27A"/>
<path d="M111.296 300.987C113.406 295.814 115.221 290.492 117.141 285.249C119.022 280.111 121.545 274.794 122.573 269.402C122.626 269.27 122.625 269.122 122.569 268.991C122.514 268.86 122.408 268.756 122.276 268.702C122.144 268.649 121.995 268.65 121.864 268.706C121.733 268.761 121.629 268.867 121.575 268.999C118.852 273.679 117.281 279.27 115.351 284.308C113.301 289.67 111.116 295.023 109.266 300.449C108.847 301.739 110.802 302.212 111.296 300.987Z" fill="white"/>
<path d="M132.812 299.572C137.623 296.525 142.383 293.4 147.091 290.197C149.322 288.681 151.537 287.137 153.734 285.567C155.291 284.467 158.353 283.078 158.662 281.086C158.682 281.004 158.67 280.918 158.629 280.845C158.587 280.772 158.518 280.717 158.438 280.693C156.478 280.329 154.582 282.386 153.046 283.431C150.697 285.039 148.338 286.623 145.974 288.211C141.246 291.382 136.468 294.479 131.67 297.541C130.408 298.348 131.55 300.374 132.812 299.572Z" fill="white"/>
<path d="M129.73 227.759C130.353 225.658 130.158 223.203 130.228 221.018C130.325 218.409 130.386 215.798 130.413 213.186C130.468 208.411 130.767 203.418 129.864 198.703C129.837 198.608 129.78 198.525 129.701 198.465C129.622 198.406 129.526 198.374 129.428 198.374C129.329 198.374 129.233 198.406 129.155 198.465C129.076 198.525 129.019 198.608 128.991 198.703C128.268 203.452 128.587 208.381 128.458 213.176C128.144 225.165 127.605 225.215 128.044 227.754C128.213 228.645 129.5 228.525 129.73 227.759Z" fill="#FFA27A"/>
<path d="M149.301 255.481C158.463 257.173 169.206 259.17 178.229 255.764C178.932 255.501 178.947 254.271 178.049 254.336C168.403 255.242 166.079 256.666 149.85 253.395C148.508 253.121 147.929 255.232 149.301 255.481Z" fill="#FFA27A"/>
<path d="M95.9344 224.279C99.6102 221.341 102.857 217.652 106.109 214.262C109.361 210.871 112.593 207.266 115.695 203.667C116.373 202.885 115.251 201.74 114.553 202.517C103.361 215.008 98.7574 218.449 94.7125 223.054C94.5676 223.219 94.491 223.433 94.498 223.653C94.5051 223.872 94.5953 224.081 94.7505 224.236C94.9057 224.392 95.1142 224.483 95.334 224.491C95.5538 224.498 95.7684 224.423 95.9344 224.279Z" fill="#FFA27A"/>
<path d="M194.822 271.841C195.32 267.141 196.248 262.486 196.792 257.791C197.29 253.604 198.383 248.575 197.54 244.408C197.517 244.328 197.468 244.258 197.402 244.208C197.335 244.158 197.254 244.131 197.171 244.131C197.087 244.131 197.006 244.158 196.94 244.208C196.873 244.258 196.825 244.328 196.802 244.408C195.849 247.162 195.106 262.929 192.941 271.592C192.612 272.922 194.677 273.265 194.822 271.841Z" fill="white"/>
<path d="M185.331 287.649C190.253 285.224 195.181 282.824 200.104 280.41C204.927 278.04 210.318 275.979 214.672 272.807C215.071 272.518 214.877 271.811 214.333 271.956C209.525 273.265 209.161 273.977 184.223 285.677C182.922 286.28 184.024 288.271 185.331 287.649Z" fill="white"/>
<path d="M170.922 294.479C171.635 292.463 172.388 283.725 172.498 282.202C172.767 277.863 172.692 273.509 172.273 269.182C172.255 269.131 172.221 269.086 172.177 269.054C172.132 269.023 172.079 269.006 172.024 269.006C171.969 269.006 171.916 269.023 171.871 269.054C171.826 269.086 171.793 269.131 171.774 269.182C171.64 273.837 170.966 283.043 170.388 287.629C170.114 289.819 169.44 292.08 169.425 294.28C169.445 294.452 169.521 294.613 169.643 294.737C169.764 294.86 169.924 294.94 170.096 294.963C170.268 294.986 170.442 294.95 170.592 294.863C170.741 294.775 170.858 294.64 170.922 294.479Z" fill="white"/>
<path d="M176.303 204.986C178.193 205.718 178.343 205.424 189.076 206.276C197.999 206.983 199.051 207.521 200.931 206.858C201.076 206.809 201.186 206.594 201.036 206.48C199.654 205.395 197.789 205.235 196.088 204.961C192.557 204.384 186.512 203.881 183.001 203.577C180.822 203.388 178.463 202.865 176.308 203.313C175.375 203.508 175.57 204.698 176.303 204.986Z" fill="#FFA27A"/>
<path d="M158.154 236.915C160.308 236.368 162.213 234.645 163.999 233.365C165.904 231.996 167.784 230.587 169.61 229.113C171.435 227.64 173.261 226.042 174.991 224.394C176.488 222.98 178.218 221.546 178.981 219.619C179.276 218.882 178.283 218.23 177.665 218.598C175.979 219.594 174.802 221.446 173.45 222.86C171.79 224.571 170.044 226.196 168.218 227.729C166.378 229.288 164.478 230.766 162.567 232.24C160.932 233.505 158.892 234.66 157.75 236.407C157.714 236.468 157.698 236.538 157.704 236.607C157.709 236.677 157.735 236.744 157.778 236.799C157.822 236.853 157.881 236.894 157.948 236.915C158.015 236.935 158.086 236.936 158.154 236.915Z" fill="#FFA27A"/>
<path d="M182.827 331.79C173.006 331.741 151.839 335.868 147.58 340.13C140.029 343.944 140.323 349.366 144.443 356.729C146.117 359.653 148.211 362.316 150.657 364.635C151.35 365.299 152.238 365.724 153.19 365.847C154.143 365.969 155.11 365.784 155.949 365.318C157.306 364.598 158.705 363.96 160.138 363.406C173.435 358.263 186.468 358.357 200.193 363.406C201.375 363.919 202.516 364.523 203.605 365.213C203.764 365.318 204.472 365.865 204.353 365.746C204.833 366.149 205.284 366.585 205.704 367.05C207.939 369.39 209.465 375.962 210.118 379.109C212.044 388.404 210.797 393.239 210.896 393.841C209.954 400.363 207.495 406.009 202.418 410.405C202.253 410.545 201.655 411.013 201.754 410.948C201.415 411.192 201.076 411.446 200.727 411.665C200.078 412.063 199.542 412.621 199.171 413.285C198.799 413.948 198.604 414.696 198.604 415.456C198.604 416.217 198.799 416.964 199.171 417.628C199.542 418.292 200.078 418.849 200.727 419.248C211.385 426.118 212.452 427.02 214.976 427C216.021 426.954 217.044 426.684 217.975 426.21C218.907 425.736 219.726 425.068 220.378 424.251C224.295 419.485 227.488 414.169 229.854 408.474C245.54 371.959 225.754 332.02 182.827 331.79Z" fill="#35375B"/>
<path d="M70.8321 306.892C69.1812 299.105 64.3483 291.787 57.3658 287.818C49.1065 283.128 38.7723 282.934 29.5653 284.04C2.75245 287.256 -4.40463 314.709 2.42329 330.925C2.86492 332.052 3.65901 333.007 4.68762 333.648C7.9345 342.68 14.907 349.082 23.5205 352.099C44.473 359.428 76.8271 335.177 70.8321 306.892ZM31.0018 342.356C25.5155 342.182 20.4033 339.085 16.7225 334.953C7.24621 324.293 10.0991 301.958 25.2013 296.954C30.7823 295.107 41.276 294.883 46.5628 296.173C52.3533 297.587 56.2885 301.037 58.3533 306.13C66.1837 325.343 43.4207 342.754 31.0018 342.356Z" fill="#FFA27A"/>
<path d="M325.983 415.23C299.36 399.138 281.619 374.045 278.008 362.151C274.722 351.322 275.515 328.007 277.315 315.351L278.811 315.56C277.011 328.091 276.233 351.108 279.455 361.728C283.141 373.861 301.629 398.765 326.771 413.965L325.983 415.23Z" fill="#35375B"/>
<path d="M291.261 355.698C286.916 344.183 256.737 254.829 264.423 240.191C264.664 239.655 265.02 239.179 265.467 238.797C265.913 238.415 266.439 238.136 267.006 237.98C273.36 236.392 278.792 251.304 282.762 262.182C283.191 263.362 283.6 264.482 283.984 265.513C290.607 283.232 296.852 302.854 299.989 312.991L298.557 313.429C295.43 303.317 289.191 283.715 282.597 266.036C282.213 265 281.799 263.88 281.37 262.695C278.024 253.524 272.428 238.17 267.38 239.429C267.02 239.539 266.689 239.726 266.409 239.977C266.128 240.228 265.907 240.537 265.759 240.883C258.777 254.151 286.258 338.153 292.692 355.156L291.261 355.698Z" fill="#35375B"/>
<path d="M318.193 306.817C318.153 306.692 313.959 294.206 311.599 290.765C309.056 287.056 305.614 285.368 302.123 286.135C298.298 286.977 295.305 290.616 294.497 295.426L293.001 295.177C293.909 289.77 297.355 285.652 301.784 284.676C305.889 283.77 309.914 285.672 312.816 289.919C315.31 293.534 319.425 305.821 319.599 306.349L318.193 306.817Z" fill="#35375B"/>
<path d="M337.908 303.044C337.864 302.914 333.669 290.432 331.31 286.992C328.771 283.283 325.325 281.6 321.834 282.362C318.008 283.203 315.011 286.843 314.203 291.652L312.707 291.403C313.619 285.996 317.066 281.879 321.49 280.903C325.599 279.997 329.624 281.899 332.527 286.146C335.021 289.76 339.13 302.048 339.305 302.576L337.908 303.044Z" fill="#35375B"/>
<path d="M375.739 402.783L374.358 402.21C374.402 402.091 379.24 390.366 379.47 381.548C379.774 369.465 376.737 360.284 373.515 350.565C372.407 347.205 371.255 343.734 370.263 340.15C368.512 333.837 366.951 327.787 365.575 322.45C363.58 314.773 362.023 308.709 360.772 305.159C357.225 295.082 353.659 289.162 349.206 285.961C347.829 285.007 346.226 284.429 344.557 284.285C342.888 284.141 341.209 284.435 339.689 285.139C338.487 285.677 337.46 286.541 336.726 287.634C335.992 288.726 335.581 290.003 335.54 291.318L334.043 291.238C334.099 289.654 334.595 288.116 335.476 286.798C336.356 285.479 337.587 284.43 339.031 283.77C340.794 282.954 342.74 282.614 344.675 282.782C346.611 282.951 348.469 283.623 350.063 284.731C354.846 288.166 358.462 294.121 362.168 304.646C363.44 308.256 365.011 314.35 367.006 322.072C368.382 327.404 369.944 333.448 371.689 339.746C372.687 343.296 373.819 346.751 374.921 350.092C378.038 359.502 381.265 369.236 380.946 381.578C380.732 390.664 375.939 402.285 375.739 402.783Z" fill="#35375B"/>
<path d="M268.802 251.956C268.061 251.966 267.327 251.82 266.647 251.528L267.265 250.169C268.941 250.926 271.859 250.209 273.116 248.147L274.393 248.939C273.79 249.871 272.962 250.636 271.985 251.164C271.008 251.691 269.913 251.964 268.802 251.956Z" fill="#35375B"/>
<path d="M369.504 300.827C368.322 291.796 368.387 281.325 369.704 267.888L371.2 268.037C369.889 281.355 369.824 291.716 370.996 300.633L369.504 300.827Z" fill="#35375B"/>
<path d="M373.584 248.834L372.088 248.58C373.085 242.869 374.317 236.85 375.749 230.696L377.205 231.035C375.799 237.164 374.577 243.153 373.584 248.834Z" fill="#35375B"/>
<path d="M386.367 270.203C385.418 270.188 384.484 269.955 383.639 269.524C382.793 269.092 382.058 268.473 381.489 267.714C381.3 267.475 381.075 267.166 380.831 266.823C379.694 265.239 377.983 262.84 375.908 262.581C374.951 262.461 373.993 262.805 372.981 263.641C372.063 264.398 371.539 265.294 371.19 268.077L369.694 267.888C370.058 264.99 370.641 263.631 372.013 262.491C373.385 261.351 374.711 260.923 376.093 261.102C378.806 261.451 380.751 264.159 382.038 265.951C382.267 266.275 382.472 266.559 382.651 266.783C383.933 268.396 385.764 269.063 387.549 268.565C389.544 267.998 391.943 265.697 392.537 260.948C393.035 256.915 391.938 253.704 389.594 252.359C387.973 251.428 386.028 251.622 384.382 252.857C383.848 253.26 383.385 253.629 382.976 253.987C382.567 254.346 382.078 254.734 381.534 255.142C379.863 256.407 378.148 256.955 376.547 256.726C375.829 256.604 375.145 256.335 374.536 255.938C373.926 255.541 373.406 255.022 373.006 254.416C371.953 252.982 371.719 251.513 372.078 248.615L373.574 248.799C373.23 251.583 373.519 252.578 374.223 253.534C374.509 253.978 374.883 254.36 375.322 254.654C375.761 254.949 376.256 255.15 376.776 255.247C377.933 255.416 379.3 254.958 380.627 253.952C381.125 253.564 381.564 253.211 382.013 252.842C382.462 252.474 382.911 252.095 383.469 251.667C385.609 250.039 388.178 249.805 390.337 251.045C393.22 252.698 394.592 256.462 394.013 261.112C393.434 265.762 391.165 269.078 387.948 269.984C387.434 270.128 386.902 270.202 386.367 270.203Z" fill="#35375B"/>
<path d="M453.38 311.238C452.198 302.207 452.258 291.737 453.579 278.299L455.076 278.448C453.769 291.766 453.704 302.127 454.871 311.044L453.38 311.238Z" fill="#35375B"/>
<path d="M457.46 259.25L455.963 258.991C457.684 249.118 460.043 238.658 463.165 227.022L464.612 227.411C461.52 238.981 459.17 249.437 457.46 259.25Z" fill="#35375B"/>
<path d="M470.293 280.604C469.336 280.59 468.395 280.358 467.541 279.927C466.687 279.496 465.943 278.876 465.365 278.115C465.175 277.876 464.951 277.567 464.701 277.224C463.569 275.64 461.854 273.241 459.784 272.982C458.821 272.862 457.864 273.206 456.856 274.042C455.938 274.799 455.415 275.695 455.066 278.478L453.569 278.294C453.933 275.391 454.517 274.032 455.889 272.892C457.26 271.752 458.592 271.329 459.968 271.503C462.682 271.851 464.627 274.56 465.908 276.352C466.143 276.676 466.347 276.96 466.527 277.184C467.034 277.873 467.721 278.411 468.511 278.74C469.302 279.069 470.168 279.176 471.016 279.051C473.135 278.677 474.901 276.81 475.859 273.923C476.092 273.077 476.268 272.217 476.387 271.349C476.486 270.468 476.526 269.581 476.507 268.695C476.283 265.708 475.011 263.452 473.066 262.571C472.272 262.236 471.402 262.125 470.55 262.25C469.698 262.375 468.896 262.73 468.233 263.278C467.699 263.686 467.235 264.055 466.826 264.408C466.417 264.762 465.928 265.155 465.385 265.568C463.714 266.833 461.993 267.381 460.397 267.147C459.679 267.024 458.994 266.756 458.384 266.358C457.774 265.961 457.253 265.443 456.851 264.836C455.799 263.403 455.569 261.939 455.928 259.036L457.425 259.22C457.076 262.003 457.37 262.999 458.073 263.955C458.359 264.4 458.733 264.781 459.172 265.076C459.611 265.37 460.106 265.572 460.627 265.668C461.779 265.832 463.15 265.379 464.477 264.378C464.976 263.985 465.415 263.637 465.864 263.263C466.312 262.89 466.761 262.516 467.32 262.088C468.199 261.377 469.256 260.919 470.377 260.763C471.497 260.608 472.639 260.761 473.679 261.207C476.173 262.322 477.729 265.021 477.993 268.615C478.018 269.591 477.975 270.568 477.864 271.538C477.734 272.492 477.541 273.437 477.285 274.366C476.133 277.816 473.948 280.052 471.27 280.525C470.947 280.578 470.62 280.605 470.293 280.604Z" fill="#35375B"/>
<path d="M444.706 312.622C437.165 312.622 429.36 312.219 421.07 311.413L421.22 309.919C432.119 311.039 443.085 311.372 454.033 310.915L454.103 312.408C451.007 312.554 447.875 312.626 444.706 312.622Z" fill="#35375B"/>
<path d="M401.739 309.007C390.502 307.195 379.59 304.75 369.465 302.381L369.809 300.927C379.904 303.287 390.786 305.726 401.978 307.534L401.739 309.007Z" fill="#35375B"/>
<path d="M421.051 311.407C418.148 311.049 416.786 310.461 415.644 309.092C415.156 308.557 414.782 307.927 414.546 307.242C414.31 306.557 414.217 305.831 414.273 305.109C414.437 303.521 415.385 301.987 417.026 300.683C417.555 300.255 418.023 299.911 418.497 299.573C418.971 299.234 419.42 298.905 419.944 298.487C421.56 297.203 422.228 295.375 421.729 293.598C421.161 291.577 418.856 289.212 414.098 288.619C410.058 288.121 406.841 289.212 405.495 291.552C404.562 293.17 404.757 295.117 405.994 296.755C406.402 297.287 406.772 297.75 407.126 298.164C407.48 298.577 407.874 299.06 408.283 299.597C409.55 301.265 410.098 302.983 409.869 304.576C409.746 305.293 409.477 305.977 409.079 306.586C408.681 307.194 408.162 307.715 407.555 308.116C406.113 309.167 404.647 309.401 401.744 309.037L401.929 307.544C404.717 307.887 405.714 307.593 406.672 306.896C407.116 306.61 407.498 306.237 407.793 305.798C408.088 305.36 408.29 304.866 408.388 304.347C408.557 303.187 408.098 301.823 407.091 300.499C406.702 300.001 406.353 299.563 405.979 299.119C405.604 298.676 405.23 298.218 404.801 297.661C403.171 295.525 402.936 292.966 404.178 290.81C405.834 287.932 409.604 286.558 414.263 287.136C418.921 287.713 422.243 289.978 423.151 293.195C423.819 295.57 422.961 297.984 420.856 299.667C420.303 300.1 419.824 300.454 419.36 300.787C418.896 301.121 418.442 301.454 417.939 301.858C416.642 302.893 415.859 304.103 415.744 305.268C415.71 305.794 415.784 306.322 415.962 306.818C416.139 307.315 416.417 307.77 416.777 308.156C417.535 309.072 418.432 309.6 421.22 309.943L421.051 311.407Z" fill="#35375B"/>
<path d="M455.27 227.804C447.729 227.804 439.923 227.401 431.639 226.589L431.784 225.096C442.683 226.219 453.649 226.552 464.597 226.091L464.667 227.585C461.574 227.728 458.442 227.801 455.27 227.804Z" fill="#35375B"/>
<path d="M412.302 224.189C405.988 223.168 399.445 221.904 391.709 220.206L392.028 218.747C399.734 220.43 406.253 221.69 412.542 222.705L412.302 224.189Z" fill="#35375B"/>
<path d="M431.619 226.589C428.717 226.226 427.35 225.643 426.213 224.274C425.076 222.905 424.637 221.576 424.816 220.201C425.17 217.488 427.884 215.551 429.679 214.267C429.998 214.038 430.288 213.834 430.512 213.654C432.128 212.37 432.796 210.543 432.293 208.765C431.724 206.749 429.425 204.379 424.667 203.786C423.782 203.688 422.893 203.648 422.003 203.667C419.011 203.891 416.752 205.16 415.869 207.097C415.536 207.891 415.427 208.759 415.551 209.61C415.676 210.461 416.031 211.262 416.577 211.927C416.986 212.459 417.355 212.922 417.714 213.336C418.073 213.749 418.462 214.227 418.871 214.77C420.138 216.437 420.687 218.155 420.452 219.748C420.329 220.464 420.061 221.146 419.664 221.754C419.267 222.362 418.749 222.883 418.143 223.283C416.702 224.334 415.235 224.568 412.333 224.209L412.517 222.716C415.3 223.064 416.298 222.77 417.26 222.068C417.705 221.783 418.086 221.409 418.38 220.971C418.674 220.532 418.875 220.038 418.971 219.519C419.141 218.364 418.682 216.995 417.679 215.676C417.29 215.178 416.936 214.74 416.567 214.297C416.198 213.853 415.814 213.395 415.39 212.838C414.675 211.961 414.215 210.906 414.06 209.787C413.904 208.668 414.059 207.527 414.507 206.49C415.619 204 418.328 202.447 421.928 202.178C422.905 202.159 423.881 202.204 424.851 202.313C429.51 202.89 432.831 205.156 433.734 208.367C434.402 210.742 433.544 213.156 431.44 214.839C431.2 215.028 430.896 215.247 430.547 215.496C428.961 216.632 426.557 218.339 426.303 220.41C426.178 221.366 426.522 222.322 427.36 223.333C428.123 224.244 429.016 224.772 431.804 225.12L431.619 226.589Z" fill="#35375B"/>
<path d="M103.371 306.558C98.2484 294.046 94.393 278.995 91.1611 259.205L92.6574 258.966C95.8444 278.642 99.6898 293.588 104.772 305.995L103.371 306.558Z" fill="#35375B"/>
<path d="M87.2908 230.557C86.0139 215.725 85.4304 199.808 85.5002 181.899H86.9965C86.9266 199.763 87.4952 215.636 88.782 230.423L87.2908 230.557Z" fill="#35375B"/>
<path d="M227.924 289.765C223.376 277.288 218.682 259.19 215.675 242.536L217.171 242.272C220.164 258.852 224.832 276.85 229.356 289.252L227.924 289.765Z" fill="#35375B"/>
<path d="M211.794 213.853C210.433 197.075 210.507 182.766 211.066 165.116L212.562 165.161C212.009 182.761 211.939 197.025 213.29 213.734L211.794 213.853Z" fill="#35375B"/>
<path d="M109.819 307.559C108.1 307.559 106.423 307.544 104.787 307.514V306.021C139.849 306.618 195.061 300.783 228.348 288.784L228.847 290.193C196.986 301.714 145.086 307.559 109.819 307.559Z" fill="#35375B"/>
<path d="M91.1512 259.185C90.5826 254.988 90.8918 252.872 92.3681 250.806C93.7347 248.899 95.4155 247.774 97.3557 247.47C99.605 247.117 102.074 247.879 104.498 249.671C105.306 250.268 105.994 250.821 106.642 251.359C107.291 251.897 107.959 252.429 108.767 253.027C111.106 254.774 113.939 255.153 116.338 254.022C119.366 252.623 121.271 249.158 121.57 244.508C121.579 243.177 121.503 241.846 121.341 240.525C120.513 234.381 117.615 230.07 113.59 228.989C110.752 228.222 107.884 229.288 105.904 231.827C105.286 232.619 104.787 233.321 104.303 234.003C103.819 234.685 103.306 235.407 102.682 236.193C100.822 238.568 98.6374 239.957 96.3781 240.211C94.418 240.43 92.4978 239.793 90.6774 238.314C88.6824 236.711 87.8395 234.755 87.2759 230.558L88.7721 230.358C89.2709 234.162 89.9791 235.835 91.635 237.154C93.1312 238.369 94.6774 238.902 96.2235 238.728C98.0539 238.519 99.9342 237.294 101.52 235.272C102.114 234.511 102.593 233.844 103.096 233.137C103.6 232.43 104.094 231.728 104.737 230.911C107.101 227.879 110.558 226.624 113.994 227.545C118.617 228.79 121.924 233.57 122.837 240.321C123.015 241.726 123.095 243.142 123.076 244.558C122.747 249.8 120.523 253.729 116.982 255.362C114.074 256.706 110.672 256.268 107.884 254.192C107.056 253.569 106.388 253.017 105.715 252.479C105.041 251.941 104.403 251.414 103.625 250.836C101.56 249.308 99.4205 248.625 97.6 248.909C96.0639 249.153 94.7173 250.069 93.61 251.638C92.3731 253.365 92.1437 255.123 92.6574 258.951L91.1512 259.185Z" fill="#35375B"/>
<path d="M192.677 245.603C191.939 245.603 191.204 245.504 190.492 245.31C185.839 244.055 182.512 239.275 181.6 232.519C181.425 231.115 181.345 229.702 181.36 228.287C181.694 223.04 183.914 219.116 187.455 217.478C190.368 216.139 193.764 216.577 196.552 218.653C197.385 219.271 198.049 219.828 198.727 220.361C199.405 220.894 200.039 221.431 200.817 222.004C202.881 223.532 205.021 224.22 206.837 223.931C208.373 223.692 209.724 222.771 210.827 221.202C212.063 219.475 212.293 217.717 211.779 213.894L213.275 213.689C213.839 217.892 213.535 220.008 212.053 222.074C210.687 223.981 209.011 225.101 207.066 225.409C204.812 225.763 202.343 225.001 199.919 223.204C199.116 222.611 198.423 222.054 197.774 221.521C197.126 220.988 196.458 220.451 195.655 219.848C193.315 218.106 190.482 217.727 188.079 218.852C185.051 220.251 183.146 223.722 182.852 228.367C182.839 229.698 182.914 231.029 183.076 232.35C184.074 239.579 187.749 243.054 190.881 243.896C193.679 244.652 196.532 243.587 198.517 241.043C199.131 240.251 199.635 239.549 200.118 238.872C200.602 238.195 201.116 237.463 201.739 236.676C203.6 234.307 205.779 232.917 208.044 232.664C209.999 232.44 211.919 233.077 213.744 234.555C215.739 236.159 216.577 238.115 217.146 242.312L215.649 242.517C215.151 238.708 214.438 237.04 212.787 235.716C211.29 234.501 209.739 233.973 208.193 234.147C206.368 234.351 204.487 235.576 202.901 237.598C202.303 238.359 201.829 239.026 201.32 239.738C200.812 240.45 200.323 241.142 199.679 241.959C197.844 244.314 195.325 245.603 192.677 245.603Z" fill="#35375B"/>
<path d="M164.642 177.886L164.373 176.393C180.981 173.405 199.016 168.745 211.44 164.229L211.939 165.634C199.455 170.194 181.326 174.884 164.642 177.886Z" fill="#35375B"/>
<path d="M107.56 182.861C101.036 182.861 94.3482 182.716 87.1113 182.487L87.1612 180.993C104.792 181.546 119.081 181.621 135.814 180.267L135.934 181.76C126.009 182.557 116.952 182.861 107.56 182.861Z" fill="#35375B"/>
<path d="M150.732 212.141H150.383C145.131 211.812 141.196 209.592 139.56 206.057C138.214 203.154 138.652 199.759 140.732 196.976C141.356 196.149 141.909 195.482 142.448 194.805C142.987 194.128 143.515 193.495 144.094 192.724C145.625 190.663 146.308 188.527 146.024 186.709C145.78 185.176 144.862 183.827 143.291 182.726C141.56 181.492 139.8 181.263 135.964 181.775L135.765 180.282C139.974 179.714 142.089 180.023 144.159 181.497C146.069 182.861 147.196 184.539 147.5 186.475C147.854 188.721 147.091 191.185 145.296 193.605C144.697 194.412 144.144 195.099 143.61 195.746C143.076 196.393 142.533 197.06 141.934 197.867C140.184 200.202 139.805 203.03 140.937 205.425C142.338 208.447 145.809 210.349 150.468 210.642H150.712C153.306 210.672 155.888 210.309 158.373 209.567C162.752 208.073 165.595 205.31 166.144 202.024C166.578 199.415 165.46 196.791 163.151 195.004C162.358 194.387 161.655 193.889 160.972 193.401C160.288 192.913 159.565 192.405 158.777 191.788C156.398 189.931 155.006 187.755 154.752 185.495C154.533 183.538 155.171 181.621 156.652 179.799C158.253 177.807 160.218 176.971 164.423 176.403L164.622 177.897C160.807 178.395 159.136 179.102 157.814 180.755C156.597 182.248 156.069 183.792 156.238 185.335C156.448 187.162 157.675 189.039 159.7 190.623C160.463 191.215 161.131 191.693 161.839 192.196C162.548 192.699 163.251 193.192 164.069 193.834C166.812 195.965 168.139 199.121 167.615 202.298C166.972 206.142 163.77 209.318 158.822 211.021C156.203 211.803 153.481 212.189 150.747 212.166L150.732 212.141Z" fill="#35375B"/>
<path d="M92.0497 86.6703L81.7939 97.4775L82.8802 98.5047L93.136 87.6975L92.0497 86.6703Z" fill="#35375B"/>
<path d="M68.0241 115.413L66.7124 114.681C68.259 111.941 70.518 109.669 73.251 108.104L73.9942 109.399C71.4972 110.83 69.4343 112.908 68.0241 115.413Z" fill="#35375B"/>
<path d="M57.3653 131.699L48.1763 143.524L49.3585 144.44L58.5475 132.614L57.3653 131.699Z" fill="#35375B"/>
<path d="M42.0142 172.5L40.6626 171.862C41.9911 169.061 43.0596 166.145 43.8546 163.149L45.301 163.533C44.4826 166.616 43.3824 169.617 42.0142 172.5Z" fill="#35375B"/>
<path d="M38.5177 195.353H37.0215V206.261H38.5177V195.353Z" fill="#35375B"/>
<path d="M40.3883 240.923C37.6051 237.195 35.8322 232.814 35.2412 228.202L36.7375 228.013C37.2939 232.37 38.969 236.51 41.6003 240.031L40.3883 240.923Z" fill="#35375B"/>
<path d="M48.9768 274.614C47.3952 273.154 46.1334 271.383 45.2708 269.412C44.4082 267.441 43.9634 265.314 43.9644 263.163H45.4606C45.4572 265.108 45.8573 267.032 46.6359 268.814C47.4145 270.596 48.5546 272.198 49.9843 273.519L48.9768 274.614Z" fill="#35375B"/>
<path d="M60.8827 297.149L59.6079 297.931L64.3733 305.672L65.6481 304.89L60.8827 297.149Z" fill="#35375B"/>
<path d="M83.4007 330.646C80.9367 328.428 78.9731 325.712 77.6401 322.679L79.0117 322.082C80.2554 324.925 82.0917 327.471 84.3983 329.55L83.4007 330.646Z" fill="#35375B"/>
<path d="M98.284 345.984L97.3696 347.166L107.504 354.976L108.418 353.794L98.284 345.984Z" fill="#35375B"/>
<path d="M136.657 370.749C132.02 369.323 127.547 367.414 123.311 365.053L124.039 363.749C128.183 366.059 132.559 367.927 137.096 369.32L136.657 370.749Z" fill="#35375B"/>
<path d="M158.173 380.29L157.692 381.704L171.721 386.452L172.201 385.038L158.173 380.29Z" fill="#35375B"/>
<path d="M188.497 390.609L188.323 392.093L202.455 393.75L202.63 392.267L188.497 390.609Z" fill="#35375B"/>
<path d="M233.729 397.998V396.505C238.134 396.427 242.53 396.094 246.897 395.509L247.091 397.002C242.66 397.594 238.199 397.927 233.729 397.998Z" fill="#35375B"/>
<path d="M266.308 395.678C265.575 395.678 264.841 395.678 264.113 395.608L264.208 394.115C268.583 394.393 272.969 393.797 277.111 392.362L277.61 393.771C273.975 395.032 270.155 395.676 266.308 395.678Z" fill="#35375B"/>
<path d="M390.106 342.039L381.636 349.188L382.602 350.329L391.072 343.179L390.106 342.039Z" fill="#35375B"/>
<path d="M408.658 323.944L398.614 333.406L399.641 334.493L409.685 325.031L408.658 323.944Z" fill="#35375B"/>
<path d="M448.971 186.773L447.48 186.897L448.393 197.798L449.884 197.673L448.971 186.773Z" fill="#35375B"/>
<path d="M441.545 161.419L440.192 162.059L444.373 170.868L445.726 170.229L441.545 161.419Z" fill="#35375B"/>
<path d="M246.099 29.9121C242.308 29.1622 238.424 28.9943 234.582 29.4142L234.423 27.9206C238.417 27.4924 242.454 27.6754 246.393 28.4632L246.099 29.9121Z" fill="#35375B"/>
<path d="M283.59 31.9636C279.159 30.4537 274.405 30.1529 269.819 31.0923L269.52 29.6286C274.367 28.6381 279.391 28.9561 284.074 30.5497L283.59 31.9636Z" fill="#35375B"/>
<path d="M409.035 179.33L407.948 178.3C427.255 157.996 440.701 140.959 450.267 124.748L451.554 125.505C441.933 141.835 428.422 158.937 409.035 179.33Z" fill="#35375B"/>
<path d="M327.465 251.353L326.562 250.163C346.597 235.043 363.849 220.888 379.31 206.888L380.308 207.993C364.821 222.023 347.535 236.208 327.465 251.353Z" fill="#35375B"/>
<path d="M284.472 54.8116L283.37 53.8159C299.37 36.3901 315.535 15.8378 325.565 0.239258L326.821 1.04582C316.752 16.6991 300.527 37.3062 284.472 54.8116Z" fill="#35375B"/>
<path d="M251.25 87.4675L250.253 86.3473C251.749 85.0528 253.245 83.7185 254.742 82.3643L255.739 83.4745C254.243 84.8337 252.747 86.173 251.25 87.4675Z" fill="#35375B"/>
<path d="M201.909 125.734L201.041 124.519C208.727 119.042 214.951 114.512 220.622 110.26L221.52 111.455C215.839 115.717 209.605 120.252 201.909 125.734Z" fill="#35375B"/>
<path d="M253.874 169.448C236.058 152.56 218.777 138.261 201.041 125.739L201.904 124.52C219.699 137.086 237.036 151.405 254.901 168.363L253.874 169.448Z" fill="#35375B"/>
<path d="M327.026 250.134C313.425 233.305 298.597 215.342 282.517 198.041L283.614 197.045C299.749 214.381 314.572 232.364 328.188 249.218L327.026 250.134Z" fill="#35375B"/>
<path d="M450.252 124.33C421.085 84.7388 367.559 28.15 325.804 1.25465L326.597 0C368.492 26.9949 422.193 83.748 451.439 123.474L450.252 124.33Z" fill="#35375B"/>
<path d="M251.585 223.482C248.093 223.482 244.293 222.212 240.547 219.718C238.954 218.537 237.442 217.25 236.024 215.865C234.641 214.461 233.358 212.964 232.183 211.384C228.153 205.354 227.295 199.201 229.799 194.456C231.849 190.587 235.919 188.252 240.687 188.202C242.138 188.202 243.37 188.232 244.562 188.267C245.754 188.302 246.941 188.347 248.303 188.327C251.994 188.282 255.036 187.197 256.881 185.275C258.447 183.637 259.201 181.391 259.111 178.603C259.016 175.536 257.739 173.306 253.859 169.432L254.916 168.377C259.066 172.514 260.502 175.083 260.607 178.559C260.707 181.765 259.819 184.369 257.959 186.306C255.241 189.143 251.221 189.791 248.323 189.821C246.926 189.821 245.699 189.821 244.512 189.761C243.325 189.701 242.123 189.686 240.702 189.696C236.492 189.741 232.911 191.782 231.121 195.173C228.881 199.405 229.714 205.001 233.41 210.537C234.538 212.043 235.764 213.474 237.081 214.819C238.439 216.141 239.882 217.373 241.4 218.508C246.916 222.178 252.527 222.989 256.767 220.769C260.148 218.986 262.193 215.411 262.253 211.209C262.253 209.795 262.253 208.581 262.193 207.406C262.133 206.231 262.113 204.996 262.128 203.602C262.168 200.709 262.812 196.691 265.654 193.978C267.595 192.126 270.193 191.23 273.415 191.339C276.906 191.444 279.465 192.878 283.615 197.02L282.557 198.075C278.682 194.172 276.422 192.907 273.345 192.813C270.547 192.728 268.308 193.48 266.667 195.043C264.742 196.88 263.674 199.922 263.605 203.607C263.605 204.966 263.605 206.121 263.664 207.341C263.724 208.561 263.744 209.761 263.729 211.209C263.684 215.969 261.34 220.032 257.47 222.073C255.654 223.018 253.633 223.502 251.585 223.482Z" fill="#35375B"/>
<path d="M380.342 207.968L379.285 206.913C383.17 203.039 384.442 200.809 384.542 197.737C384.627 194.949 383.874 192.708 382.307 191.07C380.467 189.148 377.42 188.083 373.729 188.018C372.367 188.018 371.235 188.018 369.988 188.078C368.741 188.138 367.564 188.153 366.113 188.138C360.841 188.088 356.597 185.374 354.756 180.879C352.263 174.78 354.756 167.157 361.45 160.466C368.143 153.774 375.794 151.3 381.898 153.799C386.387 155.621 389.081 159.858 389.135 165.121C389.135 166.57 389.105 167.799 389.071 168.984C389.036 170.169 388.991 171.364 389.011 172.723C389.056 176.408 390.143 179.45 392.068 181.287C393.709 182.85 395.958 183.602 398.746 183.512C401.824 183.418 404.058 182.143 407.938 178.27L408.996 179.325C404.851 183.468 402.272 184.901 398.796 185.006C395.579 185.111 392.976 184.219 391.036 182.367C388.193 179.649 387.544 175.636 387.514 172.743C387.514 171.349 387.514 170.124 387.574 168.939C387.634 167.755 387.649 166.55 387.639 165.136C387.589 160.491 385.235 156.771 381.33 155.178C375.779 152.918 368.731 155.288 362.482 161.521C356.233 167.755 353.859 174.78 356.118 180.301C357.719 184.219 361.455 186.584 366.093 186.629C367.515 186.629 368.726 186.604 369.904 186.569C371.081 186.534 372.318 186.49 373.714 186.51C376.612 186.544 380.632 187.187 383.355 190.025C385.21 191.961 386.098 194.565 385.998 197.772C385.913 201.257 384.492 203.831 380.342 207.968Z" fill="#35375B"/>
<path d="M286.722 108.886C284.677 108.904 282.659 108.42 280.846 107.477C276.971 105.431 274.627 101.368 274.582 96.6082C274.582 95.1593 274.607 93.9296 274.642 92.7397C274.677 91.5497 274.722 90.3648 274.702 89.0056C274.657 85.3263 273.57 82.2842 271.644 80.4471C270.004 78.8788 267.749 78.127 264.966 78.2166C261.889 78.3112 259.654 79.5857 255.774 83.4592L254.742 82.4037C258.886 78.2664 261.465 76.8325 264.941 76.7229C268.153 76.6284 270.762 77.5146 272.702 79.3667C275.545 82.0801 276.193 86.098 276.223 88.9857C276.223 90.3797 276.223 91.6045 276.163 92.7894C276.103 93.9744 276.088 95.1793 276.103 96.5932C276.143 100.795 278.188 104.37 281.59 106.157C285.829 108.393 291.44 107.561 296.981 103.877C298.492 102.75 299.926 101.524 301.275 100.208C302.601 98.8551 303.834 97.4147 304.966 95.8962C308.642 90.3897 309.455 84.7886 307.23 80.5566C305.445 77.181 301.864 75.1397 297.654 75.08C296.233 75.08 295.021 75.0799 293.844 75.1447C292.667 75.2094 291.435 75.2243 290.033 75.2044C287.136 75.1646 283.116 74.5273 280.392 71.6894C278.537 69.7527 277.649 67.1438 277.749 63.9424C277.854 60.4573 279.29 57.8982 283.44 53.7559L284.497 54.8114C280.617 58.6898 279.34 60.9153 279.245 63.9872C279.156 66.7754 279.909 69.0208 281.475 70.6538C283.32 72.5756 286.363 73.6411 290.053 73.7108C291.415 73.7108 292.547 73.7108 293.794 73.651C295.041 73.5913 296.223 73.5714 297.669 73.5863C302.437 73.6361 306.507 75.9711 308.557 79.8397C311.051 84.5695 310.203 90.7282 306.193 96.7326C305.011 98.3227 303.721 99.8299 302.333 101.243C300.923 102.621 299.423 103.903 297.844 105.082C294.023 107.606 290.208 108.886 286.722 108.886Z" fill="#35375B"/>
<path d="M26.0592 34.0699C26.139 34.0998 26.159 34.1944 26.1889 34.2442C26.1992 34.1113 26.1784 33.9778 26.1282 33.8542C26.078 33.7307 25.9997 33.6205 25.8995 33.5322C25.9794 33.8708 25.8696 33.7911 25.9893 34.1695C25.9295 34.2741 25.7748 34.2243 25.7049 34.1197C25.7299 34.2093 25.5203 34.1944 25.6151 34.3886C25.9095 34.4732 26.0242 34.3537 26.0592 34.0699Z" fill="#35375B"/>
<path d="M27.181 32.7451C27.145 32.7787 27.1192 32.8217 27.1064 32.8692L27.191 32.7947C27.1848 32.7789 27.1815 32.7621 27.181 32.7451Z" fill="#35375B"/>
<path d="M22.9019 35.7922L22.9423 35.8275C22.9271 35.7972 22.917 35.7821 22.9019 35.7922Z" fill="#35375B"/>
<path d="M19.1016 40.3782C19.1904 40.3953 19.2761 40.4255 19.356 40.4679C19.1814 40.3633 19.3311 40.0942 19.1016 40.3782Z" fill="#35375B"/>
<path d="M27.256 32.75L27.1914 32.7947C27.1962 32.831 27.2138 32.8644 27.2411 32.889C27.2262 32.8195 27.2262 32.7748 27.256 32.75Z" fill="#35375B"/>
<path d="M26.5728 52.0332L26.3633 52.2574C26.4429 52.1924 26.5134 52.117 26.5728 52.0332Z" fill="#35375B"/>
<path d="M11.0718 51.8779V51.7988C11.062 51.8097 11.0566 51.8238 11.0566 51.8384C11.0566 51.853 11.062 51.8671 11.0718 51.8779Z" fill="#35375B"/>
<path d="M25.8697 53.0087C25.7863 52.9867 25.6986 52.9867 25.6152 53.0087C25.6227 53.0348 25.6364 53.0587 25.6551 53.0784L25.8697 53.0087Z" fill="#35375B"/>
<path d="M35.2611 39.3325C35.3294 38.8388 35.2179 38.3371 34.9469 37.9185L35.0916 37.9733C35.1913 37.7243 35.0517 37.3559 35.0467 37.092C34.8921 37.0572 34.8671 36.9178 34.7075 37.0622C35.2362 36.0664 33.8247 36.0017 33.9295 35.0706C33.9743 35.1254 34.4282 35.2997 33.6402 34.7271C33.5005 34.9113 33.5903 34.8715 33.5205 35.0806C33.4477 35.0942 33.3727 35.0914 33.3011 35.0724C33.2295 35.0535 33.163 35.0189 33.1065 34.9711C33.3808 35.0457 33.3808 34.7221 33.3958 34.5479C33.3559 34.6126 33.2711 34.6375 33.2262 34.6923C33.321 34.1944 32.8671 34.981 32.7823 34.523L32.8771 34.4483C32.7325 34.3886 32.528 34.4483 32.4282 34.3089C32.5429 34.06 32.6277 34.3089 32.7773 34.1446C32.5778 34.0151 32.129 34.2691 32.114 33.9504C32.2387 33.9504 32.3484 34.0151 32.4681 34.0151C32.4681 33.6268 32.3983 33.6816 32.2836 33.5173C32.1689 33.353 32.124 33.3032 32.0292 33.2036L32.0741 33.3231C31.4307 33.821 31.5105 33.119 30.9569 33.4227C31.4557 33.1688 31.1065 33.2185 31.2412 32.9248C31.1813 32.8053 31.0617 32.6659 31.1365 32.6012C30.8721 32.7754 30.8771 32.3024 30.508 32.6012C30.508 32.5016 30.3035 32.5414 30.4033 32.3174C30.129 32.3174 30.4282 32.4966 30.3734 32.6061C29.9345 32.8302 29.4806 32.0336 28.907 32.5215C28.4731 32.7256 28.4083 33.0194 28.139 33.2683H28.0342C27.9345 33.1389 28.0941 32.9397 28.0941 32.9397C27.9905 32.8973 27.8756 32.891 27.7679 32.9217C27.6603 32.9524 27.5661 33.0184 27.5006 33.109C27.5006 33.0144 27.4507 32.9596 27.3459 32.88C27.1863 32.9746 27.3709 33.2534 27.1015 33.2185C27.0767 33.0752 27.0767 32.9287 27.1015 32.7854C26.9499 32.98 26.8116 33.1846 26.6876 33.3978C26.5529 33.2783 26.6876 33.104 26.6876 32.9646C26.5031 33.1688 26.1888 33.4276 26.2986 33.7015H26.4781C26.4133 33.7562 26.3085 33.5372 26.3385 33.4625C26.4083 33.1737 26.6477 33.3828 26.7026 33.4625L26.6078 33.5919C27.0267 33.9903 27.0417 33.2434 27.3809 33.1339C27.3809 33.2534 27.3809 33.3679 27.4208 33.4874C26.748 33.7737 26.1418 34.1958 25.6402 34.7271C25.5405 34.6076 25.4407 34.4832 25.336 34.3786C25.3527 34.3861 25.3716 34.3871 25.389 34.3816C25.4065 34.3761 25.4213 34.3644 25.4307 34.3487L25.2612 34.055L25.1863 34.2442C25.103 34.1822 25.0075 34.1386 24.906 34.1163C24.8046 34.094 24.6995 34.0934 24.5978 34.1147V34.5379L24.3634 34.4583L24.538 34.2541C24.2786 34.2193 24.3484 34.4184 24.3684 34.5827C24.2897 34.5242 24.1917 34.4975 24.0941 34.508L24.2038 35.0358C24.0442 34.9362 24.0392 34.6873 23.8198 34.7669C23.8696 35.0159 24.2138 34.9462 24.144 35.215C23.8896 35.1802 23.7948 35.0308 23.8048 35.2798C23.7622 35.2599 23.7271 35.227 23.7046 35.1858C23.6822 35.1445 23.6736 35.0972 23.6801 35.0507C23.6801 35.2648 23.4407 35.3992 23.5654 35.6233C23.2661 35.5635 23.2512 36.0614 22.942 35.7527C23.0039 35.9318 23.0039 36.1264 22.942 36.3054C22.7325 35.7577 22.5579 36.6887 22.1839 36.2606C22.4033 36.7236 21.8647 36.9227 21.8298 37.3559C21.8298 37.3211 21.7849 37.2414 21.8298 37.2314C21.6702 37.3559 21.5255 37.3011 21.3759 37.336C21.6502 37.6148 21.5205 37.9036 21.5953 38.1824C21.1514 38.1127 21.341 37.7741 21.0218 37.5899C21.2662 37.7891 20.9819 38.0878 21.2362 38.2222C20.942 38.2222 21.0467 38.267 20.7375 38.1276C21.0866 38.4711 20.6876 38.3118 20.8173 38.6255C20.4632 38.6703 20.4233 38.3815 20.3485 38.7002C20.144 38.7002 20.1839 38.3965 20.1839 38.3965C19.9844 38.6205 20.3684 38.74 20.4881 38.9242C20.3385 39.2578 20.1739 38.8744 19.9494 38.8446C19.8796 39.0736 20.0342 39.4221 19.9195 39.5366C19.8647 39.5067 19.8248 39.5366 19.7899 39.442C19.8697 39.8104 19.3609 39.9847 19.4706 40.4378C19.4375 40.4339 19.4053 40.4237 19.3759 40.4079C19.531 40.4796 19.6727 40.5772 19.7948 40.6967C19.715 40.8012 19.8198 41.0302 19.6053 40.9157C19.6602 40.856 19.6053 40.7913 19.5554 40.7166V40.8859C19.2113 40.7664 19.5854 40.6668 19.3859 40.5075C19.3011 40.7863 19.331 41.2095 19.1215 41.3091C18.8322 41.1348 19.336 40.861 18.932 40.8908L19.2312 40.7216C18.6627 40.5772 19.3809 40.5921 18.7973 40.4079C18.4532 40.6767 18.6327 40.9058 18.2986 41.1547C18.3834 41.3439 18.538 41.3041 18.6228 41.4933C18.513 42.1704 17.6602 41.3389 17.745 41.9911C17.8547 42.2202 18.1639 42.489 17.7949 42.6234L17.5554 42.3048C17.2761 42.6085 17.8447 42.8027 17.3809 43.0068C17.3061 42.8574 17.4756 42.6732 17.3809 42.6981C16.9719 42.733 17.4357 42.9869 17.3061 43.1562L17.0118 42.9869C16.7924 43.3653 16.6926 43.893 16.4632 44.3212C16.3934 44.2366 16.3584 44.1071 16.2088 44.137C15.9131 44.7134 15.4623 45.1961 14.9071 45.531L15.0118 45.8845C14.9819 45.9244 14.8522 45.8845 14.8372 45.8099C14.6128 45.9294 14.9819 45.9244 15.0118 46.0787C14.952 46.1982 14.7724 46.1235 14.7525 46.004C14.7175 46.5019 14.538 47.2537 14.0393 47.428L14.0093 47.3135C13.725 47.5226 14.3036 47.9557 13.9046 48.0603V47.9806C13.4058 48.5084 13.1914 49.3199 12.523 49.5439C12.8223 49.8576 11.9794 50.0418 12.4582 50.3953C11.9944 50.5895 11.9594 50.4351 11.4906 50.8285C11.3859 50.943 11.6851 51.2118 11.6402 51.411L11.351 51.2815L11.4956 51.6699L11.1116 51.6002L11.0866 51.7944C11.1258 51.7684 11.1718 51.7546 11.2188 51.7546C11.2658 51.7546 11.3118 51.7684 11.351 51.7944C11.326 52.108 10.8173 52.2922 10.6777 52.1976L10.548 52.9793C10.4432 52.9146 10.4632 52.7801 10.4432 52.6457C10.533 53.1436 10.1141 52.571 10.2038 53.049C10.2836 53.049 10.3585 53.1536 10.4133 53.1834C10.2742 53.2806 10.1623 53.4117 10.0881 53.5641C10.0139 53.7166 9.9799 53.8855 9.98937 54.0547L9.79986 53.9352C9.62076 54.5832 9.57494 55.2606 9.66519 55.9267C9.6854 55.8773 9.71992 55.8349 9.76433 55.8051C9.80875 55.7753 9.86105 55.7594 9.91456 55.7594C9.96808 55.7594 10.0204 55.7753 10.0648 55.8051C10.1092 55.8349 10.1437 55.8773 10.1639 55.9267L9.84474 56.0263C10.0542 56.1358 9.95447 55.8172 10.2188 56.0263C10.1939 56.2653 9.85971 56.2354 9.72006 56.091C9.76223 56.1934 9.81052 56.2932 9.86468 56.3898C9.77491 56.4196 9.71007 56.3549 9.58538 56.3499C9.80982 56.4395 9.34598 56.9773 9.75496 57.0818L9.66519 57.1266C9.82912 57.6371 10.0714 58.1192 10.3834 58.5555C10.6278 58.4311 10.6926 58.6451 10.9669 58.6501C11.06 59.0873 11.2605 59.4945 11.5505 59.8351C11.8796 59.9745 11.7849 59.7355 12.0043 59.7156C11.8447 59.9147 12.2088 60.2135 11.9096 60.1836C12.2828 60.4923 12.7265 60.7043 13.2013 60.801C13.2013 60.6765 13.1465 60.5918 13.2263 60.5371C13.2566 60.5498 13.2839 60.5687 13.3064 60.5926C13.3289 60.6165 13.3461 60.6449 13.357 60.6759C13.3678 60.7069 13.372 60.7398 13.3692 60.7725C13.3665 60.8052 13.3568 60.8369 13.341 60.8657H13.3011C14.119 60.8956 14.7574 62.3294 15.5455 61.8614H15.5056C15.7394 61.8092 15.9694 61.741 16.1938 61.6573C16.4981 61.717 15.9993 61.8365 16.2188 62.0058C16.9919 61.6125 17.4707 62.0058 17.9594 61.6225C18.6377 62.2946 19.4557 61.03 20.2736 60.9752L20.134 60.8607C20.1589 60.6167 20.3584 60.8159 20.4831 60.7661C20.3784 60.6715 20.2387 60.7661 20.2587 60.6167L22.0342 58.7198C22.2687 58.4659 22.5629 58.1771 22.922 57.7539C23.1814 57.4253 22.2637 57.0719 22.922 56.8478L23.1215 57.1465C23.2312 56.2255 24.0492 55.7127 24.2238 54.8463C24.2587 54.931 24.3435 54.9857 24.2986 55.0505C24.5928 55.0505 24.6627 54.5227 24.5031 54.4132C24.5928 54.3186 24.6677 54.4879 24.7923 54.4779C25.0068 54.4132 24.7923 53.9452 25.0367 53.98C25.0766 53.98 25.0716 54.0647 25.0666 54.0995C25.0367 53.9402 25.3908 53.6813 25.1016 53.6016C25.3859 53.4224 25.341 53.049 25.6003 52.9395C25.4407 52.6308 26.0242 52.5959 25.7001 52.3022C26.0542 52.581 26.3135 52.0781 26.2587 51.8043C26.3285 51.9387 26.4731 51.7495 26.5779 51.9238C26.7026 51.7396 26.7574 51.5255 26.5479 51.4259C27.2262 51.4259 26.6976 50.5049 27.3858 50.7389C27.571 50.119 27.8201 49.52 28.129 48.9515C28.4681 49.2452 27.7549 49.4942 28.129 49.763C28.3285 49.2104 28.2337 48.7175 28.6676 48.3441C28.8073 48.2694 28.7674 48.5283 28.7973 48.6179C29.0118 48.0652 29.5205 47.8014 29.6552 47.2587C29.6826 47.307 29.6914 47.3636 29.6801 47.418C29.73 47.3334 29.8796 47.2886 29.715 47.1641V47.2736C29.3858 47.2039 29.4956 46.5766 29.3908 46.4571C29.725 46.955 29.8247 46.1733 30.2138 46.8604C30.2229 46.8073 30.2165 46.7528 30.1952 46.7033C30.174 46.6538 30.1388 46.6116 30.0941 46.5816C30.1838 46.5318 30.2686 46.5816 30.3235 46.7359C30.4681 46.3974 30.2187 46.3476 30.4382 46.1086C30.508 46.1783 30.498 46.248 30.5629 46.3525C30.523 46.1036 30.4881 45.8547 30.7275 45.7003C30.7624 45.7551 30.8422 45.78 30.7873 45.8397C31.0716 45.4713 30.932 44.9037 31.4158 44.6448C31.6352 45.0481 31.6402 44.61 31.9145 44.844L32.0192 44.5652L31.8098 44.5253C31.9793 44.3511 31.9245 44.0275 32.1589 43.9428V44.1768L32.4133 43.7984L32.1389 43.8881C32.1639 43.5794 31.7749 43.5893 32.0691 43.4201C32.0691 43.4947 32.2387 43.2458 32.4831 43.3055C32.4831 43.1363 32.4831 42.962 32.6676 42.8973C32.7873 42.9421 32.9419 43.206 33.0217 43.2408C32.8771 42.9421 33.3509 42.7728 33.2162 42.4343C33.2581 42.5329 33.3273 42.6175 33.4157 42.6782L33.301 42.4293C33.4357 42.4293 33.4806 42.4293 33.5803 42.5388C33.8596 42.2899 33.1564 42.2998 33.5803 42.1156C33.5803 42.1554 33.6153 42.1654 33.5803 42.2451C33.9644 41.9812 33.9544 41.558 34.2936 41.2145C34.6776 41.2941 34.1938 41.5779 34.528 41.6227C34.8123 41.0352 34.7075 40.2984 34.922 39.7756C34.9051 39.8101 34.8832 39.8419 34.8571 39.8702C34.3584 39.6611 35.2362 39.4918 34.9968 39.1682C35.0716 39.3325 35.321 39.3773 35.2611 39.3325ZM34.0741 35.9818C34.0099 36.0294 33.9415 36.0711 33.8696 36.1062C33.8397 36.0515 33.8098 35.9967 33.7749 35.9419C33.8254 35.9236 33.8801 35.9195 33.9328 35.93C33.9856 35.9406 34.0345 35.9654 34.0741 36.0017V35.9818ZM29.2312 33.1936H29.0118C29.0416 33.106 29.0931 33.0272 29.1614 32.9646C29.1913 33.0542 29.2063 33.1339 29.2312 33.2136V33.1936ZM27.5903 33.1936C27.6605 33.2562 27.7079 33.3403 27.725 33.4326C27.6403 33.4581 27.5571 33.488 27.4756 33.5222C27.5085 33.4174 27.5468 33.3144 27.5903 33.2136V33.1936ZM16.5879 44.2814L16.523 44.4108L16.5879 44.2814ZM16.3385 44.6847C16.4283 44.7245 16.4981 44.8042 16.4582 44.844C16.4233 44.7842 16.2986 44.844 16.1839 44.8788C16.2414 44.8191 16.2931 44.7541 16.3385 44.6847Z" fill="#35375B"/>
<path d="M11.2861 51.2515L11.3457 51.2861L11.3209 51.2119L11.2861 51.2515Z" fill="#35375B"/>
<path d="M32.2989 33.5774L32.1738 33.3779C32.207 33.4494 32.249 33.5164 32.2989 33.5774Z" fill="#35375B"/>
<path d="M31.3006 32.9043C31.2747 32.9354 31.2514 32.9685 31.231 33.0034C31.257 32.9724 31.2803 32.9392 31.3006 32.9043Z" fill="#35375B"/>
<path d="M29.7098 47.4971C29.7056 47.51 29.7056 47.5238 29.7098 47.5367C29.675 47.6457 29.6999 47.5813 29.7098 47.4971Z" fill="#35375B"/>
<path d="M32.5029 43.3848C32.5107 43.4544 32.5107 43.5246 32.5029 43.5942C32.563 43.5443 32.613 43.4945 32.5029 43.3848Z" fill="#35375B"/>
<path d="M32.3286 43.7583C32.3682 43.7488 32.4042 43.7282 32.4326 43.6991C32.4609 43.67 32.4804 43.6335 32.4887 43.5938C32.4237 43.6336 32.3486 43.6735 32.3286 43.7583Z" fill="#35375B"/>
<path d="M26.1338 33.2531C26.1371 33.266 26.1371 33.2795 26.1338 33.2925L26.1733 33.2334L26.1338 33.2531Z" fill="#35375B"/>
<path d="M26.1488 33.293C26.1488 33.293 26.1239 33.3325 26.114 33.3573C26.1041 33.382 26.1587 33.3276 26.1488 33.293Z" fill="#35375B"/>
<path d="M26.0492 33.4964L26.1139 33.3574C26.0791 33.3872 26.0244 33.412 26.0492 33.4964Z" fill="#35375B"/>
<path d="M28.1938 32.5316C28.079 32.5316 27.8495 32.3722 27.6948 32.4868V32.5665C27.7447 32.3871 28.1239 32.7209 28.1938 32.5316Z" fill="#35375B"/>
<path d="M34.1938 41.8914L34.4134 41.8466L34.2637 41.6572L34.1938 41.8914Z" fill="#35375B"/>
<path d="M82.0541 403.226C82.134 403.256 82.1539 403.351 82.1789 403.406C82.201 403.272 82.1892 403.135 82.1448 403.007C82.1003 402.88 82.0246 402.765 81.9244 402.674C81.9843 403.022 81.8745 402.938 81.9793 403.326C81.959 403.347 81.9337 403.364 81.9057 403.373C81.8777 403.382 81.8479 403.385 81.8188 403.38C81.7896 403.375 81.7622 403.363 81.7389 403.345C81.7155 403.327 81.697 403.303 81.6849 403.276C81.6849 403.366 81.4903 403.351 81.5751 403.55C81.8745 403.635 82.0042 403.51 82.0541 403.226Z" fill="#F0F0F5"/>
<path d="M83.3204 401.896C83.2801 401.927 83.2492 401.968 83.231 402.016L83.3304 401.951L83.3204 401.896Z" fill="#F0F0F5"/>
<path d="M78.6826 404.864L78.718 404.9C78.7231 404.869 78.713 404.854 78.6826 404.864Z" fill="#F0F0F5"/>
<path d="M83.4004 401.912C83.4353 401.896 83.472 401.884 83.5098 401.877C83.4706 401.877 83.4324 401.889 83.4004 401.912Z" fill="#F0F0F5"/>
<path d="M73.9644 408.708C74.0433 408.751 74.117 408.803 74.1839 408.862C74.0442 408.718 74.2488 408.489 73.9644 408.708Z" fill="#F0F0F5"/>
<path d="M83.4002 401.912L83.3306 401.952C83.3304 401.969 83.3339 401.987 83.3407 402.003C83.3475 402.019 83.3576 402.034 83.3704 402.046C83.3604 401.977 83.3704 401.937 83.4002 401.912Z" fill="#F0F0F5"/>
<path d="M79.0168 420.916L78.7124 421.056C78.8196 421.023 78.922 420.976 79.0168 420.916Z" fill="#F0F0F5"/>
<path d="M60.8323 415.678L60.8771 415.594C60.8624 415.602 60.8504 415.615 60.8425 415.629C60.8345 415.644 60.831 415.661 60.8323 415.678Z" fill="#F0F0F5"/>
<path d="M77.8797 421.598C77.8013 421.552 77.7115 421.527 77.6203 421.528C77.6155 421.555 77.6155 421.582 77.6203 421.608L77.8797 421.598Z" fill="#F0F0F5"/>
<path d="M91.1512 408.041C91.2316 407.734 91.257 407.416 91.226 407.1C91.0814 407.035 91.0814 406.886 90.9018 407.01C91.5402 406.015 90.1288 405.761 90.2884 404.83C90.3382 404.904 90.7871 405.103 90.014 404.436C89.8544 404.611 89.9542 404.581 89.8744 404.79C89.7963 404.797 89.7177 404.786 89.6443 404.758C89.5709 404.731 89.5047 404.687 89.4505 404.63C89.7298 404.74 89.7447 404.406 89.7696 404.227C89.7248 404.287 89.64 404.302 89.5901 404.357C89.7048 403.859 89.206 404.616 89.1412 404.133L89.246 404.068C89.0963 403.988 88.8819 404.013 88.7821 403.874C88.9118 403.635 88.9866 403.874 89.1462 403.744C88.9567 403.585 88.4729 403.809 88.4729 403.48C88.5976 403.48 88.7173 403.565 88.837 403.58C88.837 403.187 88.7771 403.231 88.6674 403.082C88.5878 402.963 88.5012 402.848 88.4081 402.738L88.453 402.868C87.7896 403.276 87.8195 402.609 87.2809 402.868C87.8145 402.649 87.4505 402.669 87.6051 402.41C87.5402 402.29 87.4205 402.136 87.5003 402.081C87.221 402.221 87.241 401.758 86.842 402.007C86.842 401.907 86.6375 401.927 86.7472 401.708C86.4629 401.708 86.7472 401.887 86.7073 402.002C86.2435 402.196 85.7697 401.359 85.1662 401.822C84.7672 401.942 84.6126 402.29 84.3033 402.524H84.1886C84.0938 402.39 84.2734 402.191 84.2734 402.191C84.166 402.143 84.0459 402.132 83.9316 402.159C83.8172 402.186 83.7148 402.25 83.64 402.34C83.64 402.246 83.5901 402.191 83.4904 402.111C83.3108 402.191 83.4904 402.475 83.2111 402.435C83.1944 402.288 83.2046 402.14 83.241 401.997C83.0614 402.176 82.9218 402.42 82.7422 402.609C82.6126 402.485 82.7422 402.31 82.7821 402.181C82.5627 402.36 82.2435 402.649 82.3233 402.913H82.5128C82.438 402.968 82.3482 402.739 82.3831 402.664C82.4729 402.37 82.7123 402.584 82.7622 402.664L82.6574 402.798C83.0664 403.211 83.1562 402.4 83.5003 402.355V402.704C82.7711 402.976 82.1106 403.404 81.5652 403.958C81.4654 403.834 81.3707 403.709 81.2659 403.6C81.2847 403.607 81.3056 403.608 81.3248 403.602C81.344 403.595 81.3603 403.582 81.3707 403.565L81.2111 403.266L81.1213 403.465C81.0384 403.4 80.9426 403.354 80.8402 403.329C80.7378 403.304 80.6313 403.301 80.5278 403.321L80.4879 403.749L80.2584 403.66L80.448 403.46C80.1886 403.416 80.2485 403.62 80.2535 403.789C80.178 403.727 80.0819 403.695 79.9841 403.699L80.059 404.242C79.9043 404.138 79.9143 403.884 79.6899 403.953C79.7198 404.207 80.0739 404.157 79.9841 404.421C79.7248 404.372 79.64 404.217 79.63 404.471C79.5886 404.448 79.5559 404.413 79.537 404.369C79.518 404.326 79.5139 404.278 79.5253 404.232C79.5253 404.446 79.246 404.566 79.3507 404.805C79.0565 404.72 78.9866 405.223 78.7073 404.879C78.7418 405.07 78.7102 405.267 78.6176 405.437C78.4779 404.864 78.1737 405.781 77.8594 405.303C78.019 405.8 77.4405 405.93 77.3308 406.358C77.3308 406.313 77.3058 406.229 77.3308 406.229C77.1462 406.328 77.0116 406.229 76.832 406.263C77.0614 406.587 76.8719 406.851 76.8819 407.145C76.453 407 76.7173 406.692 76.433 406.453C76.6375 406.697 76.2884 406.951 76.5178 407.12C76.2285 407.05 76.3183 407.12 76.044 406.936C76.3183 407.339 75.9592 407.105 76.0141 407.433C75.655 407.433 75.6849 407.115 75.5153 407.433C75.3108 407.399 75.4206 407.105 75.4206 407.105C75.1712 407.274 75.5203 407.478 75.5951 407.682C75.3657 407.986 75.3009 407.568 75.0964 407.488C74.9717 407.697 75.0315 408.076 74.8869 408.165C74.842 408.121 74.8021 408.126 74.7871 408.041C74.7622 408.419 74.2136 408.459 74.1936 408.922C74.1623 408.909 74.1335 408.891 74.1089 408.867C74.2361 408.98 74.3454 409.111 74.433 409.256C74.3233 409.34 74.3532 409.594 74.1737 409.425C74.2485 409.385 74.1737 409.301 74.1737 409.216L74.1138 409.385C73.8146 409.171 74.2086 409.171 74.064 408.962C73.8994 409.216 73.7797 409.634 73.5652 409.669C73.3408 409.41 73.9243 409.301 73.5153 409.206L73.8694 409.131C73.3707 408.833 74.054 409.047 73.5403 408.708C73.1263 408.862 73.231 409.116 72.8171 409.271C72.8171 409.48 72.9966 409.485 73.0166 409.699C72.6774 410.321 72.1488 409.236 72.0191 409.858C72.0191 410.112 72.2236 410.5 71.8246 410.481L71.7248 410.092C71.3458 410.281 71.7996 410.695 71.2859 410.695C71.2859 410.525 71.5104 410.421 71.4306 410.411C71.0266 410.296 71.3657 410.7 71.1762 410.809L70.9617 410.54C70.6076 410.814 70.2934 411.272 69.8844 411.536C69.8595 411.431 69.8844 411.302 69.7298 411.262C69.2027 411.668 68.5643 411.904 67.8994 411.939L67.8196 412.298C67.7697 412.298 67.6749 412.223 67.6999 412.148C67.4405 412.148 67.7697 412.318 67.6999 412.472C67.5852 412.547 67.4655 412.397 67.5054 412.283C67.241 412.686 66.6525 413.279 66.1238 413.154L66.1637 413.04C65.8046 413.064 66.049 413.752 65.665 413.617L65.6999 413.547C64.9667 413.717 64.2934 414.269 63.6101 414.045C63.65 414.449 62.7872 414.18 62.9667 414.722C62.6824 414.678 62.5627 414.643 62.4181 414.613C62.1905 414.582 61.9588 414.609 61.7448 414.693C61.5602 414.772 61.6949 415.151 61.5453 415.34L61.3657 415.091C61.3358 415.245 61.3159 415.39 61.3009 415.539C61.1762 415.474 61.0615 415.419 60.9368 415.365L60.8171 415.569C60.8637 415.547 60.9164 415.54 60.9669 415.551C61.0174 415.562 61.0629 415.589 61.0964 415.629C60.9958 415.761 60.8593 415.863 60.7029 415.921C60.5466 415.979 60.3768 415.992 60.2136 415.957C60.0835 416.221 59.9719 416.494 59.8794 416.774C59.8521 416.739 59.8337 416.698 59.8258 416.655C59.818 416.611 59.821 416.567 59.8346 416.525C59.7697 416.843 59.5303 416.331 59.5204 416.799C59.6101 416.799 59.655 416.928 59.7049 416.968C59.4306 417.028 59.1812 417.466 59.1114 417.814L58.9468 417.665C58.6558 418.317 58.5013 419.022 58.4929 419.736C58.5161 419.686 58.5545 419.644 58.6029 419.616C58.6512 419.589 58.7069 419.578 58.7621 419.584C58.8173 419.59 58.8692 419.613 58.9104 419.65C58.9516 419.687 58.9801 419.737 58.9917 419.791L58.6625 419.846C58.852 419.995 58.8022 419.646 59.0266 419.93C58.9668 420.174 58.6426 420.09 58.5278 419.93C58.5552 420.042 58.5902 420.152 58.6326 420.259C58.5328 420.259 58.4829 420.199 58.3583 420.179C58.5627 420.309 58.0291 420.782 58.4131 420.956L58.3233 420.986C58.4048 421.544 58.5731 422.087 58.8221 422.594C59.0814 422.509 59.1164 422.738 59.3957 422.798C59.4383 423.272 59.5995 423.727 59.8645 424.122C60.1937 424.316 60.1139 424.058 60.3633 424.073C60.1787 424.252 60.5278 424.61 60.2186 424.541C60.5775 424.914 61.0227 425.195 61.5154 425.357C61.5154 425.228 61.4705 425.133 61.5552 425.093C61.5866 425.108 61.6144 425.129 61.6368 425.155C61.6593 425.181 61.6758 425.211 61.6853 425.245C61.6947 425.278 61.6969 425.312 61.6917 425.346C61.6865 425.38 61.674 425.413 61.655 425.442H61.6101C62.4231 425.571 63.1064 427.085 63.9692 426.657H63.9243C64.1803 426.62 64.4324 426.56 64.6774 426.477C65.0066 426.547 64.463 426.652 64.7024 426.831C65.6999 426.437 66.064 426.831 66.6026 426.368C67.3109 426.925 67.9742 425.81 68.6774 426.059L68.5827 425.905C68.6575 425.691 68.7822 425.935 68.8969 425.905C68.8321 425.785 68.6924 425.815 68.7423 425.696C69.7946 425.048 71.1712 424.984 72.3782 424.595C72.8171 424.446 72.2285 423.654 72.9318 423.799V424.162C73.5951 423.405 74.6475 423.351 75.2859 422.624C75.2859 422.718 75.3208 422.808 75.241 422.848C75.5203 422.967 75.8744 422.524 75.7797 422.35C75.9143 422.305 75.8944 422.494 76.0191 422.539C76.2585 422.574 76.2934 422.041 76.5178 422.201C76.5527 422.201 76.5178 422.295 76.4879 422.325C76.5378 422.166 77.0116 422.066 76.7722 421.887C77.1313 421.832 77.2709 421.459 77.5901 421.469C77.5901 421.115 78.1637 421.299 77.9891 420.896C78.1986 421.294 78.6874 420.896 78.7622 420.607C78.7622 420.762 78.9966 420.632 79.0215 420.836C79.231 420.707 79.3707 420.513 79.2161 420.338C79.8844 420.553 79.7447 419.487 80.3333 419.935C80.7661 419.378 81.2396 418.854 81.7497 418.367C81.9841 418.75 81.1762 418.805 81.4654 419.183C81.8794 418.686 81.9642 418.158 82.5028 417.889C82.6724 417.849 82.5477 418.098 82.5477 418.193C82.9417 417.695 83.5452 417.525 83.8295 416.993C83.8295 417.028 83.8295 417.102 83.8295 417.162C83.9093 417.082 84.0739 417.062 83.9392 416.908L83.8894 417.013C83.5702 416.883 83.8545 416.261 83.7697 416.126C83.9841 416.704 84.2684 415.917 84.5128 416.679C84.5359 416.629 84.5436 416.574 84.5347 416.52C84.5258 416.465 84.5008 416.415 84.4629 416.375C84.5677 416.341 84.6425 416.375 84.6574 416.575C84.8918 416.241 84.6574 416.156 84.9218 415.942C84.9866 416.022 84.9517 416.097 84.9966 416.206C84.9966 415.947 85.0315 415.683 85.3158 415.564C85.3158 415.619 85.4155 415.658 85.3457 415.713C85.7298 415.375 85.6899 414.772 86.2285 414.553C86.3831 414.986 86.4679 414.553 86.7273 414.802L86.8819 414.523L86.6724 414.464C86.8769 414.294 86.8769 413.966 87.1213 413.881L87.0764 414.13L87.3956 413.747L87.0963 413.826C87.1662 413.508 86.7622 413.493 87.0963 413.328C87.0664 413.403 87.2909 413.159 87.5402 413.229C87.5402 413.059 87.5701 412.875 87.7746 412.816C87.8943 412.87 88.024 413.144 88.1038 413.184C87.9891 412.87 88.4929 412.686 88.3831 412.348C88.4169 412.451 88.4835 412.54 88.5727 412.601L88.4729 412.343C88.6175 412.343 88.6574 412.343 88.7522 412.462C89.0465 412.243 88.3432 412.203 88.7921 412.049C88.7921 412.089 88.822 412.104 88.7921 412.178C89.1811 411.954 89.2909 411.501 89.6649 411.257C90.034 411.412 89.4754 411.601 89.8046 411.705C90.2235 411.207 90.3033 410.401 90.6125 409.898L90.5327 409.983C90.0839 409.674 90.9766 409.699 90.822 409.281C90.822 409.365 91.0714 409.47 91.0215 409.43C91.2509 409.042 91.1312 408.514 90.9916 407.892L91.1512 408.041ZM90.3632 405.771C90.2942 405.81 90.2225 405.845 90.1487 405.875L90.0689 405.691C90.1204 405.674 90.1758 405.672 90.2281 405.686C90.2805 405.7 90.3275 405.73 90.3632 405.771ZM85.4604 402.445C85.3806 402.445 85.3058 402.445 85.226 402.445C85.2621 402.354 85.3224 402.275 85.4006 402.216C85.4255 402.285 85.4355 402.38 85.4604 402.46V402.445ZM83.7198 402.37C83.7889 402.432 83.8332 402.517 83.8445 402.609C83.7547 402.634 83.6649 402.659 83.5702 402.694C83.62 402.599 83.6699 402.495 83.7198 402.385V402.37ZM70.0989 411.541L69.9792 411.626L70.0989 411.541ZM69.6899 411.805C69.7547 411.88 69.7797 411.979 69.7248 412.004C69.7248 411.929 69.5702 411.949 69.4555 411.919C69.5408 411.892 69.6241 411.859 69.7049 411.82L69.6899 411.805Z" fill="#F0F0F5"/>
<path d="M61.3809 415.06L61.4207 415.115L61.4406 415.025L61.3809 415.06Z" fill="#F0F0F5"/>
<path d="M89.7598 404.227C89.7683 404.199 89.7683 404.17 89.7598 404.143C89.7519 404.17 89.7519 404.199 89.7598 404.227Z" fill="#F0F0F5"/>
<path d="M88.6574 403.082C88.6175 403.007 88.5776 402.932 88.5327 402.862C88.5671 402.939 88.6089 403.013 88.6574 403.082Z" fill="#F0F0F5"/>
<path d="M87.6596 402.285C87.6293 402.314 87.604 402.347 87.585 402.384L87.6596 402.285Z" fill="#F0F0F5"/>
<path d="M83.8392 417.222C83.8282 417.231 83.8197 417.243 83.8143 417.256C83.7645 417.36 83.8093 417.306 83.8392 417.222Z" fill="#F0F0F5"/>
<path d="M87.5503 413.303C87.5456 413.374 87.5322 413.444 87.5103 413.512C87.5953 413.467 87.6603 413.422 87.5503 413.303Z" fill="#F0F0F5"/>
<path d="M87.3208 413.676C87.3646 413.669 87.4056 413.65 87.4391 413.621C87.4725 413.592 87.497 413.554 87.5097 413.512C87.4401 413.551 87.3506 413.591 87.3208 413.676Z" fill="#F0F0F5"/>
<path d="M82.1738 402.395C82.1772 402.408 82.1772 402.421 82.1738 402.434L82.2185 402.37L82.1738 402.395Z" fill="#F0F0F5"/>
<path d="M82.2033 402.435L82.1636 402.499C82.1636 402.499 82.2132 402.469 82.2033 402.435Z" fill="#F0F0F5"/>
<path d="M82.0789 402.639C82.1024 402.589 82.1309 402.543 82.164 402.499C82.1139 402.519 82.0589 402.549 82.0789 402.639Z" fill="#F0F0F5"/>
<path d="M84.4033 401.718C84.2785 401.718 84.054 401.558 83.9043 401.658V401.738C83.9442 401.573 84.3134 401.902 84.4033 401.718Z" fill="#F0F0F5"/>
<path d="M89.4155 411.904H89.655L89.5403 411.68L89.4155 411.904Z" fill="#F0F0F5"/>
<path d="M260.976 75.6125C260.413 72.733 259.62 69.9028 258.607 67.1486C249.076 56.9769 241.086 50.4846 230.178 44.0172C224.979 40.9026 220.066 37.3355 215.495 33.3576C208.223 27.2636 205.216 24.7443 193.63 29.1356C184.523 32.5909 175.036 35.389 165.864 38.0974C154.089 41.5826 141.924 45.1623 130.478 50.1709L130.249 50.2705L130.004 50.2108C127.441 49.5934 124.682 49.0657 121.755 48.508C117.795 47.7562 113.695 46.9746 110.129 45.939L110.548 44.5051C114.039 45.5009 118.109 46.2975 122.019 47.0443C124.742 47.5422 127.555 48.0948 130.089 48.7022C141.535 43.7234 153.675 40.1288 165.421 36.6635C174.568 33.965 184.024 31.1869 193.081 27.7416C205.485 23.0366 209.146 26.1035 216.438 32.2225C220.94 36.1365 225.78 39.6453 230.902 42.7078C242.019 49.2897 250.119 55.8716 259.799 66.2175L259.899 66.3221L259.954 66.4615C261.027 69.3408 261.861 72.3031 262.448 75.3187L260.976 75.6125Z" fill="#35375B"/>
<path d="M244.403 130.478C243.8 130.455 243.209 130.31 242.664 130.054C242.119 129.797 241.632 129.434 241.23 128.985C236.577 124.34 238.437 119.147 240.408 113.645L240.767 112.649L242.178 113.147L241.819 114.143C239.854 119.62 238.328 123.941 242.288 127.914C243.051 128.676 243.784 129.025 244.512 128.985C245.575 128.93 246.772 128.069 248.163 126.356C252.434 121.097 256.387 115.589 260.003 109.861L261.27 110.658C257.614 116.436 253.617 121.992 249.3 127.297C247.604 129.388 246.098 130.399 244.567 130.478H244.403Z" fill="#35375B"/>
<path d="M172.448 111.449C150.204 111.449 138.034 104.295 128.603 98.7635C125.231 96.772 122.318 95.0743 119.485 94.0437C118.308 93.6205 117.042 93.272 115.815 92.9384C112.692 92.082 109.46 91.2008 107.086 88.8657L108.139 87.8003C110.234 89.8615 113.126 90.6581 116.209 91.4945C117.465 91.8381 118.762 92.1916 119.994 92.6397C122.987 93.72 125.924 95.4626 129.361 97.479C141.076 104.355 157.116 113.775 192.059 108.318C208.163 105.804 214.657 106.784 225.415 108.417L227.086 108.671C250.527 112.201 262.542 107.347 264.677 104.444C265.675 103.11 265.675 101.537 264.717 99.7792C261.4 93.6006 245.52 85.6345 227.231 86.6303H227.131H227.036C218.712 84.9076 212.862 81.293 206.089 77.1059C200.817 73.8398 194.837 70.1356 186.637 66.76L187.211 65.3809C195.515 68.8112 201.55 72.5403 206.872 75.8363C213.5 79.9338 219.226 83.4737 227.246 85.1466C245.161 84.2106 262.064 91.7335 266.054 99.0872C267.29 101.362 267.236 103.528 265.904 105.341C263.166 109.065 250.153 113.665 226.882 110.165L225.211 109.911C214.592 108.298 208.188 107.327 192.293 109.806C185.73 110.863 179.095 111.412 172.448 111.449Z" fill="#35375B"/>
<path d="M247.595 107.671L246.124 107.402C246.413 105.814 246.622 104.47 246.842 103.35C247.47 99.7549 247.635 98.8686 248.004 98.4653C249.081 97.2107 255.355 96.5336 260.762 98.9284L260.153 100.293C255.111 98.0621 249.904 98.8487 249.156 99.4262C248.797 100.803 248.517 102.199 248.318 103.608C248.124 104.729 247.889 106.078 247.595 107.671Z" fill="#35375B"/>
<path d="M226.108 73.0092C221.42 71.7246 218.044 69.8775 215.066 68.2445C211.854 66.487 209.315 65.0929 206.243 65.0083L206.283 63.5146C209.719 63.6092 212.532 65.1527 215.789 66.9351C218.692 68.5283 221.984 70.3306 226.502 71.5703L226.108 73.0092Z" fill="#35375B"/>
<path d="M195.61 70.699L195.141 69.28C198.899 67.9496 202.448 66.0903 205.68 63.7586C206.269 62.5739 206.626 61.288 206.732 59.9697L208.228 60.0693C208.112 61.6621 207.665 63.2134 206.917 64.6249L206.842 64.7593L206.722 64.8489C203.327 67.3346 199.582 69.3059 195.61 70.699Z" fill="#35375B"/>
<path d="M236.383 83.5782C233.418 81.457 230.695 79.0178 228.263 76.3042C225.221 72.8589 225.48 72.2615 225.59 72.0026L226.113 71.7287L226.064 71.5844C227.529 71.0567 228.882 70.2596 230.054 69.2344L231.096 70.3098C229.981 71.3154 228.7 72.1206 227.31 72.6896C228.308 74.2281 231.684 78.3455 237.251 82.3634L236.383 83.5782Z" fill="#35375B"/>
<path d="M230.029 132.336C229.062 132.343 228.115 132.057 227.316 131.514C225.41 130.23 224.488 127.695 224.433 125.883C224.248 119.874 229.814 116.165 233.5 113.705L234.328 114.95C229.999 117.837 225.779 121.059 225.924 125.838C225.974 127.332 226.752 129.323 228.158 130.279C229.111 130.927 230.268 131.016 231.6 130.553L238.712 126.047L239.515 127.312L232.183 131.937C231.494 132.195 230.765 132.33 230.029 132.336Z" fill="#35375B"/>
<path d="M222.822 121.751C222.533 119.833 222.727 117.874 223.385 116.049C224.043 114.224 225.145 112.591 226.592 111.296L227.59 112.416C226.334 113.544 225.378 114.966 224.807 116.553C224.236 118.14 224.068 119.844 224.318 121.512L222.822 121.751Z" fill="#35375B"/>
<path d="M263.914 94.3278L262.418 94.2581C262.606 89.7149 262.401 85.164 261.804 80.6561L263.3 80.4619C263.902 85.0578 264.108 89.6968 263.914 94.3278Z" fill="#35375B"/>
</svg>
