<svg width="224" height="311" viewBox="0 0 224 311" fill="none" xmlns="http://www.w3.org/2000/svg">
<g filter="url(#filter0_f_298_20671)">
<path fill-rule="evenodd" clip-rule="evenodd" d="M204.849 115.452C229.506 111.379 255.94 90.4962 277.204 105.14C298.309 119.675 298.045 154.391 301.477 181.996C304.374 205.296 303.57 228.906 295.274 250.496C287.524 270.665 271.955 284.15 256.871 298.08C240.746 312.971 225.695 334.09 204.849 334C184.016 333.909 170.314 310.886 153.119 297.63C135.241 283.848 109.873 277.806 102.293 254.938C94.6746 231.952 107.826 207.611 115.701 184.735C123.107 163.22 129.566 139.848 146.423 126.747C163.098 113.787 184.808 118.763 204.849 115.452Z" fill="#FD4C00" fill-opacity="0.96"/>
</g>
<defs>
<filter id="filter0_f_298_20671" x="0" y="0" width="403" height="434" filterUnits="userSpaceOnUse" color-interpolation-filters="sRGB">
<feFlood flood-opacity="0" result="BackgroundImageFix"/>
<feBlend mode="normal" in="SourceGraphic" in2="BackgroundImageFix" result="shape"/>
<feGaussianBlur stdDeviation="50" result="effect1_foregroundBlur_298_20671"/>
</filter>
</defs>
</svg>
