<svg width="46" height="50" viewBox="0 0 46 50" fill="none" xmlns="http://www.w3.org/2000/svg">
<path fill-rule="evenodd" clip-rule="evenodd" d="M15.5739 5.74266C17.7059 -1.72802 28.2933 -1.72802 30.4253 5.74266C31.1062 8.12841 33.5573 9.54353 35.9638 8.9403C43.4996 7.05136 48.7933 16.2203 43.3896 21.8021C41.6639 23.5846 41.6639 26.4148 43.3896 28.1973C48.7933 33.7791 43.4996 42.948 35.9638 41.0591C33.5573 40.4559 31.1062 41.871 30.4253 44.2567C28.2933 51.7274 17.7059 51.7274 15.5739 44.2567C14.893 41.871 12.4419 40.4559 10.0354 41.0591C2.49958 42.948 -2.79413 33.7791 2.60965 28.1973C4.33534 26.4148 4.33534 23.5846 2.60965 21.8021C-2.79413 16.2203 2.49958 7.05136 10.0354 8.9403C12.4419 9.54353 14.893 8.12841 15.5739 5.74266ZM29.6396 18.3597C30.2498 18.9699 30.2498 19.9592 29.6396 20.5694L17.8545 32.3545C17.2443 32.9647 16.255 32.9647 15.6448 32.3545C15.0346 31.7444 15.0346 30.755 15.6448 30.1448L27.4299 18.3597C28.0401 17.7495 29.0294 17.7495 29.6396 18.3597ZM16.7497 20.8331C15.5991 20.8331 14.6663 19.9004 14.6663 18.7498C14.6663 17.5992 15.5991 16.6664 16.7497 16.6664C17.9003 16.6664 18.833 17.5992 18.833 18.7498C18.833 19.9004 17.9003 20.8331 16.7497 20.8331ZM29.2497 33.3331C28.0991 33.3331 27.1663 32.4004 27.1663 31.2498C27.1663 30.0992 28.0991 29.1664 29.2497 29.1664C30.4003 29.1664 31.333 30.0992 31.333 31.2498C31.333 32.4004 30.4003 33.3331 29.2497 33.3331Z" fill="#FD4C00"/>
</svg>
