<svg width="22" height="18" viewBox="0 0 22 18" fill="none" xmlns="http://www.w3.org/2000/svg">
<path fill-rule="evenodd" clip-rule="evenodd" d="M10.999 5.25C8.92796 5.25 7.24903 6.92893 7.24903 9C7.24903 11.0711 8.92796 12.75 10.999 12.75C13.0701 12.75 14.749 11.0711 14.749 9C14.749 6.92893 13.0701 5.25 10.999 5.25ZM8.74903 9C8.74903 7.75736 9.75639 6.75 10.999 6.75C12.2417 6.75 13.249 7.75736 13.249 9C13.249 10.2426 12.2417 11.25 10.999 11.25C9.75639 11.25 8.74903 10.2426 8.74903 9Z" fill="#FD4C00"/>
<path fill-rule="evenodd" clip-rule="evenodd" d="M10.999 0.25C8.85807 0.25 6.92227 1.30899 5.35076 2.59572C3.77066 3.88946 2.47864 5.47865 1.61044 6.68801L1.53884 6.78759C1.01618 7.51384 0.585938 8.11166 0.585938 9C0.585938 9.88834 1.01617 10.4862 1.53884 11.2124L1.61044 11.312C2.47864 12.5214 3.77066 14.1105 5.35076 15.4043C6.92227 16.691 8.85807 17.75 10.999 17.75C13.14 17.75 15.0758 16.691 16.6473 15.4043C18.2274 14.1105 19.5194 12.5214 20.3876 11.312L20.4592 11.2124C20.9819 10.4862 21.4121 9.88835 21.4121 9C21.4121 8.11166 20.9819 7.51384 20.4592 6.78759L20.3876 6.68801C19.5194 5.47865 18.2274 3.88946 16.6473 2.59572C15.0758 1.30899 13.14 0.25 10.999 0.25ZM2.82895 7.56278C3.65822 6.40765 4.86251 4.93414 6.30103 3.75631C7.74813 2.57146 9.35326 1.75 10.999 1.75C12.6448 1.75 14.2499 2.57146 15.697 3.75631C17.1355 4.93414 18.3398 6.40765 19.1691 7.56278C19.7931 8.43194 19.9121 8.64148 19.9121 9C19.9121 9.35852 19.7931 9.56806 19.1691 10.4372C18.3398 11.5923 17.1356 13.0659 15.697 14.2437C14.2499 15.4285 12.6448 16.25 10.999 16.25C9.35326 16.25 7.74813 15.4285 6.30103 14.2437C4.86251 13.0659 3.65822 11.5923 2.82895 10.4372C2.20499 9.56806 2.08594 9.35852 2.08594 9C2.08594 8.64148 2.20499 8.43194 2.82895 7.56278Z" fill="#FD4C00"/>
</svg>
