<svg width="319" height="190" viewBox="0 0 319 190" fill="none" xmlns="http://www.w3.org/2000/svg">
<g clip-path="url(#clip0_298_10410)">
<path d="M460.182 53.6781C419.337 0.838372 338.446 -34.0092 268.967 5.39324C237.626 23.1905 225.25 54.8067 213.291 85.3917L213.233 85.5395C203.466 110.484 194.247 134.026 175.53 150.662C158.855 165.488 136.928 172.673 107.65 172.673C99.0736 172.627 90.5072 172.085 81.9941 171.049C57.3173 168.232 25.9185 151.019 13.6249 123.674C2.70186 99.3648 8.04511 70.8096 29.0755 41.0771C40.3086 25.1472 54.1766 15.8508 70.2716 13.4475C99.737 9.04688 126.837 29.6372 127.114 29.8483C127.198 29.9152 127.252 30.0126 127.264 30.119C127.277 30.2255 127.246 30.3325 127.179 30.4166C127.147 30.4595 127.107 30.4956 127.06 30.5227C127.014 30.5497 126.963 30.5671 126.909 30.574C126.856 30.5808 126.802 30.5768 126.75 30.5624C126.698 30.5479 126.65 30.5232 126.608 30.4897C126.347 30.2867 99.5004 9.8994 70.3858 14.2513C54.5518 16.6221 40.8715 25.8049 29.7036 41.548C8.88535 71.0288 3.5992 99.3161 14.3673 123.333C26.5385 150.41 57.6436 167.452 82.0757 170.294C124.406 175.206 153.928 168.784 174.975 150.077C193.574 133.547 202.776 110.025 212.5 85.1238L212.51 85.0981C224.523 54.3911 236.941 22.6497 268.535 4.74371C310.432 -19.0699 351.229 -13.5407 378.035 -4.71516C409.915 5.76673 440.849 27.4206 460.778 53.2072L460.182 53.6781Z" fill="#35375B"/>
<path d="M231.24 23.6523L159.5 76.5521C159.5 76.5521 187.7 118.46 196.759 118.46C205.67 118.46 268.563 75.2309 270.448 61.385C271.161 56.7134 231.24 23.6523 231.24 23.6523Z" fill="#35375B"/>
<path d="M195.94 109.931C188.243 108.071 159.5 67.1777 159.5 67.1777L230.282 14.0454C230.282 14.0454 264.88 46.0072 269.457 53.1521C272.598 58.014 203.147 111.717 195.94 109.931Z" fill="#FFA27A"/>
<path d="M219.998 56.9573L210.428 46.6628L224.554 35.0576L234.125 45.3522L219.998 56.9573Z" fill="white"/>
<path d="M220.001 57.4848C219.927 57.4853 219.854 57.4705 219.786 57.4414C219.718 57.4123 219.657 57.3695 219.607 57.3157L210.026 47.0211C209.977 46.9686 209.94 46.9069 209.916 46.8396C209.893 46.7724 209.883 46.7012 209.887 46.6301C209.891 46.5585 209.91 46.4885 209.943 46.4247C209.976 46.361 210.023 46.3049 210.079 46.2602L224.206 34.6338C224.258 34.5815 224.321 34.5407 224.391 34.5141C224.46 34.4874 224.534 34.4755 224.609 34.4792C224.683 34.4828 224.756 34.5018 224.822 34.5351C224.889 34.5684 224.947 34.6151 224.994 34.6723C225.042 34.7295 225.076 34.7959 225.096 34.8672C225.116 34.9384 225.12 35.013 225.109 35.0861C225.098 35.1591 225.071 35.2291 225.031 35.2914C224.991 35.3537 224.938 35.4069 224.876 35.4477L211.186 46.6935L220.384 56.5759C220.482 56.6764 220.537 56.811 220.537 56.9511C220.537 57.0911 220.482 57.2257 220.384 57.3263C220.334 57.3769 220.274 57.417 220.208 57.4442C220.143 57.4714 220.072 57.4852 220.001 57.4848Z" fill="#35375B"/>
<path d="M221.488 48.4695C221.403 48.4683 221.32 48.4476 221.244 48.4091C221.168 48.3706 221.103 48.3153 221.052 48.2476C221.002 48.1644 220.976 48.0694 220.976 47.9728C220.976 47.8761 221.002 47.7811 221.052 47.6979L228.365 33.7041C228.439 33.5974 228.549 33.5211 228.676 33.4898C228.802 33.4585 228.936 33.4743 229.051 33.5342C229.167 33.5942 229.256 33.694 229.302 33.8149C229.348 33.9358 229.348 34.0694 229.302 34.1903L222.478 47.2646L242.865 44.2735C242.934 44.2631 243.006 44.2664 243.074 44.2834C243.143 44.3003 243.208 44.3305 243.264 44.3722C243.321 44.4139 243.369 44.4663 243.406 44.5265C243.442 44.5866 243.466 44.6533 243.477 44.7227C243.487 44.7921 243.484 44.8628 243.467 44.9309C243.45 44.999 243.419 45.0631 243.377 45.1196C243.335 45.176 243.282 45.2237 243.222 45.2598C243.161 45.296 243.094 45.32 243.024 45.3304L221.605 48.5012L221.488 48.4695Z" fill="#35375B"/>
<path d="M187.945 83.285L178.375 72.9904L192.501 61.3853L202.071 71.6798L187.945 83.285Z" fill="white"/>
<path d="M187.942 83.8135C187.869 83.814 187.795 83.7992 187.728 83.7701C187.66 83.741 187.599 83.6982 187.549 83.6444L177.968 73.3498C177.919 73.2973 177.882 73.2355 177.858 73.1683C177.834 73.1011 177.825 73.0298 177.829 72.9587C177.833 72.8871 177.852 72.8172 177.885 72.7534C177.918 72.6896 177.964 72.6336 178.021 72.5888L187.953 64.4293C188.007 64.3845 188.068 64.3509 188.135 64.3303C188.202 64.3098 188.272 64.3028 188.341 64.3097C188.411 64.3166 188.478 64.3373 188.54 64.3705C188.601 64.4038 188.655 64.4489 188.698 64.5032C188.744 64.5556 188.779 64.6164 188.8 64.6823C188.822 64.7481 188.83 64.8176 188.824 64.8866C188.818 64.9555 188.798 65.0226 188.765 65.0839C188.733 65.1451 188.688 65.1993 188.634 65.2431L179.128 73.0433L188.326 82.9257C188.396 83.0013 188.443 83.0958 188.46 83.1975C188.478 83.2992 188.464 83.4037 188.423 83.4981C188.381 83.5925 188.312 83.6727 188.225 83.7287C188.138 83.7847 188.036 83.8142 187.932 83.8135H187.942Z" fill="#35375B"/>
<path d="M187.573 74.7022C187.482 74.7015 187.393 74.6776 187.314 74.6329C187.235 74.5881 187.169 74.524 187.122 74.4466C187.075 74.3692 187.049 74.2811 187.046 74.1908C187.043 74.1005 187.063 74.0109 187.105 73.9307L194.408 59.9368C194.476 59.8135 194.589 59.7212 194.724 59.6798C194.86 59.6383 195.006 59.6509 195.132 59.7149C195.255 59.7801 195.348 59.8909 195.39 60.0234C195.432 60.156 195.419 60.2995 195.355 60.423L188.532 73.4973L208.918 70.5167C208.988 70.5063 209.059 70.5097 209.128 70.5266C209.196 70.5436 209.261 70.5738 209.317 70.6155C209.374 70.6572 209.422 70.7096 209.459 70.7698C209.495 70.8299 209.519 70.8966 209.53 70.966C209.54 71.0354 209.537 71.1061 209.52 71.1742C209.503 71.2423 209.472 71.3064 209.43 71.3629C209.388 71.4193 209.336 71.467 209.275 71.5031C209.214 71.5393 209.147 71.5633 209.077 71.5737L187.659 74.7445L187.573 74.7022Z" fill="#35375B"/>
<path d="M57.5466 89.3541C58.9092 86.2573 55.6091 83.2344 47.3375 87.2402C43.9629 88.9208 40.2583 91.6688 41.376 94.5542C42.2596 96.7844 46.1452 96.1819 47.8379 95.7169L51.3935 104.955L57.2485 102.513L53.5971 93.0005C55.1768 92.1005 56.5279 90.8531 57.5466 89.3541Z" fill="#35375B"/>
<path d="M66.9903 120.978L60.603 118.737L73.005 93.2547C73.4307 92.4213 74.1406 91.7651 75.0082 91.4031C75.8759 91.0411 76.8448 90.9968 77.7423 91.2782C78.1778 91.4597 78.5723 91.726 78.9024 92.0614C79.2325 92.3968 79.4916 92.7945 79.6643 93.231C79.8369 93.6675 79.9197 94.1339 79.9078 94.6027C79.8958 95.0715 79.7893 95.5332 79.5946 95.9605L66.9903 120.978Z" fill="#35375B"/>
<path d="M56.651 118.229L54.8519 124.962L30.1437 113.336C29.301 112.883 28.6343 112.165 28.2488 111.294C27.8632 110.423 27.7808 109.449 28.0146 108.527C28.0936 108.11 28.2693 107.717 28.5279 107.38C28.7864 107.043 29.1207 106.77 29.5041 106.583C29.8875 106.396 30.3095 106.301 30.7365 106.304C31.1635 106.308 31.5838 106.41 31.9641 106.603L56.651 118.229Z" fill="#35375B"/>
<path d="M77.7816 165.654C61.494 172.387 43.0347 160.94 36.5303 144.029C30.0258 127.118 37.4884 106.656 53.7441 99.8917C69.9998 93.1273 88.9807 102.545 95.4851 119.456C101.99 136.367 94.0373 158.837 77.7816 165.654Z" fill="white"/>
<path d="M54.4155 100.907C70.0431 94.3859 87.4911 104.078 93.8039 120.376C100.117 136.674 91.3022 156.439 76.6859 162.484C61.0477 168.995 44.1213 159.631 37.8617 143.364C31.6022 127.098 38.7772 107.428 54.4155 100.875V100.907ZM31.9535 146.63C40.0228 166.85 59.0569 174.977 78.9853 166.712C98.1473 158.732 105.014 135.385 98.2431 117.797C91.4725 100.21 70.6393 90.4012 53.7342 97.4404C44.3625 101.204 36.8413 108.451 32.7729 117.64C28.7045 126.828 28.4105 137.23 31.9535 146.63Z" fill="#FFA27A"/>
<path d="M66.9152 160.37C64.0505 160.368 61.2119 159.83 58.5478 158.785C55.172 157.469 52.1059 155.475 49.5414 152.929C46.977 150.383 44.9694 147.339 43.6441 143.987C43.605 143.86 43.616 143.722 43.6748 143.602C43.7336 143.482 43.8359 143.389 43.9612 143.341C44.0865 143.293 44.2255 143.293 44.3503 143.343C44.4751 143.392 44.5765 143.486 44.6341 143.607C45.8983 146.818 47.8156 149.736 50.2663 152.178C52.717 154.62 55.6485 156.535 58.8778 157.802C61.6847 158.916 64.6975 159.427 67.7178 159.301C70.7381 159.176 73.6973 158.416 76.4004 157.072C87.0459 151.788 92.3686 136.06 87.7591 123.99C86.6034 120.944 84.8445 118.159 82.5864 115.799C80.3283 113.439 77.6167 111.552 74.6119 110.25C72.1939 109.175 69.5818 108.596 66.9328 108.549C64.2838 108.502 61.6526 108.987 59.1972 109.975C59.133 110.003 59.064 110.017 58.9941 110.018C58.9242 110.018 58.8549 110.005 58.7904 109.978C58.7258 109.951 58.6673 109.912 58.6183 109.863C58.5694 109.813 58.5309 109.754 58.5052 109.69C58.4516 109.562 58.4506 109.419 58.5023 109.29C58.5541 109.162 58.6545 109.058 58.782 109.003C61.3701 107.957 64.1445 107.443 66.9382 107.49C69.7319 107.537 72.487 108.145 75.0377 109.278C78.1684 110.635 80.9947 112.599 83.351 115.054C85.7073 117.51 87.5462 120.408 88.7598 123.578C93.5822 136.113 87.9188 152.517 76.8688 157.981C73.7818 159.531 70.3745 160.349 66.9152 160.37Z" fill="#35375B"/>
<path d="M75.9104 127.129L76.8898 128.186L68.3095 131.251C68.144 131.178 67.9679 131.132 67.7879 131.114L62.0073 117.638L63.1464 117.5L59.7505 113.664L59.9102 118.853L60.8896 118.124L66.0526 132.054C65.9202 132.297 65.8413 132.565 65.8211 132.84C65.8009 133.115 65.8399 133.391 65.9355 133.65C66.0135 133.875 66.1368 134.082 66.2979 134.259C66.459 134.435 66.6545 134.577 66.8726 134.676C67.0907 134.775 67.3268 134.828 67.5665 134.834C67.8062 134.839 68.0445 134.796 68.2669 134.707C68.5635 134.569 68.8181 134.355 69.005 134.088C69.1919 133.821 69.3045 133.509 69.3315 133.185L77.4646 129.581L77.7308 130.966L80.9244 127.161L75.9104 127.129Z" fill="#35375B"/>
<path d="M284.702 127.311C284.637 127.313 284.574 127.298 284.517 127.267C284.465 127.244 284.417 127.21 284.378 127.168C284.339 127.126 284.309 127.077 284.289 127.023C284.269 126.97 284.261 126.913 284.264 126.856C284.267 126.798 284.281 126.743 284.306 126.691L300.859 91.7795C300.883 91.7273 300.918 91.6804 300.96 91.6415C301.003 91.6025 301.052 91.5722 301.107 91.5523C301.161 91.5325 301.219 91.5235 301.277 91.5257C301.334 91.528 301.391 91.5416 301.444 91.5656C301.496 91.5897 301.543 91.6238 301.583 91.666C301.622 91.7082 301.652 91.7577 301.672 91.8116C301.692 91.8655 301.702 91.9227 301.699 91.9801C301.697 92.0375 301.683 92.0939 301.659 92.146L285.097 127.058C285.064 127.134 285.009 127.199 284.938 127.244C284.868 127.289 284.785 127.312 284.702 127.311Z" fill="#35375B"/>
<path d="M243.104 110.658C243.041 110.658 242.979 110.644 242.921 110.619C242.864 110.593 242.812 110.556 242.77 110.51C242.694 110.421 242.656 110.307 242.665 110.191C242.673 110.075 242.726 109.967 242.814 109.89L298.802 61.293C298.886 61.2125 298.998 61.1675 299.114 61.1675C299.231 61.1675 299.343 61.2125 299.426 61.293C299.507 61.3761 299.553 61.4872 299.553 61.6029C299.553 61.7185 299.507 61.8297 299.426 61.9127L243.438 110.518C243.349 110.607 243.229 110.657 243.104 110.658Z" fill="#35375B"/>
</g>
<defs>
<clipPath id="clip0_298_10410">
<rect y="-6" width="319" height="196" rx="10" fill="white"/>
</clipPath>
</defs>
</svg>
