<svg width="286" height="154" viewBox="0 0 286 154" fill="none" xmlns="http://www.w3.org/2000/svg">
<path d="M199.491 53.5234L135.172 101.025C135.172 101.025 160.455 138.657 168.577 138.657C176.565 138.657 232.953 99.8389 234.642 87.4059C235.282 83.2109 199.491 53.5234 199.491 53.5234Z" fill="#35375B"/>
<path d="M167.842 130.998C160.941 129.328 135.172 92.6076 135.172 92.6076L198.632 44.897C198.632 44.897 229.65 73.5974 233.754 80.0132C236.57 84.379 174.303 132.602 167.842 130.998Z" fill="#FFA27A"/>
<path d="M189.412 83.4302L180.832 74.1861L193.497 63.7651L202.078 73.0092L189.412 83.4302Z" fill="white"/>
<path d="M189.414 83.9039C189.348 83.9043 189.282 83.891 189.221 83.8649C189.16 83.8387 189.106 83.8003 189.061 83.752L180.471 74.5079C180.427 74.4607 180.394 74.4053 180.373 74.3449C180.351 74.2846 180.343 74.2206 180.347 74.1567C180.35 74.0924 180.367 74.0296 180.397 73.9723C180.426 73.9151 180.468 73.8647 180.519 73.8245L193.184 63.3846C193.231 63.3376 193.287 63.301 193.35 63.277C193.412 63.2531 193.478 63.2424 193.545 63.2457C193.612 63.2489 193.677 63.2661 193.737 63.2959C193.796 63.3258 193.849 63.3678 193.891 63.4192C193.933 63.4705 193.964 63.5301 193.982 63.5941C194 63.6581 194.004 63.7251 193.994 63.7907C193.984 63.8563 193.96 63.9191 193.924 63.975C193.888 64.031 193.841 64.0788 193.785 64.1154L181.511 74.2137L189.757 83.0876C189.845 83.1779 189.895 83.2988 189.895 83.4246C189.895 83.5503 189.845 83.6712 189.757 83.7615C189.713 83.8069 189.659 83.8429 189.6 83.8674C189.541 83.8918 189.478 83.9042 189.414 83.9039Z" fill="#35375B"/>
<path d="M190.748 75.8085C190.672 75.8074 190.597 75.7889 190.529 75.7543C190.461 75.7197 190.403 75.6701 190.357 75.6092C190.313 75.5345 190.289 75.4493 190.289 75.3624C190.289 75.2756 190.313 75.1904 190.357 75.1157L196.914 62.5498C196.98 62.4539 197.079 62.3855 197.192 62.3574C197.306 62.3293 197.425 62.3435 197.529 62.3973C197.632 62.4511 197.712 62.5407 197.754 62.6493C197.795 62.7579 197.795 62.8778 197.754 62.9863L191.636 74.7266L209.913 72.0406C209.976 72.0313 210.04 72.0343 210.101 72.0495C210.163 72.0647 210.221 72.0918 210.272 72.1293C210.323 72.1667 210.366 72.2138 210.398 72.2678C210.431 72.3218 210.453 72.3817 210.462 72.444C210.471 72.5063 210.468 72.5699 210.453 72.631C210.438 72.6922 210.411 72.7497 210.373 72.8004C210.335 72.8511 210.288 72.8939 210.234 72.9263C210.179 72.9588 210.119 72.9804 210.056 72.9897L190.853 75.837L190.748 75.8085Z" fill="#35375B"/>
<path d="M160.674 107.071L152.094 97.8272L164.759 87.4062L173.339 96.6503L160.674 107.071Z" fill="white"/>
<path d="M160.672 107.546C160.605 107.546 160.54 107.533 160.479 107.507C160.418 107.481 160.363 107.442 160.318 107.394L151.729 98.1498C151.685 98.1026 151.652 98.0471 151.63 97.9868C151.609 97.9264 151.6 97.8624 151.605 97.7986C151.608 97.7343 151.625 97.6715 151.655 97.6142C151.684 97.5569 151.726 97.5066 151.776 97.4664L160.681 90.1395C160.729 90.0993 160.784 90.0691 160.844 90.0506C160.904 90.0322 160.967 90.0259 161.029 90.0321C161.092 90.0383 161.152 90.0569 161.207 90.0867C161.262 90.1166 161.31 90.1571 161.349 90.2059C161.39 90.2529 161.421 90.3075 161.44 90.3667C161.46 90.4258 161.467 90.4881 161.462 90.5501C161.456 90.612 161.439 90.6723 161.409 90.7273C161.38 90.7822 161.34 90.8309 161.292 90.8703L152.769 97.8745L161.015 106.749C161.078 106.816 161.12 106.901 161.136 106.993C161.151 107.084 161.14 107.178 161.102 107.262C161.064 107.347 161.003 107.419 160.925 107.47C160.846 107.52 160.755 107.546 160.662 107.546H160.672Z" fill="#35375B"/>
<path d="M160.341 99.3641C160.259 99.3635 160.179 99.3421 160.108 99.3019C160.037 99.2617 159.978 99.2041 159.936 99.1346C159.894 99.0651 159.87 98.986 159.867 98.9049C159.865 98.8238 159.883 98.7434 159.921 98.6713L166.468 86.1054C166.529 85.9946 166.631 85.9118 166.752 85.8746C166.873 85.8374 167.004 85.8487 167.117 85.9061C167.228 85.9646 167.311 86.0642 167.348 86.1832C167.386 86.3022 167.375 86.4311 167.317 86.542L161.2 98.2822L179.477 95.6057C179.54 95.5964 179.603 95.5994 179.665 95.6146C179.726 95.6298 179.784 95.6569 179.835 95.6944C179.886 95.7319 179.929 95.7789 179.962 95.8329C179.995 95.8869 180.016 95.9468 180.026 96.0091C180.035 96.0714 180.032 96.135 180.017 96.1961C180.001 96.2573 179.974 96.3148 179.936 96.3655C179.899 96.4162 179.851 96.459 179.797 96.4915C179.743 96.524 179.683 96.5455 179.62 96.5548L160.417 99.4021L160.341 99.3641Z" fill="#35375B"/>
<path d="M73.8069 16.8241C75.0285 14.0433 72.0698 11.3289 64.6539 14.926C61.6284 16.435 58.307 18.9026 59.3091 21.4936C60.1013 23.4962 63.5849 22.9552 65.1025 22.5376L68.2903 30.8327L73.5396 28.6403L70.2659 20.0985C71.6822 19.2903 72.8935 18.1702 73.8069 16.8241Z" fill="#35375B"/>
<path d="M82.2734 45.2214L76.5469 43.2093L87.6659 20.3268C88.0475 19.5785 88.684 18.9892 89.4619 18.6641C90.2398 18.3391 91.1085 18.2994 91.9131 18.552C92.3036 18.715 92.6573 18.9541 92.9532 19.2553C93.2492 19.5565 93.4814 19.9136 93.6363 20.3055C93.7911 20.6975 93.8653 21.1163 93.8546 21.5373C93.8439 21.9583 93.7484 22.3728 93.5738 22.7565L82.2734 45.2214Z" fill="#35375B"/>
<path d="M73.0038 42.7533L71.3908 48.799L49.2386 38.3591C48.4831 37.9525 47.8853 37.3073 47.5397 36.5253C47.194 35.7433 47.1201 34.8691 47.3297 34.0407C47.4005 33.6665 47.5581 33.314 47.7899 33.011C48.0217 32.708 48.3214 32.4629 48.6651 32.2952C49.0089 32.1275 49.3872 32.0419 49.77 32.045C50.1529 32.0482 50.5297 32.14 50.8706 32.3134L73.0038 42.7533Z" fill="#35375B"/>
<path d="M91.9488 85.3388C77.346 91.3845 60.7963 81.1059 54.9648 65.9205C49.1332 50.7351 55.8237 32.3607 70.3978 26.2866C84.9719 20.2124 101.989 28.6688 107.821 43.8542C113.652 59.0396 106.523 79.2172 91.9488 85.3388Z" fill="white"/>
<path d="M71 27.198C85.0109 21.3421 100.654 30.0453 106.314 44.6802C111.973 59.3151 104.071 77.0631 90.9665 82.4918C76.946 88.3382 61.7707 79.9293 56.1587 65.3228C50.5466 50.7164 56.9795 33.0539 71 27.1695V27.198ZM50.8616 68.2555C58.0961 86.4116 75.1613 93.7101 93.0281 86.2882C110.208 79.1226 116.364 58.1572 110.294 42.3644C104.224 26.5716 85.5454 17.7641 70.3891 24.085C61.987 27.4643 55.2438 33.9725 51.5963 42.2231C47.9487 50.4737 47.6851 59.8145 50.8616 68.2555Z" fill="#FFA27A"/>
<path d="M82.2066 80.5938C79.6383 80.5921 77.0933 80.1091 74.7049 79.1702C71.6782 77.9887 68.9293 76.1988 66.6302 73.9125C64.331 71.6262 62.531 68.8927 61.3429 65.883C61.3079 65.7684 61.3177 65.6449 61.3704 65.5372C61.4232 65.4295 61.5149 65.3456 61.6272 65.3024C61.7395 65.2592 61.8641 65.2598 61.976 65.3041C62.0879 65.3484 62.1788 65.4331 62.2305 65.5413C63.3639 68.4246 65.0828 71.0445 67.28 73.2376C69.4772 75.4307 72.1055 77.1498 75.0007 78.2875C77.5172 79.2881 80.2184 79.747 82.9262 79.6341C85.6341 79.5213 88.2871 78.8391 90.7106 77.6327C100.255 72.8872 105.027 58.7648 100.894 47.9262C99.8581 45.1909 98.2812 42.6898 96.2567 40.5707C94.2322 38.4515 91.8011 36.7573 89.1071 35.5881C86.9392 34.6227 84.5974 34.1032 82.2224 34.0608C79.8475 34.0184 77.4884 34.4539 75.2871 35.3413C75.2295 35.366 75.1676 35.379 75.1049 35.3794C75.0423 35.3798 74.9802 35.3677 74.9223 35.3438C74.8644 35.3199 74.812 35.2847 74.7681 35.2403C74.7242 35.1958 74.6897 35.143 74.6667 35.0851C74.6186 34.9704 74.6177 34.8416 74.6641 34.7262C74.7105 34.6109 74.8005 34.5182 74.9148 34.4682C77.2351 33.5293 79.7226 33.0672 82.2272 33.1096C84.7319 33.152 87.2021 33.6981 89.4889 34.7149C92.2957 35.9335 94.8296 37.697 96.9422 39.902C99.0547 42.1071 100.703 44.7093 101.791 47.5561C106.115 58.8123 101.037 73.5421 91.1305 78.4489C88.3629 79.8408 85.3081 80.5751 82.2066 80.5938Z" fill="#35375B"/>
<path d="M90.2714 50.7442L91.1495 51.6933L83.4568 54.4456C83.3084 54.3802 83.1506 54.3386 82.9891 54.3223L77.8066 42.2214L78.8278 42.098L75.7832 38.6528L75.9264 43.3128L76.8044 42.658L81.4334 55.1669C81.3147 55.3848 81.2439 55.6252 81.2258 55.8723C81.2077 56.1194 81.2427 56.3675 81.3284 56.6001C81.3983 56.8022 81.5088 56.9881 81.6533 57.1464C81.7977 57.3047 81.973 57.4321 82.1686 57.5209C82.3641 57.6097 82.5758 57.658 82.7907 57.6628C83.0056 57.6677 83.2192 57.629 83.4186 57.5492C83.6845 57.4249 83.9128 57.2332 84.0803 56.9932C84.2479 56.7533 84.3489 56.4736 84.373 56.1825L91.6648 52.9461L91.9034 54.1894L94.7667 50.7727L90.2714 50.7442Z" fill="#35375B"/>
<path d="M247.422 146.605C247.365 146.606 247.308 146.593 247.257 146.565C247.21 146.544 247.168 146.514 247.132 146.476C247.097 146.439 247.07 146.395 247.053 146.346C247.035 146.298 247.027 146.247 247.03 146.196C247.032 146.145 247.045 146.094 247.068 146.048L261.908 114.699C261.93 114.652 261.961 114.61 261.999 114.575C262.037 114.54 262.082 114.513 262.13 114.495C262.179 114.477 262.231 114.469 262.283 114.471C262.334 114.473 262.385 114.485 262.433 114.507C262.48 114.528 262.522 114.559 262.557 114.597C262.592 114.635 262.62 114.679 262.638 114.728C262.656 114.776 262.664 114.828 262.662 114.879C262.66 114.931 262.647 114.981 262.626 115.028L247.777 146.377C247.747 146.446 247.698 146.504 247.635 146.545C247.571 146.585 247.498 146.606 247.422 146.605Z" fill="#35375B"/>
<path d="M210.129 131.651C210.072 131.65 210.017 131.638 209.965 131.615C209.914 131.593 209.867 131.559 209.829 131.518C209.762 131.438 209.728 131.336 209.735 131.232C209.743 131.128 209.791 131.031 209.869 130.961L260.065 87.3232C260.14 87.2509 260.241 87.2104 260.345 87.2104C260.45 87.2104 260.55 87.2509 260.625 87.3232C260.698 87.3977 260.738 87.4975 260.738 87.6014C260.738 87.7053 260.698 87.8051 260.625 87.8796L210.428 131.526C210.349 131.605 210.242 131.65 210.129 131.651Z" fill="#35375B"/>
</svg>
