<svg width="679" height="335" viewBox="0 0 679 335" fill="none" xmlns="http://www.w3.org/2000/svg">
<path fill-rule="evenodd" clip-rule="evenodd" d="M415.54 1.23188C494.467 -2.88057 578.013 1.15073 642.216 47.2134C706.59 93.3979 748.846 168.98 758.857 247.543C768.016 319.423 719.925 381.821 693.451 449.277C668.986 511.61 655.53 577.445 610.074 626.632C556.661 684.429 494.26 750.668 415.54 749.995C336.896 749.323 289.611 665.761 223.409 623.327C151.266 577.085 43.7975 569.507 10.6921 490.499C-22.4871 411.315 28.8879 323.094 64.9624 245.185C97.1982 175.566 142.418 113.806 205.409 69.9732C267.411 26.8291 340.094 5.16303 415.54 1.23188Z" fill="#E4E4E4"/>
</svg>
