<svg width="483" height="533" viewBox="0 0 483 533" fill="none" xmlns="http://www.w3.org/2000/svg">
<path fill-rule="evenodd" clip-rule="evenodd" d="M42.7886 311.702C42.6138 311.926 42.5258 312.206 42.5407 312.489C42.5556 312.773 42.6725 313.042 42.8698 313.246C43.0671 313.45 43.3316 313.577 43.6147 313.602C43.8978 313.627 44.1804 313.549 44.4106 313.382C45.9758 311.856 47.2192 310.033 48.0673 308.019C48.9188 306.013 49.3696 303.861 49.3944 301.682C49.3944 301.37 49.2701 301.07 49.0489 300.849C48.8277 300.628 48.5277 300.503 48.2148 300.503C47.9019 300.503 47.6019 300.628 47.3807 300.849C47.1595 301.07 47.0352 301.37 47.0352 301.682C47.0339 303.547 46.6526 305.392 45.9146 307.105C45.1878 308.829 44.1252 310.392 42.7886 311.702Z" fill="#FFA17A"/>
<path fill-rule="evenodd" clip-rule="evenodd" d="M164.318 488.558L215.071 484.079C208.819 412.877 216.722 387.001 211.001 320.22C208.907 295.671 206.43 271.092 202.537 246.749C200.65 235.226 196.639 222.347 195.696 209.881C194.92 208.654 193.919 207.584 192.747 206.727C189.641 204.966 186.112 204.089 182.543 204.193C165.694 203.191 148.826 202.798 131.938 203.014C126.805 202.776 121.672 203.506 116.809 205.165C103.952 210.411 94.6621 223.378 91.4182 234.99C74.5202 292.753 91.9195 420.657 92.1259 484.079L141.876 488.558C143.144 435.51 143.97 423.192 149.838 318.658C151.106 354.259 160.101 456.494 164.318 488.558Z" fill="#FC4C00"/>
<path fill-rule="evenodd" clip-rule="evenodd" d="M431.471 187.011C433.53 182.133 434.59 176.892 434.59 171.598C434.59 166.303 433.53 161.063 431.471 156.184V155.86C425.769 141.468 422.944 126.1 423.155 110.622C423.363 98.7812 422.034 86.9632 419.203 75.4633C417.526 68.4595 414.791 61.7518 411.093 55.5704C408.024 50.693 403.78 46.6627 398.749 43.8484C393.718 41.0341 388.061 39.5256 382.296 39.4611C376.531 39.3966 370.842 40.7781 365.749 43.4792C360.656 46.1802 356.323 50.1145 353.145 54.9221C349.52 61.1694 346.884 67.9393 345.33 74.9918C342.247 88.2643 341.154 101.921 342.086 115.514C342.828 129.438 340.345 143.346 334.832 156.155C334.566 156.833 334.271 157.51 334.035 158.188C332.055 163.105 331.079 168.368 331.165 173.667C331.251 178.966 332.398 184.195 334.537 189.044C336.365 192.758 338.96 195.97 341.113 199.507C343.449 202.997 344.71 207.096 344.74 211.295C344.504 215.539 341.791 219.842 337.987 220.402C340.03 221.086 342.226 221.172 344.316 220.65C346.406 220.127 348.303 219.019 349.783 217.454C350.875 221.289 352.357 225.003 354.207 228.536L353.528 229.037H354.472C360.183 240.063 369.572 248.747 381.013 253.586C377.456 248.696 375.676 242.738 375.97 236.699C378.449 235.829 380.74 234.499 382.724 232.779C384.958 235.051 387.681 236.785 390.686 237.848C390.59 243.134 388.905 248.268 385.85 252.584C396.438 247.914 405.21 239.915 410.828 229.803C411.536 229.803 412.244 229.803 412.951 229.803C412.421 229.446 411.909 229.062 411.418 228.653C413.628 224.628 415.35 220.354 416.549 215.922C418.059 217.441 419.969 218.499 422.058 218.974C424.146 219.449 426.327 219.321 428.345 218.604C424.659 218.044 421.857 213.741 421.71 209.497C421.668 205.313 422.869 201.211 425.16 197.709C427.136 194.025 429.672 190.783 431.471 187.011Z" fill="#35375B"/>
<path fill-rule="evenodd" clip-rule="evenodd" d="M466.596 164.671C467.505 165.129 468.441 165.532 469.397 165.88C471.289 166.74 473.403 166.987 475.443 166.587C476.875 166.013 478.132 165.074 479.089 163.864C480.046 162.655 480.67 161.216 480.899 159.691C481.701 153.968 481.073 148.136 479.07 142.715L478.392 111.948C477.36 108.824 459.548 111.948 455.684 114.129C454.475 137.941 454.652 132.607 454.475 137.941C454.328 142.627 460.373 146.016 460.786 150.673C461.052 154.563 460.639 158.807 463.263 162.078C464.191 163.155 465.324 164.037 466.596 164.671Z" fill="#FFA17A"/>
<path fill-rule="evenodd" clip-rule="evenodd" d="M343.266 398.111C342.917 398.568 342.671 399.095 342.547 399.656C342.422 400.217 342.422 400.798 342.545 401.359C342.669 401.92 342.914 402.448 343.262 402.905C343.611 403.362 344.055 403.737 344.564 404.005C346.618 405.003 348.961 405.233 351.17 404.653L343.266 398.111Z" fill="black"/>
<path fill-rule="evenodd" clip-rule="evenodd" d="M400.391 491.888L447.31 487.792C444.066 450.747 441.088 426.875 437.637 404.595C442.356 404.271 445.688 404.006 446.101 403.917V398.2C446.101 377.57 445.305 356.94 443.535 336.311C441.619 313.618 439.436 290.896 435.72 268.528C433.981 257.859 430.324 245.982 429.41 234.459C428.689 233.313 427.759 232.313 426.667 231.512C423.806 229.882 420.552 229.066 417.26 229.154C401.689 228.231 386.098 227.867 370.488 228.064C365.734 227.849 360.983 228.529 356.48 230.068C344.684 234.901 339.11 246.896 335.837 257.623C331.325 273.066 330.322 295.199 327.373 311.025C326.813 320.043 326.43 329.061 326.076 338.02C325.869 343.472 324.69 376.892 324.926 404.3C329.742 405.241 334.605 405.93 339.494 406.363C339.494 428.083 333.301 456.199 333.419 487.909L379.394 492.006C380.574 443.114 381.34 431.59 386.767 334.985C388.182 367.756 396.498 462.27 400.391 491.888Z" fill="#35375B"/>
<path fill-rule="evenodd" clip-rule="evenodd" d="M426.194 150.791V147.844C426.43 120.053 393.342 119.964 371.077 125.151C349.667 130.161 350.433 163.139 347.661 181.853C346.777 187.747 341.439 253.202 342.619 253.085C371.052 250.554 399.598 249.521 428.14 249.99C429.585 216.894 426.106 183.857 426.194 150.791Z" fill="white"/>
<path fill-rule="evenodd" clip-rule="evenodd" d="M466.301 171.362C466.525 171.618 466.802 171.824 467.112 171.964C467.422 172.105 467.759 172.178 468.1 172.178C468.44 172.178 468.777 172.105 469.088 171.964C469.398 171.824 469.674 171.618 469.899 171.362C470.708 170.22 471.113 168.84 471.049 167.442C471.117 167.548 471.154 167.67 471.154 167.796C471.154 167.922 471.117 168.044 471.049 168.15L466.301 171.362Z" fill="black"/>
<path fill-rule="evenodd" clip-rule="evenodd" d="M326.545 256.12C326.309 260.158 322.712 286.387 322.446 290.425C322.181 294.462 320.854 312.145 320.323 319.483C319.969 325.377 316.548 395.223 316.194 419.36C317.61 419.95 319.143 420.48 320.47 421.01C325.775 422.579 331.215 423.645 336.719 424.193C340.612 424.577 344.534 424.812 348.516 424.989C353.44 398.465 361.226 273.066 361.285 270.326C361.55 259.686 361.816 249.018 362.052 238.379C362.563 218.633 363.044 198.908 363.497 179.201C363.733 170.36 363.792 161.224 364.175 152.265C364.853 135.702 364.853 139.592 370.427 123.678L370.692 122.971C364.509 124.111 358.44 125.797 352.556 128.01C345.281 130.783 338.857 135.405 333.918 141.42C323.257 154.435 315.342 169.473 310.65 185.626C306.821 198.358 303.865 211.335 301.803 224.469C297.851 255.914 326.575 255.678 326.545 256.12Z" fill="#F4F1F1"/>
<path fill-rule="evenodd" clip-rule="evenodd" d="M479.895 143.098C477.559 140.531 474.844 138.334 471.844 136.585C465.327 132.076 459.4 126.771 452.646 122.557L450.906 145.043C451.142 143.363 437.282 129.601 435.925 128.687C429.814 124.423 422.702 121.813 415.282 121.113C405.718 120.479 396.123 120.479 386.559 121.113C390.864 123.441 397.706 127.862 399.151 132.518C400.553 137.747 401.257 143.137 401.245 148.55C401.569 158.954 401.923 169.357 402.247 179.731C402.936 200.537 403.525 221.334 404.017 242.121C404.449 262.082 404.715 282.044 404.813 302.006C404.813 303.361 407.497 401.5 408.204 428.318C419.609 427.752 430.886 425.66 441.735 422.1C444.035 421.186 446.306 420.243 448.577 419.153C448.282 411.883 447.967 404.604 447.633 397.315C445.981 359.985 444.281 322.576 442.531 285.089C441.686 266.248 440.801 247.416 439.877 228.594L438.727 205.665C438.579 202.983 438.933 179.907 437.341 180.497C439.759 179.583 442.177 181.646 443.976 183.444C451.061 190.451 459.115 196.406 467.893 201.127C468.847 201.634 469.901 201.924 470.981 201.973C472.06 202.023 473.137 201.833 474.134 201.415C475.13 200.998 476.022 200.364 476.743 199.559C477.464 198.755 477.997 197.8 478.303 196.765C482.533 182.345 483.925 167.243 482.402 152.293C482.361 149.065 481.499 145.901 479.895 143.098Z" fill="#F4F1F1"/>
<path fill-rule="evenodd" clip-rule="evenodd" d="M447.839 141.654C454.462 147.505 459.529 154.908 462.584 163.198L461.139 163.728C459.65 159.716 457.669 155.905 455.241 152.382C452.85 148.86 450.026 145.652 446.836 142.833L447.839 141.654Z" fill="#35375B"/>
<path fill-rule="evenodd" clip-rule="evenodd" d="M322.035 287.359C323.952 269.382 325.78 253.91 327.933 238.467C330.086 223.024 332.357 207.64 335.247 189.811L336.78 190.105C333.831 207.965 331.531 223.349 329.467 238.732C327.402 254.116 325.545 269.559 323.569 287.566L322.035 287.359Z" fill="#35375B"/>
<path fill-rule="evenodd" clip-rule="evenodd" d="M421.355 240.294C422.294 243.588 423.769 246.704 425.72 249.519C427.676 252.333 430.076 254.811 432.827 256.857L423.656 269.264C419.526 266.22 415.937 262.504 413.039 258.272C410.117 254.095 407.905 249.464 406.492 244.568L421.355 240.294Z" fill="#35375B"/>
<path fill-rule="evenodd" clip-rule="evenodd" d="M328.609 251.523C331.727 249.977 334.567 247.926 337.014 245.452C339.434 242.989 341.427 240.14 342.912 237.023L356.832 243.654C354.625 248.35 351.633 252.636 347.985 256.327C344.328 260.011 340.082 263.058 335.422 265.345L328.609 251.523Z" fill="#35375B"/>
<path fill-rule="evenodd" clip-rule="evenodd" d="M386.855 118.991C399.123 119.934 406.407 123.795 410.624 129.984C414.841 136.173 415.814 144.366 415.814 154.563H413.632C413.632 144.896 412.629 136.88 408.737 131.222C404.844 125.563 398.15 122.086 386.648 121.202L386.855 118.991Z" fill="#FC4C00"/>
<path fill-rule="evenodd" clip-rule="evenodd" d="M414.309 157.688C412.23 157.236 410.059 157.496 408.145 158.425C405.894 159.502 403.963 161.148 402.542 163.199C401.239 165.2 400.244 167.385 399.593 169.682C398.856 172.04 398.325 174.516 397.824 176.932L396.585 182.679C395.916 185.506 395.491 188.385 395.317 191.285C395.117 193.991 395.594 196.705 396.703 199.183C397.723 201.216 399.284 202.929 401.215 204.134C403.12 205.38 405.338 206.064 407.614 206.109V208.319C404.931 208.253 402.319 207.447 400.065 205.991C397.777 204.563 395.937 202.52 394.757 200.096C393.5 197.327 392.943 194.291 393.135 191.255C393.335 188.279 393.769 185.323 394.432 182.414L395.612 176.755C396.143 174.25 396.674 171.686 397.44 169.24C398.199 166.732 399.321 164.349 400.773 162.167C402.41 159.79 404.649 157.888 407.261 156.656C409.628 155.524 412.305 155.213 414.869 155.772L414.309 157.688Z" fill="#FC4C00"/>
<path fill-rule="evenodd" clip-rule="evenodd" d="M411.36 208.201C411.529 207.644 411.529 207.049 411.36 206.492C411.29 206.117 411.117 205.77 410.859 205.49C410.571 205.275 410.238 205.13 409.886 205.063C409.533 204.997 409.17 205.012 408.824 205.107C407.969 205.107 405.875 205.637 405.875 206.727C405.875 207.818 407.202 208.849 407.88 209.173C408.172 209.34 408.494 209.448 408.828 209.489C409.162 209.53 409.5 209.505 409.824 209.415C410.148 209.324 410.45 209.17 410.714 208.962C410.978 208.754 411.197 208.495 411.36 208.201Z" fill="white"/>
<path fill-rule="evenodd" clip-rule="evenodd" d="M410.623 207.846C410.64 207.68 410.64 207.512 410.623 207.346C410.651 207.111 410.651 206.873 410.623 206.638C410.64 206.521 410.64 206.402 410.623 206.285C410.592 206.196 410.541 206.116 410.476 206.049C410.343 205.933 410.178 205.861 410.004 205.843C409.73 205.8 409.452 205.8 409.178 205.843C408.641 205.911 408.116 206.05 407.615 206.255C407.261 206.255 406.966 206.55 406.937 206.727C407 206.951 407.122 207.155 407.291 207.316C407.622 207.735 408.033 208.086 408.5 208.347C408.93 208.496 409.397 208.496 409.827 208.347C410.002 208.313 410.169 208.243 410.316 208.142C410.463 208.041 410.588 207.91 410.682 207.758L410.623 207.846ZM412.156 208.495C411.963 208.859 411.694 209.178 411.369 209.432C411.044 209.685 410.669 209.868 410.269 209.968C409.432 210.186 408.544 210.103 407.762 209.732C407.081 209.376 406.479 208.884 405.993 208.288C405.532 207.792 405.279 207.138 405.285 206.461C405.366 206.027 405.566 205.623 405.863 205.295C406.159 204.968 406.541 204.729 406.966 204.605C407.591 204.387 408.232 204.22 408.883 204.104C409.332 204.03 409.79 204.03 410.24 204.104C410.758 204.171 411.243 204.397 411.626 204.752C411.837 204.953 412.008 205.194 412.127 205.46C412.235 205.684 412.315 205.922 412.363 206.167C412.421 206.558 412.421 206.955 412.363 207.346C412.345 207.723 412.255 208.093 412.098 208.436L412.156 208.495Z" fill="#FC4C00"/>
<path fill-rule="evenodd" clip-rule="evenodd" d="M415.814 155.33C418.295 156.263 420.378 158.022 421.712 160.31C423.188 162.782 423.991 165.596 424.042 168.474C424.037 171.092 423.639 173.694 422.862 176.195C422.125 178.7 421.181 181.087 420.238 183.445L418.056 188.809C416.975 191.637 415.673 194.377 414.163 197.002C412.628 199.668 410.448 201.908 407.822 203.515C405.505 204.856 402.861 205.53 400.184 205.46C397.498 205.407 394.878 204.623 392.605 203.19L393.815 201.334C395.726 202.562 397.942 203.235 400.214 203.279C402.487 203.331 404.731 202.76 406.702 201.628C409.025 200.162 410.942 198.135 412.275 195.734C413.665 193.252 414.849 190.659 415.814 187.983L417.997 182.62C418.968 180.326 419.825 177.985 420.562 175.606C421.276 173.305 421.644 170.912 421.653 168.503C421.616 166.011 420.925 163.572 419.648 161.43C418.588 159.599 416.933 158.185 414.959 157.422L415.814 155.33Z" fill="#FC4C00"/>
<path fill-rule="evenodd" clip-rule="evenodd" d="M388.091 199.565C388.553 199.033 389.191 198.684 389.889 198.581C390.587 198.478 391.299 198.629 391.895 199.006C392.835 199.85 393.451 200.997 393.635 202.247C393.666 202.343 393.666 202.446 393.635 202.542C393.577 202.624 393.495 202.686 393.399 202.719C392.175 203.191 390.819 203.191 389.595 202.719C389.195 202.583 388.825 202.373 388.504 202.1C388.207 201.831 387.993 201.482 387.889 201.096C387.784 200.709 387.793 200.301 387.914 199.919C387.956 199.794 388.016 199.675 388.091 199.565Z" fill="white"/>
<path fill-rule="evenodd" clip-rule="evenodd" d="M387.382 199.094C387.663 198.732 388.014 198.43 388.414 198.207C388.815 197.984 389.256 197.845 389.712 197.797C390.613 197.641 391.54 197.83 392.307 198.328C392.881 198.786 393.352 199.358 393.693 200.007C394.039 200.683 394.278 201.409 394.401 202.158V202.483C394.387 202.662 394.326 202.835 394.224 202.983C394.156 203.142 394.029 203.269 393.87 203.337H393.605C392.917 203.64 392.174 203.8 391.423 203.809C390.672 203.834 389.923 203.724 389.211 203.484L388.503 203.16C388.253 203.041 388.024 202.882 387.825 202.689C387.41 202.308 387.114 201.818 386.97 201.274C386.812 200.735 386.812 200.163 386.97 199.624C387.006 199.501 387.055 199.383 387.117 199.271L387.294 198.946L387.382 199.094ZM388.798 200.007C388.726 200.092 388.676 200.193 388.65 200.302C388.576 200.522 388.576 200.76 388.65 200.98C388.724 201.215 388.856 201.427 389.034 201.598C389.255 201.814 389.53 201.966 389.83 202.041C390.35 202.229 390.9 202.319 391.452 202.306C391.903 202.29 392.35 202.21 392.779 202.07C392.67 201.622 392.512 201.187 392.307 200.773C392.092 200.369 391.802 200.009 391.452 199.713C391.032 199.447 390.525 199.352 390.036 199.447C389.802 199.449 389.571 199.5 389.358 199.597C389.145 199.693 388.954 199.833 388.798 200.007Z" fill="#FC4C00"/>
<path fill-rule="evenodd" clip-rule="evenodd" d="M415.164 153.886C414.558 153.993 414.002 154.287 413.572 154.726C413.141 155.166 412.86 155.728 412.765 156.336C412.671 156.943 412.769 157.564 413.046 158.113C413.323 158.662 413.764 159.111 414.309 159.396C415.007 159.441 415.696 159.223 416.242 158.786C416.787 158.348 417.149 157.722 417.257 157.032C417.364 156.341 417.209 155.635 416.821 155.053C416.434 154.471 415.843 154.054 415.164 153.886Z" fill="white"/>
<path fill-rule="evenodd" clip-rule="evenodd" d="M373.581 122.41C364.734 124.915 359.927 127.214 357.184 131.723C354.442 136.232 353.557 143.512 352.584 155.3C352.092 162.954 352.28 170.637 353.144 178.258C354.006 185.832 355.85 193.262 358.629 200.361L356.565 201.157C353.733 193.874 351.85 186.257 350.962 178.494C350.073 170.736 349.875 162.915 350.372 155.123C351.375 142.834 352.26 135.525 355.297 130.515C358.335 125.505 363.525 122.911 372.991 120.229L373.581 122.41Z" fill="#FC4C00"/>
<path fill-rule="evenodd" clip-rule="evenodd" d="M365.68 202.778C365.686 204.196 365.27 205.583 364.487 206.765C363.703 207.946 362.585 208.869 361.277 209.415C359.968 209.962 358.526 210.108 357.134 209.835C355.742 209.562 354.462 208.882 353.457 207.882C352.452 206.881 351.766 205.605 351.488 204.215C351.209 202.826 351.349 201.384 351.89 200.074C352.432 198.763 353.35 197.643 354.529 196.855C355.708 196.067 357.095 195.646 358.514 195.646C359.453 195.642 360.385 195.824 361.254 196.18C362.123 196.537 362.913 197.062 363.579 197.725C364.245 198.387 364.773 199.175 365.134 200.042C365.494 200.909 365.68 201.839 365.68 202.778Z" fill="white"/>
<path fill-rule="evenodd" clip-rule="evenodd" d="M361.906 202.778C361.911 203.478 361.709 204.165 361.324 204.75C360.938 205.336 360.388 205.794 359.742 206.066C359.096 206.338 358.383 206.412 357.695 206.279C357.006 206.146 356.373 205.811 355.875 205.318C355.377 204.825 355.037 204.195 354.898 203.508C354.759 202.821 354.828 202.109 355.095 201.461C355.362 200.813 355.815 200.259 356.398 199.869C356.98 199.479 357.666 199.271 358.367 199.271C358.83 199.267 359.29 199.355 359.719 199.53C360.148 199.704 360.538 199.962 360.867 200.288C361.196 200.614 361.458 201.002 361.636 201.429C361.814 201.856 361.906 202.315 361.906 202.778Z" fill="#C9E3E5"/>
<path fill-rule="evenodd" clip-rule="evenodd" d="M372.344 132.578C373.158 134.149 374.453 135.419 376.04 136.204C377.626 136.989 379.422 137.247 381.166 136.941C382.909 136.636 384.51 135.782 385.734 134.504C386.959 133.226 387.743 131.592 387.974 129.837V129.012C388.768 126.328 389.068 123.522 388.859 120.731L388.652 117.784V117.253V107.734L369.012 105.612L369.307 113.452C369.307 114.896 369.307 116.399 369.572 117.813V121.556C369.572 121.969 369.572 122.381 369.572 122.794C369.763 126.22 370.71 129.561 372.344 132.578Z" fill="#FFA17A"/>
<g style="mix-blend-mode:multiply" opacity="0.49">
<path fill-rule="evenodd" clip-rule="evenodd" d="M370.399 122.882C373.36 123.251 376.365 123.04 379.246 122.263C381.968 121.464 384.349 119.788 386.019 117.496C387.688 115.204 388.552 112.425 388.476 109.591V107.764L368.836 105.642L369.131 113.481C369.131 114.925 369.131 116.428 369.396 117.843V121.969L370.399 122.882Z" fill="#35375B"/>
</g>
<path fill-rule="evenodd" clip-rule="evenodd" d="M409.649 72.8111C408.341 72.8118 407.065 73.2129 405.993 73.9604C404.036 66.1217 400.211 58.8721 394.845 52.8297C392.994 50.3644 390.507 48.449 387.65 47.2892C386.298 46.6389 384.839 46.2395 383.344 46.1104C382.371 46.1104 381.398 46.1104 380.395 46.1104C379.409 46.1093 378.424 46.1684 377.446 46.2872C375.969 46.477 374.54 46.9365 373.229 47.6429C370.409 48.9276 368 50.9677 366.269 53.5371C361.168 59.8059 357.666 67.2191 356.065 75.1393C354.95 74.4561 353.657 74.1177 352.35 74.1667C348.545 74.5793 347.425 80.6503 348.575 85.1889C350.049 91.0831 354.473 92.6745 358.543 93.7355C360.563 97.6507 363.19 101.222 366.328 104.316C369.478 108.007 373.724 110.598 378.449 111.713H378.861L379.687 111.89H380.719C381.082 111.919 381.447 111.919 381.81 111.89H382.902H383.373C383.56 111.904 383.747 111.904 383.934 111.89C384.203 111.835 384.468 111.766 384.73 111.683H385.143C389.814 110.352 393.943 107.577 396.939 103.756C399.929 100.523 402.397 96.8439 404.253 92.8513C408.293 91.6135 412.628 89.6979 413.807 83.8627C414.869 79.0589 413.483 73.0468 409.649 72.8111Z" fill="#FFA17A"/>
<path fill-rule="evenodd" clip-rule="evenodd" d="M389.741 90.6113C389.39 89.8964 388.944 89.2322 388.414 88.6368C387.895 87.9017 387.441 87.1226 387.058 86.3085C386.279 84.7008 385.809 82.9614 385.672 81.1806C385.622 80.9438 385.485 80.734 385.289 80.5923C385.093 80.4506 384.851 80.3872 384.61 80.4144C384.385 80.464 384.188 80.5996 384.061 80.7923C383.934 80.9849 383.888 81.2195 383.932 81.4458C384.219 84.4487 385.309 87.3191 387.087 89.7566C387.765 90.6997 388.768 91.7017 387.795 92.7037C386.822 93.7058 385.111 93.4405 383.814 93.2932C382.516 93.1458 382.546 94.9141 383.814 95.0614C385.494 95.4778 387.271 95.2241 388.768 94.3541C389.323 93.9268 389.72 93.327 389.896 92.6493C390.072 91.9716 390.018 91.2546 389.741 90.6113Z" fill="#35375B"/>
<path fill-rule="evenodd" clip-rule="evenodd" d="M374.26 83.0064C374.467 84.6566 375.558 85.9531 376.678 85.9531C377.799 85.9531 378.507 84.4798 378.3 82.8296C378.094 81.1794 376.973 79.8828 375.853 79.8828C374.732 79.8828 374.024 81.3857 374.26 83.0064Z" fill="#35375B"/>
<path fill-rule="evenodd" clip-rule="evenodd" d="M391.836 82.9478C392.072 84.5685 393.133 85.8945 394.254 85.8945C395.375 85.8945 396.082 84.4212 395.876 82.771C395.67 81.1208 394.549 79.8242 393.458 79.8242C392.367 79.8242 391.6 81.2976 391.836 82.9478Z" fill="#35375B"/>
<path fill-rule="evenodd" clip-rule="evenodd" d="M375.649 96.1509C377.024 97.3638 378.677 98.2189 380.462 98.6404C382.247 99.062 384.109 99.0368 385.882 98.5672C385.987 98.5382 386.096 98.5301 386.203 98.5432C386.311 98.5564 386.415 98.5906 386.51 98.644C386.604 98.6974 386.687 98.7688 386.754 98.8542C386.821 98.9396 386.87 99.0374 386.899 99.1419C386.928 99.2463 386.937 99.3555 386.923 99.4632C386.91 99.5708 386.876 99.6748 386.823 99.7692C386.769 99.8636 386.698 99.9465 386.612 100.013C386.527 100.08 386.429 100.129 386.324 100.158C384.267 100.673 382.115 100.673 380.058 100.159C378 99.6449 376.101 98.6327 374.528 97.2117C373.673 96.5634 374.853 95.4437 375.649 96.1509Z" fill="#35375B"/>
<path fill-rule="evenodd" clip-rule="evenodd" d="M399.83 56.3365C400.022 53.9641 399.618 51.5812 398.655 49.4042C397.692 47.2272 396.201 45.3251 394.315 43.8703C391.947 42.266 389.282 41.1503 386.477 40.5886C383.671 40.0269 380.782 40.0304 377.978 40.599C372.482 41.4968 367.252 43.5977 362.664 46.7515C358.075 49.9052 354.241 54.0338 351.436 58.8416C348.616 63.8139 346.853 69.315 346.259 75C345.665 80.685 346.253 86.4313 347.986 91.8785C350.139 98.539 353.884 105.376 352.085 112.125C350.647 115.48 348.92 118.705 346.924 121.762C344.392 127.307 343.881 133.563 345.479 139.445C347.05 145.233 349.571 150.72 352.941 155.683C355.648 159.305 357.649 163.404 358.839 167.766C359.723 172.246 358.16 177.669 354.12 179.555C356.744 179.342 359.294 178.582 361.605 177.323C363.916 176.064 365.938 174.334 367.538 172.246C369.204 170.069 370.42 167.582 371.113 164.931C371.807 162.279 371.965 159.516 371.578 156.803C370.074 145.309 359.251 136.173 360.136 124.591C360.814 116.045 367.892 108.765 367.273 100.219C366.83 94.3246 362.613 89.0788 362.466 83.0962C362.535 80.4793 363.207 77.9136 364.429 75.5982C365.652 73.2829 367.392 71.2803 369.514 69.7458C373.748 66.8349 378.43 64.6349 383.374 63.2327C382.195 65.1189 381.369 65.7967 374.527 68.1544C380.098 68.5002 385.687 67.8719 391.042 66.2977C392.02 65.9686 392.96 65.5338 393.844 65.001C395.289 69.6279 409.001 73.1055 404.784 94.2657C410.447 86.4559 409.444 60.7277 399.83 56.3365Z" fill="#35375B"/>
<path fill-rule="evenodd" clip-rule="evenodd" d="M478.39 112.332L455.682 114.1C455.682 114.1 452.733 86.0141 467.478 85.631C482.223 85.2479 478.39 112.332 478.39 112.332Z" fill="#FFA17A"/>
<path fill-rule="evenodd" clip-rule="evenodd" d="M449.429 91.8481L457.097 109.884C458.306 112.831 462.995 111.122 461.697 108.234L454.148 90.1978C452.968 87.2507 448.25 88.96 449.577 91.8776L449.429 91.8481Z" fill="#FFA17A"/>
<path fill-rule="evenodd" clip-rule="evenodd" d="M479.246 86.3383C478.007 91.201 476.061 96.2994 475.147 101.221C475.068 101.703 475.173 102.198 475.442 102.606C475.577 102.807 475.751 102.978 475.954 103.109C476.156 103.241 476.383 103.331 476.621 103.372C477.104 103.455 477.6 103.349 478.007 103.078C478.208 102.943 478.379 102.769 478.511 102.566C478.643 102.364 478.732 102.137 478.774 101.899C479.688 96.9478 481.723 91.8788 482.873 87.0161C483.434 84.7468 479.865 84.0985 479.246 86.3383Z" fill="#FFA17A"/>
<path fill-rule="evenodd" clip-rule="evenodd" d="M473.583 79.8544C473.43 84.0684 472.706 88.2422 471.43 92.2617C470.723 94.5015 474.379 95.2088 475.058 92.9395C476.415 88.6155 477.15 84.1202 477.24 79.5892C477.24 77.2315 473.672 77.5557 473.613 79.8839L473.583 79.8544Z" fill="#FFA17A"/>
<path fill-rule="evenodd" clip-rule="evenodd" d="M469.159 89.4615C469.896 84.9861 470.339 80.4674 470.486 75.9343C470.486 73.6061 466.918 73.9303 466.859 76.2585C466.708 80.4676 466.274 84.6619 465.562 88.8131C465.514 89.0519 465.516 89.2978 465.567 89.5359C465.617 89.774 465.716 89.9993 465.856 90.1982C466.136 90.596 466.559 90.8705 467.036 90.9645C467.519 91.0438 468.014 90.9386 468.422 90.6698C468.822 90.3925 469.098 89.9691 469.189 89.4909L469.159 89.4615Z" fill="#FFA17A"/>
<path fill-rule="evenodd" clip-rule="evenodd" d="M458.662 76.3175C459.481 83.3803 458.93 90.5346 457.04 97.3892C456.539 99.688 460.136 100.336 460.667 98.0671C462.649 90.8867 463.219 83.3907 462.348 75.9933C461.965 73.7241 458.308 74.0188 458.721 76.3175H458.662Z" fill="#FFA17A"/>
<path fill-rule="evenodd" clip-rule="evenodd" d="M457.923 98.1552C457.784 98.0076 457.707 97.8126 457.707 97.61C457.707 97.4073 457.784 97.2123 457.923 97.0648C457.995 96.9926 458.08 96.9353 458.173 96.8962C458.267 96.857 458.367 96.8369 458.469 96.8369C458.57 96.8369 458.671 96.857 458.765 96.8962C458.858 96.9353 458.943 96.9926 459.014 97.0648C461.07 99.1142 462.245 101.885 462.288 104.786C462.253 104.967 462.155 105.131 462.013 105.248C461.87 105.365 461.691 105.429 461.506 105.429C461.322 105.429 461.143 105.365 461 105.248C460.858 105.131 460.76 104.967 460.725 104.786C460.716 103.551 460.466 102.33 459.988 101.191C459.512 100.05 458.81 99.0171 457.923 98.1552Z" fill="#35375B"/>
<path fill-rule="evenodd" clip-rule="evenodd" d="M354.354 242.888L327.635 250.373L299.855 198.829L308.496 199.389L328.166 200.656L336.895 201.245L354.354 242.888Z" fill="#35375B"/>
<path fill-rule="evenodd" clip-rule="evenodd" d="M349.372 220.608L345.774 219.959C345.565 219.921 345.349 219.943 345.151 220.023C344.954 220.102 344.783 220.237 344.66 220.41C344.536 220.583 344.464 220.788 344.453 221C344.441 221.213 344.49 221.424 344.595 221.61L345.509 223.201L338.313 226.885C337.422 227.338 336.674 228.031 336.153 228.884C335.633 229.737 335.359 230.719 335.364 231.718V242.74C335.364 242.74 329.938 245.688 321.356 238.497C315.96 242.416 314.839 248.016 317.287 255.03C317.287 255.03 327.313 262.692 344.831 250.432L356.184 242.976C356.953 242.473 357.585 241.787 358.022 240.979C358.46 240.171 358.69 239.268 358.691 238.349V232.455C358.695 231.092 358.226 229.769 357.364 228.712L352.41 222.464C351.677 221.475 350.587 220.809 349.372 220.608Z" fill="#FFA17A"/>
<g style="mix-blend-mode:multiply">
<path fill-rule="evenodd" clip-rule="evenodd" d="M346.569 223.526C347.395 222.936 347.985 223.526 348.102 224.322C348.121 224.873 348.019 225.422 347.805 225.93C347.592 226.439 347.27 226.895 346.864 227.269C345.222 228.987 343.321 230.439 341.231 231.571C341.144 231.705 341.099 231.862 341.102 232.021C341.105 232.181 341.156 232.336 341.248 232.466C341.34 232.596 341.469 232.696 341.619 232.752C341.768 232.808 341.931 232.818 342.086 232.78C344.875 231.421 347.286 229.397 349.105 226.886C349.502 226.265 349.712 225.544 349.712 224.808C349.712 224.072 349.502 223.351 349.105 222.73C348.902 222.444 348.639 222.205 348.335 222.029C348.031 221.853 347.693 221.744 347.343 221.711C346.993 221.677 346.64 221.719 346.308 221.834C345.976 221.949 345.673 222.134 345.419 222.376C344.741 223.143 345.861 224.263 346.569 223.526Z" fill="#35375B"/>
</g>
<g style="mix-blend-mode:multiply" opacity="0.49">
<path fill-rule="evenodd" clip-rule="evenodd" d="M323.39 211.324C318.642 213.446 312.568 210.175 309.795 204.015C309.132 202.549 308.704 200.988 308.527 199.388L328.168 200.655C328.626 202.711 328.409 204.859 327.548 206.781C326.688 208.703 325.229 210.296 323.39 211.324Z" fill="#52C2C7"/>
</g>
<path fill-rule="evenodd" clip-rule="evenodd" d="M371.251 74.0481C372.684 73.5838 374.171 73.3065 375.675 73.223C377.739 73.0756 377.238 69.8931 375.173 70.011C373.416 70.1334 371.682 70.48 370.012 71.0424C368.007 71.6907 369.364 74.608 371.31 73.9891L371.251 74.0481Z" fill="#35375B"/>
<path fill-rule="evenodd" clip-rule="evenodd" d="M393.576 74.0481C392.143 73.5838 390.656 73.3065 389.152 73.223C387.088 73.0756 387.589 69.8931 389.654 70.011C391.411 70.1294 393.146 70.4762 394.814 71.0424C396.82 71.6907 395.463 74.608 393.517 73.9891L393.576 74.0481Z" fill="#35375B"/>
<path fill-rule="evenodd" clip-rule="evenodd" d="M405.965 491.416L411.863 529.169C412.004 530.191 412.519 531.125 413.308 531.792C414.124 532.504 415.173 532.892 416.257 532.882H456.541C457.135 532.879 457.721 532.738 458.251 532.469C458.793 532.193 459.259 531.789 459.608 531.291C459.943 530.806 460.165 530.252 460.257 529.67C460.323 529.072 460.253 528.467 460.05 527.901C458.988 525.249 456.364 522.272 449.994 520.887C439.466 518.647 439.407 496.132 439.702 488.469L405.965 491.416Z" fill="#FFA17A"/>
<path fill-rule="evenodd" clip-rule="evenodd" d="M443.8 512.341C442.178 513.022 440.675 513.958 439.347 515.111C438.816 515.553 439.583 516.319 440.114 515.877C441.386 514.798 442.819 513.923 444.36 513.284C445.009 512.989 444.449 512.076 443.8 512.341Z" fill="#35375B"/>
<path fill-rule="evenodd" clip-rule="evenodd" d="M441.526 507.861C439.871 508.426 438.367 509.364 437.132 510.602C436.66 511.132 437.427 511.898 437.899 511.397C438.973 510.25 440.323 509.398 441.821 508.922C442.47 508.686 442.205 507.655 441.526 507.861Z" fill="#35375B"/>
<path fill-rule="evenodd" clip-rule="evenodd" d="M440.144 503.175C438.902 503.614 437.706 504.177 436.576 504.855C436.016 505.208 436.576 506.151 437.136 505.798C438.171 505.148 439.28 504.624 440.439 504.236C441.117 504 440.822 502.969 440.144 503.175Z" fill="#35375B"/>
<path fill-rule="evenodd" clip-rule="evenodd" d="M438.785 517.793L438.55 517.557C438.435 517.517 438.31 517.517 438.196 517.557C438.054 517.579 437.921 517.64 437.812 517.734C437.721 517.829 437.668 517.955 437.665 518.088C437.622 518.212 437.622 518.347 437.665 518.471L437.901 518.706C437.961 518.733 438.026 518.747 438.092 518.747C438.158 518.747 438.224 518.733 438.284 518.706C438.409 518.747 438.543 518.747 438.667 518.706C438.759 518.611 438.812 518.485 438.815 518.353C438.86 518.265 438.881 518.167 438.875 518.069C438.87 517.971 438.839 517.875 438.785 517.793Z" fill="#35375B"/>
<path fill-rule="evenodd" clip-rule="evenodd" d="M434.628 513.784C434.747 513.752 434.851 513.679 434.922 513.578C435.012 513.493 435.065 513.377 435.07 513.254C435.07 513.121 435.016 512.994 434.922 512.9C434.89 512.85 434.847 512.808 434.796 512.777C434.745 512.746 434.687 512.728 434.628 512.724C434.501 512.739 434.385 512.802 434.303 512.9C434.269 513.016 434.269 513.139 434.303 513.254C434.274 513.36 434.274 513.472 434.303 513.578C434.392 513.673 434.504 513.744 434.628 513.784Z" fill="#35375B"/>
<path fill-rule="evenodd" clip-rule="evenodd" d="M433.242 508.833C433.363 508.803 433.468 508.73 433.537 508.627C433.594 508.529 433.624 508.417 433.624 508.303C433.624 508.189 433.594 508.077 433.537 507.979C433.459 507.885 433.357 507.813 433.242 507.772C433.123 507.805 433.018 507.878 432.947 507.979C432.87 508.069 432.828 508.184 432.828 508.303C432.828 508.422 432.87 508.537 432.947 508.627C432.978 508.681 433.02 508.728 433.071 508.764C433.122 508.8 433.181 508.823 433.242 508.833Z" fill="#35375B"/>
<path fill-rule="evenodd" clip-rule="evenodd" d="M373.732 491.387L367.834 529.169C367.664 530.183 367.148 531.106 366.374 531.783C365.6 532.46 364.615 532.848 363.587 532.882H323.333C322.739 532.879 322.153 532.738 321.623 532.469C321.081 532.193 320.615 531.789 320.266 531.291C319.927 530.811 319.714 530.253 319.647 529.67C319.555 529.075 319.616 528.466 319.824 527.901C320.885 525.249 323.539 522.272 329.88 520.887C340.467 518.647 340.467 495.955 340.172 488.469L373.732 491.387Z" fill="#FFA17A"/>
<path fill-rule="evenodd" clip-rule="evenodd" d="M335.865 512.341C337.487 513.022 338.99 513.958 340.318 515.111C340.879 515.553 340.082 516.319 339.551 515.877C338.289 514.799 336.867 513.924 335.334 513.284C334.686 512.989 335.216 512.076 335.865 512.341Z" fill="#35375B"/>
<path fill-rule="evenodd" clip-rule="evenodd" d="M338.135 507.861C339.794 508.419 341.299 509.358 342.529 510.602C343.001 511.132 342.234 511.898 341.762 511.397C340.689 510.25 339.338 509.398 337.84 508.922C337.191 508.686 337.486 507.655 338.135 507.861Z" fill="#35375B"/>
<path fill-rule="evenodd" clip-rule="evenodd" d="M339.522 503.175C340.765 503.614 341.96 504.177 343.091 504.855C343.68 505.208 343.091 506.151 342.53 505.798C341.495 505.148 340.386 504.624 339.227 504.236C338.579 504 338.844 502.969 339.522 503.175Z" fill="#35375B"/>
<path fill-rule="evenodd" clip-rule="evenodd" d="M340.877 517.793L341.113 517.557C341.237 517.512 341.373 517.512 341.497 517.557C341.628 517.585 341.749 517.646 341.851 517.734C341.891 517.848 341.891 517.973 341.851 518.088C341.877 518.148 341.891 518.213 341.891 518.279C341.891 518.345 341.877 518.41 341.851 518.471L341.615 518.706C341.554 518.733 341.489 518.747 341.423 518.747C341.357 518.747 341.292 518.733 341.231 518.706C341.117 518.749 340.991 518.749 340.877 518.706C340.779 518.612 340.717 518.487 340.7 518.353C340.675 518.252 340.678 518.147 340.71 518.048C340.741 517.949 340.799 517.861 340.877 517.793Z" fill="#35375B"/>
<path fill-rule="evenodd" clip-rule="evenodd" d="M345.036 513.784C344.917 513.752 344.813 513.679 344.741 513.578C344.7 513.474 344.7 513.358 344.741 513.254C344.696 513.141 344.696 513.014 344.741 512.9C344.773 512.85 344.817 512.808 344.868 512.777C344.919 512.746 344.977 512.728 345.036 512.724C345.1 512.728 345.162 512.746 345.218 512.777C345.274 512.807 345.323 512.849 345.361 512.9C345.407 513.014 345.407 513.141 345.361 513.254C345.402 513.358 345.402 513.474 345.361 513.578C345.277 513.679 345.164 513.752 345.036 513.784Z" fill="#35375B"/>
<path fill-rule="evenodd" clip-rule="evenodd" d="M346.422 508.833C346.336 508.81 346.258 508.765 346.193 508.703C346.129 508.641 346.082 508.564 346.055 508.479C346.029 508.394 346.024 508.303 346.042 508.216C346.06 508.128 346.099 508.047 346.157 507.979C346.224 507.886 346.316 507.814 346.422 507.772C346.542 507.805 346.646 507.878 346.717 507.979C346.794 508.069 346.836 508.184 346.836 508.303C346.836 508.422 346.794 508.537 346.717 508.627C346.687 508.681 346.645 508.728 346.594 508.764C346.542 508.8 346.484 508.823 346.422 508.833Z" fill="#35375B"/>
<path fill-rule="evenodd" clip-rule="evenodd" d="M360.978 79.5611L367.562 82.8535V82.0815C367.562 80.977 368.457 80.0815 369.562 80.0815H381.261C382.366 80.0815 383.261 80.977 383.261 82.0815V82.9002H387.879V82.0815C387.879 80.977 388.774 80.0815 389.879 80.0815H401.579C402.683 80.0815 403.579 80.977 403.579 82.0815V86.3952C403.579 87.4998 402.683 88.3952 401.579 88.3952H389.879C388.774 88.3952 387.879 87.4998 387.879 86.3952V84.7002H383.261V86.3952C383.261 87.4998 382.366 88.3952 381.261 88.3952H369.562C368.457 88.3952 367.562 87.4998 367.562 86.3952V84.866L360.173 81.1711C359.729 80.9488 359.549 80.4081 359.771 79.9635C359.993 79.5189 360.534 79.3387 360.978 79.5611ZM381.261 81.8815H369.562C369.451 81.8815 369.362 81.9711 369.362 82.0815V86.3952C369.362 86.5057 369.451 86.5952 369.562 86.5952H381.261C381.372 86.5952 381.461 86.5057 381.461 86.3952V82.0815C381.461 81.9711 381.372 81.8815 381.261 81.8815ZM389.879 81.8815H401.579C401.689 81.8815 401.779 81.9711 401.779 82.0815V86.3952C401.779 86.5057 401.689 86.5952 401.579 86.5952H389.879C389.768 86.5952 389.679 86.5057 389.679 86.3952V82.0815C389.679 81.9711 389.768 81.8815 389.879 81.8815Z" fill="#35375B"/>
<path fill-rule="evenodd" clip-rule="evenodd" d="M148.954 63.8525L99.3808 82.655H99.2333C94.6998 84.7186 90.7502 87.8751 87.739 91.8411C84.7279 95.807 82.7495 100.458 81.9815 105.377L49.5422 174.604C44.5289 209.085 40.0168 232.309 37.7461 274.806C77.5285 270.002 34.4727 278.077 74.2551 273.273C75.1987 256.593 85.5203 205.107 90.6811 190.931C89.7964 213.477 85.6678 221.493 84.5177 250.492C84.5177 250.492 126.866 243.92 149.072 219.813C171.278 243.92 205.428 247.516 205.428 247.516C203.599 202.012 255.561 108.56 198.763 82.655L149.19 63.8525V151.912L148.954 63.8525Z" fill="#35375B"/>
<path fill-rule="evenodd" clip-rule="evenodd" d="M76.3816 183.533C76.3022 183.493 76.2315 183.437 76.1736 183.369C76.1158 183.301 76.0719 183.222 76.0445 183.138C76.0171 183.053 76.0067 182.963 76.014 182.874C76.0212 182.786 76.0459 182.699 76.0867 182.62C76.1273 182.54 76.1832 182.47 76.2511 182.412C76.319 182.354 76.3977 182.31 76.4826 182.283C76.5676 182.255 76.6571 182.245 76.746 182.252C76.8349 182.259 76.9216 182.284 77.0009 182.325L87.2636 187.452C87.343 187.493 87.4137 187.549 87.4716 187.617C87.5294 187.684 87.5733 187.763 87.6007 187.848C87.6281 187.933 87.6385 188.022 87.6312 188.111C87.624 188.2 87.5993 188.287 87.5585 188.366C87.5179 188.445 87.462 188.516 87.3941 188.574C87.3262 188.632 87.2475 188.675 87.1626 188.703C87.0776 188.73 86.9881 188.74 86.8992 188.733C86.8103 188.726 86.7236 188.701 86.6443 188.661L76.3816 183.533Z" fill="#F4F1F1"/>
<path fill-rule="evenodd" clip-rule="evenodd" d="M37.7461 297.616V268.145C49.8065 264.027 62.8443 263.729 75.0808 267.29L75.4936 301.801L37.7461 297.616Z" fill="white"/>
<path fill-rule="evenodd" clip-rule="evenodd" d="M37.0117 297.615V267.554L37.5131 267.377C43.3954 265.278 49.5813 264.153 55.8265 264.047C62.3888 263.919 68.9351 264.743 75.2606 266.493H75.8209C75.9389 278.458 76.0765 290.424 76.2338 302.389L37.0117 298.233V297.615ZM38.4862 268.468V296.937L74.7298 300.768L74.3464 267.672C68.3184 266.06 62.0951 265.297 55.856 265.403C49.9356 265.554 44.0751 266.628 38.4862 268.586V268.468Z" fill="#35375B"/>
<path fill-rule="evenodd" clip-rule="evenodd" d="M68.773 283.322C69.5369 282.893 70.155 282.246 70.548 281.463C70.941 280.68 71.0908 279.798 70.9783 278.93C70.8658 278.061 70.496 277.246 69.9166 276.59C69.3371 275.933 68.5743 275.464 67.7263 275.244C66.8783 275.023 65.9837 275.062 65.1575 275.353C64.3313 275.645 63.6111 276.176 63.0896 276.88C62.5681 277.584 62.269 278.427 62.2308 279.302C62.1925 280.177 62.4168 281.043 62.8749 281.789C63.469 282.757 64.4152 283.458 65.5149 283.744C66.6146 284.029 67.7824 283.878 68.773 283.322Z" fill="#35375B"/>
<path fill-rule="evenodd" clip-rule="evenodd" d="M171.042 115.103L180.066 111.212C181.789 99.7474 182.715 88.1769 182.838 76.584L149.189 63.8525V151.912V63.8525L115.246 76.584C115.412 88.1622 116.398 99.7142 118.195 111.153L127.249 115.044L119.64 119.376C123.857 140.86 132.35 163.199 149.071 173.838C165.792 163.14 174.315 140.801 178.562 119.376L171.042 115.103Z" fill="white"/>
<path fill-rule="evenodd" clip-rule="evenodd" d="M159.573 188.573C159.565 189.24 159.294 189.877 158.819 190.346C158.345 190.815 157.704 191.078 157.037 191.078C156.415 191.01 155.84 190.716 155.422 190.251C155.004 189.786 154.773 189.183 154.773 188.558C154.773 187.933 155.004 187.33 155.422 186.865C155.84 186.4 156.415 186.106 157.037 186.039C157.37 186.039 157.699 186.104 158.007 186.231C158.315 186.359 158.594 186.546 158.83 186.781C159.065 187.016 159.252 187.296 159.38 187.603C159.507 187.91 159.573 188.24 159.573 188.573Z" fill="white"/>
<path fill-rule="evenodd" clip-rule="evenodd" d="M159.573 211.266C159.565 211.933 159.294 212.57 158.819 213.039C158.345 213.508 157.704 213.77 157.037 213.77C156.415 213.703 155.84 213.409 155.422 212.944C155.004 212.479 154.773 211.876 154.773 211.251C154.773 210.626 155.004 210.023 155.422 209.558C155.84 209.093 156.415 208.799 157.037 208.731C157.709 208.731 158.354 208.998 158.83 209.474C159.305 209.949 159.573 210.594 159.573 211.266Z" fill="white"/>
<path fill-rule="evenodd" clip-rule="evenodd" d="M102.035 203.367H128.429V195.057H102.36L102.035 203.367Z" fill="white"/>
<path fill-rule="evenodd" clip-rule="evenodd" d="M161.457 67.6234L152.964 74.4902L143.115 69.8043L141.434 55.6877L159.777 53.5068L161.457 67.6234Z" fill="#FF9486"/>
<path fill-rule="evenodd" clip-rule="evenodd" d="M170.336 488.027L176.647 528.874C176.789 530.015 177.345 531.064 178.21 531.821C179.032 532.535 180.071 532.95 181.159 533H224.834C225.48 533.004 226.117 532.853 226.692 532.558C227.275 532.267 227.773 531.831 228.137 531.291C228.512 530.767 228.754 530.16 228.845 529.522C228.924 528.877 228.853 528.221 228.638 527.607C227.488 524.66 224.628 521.506 217.756 520.033C206.344 517.616 206.314 493.244 206.638 484.962L170.336 488.027Z" fill="#35375B"/>
<path fill-rule="evenodd" clip-rule="evenodd" d="M211.297 510.66C209.54 511.383 207.908 512.378 206.461 513.607C205.871 514.108 206.697 514.933 207.286 514.462C208.651 513.253 210.193 512.259 211.857 511.515C212.565 511.368 211.975 510.366 211.297 510.66Z" fill="#35375B"/>
<path fill-rule="evenodd" clip-rule="evenodd" d="M208.819 505.828C207.018 506.405 205.387 507.417 204.071 508.775C203.986 508.888 203.945 509.028 203.955 509.17C203.965 509.311 204.026 509.445 204.126 509.545C204.226 509.645 204.36 509.706 204.501 509.716C204.643 509.726 204.783 509.685 204.897 509.6C206.067 508.367 207.527 507.445 209.143 506.918C209.851 506.682 209.527 505.563 208.819 505.769V505.828Z" fill="#35375B"/>
<path fill-rule="evenodd" clip-rule="evenodd" d="M207.315 500.759C205.974 501.213 204.688 501.816 203.481 502.557C202.832 502.969 203.481 503.971 204.071 503.588C205.194 502.889 206.391 502.316 207.639 501.879C208.347 501.643 208.052 500.523 207.315 500.759Z" fill="#35375B"/>
<path fill-rule="evenodd" clip-rule="evenodd" d="M205.871 516.555L205.606 516.319C205.554 516.263 205.489 516.221 205.417 516.195C205.345 516.169 205.268 516.161 205.193 516.172C205.051 516.171 204.914 516.224 204.809 516.319C204.698 516.428 204.635 516.577 204.632 516.732C204.591 516.866 204.591 517.01 204.632 517.145L204.898 517.38C205.002 517.476 205.139 517.529 205.281 517.528C205.437 517.525 205.585 517.462 205.694 517.351C205.788 517.242 205.849 517.109 205.871 516.968C205.912 516.833 205.912 516.69 205.871 516.555Z" fill="#35375B"/>
<path fill-rule="evenodd" clip-rule="evenodd" d="M201.359 512.223C201.483 512.183 201.594 512.112 201.683 512.017C201.724 511.892 201.724 511.758 201.683 511.634C201.724 511.519 201.724 511.394 201.683 511.28C201.603 511.175 201.488 511.102 201.359 511.074C201.219 511.095 201.093 511.169 201.005 511.28C200.962 511.394 200.962 511.52 201.005 511.634C200.962 511.758 200.962 511.893 201.005 512.017C201.1 512.119 201.223 512.191 201.359 512.223Z" fill="#35375B"/>
<path fill-rule="evenodd" clip-rule="evenodd" d="M199.854 506.859C199.916 506.849 199.974 506.826 200.025 506.79C200.076 506.754 200.119 506.707 200.149 506.653C200.187 506.538 200.187 506.414 200.149 506.299C200.195 506.186 200.195 506.059 200.149 505.946C200.079 505.837 199.976 505.754 199.854 505.71C199.728 505.761 199.617 505.842 199.53 505.946C199.495 506.061 199.495 506.184 199.53 506.299C199.504 506.416 199.504 506.536 199.53 506.653C199.61 506.758 199.725 506.831 199.854 506.859Z" fill="#35375B"/>
<path fill-rule="evenodd" clip-rule="evenodd" d="M135.477 487.998L129.136 528.874C129.008 530.019 128.45 531.072 127.573 531.821C126.755 532.541 125.713 532.957 124.624 533H80.949C80.3035 533.001 79.6669 532.849 79.0911 532.558C78.5188 532.251 78.0245 531.818 77.6461 531.29C77.2714 530.766 77.0287 530.16 76.9383 529.522C76.8687 528.874 76.9494 528.219 77.1742 527.607C78.2949 524.66 81.1554 521.506 88.0267 520.033C99.4984 517.587 99.4984 493.037 99.174 484.844L135.477 487.998Z" fill="#35375B"/>
<path fill-rule="evenodd" clip-rule="evenodd" d="M94.5148 510.66C96.2645 511.397 97.8945 512.39 99.3512 513.607C99.9115 514.108 99.0858 514.933 98.5254 514.462C97.1502 513.252 95.599 512.259 93.925 511.515C93.2172 511.368 93.807 510.366 94.5148 510.66Z" fill="#35375B"/>
<path fill-rule="evenodd" clip-rule="evenodd" d="M96.9622 505.828C98.7669 506.397 100.4 507.41 101.71 508.775C101.795 508.888 101.837 509.028 101.827 509.17C101.817 509.311 101.756 509.445 101.655 509.545C101.555 509.645 101.422 509.706 101.28 509.716C101.138 509.726 100.998 509.685 100.884 509.6C99.7187 508.361 98.2576 507.439 96.6378 506.918C95.93 506.682 96.2544 505.563 96.9622 505.769V505.828Z" fill="#35375B"/>
<path fill-rule="evenodd" clip-rule="evenodd" d="M98.4666 500.759C99.8196 501.207 101.116 501.81 102.33 502.557C102.949 502.969 102.33 503.971 101.711 503.588C100.591 502.884 99.3932 502.31 98.1422 501.879C97.4344 501.643 97.7293 500.523 98.4666 500.759Z" fill="#35375B"/>
<path fill-rule="evenodd" clip-rule="evenodd" d="M99.9418 516.555L100.178 516.319C100.229 516.263 100.294 516.221 100.366 516.195C100.438 516.169 100.515 516.161 100.591 516.172C100.666 516.163 100.743 516.17 100.816 516.195C100.888 516.22 100.954 516.261 101.008 516.315C101.062 516.369 101.103 516.435 101.128 516.507C101.153 516.579 101.16 516.656 101.151 516.732C101.203 516.864 101.203 517.012 101.151 517.145L100.915 517.38C100.796 517.472 100.652 517.523 100.502 517.528C100.358 517.514 100.223 517.451 100.121 517.349C100.018 517.247 99.9549 517.112 99.9418 516.968C99.8892 516.835 99.8892 516.688 99.9418 516.555Z" fill="#35375B"/>
<path fill-rule="evenodd" clip-rule="evenodd" d="M104.453 512.223C104.317 512.191 104.194 512.119 104.099 512.017C104.056 511.893 104.056 511.758 104.099 511.634C104.056 511.52 104.056 511.394 104.099 511.28C104.186 511.169 104.313 511.095 104.453 511.074C104.582 511.102 104.697 511.175 104.777 511.28C104.817 511.394 104.817 511.519 104.777 511.634C104.817 511.758 104.817 511.892 104.777 512.017C104.688 512.112 104.576 512.183 104.453 512.223Z" fill="#35375B"/>
<path fill-rule="evenodd" clip-rule="evenodd" d="M105.96 506.859C105.895 506.849 105.832 506.826 105.776 506.791C105.72 506.755 105.673 506.708 105.636 506.653C105.598 506.538 105.598 506.414 105.636 506.299C105.59 506.186 105.59 506.059 105.636 505.946C105.718 505.836 105.831 505.754 105.96 505.71C106.082 505.754 106.186 505.837 106.255 505.946C106.301 506.059 106.301 506.186 106.255 506.299C106.294 506.414 106.294 506.538 106.255 506.653C106.225 506.707 106.183 506.754 106.132 506.79C106.08 506.826 106.022 506.849 105.96 506.859Z" fill="#35375B"/>
<path fill-rule="evenodd" clip-rule="evenodd" d="M188.737 78.8817C185.582 78.4101 200.799 93.8529 198.41 95.8864C197.033 97.2676 196.019 98.9688 195.461 100.838C193.39 106.795 193.103 113.227 194.635 119.345C195.874 124.621 195.314 130.367 199.531 134.523C202.863 137.794 244.946 160.104 246.715 160.192C244.297 160.192 238.664 166.764 237.042 168.414C231.587 174.043 206.609 194.938 209.587 197.65C212.566 200.361 231.026 221.993 234.359 220.49C239.077 218.338 298.825 162.609 299.237 149.759C251.906 107.203 211.71 82.2414 188.737 78.8817Z" fill="#35375B"/>
<path fill-rule="evenodd" clip-rule="evenodd" d="M210.002 197.415C209.288 198.058 208.367 198.424 207.407 198.446C206.513 198.21 205.73 197.667 205.195 196.914C205.46 198.033 205.726 198.977 205.844 199.861C206.108 201.466 205.903 203.113 205.254 204.605C204.261 207.091 202.742 209.333 200.801 211.178C194.277 217.749 186.368 222.783 177.651 225.913C176.391 226.269 175.174 226.763 174.024 227.387C172.962 228.035 170.013 231.247 172.962 231.336C176.478 231.429 179.979 230.859 183.284 229.656C186.439 228.565 189.624 225.825 192.956 225.677C192.485 228.624 189.506 230.481 186.734 231.571C183.371 232.982 179.873 234.048 176.294 234.754C174.879 235.02 173.109 235.638 173.05 237.053C173.077 237.518 173.261 237.961 173.571 238.309C173.882 238.657 174.301 238.889 174.761 238.969C175.676 239.126 176.616 239.066 177.503 238.792C184.127 237.172 190.442 234.484 196.2 230.835C196.529 231.037 196.771 231.354 196.88 231.724C196.989 232.094 196.957 232.491 196.79 232.839C196.446 233.521 195.927 234.101 195.286 234.519C191.374 237.572 186.992 239.97 182.31 241.621C181.367 241.916 180.217 242.505 180.335 243.478C180.453 244.45 182.104 244.715 183.284 244.48C190.051 242.935 196.464 240.125 202.187 236.198C202.452 236.454 202.62 236.793 202.663 237.158C202.706 237.524 202.621 237.893 202.423 238.202C201.993 238.803 201.44 239.306 200.801 239.676C198.177 241.199 195.921 243.282 194.195 245.776C191.747 250.728 199.031 246.749 200.683 245.482C206.989 240.497 212.31 234.38 216.372 227.445C218.933 222.816 221.894 218.418 225.219 214.301L225.573 213.889C219.557 207.906 213.511 201.246 210.002 197.415Z" fill="#FFA17A"/>
<path fill-rule="evenodd" clip-rule="evenodd" d="M229.11 175.989L207.199 196.088C213.844 207.438 223.608 216.644 235.333 222.612L258.925 198.622L229.11 175.989Z" fill="white"/>
<path fill-rule="evenodd" clip-rule="evenodd" d="M229.141 176.931L208.115 196.235C211.056 201.409 214.787 206.092 219.173 210.116C223.999 214.63 229.38 218.512 235.187 221.668L257.806 198.652L229.141 176.931ZM206.699 195.528L229.053 174.898L260.017 198.475L235.481 223.437L234.98 223.171C228.897 219.932 223.265 215.91 218.23 211.206C213.523 206.967 209.539 201.99 206.434 196.471V195.911L206.699 195.528Z" fill="#35375B"/>
<path fill-rule="evenodd" clip-rule="evenodd" d="M240.964 208.318C241.181 209.069 241.169 209.868 240.93 210.613C240.691 211.358 240.237 212.015 239.624 212.501C239.011 212.987 238.267 213.281 237.487 213.344C236.707 213.408 235.926 213.238 235.242 212.857C234.559 212.477 234.004 211.901 233.648 211.205C233.291 210.509 233.15 209.722 233.242 208.946C233.334 208.169 233.654 207.437 234.163 206.843C234.671 206.248 235.345 205.818 236.099 205.607C237.104 205.325 238.179 205.452 239.091 205.96C240.003 206.468 240.676 207.315 240.964 208.318Z" fill="#35375B"/>
<path fill-rule="evenodd" clip-rule="evenodd" d="M19.2571 335.014H38.0424V329.12C38.0578 326.636 39.0499 324.259 40.8044 322.5C42.5589 320.741 44.9353 319.742 47.4204 319.719H71.0126C73.5024 319.727 75.8877 320.72 77.6455 322.483C79.4034 324.245 80.3905 326.632 80.3905 329.12V335.014H99.2053C104.308 335.03 109.197 337.062 112.805 340.668C116.413 344.274 118.447 349.16 118.462 354.259V393.485C118.447 398.584 116.413 403.47 112.805 407.075C109.197 410.681 104.308 412.714 99.2053 412.729H19.2571C14.1546 412.714 9.26552 410.681 5.65747 407.075C2.04942 403.47 0.0155566 398.584 0 393.485L0 354.259C0.0155566 349.16 2.04942 344.274 5.65747 340.668C9.26552 337.062 14.1546 335.03 19.2571 335.014ZM45.4445 335.014H73.0179V329.12C73.0213 328.594 72.8205 328.087 72.4576 327.705C72.0728 327.348 71.5675 327.148 71.0421 327.145H47.4498C46.9323 327.143 46.4346 327.345 46.0638 327.705C45.6927 328.084 45.4815 328.59 45.474 329.12L45.4445 335.014Z" fill="#35375B"/>
<path fill-rule="evenodd" clip-rule="evenodd" d="M135.832 46.2275L137.719 67.4172L149.191 73.8713L137.719 67.4172C137.719 67.4172 131.821 126.949 149.191 151.91C166.62 126.949 170.041 73.8124 170.041 73.8124C170.041 73.8124 168.124 53.1827 167.799 52.9174C167.475 52.6522 135.832 46.2275 135.832 46.2275Z" fill="#E3E3E3"/>
<path fill-rule="evenodd" clip-rule="evenodd" d="M135.832 46.2275L137.424 63.9101C137.914 65.4613 138.753 66.8794 139.878 68.0547C141.003 69.23 142.383 70.1312 143.912 70.6884C146.006 71.4252 149.014 76.4353 152.966 75.7574C160.368 74.4902 169.362 66.5625 169.362 66.5625C169.362 66.5625 168.094 53.2122 167.799 53.0059C167.505 52.7996 135.832 46.2275 135.832 46.2275Z" fill="#35375B"/>
<path fill-rule="evenodd" clip-rule="evenodd" d="M161.016 21.6779C160.013 25.4208 158.067 37.5628 165.262 39.3605C172.458 41.1583 178.68 32.9948 181.452 26.3933C184.401 19.0256 178.356 8.09183 166.884 5.94045C159.718 4.52585 162.814 15.0765 161.016 21.6779Z" fill="#35375B"/>
<path fill-rule="evenodd" clip-rule="evenodd" d="M176.324 17.641C176.649 21.9732 178.477 31.3155 178.418 35.1468C178.359 38.978 175.764 55.7765 173.375 60.7276C170.102 67.4764 150.048 65.2956 145.389 62.4369C138.724 58.3994 138.223 46.4636 138.223 46.4636C138.223 46.4636 140.169 16.9927 139.845 17.3758C139.52 17.7589 176.324 17.641 176.324 17.641Z" fill="#FFA17A"/>
<path fill-rule="evenodd" clip-rule="evenodd" d="M144.766 11.5112C144.117 16.4034 153.613 24.0658 162.018 24.891C165.136 25.4219 168.341 25.0165 171.228 23.7259C174.116 22.4354 176.555 20.3178 178.237 17.6412C181.186 12.4248 175.554 1.69739 163.05 0.25331C147.862 -1.54442 145.415 6.64851 144.766 11.5112Z" fill="#35375B"/>
<path fill-rule="evenodd" clip-rule="evenodd" d="M130.022 16.1969C128.489 19.8218 129.491 34.0858 136.569 35.7951C143.647 37.5044 153.555 28.3979 154.853 21.4427C155.59 17.5525 156.563 7.79765 149.486 6.05887C145.568 5.21683 141.478 5.76908 137.924 7.62019C134.371 9.4713 131.575 12.5049 130.022 16.1969Z" fill="#35375B"/>
<path fill-rule="evenodd" clip-rule="evenodd" d="M160.693 36.5318C160.833 36.515 160.968 36.4697 161.089 36.3987C161.211 36.3278 161.317 36.2327 161.401 36.1193C161.578 35.8941 161.663 35.6093 161.636 35.3237C161.585 35.0389 161.44 34.7796 161.224 34.587C160.995 34.4171 160.71 34.343 160.427 34.3807L156.299 34.7343C156.156 34.7418 156.016 34.7799 155.888 34.8459C155.761 34.912 155.65 35.0046 155.561 35.1174C155.473 35.2229 155.406 35.345 155.366 35.4766C155.325 35.6082 155.312 35.7466 155.326 35.8835C155.333 36.0266 155.371 36.1664 155.437 36.2934C155.503 36.4205 155.596 36.532 155.709 36.6202C155.809 36.7186 155.93 36.7935 156.062 36.8394C156.195 36.8853 156.336 36.901 156.476 36.8854L160.634 36.5318H160.693Z" fill="#35375B"/>
<path fill-rule="evenodd" clip-rule="evenodd" d="M157.361 36.7089C157.333 36.8746 157.333 37.0441 157.361 37.2098C157.389 37.377 157.449 37.5372 157.538 37.6813C157.622 37.8277 157.732 37.9575 157.863 38.0644C158.004 38.1718 158.164 38.2518 158.334 38.3001C158.635 38.3834 158.954 38.3732 159.249 38.2706C159.547 38.0846 159.759 37.7878 159.838 37.4456C159.884 37.2816 159.884 37.1085 159.838 36.9446C159.877 36.7898 159.877 36.6279 159.838 36.4731C159.747 36.3325 159.638 36.2039 159.514 36.09C159.371 35.9918 159.211 35.9218 159.042 35.8838C158.698 35.8269 158.344 35.8893 158.04 36.0606C157.748 36.2397 157.536 36.5249 157.45 36.8562L157.361 36.7089Z" fill="#35375B"/>
<path fill-rule="evenodd" clip-rule="evenodd" d="M174.67 36.5611C174.813 36.5614 174.955 36.5329 175.086 36.4772C175.218 36.4215 175.337 36.3398 175.437 36.2369C175.62 36.0111 175.723 35.7316 175.732 35.4413C175.717 35.1546 175.592 34.8847 175.383 34.6873C175.175 34.4899 174.898 34.38 174.611 34.3804L170.423 34.1742C170.279 34.1307 170.125 34.1307 169.981 34.1742C169.851 34.22 169.731 34.29 169.627 34.3804C169.507 34.4709 169.415 34.5935 169.362 34.7341C169.265 35.0006 169.265 35.2926 169.362 35.5592C169.401 35.7008 169.471 35.8318 169.568 35.9422L169.922 36.2074C170.058 36.2379 170.199 36.2379 170.335 36.2074L174.523 36.4432L174.67 36.5611Z" fill="#35375B"/>
<path fill-rule="evenodd" clip-rule="evenodd" d="M173.992 36.5319C174.033 36.8794 173.936 37.2294 173.72 37.5054C173.505 37.7814 173.189 37.9611 172.841 38.0053H172.34C172.179 37.9562 172.028 37.8761 171.898 37.7695C171.751 37.6723 171.629 37.5409 171.544 37.3864C171.527 37.2297 171.527 37.0717 171.544 36.915C171.525 36.7414 171.541 36.5658 171.592 36.3987C171.643 36.2316 171.727 36.0764 171.839 35.9425C172.047 35.6649 172.352 35.4756 172.694 35.4121H173.195C173.359 35.4543 173.511 35.5351 173.638 35.6479C173.784 35.7339 173.905 35.8556 173.992 36.0015C174.025 36.1767 174.025 36.3567 173.992 36.5319Z" fill="#35375B"/>
<path fill-rule="evenodd" clip-rule="evenodd" d="M166.68 49.3807C167.991 49.3283 169.246 48.8409 170.248 47.9955C170.557 47.7112 170.79 47.3556 170.929 46.96C171.068 46.5643 171.108 46.1407 171.045 45.7263C170.9 44.6894 170.56 43.6894 170.042 42.7792C168.261 39.2029 167.496 35.2071 167.83 31.2265C167.825 30.939 167.708 30.6646 167.506 30.4603C167.412 30.3583 167.298 30.2768 167.171 30.221C167.044 30.1652 166.907 30.1363 166.769 30.1361C166.633 30.1057 166.492 30.1057 166.356 30.1361C166.217 30.1783 166.094 30.2603 166.002 30.3719C165.889 30.4508 165.806 30.5648 165.766 30.6961C165.741 30.8325 165.741 30.9723 165.766 31.1087C165.371 35.4757 166.176 39.8676 168.096 43.8106C168.477 44.4793 168.746 45.2061 168.892 45.962C168.921 46.048 168.921 46.1413 168.892 46.2273C168.912 46.2945 168.912 46.3663 168.892 46.4336C167.051 47.2896 164.985 47.5373 162.994 47.1409H162.198L161.814 47.3472C161.695 47.426 161.603 47.539 161.549 47.6713C161.52 47.8074 161.52 47.9479 161.549 48.0839C161.533 48.221 161.533 48.3595 161.549 48.4965C161.6 48.6331 161.669 48.762 161.755 48.8797C161.852 48.9933 161.973 49.0839 162.109 49.1449C162.243 49.1878 162.388 49.1878 162.522 49.1449C163.896 49.3708 165.29 49.4498 166.68 49.3807Z" fill="#35375B"/>
<path fill-rule="evenodd" clip-rule="evenodd" d="M164.085 54.7742H164.528C164.667 54.7465 164.799 54.6903 164.916 54.6092C165.033 54.5281 165.131 54.4237 165.206 54.3027C165.247 54.1682 165.247 54.0246 165.206 53.8901C165.235 53.7542 165.235 53.6135 165.206 53.4776C165.228 53.318 165.208 53.1553 165.147 53.0061C165.08 52.8805 164.978 52.7778 164.852 52.7114C164.605 52.5602 164.31 52.5076 164.026 52.5641C162.764 52.7752 161.468 52.5015 160.399 51.798C160.166 51.6384 159.881 51.575 159.603 51.6211C159.461 51.6432 159.325 51.6938 159.204 51.7697C159.082 51.8457 158.977 51.9455 158.895 52.0632C158.809 52.1805 158.749 52.3146 158.718 52.4568C158.688 52.599 158.688 52.746 158.718 52.8883C158.769 53.1721 158.927 53.4254 159.16 53.5955C160.607 54.54 162.34 54.9467 164.056 54.7447L164.085 54.7742Z" fill="#35375B"/>
<path fill-rule="evenodd" clip-rule="evenodd" d="M135.656 47.819C141.318 48.0548 141.554 37.7105 141.554 37.7105C141.554 37.7105 137.868 30.2838 132.707 30.048C122.209 29.6649 129.581 47.5833 135.656 47.819Z" fill="#FFA17A"/>
<path fill-rule="evenodd" clip-rule="evenodd" d="M136.361 43.3692C136.65 43.3301 136.914 43.1826 137.098 42.9566C137.266 42.7271 137.339 42.4427 137.305 42.1609C137.119 40.4014 136.555 38.7027 135.653 37.1803C134.798 35.6498 133.621 34.3227 132.203 33.2901C132.088 33.2074 131.957 33.1474 131.82 33.1133H131.377C131.237 33.1415 131.106 33.2021 130.994 33.2901C130.873 33.3758 130.773 33.4864 130.699 33.6143C130.611 33.7264 130.55 33.8577 130.522 33.9974C130.493 34.1433 130.493 34.2936 130.522 34.4395C130.55 34.5792 130.611 34.7104 130.699 34.8226C130.785 34.9423 130.896 35.0427 131.023 35.1173C132.195 35.9565 133.18 37.0304 133.913 38.2707C134.612 39.535 135.044 40.9293 135.182 42.3672C135.217 42.6422 135.354 42.8943 135.565 43.0745C135.792 43.2494 136.076 43.3335 136.361 43.3102V43.3692Z" fill="#35375B"/>
<path fill-rule="evenodd" clip-rule="evenodd" d="M135.302 39.5381C135.441 39.538 135.578 39.5091 135.705 39.4533C135.832 39.3975 135.946 39.316 136.04 39.214C136.244 38.999 136.36 38.7149 136.364 38.4184C136.34 38.1294 136.214 37.8583 136.01 37.6522C135.798 37.4653 135.526 37.3608 135.243 37.3575L130.672 37.0039H130.23L129.847 37.2102C129.726 37.3075 129.626 37.4277 129.552 37.5638C129.535 37.7008 129.535 37.8393 129.552 37.9763C129.537 38.1233 129.537 38.2714 129.552 38.4184C129.601 38.5618 129.682 38.6926 129.788 38.8014C129.889 38.9031 130.009 38.9833 130.142 39.0372C130.278 39.0667 130.418 39.0667 130.554 39.0372L135.155 39.3613L135.302 39.5381Z" fill="#35375B"/>
<path fill-rule="evenodd" clip-rule="evenodd" d="M140.906 32.3769C143.618 31.224 145.999 29.4124 147.832 27.1067C149.665 24.8011 150.893 22.0743 151.405 19.1739C151.458 18.8901 151.406 18.5965 151.257 18.3487C151.099 18.1176 150.855 17.9587 150.579 17.9067C150.313 17.8045 150.019 17.8045 149.753 17.9067C149.513 18.0756 149.345 18.3278 149.281 18.614C148.869 21.0897 147.856 23.4269 146.332 25.4218C144.769 27.4319 142.747 29.0387 140.434 30.1077C140.323 30.1195 140.216 30.1544 140.12 30.2103C140.023 30.2661 139.94 30.3416 139.874 30.4318C139.732 30.5998 139.64 30.8039 139.609 31.0213C139.547 31.223 139.547 31.4384 139.609 31.6402C139.708 31.8364 139.861 32 140.051 32.1117C140.254 32.1683 140.468 32.1683 140.67 32.1117L140.906 32.3769Z" fill="#E3E3E3"/>
<path fill-rule="evenodd" clip-rule="evenodd" d="M139.192 26.4824C139.35 26.4737 139.503 26.4228 139.635 26.3351C141.234 25.3111 142.547 23.8975 143.45 22.2272C144.353 20.5569 144.816 18.6847 144.796 16.7865C144.803 16.6452 144.781 16.5039 144.73 16.3718C144.679 16.2397 144.601 16.1199 144.501 16.0202C144.4 15.9213 144.28 15.8441 144.148 15.7934C144.016 15.7427 143.875 15.7196 143.734 15.7255C143.452 15.7434 143.187 15.8702 142.997 16.0792C142.798 16.2955 142.692 16.5813 142.702 16.8749C142.695 18.3688 142.317 19.8377 141.601 21.1494C140.886 22.4611 139.855 23.5747 138.603 24.39C138.401 24.5265 138.246 24.7221 138.16 24.9499C138.087 25.1901 138.087 25.4465 138.16 25.6867C138.25 25.9209 138.416 26.1181 138.632 26.2467C138.84 26.3848 139.094 26.4375 139.34 26.394L139.192 26.4824Z" fill="#E3E3E3"/>
<path fill-rule="evenodd" clip-rule="evenodd" d="M175.615 32.9951C175.76 32.99 175.903 32.9561 176.034 32.8954C176.166 32.8347 176.284 32.7484 176.382 32.6415C176.481 32.5408 176.558 32.4208 176.609 32.289C176.66 32.1572 176.683 32.0164 176.677 31.8753C176.672 31.7305 176.638 31.5882 176.577 31.4567C176.516 31.3251 176.43 31.207 176.323 31.1092C176.222 31.0102 176.102 30.933 175.97 30.8823C175.838 30.8316 175.697 30.8086 175.556 30.8145L166.709 30.2252C166.563 30.1958 166.413 30.1958 166.267 30.2252L165.913 30.4609C165.801 30.5469 165.71 30.6579 165.648 30.785C165.638 30.9224 165.638 31.0602 165.648 31.1976C165.633 31.3446 165.633 31.4926 165.648 31.6396C165.698 31.7761 165.768 31.905 165.854 32.0227C165.96 32.1179 166.079 32.1973 166.208 32.2584C166.342 32.3013 166.486 32.3013 166.621 32.2584L175.468 32.8772L175.615 32.9951Z" fill="#35375B"/>
<path fill-rule="evenodd" clip-rule="evenodd" d="M153.35 33.1427L161.165 32.1998C161.44 32.1641 161.693 32.0276 161.873 31.8167C162.048 31.5901 162.132 31.3064 162.109 31.0211C162.057 30.7363 161.912 30.477 161.696 30.2844C161.471 30.1068 161.186 30.0224 160.9 30.0486L153.114 30.9916C152.969 31.0045 152.829 31.0479 152.702 31.119C152.574 31.1901 152.464 31.2873 152.377 31.4041C152.285 31.5126 152.218 31.6405 152.183 31.7783C152.147 31.9161 152.143 32.0602 152.171 32.1998C152.206 32.4748 152.343 32.7268 152.554 32.907C152.781 33.0819 153.065 33.166 153.35 33.1427Z" fill="#35375B"/>
<path fill-rule="evenodd" clip-rule="evenodd" d="M75.4936 301.711L37.7461 297.615C37.7461 311.849 40.6951 332.508 58.6547 332.98C79.8287 333.127 73.1639 313.411 75.4936 301.711Z" fill="#FFA17A"/>
<path fill-rule="evenodd" clip-rule="evenodd" d="M45.1194 318.245C44.8379 318.167 44.5989 317.98 44.4551 317.726C44.3113 317.472 44.2745 317.171 44.3527 316.889C44.4309 316.608 44.6178 316.369 44.8722 316.226C45.1266 316.082 45.4277 316.045 45.7093 316.123C49.5592 317.152 53.5207 317.706 57.5054 317.773C61.7278 317.885 65.9498 317.539 70.0977 316.742C70.2391 316.713 70.3847 316.712 70.5265 316.739C70.6682 316.767 70.8031 316.821 70.9236 316.901C71.0441 316.98 71.1478 317.082 71.2287 317.202C71.3096 317.321 71.3662 317.455 71.3953 317.597C71.4243 317.738 71.4252 317.883 71.398 318.025C71.3707 318.167 71.3158 318.301 71.2364 318.422C71.157 318.542 71.0546 318.646 70.9351 318.727C70.8157 318.808 70.6814 318.864 70.5401 318.893C66.2372 319.724 61.8571 320.09 57.4759 319.983C53.3032 319.889 49.156 319.305 45.1194 318.245Z" fill="#35375B"/>
<path fill-rule="evenodd" clip-rule="evenodd" d="M169.244 65.2656L153.496 75.1679L171.603 90.1096C170.63 75.1973 169.244 65.2656 169.244 65.2656Z" fill="white"/>
<path fill-rule="evenodd" clip-rule="evenodd" d="M137.777 65.2656L153.496 75.1679L135.418 90.1096C136.391 75.1973 137.777 65.2656 137.777 65.2656Z" fill="white"/>
<path fill-rule="evenodd" clip-rule="evenodd" d="M158.836 78.1448C155.383 81.5705 151.124 84.0737 146.45 85.4241C137.685 91.3026 129.92 98.5459 123.447 106.879C117.726 114.07 113.48 122.292 108.142 129.778C103.734 135.169 97.9299 139.246 91.3621 141.566C82.6085 145.286 73.4554 147.986 64.0836 149.612L54.6172 140.152L65.4991 127.509C65.4991 127.509 87.9412 132.047 103.365 113.834C118.788 95.6211 133.445 85.7188 145.034 80.974L147.099 75.6103L151.493 71.9854L158.836 78.1448Z" fill="#FC4C00"/>
<path fill-rule="evenodd" clip-rule="evenodd" d="M147.836 151.91V85.1882C148.719 84.9539 149.577 84.6382 150.402 84.2451V152.028L147.836 151.91Z" fill="white"/>
</svg>
