<svg width="17" height="18" viewBox="0 0 17 18" fill="none" xmlns="http://www.w3.org/2000/svg">
<path d="M9.74254 2.0625C10.3882 2.0625 10.6739 2.06307 10.9096 2.08416C13.5296 2.31874 15.606 4.39513 15.8405 7.01511C15.8616 7.25076 15.8622 7.53651 15.8622 8.18216V8.92462C15.8622 9.23528 16.114 9.48712 16.4247 9.48712C16.7354 9.48712 16.9872 9.23528 16.9872 8.92462V8.14433C16.9872 7.54666 16.9872 7.207 16.9611 6.91478C16.6779 3.75274 14.172 1.24675 11.0099 0.963647C10.7177 0.937483 10.378 0.937489 9.7803 0.9375H9.00008C8.68942 0.9375 8.43758 1.18934 8.43758 1.5C8.43758 1.81066 8.68942 2.0625 9.00008 2.0625L9.74254 2.0625Z" fill="white"/>
<path fill-rule="evenodd" clip-rule="evenodd" d="M5.33387 3.01897C4.54481 2.29392 3.33194 2.29392 2.54288 3.01897C2.51056 3.04867 2.47607 3.08317 2.43128 3.12797L1.75815 3.8011C1.08081 4.47844 0.796471 5.45487 1.00427 6.38996C2.18324 11.6954 6.32665 15.8388 11.632 17.0177C12.5671 17.2255 13.5436 16.9412 14.2209 16.2639L14.894 15.5908C14.9388 15.546 14.9733 15.5115 15.003 15.4791C15.7281 14.6901 15.7281 13.4772 15.003 12.6881C14.9733 12.6558 14.9388 12.6213 14.894 12.5765L13.792 11.4745C13.0269 10.7094 11.8715 10.4906 10.8797 10.923C10.3119 11.1705 9.6504 11.0452 9.2124 10.6072L7.41479 8.8096C6.97679 8.3716 6.85152 7.71014 7.09904 7.14231C7.53138 6.15046 7.31257 4.99507 6.54749 4.22999L5.44549 3.12799C5.40069 3.08318 5.36619 3.04867 5.33387 3.01897ZM3.30406 3.84736C3.66272 3.5178 4.21403 3.5178 4.57269 3.84736C4.58507 3.85874 4.6013 3.87479 4.65835 3.93184L5.752 5.02549C6.19 5.46349 6.31527 6.12495 6.06775 6.69278C5.63541 7.68462 5.85422 8.84002 6.6193 9.6051L8.41691 11.4027C9.18198 12.1678 10.3374 12.3866 11.3292 11.9542C11.8971 11.7067 12.5585 11.832 12.9965 12.27L14.0902 13.3637C14.1472 13.4207 14.1633 13.4369 14.1746 13.4493C14.5042 13.808 14.5042 14.3593 14.1746 14.7179C14.1633 14.7303 14.1472 14.7466 14.0902 14.8036L13.4254 15.4684C13.0201 15.8737 12.4357 16.0439 11.8761 15.9195C6.99709 14.8353 3.1867 11.0249 2.10248 6.14591C1.97812 5.58631 2.14829 5.00195 2.55364 4.5966L3.2184 3.93184C3.27545 3.87479 3.29168 3.85874 3.30406 3.84736Z" fill="white"/>
<path d="M9.53033 3.58915C9.21967 3.58915 8.96783 3.84099 8.96783 4.15165C8.96783 4.46231 9.21967 4.71415 9.53033 4.71415H9.95459C9.96277 4.71415 9.97035 4.71415 9.97738 4.71415C10.0266 4.71416 10.0495 4.7142 10.0686 4.71448C11.7933 4.73918 13.1854 6.13132 13.2101 7.856C13.2105 7.87781 13.2105 7.9046 13.2105 7.97003V8.39429C13.2105 8.70495 13.4623 8.95679 13.773 8.95679C14.0836 8.95679 14.3355 8.70495 14.3355 8.39429V7.96458C14.3355 7.9573 14.3355 7.95037 14.3355 7.94376C14.3355 7.8975 14.3354 7.86696 14.335 7.83989C14.3016 5.5065 12.4181 3.62301 10.0847 3.58959C10.0538 3.58915 10.0183 3.58915 9.96001 3.58915H9.53033Z" fill="white"/>
</svg>
