<svg width="20" height="20" viewBox="0 0 20 20" fill="none" xmlns="http://www.w3.org/2000/svg">
<path d="M9.79351 8.09823C9.77872 8.08635 9.76422 8.07487 9.75 8.06379V15C9.75 15.4142 9.41421 15.75 9 15.75C8.58579 15.75 8.25 15.4142 8.25 15V8.06379C8.23578 8.07487 8.22128 8.08635 8.20649 8.09823C7.88386 8.35733 7.50033 8.74268 6.93054 9.31758L5.53269 10.728C5.24111 11.0222 4.76624 11.0243 4.47204 10.7327C4.17784 10.4411 4.17573 9.96624 4.46731 9.67204L5.89565 8.2309C6.42704 7.69472 6.87022 7.24753 7.26724 6.92869C7.68367 6.59426 8.12131 6.33989 8.65451 6.27193C8.88392 6.24269 9.11608 6.24269 9.3455 6.27193C9.87869 6.33989 10.3163 6.59427 10.7328 6.92869C11.1298 7.24753 11.573 7.69472 12.1043 8.23089L13.5327 9.67204C13.8243 9.96624 13.8222 10.4411 13.528 10.7327C13.2338 11.0243 12.7589 11.0222 12.4673 10.728L11.0695 9.31758C10.4997 8.74268 10.1161 8.35733 9.79351 8.09823Z" fill="#FD4C00"/>
<path fill-rule="evenodd" clip-rule="evenodd" d="M13.0257 0.279369C12.1685 0.25 11.1711 0.25 10.0111 0.25H9.95475C8.11821 0.249992 6.67861 0.249985 5.53648 0.373728C4.37094 0.500006 3.42656 0.762324 2.62024 1.34815C2.13209 1.70281 1.70281 2.13209 1.34815 2.62024C0.762324 3.42656 0.500006 4.37094 0.373728 5.53648C0.249985 6.67861 0.249992 8.11821 0.25 9.95475V10.0452C0.249992 11.8818 0.249985 13.3214 0.373728 14.4635C0.500006 15.6291 0.762324 16.5734 1.34815 17.3798C1.70281 17.8679 2.13209 18.2972 2.62024 18.6518C3.42656 19.2377 4.37094 19.5 5.53648 19.6263C6.67859 19.75 8.11817 19.75 9.95465 19.75H10.0453C11.8818 19.75 13.3214 19.75 14.4635 19.6263C15.6291 19.5 16.5734 19.2377 17.3798 18.6518C17.8679 18.2972 18.2972 17.8679 18.6518 17.3798C19.2377 16.5734 19.5 15.6291 19.6263 14.4635C19.75 13.3214 19.75 11.8818 19.75 10.0453V9.98899C19.75 8.82891 19.75 7.83153 19.7206 6.97432C19.6564 5.10087 19.4537 3.7239 18.6518 2.62024C18.2972 2.13209 17.8679 1.70281 17.3798 1.34815C16.2761 0.546296 14.8991 0.343555 13.0257 0.279369ZM3.50191 2.56168C4.00992 2.19259 4.66013 1.97745 5.69804 1.865C6.74999 1.75103 8.10843 1.75 10 1.75C10.8483 1.75 11.5918 1.75005 12.2518 1.76082C12.2562 2.23547 12.271 2.58489 12.3208 2.8995C12.7105 5.35988 14.6401 7.28952 17.1005 7.67921C17.4151 7.72904 17.7645 7.74381 18.2392 7.74818C18.25 8.40822 18.25 9.15165 18.25 10C18.25 11.8916 18.249 13.25 18.135 14.302C18.0225 15.3399 17.8074 15.9901 17.4383 16.4981C17.1762 16.8589 16.8589 17.1762 16.4981 17.4383C15.9901 17.8074 15.3399 18.0225 14.302 18.135C13.25 18.249 11.8916 18.25 10 18.25C8.10843 18.25 6.74999 18.249 5.69804 18.135C4.66013 18.0225 4.00992 17.8074 3.50191 17.4383C3.14111 17.1762 2.82382 16.8589 2.56168 16.4981C2.19259 15.9901 1.97745 15.3399 1.865 14.302C1.75103 13.25 1.75 11.8916 1.75 10C1.75 8.10843 1.75103 6.74999 1.865 5.69804C1.97745 4.66013 2.19259 4.00992 2.56168 3.50191C2.82382 3.14111 3.14111 2.82382 3.50191 2.56168ZM13.8023 2.66485C13.7699 2.45981 13.7575 2.22238 13.7528 1.81744C15.1131 1.91121 15.8986 2.12615 16.4981 2.56168C16.8589 2.82382 17.1762 3.14111 17.4383 3.50191C17.8738 4.10137 18.0888 4.88688 18.1826 6.24722C17.7776 6.24254 17.5402 6.23015 17.3352 6.19768C15.5166 5.90965 14.0904 4.48339 13.8023 2.66485Z" fill="#FD4C00"/>
</svg>
