<svg width="26" height="26" viewBox="0 0 26 26" fill="none" xmlns="http://www.w3.org/2000/svg">
<path fill-rule="evenodd" clip-rule="evenodd" d="M13.9375 4.25C13.9375 3.73223 13.5178 3.3125 13 3.3125C12.4822 3.3125 12.0625 3.73223 12.0625 4.25V4.63509C11.654 4.73756 11.2532 4.89766 10.8716 5.11799C7.46927 7.08233 7.90171 12.1236 11.5889 13.4798L12.0626 13.6541L12.0625 19.5243C11.3939 19.3357 10.7965 18.8963 10.4225 18.2484L9.95304 17.4353C9.69415 16.9869 9.12079 16.8333 8.67239 17.0922C8.22399 17.3511 8.07035 17.9244 8.32924 18.3728L8.79869 19.1859C9.52178 20.4384 10.7408 21.2245 12.0625 21.4419L12.0625 21.75C12.0625 22.2678 12.4822 22.6875 13 22.6875C13.5178 22.6875 13.9375 22.2678 13.9375 21.75L13.9375 21.3649C14.346 21.2625 14.7469 21.1024 15.1285 20.882C18.5309 18.9177 18.0984 13.8764 14.4113 12.5202L13.9376 12.3459L13.9375 6.47566C14.6062 6.66422 15.2036 7.10372 15.5776 7.75156L16.0471 8.56468C16.306 9.01308 16.8793 9.16672 17.3277 8.90783C17.7761 8.64895 17.9298 8.07558 17.6709 7.62718L17.2014 6.81406C16.4783 5.5616 15.2592 4.77542 13.9375 4.55813V4.25ZM11.8091 6.74179C11.8923 6.69374 11.9769 6.65055 12.0625 6.61211L12.0626 11.65C10.0287 10.7519 9.83818 7.8797 11.8091 6.74179ZM13.9375 19.3879L13.9376 14.35C15.9714 15.2481 16.162 18.1203 14.191 19.2582C14.1078 19.3063 14.0232 19.3495 13.9375 19.3879Z" fill="#FD4C00"/>
<path fill-rule="evenodd" clip-rule="evenodd" d="M18.5794 0.96716C17.1517 0.812482 15.3522 0.81249 13.0566 0.8125H12.9434C10.6478 0.81249 8.84827 0.812482 7.4206 0.96716C5.96367 1.12501 4.7832 1.45291 3.77529 2.18519C3.16511 2.62851 2.62851 3.16511 2.18519 3.77529C1.45291 4.7832 1.12501 5.96367 0.96716 7.4206C0.812482 8.84826 0.81249 10.6478 0.8125 12.9434V13.0566C0.81249 15.3522 0.812482 17.1517 0.96716 18.5794C1.12501 20.0363 1.45291 21.2168 2.18519 22.2247C2.62851 22.8349 3.16511 23.3715 3.77529 23.8148C4.7832 24.5471 5.96367 24.875 7.4206 25.0328C8.84824 25.1875 10.6477 25.1875 12.9433 25.1875H13.0566C15.3522 25.1875 17.1518 25.1875 18.5794 25.0328C20.0363 24.875 21.2168 24.5471 22.2247 23.8148C22.8349 23.3715 23.3715 22.8349 23.8148 22.2247C24.5471 21.2168 24.875 20.0363 25.0328 18.5794C25.1875 17.1518 25.1875 15.3523 25.1875 13.0567V12.9434C25.1875 10.6478 25.1875 8.84824 25.0328 7.4206C24.875 5.96367 24.5471 4.7832 23.8148 3.77529C23.3715 3.16511 22.8349 2.62851 22.2247 2.18519C21.2168 1.45291 20.0363 1.12501 18.5794 0.96716ZM4.87739 3.7021C5.5124 3.24074 6.32517 2.97181 7.62256 2.83125C8.93749 2.68879 10.6355 2.6875 13 2.6875C15.3645 2.6875 17.0625 2.68879 18.3774 2.83125C19.6748 2.97181 20.4876 3.24074 21.1226 3.7021C21.5736 4.02977 21.9702 4.42639 22.2979 4.87739C22.7593 5.5124 23.0282 6.32517 23.1688 7.62256C23.3112 8.93749 23.3125 10.6355 23.3125 13C23.3125 15.3645 23.3112 17.0625 23.1688 18.3774C23.0282 19.6748 22.7593 20.4876 22.2979 21.1226C21.9702 21.5736 21.5736 21.9702 21.1226 22.2979C20.4876 22.7593 19.6748 23.0282 18.3774 23.1688C17.0625 23.3112 15.3645 23.3125 13 23.3125C10.6355 23.3125 8.93749 23.3112 7.62256 23.1688C6.32517 23.0282 5.5124 22.7593 4.87739 22.2979C4.42639 21.9702 4.02977 21.5736 3.7021 21.1226C3.24074 20.4876 2.97181 19.6748 2.83125 18.3774C2.68879 17.0625 2.6875 15.3645 2.6875 13C2.6875 10.6355 2.68879 8.93749 2.83125 7.62256C2.97181 6.32517 3.24074 5.5124 3.7021 4.87739C4.02977 4.42639 4.42639 4.02977 4.87739 3.7021Z" fill="#FD4C00"/>
</svg>
