<svg width="26" height="28" viewBox="0 0 26 28" fill="none" xmlns="http://www.w3.org/2000/svg">
<path d="M13.9367 10.25C13.9367 9.73223 13.517 9.3125 12.9992 9.3125C12.4814 9.3125 12.0617 9.73223 12.0617 10.25V13.0625H9.24921C8.73145 13.0625 8.31171 13.4822 8.31171 14C8.31171 14.5178 8.73145 14.9375 9.24921 14.9375H12.0617V17.75C12.0617 18.2678 12.4814 18.6875 12.9992 18.6875C13.517 18.6875 13.9367 18.2678 13.9367 17.75V14.9375H16.7492C17.267 14.9375 17.6867 14.5178 17.6867 14C17.6867 13.4822 17.267 13.0625 16.7492 13.0625H13.9367V10.25Z" fill="#FD4C00"/>
<path fill-rule="evenodd" clip-rule="evenodd" d="M9.95281 0.5625C8.02557 0.5625 6.46323 2.12484 6.46323 4.05208C6.46323 4.94379 5.74036 5.66667 4.84865 5.66667H4.46257C2.4925 5.66667 0.737601 7.19091 0.844486 9.3081C0.97139 11.8219 1.52971 15.7398 3.56615 19.451C4.13651 20.4904 4.89825 21.5115 5.72171 22.4629L5.7837 22.5345C6.96829 23.9033 7.95598 25.0445 9.01782 25.8224C10.1599 26.6591 11.3789 27.0759 12.9993 27.0759C14.6196 27.0759 15.8386 26.6591 16.9807 25.8224C18.0426 25.0445 19.0303 23.9033 20.2149 22.5345L20.2768 22.4629C21.1003 21.5115 21.862 20.4904 22.4324 19.451C24.5366 15.6164 25.0612 11.2833 25.1647 8.58201C25.2454 6.47499 23.5031 4.9375 21.522 4.9375H20.7853C20.095 4.9375 19.5353 4.37786 19.5353 3.6875C19.5353 1.96161 18.1362 0.5625 16.4103 0.5625H9.95281ZM8.33823 4.05208C8.33823 3.16037 9.0611 2.4375 9.95281 2.4375H16.4103C17.1007 2.4375 17.6603 2.99714 17.6603 3.6875C17.6603 5.41339 19.0594 6.8125 20.7853 6.8125H21.522C22.5691 6.8125 23.3263 7.59138 23.2911 8.51023C23.1922 11.0912 22.689 15.0858 20.7886 18.549C20.3024 19.435 19.6292 20.3461 18.8591 21.2358C17.5965 22.6946 16.7439 23.6716 15.8726 24.3099C15.0632 24.9029 14.2353 25.2009 12.9993 25.2009C11.7633 25.2009 10.9353 24.9029 10.1259 24.3099C9.25467 23.6716 8.40207 22.6946 7.13942 21.2358C6.36932 20.3461 5.69611 19.435 5.20994 18.549C3.36182 15.181 2.83641 11.577 2.7171 9.21357C2.67171 8.31436 3.4124 7.54167 4.46257 7.54167H4.84865C6.77589 7.54167 8.33823 5.97933 8.33823 4.05208Z" fill="#FD4C00"/>
</svg>
