<svg width="28" height="28" viewBox="0 0 28 28" fill="none" xmlns="http://www.w3.org/2000/svg">
<path d="M15.25 19C15.25 19.6904 14.6904 20.25 14 20.25C13.3096 20.25 12.75 19.6904 12.75 19C12.75 18.3096 13.3096 17.75 14 17.75C14.6904 17.75 15.25 18.3096 15.25 19Z" fill="#FD4C00"/>
<path d="M14.9375 7.75C14.9375 7.23223 14.5178 6.8125 14 6.8125C13.4822 6.8125 13.0625 7.23223 13.0625 7.75V15.25C13.0625 15.7678 13.4822 16.1875 14 16.1875C14.5178 16.1875 14.9375 15.7678 14.9375 15.25V7.75Z" fill="#FD4C00"/>
<path fill-rule="evenodd" clip-rule="evenodd" d="M14 0.5625C6.57867 0.5625 0.5625 6.57867 0.5625 14C0.5625 21.4213 6.57867 27.4375 14 27.4375C21.4213 27.4375 27.4375 21.4213 27.4375 14C27.4375 6.57867 21.4213 0.5625 14 0.5625ZM2.4375 14C2.4375 7.61421 7.61421 2.4375 14 2.4375C20.3858 2.4375 25.5625 7.61421 25.5625 14C25.5625 20.3858 20.3858 25.5625 14 25.5625C7.61421 25.5625 2.4375 20.3858 2.4375 14Z" fill="#FD4C00"/>
</svg>
