<svg width="26" height="28" viewBox="0 0 26 28" fill="none" xmlns="http://www.w3.org/2000/svg">
<path fill-rule="evenodd" clip-rule="evenodd" d="M15.531 9.94765C14.7404 7.43412 11.258 7.43412 10.4674 9.94765C10.3547 10.306 10.0441 10.5204 9.72426 10.5204C7.08793 10.5204 6.13409 13.9125 8.1495 15.4251C8.42722 15.6336 8.55755 16.0196 8.4434 16.3825C8.05604 17.614 8.55286 18.766 9.40042 19.4021C10.2524 20.0415 11.5038 20.1872 12.5499 19.4021C12.82 19.1994 13.1785 19.1994 13.4485 19.4021C14.4946 20.1872 15.7461 20.0415 16.598 19.4021C17.4456 18.766 17.9424 17.614 17.555 16.3825C17.4409 16.0196 17.5712 15.6336 17.8489 15.4251C19.8643 13.9125 18.9105 10.5204 16.2742 10.5204C15.9543 10.5204 15.6437 10.306 15.531 9.94765ZM12.256 10.5102C12.4962 9.74659 13.5022 9.74659 13.7424 10.5102C14.0907 11.6175 15.1022 12.3954 16.2742 12.3954C16.6367 12.3954 16.9073 12.6184 17.0173 12.9681C17.128 13.32 17.0376 13.6897 16.7234 13.9255C15.7943 14.6229 15.4196 15.8424 15.7664 16.9451C15.8945 17.3522 15.7412 17.7008 15.4725 17.9024C15.2082 18.1008 14.8772 18.13 14.574 17.9024C13.6371 17.1993 12.3613 17.1993 11.4244 17.9024C11.1212 18.13 10.7902 18.1008 10.5259 17.9024C10.2572 17.7008 10.104 17.3522 10.232 16.9451C10.5789 15.8424 10.2042 14.6229 9.27499 13.9255C8.96081 13.6897 8.8704 13.32 8.98108 12.9681C9.09109 12.6184 9.36168 12.3954 9.72426 12.3954C10.8962 12.3954 11.9078 11.6175 12.256 10.5102Z" fill="#FD4C00"/>
<path fill-rule="evenodd" clip-rule="evenodd" d="M9.95281 0.5625C8.02557 0.5625 6.46323 2.12484 6.46323 4.05208C6.46323 4.94379 5.74036 5.66667 4.84865 5.66667H4.46257C2.4925 5.66667 0.737601 7.19091 0.844486 9.3081C0.97139 11.8219 1.52971 15.7398 3.56615 19.451C4.13651 20.4904 4.89825 21.5115 5.72171 22.4629L5.7837 22.5345C6.96829 23.9033 7.95598 25.0445 9.01782 25.8224C10.1599 26.6591 11.3789 27.0759 12.9993 27.0759C14.6196 27.0759 15.8386 26.6591 16.9807 25.8224C18.0426 25.0445 19.0303 23.9033 20.2149 22.5345L20.2768 22.4629C21.1003 21.5115 21.862 20.4904 22.4324 19.451C24.5366 15.6164 25.0612 11.2833 25.1647 8.58201C25.2454 6.47499 23.5031 4.9375 21.522 4.9375H20.7853C20.095 4.9375 19.5353 4.37786 19.5353 3.6875C19.5353 1.96161 18.1362 0.5625 16.4103 0.5625H9.95281ZM8.33823 4.05208C8.33823 3.16037 9.0611 2.4375 9.95281 2.4375H16.4103C17.1007 2.4375 17.6603 2.99714 17.6603 3.6875C17.6603 5.41339 19.0594 6.8125 20.7853 6.8125H21.522C22.5691 6.8125 23.3263 7.59138 23.2911 8.51023C23.1922 11.0912 22.689 15.0858 20.7886 18.549C20.3024 19.435 19.6292 20.3461 18.8591 21.2358C17.5965 22.6946 16.7439 23.6716 15.8726 24.3099C15.0632 24.9029 14.2353 25.2009 12.9993 25.2009C11.7633 25.2009 10.9353 24.9029 10.1259 24.3099C9.25467 23.6716 8.40207 22.6946 7.13942 21.2358C6.36932 20.3461 5.69611 19.435 5.20994 18.549C3.36182 15.181 2.83641 11.577 2.7171 9.21357C2.67171 8.31436 3.4124 7.54167 4.46257 7.54167H4.84865C6.77589 7.54167 8.33823 5.97933 8.33823 4.05208Z" fill="#FD4C00"/>
</svg>
