<svg width="30" height="29" viewBox="0 0 30 29" fill="none" xmlns="http://www.w3.org/2000/svg">
<path fill-rule="evenodd" clip-rule="evenodd" d="M17.5309 7.19765C16.7403 4.68412 13.258 4.68412 12.4674 7.19765C12.3547 7.556 12.0441 7.77039 11.7242 7.77039C9.08788 7.77039 8.13404 11.1625 10.1494 12.6751C10.4272 12.8836 10.5575 13.2696 10.4433 13.6325C10.056 14.864 10.5528 16.016 11.4004 16.6521C12.2523 17.2915 13.5038 17.4372 14.5499 16.6521C14.8199 16.4494 15.1784 16.4494 15.4484 16.6521C16.4946 17.4372 17.746 17.2915 18.598 16.6521C19.4455 16.016 19.9423 14.864 19.555 13.6325C19.4408 13.2696 19.5712 12.8836 19.8489 12.6751C21.8643 11.1625 20.9104 7.77039 18.2741 7.77039C17.9542 7.77039 17.6437 7.556 17.5309 7.19765ZM11.7242 9.64539C12.8961 9.64539 13.9077 8.86749 14.256 7.76024C14.4962 6.99659 15.5021 6.99659 15.7423 7.76024C16.0906 8.86749 17.1022 9.64539 18.2741 9.64539C18.6367 9.64539 18.9073 9.86839 19.0173 10.2181C19.128 10.57 19.0376 10.9397 18.7234 11.1755C17.7942 11.8729 17.4195 13.0924 17.7664 14.1951C17.8944 14.6022 17.7412 14.9508 17.4725 15.1524C17.2081 15.3508 16.8772 15.38 16.5739 15.1524C15.637 14.4493 14.3613 14.4493 13.4244 15.1524C13.1212 15.38 12.7902 15.3508 12.5259 15.1524C12.2572 14.9508 12.1039 14.6022 12.232 14.1951C12.5788 13.0924 12.2041 11.8729 11.2749 11.1755C10.9608 10.9397 10.8703 10.57 10.981 10.2181C11.091 9.86839 11.3616 9.64539 11.7242 9.64539Z" fill="#FD4C00"/>
<path fill-rule="evenodd" clip-rule="evenodd" d="M14.9992 0.3125C8.95855 0.3125 4.06166 5.20938 4.06166 11.25C4.06166 12.7182 4.35144 14.1207 4.87745 15.4018C4.51444 15.822 4.17817 16.4047 3.72543 17.1892L1.44296 21.1426C1.16113 21.6305 0.900524 22.0818 0.750276 22.4553C0.603109 22.8212 0.417768 23.4556 0.827345 24.0428C1.24211 24.6375 1.90789 24.6728 2.30246 24.6532C2.70195 24.6333 3.20981 24.5333 3.75535 24.4259L4.74443 24.2314C5.29276 24.1235 5.61808 24.0613 5.85946 24.0447C5.9697 24.0371 6.02889 24.0422 6.05802 24.0471C6.0714 24.0494 6.07769 24.0515 6.0793 24.052C6.08065 24.0525 6.08138 24.0528 6.08297 24.0538C6.08456 24.0547 6.08519 24.0551 6.08628 24.0561C6.08758 24.0572 6.09253 24.0616 6.10117 24.0721C6.11997 24.0948 6.15398 24.1435 6.20254 24.2428C6.30885 24.4601 6.41764 24.773 6.5984 25.3018L6.92442 26.2555C7.1042 26.7817 7.27157 27.2716 7.45412 27.6275C7.63442 27.979 7.99785 28.5379 8.72023 28.5998C9.43357 28.6609 9.89034 28.1832 10.1336 27.8728C10.382 27.5559 10.6425 27.1046 10.9242 26.6165L13.1605 22.743C13.2977 22.5054 13.4228 22.2887 13.5351 22.0902C14.0143 22.1544 14.5031 22.1875 14.9992 22.1875C15.3832 22.1875 15.7629 22.1677 16.1373 22.1289C16.2438 22.3167 16.3614 22.5204 16.4896 22.7424L18.7263 26.6165C19.008 27.1046 19.2684 27.5559 19.5168 27.8728C19.7601 28.1832 20.2168 28.6609 20.9302 28.5998C21.6526 28.5379 22.016 27.979 22.1963 27.6275C22.3788 27.2716 22.5462 26.7818 22.726 26.2556L23.052 25.3018C23.2328 24.773 23.3416 24.4601 23.4479 24.2428C23.4964 24.1435 23.5305 24.0948 23.5493 24.0721C23.5503 24.0707 23.5514 24.0695 23.5523 24.0684C23.5591 24.0605 23.563 24.0571 23.5641 24.0561L23.5657 24.0548L23.5675 24.0538C23.569 24.0528 23.5698 24.0525 23.5711 24.052C23.5727 24.0515 23.579 24.0494 23.5924 24.0471C23.6215 24.0422 23.6807 24.0371 23.791 24.0447C24.0323 24.0613 24.3577 24.1235 24.906 24.2314L25.8951 24.4259C26.4406 24.5333 26.9485 24.6333 27.348 24.6532C27.7425 24.6728 28.4083 24.6375 28.8231 24.0428C29.2327 23.4556 29.0473 22.8212 28.9001 22.4553C28.7499 22.0818 28.4893 21.6306 28.2075 21.1427L25.9015 17.1485C25.5594 16.5553 25.2822 16.0747 24.9986 15.6879C25.6018 14.3307 25.9367 12.8284 25.9367 11.25C25.9367 5.20938 21.0398 0.3125 14.9992 0.3125ZM5.93666 11.25C5.93666 6.24492 9.99408 2.1875 14.9992 2.1875C20.0042 2.1875 24.0617 6.24492 24.0617 11.25C24.0617 12.7484 23.6987 14.1593 23.0569 15.4022C21.7715 17.891 19.3679 19.7064 16.5152 20.1864C16.0228 20.2693 15.5164 20.3125 14.9992 20.3125C14.3944 20.3125 13.8043 20.2534 13.2342 20.1409C10.4403 19.5897 8.10438 17.7519 6.87352 15.2679C6.27407 14.0581 5.93666 12.6948 5.93666 11.25ZM5.29478 18.221C5.53179 17.8105 5.71187 17.5004 5.85912 17.2594C7.21122 19.312 9.23656 20.8826 11.6229 21.6562L9.33266 25.623C9.16909 25.9063 9.03879 26.1308 8.92987 26.3093C8.8601 26.1196 8.77872 25.8833 8.67741 25.5869L8.35601 24.6467C8.19752 24.1829 8.05145 23.7554 7.88683 23.4189C7.70509 23.0474 7.45166 22.6789 7.02047 22.43C6.58927 22.181 6.14344 22.1458 5.73082 22.1741C5.35708 22.1998 4.91386 22.2871 4.43296 22.3817L3.45797 22.5735C3.15065 22.6339 2.90534 22.6816 2.70614 22.716C2.80624 22.5325 2.93552 22.3074 3.09908 22.0241L5.29478 18.221ZM18.0801 21.7473C20.4867 21.0422 22.5477 19.5329 23.9541 17.5314C24.0675 17.7232 24.1993 17.9502 24.3556 18.221L26.5513 22.0241C26.7149 22.3074 26.8442 22.5325 26.9443 22.716C26.7451 22.6816 26.4998 22.6339 26.1924 22.5735L25.2176 22.3817C24.7367 22.2871 24.2934 22.1998 23.9196 22.1741C23.507 22.1458 23.0611 22.181 22.63 22.43C22.1988 22.6789 21.9453 23.0474 21.7636 23.4189C21.599 23.7554 21.4529 24.1829 21.2944 24.6467L20.973 25.5869C20.8717 25.8833 20.7903 26.1196 20.7206 26.3093C20.6116 26.1308 20.4813 25.9063 20.3178 25.623L18.0801 21.7473Z" fill="#FD4C00"/>
</svg>
