<svg width="168" height="110" viewBox="0 0 168 110" fill="none" xmlns="http://www.w3.org/2000/svg">
<path d="M73.9296 135.973C76.6015 128.22 60.2967 126.479 60.2967 126.479L19.75 115.771L35.421 25.0184L167.691 47.0477L150.023 153.224L70.3215 138.915C72.7822 139.114 73.3787 137.568 73.9296 135.973Z" fill="#FFA27A"/>
<path d="M27.3296 75.2163L25.957 83.5283L157.946 105.339L159.319 97.0273L27.3296 75.2163Z" fill="#FD4C00"/>
<path d="M80.1391 141.567L88.4766 142.915L105.7 36.3068L97.3626 34.9588L80.1391 141.567Z" fill="#FD4C00"/>
<path d="M150.328 153.274L149.714 153.17L167.332 47.317L35.6717 25.3871L20.0545 115.953L19.4414 115.85L35.1125 24.9769C35.119 24.9367 35.1334 24.8983 35.1549 24.8638C35.1764 24.8293 35.2045 24.7994 35.2377 24.7759C35.2708 24.7524 35.3083 24.7357 35.348 24.7268C35.3877 24.7179 35.4287 24.717 35.4687 24.7241L167.743 46.7534C167.823 46.7685 167.895 46.8148 167.942 46.8821C167.99 46.9495 168.009 47.0327 167.995 47.1139L150.328 153.274Z" fill="#35375B"/>
<path d="M106.603 36.8873L89.0508 142.493L89.6637 142.595L107.216 36.9892L106.603 36.8873Z" fill="#35375B"/>
<path d="M98.1695 35.4859L80.6172 141.091L81.2301 141.193L98.7825 35.5878L98.1695 35.4859Z" fill="#35375B"/>
<path d="M97.1723 94.9741L97.0703 95.5873L157.919 105.719L158.021 105.106L97.1723 94.9741Z" fill="#35375B"/>
<path d="M98.5747 86.5425L98.4727 87.1556L159.321 97.2872L159.423 96.6741L98.5747 86.5425Z" fill="#35375B"/>
<path d="M25.3833 83.0184L25.2812 83.6315L88.643 94.1816L88.745 93.5684L25.3833 83.0184Z" fill="#35375B"/>
<path d="M26.7856 74.5874L26.6836 75.2006L90.0454 85.7506L90.1474 85.1374L26.7856 74.5874Z" fill="#35375B"/>
<path d="M103.949 36.7582L103.759 36.1697C112.698 33.298 117.429 27.6373 120.217 23.6301C125.151 16.5274 125.872 7.15373 121.82 2.73213C120.329 1.12013 118.167 0.320345 116.265 0.705734C113.162 1.35219 110.424 4.4353 109.322 7.10815C107.397 11.951 105.861 16.9395 104.728 22.0264C106.232 24.7034 107.334 27.7616 106.713 29.4855C106.497 30.0864 105.971 30.8116 104.67 30.8572C104.477 30.8533 104.289 30.8002 104.122 30.7031C103.955 30.6059 103.816 30.4678 103.717 30.3019C102.951 29.1167 103.262 25.8927 104.074 22.0761C103.234 20.5429 102.167 19.1458 100.909 17.9322C98.4482 15.7815 95.8716 15.077 93.6512 15.9431C92.6662 16.3602 91.8146 17.0399 91.1893 17.908C90.564 18.7761 90.1891 19.7994 90.1053 20.8661C89.6289 25.2545 94.3845 33.327 102.926 35.9791L102.74 36.5717C94.5833 34.0397 88.9205 26.0129 89.4839 20.7956C89.5802 19.6166 89.998 18.4865 90.6919 17.5286C91.3858 16.5707 92.3292 15.8216 93.4193 15.3629C94.836 14.8118 97.7482 14.3476 101.315 17.4639C102.466 18.5772 103.457 19.8449 104.26 21.2308C105.401 16.3434 106.9 11.5469 108.746 6.88023C109.911 4.03748 112.823 0.796902 116.137 0.104861C118.208 -0.309535 120.64 0.519257 122.276 2.32602C126.584 7.02527 125.905 16.5481 120.727 23.9948C117.893 28.0766 113.067 33.8574 103.949 36.7582ZM104.538 22.9174C103.858 26.3113 103.635 29.0297 104.239 29.9621C104.28 30.0384 104.339 30.1032 104.412 30.1504C104.484 30.1975 104.567 30.2254 104.654 30.2314C104.968 30.2553 105.282 30.1743 105.546 30.0011C105.809 29.828 106.009 29.5724 106.112 29.2742C106.621 27.8984 105.797 25.3374 104.538 22.9298V22.9174Z" fill="#35375B"/>
<path d="M119.444 53.0439C117.866 53.0439 116.176 52.4057 114.473 51.1253C110.252 47.9841 107.501 43.1606 106.723 37.5372L107.34 37.4502C108.094 42.9078 110.762 47.5863 114.842 50.628C118.007 52.9818 121.035 52.9983 123.371 50.6736C124.26 49.7825 124.759 48.5754 124.759 47.317C124.759 46.0585 124.26 44.8514 123.371 43.9604C123.025 43.6133 122.614 43.3379 122.161 43.1501C121.708 42.9622 121.223 42.8655 120.733 42.8655C120.242 42.8655 119.757 42.9622 119.304 43.1501C118.851 43.3379 118.44 43.6133 118.094 43.9604C117.821 44.2321 117.605 44.5551 117.457 44.9106C117.31 45.2662 117.234 45.6474 117.234 46.0323C117.234 46.4173 117.31 46.7985 117.457 47.154C117.605 47.5096 117.821 47.8325 118.094 48.1043C118.521 48.5307 119.1 48.7702 119.703 48.7702C120.307 48.7702 120.885 48.5307 121.312 48.1043L121.752 48.5436C121.208 49.0864 120.471 49.3912 119.703 49.3912C118.935 49.3912 118.198 49.0864 117.655 48.5436C116.991 47.8779 116.619 46.9764 116.619 46.0365C116.619 45.0966 116.991 44.1951 117.655 43.5294C118.471 42.713 119.578 42.2544 120.733 42.2544C121.887 42.2544 122.994 42.713 123.81 43.5294C124.309 44.0274 124.704 44.6188 124.974 45.2698C125.244 45.9207 125.383 46.6185 125.383 47.3232C125.383 48.0279 125.244 48.7256 124.974 49.3766C124.704 50.0276 124.309 50.619 123.81 51.117C123.251 51.7168 122.575 52.1969 121.825 52.5281C121.074 52.8593 120.264 53.0348 119.444 53.0439Z" fill="#35375B"/>
<path d="M83.397 55.6215C80.6878 55.6215 78.3431 54.4073 76.5287 52.0038C75.3351 50.4147 74.82 48.4169 75.0965 46.4485C75.3729 44.4801 76.4183 42.7016 78.0034 41.503C78.6385 41.0237 79.3617 40.6743 80.1318 40.4746C80.9019 40.275 81.7038 40.2291 82.4917 40.3395C83.2795 40.4499 84.0379 40.7146 84.7234 41.1183C85.409 41.522 86.0084 42.0569 86.4873 42.6924C87.2702 43.7322 87.6083 45.0405 87.4273 46.3297C87.2463 47.6188 86.561 48.7833 85.5221 49.5672C85.1033 49.8825 84.6265 50.1121 84.1189 50.243C83.6113 50.3739 83.083 50.4034 82.564 50.3299C82.045 50.2564 81.5456 50.0813 81.0943 49.8146C80.643 49.5479 80.2487 49.1949 79.9338 48.7757L80.4309 48.4027C80.9699 49.115 81.7689 49.5847 82.6532 49.7089C83.5375 49.8332 84.435 49.6019 85.1492 49.0658C85.598 48.7257 85.9755 48.3004 86.26 47.8144C86.5445 47.3284 86.7306 46.791 86.8075 46.2331C86.8845 45.6751 86.8508 45.1074 86.7084 44.5625C86.566 44.0175 86.3177 43.506 85.9777 43.057C85.1095 41.9157 83.8256 41.1638 82.4057 40.9651C80.9858 40.7664 79.545 41.137 78.397 41.9962C76.9427 43.0952 75.9838 44.7265 75.7306 46.5321C75.4774 48.3376 75.9507 50.1699 77.0465 51.6267C79.909 55.4268 84.2379 56.0235 89.2296 53.305C95.6132 49.8283 100.323 43.7491 102.486 36.1863L103.082 36.3562C100.874 44.0806 96.0399 50.2965 89.5237 53.852C87.3323 55.0331 85.2777 55.6215 83.397 55.6215Z" fill="#35375B"/>
<path d="M142.192 58.3855C144.64 59.7281 147.022 61.1951 149.342 62.7491C149.201 61.6592 149.044 60.5694 148.845 59.4878C148.754 58.9988 149.52 58.9242 149.607 59.409C149.818 60.5569 149.984 61.7172 150.129 62.8775C151.397 60.7558 152.628 58.6148 153.824 56.4544C154.06 56.04 154.76 56.3425 154.52 56.7776C153.456 58.7129 152.35 60.6232 151.227 62.5212L154.156 61.5598C154.624 61.4064 154.897 62.1275 154.429 62.2808L150.635 63.524C150.621 63.5525 150.606 63.5801 150.589 63.6069C152.412 64.8708 154.205 66.1803 155.937 67.5726C156.322 67.8834 155.833 68.4719 155.448 68.1652C153.791 66.8267 152.06 65.5628 150.307 64.3445C150.473 66.0021 150.57 67.6735 150.597 69.3587C150.597 69.8477 149.839 69.9306 149.831 69.4374C149.81 68.0285 149.727 66.6195 149.603 65.2189C148.352 67.266 147.066 69.291 145.746 71.2939C145.473 71.7083 144.885 71.211 145.154 70.8008C146.645 68.552 148.09 66.2714 149.487 63.9591C149.487 63.9591 149.487 63.9218 149.487 63.9052L144.102 65.6706C143.634 65.8239 143.36 65.107 143.828 64.9537L148.82 63.3127C146.567 61.8084 144.263 60.387 141.886 59.0858C141.451 58.8496 141.778 58.1493 142.192 58.3855Z" fill="white"/>
<path d="M61.761 55.1947C63.1293 54.8958 64.5119 54.6662 65.9034 54.5068C64.9537 53.3592 63.937 52.2689 62.8587 51.2413C62.577 50.972 62.9623 50.5078 63.244 50.7731C64.3148 51.791 65.3272 52.8688 66.2763 54.0012C66.4378 53.0025 66.5911 52.0038 66.7278 51.0051C66.7419 50.9269 66.7863 50.8573 66.8513 50.8116C66.9163 50.7658 66.9967 50.7475 67.0751 50.7605C67.1535 50.7736 67.2236 50.817 67.2702 50.8814C67.3169 50.9458 67.3363 51.026 67.3243 51.1046C67.1752 52.211 67.0012 53.3133 66.8189 54.4197C68.1238 54.2954 69.4328 54.2208 70.746 54.2208C71.1313 54.2208 71.1975 54.8217 70.8082 54.8217C69.5654 54.8217 68.3227 54.8922 67.0799 55.004C68.103 56.2978 69.0425 57.6557 69.8927 59.0693C70.0874 59.4008 69.5985 59.7572 69.3997 59.4215C68.5666 58.0318 67.6465 56.6961 66.645 55.4226C66.3964 56.8619 66.1202 58.2957 65.8165 59.724C65.7378 60.1052 65.1412 60.0099 65.2241 59.6287C65.5417 58.1203 65.8303 56.6078 66.0899 55.0911C64.6494 55.2511 63.2183 55.4863 61.8024 55.7955C61.442 55.8784 61.384 55.2734 61.761 55.1947Z" fill="white"/>
<path d="M39.1535 68.5838C40.2388 68.3517 41.3311 68.1736 42.4302 68.0492C41.6829 67.1442 40.8819 66.2849 40.0317 65.4758C39.8121 65.2686 40.1145 64.8998 40.3341 65.1112C41.1769 65.9106 41.9735 66.7573 42.7202 67.6473C42.85 66.8654 42.9687 66.0795 43.0764 65.2894C43.1179 64.9869 43.5859 65.0656 43.5445 65.3681C43.4285 66.2383 43.2918 67.1086 43.1303 67.9746C44.1576 67.8793 45.2015 67.8213 46.2206 67.8213C46.523 67.8213 46.5727 68.2937 46.2703 68.2937C45.2927 68.2937 44.315 68.3476 43.3457 68.4346C44.1481 69.4536 44.8855 70.5221 45.5536 71.6338C45.711 71.8948 45.3258 72.1766 45.1684 71.9114C44.5132 70.8184 43.7895 69.7679 43.0019 68.7661C42.803 69.8974 42.5876 71.0246 42.3473 72.1518C42.2852 72.4501 41.813 72.3714 41.8792 72.073C42.1319 70.8878 42.3556 69.6985 42.5586 68.5051C41.4277 68.6335 40.301 68.8159 39.1866 69.0562C38.9049 69.1225 38.8594 68.6667 39.1535 68.5838Z" fill="white"/>
<path d="M111.952 113.289C113.327 112.99 114.715 112.767 116.094 112.605C115.141 111.458 114.123 110.366 113.045 109.335C112.764 109.07 113.149 108.602 113.43 108.871C114.501 109.888 115.514 110.964 116.463 112.095C116.624 111.097 116.782 110.102 116.918 109.099C116.968 108.714 117.565 108.813 117.511 109.199C117.362 110.305 117.188 111.412 117.005 112.514C118.31 112.394 119.619 112.319 120.933 112.319C121.318 112.319 121.384 112.92 120.995 112.92C119.752 112.92 118.509 112.986 117.266 113.098C118.287 114.394 119.225 115.753 120.075 117.168C120.274 117.499 119.781 117.851 119.582 117.516C118.749 116.127 117.831 114.791 116.831 113.517C116.58 114.953 116.304 116.388 116.003 117.822C115.92 118.199 115.324 118.104 115.406 117.723C115.727 116.22 116.015 114.709 116.272 113.189C114.832 113.35 113.401 113.584 111.985 113.89C111.624 113.973 111.566 113.372 111.952 113.289Z" fill="white"/>
<path d="M122.526 70.1295C121.147 70.4195 119.759 70.635 118.359 70.7884C119.304 71.9415 120.315 73.0387 121.387 74.0745C121.665 74.3439 121.275 74.808 120.998 74.5386C119.932 73.5159 118.927 72.4325 117.986 71.2939C117.816 72.2885 117.655 73.2872 117.514 74.2859C117.5 74.365 117.456 74.4354 117.39 74.4817C117.324 74.5279 117.243 74.5462 117.164 74.5324C117.085 74.5187 117.014 74.4741 116.968 74.4084C116.922 74.3427 116.904 74.2614 116.918 74.1823C117.075 73.0758 117.253 71.9735 117.444 70.8671C116.139 70.9831 114.83 71.0453 113.517 71.037C113.131 71.037 113.069 70.4361 113.459 70.4361C114.701 70.4361 115.944 70.3822 117.187 70.2828C116.174 68.9808 115.244 67.6161 114.403 66.1968C114.208 65.8612 114.701 65.5131 114.896 65.8488C115.721 67.2428 116.633 68.5839 117.626 69.8643C117.883 68.4263 118.173 66.9925 118.483 65.567C118.566 65.1899 119.163 65.2893 119.08 65.6706C118.748 67.1748 118.454 68.6832 118.185 70.1958C119.626 70.0462 121.059 69.8222 122.477 69.5245C122.85 69.4499 122.903 70.0507 122.526 70.1295Z" fill="white"/>
<path d="M48.2195 43.3015C48.3298 43.4397 48.4716 43.5495 48.633 43.6216C48.7945 43.6937 48.9709 43.726 49.1474 43.7159C49.3176 43.6961 49.4821 43.6427 49.6314 43.5588C49.7808 43.4748 49.9119 43.362 50.0173 43.2269C50.5641 42.5639 50.3818 41.6729 50.1747 40.9146C50.1516 40.8563 50.1066 40.8093 50.0493 40.7838C49.992 40.7582 49.927 40.7561 49.8682 40.7778C49.7193 40.6543 49.5476 40.5614 49.3628 40.5043C48.7249 40.3303 48.149 40.8483 47.9461 41.416C47.8264 41.7274 47.7887 42.0643 47.8366 42.3945C47.8844 42.7246 48.0163 43.037 48.2195 43.3015ZM48.41 41.532C48.555 41.1881 48.903 40.8317 49.2965 40.9767C49.4701 41.0381 49.6167 41.1583 49.7108 41.3165C49.7523 41.3777 49.7744 41.4499 49.7744 41.5237C49.7744 41.5976 49.7523 41.6698 49.7108 41.7309C49.6834 41.7681 49.667 41.8122 49.6636 41.8582C49.6602 41.9042 49.6699 41.9503 49.6916 41.991C49.7132 42.0318 49.746 42.0655 49.786 42.0885C49.8261 42.1114 49.8718 42.1225 49.9179 42.1205C49.9268 42.4335 49.8174 42.7384 49.6114 42.9741C49.5411 43.0559 49.454 43.1216 49.3561 43.1666C49.2581 43.2117 49.1516 43.2351 49.0438 43.2352C48.9306 43.2213 48.8224 43.1801 48.7286 43.1152C48.6348 43.0502 48.5581 42.9634 48.5053 42.8622C48.3886 42.6627 48.3192 42.4389 48.3027 42.2082C48.2862 41.9776 48.3229 41.7462 48.41 41.532Z" fill="white"/>
<path d="M136.893 53.4791C137.166 53.6913 137.496 53.8193 137.841 53.8472C138.186 53.8752 138.532 53.802 138.836 53.6365C139.166 53.4294 139.414 53.1148 139.54 52.7456C139.665 52.3765 139.659 51.9755 139.523 51.6102C139.51 51.5746 139.488 51.5432 139.459 51.5191C139.43 51.4951 139.395 51.4793 139.358 51.4734C139.221 51.2349 139.028 51.0328 138.797 50.8843C138.565 50.7357 138.302 50.645 138.028 50.6197C137.691 50.5964 137.356 50.6837 137.073 50.8685C136.79 51.0532 136.576 51.3253 136.462 51.6433C136.33 51.9555 136.301 52.3015 136.378 52.6315C136.456 52.9614 136.636 53.2582 136.893 53.4791ZM136.984 51.6433C137.095 51.4375 137.271 51.2744 137.485 51.1798C137.699 51.0853 137.938 51.0647 138.165 51.1212C138.394 51.1739 138.603 51.2927 138.766 51.4628C138.928 51.6329 139.038 51.8469 139.08 52.0784C139.087 52.1308 139.112 52.1791 139.151 52.2152C139.156 52.459 139.084 52.6984 138.946 52.8992C138.808 53.1001 138.61 53.2522 138.38 53.334C138.152 53.4081 137.908 53.4163 137.676 53.3577C137.443 53.299 137.232 53.1759 137.067 53.0025C136.913 52.8128 136.823 52.5798 136.808 52.3362C136.793 52.0925 136.855 51.8503 136.984 51.6433Z" fill="white"/>
<path d="M144.158 88.1433C144.431 88.3567 144.76 88.4856 145.105 88.5144C145.45 88.5431 145.797 88.4703 146.101 88.3049C146.431 88.0977 146.68 87.7831 146.805 87.414C146.93 87.0449 146.924 86.6438 146.789 86.2785C146.777 86.2419 146.755 86.2094 146.726 86.1845C146.696 86.1597 146.661 86.1434 146.623 86.1376C146.485 85.8995 146.293 85.6978 146.061 85.5493C145.83 85.4008 145.567 85.3098 145.293 85.2839C144.956 85.2615 144.621 85.3497 144.338 85.5352C144.055 85.7207 143.841 85.9933 143.727 86.3116C143.596 86.6232 143.567 86.9685 143.644 87.2977C143.721 87.627 143.901 87.9231 144.158 88.1433ZM144.249 86.3116C144.359 86.1039 144.536 85.9394 144.751 85.8447C144.966 85.7499 145.207 85.7305 145.434 85.7895C145.663 85.8425 145.871 85.9614 146.033 86.1315C146.195 86.3016 146.304 86.5155 146.345 86.7468C146.353 86.7976 146.378 86.8444 146.416 86.8794C146.419 87.1218 146.347 87.3593 146.209 87.5585C146.071 87.7577 145.874 87.9086 145.645 87.9899C145.417 88.0631 145.173 88.0708 144.941 88.0121C144.709 87.9535 144.498 87.831 144.332 87.6584C144.18 87.4673 144.092 87.2337 144.08 86.9901C144.067 86.7465 144.131 86.5049 144.262 86.2992L144.249 86.3116Z" fill="white"/>
<path d="M74.5174 74.3522C74.7903 74.5656 75.1195 74.6946 75.4647 74.7233C75.8098 74.752 76.1559 74.6792 76.4602 74.5138C76.7903 74.3067 77.0389 73.992 77.1642 73.6229C77.2894 73.2538 77.2837 72.8528 77.1479 72.4874C77.136 72.4509 77.1143 72.4184 77.085 72.3935C77.0557 72.3686 77.0201 72.3523 76.9822 72.3465C76.845 72.109 76.6532 71.9076 76.4227 71.7592C76.1921 71.6107 75.9295 71.5194 75.6566 71.4929C75.3188 71.4702 74.9828 71.5583 74.6995 71.7437C74.4162 71.9291 74.2011 72.2019 74.0866 72.5206C73.955 72.8321 73.9259 73.1775 74.0033 73.5067C74.0808 73.8359 74.2608 74.132 74.5174 74.3522ZM74.6085 72.5206C74.7185 72.3129 74.8952 72.1483 75.1102 72.0536C75.3252 71.9588 75.5659 71.9394 75.7933 71.9984C76.0223 72.0509 76.2309 72.1697 76.393 72.3399C76.555 72.5101 76.6634 72.7243 76.7046 72.9557C76.7125 73.0066 76.7373 73.0533 76.7751 73.0883C76.7787 73.3307 76.7064 73.5682 76.5682 73.7674C76.43 73.9666 76.2329 74.1175 76.0046 74.1989C75.7766 74.272 75.5327 74.2797 75.3006 74.2211C75.0684 74.1625 74.8574 74.0399 74.6914 73.8674C74.5406 73.6787 74.4518 73.4481 74.4369 73.2071C74.4221 72.966 74.482 72.7263 74.6085 72.5206Z" fill="white"/>
<path d="M41.8729 100.766C42.1449 100.979 42.4735 101.108 42.818 101.137C43.1626 101.166 43.508 101.093 43.8116 100.927C44.1428 100.721 44.3924 100.407 44.5178 100.037C44.6432 99.6678 44.6366 99.2662 44.4992 98.901C44.4886 98.8645 44.4677 98.8319 44.439 98.8069C44.4104 98.7819 44.3752 98.7657 44.3377 98.7601C44.1993 98.5227 44.0067 98.3216 43.7755 98.1732C43.5444 98.0248 43.2813 97.9333 43.0079 97.9065C42.6706 97.8833 42.3349 97.9713 42.0522 98.1568C41.7695 98.3424 41.5552 98.6154 41.4421 98.9342C41.3105 99.2457 41.2814 99.591 41.3588 99.9203C41.4362 100.249 41.6163 100.546 41.8729 100.766ZM41.964 98.9342C42.0731 98.7265 42.2489 98.5617 42.4631 98.4662C42.6773 98.3708 42.9173 98.3502 43.1446 98.4079C43.3733 98.4621 43.5814 98.5813 43.7438 98.7511C43.9062 98.921 44.0161 99.1342 44.0601 99.3651C44.0652 99.4181 44.0904 99.467 44.1305 99.5019C44.1324 99.7439 44.0593 99.9806 43.9213 100.179C43.7834 100.378 43.5873 100.53 43.36 100.612C43.132 100.685 42.8883 100.692 42.6564 100.633C42.4245 100.575 42.2134 100.453 42.0469 100.281C41.8924 100.091 41.8014 99.8571 41.7866 99.6126C41.7717 99.3681 41.8337 99.125 41.964 98.9176V98.9342Z" fill="white"/>
<path d="M105.738 80.0501C105.784 80.4376 105.953 80.8001 106.221 81.0837C106.489 81.3674 106.841 81.5571 107.225 81.6248C107.42 81.667 107.622 81.6677 107.818 81.627C108.013 81.5863 108.198 81.5051 108.36 81.3886C108.592 81.1914 108.752 80.9235 108.816 80.6261C108.872 80.3818 108.864 80.127 108.791 79.8871C108.718 79.6471 108.584 79.4304 108.402 79.2586C108.287 78.9731 108.078 78.7353 107.81 78.5846C107.542 78.4339 107.23 78.3793 106.927 78.4298C106.569 78.5161 106.254 78.726 106.036 79.0226C105.819 79.3191 105.713 79.6831 105.738 80.0501ZM107.146 78.8732C107.283 78.8751 107.418 78.9068 107.541 78.9662C107.664 79.0256 107.772 79.1113 107.859 79.2172C107.837 79.2714 107.835 79.332 107.855 79.3871C107.875 79.4423 107.915 79.4881 107.967 79.5155C107.99 79.5279 108.012 79.5417 108.033 79.557C108.037 79.6135 108.037 79.6703 108.033 79.7269C108.023 79.7889 108.038 79.8522 108.075 79.9033C108.111 79.9544 108.166 79.9892 108.228 80.0004C108.259 80.0063 108.291 80.0063 108.323 80.0004C108.389 80.2108 108.389 80.4365 108.323 80.6468C108.264 80.8343 108.137 80.9927 107.967 81.0903C107.693 81.2122 107.381 81.2212 107.101 81.1151C106.844 81.0282 106.62 80.8642 106.46 80.6454C106.3 80.4266 106.211 80.1637 106.206 79.8926C106.214 79.6353 106.316 79.3897 106.492 79.202C106.668 79.0142 106.907 78.8973 107.163 78.8732H107.146Z" fill="white"/>
<path d="M128.586 71.9818C128.632 72.3702 128.802 72.7334 129.071 73.0177C129.339 73.302 129.692 73.4923 130.077 73.5607C130.272 73.6021 130.473 73.6022 130.668 73.5608C130.863 73.5194 131.047 73.4374 131.208 73.3203C131.442 73.1255 131.603 72.8565 131.663 72.5578C131.721 72.3136 131.713 72.0585 131.64 71.8184C131.567 71.5783 131.432 71.3616 131.249 71.1903C131.135 70.9044 130.927 70.6661 130.658 70.5153C130.39 70.3645 130.078 70.3102 129.775 70.3615C129.417 70.4478 129.102 70.6577 128.884 70.9543C128.666 71.2508 128.561 71.6148 128.586 71.9818ZM129.994 70.8049C130.131 70.8062 130.266 70.8377 130.389 70.8972C130.512 70.9566 130.62 71.0426 130.707 71.1489C130.684 71.2035 130.682 71.2648 130.703 71.3203C130.724 71.3758 130.765 71.4212 130.818 71.4473L130.881 71.4887C130.889 71.545 130.889 71.6023 130.881 71.6586C130.872 71.7204 130.887 71.7832 130.924 71.8341C130.96 71.8849 131.014 71.92 131.075 71.9321C131.107 71.9385 131.139 71.9385 131.171 71.9321C131.237 72.1425 131.237 72.3682 131.171 72.5786C131.112 72.7649 130.987 72.923 130.818 73.022C130.544 73.144 130.233 73.1529 129.953 73.0468C129.695 72.9606 129.471 72.7969 129.31 72.578C129.149 72.3592 129.059 72.096 129.054 71.8244C129.057 71.5662 129.154 71.3182 129.328 71.1267C129.501 70.9352 129.738 70.8134 129.994 70.7842V70.8049Z" fill="white"/>
<path d="M70.0421 102.113C70.0913 102.499 70.2623 102.861 70.5304 103.144C70.7986 103.427 71.1499 103.617 71.5335 103.687C71.729 103.729 71.9309 103.729 72.1264 103.687C72.3219 103.646 72.5065 103.564 72.6685 103.447C72.899 103.251 73.0591 102.984 73.1242 102.689C73.1811 102.444 73.1728 102.189 73.1001 101.949C73.0274 101.709 72.8928 101.493 72.7099 101.321C72.5952 101.036 72.3865 100.798 72.1184 100.647C71.8502 100.496 71.5386 100.442 71.2352 100.492C70.8778 100.579 70.5623 100.789 70.3442 101.085C70.126 101.382 70.0191 101.745 70.0421 102.113ZM71.4506 100.932C71.588 100.933 71.7234 100.964 71.8472 101.024C71.9711 101.083 72.0804 101.169 72.1673 101.275C72.144 101.33 72.1422 101.391 72.1622 101.446C72.1822 101.501 72.2225 101.547 72.275 101.574L72.3371 101.615C72.3453 101.672 72.3453 101.729 72.3371 101.785C72.3286 101.848 72.3446 101.911 72.3816 101.962C72.4187 102.013 72.474 102.048 72.536 102.059C72.5672 102.067 72.6 102.067 72.6312 102.059C72.6999 102.269 72.6999 102.495 72.6312 102.705C72.5759 102.893 72.4496 103.052 72.2791 103.149C72.144 103.211 71.9976 103.245 71.8488 103.25C71.7 103.254 71.5518 103.228 71.4133 103.173C71.1558 103.086 70.932 102.921 70.773 102.7C70.6141 102.479 70.528 102.215 70.5268 101.943C70.5357 101.692 70.6335 101.452 70.8028 101.267C70.972 101.082 71.2017 100.963 71.4506 100.932Z" fill="white"/>
</svg>
