<svg width="224" height="201" viewBox="0 0 224 201" fill="none" xmlns="http://www.w3.org/2000/svg">
<g clip-path="url(#clip0_298_3687)">
<path d="M111.194 35.0937L102.129 37.0029L102.28 37.7194L111.345 35.8102L111.194 35.0937Z" fill="#FD4C00"/>
<path d="M119.46 35.9007L119.415 35.1704C122.676 34.9653 125.948 35.2551 129.122 36.0298L128.95 36.7424C125.847 35.9856 122.648 35.7019 119.46 35.9007Z" fill="#FD4C00"/>
<path d="M138.248 38.663L138.338 37.935C142.058 38.3975 145.632 39.6604 148.817 41.6369L148.429 42.2585C145.334 40.3384 141.861 39.1117 138.248 38.663Z" fill="#FD4C00"/>
<path d="M156.854 46.2084L157.157 45.5411C160.279 46.9743 163.073 49.0357 165.364 51.5968L164.817 52.0871C162.594 49.6007 159.883 47.5995 156.854 46.2084Z" fill="#FD4C00"/>
<path d="M173.36 59.6795C173.133 59.3742 172.909 59.0659 172.69 58.7548L173.285 58.3291C175.177 60.985 177.316 63.4555 179.673 65.7076L179.159 66.2429C177.047 64.2204 175.107 62.025 173.36 59.6795Z" fill="#FD4C00"/>
<path d="M188.357 83.2324C187.606 80.2605 186.454 77.4047 184.933 74.7436L185.572 74.3766C187.126 77.096 188.303 80.014 189.071 83.0506L188.357 83.2324Z" fill="#FD4C00"/>
<path d="M193.866 102.55C193.116 98.8179 192.212 95.0633 191.179 91.3961L191.882 91.1972C192.923 94.8864 193.83 98.6537 194.582 102.405L193.866 102.55Z" fill="#FD4C00"/>
<path d="M193.949 124.735C194.697 121.017 195.548 116.801 194.263 112.962L194.956 112.729C196.303 116.752 195.397 121.259 194.667 124.878L193.949 124.735Z" fill="#FD4C00"/>
<path d="M192.025 131.722L191.34 131.464L187.955 140.445L188.639 140.704L192.025 131.722Z" fill="#FD4C00"/>
<path d="M177.392 157.013C179.997 154.393 182.248 151.444 184.088 148.239L184.723 148.606C182.85 151.865 180.56 154.865 177.911 157.53L177.392 157.013Z" fill="#FD4C00"/>
<path d="M170.991 163.848L162.445 169.218L162.834 169.838L171.38 164.469L170.991 163.848Z" fill="#FD4C00"/>
<path d="M82.5807 145.197C84.7759 149.752 87.8931 155.575 88.4785 156.866C88.4785 156.866 85.0637 165.276 74.0875 173.113C74.0875 173.113 61.182 170.302 36.8125 158.714C37.5442 154.901 38.5077 147.731 39.7394 142.581C33.1074 143.572 25.7485 145.51 22.1898 148.126C-0.882149 165.084 57.8818 186.698 72.1972 191.884C72.1972 191.884 97.6985 180.289 113.224 152.922C113.224 152.922 97.9863 148.241 82.5807 145.197Z" fill="#FFA27A"/>
<path d="M59.068 93.2706C59.068 93.2706 51.7505 74.3753 39.2401 54.2743L29.7274 40.6214C27.3346 37.5877 22.7734 32.9994 22.7734 32.9994C33.1227 26.1046 44.455 21.9019 44.455 21.9019C59.9631 42.4592 76.8957 84.8431 76.8957 84.8431L59.068 93.2706Z" fill="#FD4C00"/>
<path d="M42.6557 133.06C42.9616 131.809 43.4092 130.598 43.9899 129.448L41.0629 127.784C35.6041 124.489 26.2451 118.753 20.8326 104.749C14.364 88.0138 22.1961 64.9597 41.6678 60.8399C41.6678 60.8399 35.0065 41.9642 25.9914 36.7876C25.9914 36.7876 7.52463 50.399 3.79517 81.0629C0.243774 110.141 21.9132 129.421 41.9117 135.279C42.1129 134.525 42.3613 133.784 42.6557 133.06Z" fill="#FD4C00"/>
<path d="M43.2891 126.925C43.2891 126.925 50.8504 116.569 55.5092 107.59C55.5092 107.59 80.5739 103.819 108.285 97.7715C108.285 97.7715 101.494 118.37 93.4404 129.417C93.4404 129.421 72.932 128.821 43.2891 126.925Z" fill="#FD4C00"/>
<path d="M56.2969 122.995C56.2969 122.995 60.8874 116.705 63.7168 111.255C63.7168 111.255 78.9346 108.966 95.7599 105.293C95.7599 105.293 91.6377 117.799 86.735 124.508C86.7472 124.508 74.2905 124.144 56.2969 122.995Z" fill="white"/>
<path d="M33.9977 57.6778C37.4748 53.2101 37.2823 47.2418 33.5677 44.3473C29.8531 41.4528 24.023 42.7281 20.5459 47.1957C17.0688 51.6634 17.2613 57.6316 20.9759 60.5262C24.6905 63.4207 30.5205 62.1454 33.9977 57.6778Z" fill="white"/>
<path d="M28.7799 40.651C28.6829 40.651 28.5898 40.6124 28.5212 40.5438C28.4526 40.4751 28.4141 40.382 28.4141 40.2849V30.7421C28.4141 30.645 28.4526 30.5519 28.5212 30.4832C28.5898 30.4145 28.6829 30.376 28.7799 30.376C28.877 30.376 28.97 30.4145 29.0386 30.4832C29.1073 30.5519 29.1458 30.645 29.1458 30.7421V40.2849C29.1458 40.382 29.1073 40.4751 29.0386 40.5438C28.97 40.6124 28.877 40.651 28.7799 40.651Z" fill="#35375B"/>
<path d="M33.7682 42.5059C33.6712 42.5059 33.5781 42.4673 33.5095 42.3986C33.4409 42.33 33.4023 42.2369 33.4023 42.1398V27.684C33.4023 27.5869 33.4409 27.4938 33.5095 27.4251C33.5781 27.3564 33.6712 27.3179 33.7682 27.3179C33.8653 27.3179 33.9583 27.3564 34.0269 27.4251C34.0955 27.4938 34.1341 27.5869 34.1341 27.684V42.1398C34.1341 42.2369 34.0955 42.33 34.0269 42.3986C33.9583 42.4673 33.8653 42.5059 33.7682 42.5059Z" fill="#35375B"/>
<path d="M38.7643 54.4576C38.6673 54.4576 38.5742 54.419 38.5056 54.3503C38.437 54.2817 38.3984 54.1886 38.3984 54.0915V22.9589C38.3984 22.8618 38.437 22.7687 38.5056 22.7C38.5742 22.6313 38.6673 22.5928 38.7643 22.5928C38.8613 22.5928 38.9544 22.6313 39.023 22.7C39.0916 22.7687 39.1302 22.8618 39.1302 22.9589V54.0915C39.1302 54.1886 39.0916 54.2817 39.023 54.3503C38.9544 54.419 38.8613 54.4576 38.7643 54.4576Z" fill="#35375B"/>
<path d="M43.7565 62.7924C43.6595 62.7924 43.5664 62.7538 43.4978 62.6852C43.4292 62.6165 43.3906 62.5234 43.3906 62.4263V20.1791C43.3906 20.082 43.4292 19.9889 43.4978 19.9202C43.5664 19.8516 43.6595 19.813 43.7565 19.813C43.8535 19.813 43.9466 19.8516 44.0152 19.9202C44.0838 19.9889 44.1224 20.082 44.1224 20.1791V62.4312C44.1211 62.5274 44.082 62.6193 44.0135 62.6869C43.945 62.7545 43.8527 62.7924 43.7565 62.7924Z" fill="#35375B"/>
<path d="M48.7526 74.1949C48.6558 74.1943 48.5631 74.1555 48.4946 74.087C48.4261 74.0185 48.3874 73.9257 48.3867 73.8289V27.684C48.3867 27.5869 48.4253 27.4938 48.4939 27.4251C48.5625 27.3564 48.6556 27.3179 48.7526 27.3179C48.8496 27.3179 48.9427 27.3564 49.0113 27.4251C49.0799 27.4938 49.1185 27.5869 49.1185 27.684V73.8289C49.1185 73.9259 49.0799 74.0191 49.0113 74.0877C48.9427 74.1564 48.8496 74.1949 48.7526 74.1949Z" fill="#35375B"/>
<path d="M58.7409 93.9296C58.6438 93.9296 58.5508 93.891 58.4822 93.8223C58.4135 93.7537 58.375 93.6605 58.375 93.5635V45.1976C58.375 45.1005 58.4135 45.0074 58.4822 44.9388C58.5508 44.8701 58.6438 44.8315 58.7409 44.8315C58.8379 44.8315 58.931 44.8701 58.9996 44.9388C59.0682 45.0074 59.1067 45.1005 59.1067 45.1976V93.5635C59.1067 93.6605 59.0682 93.7537 58.9996 93.8223C58.931 93.891 58.8379 93.9296 58.7409 93.9296Z" fill="#35375B"/>
<path d="M63.7331 91.7066C63.636 91.7066 63.543 91.668 63.4744 91.5993C63.4057 91.5307 63.3672 91.4376 63.3672 91.3405V54.0917C63.3672 53.9946 63.4057 53.9015 63.4744 53.8328C63.543 53.7642 63.636 53.7256 63.7331 53.7256C63.8301 53.7256 63.9232 53.7642 63.9918 53.8328C64.0604 53.9015 64.0989 53.9946 64.0989 54.0917V91.3478C64.097 91.4436 64.0576 91.5349 63.9892 91.6019C63.9208 91.669 63.8288 91.7066 63.7331 91.7066Z" fill="#35375B"/>
<path d="M68.7292 90.0395C68.6321 90.0395 68.5391 90.0009 68.4705 89.9322C68.4018 89.8636 68.3633 89.7705 68.3633 89.6734V65.7675C68.3633 65.6704 68.4018 65.5772 68.4705 65.5086C68.5391 65.4399 68.6321 65.4014 68.7292 65.4014C68.8262 65.4014 68.9193 65.4399 68.9879 65.5086C69.0565 65.5772 69.095 65.6704 69.095 65.7675V89.6734C69.095 89.7705 69.0565 89.8636 68.9879 89.9322C68.9193 90.0009 68.8262 90.0395 68.7292 90.0395Z" fill="#35375B"/>
<path d="M73.7213 87.2596C73.6243 87.2596 73.5312 87.221 73.4626 87.1523C73.394 87.0837 73.3555 86.9906 73.3555 86.8935V76.3304C73.3555 76.2334 73.394 76.1402 73.4626 76.0716C73.5312 76.0029 73.6243 75.9644 73.7213 75.9644C73.8184 75.9644 73.9114 76.0029 73.98 76.0716C74.0487 76.1402 74.0872 76.2334 74.0872 76.3304V86.8935C74.0872 86.9906 74.0487 87.0837 73.98 87.1523C73.9114 87.221 73.8184 87.2596 73.7213 87.2596Z" fill="#35375B"/>
<path d="M77.155 83.5668C76.9867 83.1446 60.0468 40.9828 44.168 19.7323L44.7534 19.2954C60.6908 40.6216 77.6648 82.8712 77.8355 83.2934L77.155 83.5668Z" fill="#35375B"/>
<path d="M27.8275 39.753C25.4802 36.7619 22.9715 33.9013 20.3125 31.1839L20.8345 30.6714C23.5107 33.4067 26.035 36.2869 28.3958 39.299L27.8275 39.753Z" fill="#35375B"/>
<path d="M57.135 93.942C57.0618 93.7369 49.6761 73.2089 37.3242 53.3715L37.9462 52.9858C50.3395 72.8891 57.7521 93.5002 57.8253 93.6955L57.135 93.942Z" fill="#35375B"/>
<path d="M17.1122 34.2104L14.8633 30.6178L15.1267 30.4152C22.249 24.936 46.1503 14.7122 47.1625 14.2754L47.4503 14.1533L49.7041 17.7508L49.3089 17.9192C49.065 18.0241 24.4808 28.5432 17.4317 33.9663L17.1122 34.2104ZM15.8365 30.7935L17.3 33.1414C24.3613 27.9331 45.3697 18.8149 48.6284 17.414L47.1649 15.0734C44.4087 16.2571 22.7759 25.6462 15.8365 30.7959V30.7935Z" fill="#35375B"/>
<path d="M53.8099 99.956L51.5586 96.3585L51.9513 96.1901C52.1952 96.0852 76.7794 85.5661 83.8285 80.143L84.1481 79.8989L86.3994 83.4915L86.136 83.6941C79.0112 89.1733 55.1246 99.402 54.0977 99.834L53.8099 99.956ZM52.6318 96.6953L54.0953 99.0359C56.8491 97.8522 78.4868 88.4631 85.4213 83.3134L83.9578 80.9655C76.8989 86.1762 55.8905 95.2944 52.6318 96.6953Z" fill="#35375B"/>
<path d="M23.5191 25.3508C23.4606 25.2678 17.453 16.8086 10.6746 8.49093L10.4062 8.16145L24.1899 0L24.3899 0.165962C28.8828 3.8928 37.8442 18.1119 38.2247 18.7147L37.6052 19.1052C37.5149 18.9612 28.5803 4.80315 24.1167 0.895709L11.5087 8.36646C18.192 16.5938 24.0582 24.8504 24.1167 24.9359L23.5191 25.3508Z" fill="#35375B"/>
<path d="M65.0093 102.701L62.4336 95.9089L63.119 95.6478L65.4142 101.708L79.2418 95.3427L76.5221 89.2631L77.188 88.9653L80.2052 95.7039L65.0093 102.701Z" fill="#35375B"/>
<path d="M72.1229 109.911L68.2812 101.347L68.9471 101.046L72.518 109.003L79.1672 106.75L76.3695 96.6142L77.0744 96.4189L80.055 107.221L72.1229 109.911Z" fill="#35375B"/>
<path d="M96.6892 130.642H96.4892C96.2697 130.642 74.1588 129.844 42.7792 127.608L42.1328 127.562L42.506 127.032C42.5865 126.92 50.5845 115.498 55.4554 105.704L55.5408 105.533L55.7286 105.506C55.775 105.506 60.3923 104.798 67.7707 103.539L67.8927 104.271C61.3411 105.389 56.9628 106.067 56.0262 106.211C51.7284 114.805 45.0964 124.577 43.4719 126.935C72.9222 129.021 94.0574 129.829 96.3185 129.912C103.929 118.961 110.483 99.4409 111.685 95.7629C102.07 97.8838 91.7646 99.9607 81.0494 101.935L80.9153 101.215C91.8549 99.1993 102.365 97.0662 112.151 94.9111L112.768 94.7744L112.578 95.3772C112.507 95.6067 105.304 118.38 96.8063 130.495L96.6892 130.642Z" fill="#35375B"/>
<path d="M98.4236 137.427C98.1333 137.412 69.1001 135.809 41.6719 130.979L41.7987 130.247C69.1806 135.069 98.1723 136.668 98.4626 136.685L98.4236 137.427Z" fill="#35375B"/>
<path d="M74.1483 173.597L73.619 173.482C73.4897 173.453 60.3939 170.529 36.2634 159.043L36.0195 158.924L36.0708 158.645C36.2366 157.767 36.4098 156.82 36.5927 155.822C37.9635 148.329 39.8417 138.066 43.6297 130.883L44.2761 131.225C40.5417 138.303 38.666 148.507 37.3147 155.953C37.1489 156.849 36.9928 157.703 36.8415 158.504C58.006 168.554 70.5628 171.964 73.2312 172.62C72.5702 168.959 68.5968 147.682 62.9331 134.303L63.6087 134.017C69.831 148.705 74.0068 172.801 74.0483 173.043L74.1483 173.597Z" fill="#35375B"/>
<path d="M73.9073 173.414L73.4805 172.816C83.481 165.689 87.186 157.999 87.6934 156.869C86.1543 153.484 82.2273 144.99 77.5368 136.014L78.1856 135.674C82.9566 144.8 86.9373 153.427 88.43 156.715L88.4959 156.857L88.4373 157.003C88.3959 157.088 84.8518 165.604 73.9073 173.414Z" fill="#35375B"/>
<path d="M45.5128 124.132C35.6873 118.575 28.2537 109.588 24.6337 98.8915C22.198 91.8483 22.4746 84.1494 25.4094 77.2993L26.0801 77.5898C24.0581 82.2635 22.2848 89.7123 25.3264 98.6548C28.887 109.182 36.203 118.026 45.8738 123.493L45.5128 124.132Z" fill="#35375B"/>
<path d="M38.374 127.532C32.6663 123.871 24.7147 116.466 19.3266 102.071C16.3777 94.2126 17.1314 85.3117 21.4243 77.0135C25.5221 69.1084 32.2712 63.102 39.0398 61.3398L39.2252 62.0501C32.6517 63.7585 26.0782 69.616 22.0731 77.3528C17.8705 85.463 17.1363 94.1516 20.012 101.815C25.3416 116.022 33.1542 123.319 38.7813 126.917L38.374 127.532Z" fill="#35375B"/>
<path d="M40.8459 138.733C29.8014 135.823 19.1741 128.907 11.6883 119.757C5.44653 112.13 -1.59285 99.2554 0.319441 81.2314C2.06343 64.8011 7.80519 53.2301 12.3079 46.4159C17.1983 39.0208 21.7522 35.46 21.7961 35.4331L22.2449 36.0115C22.201 36.0481 17.7228 39.5529 12.8981 46.8577C8.44425 53.5914 2.77322 65.0428 1.04631 81.3095C-2.44899 114.258 23.0426 133.295 41.0313 138.025L40.8459 138.733Z" fill="#35375B"/>
<path d="M25.9487 62.3043C24.1874 62.3127 22.4612 61.8118 20.9777 60.8619C16.3726 57.9015 15.2945 51.3435 18.5727 46.2182C20.0934 43.7963 22.4557 42.0229 25.2048 41.2393C26.4857 40.8628 27.8322 40.7635 29.1545 40.9483C30.4767 41.133 31.7445 41.5975 32.8734 42.3107C35.1248 43.7556 36.5883 46.0742 37.0468 48.8467C37.4508 51.6733 36.8249 54.5509 35.2834 56.9537C33.7419 59.3565 31.3878 61.1241 28.6513 61.9334C27.7711 62.1776 26.8621 62.3024 25.9487 62.3043ZM21.3802 60.242C22.4224 60.8977 23.5923 61.3239 24.8119 61.4923C26.0315 61.6606 27.2729 61.5672 28.4537 61.2183C31.0169 60.4577 33.2217 58.8008 34.6661 56.5496C36.1104 54.2983 36.6983 51.6028 36.3224 48.9541C35.9053 46.389 34.5418 44.2486 32.4807 42.9258C30.4197 41.603 27.9098 41.2515 25.4072 41.9495C22.8315 42.6856 20.6194 44.3496 19.1971 46.6209C16.136 51.3923 17.1141 57.5036 21.3924 60.2445L21.3802 60.242Z" fill="#35375B"/>
<path d="M26.5858 55.6803C25.9075 55.6839 25.2426 55.4916 24.671 55.1263C24.2408 54.8455 23.8753 54.4763 23.5986 54.0433C23.3218 53.6103 23.1403 53.1234 23.0661 52.6149C22.9105 51.5397 23.1478 50.4446 23.7343 49.5304C24.3208 48.6163 25.2172 47.9445 26.2589 47.6384C26.7517 47.494 27.2696 47.4564 27.7781 47.5279C28.2865 47.5995 28.774 47.7786 29.2078 48.0533C30.9762 49.1882 31.4031 51.6972 30.1445 53.6472C29.7672 54.2556 29.2441 54.7602 28.6227 55.1152C28.0013 55.4702 27.3011 55.6644 26.5858 55.6803ZM27.2931 48.2291C27.0087 48.2291 26.7256 48.2677 26.4516 48.3438C25.586 48.6037 24.8417 49.1648 24.3533 49.9256C23.8648 50.6865 23.6644 51.597 23.7881 52.4928C23.8459 52.8997 23.9899 53.2896 24.2103 53.6364C24.4307 53.9831 24.7225 54.2789 25.0662 54.5039C26.4931 55.4216 28.4956 54.8578 29.5298 53.247C30.564 51.6362 30.2396 49.586 28.8127 48.6635C28.3556 48.3739 27.8244 48.223 27.2834 48.2291H27.2931Z" fill="#FD4C00"/>
<path d="M75.8238 118.438C75.0216 118.446 74.2314 118.244 73.531 117.853C73.113 117.632 72.7516 117.318 72.4753 116.934C72.1989 116.551 72.0151 116.108 71.9383 115.642C71.6724 113.801 73.3237 112.034 75.614 111.707C76.6594 111.541 77.7303 111.727 78.6581 112.237C79.0758 112.458 79.4369 112.772 79.7132 113.156C79.9894 113.539 80.1735 113.982 80.2509 114.448C80.5143 116.288 78.8654 118.055 76.5726 118.382C76.3247 118.419 76.0744 118.438 75.8238 118.438ZM76.3653 112.383C76.1491 112.384 75.9331 112.4 75.7189 112.43C73.8262 112.703 72.4554 114.097 72.6602 115.537C72.7244 115.894 72.8702 116.232 73.0864 116.524C73.3027 116.815 73.5834 117.053 73.9066 117.218C74.6922 117.645 75.597 117.801 76.4799 117.66C78.3727 117.387 79.746 115.993 79.5386 114.553C79.4762 114.197 79.3323 113.859 79.1182 113.568C78.9042 113.276 78.6256 113.038 78.3044 112.871C77.711 112.545 77.0424 112.38 76.3653 112.393V112.383Z" fill="#35375B"/>
<path d="M72.2 192.277L72.0658 192.231C65.2996 189.82 52.1965 184.863 40.4422 178.769C25.422 170.976 17.3703 163.834 16.5142 157.552C16.0264 153.986 17.8679 150.718 21.9803 147.819C25.9903 144.995 31.6076 143.109 38.6763 142.206L38.769 142.938C31.8199 143.821 26.3123 145.666 22.3999 148.419C18.5289 151.143 16.7898 154.184 17.2386 157.45C19.1509 171.493 59.592 186.981 72.1853 191.487C73.1073 191.081 78.8905 188.443 86.3104 182.869C96.9865 174.806 105.954 164.7 112.69 153.137C110.334 152.429 98.8038 149.037 84.5884 146.257L84.7299 145.539C100.653 148.651 113.219 152.534 113.344 152.573L113.783 152.708L113.544 153.096C106.734 164.921 97.615 175.253 86.73 183.477C78.5978 189.578 72.4024 192.197 72.339 192.224L72.2 192.277Z" fill="#35375B"/>
<path d="M73.4858 201L73.3273 200.944C63.4536 197.424 31.3447 183.064 20.7344 170.358L21.2954 169.887C31.1837 181.729 61.9999 196.097 73.42 200.199C75.4616 198.979 98.4018 184.95 113.964 159.963L114.583 160.351C106.048 174.036 95.3723 184.335 87.9207 190.564C79.8423 197.315 73.6932 200.88 73.6322 200.915L73.4858 201Z" fill="#35375B"/>
<path d="M123.078 103.57C123.774 105.683 124.628 107.74 125.635 109.723C128.806 115.942 135.255 121.474 141.489 124.611L141.443 124.635C147.568 121.286 154.307 115.456 157.27 109.132C160.234 102.809 161.532 95.8064 161.851 88.8286C161.912 87.7418 161.912 86.6524 161.851 85.5655L161.754 85.6094L141.192 76.6499L141.055 76.706L120.351 86.366L120.256 86.3245C120.234 87.4127 120.272 88.5013 120.371 89.5852C120.749 94.3273 121.591 99.0646 123.078 103.57Z" fill="#FD4C00"/>
<path d="M140.533 126.063L140.382 125.777L140.25 126.038C139.184 125.501 138.108 124.896 137.052 124.24L137.44 123.617C138.416 124.227 139.416 124.791 140.406 125.296C145.911 122.241 153.38 116.266 156.641 109.313C159.436 103.345 161.044 96.2237 161.417 88.1452C161.458 87.2251 161.493 86.1512 161.441 85.0773L140.104 75.781L122.583 83.9498L122.273 83.2859L139.816 75.1147L140.121 74.9951L161.685 84.3891L162.119 84.1792L162.156 84.721C162.22 85.8753 162.22 87.0323 162.156 88.1867C161.78 96.3603 160.151 103.575 157.314 109.632C154.063 116.574 146.984 122.404 141.201 125.702H141.226L140.533 126.063Z" fill="#35375B"/>
<path d="M130.689 102.38C131.111 103.65 131.629 104.887 132.238 106.08C134.146 109.821 138.024 113.157 141.775 115.039L141.746 115.054C145.431 113.04 149.485 109.531 151.259 105.728C153.032 101.926 153.822 97.7107 154.017 93.5128C154.053 92.8625 154.053 92.2106 154.017 91.5603L153.961 91.5871L141.592 86.1982L141.509 86.2324L129.05 92.0289L128.992 92.0045C128.979 92.6561 129.003 93.308 129.062 93.957C129.265 96.8164 129.811 99.641 130.689 102.37V102.38Z" fill="white"/>
<path d="M141.154 104.224L136.941 100.009L137.461 99.4919L141.154 103.189L147.376 96.9609L147.893 97.4783L141.154 104.224Z" fill="#FD4C00"/>
</g>
<defs>
<clipPath id="clip0_298_3687">
<rect width="224" height="201" fill="white"/>
</clipPath>
</defs>
</svg>
