<svg width="26" height="18" viewBox="0 0 26 18" fill="none" xmlns="http://www.w3.org/2000/svg">
<path d="M0.220055 3.547C0.335733 1.7661 1.76755 0.37041 3.55002 0.282101C6.13115 0.154226 9.82033 0 12.6 0C15.3797 0 19.0689 0.154226 21.65 0.282101C23.4324 0.370409 24.8643 1.7661 24.9799 3.547C25.0908 5.25323 25.2 7.35269 25.2 9C25.2 10.6473 25.0908 12.7468 24.9799 14.453C24.8643 16.2339 23.4324 17.6296 21.65 17.7179C19.0689 17.8458 15.3797 18 12.6 18C9.82033 18 6.13115 17.8458 3.55002 17.7179C1.76755 17.6296 0.335733 16.2339 0.220055 14.453C0.109228 12.7468 0 10.6473 0 9C0 7.35269 0.109228 5.25323 0.220055 3.547Z" fill="#9495A4"/>
<path d="M9.89844 5.3999V12.5999L17.0984 8.9999L9.89844 5.3999Z" fill="#F4F4F4"/>
</svg>
