<svg width="22" height="24" viewBox="0 0 22 24" fill="none" xmlns="http://www.w3.org/2000/svg">
<path d="M4.07825 15.3933C4.2215 14.2073 4.70795 13.5432 5.62465 12.8624C6.93627 11.9405 8.57468 12.462 8.57468 12.462V9.36808C8.97299 9.3579 9.37147 9.38151 9.76544 9.43864V13.4202C9.76544 13.4202 8.12753 12.8987 6.8159 13.8211C5.8997 14.5014 5.41226 15.1659 5.26951 16.352C5.26503 16.9961 5.3859 17.838 5.94248 18.5659C5.80487 18.4954 5.6646 18.4149 5.52169 18.3247C4.29561 17.5014 4.07228 16.2662 4.07825 15.3933ZM16.5305 3.64745C15.6282 2.65873 15.287 1.66048 15.1636 0.959229H16.2987C16.2987 0.959229 16.0724 2.79794 17.7217 4.60613L17.7446 4.63044C17.3001 4.35082 16.8924 4.02077 16.5305 3.64745ZM21.9983 6.45056V10.352C21.9983 10.352 20.5499 10.2953 19.478 10.0226C17.9814 9.64124 17.0194 9.05631 17.0194 9.05631C17.0194 9.05631 16.3549 8.63918 16.3012 8.6101V16.6667C16.3012 17.1152 16.1783 18.2355 15.8038 19.1699C15.3148 20.3922 14.5603 21.1945 14.4215 21.3585C14.4215 21.3585 13.5038 22.4431 11.8848 23.1734C10.4255 23.8322 9.1442 23.8155 8.7612 23.8322C8.7612 23.8322 6.54632 23.9199 4.55326 22.6247C4.12228 22.3392 3.71997 22.0159 3.35156 21.6589L3.36151 21.666C5.35506 22.9613 7.56945 22.8735 7.56945 22.8735C7.95294 22.8569 9.23423 22.8735 10.6931 22.2147C12.3106 21.4844 13.2298 20.3998 13.2298 20.3998C13.3671 20.2359 14.1251 19.4335 14.612 18.2108C14.9856 17.2769 15.1094 16.1561 15.1094 15.7075V7.65189C15.1631 7.68145 15.8272 8.09858 15.8272 8.09858C15.8272 8.09858 16.7896 8.68399 18.2863 9.06489C19.3587 9.33757 20.8066 9.3943 20.8066 9.3943V6.3371C21.302 6.44818 21.7242 6.47821 21.9983 6.45056Z" fill="#757689"/>
<path d="M20.8079 6.3371V9.39335C20.8079 9.39335 19.36 9.33662 18.2876 9.06394C16.7909 8.68256 15.8285 8.09763 15.8285 8.09763C15.8285 8.09763 15.1645 7.6805 15.1107 7.65094V15.7085C15.1107 16.157 14.9879 17.2778 14.6134 18.2117C14.1244 19.4345 13.3699 20.2368 13.2311 20.4008C13.2311 20.4008 12.3129 21.4853 10.6944 22.2157C9.23554 22.8745 7.95426 22.8578 7.57077 22.8745C7.57077 22.8745 5.35638 22.9622 3.36283 21.667L3.35288 21.6598C3.1424 21.456 2.94428 21.2408 2.75949 21.0153C2.12332 20.2397 1.73337 19.3225 1.63538 19.0607C1.63521 19.0596 1.63521 19.0585 1.63538 19.0574C1.47771 18.6026 1.14645 17.5105 1.19171 16.4526C1.27179 14.5863 1.92835 13.4407 2.10194 13.1537C2.56168 12.3711 3.15963 11.6709 3.86917 11.0843C4.49531 10.5781 5.20501 10.1753 5.96916 9.89247C6.79525 9.56042 7.67984 9.38244 8.5755 9.36808V12.462C8.5755 12.462 6.93709 11.9424 5.62596 12.8624C4.70927 13.5432 4.22282 14.2073 4.07957 15.3933C4.0736 16.2662 4.29693 17.5014 5.52201 18.3252C5.66493 18.4157 5.80519 18.4961 5.9428 18.5664C6.15682 18.8446 6.41732 19.087 6.71376 19.2838C7.91049 20.0414 8.91323 20.0943 10.1955 19.6023C11.0505 19.2734 11.6942 18.5321 11.9926 17.7107C12.1801 17.1977 12.1776 16.6814 12.1776 16.1475V0.959229H15.162C15.2853 1.66048 15.6265 2.65873 16.5288 3.64745C16.8908 4.02077 17.2984 4.35082 17.7429 4.63044C17.8743 4.76631 18.5457 5.43801 19.4077 5.85037C19.8534 6.06352 20.3232 6.22684 20.8079 6.3371Z" fill="#9495A4"/>
<path d="M0.449219 18.1106V18.113L0.523271 18.3137C0.514765 18.2903 0.487246 18.2193 0.449219 18.1106Z" fill="#B9BACC"/>
<path d="M5.9701 9.89235C5.20594 10.1752 4.49624 10.5779 3.87011 11.0841C3.16034 11.6721 2.56254 12.3738 2.10337 13.1579C1.92978 13.4439 1.27322 14.5904 1.19314 16.4568C1.14788 17.5146 1.47914 18.6068 1.63682 19.0616C1.63665 19.0627 1.63665 19.0638 1.63682 19.0649C1.7363 19.3242 2.12476 20.2414 2.76092 21.0195C2.94572 21.245 3.14384 21.4602 3.35431 21.664C2.67994 21.217 2.07851 20.6765 1.56967 20.0603C0.938975 19.2913 0.550014 18.3837 0.448546 18.1158C0.448427 18.1139 0.448427 18.1119 0.448546 18.11V18.1067C0.290375 17.6524 -0.0418824 16.5597 0.00437512 15.5005C0.0844553 13.6341 0.741013 12.4886 0.914603 12.2016C1.37363 11.4174 1.97145 10.7157 2.68134 10.1278C3.30735 9.62146 4.01708 9.21866 4.78133 8.93605C5.25804 8.74648 5.75464 8.60663 6.26257 8.51892C7.02804 8.39085 7.80983 8.37975 8.57893 8.48602V9.36796C7.68242 9.38201 6.79696 9.56 5.9701 9.89235Z" fill="#B9BACC"/>
<path d="M15.1665 0.95916H12.1821V16.1479C12.1821 16.6818 12.1821 17.1967 11.9971 17.7111C11.6957 18.532 11.0545 19.2733 10.2 19.6022C8.91723 20.0961 7.91449 20.0413 6.71826 19.2838C6.4213 19.0878 6.16014 18.8462 5.94531 18.5687C6.96447 19.0898 7.87669 19.0807 9.00676 18.6459C9.86079 18.317 10.5029 17.5757 10.8033 16.7543C10.9914 16.2414 10.9889 15.7251 10.9889 15.1916V0H15.1098C15.1098 0 15.0635 0.377562 15.1665 0.95916ZM20.8099 5.49181V6.33703C20.3261 6.22659 19.8571 6.06328 19.4122 5.8503C18.5502 5.43794 17.8788 4.76624 17.7474 4.63038C17.8998 4.72626 18.0579 4.81349 18.221 4.89162C19.269 5.39313 20.3011 5.54282 20.8099 5.49181Z" fill="#B9BACC"/>
</svg>
