<svg width="549" height="406" viewBox="0 0 549 406" fill="none" xmlns="http://www.w3.org/2000/svg">
<path d="M72.7221 291.871C57.2775 282.954 43.3319 270.898 38.6598 255.212C34.9892 242.899 36.9365 231.412 44.2642 222.042C49.7245 215.371 56.7662 210.165 64.755 206.894C61.3374 202.151 58.868 196.796 57.4824 191.124C47.1675 149.973 91.4236 95.628 91.8705 95.0799L92.7592 95.801C92.3122 96.3491 48.4103 150.261 58.5951 190.869C59.9721 196.454 62.4292 201.719 65.8279 206.369C74.9578 202.605 84.7848 200.801 94.6713 201.075C114.891 201.97 128.123 206.763 130.974 214.234C132.227 217.557 131.208 221.129 128.146 224.082C121.727 230.296 107.083 233.192 91.5421 226.702C80.1247 221.931 71.3994 215.593 65.4543 207.74C57.55 210.942 50.5836 216.075 45.1937 222.67C37.9743 231.92 36.1898 242.786 39.7574 254.87C51.7653 295.1 126.136 311.242 126.901 311.385L126.67 312.486C126.222 312.358 97.5235 306.19 72.7221 291.871ZM66.5325 207.296C72.3688 214.878 80.857 221.001 91.9974 225.665C107.09 231.96 121.252 229.242 127.331 223.234C130.082 220.571 130.973 217.535 129.891 214.596C128.619 211.261 122.633 203.411 94.5813 202.18C84.9708 201.92 75.4179 203.662 66.5325 207.296Z" fill="#35375B"/>
<path fill-rule="evenodd" clip-rule="evenodd" d="M363.593 163.139C363.593 163.139 400.489 164.797 415.107 194.495C429.725 224.193 440.789 400.975 440.789 400.975C400.739 400.975 293.707 406.654 260.265 402.03L248.801 292.986C248.801 292.986 253.807 178.063 268.475 170.023C283.143 161.983 338.863 156.958 363.593 163.139Z" fill="#35375B"/>
<path fill-rule="evenodd" clip-rule="evenodd" d="M363.291 68.2647C363.291 68.2647 382.065 31.7827 364.343 25.2501C346.621 18.7175 327.147 39.27 327.147 39.27C327.147 39.27 288.749 44.9986 275.282 66.5059C261.816 88.0132 300.013 122.335 300.013 122.335L363.291 68.2647Z" fill="#35375B"/>
<path fill-rule="evenodd" clip-rule="evenodd" d="M359.536 58.1142C359.536 58.1142 378.159 103.34 370.7 128.063C363.241 152.787 340.663 148.616 327.046 143.54C319.38 140.845 312.571 136.144 307.321 129.922C303.402 130.971 299.252 130.748 295.467 129.286C291.681 127.824 288.453 125.197 286.245 121.782C277.985 109.772 283.442 96.2042 290.801 93.2394C293.461 92.5283 296.239 92.3755 298.961 92.7905C301.683 93.2055 304.29 94.1794 306.62 95.6515L300.112 82.5863C300.112 82.5863 329.799 17.4111 359.536 58.1142Z" fill="#FFA17A"/>
<path fill-rule="evenodd" clip-rule="evenodd" d="M363.292 68.265C361.97 66.0458 360.101 64.2053 357.865 62.9205C355.63 61.6357 353.102 60.9496 350.526 60.9284C347.873 60.9385 345.25 61.497 342.822 62.569C340.393 63.6411 338.21 65.2037 336.409 67.1595C336.409 67.1595 340.264 82.2347 328.149 90.1743C321.976 94.7929 314.259 96.8284 306.622 95.8527L297.861 92.6869L291.453 79.7724L316.935 52.3858L349.876 35.0493L366.596 50.1245L363.292 68.265Z" fill="#35375B"/>
<path fill-rule="evenodd" clip-rule="evenodd" d="M359.687 34.6974C359.687 34.6974 357.784 5.40122 321.439 18.2654C285.094 31.1296 287.898 71.0789 287.898 71.0789L359.687 34.6974Z" fill="#35375B"/>
<path fill-rule="evenodd" clip-rule="evenodd" d="M413.905 308.212C413.905 308.212 409.6 279.921 404.193 254.645C398.786 229.369 384.168 182.636 384.168 182.636L420.012 158.616C420.012 158.616 475.081 223.942 489.599 284.243C504.117 344.543 493.353 363.438 462.515 359.619C426.07 355.448 413.905 308.212 413.905 308.212Z" fill="#35375B"/>
<path fill-rule="evenodd" clip-rule="evenodd" d="M208.098 342.885C208.098 342.885 215.807 389.468 282.039 393.99C335.205 397.658 424.316 370.222 424.316 370.222C424.316 370.222 466.568 370.875 478.033 365.548C491.249 360.825 493.051 353.187 489.597 345.096C494.603 341.83 493.101 329.317 490.698 324.996C492.619 321.584 493.309 317.612 492.653 313.75C491.996 309.887 490.033 306.369 487.094 303.79C488.546 293.388 467.069 290.675 451.349 295.147C443.189 297.458 421.663 317.358 421.663 317.358L289.348 312.584L208.098 342.885Z" fill="#FFA17A"/>
<path fill-rule="evenodd" clip-rule="evenodd" d="M420.013 158.615C420.013 158.615 403.792 101.129 395.332 102.134C386.871 103.139 370.301 120.123 366.596 126.354C365.64 128.593 365.148 131.004 365.148 133.44C365.148 135.876 365.64 138.286 366.596 140.525C366.596 140.525 363.242 144.746 366.596 147.46C369.95 150.173 379.512 144.394 379.512 144.394C379.512 144.394 371.052 187.108 395.883 192.133C420.713 197.158 420.013 158.615 420.013 158.615Z" fill="#FFA17A"/>
<path fill-rule="evenodd" clip-rule="evenodd" d="M366.598 138.315C366.408 138.321 366.219 138.283 366.045 138.205C365.872 138.126 365.718 138.009 365.597 137.862C365.364 137.619 365.234 137.295 365.234 136.958C365.234 136.621 365.364 136.297 365.597 136.053L384.22 121.43C384.454 121.2 384.768 121.071 385.096 121.071C385.423 121.071 385.738 121.2 385.972 121.43C386.092 121.543 386.187 121.679 386.252 121.831C386.318 121.982 386.351 122.145 386.351 122.31C386.351 122.475 386.318 122.638 386.252 122.789C386.187 122.94 386.092 123.076 385.972 123.189L367.399 137.812C367.306 137.946 367.187 138.059 367.05 138.146C366.912 138.232 366.758 138.29 366.598 138.315Z" fill="#35375B"/>
<path fill-rule="evenodd" clip-rule="evenodd" d="M369.348 123.742C369.138 123.73 368.934 123.67 368.751 123.565C368.569 123.46 368.413 123.314 368.297 123.139C368.125 122.85 368.071 122.506 368.146 122.179C368.221 121.851 368.418 121.565 368.697 121.38L384.467 111.33C384.746 111.143 385.087 111.075 385.415 111.141C385.744 111.207 386.033 111.402 386.219 111.681C386.405 111.961 386.472 112.304 386.407 112.634C386.341 112.964 386.147 113.254 385.869 113.44L370.049 123.49C369.848 123.646 369.602 123.734 369.348 123.742Z" fill="#35375B"/>
<path fill-rule="evenodd" clip-rule="evenodd" d="M312.277 87.4604C316.88 85.5156 320.921 82.4384 324.027 78.5126C327.133 74.5869 329.204 69.9392 330.049 64.9983C330.145 64.5144 330.055 64.0119 329.799 63.5913C329.672 63.39 329.503 63.2186 329.305 63.0885C329.106 62.9584 328.882 62.8728 328.647 62.8375C328.165 62.7412 327.664 62.8309 327.245 63.0888C327.045 63.216 326.874 63.3851 326.744 63.5846C326.615 63.784 326.53 64.0091 326.494 64.2446C325.781 68.4772 324.064 72.4755 321.488 75.9027C318.847 79.3303 315.409 82.0562 311.476 83.8424C311.095 83.9169 310.755 84.132 310.525 84.4454C310.284 84.7317 310.128 85.0798 310.074 85.4504C309.975 85.7951 309.975 86.1609 310.074 86.5056C310.243 86.8269 310.505 87.0896 310.825 87.2594C311.147 87.4359 311.51 87.5227 311.876 87.5107L312.277 87.4604Z" fill="#E3E3E3"/>
<path fill-rule="evenodd" clip-rule="evenodd" d="M309.374 77.1592C309.623 77.2023 309.877 77.2023 310.125 77.1592C312.816 75.412 315.028 73.0156 316.559 70.1889C318.089 67.3623 318.889 64.1956 318.886 60.9785C318.934 60.6909 318.899 60.3955 318.783 60.1279C318.668 59.8603 318.477 59.6321 318.235 59.4709C318.07 59.2941 317.867 59.1571 317.642 59.0701C317.416 58.9831 317.174 58.9483 316.934 58.9684C316.694 58.9718 316.458 59.0275 316.242 59.1316C316.026 59.2357 315.835 59.3858 315.682 59.5714C315.514 59.7432 315.383 59.9478 315.297 60.1726C315.211 60.3973 315.171 60.6374 315.181 60.878C315.178 63.4338 314.54 65.9485 313.325 68.1945C312.11 70.4406 310.356 72.3473 308.223 73.7421C307.87 73.9639 307.605 74.3012 307.472 74.6969C307.348 75.1064 307.348 75.5437 307.472 75.9532C307.637 76.3452 307.916 76.678 308.273 76.9079C308.663 77.0347 309.084 77.0347 309.474 76.9079L309.374 77.1592Z" fill="#E3E3E3"/>
<path fill-rule="evenodd" clip-rule="evenodd" d="M299.613 120.224C299.855 120.214 300.093 120.151 300.31 120.041C300.526 119.93 300.717 119.775 300.869 119.584C301.02 119.394 301.13 119.173 301.19 118.937C301.249 118.7 301.258 118.454 301.215 118.214C300.945 115.226 300.04 112.33 298.561 109.722C297.109 107.112 295.111 104.849 292.704 103.089C292.508 102.948 292.287 102.845 292.053 102.787H291.302C291.065 102.835 290.842 102.939 290.652 103.089C290.449 103.217 290.278 103.388 290.151 103.591C290.009 103.805 289.907 104.044 289.851 104.295C289.826 104.545 289.826 104.798 289.851 105.048C289.899 105.287 290.001 105.51 290.151 105.702C290.298 105.906 290.485 106.077 290.702 106.204C292.664 107.682 294.286 109.568 295.458 111.732C296.636 113.873 297.369 116.232 297.61 118.666C297.659 119.153 297.892 119.603 298.261 119.923C298.449 120.074 298.666 120.183 298.899 120.244C299.132 120.305 299.375 120.315 299.613 120.274V120.224Z" fill="#35375B"/>
<path fill-rule="evenodd" clip-rule="evenodd" d="M297.811 113.742C298.302 113.7 298.763 113.487 299.113 113.139C299.43 112.778 299.608 112.314 299.613 111.832C299.572 111.34 299.359 110.877 299.013 110.526C298.841 110.357 298.638 110.226 298.414 110.139C298.19 110.053 297.951 110.013 297.711 110.023L289.951 109.42H289.2L288.55 109.772C288.345 109.938 288.175 110.143 288.049 110.375C288.02 110.609 288.02 110.845 288.049 111.079C288.08 111.3 288.13 111.519 288.199 111.732C288.303 111.951 288.438 112.154 288.6 112.335C288.753 112.54 288.962 112.696 289.2 112.787C289.431 112.839 289.67 112.839 289.901 112.787L297.711 113.39L297.811 113.742Z" fill="#35375B"/>
<path fill-rule="evenodd" clip-rule="evenodd" d="M363.292 73.4909L355.332 72.7874C354.938 72.7371 354.579 72.5371 354.327 72.2286C354.076 71.9201 353.952 71.5267 353.981 71.1291C354.031 70.7471 354.225 70.3989 354.523 70.1559C354.821 69.9129 355.2 69.7936 355.583 69.8226L363.442 70.5764C363.827 70.5764 364.197 70.7299 364.469 71.0032C364.741 71.2765 364.894 71.6472 364.894 72.0337C364.894 72.4202 364.741 72.7908 364.469 73.0641C364.197 73.3374 363.827 73.4909 363.442 73.4909H363.292Z" fill="#35375B"/>
<path fill-rule="evenodd" clip-rule="evenodd" d="M328.247 84.2448C327.911 84.2331 327.589 84.109 327.332 83.8922C327.075 83.6754 326.898 83.3785 326.829 83.0488C326.76 82.7191 326.803 82.3756 326.951 82.0732C327.099 81.7708 327.344 81.527 327.646 81.3805L338.259 76.5565C338.626 76.4187 339.03 76.425 339.392 76.5741C339.754 76.7232 340.047 77.0041 340.212 77.3605C340.363 77.7138 340.369 78.1128 340.228 78.4705C340.087 78.8282 339.811 79.1155 339.461 79.27L328.847 83.893C328.695 84.0786 328.482 84.2034 328.247 84.2448Z" fill="#35375B"/>
<path fill-rule="evenodd" clip-rule="evenodd" d="M359.436 133.088C359.179 133.078 358.929 132.999 358.712 132.86C358.495 132.72 358.319 132.526 358.202 132.295C358.085 132.065 358.031 131.808 358.045 131.55C358.06 131.292 358.142 131.042 358.285 130.827L364.042 121.782C364.256 121.466 364.582 121.243 364.954 121.159C365.326 121.075 365.716 121.136 366.044 121.33C366.212 121.432 366.358 121.567 366.472 121.728C366.586 121.888 366.667 122.07 366.709 122.263C366.751 122.456 366.754 122.655 366.717 122.848C366.68 123.042 366.605 123.226 366.495 123.39L360.688 132.586C360.533 132.762 360.339 132.899 360.121 132.986C359.904 133.073 359.669 133.108 359.436 133.088Z" fill="#35375B"/>
<path fill-rule="evenodd" clip-rule="evenodd" d="M342.716 94.144C342.967 94.0347 343.194 93.8762 343.383 93.6777C343.572 93.4793 343.72 93.2448 343.817 92.9882C344.017 92.4536 344.017 91.8645 343.817 91.3299C343.563 90.8159 343.138 90.4071 342.616 90.1742C342.363 90.0635 342.09 90.0063 341.815 90.0063C341.539 90.0063 341.266 90.0635 341.014 90.1742L333.254 93.1892C332.755 93.438 332.35 93.8439 332.103 94.345C331.991 94.6071 331.934 94.8891 331.934 95.1741C331.934 95.4591 331.991 95.7412 332.103 96.0032C332.2 96.2599 332.348 96.4943 332.537 96.6928C332.726 96.8913 332.953 97.0498 333.204 97.159C333.465 97.271 333.746 97.3287 334.03 97.3287C334.314 97.3287 334.595 97.271 334.856 97.159L342.466 94.144H342.716Z" fill="#35375B"/>
<path fill-rule="evenodd" clip-rule="evenodd" d="M336.508 96.3552C336.513 96.6891 336.599 97.0168 336.758 97.31C336.864 97.6384 337.054 97.9331 337.309 98.1642C337.562 98.3785 337.85 98.5484 338.16 98.6667C338.47 98.7634 338.801 98.7634 339.111 98.6667C339.8 98.6279 340.446 98.3215 340.913 97.8125C341.361 97.2966 341.609 96.6371 341.614 95.9532C341.666 95.6202 341.666 95.2812 341.614 94.9482C341.459 94.6488 341.256 94.3772 341.013 94.1442C340.799 93.9042 340.521 93.73 340.212 93.6417C339.886 93.5439 339.538 93.5439 339.211 93.6417C338.526 93.6952 337.885 93.9992 337.409 94.4959C336.954 95.007 336.704 95.6696 336.708 96.3552H336.508Z" fill="#35375B"/>
<path fill-rule="evenodd" clip-rule="evenodd" d="M365.646 85.9531C365.909 85.8721 366.152 85.7362 366.359 85.5544C366.566 85.3725 366.733 85.1488 366.848 84.8978C366.983 84.6492 367.066 84.3752 367.091 84.093C367.117 83.8108 367.083 83.5263 366.994 83.2575C366.905 82.9887 366.761 82.7412 366.572 82.5306C366.384 82.32 366.154 82.1508 365.897 82.0335C365.381 81.8365 364.81 81.8365 364.295 82.0335L356.285 83.9431L355.484 84.2948C355.274 84.4889 355.089 84.7083 354.933 84.9481C354.781 85.1755 354.679 85.4323 354.633 85.7018C354.581 85.9842 354.581 86.2737 354.633 86.5561C354.697 86.8441 354.816 87.117 354.983 87.3601C355.146 87.5811 355.35 87.7687 355.584 87.9129C355.829 88.0649 356.101 88.1674 356.385 88.2144C356.664 88.289 356.957 88.289 357.236 88.2144L365.246 86.3048C365.337 86.2849 365.421 86.2423 365.491 86.1808C365.561 86.1192 365.615 86.0409 365.646 85.9531Z" fill="#35375B"/>
<path fill-rule="evenodd" clip-rule="evenodd" d="M364.144 86.3046C364.279 86.6224 364.349 86.9642 364.349 87.3097C364.349 87.6551 364.279 87.9969 364.144 88.3147C363.89 88.9521 363.408 89.4716 362.793 89.772C362.479 89.8399 362.155 89.8399 361.841 89.772C361.512 89.8491 361.17 89.8491 360.84 89.772C360.518 89.655 360.227 89.4659 359.989 89.2192C359.751 88.9936 359.563 88.7195 359.438 88.4152C359.187 87.7689 359.187 87.0514 359.438 86.4051C359.556 86.084 359.735 85.7896 359.968 85.5394C360.2 85.2891 360.479 85.088 360.79 84.9479C361.105 84.8963 361.426 84.8963 361.741 84.9479C362.057 84.8996 362.377 84.8996 362.693 84.9479C363.011 85.0719 363.3 85.26 363.544 85.5006C363.815 85.7063 364.024 85.9851 364.144 86.3046Z" fill="#35375B"/>
<path fill-rule="evenodd" clip-rule="evenodd" d="M364.094 113.088C365.985 111.897 367.456 110.139 368.299 108.063C368.473 107.371 368.473 106.645 368.299 105.953C368.174 105.25 367.901 104.582 367.498 103.993C366.423 102.622 365.118 101.449 363.643 100.526C358.066 96.6696 353.65 91.3508 350.877 85.149C350.765 84.9311 350.609 84.7385 350.419 84.583C350.23 84.4275 350.011 84.3123 349.776 84.2445C349.555 84.1476 349.316 84.0977 349.075 84.0977C348.834 84.0977 348.595 84.1476 348.374 84.2445C348.159 84.3526 347.97 84.5082 347.823 84.6996C347.675 84.891 347.573 85.1133 347.523 85.35C347.471 85.5816 347.471 85.8219 347.523 86.0535C347.481 86.2861 347.481 86.5244 347.523 86.757C350.58 93.4606 355.368 99.221 361.39 103.44C362.507 104.108 363.505 104.957 364.344 105.953C364.394 106.082 364.394 106.226 364.344 106.355C364.394 106.501 364.394 106.66 364.344 106.807C363.743 108.867 359.338 111.832 356.034 112.787C355.815 112.891 355.613 113.026 355.433 113.189C355.24 113.354 355.086 113.56 354.982 113.792C354.935 114.024 354.935 114.263 354.982 114.495C354.935 114.744 354.935 115 354.982 115.249C355.098 115.461 355.232 115.663 355.383 115.852C355.581 116.015 355.8 116.15 356.034 116.254C356.261 116.331 356.507 116.331 356.735 116.254C356.965 116.306 357.205 116.306 357.435 116.254C359.767 115.456 362.001 114.394 364.094 113.088Z" fill="#35375B"/>
<path fill-rule="evenodd" clip-rule="evenodd" d="M373.302 236.906L387.069 227.962C387.069 212.886 385.768 197.409 384.416 184.846C380.685 179.196 378.572 172.625 378.309 165.852C359.886 160.324 343.265 160.425 323.24 158.465L347.57 303.74C339.294 255.365 331.05 206.957 322.84 158.515C305.568 162.334 282.139 160.274 268.723 170.022C271.126 183.138 277.884 223.037 285.293 245.399L301.263 249.318L289.999 258.564C303.215 292.634 323.24 327.056 353.628 339.97C378.309 317.76 385.868 278.464 386.969 241.931L373.302 236.906Z" fill="white"/>
<path fill-rule="evenodd" clip-rule="evenodd" d="M305.32 167.561L325.996 174.998L305.32 167.561C305.32 167.561 312.129 267.409 347.723 303.74C369.4 257.66 360.188 169.068 360.188 169.068C339.763 176.455 335.708 173.842 305.32 167.561Z" fill="#E3E3E3"/>
<path fill-rule="evenodd" clip-rule="evenodd" d="M304.82 163.993L333.256 175.902L307.724 205.651C305.321 180.726 304.82 163.993 304.82 163.993Z" fill="white"/>
<path fill-rule="evenodd" clip-rule="evenodd" d="M345.472 304.092L326.898 194.043C328.216 193.375 329.487 192.62 330.703 191.781L349.527 303.438L345.472 304.092Z" fill="white"/>
<path fill-rule="evenodd" clip-rule="evenodd" d="M307.371 129.922V165.751C307.371 165.751 313.779 175.801 334.705 177.811C350.224 179.168 355.731 175.651 355.731 175.651L353.278 157.46L351.225 139.772L313.679 131.329L307.371 129.922Z" fill="#FFA17A"/>
<path fill-rule="evenodd" clip-rule="evenodd" d="M316.383 138.013C325.344 153.088 345.018 156.706 353.429 157.46L352.177 146.907C343.688 148.051 335.049 146.906 327.146 143.59C323.352 142.164 319.739 140.292 316.383 138.013Z" fill="#35375B"/>
<path fill-rule="evenodd" clip-rule="evenodd" d="M291.454 163.691C292.255 158.113 236.386 163.138 206.349 251.981C188.026 305.699 193.883 390.673 193.883 390.673C268.976 409.769 345.822 381.88 421.816 381.277V306.302L289.402 312.232C290.102 262.735 248.801 195.55 291.454 163.691Z" fill="#35375B"/>
<path fill-rule="evenodd" clip-rule="evenodd" d="M422.416 381.88L361.641 388.865C351.606 363.656 349.237 336.028 354.832 309.468L425.37 303.84L422.416 381.88Z" fill="white"/>
<path fill-rule="evenodd" clip-rule="evenodd" d="M388.625 320.172C387.61 318.699 386.183 317.562 384.524 316.904C382.864 316.247 381.048 316.098 379.305 316.478C377.561 316.857 375.969 317.748 374.73 319.036C373.492 320.324 372.662 321.953 372.346 323.715C372.03 325.477 372.242 327.294 372.955 328.935C373.669 330.576 374.852 331.968 376.354 332.934C377.856 333.9 379.61 334.396 381.393 334.361C383.177 334.325 384.91 333.759 386.372 332.734C387.345 332.061 388.176 331.2 388.816 330.203C389.457 329.206 389.894 328.091 390.103 326.924C390.313 325.756 390.29 324.558 390.036 323.399C389.783 322.241 389.303 321.144 388.625 320.172Z" fill="#35375B"/>
<path fill-rule="evenodd" clip-rule="evenodd" d="M288.9 313.539C288.444 313.526 288.011 313.335 287.694 313.006C287.376 312.678 287.198 312.238 287.198 311.78L286.948 259.369C286.927 259.125 286.957 258.88 287.036 258.649C287.114 258.418 287.24 258.206 287.405 258.026C287.57 257.847 287.77 257.703 287.993 257.606C288.216 257.508 288.457 257.458 288.7 257.459C288.928 257.459 289.153 257.505 289.363 257.594C289.573 257.683 289.763 257.813 289.922 257.977C290.08 258.141 290.205 258.335 290.287 258.548C290.37 258.762 290.409 258.989 290.402 259.218L290.652 311.629C290.652 312.096 290.468 312.543 290.139 312.873C289.811 313.203 289.365 313.388 288.9 313.388V313.539Z" fill="white"/>
<path fill-rule="evenodd" clip-rule="evenodd" d="M414.007 300.524C413.575 300.67 413.103 300.642 412.692 300.445C412.281 300.248 411.962 299.898 411.804 299.469L394.482 250.022C394.403 249.804 394.367 249.573 394.377 249.341C394.386 249.109 394.442 248.882 394.539 248.672C394.637 248.462 394.775 248.273 394.946 248.116C395.117 247.96 395.316 247.839 395.534 247.761C395.966 247.615 396.437 247.643 396.848 247.84C397.26 248.037 397.578 248.387 397.737 248.816L415.108 298.313C415.251 298.753 415.216 299.232 415.01 299.645C414.803 300.059 414.443 300.375 414.007 300.524Z" fill="white"/>
<path fill-rule="evenodd" clip-rule="evenodd" d="M356.383 161.379L333.254 178.414L366.495 199.218C367.697 182.083 356.383 161.379 356.383 161.379Z" fill="white"/>
<path fill-rule="evenodd" clip-rule="evenodd" d="M340.763 186.304C334.924 192.218 327.692 196.556 319.737 198.917C304.857 208.958 291.674 221.325 280.689 235.549C270.977 247.811 263.768 261.831 254.706 274.594C247.242 283.805 237.383 290.762 226.221 294.695C211.361 301.037 195.823 305.64 179.914 308.413L163.844 292.132L182.317 270.624C182.317 270.624 220.414 278.313 246.596 247.409C272.779 216.504 297.66 199.469 317.334 191.379L320.839 182.233L328.248 175.902L340.763 186.304Z" fill="#FC4C00"/>
<path fill-rule="evenodd" clip-rule="evenodd" d="M472.978 355.9C472.952 356.08 472.887 356.253 472.787 356.405C472.688 356.558 472.557 356.687 472.403 356.783C472.249 356.88 472.075 356.941 471.895 356.964C471.715 356.987 471.532 356.97 471.359 356.914C471.186 356.859 471.027 356.766 470.894 356.643C470.76 356.52 470.654 356.369 470.585 356.201C470.515 356.033 470.482 355.851 470.489 355.669C470.496 355.487 470.543 355.309 470.625 355.146C472.697 348.622 473.99 341.875 474.48 335.046C475.056 327.824 474.838 320.561 473.829 313.388C473.801 313.225 473.806 313.059 473.844 312.899C473.882 312.739 473.953 312.588 474.051 312.456C474.15 312.324 474.274 312.214 474.417 312.132C474.56 312.05 474.717 311.999 474.88 311.981C475.045 311.952 475.214 311.957 475.376 311.995C475.539 312.033 475.693 312.103 475.828 312.201C475.963 312.3 476.078 312.424 476.164 312.567C476.251 312.711 476.308 312.87 476.332 313.036C477.342 320.395 477.56 327.841 476.983 335.247C476.467 342.266 475.123 349.199 472.978 355.9Z" fill="#35375B"/>
<path fill-rule="evenodd" clip-rule="evenodd" d="M138.012 406C135.357 406 132.81 404.941 130.933 403.057C129.055 401.172 128 398.616 128 395.95C128 393.285 129.055 390.728 130.933 388.844C132.81 386.959 135.357 385.9 138.012 385.9H520.988C523.643 385.9 526.19 386.959 528.067 388.844C529.945 390.728 531 393.285 531 395.95C531 398.616 529.945 401.172 528.067 403.057C526.19 404.941 523.643 406 520.988 406H138.012Z" fill="#E3E3E3"/>
<g clip-path="url(#clip0_298_4943)">
<path fill-rule="evenodd" clip-rule="evenodd" d="M500.601 68.8212C500.922 67.7104 501.46 66.6744 502.185 65.7731C502.91 64.8718 503.807 64.1233 504.824 63.5708C505.84 63.0184 506.957 62.6731 508.108 62.5549C509.26 62.4367 510.423 62.548 511.531 62.8823C512.647 63.1717 513.694 63.6786 514.613 64.3738C515.532 65.0689 516.304 65.9387 516.885 66.933C517.466 67.9273 517.845 69.0265 517.999 70.1674C518.153 71.3083 518.08 72.4685 517.783 73.581C517.152 75.8568 515.64 77.7886 513.582 78.9515C511.524 80.1144 509.088 80.4131 506.809 79.7819C504.531 79.1507 502.596 77.6413 501.432 75.5858C500.268 73.5303 499.969 71.097 500.601 68.8212ZM533.48 27.0308C535.185 21.0046 531.119 15.4587 522.768 13.1443C519.421 12.0106 515.842 11.7324 512.36 12.335C508.877 12.9376 505.601 14.4019 502.83 16.5941L494.086 6.85613C498.807 3.3491 504.317 1.0532 510.134 0.169991C515.95 -0.713218 521.895 -0.15672 527.446 1.79062C543.317 6.15744 551.931 16.3758 548.477 28.8212C543.58 46.2884 524.648 42.926 521.106 55.6771L507.378 51.878C511.575 35.8954 530.507 37.8605 533.48 27.0308Z" fill="#35375B"/>
<path fill-rule="evenodd" clip-rule="evenodd" d="M467.545 69.869C467.303 69.0458 467.232 68.1818 467.336 67.3302C467.44 66.4785 467.718 65.6572 468.152 64.9168C468.587 64.1764 469.168 63.5326 469.86 63.0249C470.553 62.5173 471.342 62.1566 472.18 61.9651C472.989 61.706 473.842 61.6144 474.688 61.6958C475.534 61.7773 476.354 62.03 477.099 62.4387C477.844 62.8474 478.497 63.4034 479.02 64.0728C479.542 64.7421 479.922 65.5108 480.137 66.3319C480.466 67.9521 480.169 69.6365 479.306 71.0473C478.443 72.458 477.078 73.4908 475.485 73.9384C473.892 74.386 472.188 74.2152 470.715 73.4605C469.243 72.7058 468.11 71.4228 467.545 69.869ZM472.223 31.1354C470.999 26.7249 466.233 24.8035 460.243 26.5065C457.72 27.0733 455.378 28.261 453.431 29.9617C451.484 31.6623 449.993 33.8221 449.094 36.2445L440 33.4498C441.612 29.5169 444.158 26.0347 447.418 23.3035C450.679 20.5724 454.555 18.6743 458.713 17.7729C470.3 14.4541 479.569 17.5546 482.148 26.5065C485.821 39.607 472.617 44.4105 475.24 53.7118L465.228 56.7686C461.861 44.9782 474.497 39.0393 472.223 31.1354Z" fill="#35375B"/>
</g>
<defs>
<clipPath id="clip0_298_4943">
<rect width="109" height="80" fill="white" transform="translate(440)"/>
</clipPath>
</defs>
</svg>
