<svg width="215" height="255" viewBox="0 0 215 255" fill="none" xmlns="http://www.w3.org/2000/svg">
<path fill-rule="evenodd" clip-rule="evenodd" d="M102.046 155.89C100.279 151.709 99.3682 147.218 99.3682 142.68C99.3682 138.143 100.279 133.652 102.046 129.471C102.036 129.387 102.036 129.302 102.046 129.219C106.916 116.881 109.34 103.718 109.183 90.4606C108.996 80.3272 110.154 70.2137 112.625 60.3828C114.04 54.3743 116.38 48.6204 119.56 43.3252C120.818 41.3277 122.314 39.4892 124.014 37.8496C127.078 34.7055 130.822 32.3017 134.961 30.8222C139.1 29.3427 143.524 28.8268 147.893 29.3138C152.263 29.8008 156.463 31.2779 160.172 33.6321C163.881 35.9863 167 39.1552 169.292 42.8962C172.401 48.2399 174.671 54.0264 176.024 60.0547C178.644 71.4227 179.582 83.1116 178.808 94.7502C178.157 106.652 180.271 118.542 184.984 129.496C185.211 130.051 185.464 130.632 185.667 131.237C187.364 135.442 188.202 139.943 188.133 144.475C188.063 149.007 187.087 153.48 185.262 157.631C183.667 160.735 181.44 163.46 179.694 166.538C177.671 169.519 176.587 173.033 176.581 176.632C176.758 180.265 179.112 183.949 182.351 184.403C180.598 184.989 178.714 185.063 176.92 184.616C175.126 184.169 173.498 183.219 172.228 181.88C171.3 185.167 170.027 188.347 168.431 191.368L169.014 191.822H168.229C163.305 201.246 155.255 208.674 145.451 212.841C148.486 208.637 150.003 203.531 149.753 198.357C147.637 197.576 145.688 196.403 144.008 194.9C142.06 196.892 139.679 198.412 137.048 199.341C137.126 203.868 138.573 208.265 141.199 211.958C132.119 207.949 124.594 201.102 119.762 192.453H117.94C118.395 192.147 118.834 191.819 119.256 191.469C117.367 188.018 115.889 184.36 114.852 180.568C113.555 181.866 111.916 182.77 110.124 183.177C108.332 183.583 106.461 183.475 104.729 182.864C107.994 182.435 110.373 178.802 110.626 175.294C110.639 171.711 109.601 168.203 107.639 165.201C105.766 161.87 103.59 159.095 102.046 155.89Z" fill="#35375B"/>
<path fill-rule="evenodd" clip-rule="evenodd" d="M71.9033 136.763C71.1295 137.162 70.3256 137.499 69.4989 137.773C67.9127 138.482 66.1497 138.702 64.4371 138.403C63.2032 137.915 62.1192 137.113 61.2932 136.077C60.4672 135.041 59.9281 133.807 59.7296 132.499C59.2994 130.531 60.6154 99.6959 60.742 94.195C61.6025 91.5203 74.7632 84.5308 78.0787 86.2971C79.1163 106.711 82.2547 109.259 82.4065 113.826C82.5584 117.864 77.3447 120.765 76.9904 124.752C76.7879 128.058 77.1169 131.691 74.8644 134.492C74.0484 135.448 73.0394 136.222 71.9033 136.763Z" fill="#FFA17A"/>
<path fill-rule="evenodd" clip-rule="evenodd" d="M128.722 416.926L88.582 413.393C91.366 381.675 93.9222 361.262 96.9087 342.16C92.8339 341.883 89.974 341.656 89.645 341.58C89.645 339.965 89.645 338.325 89.645 336.685C89.645 319.022 90.303 301.359 91.8216 283.695C93.4667 264.266 95.3395 244.786 98.5285 225.659C100.022 216.525 103.16 206.331 103.945 196.465C104.554 195.476 105.354 194.619 106.298 193.941C108.748 192.532 111.545 191.833 114.372 191.923C127.735 191.115 141.149 190.812 154.537 190.989C158.607 190.798 162.676 191.372 166.534 192.68C176.657 196.843 181.441 207.113 184.25 216.298C188.122 229.52 188.983 248.47 191.514 261.995C191.995 269.716 192.324 277.438 192.627 285.134C192.805 289.802 193.817 318.391 193.614 341.858C189.485 342.688 185.31 343.278 181.112 343.624C181.112 362.221 186.427 386.318 186.325 413.444L146.869 416.977C145.882 375.09 145.198 365.249 140.567 282.509C139.2 310.644 132.063 391.542 128.722 416.926Z" fill="#35375B"/>
<path fill-rule="evenodd" clip-rule="evenodd" d="M106.602 124.878C106.602 124.071 106.602 123.264 106.602 122.355C106.4 98.5352 134.796 98.4847 153.905 102.926C172.279 107.19 171.621 135.426 174.152 151.474C174.886 156.521 179.492 212.538 178.454 212.462C154.052 210.313 129.551 209.47 105.058 209.939C103.767 181.451 106.653 153.165 106.602 124.878Z" fill="white"/>
<path fill-rule="evenodd" clip-rule="evenodd" d="M72.1565 142.491C71.9664 142.714 71.7299 142.894 71.4633 143.017C71.1967 143.14 70.9064 143.204 70.6126 143.204C70.3189 143.204 70.0286 143.14 69.762 143.017C69.4954 142.894 69.2589 142.714 69.0688 142.491C68.3737 141.513 68.0263 140.332 68.0818 139.135C68.0207 139.229 67.9883 139.339 67.9883 139.451C67.9883 139.562 68.0207 139.672 68.0818 139.766L72.1565 142.491Z" fill="black"/>
<path fill-rule="evenodd" clip-rule="evenodd" d="M192.096 215.036C192.298 218.518 195.386 240.951 195.639 244.408C195.892 247.864 197.006 263.004 197.436 269.313C197.74 274.359 200.675 334.162 200.979 354.827L197.309 356.24C192.764 357.573 188.104 358.477 183.389 358.94C180.023 359.294 176.657 359.496 173.266 359.647C169.014 336.937 162.332 229.545 162.282 227.224C161.978 218.089 161.978 208.98 161.649 199.846C161.227 183.024 160.814 166.135 160.409 149.178C160.206 141.608 160.156 133.811 159.852 126.115C159.245 111.959 159.245 115.29 154.461 101.639L154.233 101.058C159.542 102.023 164.752 103.467 169.798 105.373C176.034 107.735 181.541 111.685 185.768 116.829C194.92 127.972 201.713 140.847 205.737 154.679C209.032 165.586 211.569 176.706 213.33 187.961C216.62 214.86 192.07 214.683 192.096 215.036Z" fill="#F4F1F1"/>
<path fill-rule="evenodd" clip-rule="evenodd" d="M60.4882 118.267C62.5277 116.061 64.9019 114.188 67.5241 112.716C73.1174 108.83 78.2045 104.288 84.0003 100.68L85.4935 119.933C85.2911 118.595 97.1863 106.711 98.3505 105.979C103.599 102.331 109.699 100.089 116.067 99.4688C124.276 98.9515 132.509 98.9515 140.718 99.4688C137.023 101.462 131.176 105.247 129.911 109.234C128.706 113.719 128.102 118.343 128.114 122.986C127.836 131.868 127.532 140.775 127.253 149.683C126.68 167.464 126.174 185.261 125.735 203.076C125.347 220.184 125.119 237.275 125.052 254.349C125.052 255.535 122.748 339.561 122.141 362.524C112.355 362.021 102.679 360.231 93.3646 357.199C91.3905 356.417 89.4417 355.61 87.493 354.676C87.746 348.444 88.0244 342.236 88.3028 336.004C89.7201 304.042 91.1796 272.013 92.6813 239.916C93.4237 223.767 94.1914 207.635 94.9844 191.519C95.2881 184.992 95.6087 178.457 95.9462 171.913C95.9462 169.617 95.769 149.859 97.1357 150.339C95.0603 149.582 93.0103 151.323 91.4412 152.862C85.3475 158.846 78.4375 163.943 70.9156 168.002C70.0971 168.437 69.1918 168.684 68.2654 168.727C67.339 168.77 66.4147 168.606 65.5594 168.249C64.7041 167.891 63.9394 167.349 63.3205 166.66C62.7017 165.971 62.2443 165.154 61.9815 164.267C58.3356 151.916 57.1153 138.978 58.3876 126.165C58.4083 123.398 59.131 120.681 60.4882 118.267Z" fill="#F4F1F1"/>
<path fill-rule="evenodd" clip-rule="evenodd" d="M87.9992 117.056C82.3095 122.051 77.96 128.382 75.3447 135.476L76.5849 135.93C79.133 129.061 83.33 122.919 88.8091 118.04L87.9992 117.056Z" fill="#35375B"/>
<path fill-rule="evenodd" clip-rule="evenodd" d="M198.068 241.809C196.018 226.391 194.12 213.169 191.994 199.947C189.868 186.725 187.565 173.553 184.756 158.287L183.439 158.514C186.325 173.805 188.653 186.977 190.779 200.149C192.905 213.32 194.803 226.568 196.828 241.985L198.068 241.809Z" fill="#35375B"/>
<path fill-rule="evenodd" clip-rule="evenodd" d="M110.727 201.511C109.083 207.182 105.626 212.162 100.882 215.692L108.829 226.29C115.946 221.024 121.123 213.566 123.559 205.069L110.727 201.511Z" fill="#35375B"/>
<path fill-rule="evenodd" clip-rule="evenodd" d="M190.324 211.1C184.933 208.452 180.585 204.082 177.973 198.685L166.053 204.388C167.953 208.405 170.52 212.073 173.645 215.238C176.789 218.386 180.432 220.994 184.427 222.959L190.324 211.1Z" fill="#35375B"/>
<path fill-rule="evenodd" clip-rule="evenodd" d="M140.465 99.5445C130.595 100.301 124.799 103.304 121.509 108.124C118.219 112.943 117.282 119.807 117.307 128.108H115.435C115.435 119.453 116.346 112.312 119.94 107.064C123.533 101.815 129.81 98.4594 140.339 97.652L140.465 99.5445Z" fill="#FC4C00"/>
<path fill-rule="evenodd" clip-rule="evenodd" d="M116.422 128.941C118.612 128.429 120.913 128.697 122.926 129.698C125.168 130.752 127.089 132.381 128.494 134.417C129.745 136.282 130.709 138.323 131.354 140.472C132.012 142.567 132.468 144.737 132.923 146.882L133.936 151.752C134.508 154.242 134.88 156.773 135.049 159.322C135.208 161.92 134.73 164.518 133.657 166.892C132.647 168.961 131.078 170.708 129.127 171.938C127.179 173.173 124.93 173.854 122.623 173.906V172.014C124.573 171.977 126.474 171.4 128.115 170.348C129.772 169.307 131.112 167.832 131.987 166.084C132.941 163.964 133.35 161.639 133.176 159.322C133.023 156.849 132.667 154.394 132.113 151.979L131.101 147.109C130.671 145.04 130.215 142.92 129.583 140.876C129.013 138.913 128.161 137.043 127.052 135.325C125.831 133.577 124.173 132.176 122.243 131.262C120.607 130.447 118.74 130.216 116.953 130.606L116.422 128.941Z" fill="#FC4C00"/>
<path fill-rule="evenodd" clip-rule="evenodd" d="M119.307 174.108C119.157 173.623 119.157 173.104 119.307 172.619C119.372 172.301 119.52 172.005 119.737 171.761C119.984 171.578 120.27 171.453 120.572 171.396C120.875 171.339 121.187 171.352 121.484 171.433C122.217 171.585 123.888 171.888 124.014 172.846C124.141 173.805 122.876 174.638 122.293 174.941C121.785 175.216 121.188 175.283 120.631 175.128C120.073 174.972 119.599 174.607 119.307 174.108Z" fill="white"/>
<path fill-rule="evenodd" clip-rule="evenodd" d="M118.649 174.335C118.514 174.041 118.436 173.724 118.421 173.402C118.37 173.067 118.37 172.727 118.421 172.392C118.466 172.183 118.534 171.98 118.624 171.787C118.729 171.56 118.875 171.355 119.054 171.181C119.376 170.868 119.795 170.672 120.243 170.626C120.63 170.575 121.021 170.575 121.408 170.626C121.97 170.72 122.521 170.872 123.053 171.08C123.419 171.183 123.748 171.387 124.003 171.668C124.258 171.949 124.429 172.297 124.495 172.67C124.511 173.191 124.341 173.701 124.014 174.108C123.59 174.611 123.075 175.03 122.496 175.345C121.834 175.662 121.08 175.733 120.37 175.546C120.022 175.464 119.695 175.309 119.412 175.091C119.128 174.874 118.894 174.599 118.725 174.285L118.649 174.335ZM119.914 173.654C120.084 173.911 120.347 174.092 120.648 174.159C121.015 174.298 121.42 174.298 121.787 174.159C122.187 173.945 122.54 173.653 122.825 173.301C122.976 173.158 123.082 172.973 123.129 172.771C123.129 172.771 122.85 172.493 122.546 172.367C122.109 172.215 121.661 172.096 121.205 172.014C120.969 171.989 120.732 171.989 120.496 172.014C120.352 172.033 120.213 172.085 120.091 172.165C120.035 172.223 119.992 172.291 119.965 172.367C119.951 172.476 119.951 172.586 119.965 172.695C119.943 172.888 119.943 173.083 119.965 173.275C119.937 173.4 119.92 173.527 119.914 173.654Z" fill="#FC4C00"/>
<path fill-rule="evenodd" clip-rule="evenodd" d="M116.219 130.531C114.517 131.194 113.09 132.413 112.17 133.988C111.074 135.821 110.481 137.909 110.449 140.043C110.451 142.096 110.758 144.137 111.36 146.099C111.989 148.146 112.724 150.159 113.562 152.13L115.435 156.723C116.312 159.043 117.379 161.288 118.624 163.435C119.761 165.496 121.407 167.233 123.407 168.481C125.094 169.461 127.023 169.951 128.975 169.894C130.921 169.854 132.82 169.287 134.467 168.254L135.505 169.819C133.561 171.048 131.318 171.727 129.017 171.78C126.716 171.833 124.444 171.26 122.445 170.121C120.197 168.729 118.327 166.805 117.004 164.52C115.708 162.281 114.591 159.944 113.663 157.53L111.816 152.938C110.947 150.91 110.187 148.838 109.538 146.73C108.875 144.588 108.534 142.361 108.525 140.119C108.568 137.647 109.257 135.229 110.525 133.104C111.678 131.157 113.464 129.662 115.587 128.865L116.219 130.531Z" fill="#FC4C00"/>
<path fill-rule="evenodd" clip-rule="evenodd" d="M139.2 166.538C138.803 166.082 138.256 165.783 137.657 165.695C137.058 165.607 136.447 165.736 135.935 166.059C135.118 166.771 134.594 167.76 134.467 168.834C134.449 168.874 134.439 168.917 134.439 168.961C134.439 169.004 134.449 169.047 134.467 169.087C134.523 169.151 134.592 169.202 134.67 169.238C135.723 169.629 136.881 169.629 137.934 169.238C138.273 169.112 138.589 168.933 138.871 168.708C139.123 168.476 139.304 168.178 139.394 167.847C139.483 167.517 139.478 167.168 139.377 166.841C139.333 166.732 139.273 166.63 139.2 166.538Z" fill="white"/>
<path fill-rule="evenodd" clip-rule="evenodd" d="M138.693 167.043C138.573 166.887 138.42 166.759 138.245 166.667C138.07 166.576 137.878 166.523 137.681 166.513C137.262 166.455 136.835 166.535 136.466 166.74C136.166 167.004 135.917 167.32 135.732 167.674C135.557 168.019 135.421 168.383 135.327 168.759C135.693 168.889 136.078 168.957 136.466 168.961C136.938 168.98 137.411 168.912 137.858 168.759L138.238 168.582L138.541 168.38C138.697 168.237 138.811 168.054 138.87 167.85C138.934 167.654 138.934 167.442 138.87 167.245C138.87 167.245 138.87 167.245 138.87 167.043H138.693ZM139.857 166.21L140.009 166.488C140.062 166.584 140.104 166.685 140.136 166.791C140.271 167.252 140.271 167.742 140.136 168.204C140.012 168.669 139.757 169.089 139.402 169.415C139.218 169.564 139.023 169.699 138.82 169.819C138.624 169.918 138.421 170.002 138.212 170.071C137.606 170.298 136.961 170.4 136.314 170.374C135.67 170.354 135.036 170.217 134.441 169.97L134.213 169.844C134.094 169.763 133.991 169.66 133.91 169.541C133.83 169.41 133.778 169.264 133.758 169.112V168.809C133.865 168.165 134.079 167.542 134.391 166.967C134.673 166.419 135.07 165.937 135.555 165.554C136.215 165.133 137.006 164.963 137.782 165.075C138.173 165.115 138.552 165.235 138.896 165.426C139.239 165.617 139.541 165.875 139.781 166.185L139.857 166.21Z" fill="#FC4C00"/>
<path fill-rule="evenodd" clip-rule="evenodd" d="M116.042 127.528C116.666 127.431 117.303 127.585 117.813 127.957C118.324 128.328 118.665 128.886 118.762 129.509C118.86 130.131 118.705 130.767 118.332 131.275C117.96 131.784 117.4 132.124 116.776 132.221C116.151 132.318 115.514 132.164 115.004 131.793C114.493 131.421 114.152 130.863 114.055 130.241C113.957 129.618 114.112 128.983 114.485 128.474C114.857 127.965 115.417 127.625 116.042 127.528Z" fill="white"/>
<path fill-rule="evenodd" clip-rule="evenodd" d="M152.259 98.7622C160.358 101.033 164.762 103.203 167.445 107.569C170.128 111.934 170.786 118.091 171.646 128.689C172.072 135.369 171.903 142.073 171.14 148.724C170.39 155.373 168.774 161.896 166.331 168.128L164.56 167.421C166.947 161.344 168.53 154.982 169.267 148.497C170.009 141.963 170.17 135.377 169.748 128.815C168.913 118.595 168.204 112.539 165.8 108.628C163.395 104.717 159.447 102.724 151.854 100.579L152.259 98.7622Z" fill="#FC4C00"/>
<path fill-rule="evenodd" clip-rule="evenodd" d="M158.637 169.39C158.637 170.602 158.997 171.788 159.673 172.796C160.349 173.804 161.309 174.59 162.433 175.054C163.557 175.519 164.794 175.64 165.987 175.403C167.18 175.167 168.275 174.583 169.136 173.725C169.996 172.868 170.581 171.775 170.819 170.586C171.056 169.396 170.934 168.164 170.469 167.043C170.003 165.923 169.215 164.965 168.204 164.291C167.192 163.618 166.003 163.258 164.787 163.258C163.979 163.258 163.179 163.417 162.433 163.725C161.687 164.033 161.009 164.484 160.438 165.054C159.867 165.623 159.414 166.299 159.105 167.043C158.796 167.787 158.637 168.584 158.637 169.39Z" fill="white"/>
<path fill-rule="evenodd" clip-rule="evenodd" d="M161.75 169.39C161.75 169.989 161.928 170.574 162.262 171.072C162.596 171.57 163.07 171.958 163.625 172.187C164.18 172.416 164.79 172.476 165.38 172.359C165.969 172.243 166.51 171.954 166.935 171.531C167.359 171.107 167.649 170.568 167.766 169.98C167.883 169.393 167.823 168.784 167.593 168.231C167.363 167.678 166.974 167.205 166.474 166.872C165.975 166.539 165.388 166.362 164.787 166.362C163.982 166.362 163.209 166.681 162.64 167.249C162.07 167.816 161.75 168.587 161.75 169.39Z" fill="#C9E3E5"/>
<path fill-rule="evenodd" clip-rule="evenodd" d="M152.791 109.234C152.092 110.579 150.981 111.667 149.619 112.338C148.258 113.01 146.717 113.231 145.22 112.97C143.724 112.708 142.35 111.977 141.299 110.883C140.248 109.789 139.575 108.389 139.377 106.887V106.206C138.675 103.903 138.409 101.49 138.593 99.0902L138.77 96.5669V96.138V88.0129L155.626 86.1709L155.373 92.9081C155.373 94.1193 155.373 95.4314 155.145 96.6174V99.8472C155.145 100.2 155.145 100.554 155.145 100.882C154.991 103.805 154.187 106.658 152.791 109.234Z" fill="#FFA17A"/>
<g style="mix-blend-mode:multiply" opacity="0.49">
<path fill-rule="evenodd" clip-rule="evenodd" d="M154.385 100.932C151.844 101.236 149.267 101.056 146.793 100.402C144.459 99.7177 142.419 98.2817 140.99 96.3188C139.562 94.3558 138.825 91.9764 138.896 89.5522V87.9878L155.752 86.1458L155.499 92.883C155.499 94.0942 155.499 95.4063 155.271 96.5923V100.125L154.385 100.932Z" fill="#35375B"/>
</g>
<path fill-rule="evenodd" clip-rule="evenodd" d="M120.775 58.036C121.895 58.049 122.987 58.3914 123.913 59.0201C125.592 52.3086 128.875 46.1014 133.48 40.928C135.07 38.8246 137.205 37.1932 139.655 36.2094C140.811 35.6415 142.066 35.299 143.351 35.2001C144.186 35.2001 145.021 35.2001 145.881 35.2001C146.742 35.2001 147.526 35.2001 148.412 35.3515C149.687 35.5176 150.922 35.9108 152.057 36.5122C154.463 37.6338 156.525 39.3761 158.03 41.5588C162.396 46.9397 165.392 53.2943 166.761 60.0799C167.712 59.4774 168.825 59.1782 169.95 59.222C173.215 59.5752 174.177 64.7732 173.19 68.6591C171.924 73.7057 168.128 75.0936 164.635 76.0019C162.895 79.3424 160.64 82.3904 157.954 85.0354C155.254 88.1997 151.608 90.4192 147.552 91.3689H147.197C146.965 91.434 146.728 91.4845 146.489 91.5203H146.008H144.667H143.73H143.325H142.844L142.161 91.3437H141.807C137.793 90.2131 134.247 87.8352 131.683 84.556C129.119 81.786 127.002 78.6365 125.406 75.2197C121.964 74.1599 118.219 72.5198 117.206 67.5236C116.422 63.4359 117.485 58.3136 120.775 58.036Z" fill="#FFA17A"/>
<path fill-rule="evenodd" clip-rule="evenodd" d="M137.858 73.3525C138.166 72.7363 138.549 72.1601 138.997 71.6367C139.456 71.0113 139.855 70.3439 140.187 69.6433C140.838 68.262 141.232 66.7744 141.351 65.2527C141.399 65.0546 141.518 64.881 141.686 64.7647C141.854 64.6484 142.059 64.5976 142.262 64.6219C142.359 64.6398 142.452 64.6772 142.535 64.7318C142.617 64.7864 142.688 64.8571 142.742 64.9396C142.797 65.0221 142.834 65.1148 142.851 65.2119C142.869 65.3091 142.866 65.4088 142.844 65.505C142.593 68.0673 141.658 70.5157 140.136 72.5955C139.554 73.403 138.694 74.2862 139.529 75.1188C140.364 75.9515 141.832 75.7749 142.945 75.6235C144.059 75.4721 144.034 77.0366 142.945 77.1375C141.506 77.4962 139.983 77.2884 138.694 76.5571C138.224 76.1859 137.889 75.6723 137.738 75.0942C137.587 74.516 137.63 73.9046 137.858 73.3525Z" fill="#35375B"/>
<path fill-rule="evenodd" clip-rule="evenodd" d="M150.639 66.4386C150.437 67.8517 149.5 68.9619 148.538 68.9619C147.577 68.9619 146.969 67.7003 147.172 66.2872C147.374 64.8742 148.285 63.7639 149.247 63.7639C150.209 63.7639 150.816 65.0256 150.639 66.4386Z" fill="#35375B"/>
<path fill-rule="evenodd" clip-rule="evenodd" d="M136.087 66.3684C135.885 67.7815 134.948 68.8917 133.987 68.8917C133.025 68.8917 132.417 67.6301 132.62 66.217C132.822 64.804 133.734 63.6937 134.695 63.6937C135.657 63.6937 136.264 64.9554 136.087 66.3684Z" fill="#35375B"/>
<path fill-rule="evenodd" clip-rule="evenodd" d="M149.956 78.2225C148.772 79.2554 147.353 79.9839 145.823 80.3446C144.292 80.7052 142.696 80.687 141.174 80.2916C140.313 80.0393 139.984 81.4019 140.845 81.629C142.61 82.076 144.459 82.0795 146.225 81.6391C147.992 81.1988 149.622 80.3283 150.968 79.1057C151.652 78.4496 150.639 77.4908 149.956 78.2225Z" fill="#35375B"/>
<path fill-rule="evenodd" clip-rule="evenodd" d="M125.179 48.1699C126.05 46.3965 127.458 44.9403 129.203 44.0065C129.036 41.9749 129.381 39.9339 130.208 38.0696C131.035 36.2053 132.316 34.5769 133.936 33.3329C135.966 31.955 138.253 30.9952 140.66 30.5099C143.068 30.0246 145.549 30.0235 147.957 30.5068C152.67 31.2854 157.154 33.0883 161.09 35.7876C165.027 38.4868 168.32 42.0164 170.735 46.126C173.177 50.3743 174.712 55.0799 175.243 59.9475C175.774 64.8152 175.291 69.7398 173.823 74.4123C171.975 80.1402 168.761 85.9943 170.305 91.7474C171.502 94.6191 172.95 97.3802 174.633 99.9986C176.804 104.747 177.242 110.102 175.873 115.138C174.559 120.081 172.429 124.771 169.571 129.017C167.257 132.133 165.54 135.649 164.509 139.387C163.75 143.223 165.091 147.866 168.558 149.355C166.287 149.179 164.078 148.532 162.073 147.454C160.068 146.376 158.312 144.892 156.916 143.097C154.08 139.354 152.826 134.653 153.424 130.001C154.714 120.16 164.003 112.338 163.244 102.421C162.661 95.1034 156.587 88.8961 157.144 81.5785C157.524 76.5319 161.118 72.0152 161.244 66.8929C161.181 64.6601 160.602 62.472 159.553 60.4983C158.504 58.5247 157.013 56.8187 155.195 55.5127C151.617 53.0198 147.649 51.1354 143.452 49.9362C144.439 51.5512 148.817 52.4595 149.83 54.1249C146.261 52.8633 140.187 53.696 136.872 52.5352C136.037 52.2514 135.232 51.8881 134.467 51.4502C132.822 58.3388 121.104 60.8117 125.786 76.0525C121.99 72.5451 122.319 53.595 125.179 48.1699Z" fill="#35375B"/>
<path fill-rule="evenodd" clip-rule="evenodd" d="M60.7419 94.1951L78.4582 93.7409C78.4582 93.7409 79.4453 85.4644 77.6736 80.9729C74.4341 72.747 66.5883 66.2621 59.0968 69.5676C47.5812 74.6899 60.7419 94.1951 60.7419 94.1951Z" fill="#FFA17A"/>
<path fill-rule="evenodd" clip-rule="evenodd" d="M50.3649 74.4123C53.1235 77.7179 56.4896 80.9477 59.0459 84.5056C59.2768 84.8555 59.3754 85.2758 59.3243 85.6915C59.2466 86.1016 59.0216 86.4694 58.6915 86.7261C58.3406 86.9563 57.919 87.0546 57.502 87.0036C57.0907 86.9262 56.7218 86.7019 56.4643 86.3728C53.9334 82.8906 50.5673 79.6608 47.8086 76.2796C46.5179 74.7151 49.0488 72.8984 50.3649 74.4123Z" fill="#FFA17A"/>
<path fill-rule="evenodd" clip-rule="evenodd" d="M52.3641 67.2966C54.0306 70.5131 56.1342 73.485 58.6154 76.1282C59.9821 77.5918 57.4259 79.4085 56.0845 77.9703C53.4356 75.1266 51.2032 71.924 49.4535 68.4574C48.5171 66.6658 51.4529 65.5808 52.3641 67.3471V67.2966Z" fill="#FFA17A"/>
<path fill-rule="evenodd" clip-rule="evenodd" d="M59.3247 73.1758C57.0997 69.9451 55.0876 66.5736 53.3012 63.0826C52.39 61.2911 55.3259 60.206 56.237 61.9724C57.9124 65.1713 59.7978 68.2564 61.8809 71.2077C62.0071 71.3754 62.0971 71.5674 62.145 71.7715C62.1929 71.9757 62.1978 72.1875 62.1593 72.3936C62.1338 72.5976 62.064 72.7936 61.9547 72.9679C61.8455 73.1423 61.6993 73.2907 61.5266 73.4029C61.1841 73.6531 60.7579 73.7616 60.3371 73.7057C59.9304 73.6341 59.5675 73.408 59.3247 73.0749V73.1758Z" fill="#FFA17A"/>
<path fill-rule="evenodd" clip-rule="evenodd" d="M62.6148 59.0959C64.5921 64.8609 67.6687 70.1904 71.6754 74.7908C72.8902 76.3805 70.3593 78.1973 69.1445 76.6329C64.9545 71.8184 61.74 66.24 59.6789 60.2061C59.1475 58.2884 62.2098 57.1782 62.6148 59.1211V59.0959Z" fill="#FFA17A"/>
<path fill-rule="evenodd" clip-rule="evenodd" d="M71.2452 75.6993C71.2772 75.6166 71.292 75.5283 71.2888 75.4398C71.2856 75.3512 71.2644 75.2642 71.2266 75.1841C71.1888 75.1039 71.135 75.0322 71.0686 74.9733C71.0022 74.9144 70.9246 74.8695 70.8403 74.8414C70.6758 74.7849 70.4956 74.7957 70.3391 74.8714C70.1826 74.947 70.0625 75.0814 70.0051 75.2451C69.5665 76.3953 69.3768 77.6249 69.4483 78.8534C69.4908 80.0852 69.7835 81.2956 70.3088 82.4113C70.3466 82.4895 70.3996 82.5595 70.4647 82.6172C70.5299 82.6748 70.6058 82.719 70.6883 82.7472C70.7707 82.7754 70.8578 82.7869 70.9448 82.7813C71.0317 82.7756 71.1166 82.7527 71.1946 82.7141C71.353 82.6374 71.4756 82.5028 71.5369 82.3383C71.5982 82.1738 71.5934 81.992 71.5236 81.8309C71.0704 80.8822 70.8122 79.8527 70.7644 78.8029C70.7053 77.7462 70.8691 76.6889 71.2452 75.6993Z" fill="#35375B"/>
<path fill-rule="evenodd" clip-rule="evenodd" d="M168.229 203.732L191.159 210.116L215 166.008L207.585 166.462L190.704 167.573L183.212 168.052L168.229 203.732Z" fill="#35375B"/>
<path fill-rule="evenodd" clip-rule="evenodd" d="M172.507 184.656L175.594 184.201C175.775 184.175 175.96 184.199 176.127 184.272C176.295 184.344 176.44 184.461 176.545 184.61C176.649 184.759 176.711 184.934 176.722 185.116C176.733 185.298 176.693 185.479 176.607 185.64L175.822 187.002L181.998 190.055C182.757 190.45 183.394 191.044 183.84 191.774C184.286 192.503 184.524 193.34 184.529 194.194V203.631C184.529 203.631 189.185 206.154 196.576 200.023C201.182 203.379 202.144 208.173 200.043 214.178C200.043 214.178 191.438 220.739 176.404 210.242L166.686 203.858C166.021 203.426 165.475 202.835 165.099 202.139C164.723 201.442 164.529 200.662 164.534 199.871V194.825C164.524 193.66 164.917 192.528 165.648 191.62L169.9 186.245C170.525 185.394 171.462 184.823 172.507 184.656Z" fill="#FFA17A"/>
<g style="mix-blend-mode:multiply">
<path fill-rule="evenodd" clip-rule="evenodd" d="M174.911 187.154C174.202 186.649 173.696 187.154 173.595 187.81C173.586 188.281 173.676 188.749 173.859 189.183C174.042 189.618 174.314 190.01 174.658 190.333C176.068 191.797 177.699 193.031 179.492 193.992C179.57 194.037 179.639 194.096 179.694 194.167C179.749 194.238 179.789 194.32 179.813 194.406C179.836 194.493 179.842 194.584 179.831 194.673C179.819 194.762 179.79 194.848 179.745 194.925C179.7 195.003 179.64 195.072 179.569 195.126C179.498 195.181 179.416 195.222 179.329 195.245C179.242 195.268 179.152 195.275 179.062 195.263C178.973 195.251 178.887 195.222 178.809 195.178C176.429 194.004 174.371 192.273 172.81 190.131C172.459 189.599 172.271 188.977 172.271 188.34C172.271 187.703 172.459 187.08 172.81 186.548C172.982 186.302 173.205 186.096 173.465 185.945C173.725 185.795 174.015 185.703 174.314 185.676C174.614 185.65 174.916 185.689 175.198 185.792C175.48 185.895 175.737 186.058 175.949 186.27C176.48 186.725 175.519 187.784 174.911 187.154Z" fill="#35375B"/>
</g>
<g style="mix-blend-mode:multiply" opacity="0.49">
<path fill-rule="evenodd" clip-rule="evenodd" d="M194.88 176.632C198.954 178.474 204.168 175.673 206.547 170.399C207.057 169.165 207.389 167.865 207.534 166.538L190.653 167.623C190.304 169.378 190.526 171.198 191.286 172.818C192.046 174.438 193.305 175.774 194.88 176.632Z" fill="#52C2C7"/>
</g>
<path fill-rule="evenodd" clip-rule="evenodd" d="M153.727 59.1716C152.499 58.7657 151.223 58.5198 149.931 58.4398C148.159 58.4398 148.589 55.5885 150.361 55.6894C151.868 55.8031 153.355 56.0996 154.79 56.5725C156.511 57.1277 155.347 59.651 153.677 59.0959L153.727 59.1716Z" fill="#35375B"/>
<path fill-rule="evenodd" clip-rule="evenodd" d="M134.568 59.1716C135.797 58.7657 137.073 58.5198 138.364 58.4398C140.136 58.4398 139.706 55.5885 137.934 55.6894C136.427 55.8031 134.94 56.0996 133.505 56.5725C131.784 57.1277 132.948 59.651 134.619 59.0959L134.568 59.1716Z" fill="#35375B"/>
<path fill-rule="evenodd" clip-rule="evenodd" d="M162.311 63.7911L156.819 66.5272V66.2576C156.819 65.153 155.924 64.2576 154.819 64.2576H145.912C144.808 64.2576 143.912 65.153 143.912 66.2576V66.74H140.116V66.2576C140.116 65.153 139.221 64.2576 138.116 64.2576H129.209C128.105 64.2576 127.209 65.153 127.209 66.2576V69.0658C127.209 70.1703 128.105 71.0658 129.209 71.0658H138.116C139.221 71.0658 140.116 70.1703 140.116 69.0658V68.04H143.912V69.0658C143.912 70.1703 144.808 71.0658 145.912 71.0658H154.819C155.924 71.0658 156.819 70.1703 156.819 69.0658V67.9796L162.895 64.953C163.216 64.7929 163.346 64.403 163.185 64.0822C163.024 63.7613 162.633 63.631 162.311 63.7911ZM145.912 65.5576H154.819C155.206 65.5576 155.519 65.871 155.519 66.2576V69.0658C155.519 69.4524 155.206 69.7658 154.819 69.7658H145.912C145.526 69.7658 145.212 69.4524 145.212 69.0658V66.2576C145.212 65.871 145.526 65.5576 145.912 65.5576ZM138.116 65.5576H129.209C128.823 65.5576 128.509 65.871 128.509 66.2576V69.0658C128.509 69.4524 128.823 69.7658 129.209 69.7658H138.116C138.503 69.7658 138.816 69.4524 138.816 69.0658V66.2576C138.816 65.871 138.503 65.5576 138.116 65.5576Z" fill="#35375B"/>
<path fill-rule="evenodd" clip-rule="evenodd" d="M0.709217 0.605591C0.709217 0.605591 -3.74517 59.5248 28.5491 84.3037L81.4702 80.7458C81.4702 80.7458 50.3908 44.7887 53.1495 10.2446L0.709217 0.605591Z" fill="white"/>
<path fill-rule="evenodd" clip-rule="evenodd" d="M1.1897 1.18595C0.835376 7.21666 -1.41713 60.5594 28.65 83.7738L80.4322 80.2916C76.0284 74.9674 50.3398 42.442 52.5923 10.6736L1.1897 1.18595ZM28.1944 84.6822C-4.27704 59.7771 0.202651 0.731759 0.202651 0.555128L0.253269 0L53.63 9.8409V10.2951C50.9219 44.6121 81.7483 80.2916 81.8495 80.4178L82.4822 81.1748C64.4369 82.386 46.3916 83.6981 28.3463 84.8083L28.1944 84.6822Z" fill="#35375B"/>
<path opacity="0.32" fill-rule="evenodd" clip-rule="evenodd" d="M48.4671 13.4744C48.4671 13.4744 49.4288 37.4206 54.9715 45.8737L10.1239 43.9055C6.89465 31.7605 5.39516 19.223 5.66955 6.6615L48.4671 13.4744Z" fill="#F4F1F1"/>
<path opacity="0.32" fill-rule="evenodd" clip-rule="evenodd" d="M48.9735 13.4492C48.9735 13.4492 49.9353 37.2692 55.402 45.5961L55.9335 46.4288L9.74458 44.4102V44.0569C6.42324 31.8656 4.84693 19.2675 5.06241 6.63627V6.05591C19.6404 8.41099 34.2353 10.7408 48.847 13.0455V13.4492H48.9735ZM54.0353 45.3438C49.2772 36.8655 48.0877 17.0071 48.0877 13.9034L6.1507 7.24186C5.94204 19.4462 7.41529 31.6213 10.5292 43.4261L54.0353 45.3438Z" fill="#35375B"/>
<path opacity="0.32" fill-rule="evenodd" clip-rule="evenodd" d="M56.7427 50.2139C56.7427 50.2139 65.3225 66.8425 68.6633 70.4003L23.8663 72.6461C18.522 65.6647 14.4369 57.8094 11.7939 49.4316L56.7427 50.2139Z" fill="#F4F1F1"/>
<path opacity="0.32" fill-rule="evenodd" clip-rule="evenodd" d="M57.1981 49.9867C57.1981 49.9867 65.7272 66.5396 69.0174 69.9461L69.8019 70.7535C54.4141 71.5105 39.0262 72.318 23.6383 73.0498L23.4865 72.8479C18.0875 65.817 13.9594 57.9015 11.2875 49.4568L11.1104 48.8008C26.4139 49.1204 41.7258 49.4232 57.0462 49.7092L57.1981 49.9867ZM67.6 69.8452C63.4918 63.7026 59.7644 57.3151 56.4388 50.7185L12.4517 49.8353C15.061 57.8307 19.0056 65.3293 24.1192 72.0152L67.6 69.8452Z" fill="#35375B"/>
<path fill-rule="evenodd" clip-rule="evenodd" d="M75.0663 86.6503C75.775 85.8429 79.1664 86.2214 79.3435 85.1616C80.5078 78.2225 78.4577 68.1292 70.865 63.5368C69.9539 63.0069 68.5113 60.6855 67.3724 62.4518C66.2335 64.2181 69.5996 68.0535 70.4348 69.5928C72.333 73.0749 70.4348 73.1254 70.8903 77.6169C70.9431 78.5245 70.9431 79.4344 70.8903 80.3421C69.9792 81.4018 69.3465 83.4962 68.1064 84.9092C68.1064 84.9092 61.3742 89.9559 62.0575 90.183C62.2094 90.0568 65.1705 98.2071 75.0663 86.6503Z" fill="#FFA17A"/>
<path opacity="0.36" fill-rule="evenodd" clip-rule="evenodd" d="M51.0228 9.86615C45.556 13.4745 17.7161 33.3581 12.6543 65.0256C10.0608 60.0682 7.93421 54.8816 6.30176 49.5325C13.5908 29.5984 28.0928 15.1399 37.5837 7.39331L51.0228 9.86615Z" fill="white"/>
<path opacity="0.36" fill-rule="evenodd" clip-rule="evenodd" d="M46.4427 13.1465C35.3726 21.5311 26.2117 32.161 19.5645 44.3346L10.1243 43.9056C10.1243 43.9056 9.92179 43.1738 9.59277 41.8365C15.4862 30.1731 23.5414 19.7277 33.3326 11.0521L46.4427 13.1465Z" fill="white"/>
<path opacity="0.36" fill-rule="evenodd" clip-rule="evenodd" d="M17.1599 49.4315C16.1734 51.8536 15.3283 54.3306 14.629 56.8501C13.5288 54.4014 12.6233 51.8703 11.9209 49.2802L17.1599 49.4315Z" fill="white"/>
<path opacity="0.36" fill-rule="evenodd" clip-rule="evenodd" d="M54.6675 29.447C44.7464 37.2692 26.8276 54.4025 22.3479 78.7272C19.3863 75.557 16.773 72.0804 14.5527 68.3564C22.9553 41.3822 44.9995 23.82 53.149 18.1173C53.352 21.9281 53.8598 25.7167 54.6675 29.447Z" fill="white"/>
<path opacity="0.36" fill-rule="evenodd" clip-rule="evenodd" d="M50.6183 32.8029C46.2782 36.5982 42.2575 40.7419 38.5966 45.1924L26.4482 44.6625C32.7938 35.7848 40.3885 27.8645 48.9986 21.1453C49.3782 24.5265 49.8844 28.7152 50.6183 32.8029Z" fill="white"/>
<path opacity="0.36" fill-rule="evenodd" clip-rule="evenodd" d="M35.0782 49.7849C30.0594 56.6596 26.2587 64.3406 23.841 72.4946C21.2675 69.1093 18.9577 65.5326 16.9316 61.7958C18.6866 57.5612 20.7858 53.4766 23.2083 49.583L35.0782 49.7849Z" fill="white"/>
</svg>
