<svg width="428" height="428" viewBox="0 0 428 428" fill="none" xmlns="http://www.w3.org/2000/svg">
<g clip-path="url(#clip0_298_3882)">
<path d="M343.853 359.676L233.917 316.934C233.917 316.934 216.013 300.413 204.81 293.818C194.515 287.747 175.965 284.677 172.772 288.759C169.578 292.842 192.281 303.03 192.281 303.03C192.281 303.03 120.823 294.307 118.991 302.192C115.64 316.149 145.497 326.791 160.016 333.42C177.611 341.133 196.473 345.55 215.664 346.452C215.664 346.452 322.424 428.569 347.988 427.871C361.617 427.487 432.482 386.141 432.482 386.141L443.685 272.552L343.853 359.676Z" fill="#FFA27A"/>
<path d="M344.065 360.04H343.751L233.815 317.298L233.536 317.124C233.362 316.949 215.563 300.585 204.586 294.095C193.994 287.867 176.317 285.477 173.682 288.862C173.653 288.918 173.638 288.981 173.638 289.045C173.638 289.109 173.653 289.171 173.682 289.228C174.433 292.49 188.358 300.376 196.961 304.598L196.193 306.168C193.837 305.016 173.159 294.741 171.99 289.629C171.906 289.314 171.895 288.983 171.959 288.662C172.022 288.342 172.158 288.04 172.356 287.78C176.073 283.017 195.303 286.594 205.511 292.612C216.173 298.893 233.048 314.28 234.653 315.745L343.943 358.243L442.593 271.362L443.744 272.671L344.693 359.9C344.509 360.025 344.285 360.075 344.065 360.04Z" fill="#35375B"/>
<path d="M347.817 428.239C322.025 428.239 222.281 352.071 215.493 346.838C196.287 345.869 177.415 341.43 159.792 333.736C157.907 332.881 155.778 331.992 153.475 330.962C137.316 323.984 115.207 314.406 118.295 301.514C120.267 293.28 179.598 300.607 191.464 302.16L191.237 303.904C157.052 299.438 121.053 297.484 119.988 301.95C117.231 313.342 139.462 322.972 154.225 329.392C156.529 330.387 158.675 331.329 160.577 332.183C178.056 339.804 196.777 344.179 215.824 345.093C216.012 345.098 216.194 345.159 216.348 345.268C217.395 346.088 322.252 426.512 347.799 426.512H348.113C361.358 426.163 431.765 384.908 432.219 384.576L433.109 386.076C430.858 387.402 361.759 427.89 348.078 428.257L347.817 428.239Z" fill="#35375B"/>
<path d="M240.828 273.322H102.832L1.42969 76.5874H342.248L240.828 273.322Z" fill="#E7D0C5"/>
<path d="M241.37 274.197H102.31L0 75.7178H343.767L241.37 274.197ZM103.374 272.452H240.305L340.8 77.4623H2.86184L103.374 272.452Z" fill="white"/>
<path d="M40.082 0.874512V150.244L103.339 273.794L151.955 274.788V0.874512H40.082Z" fill="#E4E4E4"/>
<path d="M152.828 275.676L102.799 274.664L39.2109 150.451V0H152.828V275.676ZM103.881 272.937L151.083 273.896V1.74456H40.9559V150.032L103.881 272.937Z" fill="white"/>
<path d="M182.477 51.6191V274.784L241.336 273.789L296.775 119.518V51.6191H182.477Z" fill="#E4E4E4"/>
<path d="M181.602 275.677V50.7505H297.645V119.818L241.996 274.665L181.602 275.677ZM183.347 52.4951V273.898L240.705 272.938L295.9 119.416V52.4951H183.347Z" fill="white"/>
<path d="M229.852 119.519V274.785L241.334 273.79L319.807 119.519H229.852Z" fill="white"/>
<path d="M228.98 275.745V118.734H321.222L241.893 274.715L228.98 275.745ZM230.725 120.478V274L240.777 273.128L318.377 120.548L230.725 120.478Z" fill="white"/>
<path d="M172.807 134.087C161.371 134.087 150.403 138.629 142.317 146.714C134.23 154.798 129.688 165.763 129.688 177.196C129.85 185.965 132.331 194.536 136.877 202.038C146.44 217.914 172.789 262.801 172.789 262.801C172.789 262.801 199.697 217.826 208.51 202.405C213.149 194.79 215.713 186.092 215.943 177.178C215.941 171.517 214.823 165.912 212.654 160.683C210.485 155.453 207.307 150.703 203.302 146.701C199.296 142.7 194.541 139.526 189.309 137.362C184.077 135.198 178.469 134.085 172.807 134.087ZM172.807 194.065C169.497 194.065 166.261 193.084 163.509 191.246C160.757 189.408 158.612 186.795 157.346 183.738C156.079 180.681 155.748 177.317 156.394 174.071C157.039 170.826 158.633 167.845 160.973 165.505C163.314 163.165 166.296 161.572 169.542 160.926C172.788 160.281 176.153 160.612 179.211 161.878C182.269 163.145 184.882 165.289 186.721 168.04C188.56 170.792 189.541 174.026 189.541 177.335C189.541 181.772 187.778 186.028 184.64 189.165C181.502 192.303 177.245 194.065 172.807 194.065Z" fill="#FD4C00"/>
<path d="M172.791 264.531L172.04 263.258C171.779 262.804 145.586 218.213 136.128 202.512C131.497 194.868 128.975 186.134 128.816 177.198C129.046 165.684 133.782 154.718 142.009 146.655C150.236 138.593 161.297 134.077 172.817 134.077C184.337 134.077 195.398 138.593 203.625 146.655C211.851 154.718 216.588 165.684 216.817 177.198C216.586 186.266 213.981 195.114 209.261 202.861C200.536 218.108 173.82 262.804 173.541 263.258L172.791 264.531ZM172.791 134.963C161.59 134.976 150.853 139.431 142.933 147.348C135.013 155.266 130.558 166.001 130.544 177.198C130.676 185.813 133.084 194.239 137.524 201.622C146.092 215.841 168.358 253.698 172.721 261.112C177.153 253.715 199.786 215.753 207.621 202.006C212.193 194.527 214.72 185.978 214.95 177.216C214.936 166.035 210.496 155.314 202.599 147.397C194.703 139.479 183.992 135.009 172.808 134.963H172.791ZM172.791 194.941C169.308 194.941 165.904 193.908 163.009 191.974C160.113 190.04 157.856 187.291 156.524 184.074C155.191 180.858 154.842 177.318 155.522 173.904C156.201 170.489 157.878 167.353 160.341 164.891C162.803 162.429 165.94 160.753 169.356 160.074C172.771 159.394 176.311 159.743 179.529 161.075C182.746 162.408 185.496 164.664 187.43 167.559C189.365 170.453 190.398 173.857 190.398 177.338C190.389 182.001 188.533 186.47 185.237 189.769C181.941 193.067 177.472 194.927 172.808 194.941H172.791ZM172.791 161.48C169.653 161.48 166.587 162.41 163.978 164.152C161.37 165.895 159.337 168.372 158.136 171.269C156.935 174.167 156.621 177.356 157.233 180.432C157.845 183.508 159.356 186.334 161.574 188.551C163.793 190.769 166.619 192.279 169.696 192.891C172.773 193.503 175.962 193.189 178.861 191.989C181.759 190.789 184.237 188.756 185.98 186.148C187.722 183.54 188.653 180.475 188.653 177.338C188.648 173.137 186.978 169.108 184.008 166.136C181.038 163.163 177.011 161.489 172.808 161.48H172.791Z" fill="white"/>
<path d="M82.8019 34.2461H61.6523V68.3698H82.8019V34.2461Z" fill="#35375B"/>
<path d="M130.388 34.2461H109.238V68.3698H130.388V34.2461Z" fill="#35375B"/>
<path d="M277.736 146.002H251.613V172.415H277.736V146.002Z" fill="#35375B"/>
<path d="M258.87 238.309H251.594V211.896H272.516L258.87 238.309Z" fill="#35375B"/>
<path d="M224.496 84.0386H200.293V110.451H224.496V84.0386Z" fill="#35375B"/>
<path d="M278.957 84.0386H254.754V110.451H278.957V84.0386Z" fill="#35375B"/>
<path d="M82.8019 117.271H61.6523V151.394H82.8019V117.271Z" fill="#35375B"/>
<path d="M130.388 117.271H109.238V151.394H130.388V117.271Z" fill="#35375B"/>
<path d="M82.8025 234.957L65.1953 200.833H82.8025V234.957Z" fill="#35375B"/>
<path d="M130.388 200.833H109.238V234.957H130.388V200.833Z" fill="#35375B"/>
<path d="M311.887 133.509H239.801V135.255H311.887V133.509Z" fill="#35375B"/>
<path d="M289.375 65.0708H189.875V66.8163H289.375V65.0708Z" fill="#35375B"/>
<path d="M241.335 273.789H103.34V292.752H241.335V273.789Z" fill="white"/>
<path d="M145.778 11.3945H46.2773V13.14H145.778V11.3945Z" fill="#35375B"/>
</g>
<defs>
<clipPath id="clip0_298_3882">
<rect width="443" height="428" fill="white"/>
</clipPath>
</defs>
</svg>
