<svg width="496" height="274" viewBox="0 0 496 274" fill="none" xmlns="http://www.w3.org/2000/svg">
<path d="M495.263 93.4738C451.799 36.9623 365.723 -0.306789 291.791 41.8337C258.44 60.8677 245.271 94.6808 232.546 127.391L232.484 127.549C222.09 154.227 212.281 179.405 192.364 197.197C174.62 213.053 151.287 220.737 120.133 220.737C111.007 220.688 101.891 220.108 92.8323 219.001C66.5736 215.988 33.1622 197.579 20.0806 168.333C8.45729 142.335 14.1431 111.796 36.5215 79.9972C48.4747 62.9604 63.2316 53.0179 80.3583 50.4476C111.712 45.7412 140.549 67.7623 140.844 67.988C140.934 68.0597 140.991 68.1638 141.004 68.2776C141.017 68.3915 140.985 68.5059 140.914 68.5959C140.88 68.6418 140.837 68.6804 140.787 68.7093C140.738 68.7382 140.683 68.7569 140.627 68.7642C140.57 68.7715 140.512 68.7672 140.457 68.7517C140.402 68.7363 140.351 68.7098 140.306 68.674C140.028 68.4569 111.461 46.653 80.4799 51.3073C63.6309 53.8428 49.0736 63.6637 37.1899 80.5008C15.0372 112.03 9.41216 142.283 20.8705 167.969C33.8219 196.928 66.9208 215.154 92.9191 218.193C137.962 223.447 169.377 216.578 191.773 196.572C211.565 178.892 221.357 153.736 231.704 127.105L231.714 127.077C244.498 94.2363 257.711 60.2892 291.331 41.139C335.914 15.6706 379.325 21.584 407.85 31.0229C441.773 42.2331 474.69 65.3917 495.896 92.9701L495.263 93.4738Z" fill="#35375B"/>
<path d="M333.371 133.209C330.576 139.088 325.332 143.308 319.039 141.684L326.643 112.117C332.937 113.732 338.822 121.764 333.371 133.209Z" fill="#FFA27A"/>
<path d="M272.171 206.41C271.794 207.88 270.848 209.141 269.541 209.913C268.235 210.686 266.675 210.908 265.205 210.53C263.735 210.153 262.475 209.206 261.703 207.899C260.93 206.593 260.709 205.032 261.086 203.562L275.947 146.868C276.135 146.14 276.464 145.456 276.916 144.855C277.367 144.254 277.933 143.748 278.58 143.366C279.228 142.984 279.944 142.733 280.688 142.628C281.432 142.522 282.19 142.565 282.918 142.752C283.646 142.94 284.329 143.269 284.93 143.721C285.531 144.173 286.037 144.739 286.419 145.386C286.801 146.034 287.052 146.75 287.157 147.494C287.262 148.239 287.22 148.997 287.032 149.725L272.171 206.41Z" fill="#35375B"/>
<path d="M268.578 144.272H268.474C268.606 146.625 268.62 148.985 268.517 151.34C267.935 156.081 273.187 161.152 277.918 161.821C281.928 162.385 287.467 164.243 291.564 156.611C292.744 154.388 296.52 147.84 296.52 147.84L268.578 144.272Z" fill="#848498"/>
<path d="M281.228 85.1725C281.228 85.1725 212.895 68.9346 190.352 20.0471C177.01 71.9477 171.168 100.924 157.852 152.773C180.161 125.542 267.044 140.416 267.044 140.416L288.928 116.233L281.228 85.1725Z" fill="#35375B"/>
<path d="M268.432 91.2248C268.395 91.233 268.357 91.233 268.319 91.2248C267.859 91.1032 221.974 78.7381 204.622 50.3347C204.562 50.2357 204.544 50.1169 204.571 50.0046C204.599 49.8922 204.67 49.7954 204.769 49.7356C204.868 49.6757 204.987 49.6576 205.099 49.6853C205.211 49.713 205.308 49.7841 205.368 49.8832C222.538 77.9913 268.085 90.2696 268.545 90.3912C268.66 90.4061 268.765 90.4662 268.835 90.5583C268.906 90.6503 268.938 90.7666 268.923 90.8818C268.908 90.9969 268.848 91.1014 268.756 91.1723C268.664 91.2431 268.547 91.2745 268.432 91.2595V91.2248Z" fill="white"/>
<path d="M314.664 101.35C326.279 104.337 331.609 116.111 328.614 127.721C325.619 139.331 315.454 146.416 303.831 143.429L275.68 136.205L286.504 94.125L314.664 101.35Z" fill="#35375B"/>
<path d="M316.489 125.55C313.729 136.057 308.633 147.849 296.524 147.762C288.972 147.702 265.847 143.594 265.847 143.594C262.618 142.726 257.652 140.894 260.638 139.461C273.303 133.513 277.548 129.258 281.793 113.836C287.218 94.1077 275.717 82.8541 275.717 82.8541C275.717 76.3242 302.678 87.5084 308.772 94.1425C314.649 100.516 320.291 111.023 316.489 125.55Z" fill="#848498"/>
<path d="M291.53 147.858L273.24 145.835C273.183 145.828 273.128 145.811 273.078 145.783C273.028 145.756 272.983 145.718 272.948 145.674C272.875 145.583 272.842 145.468 272.854 145.353C272.867 145.238 272.925 145.132 273.015 145.06C273.105 144.987 273.221 144.954 273.336 144.966L291.626 146.981C291.74 146.994 291.844 147.051 291.915 147.141C291.987 147.23 292.02 147.344 292.008 147.458C292.005 147.517 291.99 147.574 291.963 147.626C291.937 147.678 291.901 147.724 291.856 147.762C291.811 147.799 291.759 147.827 291.703 147.844C291.647 147.86 291.588 147.865 291.53 147.858Z" fill="#35375B"/>
<path d="M163.283 101.593H163.17C163.115 101.58 163.063 101.556 163.018 101.522C162.972 101.489 162.933 101.446 162.904 101.398C162.875 101.349 162.856 101.296 162.848 101.24C162.84 101.184 162.843 101.127 162.857 101.072L170.167 72.6163C170.181 72.5593 170.206 72.5057 170.241 72.4584C170.276 72.4112 170.32 72.3714 170.37 72.3411C170.421 72.3109 170.477 72.2909 170.535 72.2822C170.593 72.2736 170.652 72.2765 170.709 72.2907C170.766 72.305 170.82 72.3303 170.867 72.3653C170.914 72.4003 170.954 72.4442 170.984 72.4946C171.014 72.545 171.034 72.6009 171.043 72.659C171.052 72.7171 171.049 72.7764 171.035 72.8334L163.726 101.28C163.698 101.375 163.639 101.457 163.559 101.514C163.478 101.571 163.381 101.599 163.283 101.593Z" fill="#35375B"/>
<path d="M190.447 15.9226L190.404 15.8705C190.004 15.3937 189.536 14.9783 189.015 14.6374C186.652 13.2308 184.185 12.0058 181.637 10.973L176.281 31.6916C169.232 47.3217 161.784 70.9579 157.809 90.4955C155.126 103.651 153.086 115.981 151.836 126.297L144.293 155.525C144.293 155.525 150.369 156.263 153.711 155.577C161.576 155.265 179.927 127.669 188.121 90.7907C195.283 58.558 198.312 25.5872 190.447 15.9226Z" fill="#848498"/>
<path d="M176.08 90.973C166.401 125.385 149.37 156.55 144.335 155.525C139.301 154.501 140.742 123.51 147.868 88.4896C154.995 53.4695 175.212 2.96689 182.365 11.6242C190.308 21.1933 185.499 57.3162 176.08 90.973Z" fill="#848498"/>
<path d="M176.027 101.159C176.027 101.159 163.519 98.1716 158.206 90.7907C155.315 86.779 157.486 73.8147 162.086 72.0085C174.421 67.1806 183.97 69.4817 183.97 69.4817L180.177 86.3448L176.027 101.159Z" fill="#FFA27A"/>
<path d="M159.586 138.306C159.506 138.306 159.428 138.285 159.36 138.245C159.263 138.186 159.193 138.091 159.165 137.98C159.138 137.87 159.155 137.753 159.212 137.655C167.3 123.987 173.538 109.305 177.763 93.9948C186.86 60.9979 189.247 36.4239 185.063 18.953C185.049 18.8971 185.046 18.8389 185.054 18.7819C185.063 18.7248 185.083 18.67 185.112 18.6207C185.142 18.5714 185.182 18.5286 185.228 18.4947C185.275 18.4608 185.328 18.4365 185.384 18.4233C185.496 18.3972 185.613 18.4163 185.711 18.4765C185.808 18.5367 185.878 18.6331 185.905 18.7446C190.124 36.3631 187.737 61.0587 178.596 94.2206C174.355 109.608 168.088 124.363 159.959 138.098C159.92 138.162 159.866 138.216 159.8 138.252C159.735 138.289 159.661 138.307 159.586 138.306Z" fill="#35375B"/>
<path d="M159.805 90.0786C159.142 90.058 158.504 89.8269 157.982 89.4186C157.894 89.3457 157.838 89.241 157.826 89.1272C157.815 89.0134 157.849 88.8997 157.921 88.8108C157.997 88.7239 158.102 88.6693 158.217 88.658C158.332 88.6467 158.446 88.6796 158.537 88.75C158.79 88.9522 159.087 89.0908 159.404 89.1543C159.722 89.2177 160.049 89.2042 160.36 89.1147C161.159 88.8021 162.244 87.6472 162.851 83.8526C163.867 77.5484 162.851 75.4731 162.148 74.7958C162.015 74.6524 161.852 74.5405 161.67 74.4684C161.489 74.3962 161.293 74.3657 161.098 74.379C161.042 74.3902 160.984 74.3901 160.929 74.3786C160.873 74.3672 160.82 74.3445 160.773 74.3121C160.726 74.2797 160.686 74.2382 160.655 74.19C160.624 74.1418 160.604 74.088 160.595 74.0317C160.582 73.9762 160.581 73.9188 160.591 73.8629C160.602 73.807 160.623 73.7539 160.655 73.7067C160.687 73.6595 160.728 73.6193 160.776 73.5886C160.823 73.5579 160.877 73.5373 160.933 73.528C161.266 73.4856 161.604 73.5216 161.921 73.6332C162.237 73.7447 162.523 73.9288 162.756 74.1706C164.214 75.5773 164.492 78.8857 163.711 83.9915C163.164 87.378 162.14 89.3665 160.655 89.9223C160.384 90.0263 160.095 90.0793 159.805 90.0786Z" fill="#35375B"/>
<path d="M270.211 139.626C270.095 139.647 269.977 139.621 269.881 139.554C269.785 139.487 269.719 139.385 269.698 139.27C269.678 139.155 269.704 139.036 269.77 138.94C269.837 138.844 269.939 138.778 270.054 138.758C270.202 138.706 284.646 132.957 288.283 114.21C291.825 96.018 283.37 84.8946 283.283 84.7904C283.214 84.6982 283.183 84.583 283.196 84.4683C283.208 84.3537 283.265 84.2483 283.353 84.1739C283.445 84.1034 283.562 84.072 283.677 84.0866C283.792 84.1013 283.897 84.1607 283.969 84.252C284.056 84.3649 292.754 95.7749 289.134 114.375C285.393 133.608 270.497 139.556 270.349 139.556C270.307 139.587 270.26 139.61 270.211 139.626Z" fill="#35375B"/>
<path d="M88.6561 4.05231C89.7672 1.50807 87.0763 -0.975374 80.3315 2.31563C77.5797 3.69629 74.5589 5.95397 75.4704 8.32453C76.1909 10.1567 79.3593 9.66177 80.7395 9.2797L83.6388 16.869L88.4131 14.8631L85.4357 7.04807C86.7238 6.30865 87.8255 5.28385 88.6561 4.05231Z" fill="#35375B"/>
<path d="M96.3568 30.033L91.1484 28.1921L101.261 7.25644C101.608 6.57175 102.187 6.03264 102.895 5.73523C103.602 5.43783 104.392 5.40147 105.124 5.63264C105.479 5.78174 105.801 6.00052 106.07 6.27608C106.339 6.55164 106.551 6.87837 106.691 7.23698C106.832 7.59558 106.9 7.97878 106.89 8.36393C106.88 8.74908 106.793 9.12837 106.635 9.47938L96.3568 30.033Z" fill="#35375B"/>
<path d="M87.9296 27.7754L86.4626 33.3067L66.315 23.7549C65.6279 23.383 65.0842 22.7927 64.7699 22.0772C64.4555 21.3617 64.3883 20.5619 64.5789 19.804C64.6433 19.4617 64.7866 19.1391 64.9975 18.8619C65.2083 18.5846 65.4809 18.3604 65.7935 18.207C66.1061 18.0536 66.4502 17.9752 66.7984 17.9781C67.1466 17.981 67.4893 18.0651 67.7994 18.2236L87.9296 27.7754Z" fill="#35375B"/>
<path d="M105.16 66.7376C91.8787 72.2689 76.8266 62.8648 71.5228 48.9714C66.219 35.078 72.3041 18.267 85.5593 12.7096C98.8145 7.15223 114.292 14.8891 119.596 28.7825C124.9 42.676 118.415 61.1368 105.16 66.7376Z" fill="white"/>
<path d="M86.1069 13.5432C98.8499 8.18559 113.077 16.1483 118.225 29.538C123.373 42.9278 116.185 59.1657 104.267 64.1326C91.5149 69.4816 77.7128 61.7881 72.6086 48.4244C67.5045 35.0607 73.3552 18.9009 86.1069 13.5172V13.5432ZM67.7909 51.1076C74.3708 67.7189 89.8916 74.3964 106.142 67.606C121.767 61.05 127.366 41.8684 121.845 27.4193C116.324 12.9701 99.3361 4.91195 85.5513 10.6951C77.9095 13.7869 71.7766 19.7413 68.4591 27.29C65.1417 34.8386 64.9019 43.3847 67.7909 51.1076Z" fill="#FD4C00"/>
<path d="M96.2952 62.396C93.9593 62.3944 91.6446 61.9525 89.4723 61.0935C86.7196 60.0125 84.2194 58.3749 82.1283 56.2831C80.0372 54.1914 78.4002 51.6904 77.3195 48.9368C77.2877 48.8319 77.2966 48.7189 77.3446 48.6204C77.3926 48.5219 77.476 48.4452 77.5781 48.4056C77.6803 48.3661 77.7936 48.3666 77.8954 48.4071C77.9971 48.4477 78.0798 48.5252 78.1268 48.6242C79.1576 51.2621 80.721 53.6592 82.7194 55.6657C84.7178 57.6722 87.1082 59.245 89.7414 60.286C92.0302 61.2014 94.4869 61.6213 96.9497 61.518C99.4125 61.4147 101.825 60.7906 104.03 59.6868C112.71 55.3451 117.05 42.4242 113.292 32.5078C112.349 30.0052 110.915 27.7169 109.074 25.7781C107.233 23.8392 105.021 22.2891 102.571 21.2194C100.6 20.3361 98.4697 19.8608 96.3096 19.822C94.1496 19.7832 92.004 20.1817 90.0018 20.9936C89.9495 21.0162 89.8932 21.0281 89.8362 21.0285C89.7792 21.0289 89.7227 21.0178 89.6701 20.9959C89.6175 20.9741 89.5698 20.9418 89.5298 20.9012C89.4899 20.8605 89.4585 20.8122 89.4376 20.7592C89.3939 20.6543 89.393 20.5364 89.4352 20.4309C89.4774 20.3253 89.5593 20.2406 89.6633 20.1948C91.7736 19.3358 94.036 18.913 96.314 18.9518C98.592 18.9906 100.839 19.4902 102.919 20.4205C105.471 21.5354 107.776 23.1489 109.697 25.1663C111.619 27.1837 113.118 29.5645 114.108 32.1692C118.04 42.4676 113.422 55.9443 104.412 60.4336C101.894 61.7071 99.116 62.3789 96.2952 62.396Z" fill="#35375B"/>
<path d="M103.63 35.0867L104.429 35.955L97.4323 38.4732C97.2974 38.4133 97.1538 38.3752 97.0069 38.3603L92.2934 27.289L93.2222 27.1761L90.4531 24.024L90.5833 28.2876L91.3819 27.6884L95.592 39.1331C95.484 39.3324 95.4197 39.5524 95.4032 39.7785C95.3867 40.0045 95.4186 40.2315 95.4965 40.4443C95.5601 40.6293 95.6606 40.7993 95.792 40.9442C95.9234 41.089 96.0828 41.2056 96.2607 41.2868C96.4385 41.3681 96.631 41.4122 96.8265 41.4167C97.0219 41.4211 97.2162 41.3857 97.3976 41.3127C97.6394 41.199 97.847 41.0236 97.9994 40.804C98.1518 40.5845 98.2436 40.3286 98.2656 40.0623L104.898 37.1012L105.115 38.2387L107.719 35.1127L103.63 35.0867Z" fill="#35375B"/>
<path d="M138.225 194.705L79.7266 238.165C79.7266 238.165 102.721 272.595 110.109 272.595C117.374 272.595 168.659 237.08 170.195 225.704C170.777 221.866 138.225 194.705 138.225 194.705Z" fill="#35375B"/>
<path d="M109.44 265.587C103.164 264.059 79.7266 230.463 79.7266 230.463L137.444 186.812C137.444 186.812 165.655 213.07 169.388 218.94C171.949 222.934 115.317 267.055 109.44 265.587Z" fill="#FD4C00"/>
<path d="M129.058 222.066L121.254 213.608L132.773 204.074L140.577 212.532L129.058 222.066Z" fill="#FFA27A"/>
<path d="M129.056 222.5C128.996 222.501 128.936 222.488 128.881 222.465C128.826 222.441 128.776 222.405 128.735 222.361L120.922 213.904C120.883 213.86 120.853 213.81 120.833 213.755C120.814 213.699 120.806 213.641 120.81 213.582C120.813 213.524 120.828 213.466 120.855 213.414C120.882 213.361 120.92 213.315 120.966 213.278L132.485 203.727C132.528 203.684 132.579 203.65 132.636 203.628C132.692 203.606 132.753 203.597 132.814 203.6C132.874 203.603 132.933 203.618 132.988 203.646C133.042 203.673 133.09 203.711 133.128 203.758C133.167 203.805 133.195 203.86 133.211 203.918C133.227 203.977 133.23 204.038 133.221 204.098C133.212 204.158 133.191 204.216 133.158 204.267C133.125 204.318 133.082 204.362 133.032 204.395L121.869 213.634L129.369 221.753C129.449 221.836 129.493 221.947 129.493 222.062C129.493 222.177 129.449 222.287 129.369 222.37C129.328 222.411 129.279 222.444 129.226 222.467C129.172 222.489 129.114 222.501 129.056 222.5Z" fill="#35375B"/>
<path d="M130.273 215.093C130.204 215.092 130.136 215.075 130.074 215.044C130.012 215.012 129.959 214.967 129.917 214.911C129.877 214.843 129.855 214.765 129.855 214.685C129.855 214.606 129.877 214.528 129.917 214.459L135.881 202.963C135.941 202.875 136.031 202.812 136.134 202.787C136.237 202.761 136.346 202.774 136.44 202.823C136.534 202.872 136.607 202.954 136.645 203.054C136.682 203.153 136.682 203.263 136.645 203.362L131.081 214.103L147.704 211.646C147.761 211.637 147.819 211.64 147.875 211.654C147.931 211.668 147.983 211.693 148.03 211.727C148.076 211.761 148.115 211.804 148.145 211.854C148.175 211.903 148.194 211.958 148.203 212.015C148.211 212.072 148.209 212.13 148.195 212.186C148.181 212.242 148.156 212.295 148.122 212.341C148.088 212.387 148.045 212.427 147.995 212.456C147.946 212.486 147.891 212.506 147.834 212.514L130.369 215.119L130.273 215.093Z" fill="#35375B"/>
<path d="M102.921 243.696L95.1172 235.239L106.636 225.704L114.44 234.162L102.921 243.696Z" fill="#FFA27A"/>
<path d="M102.919 244.131C102.859 244.131 102.799 244.119 102.744 244.095C102.689 244.071 102.639 244.036 102.598 243.992L94.7856 235.534C94.7462 235.491 94.7158 235.44 94.6964 235.385C94.677 235.33 94.669 235.271 94.6728 235.213C94.6759 235.154 94.6914 235.096 94.7183 235.044C94.7453 234.992 94.783 234.946 94.829 234.909L102.928 228.205C102.972 228.168 103.022 228.141 103.076 228.124C103.131 228.107 103.188 228.101 103.245 228.107C103.301 228.113 103.356 228.13 103.406 228.157C103.456 228.184 103.5 228.221 103.536 228.266C103.573 228.309 103.601 228.359 103.619 228.413C103.636 228.467 103.643 228.524 103.638 228.581C103.633 228.638 103.617 228.693 103.59 228.743C103.564 228.793 103.528 228.838 103.484 228.874L95.7318 235.282L103.232 243.401C103.289 243.463 103.328 243.541 103.342 243.624C103.356 243.708 103.345 243.794 103.311 243.871C103.277 243.949 103.221 244.015 103.149 244.061C103.078 244.107 102.995 244.131 102.911 244.131H102.919Z" fill="#35375B"/>
<path d="M102.614 236.646C102.54 236.645 102.467 236.625 102.403 236.589C102.338 236.552 102.284 236.499 102.246 236.435C102.208 236.372 102.186 236.3 102.184 236.225C102.181 236.151 102.198 236.078 102.232 236.012L108.187 224.515C108.242 224.414 108.335 224.338 108.445 224.304C108.555 224.27 108.675 224.28 108.777 224.332C108.878 224.386 108.954 224.477 108.988 224.586C109.022 224.695 109.012 224.813 108.96 224.914L103.395 235.656L120.019 233.207C120.076 233.198 120.134 233.201 120.19 233.215C120.246 233.229 120.298 233.254 120.345 233.288C120.391 233.322 120.43 233.365 120.46 233.415C120.49 233.464 120.509 233.519 120.518 233.576C120.526 233.633 120.524 233.691 120.51 233.747C120.496 233.803 120.471 233.856 120.437 233.902C120.402 233.948 120.359 233.988 120.31 234.017C120.261 234.047 120.206 234.067 120.149 234.075L102.684 236.68L102.614 236.646Z" fill="#35375B"/>
<path d="M54.3779 104.771C66.5306 121.026 62.1904 146.573 50.0376 157.34C37.8848 168.107 15.8102 163.123 5.78412 147.154C-2.42769 134.129 -0.691574 111.553 11.4872 100.759C23.6661 89.9657 44.2303 91.2248 54.3779 104.771Z" fill="#FD4C00"/>
<path d="M48.0679 110.155C56.8005 123.77 53.6929 142.587 44.7779 150.463C35.863 158.339 18.1634 154.162 12.2085 143.151C4.13558 128.207 7.13037 115.217 16.0453 107.341C24.9602 99.4653 41.9741 100.681 48.0679 110.155Z" fill="white"/>
<path d="M32.9817 154.987C31.5058 154.984 30.033 154.851 28.5807 154.587C21.2977 153.294 14.8741 148.978 11.8272 143.299C4.30117 129.362 5.75082 115.773 15.7508 106.95C15.7936 106.912 15.8434 106.883 15.8975 106.864C15.9516 106.845 16.0089 106.837 16.0662 106.84C16.1234 106.843 16.1794 106.858 16.2311 106.883C16.2827 106.908 16.329 106.942 16.3671 106.985C16.4053 107.028 16.4347 107.078 16.4536 107.132C16.4726 107.186 16.4806 107.243 16.4774 107.301C16.4742 107.358 16.4597 107.414 16.4349 107.466C16.41 107.517 16.3752 107.563 16.3324 107.602C6.67096 116.137 5.27339 129.31 12.5911 142.882C15.5164 148.301 21.697 152.434 28.7369 153.702C34.9348 154.805 40.6814 153.502 44.4921 150.133C44.5747 150.053 44.6853 150.008 44.8003 150.008C44.9153 150.008 45.0259 150.053 45.1085 150.133C45.1885 150.215 45.2333 150.326 45.2333 150.441C45.2333 150.556 45.1885 150.667 45.1085 150.749C41.7234 153.603 37.407 155.112 32.9817 154.987Z" fill="#35375B"/>
<path d="M29.3267 130.995H29.2572C29.1837 130.983 29.1143 130.953 29.0552 130.907C28.9961 130.862 28.9492 130.802 28.9187 130.734C28.9187 130.613 23.7711 118.621 22.1652 116.302C22.1291 116.256 22.1029 116.202 22.0881 116.145C22.0733 116.088 22.0703 116.029 22.0792 115.971C22.0881 115.913 22.1088 115.857 22.14 115.807C22.1711 115.757 22.2122 115.714 22.2605 115.68C22.3089 115.646 22.3636 115.623 22.4213 115.611C22.479 115.599 22.5385 115.599 22.5962 115.611C22.6538 115.623 22.7085 115.647 22.7568 115.681C22.805 115.714 22.846 115.757 22.877 115.808C24.3354 117.9 28.3371 127.157 29.4395 129.701L37.7381 119.706C37.7735 119.662 37.8175 119.625 37.8675 119.597C37.9175 119.57 37.9724 119.553 38.0291 119.547C38.0858 119.542 38.143 119.547 38.1974 119.564C38.2518 119.581 38.3023 119.609 38.3458 119.646C38.4326 119.721 38.4872 119.827 38.4985 119.942C38.5098 120.056 38.4769 120.171 38.4065 120.262L29.6565 130.856C29.6149 130.902 29.5639 130.938 29.5069 130.962C29.45 130.986 29.3884 130.997 29.3267 130.995Z" fill="#35375B"/>
<path d="M26.686 109.981C26.5812 109.98 26.48 109.942 26.4005 109.874C26.321 109.805 26.2684 109.711 26.2519 109.607L25.7224 106.004C25.7075 105.889 25.7383 105.773 25.808 105.68C25.8778 105.588 25.9811 105.526 26.0957 105.509C26.1516 105.5 26.2087 105.503 26.2636 105.517C26.3185 105.531 26.3701 105.555 26.4154 105.589C26.4606 105.623 26.4987 105.666 26.5272 105.715C26.5558 105.763 26.5744 105.818 26.5818 105.874L27.1113 109.486C27.1199 109.542 27.1172 109.599 27.1035 109.654C27.0897 109.709 27.0651 109.76 27.0312 109.806C26.9972 109.851 26.9546 109.889 26.9057 109.918C26.8569 109.946 26.8028 109.965 26.7467 109.972L26.686 109.981Z" fill="#35375B"/>
<path d="M28.3962 108.513C28.2913 108.513 28.1902 108.475 28.1107 108.406C28.0312 108.338 27.9786 108.244 27.9621 108.14L27.641 105.726C27.6248 105.611 27.6551 105.494 27.7251 105.401C27.7951 105.308 27.8991 105.247 28.0142 105.231C28.1293 105.215 28.2461 105.245 28.3389 105.315C28.4317 105.385 28.4929 105.489 28.509 105.605L28.8649 108.019C28.8799 108.131 28.85 108.245 28.7819 108.336C28.7137 108.427 28.6126 108.488 28.5003 108.505L28.3962 108.513Z" fill="#35375B"/>
<path d="M35.5336 150.281H35.4555C35.3997 150.268 35.347 150.245 35.3004 150.212C35.2538 150.179 35.2144 150.137 35.1844 150.088C35.1544 150.04 35.1345 149.985 35.1259 149.929C35.1173 149.873 35.1202 149.815 35.1343 149.76L35.5336 148.023C35.559 147.908 35.629 147.807 35.7283 147.744C35.8276 147.68 35.948 147.659 36.0632 147.684C36.1783 147.71 36.2786 147.78 36.3421 147.879C36.4056 147.978 36.427 148.099 36.4017 148.214L35.9937 149.951C35.9692 150.052 35.9093 150.14 35.8249 150.201C35.7404 150.261 35.6371 150.29 35.5336 150.281Z" fill="#35375B"/>
<path d="M48.6139 126.227C48.5196 126.229 48.4276 126.199 48.3522 126.142C48.2767 126.086 48.2222 126.006 48.1972 125.915L47.3292 122.91C47.3132 122.853 47.3087 122.794 47.3157 122.735C47.3228 122.676 47.3414 122.619 47.3704 122.568C47.3994 122.516 47.4383 122.471 47.4848 122.434C47.5314 122.398 47.5847 122.371 47.6417 122.355C47.6987 122.339 47.7583 122.334 47.817 122.341C47.8758 122.348 47.9326 122.367 47.9842 122.396C48.0358 122.425 48.0811 122.464 48.1177 122.51C48.1543 122.557 48.1813 122.61 48.1972 122.667L49.0653 125.672C49.0979 125.781 49.0861 125.899 49.0325 126C48.9789 126.1 48.8877 126.176 48.7788 126.21C48.7264 126.231 48.6694 126.237 48.6139 126.227Z" fill="#35375B"/>
<path d="M14.568 136.257C14.4679 136.257 14.3709 136.222 14.2934 136.159C14.2159 136.096 14.1626 136.008 14.1426 135.91L13.2746 131.846C13.2513 131.732 13.2738 131.613 13.3371 131.516C13.4005 131.418 13.4996 131.35 13.6131 131.325C13.669 131.313 13.7265 131.313 13.7825 131.324C13.8385 131.335 13.8918 131.356 13.9393 131.388C13.9869 131.419 14.0278 131.46 14.0597 131.507C14.0916 131.554 14.1139 131.607 14.1253 131.663L14.9933 135.736C15.014 135.848 14.9904 135.965 14.9272 136.06C14.8641 136.156 14.7665 136.223 14.6548 136.248L14.568 136.257Z" fill="#35375B"/>
<path d="M34.2306 151.609C34.1305 151.609 34.0335 151.575 33.956 151.511C33.8785 151.448 33.8252 151.36 33.8052 151.262L32.9372 147.372C32.9162 147.258 32.9396 147.14 33.0026 147.044C33.0656 146.947 33.1633 146.878 33.2757 146.851C33.3316 146.839 33.3891 146.839 33.4451 146.85C33.5011 146.861 33.5544 146.882 33.6019 146.914C33.6495 146.945 33.6904 146.986 33.7223 147.033C33.7542 147.08 33.7765 147.133 33.7879 147.189L34.6125 151.079C34.6253 151.135 34.6269 151.193 34.6173 151.25C34.6076 151.306 34.5868 151.36 34.5561 151.409C34.5255 151.457 34.4855 151.499 34.4386 151.532C34.3916 151.565 34.3386 151.588 34.2827 151.6L34.2306 151.609Z" fill="#35375B"/>
<path d="M12.8839 135.97C12.8141 135.971 12.7452 135.955 12.6832 135.924C12.6211 135.892 12.5678 135.845 12.528 135.788L11.2259 133.973C11.1608 133.878 11.1354 133.762 11.1548 133.648C11.1742 133.535 11.2371 133.433 11.33 133.365C11.3767 133.332 11.4295 133.308 11.4853 133.295C11.5412 133.283 11.5991 133.281 11.6556 133.291C11.7121 133.3 11.7661 133.321 11.8145 133.352C11.8629 133.383 11.9048 133.422 11.9377 133.469L13.2311 135.284C13.2965 135.377 13.3232 135.491 13.3053 135.603C13.2875 135.715 13.2266 135.816 13.1356 135.883C13.0641 135.94 12.9752 135.971 12.8839 135.97Z" fill="#35375B"/>
<path d="M50.2622 126.931C50.2041 126.93 50.1467 126.917 50.0935 126.894C50.0402 126.871 49.992 126.837 49.9517 126.795C49.9114 126.753 49.8798 126.704 49.8586 126.649C49.8374 126.595 49.8271 126.537 49.8282 126.479L50.0279 122.138C50.0387 122.023 50.0919 121.917 50.177 121.84C50.2622 121.763 50.3731 121.72 50.4879 121.721C50.6023 121.73 50.7087 121.783 50.7848 121.869C50.8609 121.954 50.9008 122.066 50.8959 122.181L50.6963 126.523C50.6896 126.633 50.641 126.737 50.5603 126.813C50.4796 126.889 50.373 126.931 50.2622 126.931Z" fill="#35375B"/>
<path d="M228.511 273.029C228.448 273.031 228.385 273.016 228.329 272.985C228.277 272.962 228.23 272.929 228.192 272.887C228.153 272.845 228.123 272.796 228.104 272.743C228.084 272.69 228.076 272.633 228.079 272.576C228.082 272.519 228.096 272.464 228.121 272.412L244.466 237.679C244.49 237.627 244.524 237.58 244.566 237.542C244.608 237.503 244.657 237.473 244.711 237.453C244.764 237.433 244.821 237.424 244.878 237.426C244.935 237.429 244.991 237.442 245.043 237.466C245.095 237.49 245.142 237.524 245.18 237.566C245.219 237.608 245.249 237.657 245.269 237.711C245.289 237.764 245.298 237.821 245.296 237.878C245.293 237.936 245.28 237.992 245.256 238.044L228.902 272.777C228.869 272.853 228.814 272.918 228.745 272.963C228.675 273.007 228.594 273.03 228.511 273.029Z" fill="#35375B"/>
<path d="M187.435 256.461C187.372 256.46 187.311 256.447 187.254 256.422C187.197 256.396 187.147 256.359 187.105 256.313C187.03 256.225 186.993 256.111 187.001 255.996C187.009 255.881 187.062 255.774 187.148 255.697L242.435 207.348C242.517 207.268 242.628 207.223 242.743 207.223C242.858 207.223 242.968 207.268 243.051 207.348C243.131 207.43 243.176 207.541 243.176 207.656C243.176 207.771 243.131 207.882 243.051 207.964L187.764 256.322C187.677 256.41 187.559 256.46 187.435 256.461Z" fill="#35375B"/>
</svg>
