<svg width="450" height="442" viewBox="0 0 450 442" fill="none" xmlns="http://www.w3.org/2000/svg">
<path fill-rule="evenodd" clip-rule="evenodd" d="M447.046 437.31V364.097C447.046 362.015 432.991 360.894 415.593 360.894C398.196 360.894 384.141 362.038 384.141 364.097V437.31C384.141 439.598 398.219 441.588 415.593 441.588C432.968 441.588 447.069 439.666 447.069 437.31H447.046Z" fill="#FC4C00"/>
<path fill-rule="evenodd" clip-rule="evenodd" d="M446.657 437.31V364.097C446.657 363.342 443.544 362.678 438.462 362.152C432.739 361.58 424.613 361.283 415.571 361.283C406.529 361.283 398.448 361.58 392.679 362.175C387.574 362.678 384.461 363.342 384.461 364.097V436.989V437.424C384.461 438.362 387.872 439.3 393.343 440.055C408.091 441.733 422.982 441.733 437.73 440.055C443.086 439.323 446.428 438.408 446.612 437.47L446.657 437.31ZM447.436 364.097V437.31C447.436 438.728 443.773 439.918 437.867 440.719C423.058 442.396 408.106 442.396 393.297 440.719C387.895 439.987 384.37 438.911 383.82 437.676V364.143C383.82 362.907 387.208 362.015 392.748 361.443C398.288 360.871 406.643 360.551 415.639 360.551C424.636 360.551 432.831 360.848 438.531 361.443C444.231 362.038 447.436 362.907 447.436 364.143V364.097Z" fill="#35375B"/>
<path fill-rule="evenodd" clip-rule="evenodd" d="M415.298 367.231C407.606 367.261 399.918 366.864 392.27 366.041C396.212 365.13 400.241 364.639 404.288 364.577V364.737V364.943C404.631 366.27 410.651 366.751 418.503 366.842C420.632 366.842 422.921 366.842 425.371 366.842H427.477C423.677 367.117 419.579 367.231 415.298 367.231Z" fill="#D42C03"/>
<path fill-rule="evenodd" clip-rule="evenodd" d="M447.068 437.333V366.408C447.068 364.349 433.059 368.696 415.707 368.696V441.565C433.036 441.565 447.068 439.689 447.068 437.333Z" fill="#FFA17A"/>
<path fill-rule="evenodd" clip-rule="evenodd" d="M416.077 368.947L415.687 368.192C423.359 368.079 431.011 367.391 438.579 366.133C440.85 365.733 443.143 365.465 445.446 365.332C446.659 365.332 447.3 365.607 447.3 366.27V437.195C447.308 437.429 447.253 437.661 447.14 437.867C447.027 438.072 446.861 438.243 446.659 438.362C443.884 439.694 440.874 440.471 437.8 440.65C430.385 441.521 422.924 441.941 415.458 441.908C415.344 441.908 415.619 441.153 415.458 441.153C422.879 441.187 430.294 440.767 437.663 439.895C442.997 439.163 446.339 438.248 446.522 437.31V366.27C446.522 366.156 446.133 366.11 445.423 366.11C443.122 366.242 440.829 366.501 438.556 366.888C431.124 368.126 423.61 368.814 416.077 368.947Z" fill="#35375B"/>
<path fill-rule="evenodd" clip-rule="evenodd" d="M385.262 364.806C387.519 365.382 389.814 365.795 392.13 366.041C399.899 366.888 407.71 367.285 415.525 367.231C422.962 367.267 430.397 366.916 437.798 366.179C441.041 365.96 444.242 365.322 447.321 364.28C446.859 364.082 446.385 363.914 445.902 363.776C443.644 363.195 441.35 362.767 439.034 362.495C423.851 360.979 408.556 360.94 393.366 362.381C390.123 362.6 386.922 363.238 383.843 364.28C384.309 364.493 384.791 364.669 385.285 364.806H385.262ZM384.621 366.957C382.927 366.316 381.531 366.156 381.188 364.28C381.531 362.404 382.927 362.243 384.621 361.626C387.017 360.993 389.458 360.549 391.924 360.299C399.783 359.425 407.686 359.012 415.593 359.063C429.466 359.063 441.278 360.093 446.588 361.626C448.282 362.243 449.679 362.404 449.999 364.28C449.679 366.156 448.282 366.316 446.588 366.957C444.182 367.571 441.734 368.006 439.263 368.261C431.404 369.126 423.5 369.53 415.593 369.473C401.744 369.473 389.932 368.467 384.575 366.957H384.621Z" fill="#FFA17A"/>
<path fill-rule="evenodd" clip-rule="evenodd" d="M415.685 410.907C406.299 410.907 397.509 410.427 389.863 409.649V389.058C397.417 389.79 406.048 390.202 415.227 390.202H415.685V410.907Z" fill="#FFA17A"/>
<path fill-rule="evenodd" clip-rule="evenodd" d="M416.374 410.907H415.688V390.133C425.004 390.133 433.726 389.676 441.349 388.921V409.786C433.863 410.518 425.371 410.907 416.374 410.907Z" fill="white"/>
<path fill-rule="evenodd" clip-rule="evenodd" d="M425.186 343.643C413.74 343.643 404.332 344.764 404.332 346.137V364.829C404.332 366.179 414.038 366.957 425.278 366.957C436.517 366.957 445.285 365.538 445.88 364.829V346.137C446.04 344.764 436.701 343.643 425.186 343.643Z" fill="white"/>
<path fill-rule="evenodd" clip-rule="evenodd" d="M425.187 343.94C420.271 343.904 415.356 344.148 410.468 344.672C406.851 345.107 404.63 345.611 404.63 346.137V364.44V364.737C404.63 365.195 406.782 365.63 410.193 365.973C414.039 366.362 419.35 366.568 425.301 366.568C430.131 366.568 434.458 366.293 437.983 365.95C440.617 365.82 443.225 365.358 445.743 364.577V346.045C445.743 345.519 443.454 345.016 439.883 344.581C434.995 344.057 430.08 343.812 425.164 343.849L425.187 343.94ZM410.399 344.1C420.233 343.124 430.14 343.124 439.975 344.1C443.912 344.558 446.339 345.267 446.339 346.137V365.126H446.11C443.503 365.981 440.792 366.481 438.052 366.613C433.823 367.036 429.575 367.242 425.324 367.231C419.464 367.231 414.039 367.025 410.147 366.636C406.874 366.293 404.676 365.79 404.195 365.126H404.035V346.137C404.035 345.267 406.485 344.558 410.399 344.1Z" fill="#35375B"/>
<path fill-rule="evenodd" clip-rule="evenodd" d="M425.186 348.081H422.279V347.761H421.34C415.732 347.761 410.879 347.555 407.789 347.326C407.789 347.326 407.605 347.189 407.605 347.121C407.605 346.228 416.487 345.816 425.186 345.816C433.885 345.816 442.904 346.228 442.904 347.121C442.904 348.013 433.908 348.081 425.186 348.081Z" fill="#E3E3E3"/>
<path fill-rule="evenodd" clip-rule="evenodd" d="M424.384 359.887H422.301V353.023H424.773C428.001 353.023 431.045 353.023 433.769 352.794V359.658C430.931 359.795 427.749 359.887 424.384 359.887Z" fill="#E3E3E3"/>
<path fill-rule="evenodd" clip-rule="evenodd" d="M418.548 366.842C410.696 366.842 404.675 366.27 404.332 364.943V364.737V364.577V364.829C404.401 365.881 410.444 366.59 418.548 366.842Z" fill="#AF2402"/>
<path fill-rule="evenodd" clip-rule="evenodd" d="M422.303 366.911H421.341H418.549C410.445 366.659 404.402 365.95 404.379 364.898V347.029C405.512 347.296 406.671 347.442 407.836 347.464C409.049 348.059 415.413 348.127 422.326 348.15V353.115C416.623 353.178 410.928 352.696 405.317 351.674V358.537C410.943 359.491 416.643 359.943 422.349 359.887L422.303 366.911Z" fill="#35375B"/>
<path fill-rule="evenodd" clip-rule="evenodd" d="M422.279 348.081C415.412 348.081 409.002 348.081 407.789 347.395C410.879 347.624 415.732 347.83 421.341 347.83H422.279V348.081Z" fill="#AEAEAE"/>
<path fill-rule="evenodd" clip-rule="evenodd" d="M422.301 359.864C416.595 359.92 410.895 359.469 405.27 358.514V351.651C410.88 352.673 416.575 353.156 422.278 353.092L422.301 359.864Z" fill="#E3E3E3"/>
<path fill-rule="evenodd" clip-rule="evenodd" d="M405.016 346.045C406.527 346.341 408.057 346.525 409.595 346.594C413.555 346.869 419.072 346.96 425.161 346.96C432.184 347.236 439.219 346.869 446.175 345.862L445.305 345.588C443.794 345.269 442.265 345.04 440.727 344.901C436.767 344.535 431.25 344.329 425.184 344.329C418.153 344.063 411.115 344.561 404.192 345.816L405.016 346.045ZM409.595 348.082C405.543 347.555 403.116 347.944 402.43 345.794C403.094 343.734 405.52 343.986 409.572 343.368C413.624 342.751 419.14 342.774 425.252 342.774C431.364 342.774 436.904 342.979 440.933 343.368C444.962 343.757 447.434 343.734 448.075 345.794C447.388 347.876 444.962 347.487 440.91 348.082C436.858 348.676 431.342 348.425 425.252 348.425C419.163 348.425 413.555 348.356 409.526 348.082H409.595Z" fill="#35375B"/>
<path fill-rule="evenodd" clip-rule="evenodd" d="M102.141 157.957L172.349 159.101L170.723 150.224L102.301 149.125L102.141 157.957Z" fill="#E3E3E3"/>
<path fill-rule="evenodd" clip-rule="evenodd" d="M102.805 157.316L171.479 158.437L170.106 150.864L103.011 149.789L102.896 157.316H102.805ZM172.326 159.741L101.5 158.597L101.66 148.462L171.273 149.583L173.127 159.764L172.326 159.741Z" fill="#35375B"/>
<path fill-rule="evenodd" clip-rule="evenodd" d="M113.062 206.758L185.468 207.513L183.408 199.048L113.2 197.927L113.062 206.758Z" fill="#E3E3E3"/>
<path fill-rule="evenodd" clip-rule="evenodd" d="M113.726 206.117L184.69 206.849L182.973 199.688L113.841 198.59V206.117H113.726ZM185.422 208.199L112.398 207.398L112.582 197.263L183.911 198.407L186.2 208.153L185.422 208.199Z" fill="#35375B"/>
<path fill-rule="evenodd" clip-rule="evenodd" d="M126.109 268.852L201.56 270.064L199.087 261.187L126.247 260.02L126.109 268.852Z" fill="#E3E3E3"/>
<path fill-rule="evenodd" clip-rule="evenodd" d="M126.773 268.211L200.712 269.401L198.583 261.828L126.887 260.661V268.211H126.773ZM201.559 270.705L125.445 269.492L125.606 259.357C150.267 259.723 174.921 260.119 199.568 260.546L202.406 270.728L201.559 270.705Z" fill="#35375B"/>
<path fill-rule="evenodd" clip-rule="evenodd" d="M142.59 335.406L218.91 336.642L216.438 327.765L142.727 326.575L142.59 335.406Z" fill="#E3E3E3"/>
<path fill-rule="evenodd" clip-rule="evenodd" d="M143.231 334.789L218.063 335.978L215.934 328.383L143.368 327.239L143.231 334.789ZM218.91 337.282L141.926 336.047L142.086 325.912L216.918 327.124L219.757 337.305L218.91 337.282Z" fill="#35375B"/>
<path fill-rule="evenodd" clip-rule="evenodd" d="M228.157 398.438L240.106 395.784L168.09 102.178L156.141 104.832L228.157 398.438Z" fill="#E3E3E3"/>
<path fill-rule="evenodd" clip-rule="evenodd" d="M228.639 397.66L239.329 395.373L167.61 102.956L156.92 105.244L228.639 397.66ZM240.245 396.402L227.677 399.193C203.596 300.844 179.491 202.556 155.363 104.328L168.572 101.4C192.699 199.688 216.812 297.977 240.909 396.265L240.245 396.402Z" fill="#35375B"/>
<path fill-rule="evenodd" clip-rule="evenodd" d="M228.641 398.324L156.922 105.907L157.082 105.038L163.034 103.711L235.646 396.768L228.641 398.324Z" fill="#E3E3E3"/>
<path fill-rule="evenodd" clip-rule="evenodd" d="M228.023 398.484L156.258 105.93L156.532 104.488L163.514 102.956C187.795 201.076 212.098 299.181 236.424 397.271L228.16 399.125L228.023 398.507V398.484ZM157.586 105.884L229.121 397.546L234.867 396.288L162.53 104.466L157.608 105.564L157.586 105.884Z" fill="#35375B"/>
<path fill-rule="evenodd" clip-rule="evenodd" d="M147.42 393.748L161.361 391.163L103.262 102.406L88.0625 101.354L147.42 393.748Z" fill="#D7D7D7"/>
<path fill-rule="evenodd" clip-rule="evenodd" d="M147.924 392.993L160.606 390.705L102.713 102.956L88.9786 101.995L148.038 392.924L147.924 392.993ZM161.476 391.78L146.917 394.503C127.001 296.566 107.116 198.62 87.2617 100.668L103.789 101.812C123.11 198.437 142.56 295.056 162.14 391.666L161.476 391.78Z" fill="#35375B"/>
<path fill-rule="evenodd" clip-rule="evenodd" d="M147.56 393.519L124.669 280.52L128.926 257.481L156.396 391.895L147.674 393.519H147.56ZM117.092 243.181L112.513 220.623L121.212 220.966L117.092 243.181ZM119.152 209.526H110.27L101.113 164.203H109.881L119.152 209.526Z" fill="#E3E3E3"/>
<path fill-rule="evenodd" clip-rule="evenodd" d="M146.942 393.519L124.05 280.405C125.63 271.597 127.301 262.789 128.926 253.98C138.312 300.074 147.697 346.183 157.083 392.307L147.102 394.16V393.519H146.942ZM125.309 280.383L148.086 392.65L155.526 391.277L128.949 260.821L125.309 280.428V280.383ZM116.473 243.25L111.735 219.936L121.967 220.348L117.137 246.59L116.473 243.319V243.25ZM113.314 221.309L117.068 239.795L120.434 221.492L113.314 221.217V221.309ZM119.152 210.167H109.743C106.584 194.624 103.433 179.089 100.289 163.562H110.453C113.612 179.105 116.779 194.64 119.953 210.167H119.152ZM110.796 208.863H118.35L109.4 164.843H101.869L110.796 208.863Z" fill="#35375B"/>
<path fill-rule="evenodd" clip-rule="evenodd" d="M97.2659 101.995L94.6562 101.812L97.1285 101.354L97.2659 101.995Z" fill="#3F8ACE"/>
<path fill-rule="evenodd" clip-rule="evenodd" d="M97.2194 102.635L89.5508 102.109L97.6315 100.599L98.0664 102.704L97.2194 102.635Z" fill="#35375B"/>
<path fill-rule="evenodd" clip-rule="evenodd" d="M108.026 154.845H99.1902L88.6602 102.91L94.6577 101.812L97.2673 101.995L108.026 154.845Z" fill="#E3E3E3"/>
<path fill-rule="evenodd" clip-rule="evenodd" d="M108.024 155.577H98.6613C95.0445 137.9 91.4581 120.206 87.9023 102.498L94.6324 101.24L97.7915 101.469L108.802 155.577H108.024ZM99.7143 154.296H107.223L96.7156 102.59L94.7011 102.452L89.4132 103.436L99.7143 154.296Z" fill="#35375B"/>
<path d="M77.4407 104.035L0.753906 406.712L12.6705 409.728L89.3573 107.051L77.4407 104.035Z" fill="white"/>
<path fill-rule="evenodd" clip-rule="evenodd" d="M12.5445 410.358L0 407.247C25.6232 305.877 51.2692 204.539 76.9381 103.23L90.1236 106.571C64.3784 207.879 38.7247 309.195 13.1626 410.518L12.5445 410.358ZM1.57951 406.24L12.224 408.94L88.5441 107.531L77.8309 104.809L1.57951 406.24Z" fill="#35375B"/>
<path fill-rule="evenodd" clip-rule="evenodd" d="M12.1108 410.015L5.12891 408.253L5.24336 407.842L12.2253 409.603L12.1108 410.015Z" fill="url(#paint0_linear_298_3939)"/>
<path fill-rule="evenodd" clip-rule="evenodd" d="M11.9476 410.656L4.34766 408.711L4.78259 407.063L13.0006 409.123L12.5886 410.816L11.9476 410.656Z" fill="#35375B"/>
<path fill-rule="evenodd" clip-rule="evenodd" d="M12.2241 409.603L5.24219 407.841L82.455 105.747L88.7502 107.325L76.7093 154.845H74.0081L72.2683 164.203H74.3514L62.8828 209.526H59.4949L57.2973 218.449L60.5708 218.563L47.6829 269.538L45.0046 269.469L41.2504 281.137L44.6841 281.32L30.0565 339.113L25.4553 338.724L22.8228 351.307L26.8517 351.811L12.2241 409.603Z" fill="#E3E3E3"/>
<path fill-rule="evenodd" clip-rule="evenodd" d="M12.0636 410.221L4.57812 408.299C30.3539 307.174 56.1983 206.056 82.1115 104.946L89.6427 106.868C85.446 123.066 81.3026 139.303 77.2127 155.577H74.5573L73.0464 163.654H75.1753C71.238 179.196 67.3083 194.731 63.3862 210.258H59.9983L58.0983 217.923L61.3947 218.037C56.9843 235.456 52.5815 252.874 48.1863 270.293H45.4622L42.1201 280.726L45.508 280.909C40.5177 300.585 35.535 320.276 30.5599 339.982L25.9816 339.593L23.6925 351.033L27.7443 351.536L12.6817 410.381L12.0636 410.221ZM6.02029 407.361L11.7431 408.802L26.0503 352.337L22.0443 351.834L24.9515 338.106L29.5298 338.495L43.837 281.984L40.3346 281.801L44.4779 268.874H47.1333L59.7465 219.181L56.473 219.044L58.9911 208.863H62.379L73.5043 164.843H71.4898L73.4814 154.205H76.2055L87.9488 107.806L82.9355 106.525L6.02029 407.361Z" fill="#35375B"/>
<path fill-rule="evenodd" clip-rule="evenodd" d="M96.5787 432.414L82.6836 429.439L143.804 98.6316L157.722 101.606L96.5787 432.414Z" fill="white"/>
<path fill-rule="evenodd" clip-rule="evenodd" d="M96.4429 433.054L81.9297 429.943C102.349 319.254 122.806 208.558 143.302 97.8535L158.456 101.102C137.899 211.791 117.442 322.487 97.0838 433.191L96.4429 433.054ZM83.4176 428.936L96.1453 431.659L157.059 102.201L144.423 99.5008L83.4176 428.936Z" fill="#35375B"/>
<path fill-rule="evenodd" clip-rule="evenodd" d="M142.455 164.203H72.2695L74.0093 154.845H142.455V164.203Z" fill="white"/>
<path fill-rule="evenodd" clip-rule="evenodd" d="M142.452 164.843H71.4883L73.4798 154.205H143.093V164.843H142.452ZM73.0449 163.562H141.925V155.577H74.5557L73.0449 163.562Z" fill="#35375B"/>
<path fill-rule="evenodd" clip-rule="evenodd" d="M125.582 221.149L57.2969 218.449L59.4945 209.526H129.68L125.582 221.149Z" fill="white"/>
<path fill-rule="evenodd" clip-rule="evenodd" d="M125.536 221.789L56.4727 219.044L58.9907 208.863H130.595L126.017 221.812L125.536 221.789ZM58.0979 217.831L125.124 220.462L128.764 210.167H60.0895L58.0979 217.831Z" fill="#35375B"/>
<path fill-rule="evenodd" clip-rule="evenodd" d="M113.747 285.027L41.25 281.137L45.0042 269.469L116.723 271.78L113.747 285.027Z" fill="white"/>
<path fill-rule="evenodd" clip-rule="evenodd" d="M113.725 285.668L40.4727 281.732L44.616 268.806L117.617 271.094C116.518 275.944 115.435 280.794 114.366 285.645H113.817L113.725 285.668ZM42.1208 280.543L113.245 284.341L115.923 272.398L45.463 270.11L42.1208 280.543Z" fill="#35375B"/>
<path fill-rule="evenodd" clip-rule="evenodd" d="M99.1672 360.962L22.8242 351.307L25.4567 338.724L102.395 345.176L99.1672 360.962Z" fill="white"/>
<path fill-rule="evenodd" clip-rule="evenodd" d="M99.0956 361.603L22.043 351.857L24.9502 338.129C51.0312 340.28 77.1045 342.461 103.17 344.673L99.6907 361.786H99.0956V361.603ZM23.5538 350.758L98.6148 360.253L101.568 345.748L26.0261 339.41L23.5538 350.758Z" fill="#35375B"/>
<path fill-rule="evenodd" clip-rule="evenodd" d="M156.327 101.308L149.07 99.7526L149.139 99.501L157.197 101.24L156.327 101.308Z" fill="#3F8ACE"/>
<path fill-rule="evenodd" clip-rule="evenodd" d="M156.187 101.949L148.312 100.256L148.61 98.7458L161.544 101.514L156.302 101.972L156.187 101.949Z" fill="#35375B"/>
<path fill-rule="evenodd" clip-rule="evenodd" d="M157.515 101.56L156.324 101.308L157.194 101.24L157.56 101.331L157.515 101.56Z" fill="url(#paint1_linear_298_3939)"/>
<path fill-rule="evenodd" clip-rule="evenodd" d="M157.379 102.201L151.977 101.034L157.219 100.599L158.317 100.828L158.02 102.338L157.379 102.201Z" fill="#35375B"/>
<path fill-rule="evenodd" clip-rule="evenodd" d="M96.418 432.139L87.7422 430.263L127.619 215.338L129.679 209.526H128.718L137.119 164.203H142.453V154.845H138.859L149.068 99.7527L156.325 101.308L157.515 101.56L96.418 432.139Z" fill="#E3E3E3"/>
<path fill-rule="evenodd" clip-rule="evenodd" d="M96.2822 432.757L86.9883 430.766C91.0401 408.871 128.193 210.167 127.941 210.167C130.81 194.624 133.694 179.089 136.594 163.562H141.928V155.577H138.082C141.561 136.679 145.056 117.819 148.566 98.9976L158.272 101.08C137.716 211.662 117.274 322.243 96.9461 432.825L96.2822 432.665V432.757ZM88.4762 429.76L95.9159 431.361L156.761 102.063L149.596 100.53L139.639 154.205H143.095V164.843H137.647L129.498 208.863L128.193 215.498L88.4762 429.76Z" fill="#35375B"/>
<path fill-rule="evenodd" clip-rule="evenodd" d="M142.455 164.203H137.121L138.861 154.845H142.455V164.203Z" fill="#D7D7D7"/>
<path fill-rule="evenodd" clip-rule="evenodd" d="M142.452 164.843H136.34L138.309 154.205H143.093V164.843H142.452ZM137.874 163.562H141.925V155.577H139.384L137.874 163.562Z" fill="#35375B"/>
<path fill-rule="evenodd" clip-rule="evenodd" d="M75.4711 100.759L153.577 93.1633L152.112 112.45L71.9688 117.415L75.4711 100.759Z" fill="white"/>
<path fill-rule="evenodd" clip-rule="evenodd" d="M75.4029 100.119L154.287 92.4541L152.73 113.045L71.168 118.124C72.4041 112.13 73.6631 106.159 74.9451 100.164H75.4029V100.119ZM152.868 93.804L75.9981 101.354L72.7704 116.683L151.517 111.787L152.868 93.804Z" fill="#35375B"/>
<path fill-rule="evenodd" clip-rule="evenodd" d="M151.815 92.866L167.61 94.6277L171.136 112.153H150.945L151.815 92.866Z" fill="#E3E3E3"/>
<path fill-rule="evenodd" clip-rule="evenodd" d="M151.884 92.2253L168.159 94.0328L171.914 112.816H150.281L151.197 92.2253H151.884ZM167.106 95.2225L152.479 93.5981L151.678 111.512H170.38L167.106 95.2225Z" fill="#35375B"/>
<path fill-rule="evenodd" clip-rule="evenodd" d="M334.214 147.661C329.933 160.771 306.584 183.421 303.356 185.663C303.356 185.663 297.931 176.512 299.007 171.547C299.9 167.429 308.987 152.672 312.101 145.419L312.536 144.367C312.899 143.584 313.101 142.736 313.131 141.873C312.971 140.294 308.026 136.474 302.28 131.943C294.795 126.018 285.959 118.925 284.539 114.006C281.999 105.335 273.094 70.948 273.094 70.948C273.094 70.948 294.909 75.6611 301.067 81.0834C307.225 86.5057 333.664 131.738 334.74 143.337C334.856 144.799 334.677 146.27 334.214 147.661Z" fill="#35375B"/>
<path fill-rule="evenodd" clip-rule="evenodd" d="M334.215 147.661C329.935 160.771 306.585 183.421 303.358 185.663C303.358 185.663 297.932 176.512 299.008 171.547C299.947 167.2 309.951 151.116 312.537 144.367C319.929 143.024 327.557 144.183 334.215 147.661Z" fill="#FFA17A"/>
<path fill-rule="evenodd" clip-rule="evenodd" d="M273.14 67.9049V70.5818C273.14 70.5818 273.873 78.9326 263.572 80.1681C253.27 81.4035 245.533 77.6514 245.808 71.1995C246.828 66.8301 247.487 62.3842 247.777 57.9068C247.803 56.2291 247.68 54.5523 247.41 52.8963L267.349 52.5073L273.232 53.4682L273.14 67.9049Z" fill="#FFA17A"/>
<path fill-rule="evenodd" clip-rule="evenodd" d="M273.211 53.4682V67.9049C270.962 68.9598 268.508 69.5066 266.023 69.5064C256.867 69.5064 250.915 62.78 247.71 57.9068C247.736 56.2291 247.614 54.5523 247.344 52.8963L267.282 52.5073L273.211 53.4682Z" fill="#35375B"/>
<path fill-rule="evenodd" clip-rule="evenodd" d="M305.347 202.777C294.176 208.487 281.769 211.355 269.224 211.128C261.954 211.073 254.696 210.523 247.5 209.48C230.378 206.941 221.725 202.159 221.793 200.329C221.862 198.498 221.977 193.465 222.16 191.177C224.884 159.787 223.487 135.375 227.15 117.049L227.287 116.386C232.14 93.0718 239.74 79.7791 243.494 74.1738C244.178 73.1307 244.943 72.1437 245.784 71.2224C245.784 75.5694 254.94 79.3444 262.609 78.8411C268.973 78.4293 273.116 73.5789 273.116 70.9707C273.642 70.9707 301.845 90.5551 301.868 108.744C301.959 190.285 306.904 202.8 305.347 202.777Z" fill="#FC4C00"/>
<path fill-rule="evenodd" clip-rule="evenodd" d="M247.547 209.229C247.547 209.229 247.547 209.412 247.547 209.48C230.425 206.941 221.772 202.159 221.84 200.329C221.909 198.498 222.023 193.465 222.207 191.177C224.931 159.787 223.534 135.375 227.197 117.049C236.147 129.038 254.621 160.496 247.547 209.229Z" fill="#FC4C00"/>
<path fill-rule="evenodd" clip-rule="evenodd" d="M221.796 200.42C228.663 209.229 264.145 214.445 268.174 214.491C284.839 214.674 307.707 203.555 312.927 201.107C312.629 195.936 307.685 181.751 301.824 107.714C301.824 106.82 301.471 105.963 300.84 105.328C300.21 104.694 299.354 104.334 298.459 104.328H248.098C246.969 104.331 245.852 104.558 244.811 104.995C243.77 105.433 242.826 106.072 242.034 106.876C241.243 107.681 240.618 108.634 240.197 109.681C239.776 110.728 239.567 111.848 239.582 112.977C239.742 120.631 239.252 128.284 238.117 135.856C236.309 147.021 232.417 157.453 224.383 159.947L223.764 161.32C223.764 163.333 223.604 165.392 223.513 167.474V168.756C223.513 169.007 223.513 169.236 223.513 169.488V170.769C223.513 171.478 223.513 172.188 223.513 172.897V174.59C223.513 175.688 223.513 176.878 223.33 177.884V178.96C223.33 180.401 223.124 181.843 223.032 183.307C223.032 183.764 223.032 184.222 223.032 184.68C223.032 185.137 223.032 185.114 223.032 185.343L222.895 187.059C222.895 187.677 222.78 188.294 222.734 188.912C222.048 190.033 221.704 200.329 221.796 200.42Z" fill="#35375B"/>
<path fill-rule="evenodd" clip-rule="evenodd" d="M294.477 170.197L292.188 177.862L289.899 185.457L190.504 155.577C190.34 155.628 190.165 155.628 190.001 155.577C189.858 155.55 189.724 155.487 189.611 155.394C188.352 154.502 188.124 151.253 189.108 147.616C189.151 147.407 189.204 147.201 189.268 146.998C190.436 143.063 192.542 140.134 194.167 140.134C194.294 140.1 194.429 140.1 194.556 140.134C194.689 140.172 194.813 140.234 194.922 140.317L294.477 170.197Z" fill="white"/>
<path fill-rule="evenodd" clip-rule="evenodd" d="M292.188 177.862L289.899 185.457L190.504 155.577C190.34 155.628 190.165 155.628 190.001 155.577C189.858 155.55 189.724 155.487 189.611 155.394C188.352 154.502 188.124 151.253 189.108 147.615C193.16 150.658 212.572 164.134 245.696 170.678C280.01 177.427 290.723 177.839 292.188 177.862Z" fill="#E3E3E3"/>
<path fill-rule="evenodd" clip-rule="evenodd" d="M294.681 170.174C293.01 169.671 290.652 172.737 289.393 177.038C288.134 181.339 288.454 185.137 290.125 185.618C291.796 186.098 294.154 183.055 295.413 178.754C296.672 174.453 296.329 170.655 294.681 170.174Z" fill="#E3E3E3"/>
<path fill-rule="evenodd" clip-rule="evenodd" d="M195.72 137.503L184 135.604C183.888 135.535 183.764 135.488 183.634 135.467H183.245C181.619 135.718 179.925 138.876 179.284 142.925C179.272 143.139 179.272 143.353 179.284 143.566C179.041 145.151 179.041 146.763 179.284 148.348C179.318 148.894 179.463 149.428 179.711 149.916C179.959 150.403 180.305 150.835 180.726 151.185C180.855 151.254 180.994 151.3 181.138 151.322H181.551L283.99 167.932L285.272 160.108L286.554 152.214L195.72 137.503Z" fill="white"/>
<path fill-rule="evenodd" clip-rule="evenodd" d="M238.321 159.032C216.391 157.614 204.785 146.037 195.72 137.503L184 135.604C183.888 135.535 183.764 135.488 183.634 135.467H183.245C181.619 135.718 179.925 138.876 179.284 142.925C179.272 143.139 179.272 143.353 179.284 143.566C179.041 145.151 179.041 146.763 179.284 148.348C179.555 149.386 180.047 150.354 180.726 151.185C180.855 151.254 180.994 151.3 181.138 151.322H181.551L283.99 167.932L285.272 160.108C283.692 160.313 273.139 161.274 238.321 159.032Z" fill="#E3E3E3"/>
<path fill-rule="evenodd" clip-rule="evenodd" d="M286.74 152.168C285.023 151.894 283.077 155.234 282.39 159.604C281.704 163.974 282.528 167.772 284.245 168.024C285.961 168.275 287.884 164.981 288.594 160.588C289.304 156.195 288.434 152.42 286.74 152.168Z" fill="#E3E3E3"/>
<path fill-rule="evenodd" clip-rule="evenodd" d="M250.271 182.3C233.705 179.852 217.963 173.491 204.35 163.745C202.061 162.098 201.031 161.068 201.031 161.068C188.853 135.467 210.897 90.6238 214.926 83.005C219.253 74.8143 245.784 71.1995 245.784 71.1995C242.855 80.5389 240.884 90.1518 239.901 99.8898C238.253 116.134 220.58 147.798 221.313 150.452C222.848 152.081 224.693 153.387 226.738 154.296C235.895 159.535 253.773 168.023 254.872 169.991C256.383 172.645 250.271 182.3 250.271 182.3Z" fill="#FFA17A"/>
<path fill-rule="evenodd" clip-rule="evenodd" d="M254.875 169.991C254.875 169.991 271.608 171.89 275.774 174.361C278.064 175.665 267.969 177.701 269.09 178.434C272.364 180.721 276.759 181.088 281.337 183.009C281.337 185.297 274.47 187.15 268.724 188.981C262.978 190.811 250.273 182.415 250.273 182.415L254.875 169.991Z" fill="#FFA17A"/>
<path fill-rule="evenodd" clip-rule="evenodd" d="M239.901 99.8898C238.253 116.134 220.58 147.798 221.313 150.452C222.848 152.081 224.693 153.387 226.738 154.296C226.54 154.308 226.341 154.308 226.143 154.296C212.248 153.701 205.976 161.366 204.35 163.745C202.061 162.098 201.031 161.068 201.031 161.068C188.853 135.467 210.897 90.6238 214.926 83.005C219.253 74.8143 245.784 71.1995 245.784 71.1995C242.855 80.5389 240.884 90.1518 239.901 99.8898Z" fill="#35375B"/>
<path fill-rule="evenodd" clip-rule="evenodd" d="M274.376 60.4922C274.376 60.4922 248.829 65.64 245.854 49.6933C242.878 33.7466 237.59 23.6798 253.774 19.7218C269.958 15.7637 274.376 21.2546 276.665 26.3338C278.955 31.4129 280.946 58.7305 274.376 60.4922Z" fill="#FFA17A"/>
<path fill-rule="evenodd" clip-rule="evenodd" d="M246.38 54.292C243.866 48.9232 240.797 43.8317 237.224 39.1003C233.103 34.4101 235.347 11.0278 253.248 11.7828C271.149 12.5378 277.398 25.2585 277.581 27.7981C277.765 30.3377 263.366 28.3472 259.429 31.5274C255.491 34.7076 259.245 39.9469 254.85 41.8229C250.455 43.699 246.792 43.699 247.548 47.8172C247.975 50.0455 247.559 52.353 246.38 54.292Z" fill="#35375B"/>
<path fill-rule="evenodd" clip-rule="evenodd" d="M251.805 0.915212C247.487 1.88732 243.462 3.87131 240.061 6.70361L239.237 7.43574C228.684 17.5025 232.896 33.495 232.896 33.495C233.515 35.4192 234.28 37.2931 235.186 39.1003C236.147 40.679 250.134 38.8486 250.866 35.8515C251.655 33.5908 252.893 31.5129 254.506 29.7428L270.255 28.6446C274.62 27.8206 278.914 26.6578 283.097 25.167C283.006 24.1145 277.649 -5.55955 251.805 0.915212Z" fill="#FC4C00"/>
<path fill-rule="evenodd" clip-rule="evenodd" d="M291.843 21.9182C288.636 21.2319 285.37 20.864 282.091 20.82C278.31 23.5644 274.081 25.6314 269.592 26.9287C265.701 22.0097 254.576 10.1583 240.108 6.70361H239.971C239.673 7.09256 239.49 7.22983 239.284 7.4815L239.078 7.77893C250.867 9.81516 261.97 23.0621 265.907 28.004C262.148 28.9072 258.319 29.489 254.461 29.7428C254.461 29.7428 280.26 30.2233 292.049 24.023C292.259 23.925 292.434 23.7641 292.549 23.5626C292.664 23.361 292.714 23.1287 292.692 22.8977C292.669 22.6667 292.575 22.4484 292.423 22.273C292.271 22.0975 292.068 21.9736 291.843 21.9182Z" fill="#35375B"/>
<path fill-rule="evenodd" clip-rule="evenodd" d="M223.97 152.466C223.97 152.466 206.229 151.002 200.438 161.32C200.474 161.766 200.614 162.198 200.848 162.58C201.081 162.962 201.401 163.285 201.782 163.52C202.163 163.756 202.594 163.9 203.04 163.939C203.487 163.978 203.936 163.911 204.352 163.745C204.352 163.745 219.369 153.495 226.74 154.296C226.437 153.81 226.033 153.395 225.555 153.079C225.077 152.763 224.536 152.554 223.97 152.466Z" fill="#FC4C00"/>
<path fill-rule="evenodd" clip-rule="evenodd" d="M312.012 145.419C319.197 146.055 326.224 147.896 332.797 150.864C332.797 150.864 335.384 148.325 334.354 146.883C333.324 145.442 317.002 140.226 312.012 145.419Z" fill="#FC4C00"/>
<g style="mix-blend-mode:multiply">
<path fill-rule="evenodd" clip-rule="evenodd" d="M271.033 47.863C271.712 47.986 272.41 47.9469 273.07 47.7487C273.397 47.6427 273.705 47.4885 273.986 47.2911C273.986 47.2911 274.146 47.2911 274.146 47.1309C274.094 46.9387 274.017 46.7541 273.917 46.5818C273.273 45.1465 272.507 43.7688 271.628 42.4636C271.52 42.349 271.46 42.1976 271.46 42.0403C271.46 41.883 271.52 41.7316 271.628 41.6171C271.683 41.561 271.749 41.5165 271.822 41.4862C271.895 41.4558 271.973 41.4402 272.052 41.4402C272.13 41.4402 272.208 41.4558 272.281 41.4862C272.354 41.5165 272.42 41.561 272.475 41.6171C273.024 42.4407 273.528 43.2872 274.009 44.1566L274.627 45.415C274.86 45.8536 275.052 46.3132 275.199 46.7877C275.451 47.8402 274.398 48.4579 273.574 48.7553C272.691 49.0892 271.733 49.1762 270.804 49.007C270.646 48.9844 270.503 48.904 270.401 48.7813C270.3 48.6586 270.247 48.5026 270.255 48.3435C270.27 48.2589 270.304 48.1785 270.352 48.1075C270.401 48.0365 270.464 47.9764 270.537 47.9312C270.611 47.8859 270.693 47.8565 270.778 47.8448C270.863 47.833 270.95 47.8393 271.033 47.863Z" fill="#4E54CB"/>
</g>
<path fill-rule="evenodd" clip-rule="evenodd" d="M262.655 40.496C262.655 41.6171 263.41 42.4865 264.189 42.4636C264.967 42.4407 265.516 41.5027 265.448 40.3816C265.379 39.2605 264.692 38.3911 263.937 38.414C263.181 38.4369 262.609 39.3749 262.655 40.496Z" fill="#35375B"/>
<path fill-rule="evenodd" clip-rule="evenodd" d="M275.088 39.7409C275.088 40.862 275.82 41.7314 276.598 41.7085C277.377 41.6856 277.926 40.7476 277.857 39.6265C277.789 38.5054 277.102 37.636 276.347 37.6589C275.591 37.6818 275.019 38.6198 275.088 39.7409Z" fill="#35375B"/>
<g style="mix-blend-mode:multiply">
<path fill-rule="evenodd" clip-rule="evenodd" d="M274.696 52.7819C272.847 53.2393 270.914 53.2393 269.065 52.7819C268.34 52.5581 267.673 52.1806 267.108 51.6752C266.543 51.1698 266.094 50.5483 265.791 49.8534C265.516 49.1212 264.349 49.4873 264.624 50.2423C264.962 51.0706 265.472 51.8184 266.119 52.4372C266.765 53.0561 267.535 53.5321 268.378 53.8343C270.448 54.4735 272.647 54.5681 274.764 54.1089C274.926 54.0871 275.075 54.0084 275.184 53.8868C275.294 53.7652 275.356 53.6087 275.36 53.4454C275.363 53.3574 275.348 53.2697 275.316 53.1877C275.283 53.1058 275.235 53.0314 275.172 52.9691C275.11 52.9068 275.036 52.8581 274.954 52.8259C274.872 52.7937 274.784 52.7787 274.696 52.7819Z" fill="#4E54CB"/>
</g>
<path fill-rule="evenodd" clip-rule="evenodd" d="M278.084 34.982C278.274 34.968 278.453 34.8869 278.588 34.7533C278.654 34.687 278.706 34.6085 278.741 34.5221C278.777 34.4357 278.795 34.3432 278.794 34.2499C278.787 34.0587 278.704 33.878 278.565 33.7466C278.499 33.6808 278.42 33.6288 278.334 33.5935C278.247 33.5581 278.155 33.5402 278.062 33.5407L272.407 33.1517C272.317 33.1294 272.223 33.1294 272.133 33.1517C272.038 33.1744 271.951 33.2218 271.881 33.289C271.815 33.3471 271.761 33.417 271.721 33.4949C271.7 33.5853 271.7 33.6791 271.721 33.7695C271.697 33.8672 271.697 33.9691 271.721 34.0669L271.858 34.2957C271.924 34.3689 272.001 34.4307 272.087 34.4787C272.177 34.4993 272.271 34.4993 272.362 34.4787L278.107 34.8677L278.084 34.982Z" fill="#35375B"/>
<path fill-rule="evenodd" clip-rule="evenodd" d="M261.741 35.7142L268.471 34.9134C268.713 34.8795 268.933 34.7572 269.089 34.5702C269.167 34.4752 269.223 34.3649 269.254 34.2466C269.286 34.1283 269.292 34.0047 269.273 33.8839C269.265 33.7601 269.231 33.6393 269.173 33.5293C269.116 33.4192 269.036 33.3224 268.939 33.2448C268.842 33.1673 268.73 33.1109 268.61 33.0791C268.49 33.0473 268.365 33.0409 268.242 33.0602L261.512 33.861C261.394 33.8953 261.284 33.9537 261.19 34.0324C261.095 34.1112 261.018 34.2086 260.963 34.3186C260.814 34.5136 260.747 34.7595 260.777 35.0034C260.806 35.2472 260.931 35.4696 261.123 35.6227C261.218 35.7014 261.328 35.7602 261.446 35.7956C261.564 35.831 261.688 35.8422 261.81 35.8286L261.741 35.7142Z" fill="#35375B"/>
<path fill-rule="evenodd" clip-rule="evenodd" d="M240.016 72.1833C240.016 72.1833 254.758 89.3426 255.628 104.328H248.142C246.332 93.0707 241.867 82.4051 235.117 73.2129L240.016 72.1833Z" fill="#35375B"/>
<path fill-rule="evenodd" clip-rule="evenodd" d="M276.664 72.1377C283.009 81.8217 287.035 92.8371 288.43 104.328H295.916C295.298 92.5458 288.041 80.0767 283.852 73.8765C281.151 73.213 278.587 72.5266 276.664 72.1377Z" fill="#35375B"/>
<path fill-rule="evenodd" clip-rule="evenodd" d="M286.555 390.614L293.239 433.924C293.431 435.086 294.022 436.146 294.91 436.921C295.795 437.701 296.935 438.132 298.115 438.133H344.31C344.995 438.157 345.674 437.999 346.278 437.676C346.888 437.362 347.414 436.907 347.812 436.349C348.218 435.788 348.478 435.136 348.568 434.45C348.643 433.77 348.565 433.082 348.339 432.437C347.125 429.394 344.081 425.985 336.893 424.406C324.806 421.844 324.761 396.013 325.104 387.228L286.555 390.614Z" fill="#FFA17A"/>
<path fill-rule="evenodd" clip-rule="evenodd" d="M329.958 414.591C328.1 415.391 326.372 416.463 324.83 417.771C324.212 418.274 325.105 419.166 325.7 418.64C327.175 417.421 328.817 416.419 330.576 415.666C331.308 415.346 330.69 414.293 329.958 414.591Z" fill="#35375B"/>
<path fill-rule="evenodd" clip-rule="evenodd" d="M327.348 409.535C325.438 410.163 323.709 411.246 322.312 412.692C321.762 413.264 322.632 414.156 323.182 413.584C324.448 412.268 326.021 411.286 327.76 410.724C328.515 410.496 328.195 409.283 327.439 409.512L327.348 409.535Z" fill="#35375B"/>
<path fill-rule="evenodd" clip-rule="evenodd" d="M325.768 404.112C324.335 404.59 322.961 405.227 321.67 406.011C321.006 406.446 321.67 407.521 322.311 407.086C323.501 406.355 324.767 405.756 326.088 405.302C326.844 405.05 326.523 403.838 325.768 404.089V404.112Z" fill="#35375B"/>
<path fill-rule="evenodd" clip-rule="evenodd" d="M324.212 420.974L323.937 420.7C323.879 420.645 323.811 420.603 323.736 420.576C323.661 420.548 323.582 420.536 323.502 420.539C323.425 420.541 323.348 420.557 323.277 420.589C323.206 420.62 323.143 420.666 323.09 420.723C322.979 420.832 322.914 420.979 322.907 421.134C322.903 421.214 322.915 421.293 322.943 421.368C322.97 421.443 323.013 421.511 323.067 421.569L323.319 421.844C323.443 421.943 323.595 421.999 323.754 422.004C323.832 422.006 323.909 421.99 323.981 421.959C324.052 421.927 324.115 421.88 324.166 421.821C324.282 421.706 324.348 421.549 324.349 421.386C324.359 421.236 324.31 421.088 324.212 420.974Z" fill="#35375B"/>
<path fill-rule="evenodd" clip-rule="evenodd" d="M319.426 416.238C319.562 416.215 319.685 416.141 319.769 416.032C319.865 415.924 319.921 415.787 319.929 415.643C319.927 415.498 319.877 415.359 319.785 415.246C319.694 415.134 319.567 415.056 319.426 415.025C319.286 415.057 319.159 415.128 319.059 415.231C318.967 415.348 318.918 415.494 318.922 415.643C318.922 415.785 318.97 415.922 319.059 416.032C319.152 416.143 319.283 416.216 319.426 416.238Z" fill="#35375B"/>
<path fill-rule="evenodd" clip-rule="evenodd" d="M317.826 410.587C317.96 410.547 318.08 410.467 318.169 410.358C318.245 410.243 318.285 410.108 318.285 409.969C318.285 409.831 318.245 409.696 318.169 409.58C318.078 409.478 317.959 409.406 317.826 409.375C317.699 409.406 317.586 409.479 317.505 409.58C317.416 409.69 317.367 409.828 317.367 409.969C317.367 410.111 317.416 410.248 317.505 410.358C317.585 410.466 317.697 410.546 317.826 410.587Z" fill="#35375B"/>
<path fill-rule="evenodd" clip-rule="evenodd" d="M227.496 390.614L234.18 433.924C234.339 435.101 234.906 436.186 235.783 436.989C236.668 437.77 237.807 438.201 238.988 438.202H285.183C285.868 438.225 286.547 438.068 287.151 437.744C287.761 437.431 288.287 436.976 288.685 436.417C289.091 435.857 289.35 435.204 289.44 434.518C289.516 433.839 289.437 433.151 289.211 432.505C287.998 429.462 284.954 426.053 277.766 424.475C265.679 421.912 265.633 396.082 265.977 387.296L227.496 390.614Z" fill="#FFA17A"/>
<path fill-rule="evenodd" clip-rule="evenodd" d="M270.899 414.591C269.042 415.391 267.314 416.463 265.771 417.771C265.153 418.274 266.046 419.166 266.641 418.64C268.116 417.421 269.758 416.419 271.517 415.666C272.25 415.346 271.632 414.293 270.899 414.591Z" fill="#35375B"/>
<path fill-rule="evenodd" clip-rule="evenodd" d="M268.289 409.535C266.376 410.157 264.646 411.241 263.253 412.692C262.704 413.264 263.574 414.156 264.123 413.584C265.39 412.268 266.963 411.286 268.701 410.724C269.457 410.496 269.136 409.283 268.381 409.512L268.289 409.535Z" fill="#35375B"/>
<path fill-rule="evenodd" clip-rule="evenodd" d="M266.686 404.112C265.263 404.595 263.896 405.232 262.611 406.011C261.948 406.446 262.611 407.521 263.252 407.086C264.442 406.355 265.709 405.756 267.03 405.302C267.785 405.05 267.464 403.838 266.686 404.089V404.112Z" fill="#35375B"/>
<path fill-rule="evenodd" clip-rule="evenodd" d="M265.153 420.974L264.878 420.7C264.82 420.645 264.752 420.603 264.677 420.576C264.603 420.548 264.523 420.536 264.443 420.539C264.366 420.541 264.29 420.557 264.219 420.589C264.148 420.62 264.084 420.666 264.031 420.723C263.921 420.832 263.855 420.979 263.848 421.134C263.845 421.214 263.857 421.293 263.884 421.368C263.912 421.443 263.954 421.511 264.009 421.569L264.26 421.844C264.384 421.943 264.537 421.999 264.695 422.004C264.773 422.006 264.851 421.99 264.922 421.959C264.993 421.927 265.057 421.88 265.107 421.821C265.224 421.706 265.289 421.549 265.291 421.386C265.301 421.236 265.251 421.088 265.153 420.974Z" fill="#35375B"/>
<path fill-rule="evenodd" clip-rule="evenodd" d="M260.367 416.238C260.503 416.215 260.626 416.141 260.71 416.032C260.806 415.924 260.863 415.787 260.871 415.643C260.869 415.498 260.818 415.359 260.727 415.246C260.635 415.134 260.508 415.056 260.367 415.025C260.227 415.057 260.1 415.128 260.001 415.231C259.908 415.348 259.86 415.494 259.863 415.643C259.863 415.785 259.912 415.922 260.001 416.032C260.094 416.143 260.224 416.216 260.367 416.238Z" fill="#35375B"/>
<path fill-rule="evenodd" clip-rule="evenodd" d="M258.673 410.587C258.808 410.547 258.927 410.467 259.017 410.358C259.092 410.243 259.133 410.108 259.133 409.969C259.133 409.831 259.092 409.696 259.017 409.58C258.926 409.478 258.806 409.406 258.673 409.375C258.544 409.401 258.43 409.474 258.353 409.58C258.264 409.69 258.215 409.828 258.215 409.969C258.215 410.111 258.264 410.248 258.353 410.358C258.428 410.472 258.542 410.553 258.673 410.587Z" fill="#35375B"/>
<path fill-rule="evenodd" clip-rule="evenodd" d="M271.812 309.416C272.347 312.207 272.729 315.025 272.957 317.858C274.399 346.16 281.152 410.862 285.158 412.372C292.758 415.232 350.856 402.534 348.59 392.147C338.953 347.876 324.394 227.417 311.964 198.453C311.964 198.453 249.264 183.902 248.944 202.319C248.554 218.609 266.936 282.533 271.812 309.416Z" fill="#35375B"/>
<path fill-rule="evenodd" clip-rule="evenodd" d="M283.854 202.388L270.119 301.706V413.012C270.119 413.012 213.05 414.522 203.207 412.074C203.207 412.074 217.629 307.242 218.315 280.36C219.002 253.477 218.636 202.045 226.236 197.08C233.836 192.115 283.854 202.388 283.854 202.388Z" fill="#35375B"/>
<path fill-rule="evenodd" clip-rule="evenodd" d="M281.566 250.663C281.571 250.579 281.593 250.498 281.632 250.424C281.671 250.35 281.726 250.286 281.793 250.236C281.86 250.185 281.936 250.15 282.018 250.133C282.1 250.115 282.184 250.116 282.266 250.134C282.347 250.153 282.424 250.189 282.489 250.241C282.555 250.292 282.609 250.357 282.647 250.431C282.685 250.506 282.707 250.587 282.71 250.671C282.713 250.754 282.698 250.837 282.665 250.914L270.785 301.843C270.742 301.985 270.648 302.105 270.521 302.182C270.394 302.258 270.243 302.284 270.098 302.255C270.024 302.239 269.954 302.208 269.892 302.165C269.83 302.121 269.778 302.066 269.737 302.002C269.697 301.938 269.669 301.867 269.657 301.793C269.644 301.718 269.646 301.642 269.663 301.568L281.566 250.663Z" fill="white"/>
<defs>
<linearGradient id="paint0_linear_298_3939" x1="2.56506" y1="421.546" x2="69.373" y2="283.74" gradientUnits="userSpaceOnUse">
<stop stop-color="#234395"/>
<stop offset="0.22" stop-color="#234395"/>
<stop offset="1" stop-color="#060214"/>
</linearGradient>
<linearGradient id="paint1_linear_298_3939" x1="51.6182" y1="318.412" x2="166.069" y2="82.3395" gradientUnits="userSpaceOnUse">
<stop stop-color="#3E87C8"/>
<stop offset="0.22" stop-color="#3E87C8"/>
<stop offset="1" stop-color="#000F21"/>
</linearGradient>
</defs>
</svg>
