<svg width="509" height="529" viewBox="0 0 509 529" fill="none" xmlns="http://www.w3.org/2000/svg">
<path fill-rule="evenodd" clip-rule="evenodd" d="M287.518 228.879L309.211 225.983C309.211 225.983 306.227 199.04 292.319 201.577C278.411 204.114 287.518 228.879 287.518 228.879Z" fill="#FFA17A"/>
<path fill-rule="evenodd" clip-rule="evenodd" d="M310.602 203.8L307.125 222.278C306.564 225.22 301.943 224.524 302.481 221.627L305.981 203.171C306.519 200.23 311.163 200.926 310.602 203.823V203.8Z" fill="#FFA17A"/>
<path fill-rule="evenodd" clip-rule="evenodd" d="M281.505 204.608C283.749 208.942 286.463 213.32 288.235 217.765C288.413 218.204 288.413 218.696 288.235 219.135C288.146 219.352 288.015 219.549 287.849 219.714C287.684 219.88 287.487 220.011 287.271 220.1C287.057 220.189 286.829 220.235 286.598 220.235C286.367 220.235 286.138 220.189 285.925 220.1C285.491 219.914 285.146 219.569 284.96 219.135C283.12 214.644 280.271 210.289 278.23 205.955C277.221 203.935 280.406 202.61 281.505 204.608Z" fill="#FFA17A"/>
<path fill-rule="evenodd" clip-rule="evenodd" d="M285.524 197.356C286.5 201.286 288.01 205.063 290.01 208.582C291.109 210.558 287.767 211.883 286.735 209.952C284.606 206.14 283.013 202.053 282.002 197.805C281.463 195.56 284.94 195.178 285.479 197.379L285.524 197.356Z" fill="#FFA17A"/>
<path fill-rule="evenodd" clip-rule="evenodd" d="M291.624 205.506C290.005 201.466 288.671 197.317 287.631 193.09C287.092 190.845 290.569 190.486 291.108 192.664C292.095 196.591 293.347 200.446 294.854 204.204C295.032 204.643 295.032 205.135 294.854 205.574C294.667 206.02 294.313 206.375 293.867 206.562C293.428 206.74 292.937 206.74 292.499 206.562C292.285 206.472 292.091 206.341 291.929 206.175C291.768 206.009 291.641 205.812 291.556 205.596L291.624 205.506Z" fill="#FFA17A"/>
<path fill-rule="evenodd" clip-rule="evenodd" d="M298.803 191.025C299.468 197.839 301.433 204.462 304.591 210.536C305.511 212.601 302.348 213.949 301.316 211.905C298.422 205.417 295.528 198.636 295.281 191.496C295.281 189.251 298.691 188.802 298.781 191.047L298.803 191.025Z" fill="#FFA17A"/>
<path fill-rule="evenodd" clip-rule="evenodd" d="M303.896 211.434C303.95 211.352 303.987 211.259 304.005 211.163C304.023 211.066 304.022 210.967 304.001 210.87C303.98 210.774 303.94 210.683 303.884 210.603C303.827 210.522 303.755 210.454 303.672 210.401C303.593 210.347 303.504 210.309 303.41 210.289C303.316 210.27 303.219 210.27 303.125 210.289C303.031 210.307 302.941 210.345 302.862 210.399C302.782 210.453 302.715 210.522 302.663 210.603C301.885 211.755 301.35 213.054 301.092 214.42C300.823 215.776 300.823 217.172 301.092 218.529C301.102 218.633 301.134 218.734 301.186 218.826C301.238 218.917 301.308 218.996 301.393 219.058C301.477 219.12 301.574 219.163 301.677 219.184C301.779 219.206 301.885 219.206 301.988 219.183C302.09 219.161 302.186 219.117 302.271 219.054C302.355 218.992 302.425 218.912 302.476 218.821C302.527 218.729 302.558 218.628 302.567 218.523C302.576 218.419 302.563 218.313 302.528 218.214C302.295 217.051 302.295 215.853 302.528 214.689C302.752 213.52 303.218 212.411 303.896 211.434Z" fill="#35375B"/>
<path fill-rule="evenodd" clip-rule="evenodd" d="M409.757 290.219C411.323 286.503 412.13 282.51 412.13 278.477C412.13 274.443 411.323 270.451 409.757 266.734C409.757 266.734 409.757 266.577 409.757 266.487C405.431 255.52 403.282 243.813 403.431 232.023C403.601 223.001 402.59 213.996 400.425 205.237C399.169 199.895 397.088 194.782 394.256 190.082C393.159 188.311 391.84 186.689 390.331 185.254C387.628 182.437 384.316 180.277 380.65 178.94C376.983 177.603 373.059 177.126 369.179 177.545C365.299 177.963 361.566 179.266 358.268 181.354C354.97 183.442 352.194 186.258 350.153 189.588C347.389 194.346 345.376 199.504 344.186 204.878C341.863 214.993 341.032 225.394 341.719 235.75C342.287 246.332 340.414 256.903 336.245 266.644C336.021 267.161 335.819 267.677 335.617 268.193C334.116 271.94 333.376 275.949 333.441 279.986C333.507 284.022 334.376 288.005 335.998 291.701C337.412 294.53 339.386 296.977 341.001 299.672C342.787 302.326 343.748 305.452 343.76 308.653C343.581 311.886 341.517 315.164 338.645 315.59C340.199 316.112 341.87 316.177 343.46 315.779C345.05 315.382 346.493 314.537 347.619 313.345C348.449 316.267 349.577 319.096 350.983 321.787L350.467 322.169H351.163C355.507 330.569 362.649 337.185 371.352 340.872C368.654 337.142 367.302 332.606 367.516 328.006C369.404 327.311 371.14 326.259 372.631 324.908C374.343 326.635 376.42 327.955 378.71 328.77C378.637 332.797 377.355 336.708 375.031 339.996C383.078 336.435 389.742 330.34 394.01 322.64C394.57 322.64 395.109 322.64 395.647 322.64C395.244 322.368 394.854 322.076 394.481 321.765C396.164 318.702 397.467 315.444 398.362 312.065C399.51 313.222 400.963 314.029 402.552 314.391C404.14 314.752 405.799 314.655 407.335 314.108C404.441 313.749 402.355 310.494 402.13 307.261C402.107 304.071 403.028 300.946 404.777 298.28C406.437 295.563 408.277 293.093 409.757 290.219Z" fill="#35375B"/>
<path fill-rule="evenodd" clip-rule="evenodd" d="M476.966 325.559C494.486 321.765 509 347.046 509 347.046C509 347.046 481.161 410.541 420.211 416.11C359.261 421.678 290.953 420.465 290.953 420.465L341.629 249.625H395.266C402.893 272.257 424.428 388.134 476.966 325.559Z" fill="#F4F1F1"/>
<path fill-rule="evenodd" clip-rule="evenodd" d="M380.188 470.691L392.705 504.953C393.041 505.874 393.041 506.884 392.705 507.805C392.387 508.753 391.733 509.552 390.866 510.05L357.217 528.618C356.71 528.886 356.151 529.04 355.579 529.067C355.012 529.085 354.449 528.961 353.941 528.708C353.423 528.465 352.975 528.094 352.64 527.63C352.302 527.174 352.079 526.642 351.99 526.081C351.653 523.364 352.483 519.66 357.149 515.596C364.911 508.86 354.592 490.023 350.801 483.736L380.188 470.691Z" fill="#FFA17A"/>
<path fill-rule="evenodd" clip-rule="evenodd" d="M358.227 505.605C359.898 505.448 361.584 505.539 363.229 505.874C363.88 506.009 363.588 506.997 362.937 506.862C361.38 506.551 359.784 506.476 358.204 506.637C357.531 506.705 357.576 505.672 358.227 505.605Z" fill="#35375B"/>
<path fill-rule="evenodd" clip-rule="evenodd" d="M358.068 500.822C359.713 500.514 361.407 500.614 363.004 501.114C363.126 501.16 363.226 501.251 363.284 501.367C363.342 501.484 363.354 501.619 363.317 501.744C363.28 501.869 363.197 501.976 363.085 502.042C362.973 502.108 362.839 502.13 362.712 502.102C361.262 501.642 359.72 501.55 358.225 501.833C357.597 501.967 357.351 500.957 357.979 500.822H358.068Z" fill="#35375B"/>
<path fill-rule="evenodd" clip-rule="evenodd" d="M357.062 496.197C358.298 495.973 359.554 495.882 360.809 495.928C361.459 495.928 361.414 497.028 360.809 496.983C359.645 496.911 358.477 496.987 357.332 497.207C356.681 497.207 356.434 496.309 357.085 496.175L357.062 496.197Z" fill="#35375B"/>
<path fill-rule="evenodd" clip-rule="evenodd" d="M364.935 507.872V507.558C364.952 507.494 364.983 507.435 365.026 507.384C365.068 507.334 365.122 507.294 365.182 507.266C365.305 507.222 365.44 507.222 365.563 507.266C365.624 507.282 365.682 507.31 365.732 507.349C365.782 507.387 365.824 507.436 365.855 507.491C365.899 507.614 365.899 507.749 365.855 507.872V508.164C365.811 508.288 365.723 508.392 365.608 508.456C365.489 508.521 365.349 508.535 365.219 508.498C365.089 508.46 364.979 508.372 364.912 508.254C364.884 508.193 364.872 508.127 364.876 508.06C364.88 507.994 364.9 507.929 364.935 507.872Z" fill="#35375B"/>
<path fill-rule="evenodd" clip-rule="evenodd" d="M366.549 502.574C366.441 502.617 366.32 502.617 366.212 502.574C366.104 502.525 366.011 502.447 365.943 502.349C365.91 502.232 365.91 502.107 365.943 501.99C365.959 501.877 366.014 501.773 366.1 501.698C366.216 501.653 366.344 501.653 366.459 501.698C366.514 501.716 366.564 501.745 366.607 501.783C366.649 501.822 366.683 501.87 366.706 501.922C366.75 502.03 366.75 502.151 366.706 502.259C366.694 502.38 366.638 502.492 366.549 502.574Z" fill="#35375B"/>
<path fill-rule="evenodd" clip-rule="evenodd" d="M365.428 497.814C365.326 497.848 365.216 497.848 365.114 497.814C365.008 497.77 364.921 497.69 364.867 497.589C364.826 497.481 364.826 497.361 364.867 497.252C364.882 497.139 364.938 497.036 365.024 496.961C365.134 496.928 365.251 496.928 365.361 496.961C365.456 497.011 365.534 497.089 365.585 497.185C365.626 497.294 365.626 497.413 365.585 497.522C365.57 497.635 365.514 497.739 365.428 497.814Z" fill="#35375B"/>
<path fill-rule="evenodd" clip-rule="evenodd" d="M444.93 376.616L482.796 363.144C483.809 362.766 484.924 362.766 485.937 363.144C486.961 363.518 487.814 364.252 488.337 365.21L508.527 402.503C508.829 403.054 508.991 403.671 508.998 404.3C509.022 404.93 508.883 405.557 508.594 406.118C508.319 406.68 507.91 407.165 507.405 407.533C506.893 407.903 506.301 408.149 505.678 408.251C502.694 408.588 498.611 407.645 494.17 402.458C486.812 393.814 465.949 405.085 458.995 409.194L444.93 376.616Z" fill="#FFA17A"/>
<path fill-rule="evenodd" clip-rule="evenodd" d="M483.247 401.156C483.071 399.31 483.177 397.447 483.561 395.633C483.718 394.914 484.817 395.251 484.66 395.97C484.301 397.689 484.21 399.454 484.391 401.201C484.548 401.897 483.314 401.897 483.247 401.156Z" fill="#35375B"/>
<path fill-rule="evenodd" clip-rule="evenodd" d="M477.975 401.313C477.636 399.495 477.752 397.621 478.312 395.857C478.536 395.161 479.635 395.476 479.411 396.172C478.897 397.743 478.781 399.417 479.074 401.044C479.086 401.183 479.048 401.322 478.966 401.435C478.885 401.549 478.765 401.629 478.629 401.662C478.494 401.694 478.351 401.677 478.226 401.613C478.102 401.549 478.005 401.443 477.953 401.313H477.975Z" fill="#35375B"/>
<path fill-rule="evenodd" clip-rule="evenodd" d="M472.949 402.369C472.711 401.006 472.628 399.62 472.702 398.238C472.702 397.497 473.914 397.564 473.846 398.238C473.764 399.529 473.839 400.826 474.071 402.099C474.071 402.818 473.061 403.065 472.927 402.346L472.949 402.369Z" fill="#35375B"/>
<path fill-rule="evenodd" clip-rule="evenodd" d="M485.779 393.792H485.442C485.31 393.74 485.199 393.645 485.128 393.523C485.072 393.386 485.072 393.233 485.128 393.096C485.143 393.026 485.173 392.959 485.216 392.901C485.258 392.843 485.312 392.795 485.375 392.759C485.511 392.703 485.664 392.703 485.801 392.759H486.115C486.183 392.781 486.245 392.816 486.299 392.862C486.353 392.909 486.397 392.965 486.429 393.029C486.465 393.093 486.487 393.165 486.495 393.238C486.503 393.312 486.496 393.386 486.476 393.457C486.455 393.528 486.42 393.594 486.374 393.651C486.327 393.709 486.27 393.757 486.205 393.792C486.067 393.842 485.916 393.842 485.779 393.792Z" fill="#35375B"/>
<path fill-rule="evenodd" clip-rule="evenodd" d="M480.06 391.951C480.088 392.011 480.102 392.076 480.102 392.142C480.102 392.208 480.088 392.273 480.06 392.333C480.01 392.447 479.923 392.542 479.813 392.602C479.69 392.647 479.555 392.647 479.432 392.602C479.298 392.579 479.178 392.507 479.095 392.4C479.062 392.275 479.062 392.143 479.095 392.018C479.146 391.891 479.242 391.787 479.364 391.726C479.482 391.694 479.606 391.694 479.723 391.726C479.86 391.755 479.981 391.835 480.06 391.951Z" fill="#35375B"/>
<path fill-rule="evenodd" clip-rule="evenodd" d="M474.699 393.141C474.744 393.256 474.744 393.384 474.699 393.5C474.633 393.611 474.54 393.704 474.429 393.769C474.314 393.817 474.185 393.817 474.07 393.769C473.951 393.74 473.842 393.678 473.756 393.59C473.711 393.474 473.711 393.346 473.756 393.23C473.822 393.119 473.915 393.027 474.026 392.961C474.141 392.916 474.269 392.916 474.385 392.961C474.504 392.99 474.613 393.052 474.699 393.141Z" fill="#35375B"/>
<path fill-rule="evenodd" clip-rule="evenodd" d="M113.888 272.325L70.7277 255.036C69.4594 254.577 68.0702 254.577 66.8019 255.036C65.5173 255.457 64.4264 256.325 63.7287 257.484L36.8093 302.995C36.4081 303.68 36.1702 304.448 36.1139 305.24C36.0811 306.011 36.227 306.78 36.5401 307.485C36.8593 308.208 37.3526 308.841 37.9758 309.326C38.5929 309.805 39.3162 310.129 40.0845 310.269C43.7859 310.853 48.923 309.865 54.7107 303.534C62.8089 294.732 82.3254 304.14 93.2502 310.561C93.3848 308.473 94.3718 303.444 99.1949 293.452C102.939 285.673 107.899 278.541 113.888 272.325Z" fill="#35375B"/>
<path fill-rule="evenodd" clip-rule="evenodd" d="M68.3973 302.456C68.6928 300.163 68.6399 297.839 68.2403 295.563C68.0833 294.642 66.7149 295.024 66.8719 295.922C67.1972 298.08 67.1972 300.275 66.8719 302.433C66.8495 303.354 68.2627 303.354 68.3973 302.456Z" fill="#35375B"/>
<path fill-rule="evenodd" clip-rule="evenodd" d="M74.9447 302.882C75.4316 300.657 75.3778 298.347 74.7876 296.147C74.5184 295.271 73.15 295.608 73.3968 296.483C73.9601 298.465 74.0218 300.556 73.5763 302.568C73.3744 303.466 74.7428 303.848 74.9671 302.95L74.9447 302.882Z" fill="#35375B"/>
<path fill-rule="evenodd" clip-rule="evenodd" d="M81.1609 304.431C81.516 302.749 81.6815 301.032 81.6544 299.312C81.6544 298.392 80.1739 298.437 80.2187 299.312C80.2597 300.919 80.1091 302.524 79.7701 304.095C79.5906 304.993 80.959 305.374 81.1833 304.476L81.1609 304.431Z" fill="#35375B"/>
<path fill-rule="evenodd" clip-rule="evenodd" d="M65.571 293.138H65.9973C66.1639 293.071 66.3053 292.953 66.401 292.801C66.4672 292.636 66.4672 292.451 66.401 292.285C66.3802 292.196 66.3417 292.113 66.2877 292.039C66.2337 291.966 66.1654 291.904 66.087 291.858C65.9209 291.794 65.7371 291.794 65.571 291.858H65.1448C64.9781 291.925 64.8368 292.043 64.741 292.195C64.6749 292.361 64.6749 292.546 64.741 292.711C64.7618 292.8 64.8004 292.884 64.8544 292.957C64.9084 293.03 64.9766 293.092 65.0551 293.138C65.2207 293.204 65.4054 293.204 65.571 293.138Z" fill="white"/>
<path fill-rule="evenodd" clip-rule="evenodd" d="M72.8823 291.117C72.8363 291.274 72.842 291.442 72.8986 291.596C72.9551 291.749 73.0595 291.881 73.1964 291.97C73.3486 292.025 73.5152 292.025 73.6675 291.97C73.7925 291.969 73.9156 291.939 74.0264 291.881C74.0719 291.727 74.0719 291.563 74.0264 291.409C73.9605 291.254 73.8515 291.122 73.7123 291.027C73.5584 290.983 73.3952 290.983 73.2412 291.027C73.1162 291.028 72.9931 291.059 72.8823 291.117Z" fill="#35375B"/>
<path fill-rule="evenodd" clip-rule="evenodd" d="M79.3886 292.846C79.3444 293 79.3444 293.163 79.3886 293.317C79.4396 293.463 79.5438 293.583 79.6802 293.654C79.8151 293.736 79.9715 293.775 80.1289 293.766C80.2095 293.78 80.2923 293.768 80.3662 293.734C80.4402 293.699 80.5019 293.643 80.5433 293.572C80.5846 293.502 80.6035 293.42 80.5977 293.339C80.5918 293.257 80.5613 293.179 80.5103 293.115C80.4603 292.964 80.3565 292.836 80.2186 292.756C80.0725 292.711 79.9162 292.711 79.77 292.756C79.6149 292.779 79.4682 292.841 79.3438 292.936L79.3886 292.846Z" fill="#35375B"/>
<path fill-rule="evenodd" clip-rule="evenodd" d="M120.733 257.843C123.275 273.709 125.825 289.583 128.383 305.464L84.5937 278.679C78.1214 285.086 72.8083 292.569 68.8908 300.794C62.1609 314.827 62.9461 319.093 62.9461 319.093C109.718 352.502 162.166 386.809 179.462 346.732C257.281 377.2 222.6 287.39 207.436 237.411L120.733 257.843Z" fill="#FC4C00"/>
<path fill-rule="evenodd" clip-rule="evenodd" d="M112.925 270.012L123.087 272.549L128.381 305.464L101.035 288.737L112.925 270.012Z" fill="#FC4C00"/>
<path fill-rule="evenodd" clip-rule="evenodd" d="M140.515 147.871L114.269 167.584C109.446 165.205 61.4174 136.825 56.8635 135.478C52.3097 134.13 31.4023 112.262 31.4023 112.262C31.4023 112.262 29.0469 120.098 25.009 122.702C20.9711 125.307 17.3594 120.771 17.3594 120.771C17.3594 120.771 29.7871 150.161 35.5299 157.526C41.2727 164.89 100.944 213.993 112.878 221.178C118.778 244.461 117.051 259.1 121.403 276.86C121.403 276.86 159.247 265.073 168.826 245.876C187.131 257.102 218.312 253.106 218.312 253.106C212.704 236.266 209.137 215.857 204.202 192.282C205.413 193.607 228.003 124.611 228.34 115.293C228.721 104.628 225.895 74.8787 225.895 74.8787C225.895 74.8787 222.44 80.6265 218.312 80.8285C214.185 81.0306 206.804 76.0686 206.804 76.0686C206.804 76.0686 204.92 106.267 202.497 110.017C200.074 113.766 181.051 146.075 178.606 151.374C177.483 151.079 176.345 150.847 175.197 150.678L140.672 147.826L140.515 147.871Z" fill="#35375B"/>
<path fill-rule="evenodd" clip-rule="evenodd" d="M163.756 176.094L168.736 172.008C167.748 164.497 166.249 157.063 164.249 149.757L140.762 147.826L156.622 203.216L140.515 147.871L121.672 162.016C123.854 169.267 126.537 176.356 129.703 183.234L136.096 184.042L132.126 188.128C138.698 200.814 148.053 213.298 160.503 217.025C169.072 207.28 170.486 191.676 169.185 177.374L163.756 176.094Z" fill="white"/>
<path fill-rule="evenodd" clip-rule="evenodd" d="M169.724 224.254C169.813 224.565 169.807 224.895 169.709 225.203C169.61 225.511 169.422 225.783 169.17 225.985C168.917 226.186 168.611 226.308 168.289 226.336C167.967 226.363 167.644 226.295 167.361 226.139C167.078 225.984 166.847 225.747 166.697 225.461C166.548 225.174 166.487 224.849 166.521 224.528C166.556 224.206 166.684 223.902 166.891 223.654C167.098 223.405 167.373 223.224 167.683 223.132C167.891 223.07 168.109 223.05 168.324 223.073C168.539 223.096 168.748 223.162 168.938 223.266C169.128 223.371 169.295 223.512 169.43 223.681C169.565 223.851 169.665 224.046 169.724 224.254Z" fill="white"/>
<path fill-rule="evenodd" clip-rule="evenodd" d="M173.85 238.624C173.912 238.83 173.931 239.047 173.908 239.261C173.885 239.475 173.819 239.682 173.714 239.87C173.61 240.058 173.469 240.224 173.3 240.357C173.13 240.49 172.936 240.587 172.729 240.644C172.521 240.706 172.303 240.726 172.088 240.703C171.872 240.68 171.664 240.614 171.474 240.51C171.284 240.405 171.117 240.264 170.982 240.094C170.847 239.925 170.747 239.73 170.687 239.522C170.568 239.102 170.621 238.652 170.833 238.271C171.046 237.89 171.401 237.609 171.82 237.49C172.24 237.371 172.689 237.423 173.07 237.636C173.451 237.848 173.731 238.204 173.85 238.624Z" fill="white"/>
<path fill-rule="evenodd" clip-rule="evenodd" d="M136.322 244.08L152.899 239.297L151.396 234.066L135.043 238.781L136.322 244.08Z" fill="white"/>
<path fill-rule="evenodd" clip-rule="evenodd" d="M129.098 139.205L134.123 152.182L142.49 154.18L134.123 152.182C134.123 152.182 141.166 190.688 156.555 203.239C163.038 184.334 155.568 150.431 155.568 150.431C155.568 150.431 150.611 137.723 150.297 137.588C149.983 137.453 129.098 139.205 129.098 139.205Z" fill="#E3E3E3"/>
<path fill-rule="evenodd" clip-rule="evenodd" d="M153.506 145.087L145.43 154.068L159.473 160.198C156.175 151.082 153.506 145.087 153.506 145.087Z" fill="white"/>
<path fill-rule="evenodd" clip-rule="evenodd" d="M133.742 150.79L145.43 154.158L136.838 166.843C134.595 157.279 133.742 150.79 133.742 150.79Z" fill="white"/>
<path fill-rule="evenodd" clip-rule="evenodd" d="M149.311 155.056C147.783 157.868 145.568 160.247 142.873 161.971C138.435 167.246 134.882 173.206 132.352 179.619C130.108 185.187 128.875 191.114 126.878 196.772C125.086 200.954 122.175 204.56 118.466 207.19C113.638 211.121 108.368 214.475 102.763 217.182L95.1133 212.938L99.5998 203.037C104.163 202.472 108.509 200.759 112.232 198.058C115.955 195.356 118.933 191.755 120.889 187.589C127.282 173.355 134.685 164.464 141.078 159.389L141.392 155.64L143.568 152.676L149.311 155.056Z" fill="#FC4C00"/>
<path fill-rule="evenodd" clip-rule="evenodd" d="M155.771 203.441L143.68 161.5C144.167 161.181 144.632 160.828 145.071 160.445L157.319 203.104L155.771 203.441Z" fill="white"/>
<path fill-rule="evenodd" clip-rule="evenodd" d="M225.583 70.3209L204.787 71.8477C204.787 71.8477 202.185 46.1622 215.69 45.8029C229.194 45.4437 225.583 70.3209 225.583 70.3209Z" fill="#FFA17A"/>
<path fill-rule="evenodd" clip-rule="evenodd" d="M199.067 51.6404L205.976 68.1653C207.075 70.8147 211.293 69.3104 210.171 66.661L203.262 50.1136C202.163 47.4867 197.945 48.9685 199.067 51.6404Z" fill="#FFA17A"/>
<path fill-rule="evenodd" clip-rule="evenodd" d="M226.366 46.4763C225.222 50.9668 223.449 55.592 222.619 60.1049C222.552 60.436 222.586 60.7796 222.717 61.0911C222.848 61.4026 223.069 61.6676 223.352 61.8516C223.635 62.0356 223.967 62.1302 224.304 62.123C224.642 62.1158 224.969 62.0072 225.244 61.8113C225.607 61.5563 225.857 61.1697 225.94 60.7336C226.792 56.2431 228.542 51.5506 229.686 47.0825C230.224 44.9047 226.927 44.4107 226.366 46.4763Z" fill="#FFA17A"/>
<path fill-rule="evenodd" clip-rule="evenodd" d="M221.161 40.4142C221.041 44.2882 220.384 48.1268 219.21 51.82C218.559 53.8632 221.857 54.447 222.53 52.4263C223.763 48.4532 224.435 44.3268 224.526 40.1673C224.526 37.922 221.251 38.3037 221.206 40.4367L221.161 40.4142Z" fill="#FFA17A"/>
<path fill-rule="evenodd" clip-rule="evenodd" d="M217.126 49.3953C217.821 45.2901 218.226 41.1411 218.338 36.9791C218.338 34.7339 215.085 35.138 215.018 37.271C214.879 41.1326 214.482 44.9806 213.829 48.789C213.748 49.2345 213.844 49.694 214.098 50.0688C214.361 50.4336 214.755 50.6828 215.197 50.7649C215.414 50.8057 215.637 50.803 215.852 50.7567C216.068 50.7104 216.272 50.6216 216.453 50.4954C216.64 50.3713 216.799 50.2092 216.918 50.0196C217.038 49.83 217.117 49.6173 217.149 49.3953H217.126Z" fill="#FFA17A"/>
<path fill-rule="evenodd" clip-rule="evenodd" d="M207.525 37.2708C208.271 43.7514 207.761 50.3152 206.022 56.6023C205.551 58.7128 208.849 59.319 209.343 57.2085C210.756 50.5851 212.102 43.7371 210.89 37.0014C210.531 34.8909 207.189 35.1603 207.57 37.2933L207.525 37.2708Z" fill="#FFA17A"/>
<path fill-rule="evenodd" clip-rule="evenodd" d="M206.852 57.2984C206.719 57.1639 206.645 56.9824 206.645 56.7932C206.645 56.6041 206.719 56.4225 206.852 56.288C206.989 56.1602 207.169 56.0891 207.357 56.0891C207.544 56.0891 207.724 56.1602 207.861 56.288C208.817 57.214 209.58 58.3205 210.105 59.5436C210.612 60.752 210.871 62.05 210.867 63.3605C210.886 63.4639 210.882 63.5702 210.855 63.6717C210.828 63.7732 210.779 63.8676 210.711 63.9482C210.644 64.0288 210.56 64.0936 210.465 64.138C210.369 64.1825 210.266 64.2055 210.161 64.2055C210.056 64.2055 209.952 64.1825 209.857 64.138C209.762 64.0936 209.678 64.0288 209.61 63.9482C209.543 63.8676 209.494 63.7732 209.467 63.6717C209.44 63.5702 209.436 63.4639 209.454 63.3605C209.443 62.2274 209.215 61.1069 208.781 60.06C208.325 59.0217 207.67 58.0834 206.852 57.2984Z" fill="#35375B"/>
<path fill-rule="evenodd" clip-rule="evenodd" d="M226.571 86.8681L226.167 69.6022C218.629 68.1772 210.841 68.9567 203.734 71.8475L205.26 91.381L226.571 86.8681Z" fill="white"/>
<path fill-rule="evenodd" clip-rule="evenodd" d="M226.209 86.5314L225.76 69.8942C222.333 69.2121 218.822 69.0682 215.351 69.4676C211.513 69.8428 207.741 70.7261 204.135 72.0946L205.615 90.8198L226.096 86.5314H226.209ZM226.568 69.6023L227.039 87.2948L204.897 91.92L203.305 71.5782L203.596 71.4659C207.368 69.9887 211.322 69.0295 215.351 68.6144C219.004 68.1867 222.702 68.3611 226.298 69.1308H226.612L226.568 69.6023Z" fill="#35375B"/>
<path fill-rule="evenodd" clip-rule="evenodd" d="M207.905 79.7284C207.628 79.6055 207.378 79.4277 207.172 79.2057C206.965 78.9837 206.806 78.7221 206.703 78.4367C206.6 78.1514 206.557 77.8481 206.574 77.5453C206.592 77.2425 206.67 76.9464 206.806 76.6749C207.065 76.1472 207.521 75.7427 208.076 75.5482C208.631 75.3537 209.239 75.3848 209.771 75.6348C210.303 75.8848 210.716 76.3338 210.921 76.8852C211.125 77.4366 211.106 78.0463 210.866 78.5833C210.747 78.8532 210.576 79.097 210.362 79.3006C210.149 79.5043 209.897 79.6638 209.622 79.7702C209.347 79.8765 209.054 79.9276 208.759 79.9204C208.465 79.9132 208.174 79.848 207.905 79.7284Z" fill="#35375B"/>
<path fill-rule="evenodd" clip-rule="evenodd" d="M15.1622 121.827L33.6468 113.138C33.6468 113.138 23.5296 89.8095 11.7973 96.0737C0.0649099 102.338 15.1622 121.827 15.1622 121.827Z" fill="#FFA17A"/>
<path fill-rule="evenodd" clip-rule="evenodd" d="M28.7789 92.9304L30.8428 110.421C31.1792 113.205 26.8497 113.968 26.5132 111.139L24.4718 93.6713C24.1354 90.8648 28.4424 90.1238 28.7789 92.9304Z" fill="#FFA17A"/>
<path fill-rule="evenodd" clip-rule="evenodd" d="M2.9817 101.821C6.12229 105.077 9.86857 108.22 12.7848 111.678C12.9281 111.843 13.0359 112.036 13.1015 112.245C13.1671 112.453 13.1891 112.673 13.1662 112.89C13.1205 113.325 12.9121 113.726 12.5829 114.013C12.4173 114.155 12.2245 114.263 12.0163 114.328C11.8081 114.394 11.5888 114.416 11.3716 114.395C10.9294 114.355 10.5197 114.146 10.2275 113.811C7.33366 110.331 3.49766 107.21 0.424364 103.954C-1.01134 102.428 1.50114 100.317 2.9817 101.821Z" fill="#FFA17A"/>
<path fill-rule="evenodd" clip-rule="evenodd" d="M4.48495 94.2999C6.47078 97.5439 8.88545 100.504 11.6634 103.101C13.2113 104.538 10.6764 106.626 9.1061 105.234C6.13986 102.426 3.57346 99.2225 1.47895 95.7144C0.469478 93.806 3.45304 92.4364 4.48495 94.2999Z" fill="#FFA17A"/>
<path fill-rule="evenodd" clip-rule="evenodd" d="M12.2701 99.7783C9.69017 96.6257 7.33633 93.2945 5.22619 89.8094C4.12699 88.0132 7.13298 86.6436 8.20975 88.4398C10.1992 91.6602 12.4025 94.7431 14.805 97.6677C15.077 98.0197 15.2125 98.4584 15.1864 98.9026C15.1327 99.3397 14.9164 99.7406 14.5807 100.025C14.2422 100.306 13.8074 100.443 13.3693 100.407C12.9351 100.361 12.5344 100.153 12.2477 99.8232L12.2701 99.7783Z" fill="#FFA17A"/>
<path fill-rule="evenodd" clip-rule="evenodd" d="M14.6485 84.8249C17.1588 90.6947 20.7681 96.0295 25.2817 100.542C26.6949 102.113 24.1825 104.246 22.7468 102.787C18.2602 97.8024 13.7737 92.571 11.6425 86.2394C10.9247 84.2636 13.8858 82.8716 14.6261 84.8698L14.6485 84.8249Z" fill="#FFA17A"/>
<path fill-rule="evenodd" clip-rule="evenodd" d="M24.9002 101.62C24.9238 101.453 24.8866 101.284 24.7955 101.143C24.7044 101.002 24.5654 100.899 24.4043 100.853C24.2431 100.806 24.0706 100.82 23.9185 100.89C23.7664 100.961 23.645 101.085 23.5767 101.238C22.8629 103.752 23.1693 106.447 24.4291 108.737C24.5188 108.897 24.6682 109.015 24.8447 109.066C25.0212 109.116 25.2105 109.095 25.3713 109.006C25.4528 108.964 25.5249 108.906 25.583 108.835C25.6411 108.764 25.6841 108.681 25.7093 108.593C25.7346 108.505 25.7415 108.412 25.7296 108.321C25.7178 108.23 25.6874 108.142 25.6405 108.063C24.551 106.098 24.2848 103.781 24.9002 101.62Z" fill="#35375B"/>
<path fill-rule="evenodd" clip-rule="evenodd" d="M23.3521 134.018L12.8984 120.21C17.9 114.418 24.4426 110.166 31.7644 107.951L42.7789 124.162L23.3521 134.018Z" fill="white"/>
<path fill-rule="evenodd" clip-rule="evenodd" d="M23.486 133.479L13.4586 120.21C15.6967 117.582 18.3215 115.311 21.2428 113.474C24.4741 111.394 27.9567 109.735 31.6067 108.535L42.1726 124.072L23.5085 133.547L23.486 133.479ZM12.5613 120.479L23.2168 134.557L43.4064 124.319L31.9208 107.457H31.6291C27.8008 108.688 24.1504 110.417 20.7717 112.599C17.6442 114.579 14.8692 117.068 12.5613 119.963L12.3594 120.21L12.5613 120.479Z" fill="#35375B"/>
<path fill-rule="evenodd" clip-rule="evenodd" d="M33.4918 116.752C33.6811 116.354 33.7489 115.909 33.6869 115.472C33.6248 115.035 33.4356 114.626 33.1428 114.297C32.85 113.967 32.4667 113.731 32.0406 113.618C31.6146 113.505 31.1647 113.52 30.7472 113.661C30.3297 113.802 29.963 114.064 29.693 114.412C29.4229 114.761 29.2615 115.182 29.2288 115.622C29.1962 116.061 29.2937 116.501 29.5093 116.886C29.7248 117.271 30.0489 117.584 30.4409 117.785C30.7081 117.922 31.0001 118.005 31.2997 118.027C31.5992 118.049 31.9002 118.011 32.1847 117.915C32.4692 117.818 32.7315 117.666 32.9561 117.466C33.1806 117.267 33.3628 117.024 33.4918 116.752Z" fill="#35375B"/>
<path fill-rule="evenodd" clip-rule="evenodd" d="M178.407 287.547C182.481 298.585 184.754 310.206 185.137 321.967C185.406 333.058 183.566 342.309 179.753 347.069L178.878 346.373C182.512 341.882 184.284 332.901 184.015 322.012C183.613 310.363 181.341 298.855 177.285 287.929L178.407 287.547Z" fill="#35375B"/>
<path fill-rule="evenodd" clip-rule="evenodd" d="M83.5369 279.712L40.3762 262.423C39.1262 261.908 37.7328 261.86 36.4505 262.288C35.1733 262.722 34.0868 263.588 33.3772 264.736L6.45785 310.247C6.04643 310.927 5.80768 311.698 5.76243 312.492C5.69249 313.673 6.05461 314.84 6.78116 315.774C7.50771 316.707 8.54901 317.345 9.71061 317.566C13.412 318.127 18.5491 317.162 24.3368 310.83C32.4575 302.007 51.9515 311.437 62.8763 317.836C63.0333 315.77 63.998 310.718 68.821 300.749C72.5889 293.005 77.5554 285.905 83.5369 279.712Z" fill="#35375B"/>
<path fill-rule="evenodd" clip-rule="evenodd" d="M38.1354 309.842C38.4273 307.551 38.382 305.228 38.0008 302.95C37.8438 302.029 36.453 302.388 36.61 303.286C36.9352 305.452 36.9352 307.654 36.61 309.82C36.4978 310.741 37.9111 310.741 38.1354 309.842Z" fill="white"/>
<path fill-rule="evenodd" clip-rule="evenodd" d="M44.6155 310.269C45.0917 308.041 45.0302 305.732 44.4361 303.533C44.1669 302.658 42.7985 303.017 43.0452 303.893C43.6095 305.874 43.6712 307.966 43.2247 309.977C43.0228 310.853 44.4136 311.234 44.6155 310.359V310.269Z" fill="white"/>
<path fill-rule="evenodd" clip-rule="evenodd" d="M50.8102 311.818C51.1727 310.129 51.3457 308.404 51.3262 306.677C51.3262 305.779 49.8232 305.801 49.8905 306.677C49.9204 308.283 49.7699 309.887 49.4418 311.459C49.2399 312.335 50.6308 312.716 50.8327 311.818H50.8102Z" fill="white"/>
<path fill-rule="evenodd" clip-rule="evenodd" d="M35.2166 300.525H35.6428C35.7292 300.499 35.8095 300.455 35.8789 300.398C35.9483 300.34 36.0053 300.268 36.0466 300.188C36.1128 300.022 36.1128 299.837 36.0466 299.672C35.998 299.496 35.8862 299.344 35.7325 299.245C35.6508 299.211 35.5631 299.194 35.4746 299.194C35.386 299.194 35.2983 299.211 35.2166 299.245L34.8128 299.357C34.7263 299.383 34.6461 299.427 34.5767 299.485C34.5073 299.542 34.4503 299.614 34.409 299.694C34.3428 299.86 34.3428 300.045 34.409 300.211C34.4569 300.381 34.5594 300.531 34.7006 300.637C34.8801 300.655 35.0608 300.616 35.2166 300.525Z" fill="#35375B"/>
<path fill-rule="evenodd" clip-rule="evenodd" d="M42.62 298.616C42.5872 298.691 42.5703 298.771 42.5703 298.852C42.5703 298.933 42.5872 299.014 42.62 299.088C42.6427 299.167 42.6827 299.24 42.737 299.303C42.7912 299.365 42.8585 299.414 42.934 299.447C43.0648 299.538 43.2245 299.578 43.3827 299.559C43.5488 299.528 43.6992 299.441 43.8089 299.312C43.8657 299.16 43.8657 298.993 43.8089 298.841C43.7498 298.688 43.6386 298.561 43.4949 298.482C43.3504 298.426 43.1907 298.426 43.0462 298.482C42.8922 298.471 42.7397 298.519 42.62 298.616Z" fill="white"/>
<path fill-rule="evenodd" clip-rule="evenodd" d="M49.0587 300.233C49.0013 300.377 49.0013 300.538 49.0587 300.682C49.1164 300.829 49.2183 300.955 49.3503 301.041C49.4955 301.093 49.6538 301.093 49.799 301.041C49.954 301.019 50.1007 300.957 50.2252 300.862C50.2695 300.708 50.2695 300.544 50.2252 300.39C50.1577 300.248 50.048 300.131 49.9111 300.053C49.7762 299.972 49.6199 299.933 49.4625 299.941C49.3092 299.962 49.1671 300.033 49.0587 300.143V300.233Z" fill="white"/>
<path fill-rule="evenodd" clip-rule="evenodd" d="M121.27 257.753L129.121 306.587L84.3008 279.15L84.884 278.207L127.618 304.364L120.171 257.933L121.27 257.753Z" fill="#35375B"/>
<path fill-rule="evenodd" clip-rule="evenodd" d="M147.65 145.806L143.253 152.878L134.998 151.98L130.242 142.236L142.894 136.061L147.65 145.806Z" fill="#FF9486"/>
<path fill-rule="evenodd" clip-rule="evenodd" d="M123.871 136.825L129.457 149.241C130.213 150.189 131.171 150.956 132.261 151.486C133.357 152.028 134.561 152.312 135.783 152.317C137.488 152.317 140.898 155.168 143.567 153.686C148.57 150.947 153.034 142.977 153.034 142.977C153.034 142.977 148.816 133.726 148.547 133.592C148.278 133.457 123.871 136.825 123.871 136.825Z" fill="#35375B"/>
<path fill-rule="evenodd" clip-rule="evenodd" d="M135.808 112.868C136.032 115.809 137.759 125.015 143.278 124.453C148.796 123.892 151.309 116.528 151.645 110.982C152.027 104.92 144.915 98.5883 136.077 99.913C130.581 100.856 135.449 107.771 135.808 112.868Z" fill="#35375B"/>
<path fill-rule="evenodd" clip-rule="evenodd" d="M145.811 106.042C147.112 109.074 150.791 115.338 151.689 118.122C152.586 120.906 154.964 133.659 154.47 137.768C153.82 143.448 138.767 146.906 134.819 146.03C128.964 144.773 125.622 136.308 125.622 136.308C125.622 136.308 119.632 114.574 119.52 114.979C119.408 115.383 145.811 106.042 145.811 106.042Z" fill="#FFA17A"/>
<path fill-rule="evenodd" clip-rule="evenodd" d="M121.605 109.635C122.345 113.295 131.162 116.371 137.308 114.911C139.701 114.516 141.919 113.409 143.675 111.736C145.431 110.062 146.644 107.899 147.156 105.526C147.919 101.036 141.234 94.7266 131.902 96.8371C120.551 99.4641 120.842 105.975 121.605 109.635Z" fill="#35375B"/>
<path fill-rule="evenodd" clip-rule="evenodd" d="M112.163 116.752C111.961 119.738 116.268 129.752 121.764 129.213C127.26 128.674 132.106 119.626 131.298 114.305C130.872 111.341 129.055 104.044 123.604 104.583C120.577 104.955 117.776 106.375 115.686 108.598C113.596 110.821 112.35 113.706 112.163 116.752Z" fill="#35375B"/>
<path fill-rule="evenodd" clip-rule="evenodd" d="M139.282 123.623C139.381 123.577 139.47 123.512 139.543 123.431C139.616 123.35 139.672 123.254 139.708 123.151C139.786 122.949 139.786 122.725 139.708 122.522C139.607 122.331 139.437 122.186 139.233 122.115C139.029 122.044 138.806 122.053 138.609 122.141L135.67 123.488C135.572 123.532 135.484 123.594 135.411 123.672C135.337 123.75 135.28 123.842 135.243 123.942C135.205 124.043 135.188 124.149 135.192 124.256C135.196 124.363 135.221 124.468 135.266 124.566C135.305 124.667 135.365 124.76 135.441 124.838C135.518 124.915 135.609 124.976 135.711 125.016C135.812 125.056 135.92 125.075 136.029 125.071C136.138 125.067 136.245 125.04 136.343 124.992L139.237 123.69L139.282 123.623Z" fill="#35375B"/>
<path fill-rule="evenodd" clip-rule="evenodd" d="M136.952 124.588C136.928 124.714 136.928 124.844 136.952 124.97C137.009 125.086 137.093 125.186 137.198 125.262C137.293 125.354 137.409 125.424 137.535 125.464C137.661 125.487 137.79 125.487 137.916 125.464C138.176 125.414 138.413 125.28 138.589 125.082C138.709 124.928 138.785 124.745 138.809 124.551C138.832 124.357 138.803 124.16 138.724 123.982C138.661 123.863 138.578 123.757 138.477 123.668C138.375 123.59 138.262 123.529 138.141 123.488C138.015 123.465 137.885 123.465 137.759 123.488C137.499 123.538 137.263 123.672 137.086 123.87C136.924 124.073 136.844 124.329 136.862 124.588H136.952Z" fill="#35375B"/>
<path fill-rule="evenodd" clip-rule="evenodd" d="M149.355 120.143C149.455 120.107 149.547 120.05 149.625 119.977C149.702 119.903 149.763 119.815 149.804 119.716C149.881 119.514 149.881 119.29 149.804 119.087C149.717 118.881 149.557 118.713 149.355 118.616C149.256 118.571 149.149 118.548 149.041 118.548C148.933 118.548 148.826 118.571 148.727 118.616L145.811 119.491C145.703 119.521 145.603 119.575 145.519 119.649C145.428 119.709 145.358 119.795 145.317 119.896C145.295 119.999 145.295 120.106 145.317 120.21C145.307 120.314 145.307 120.42 145.317 120.524C145.356 120.628 145.409 120.727 145.474 120.816C145.54 120.902 145.624 120.971 145.721 121.018C145.74 121.097 145.771 121.172 145.811 121.243H146.147L149.198 120.345C149.243 120.334 149.284 120.308 149.313 120.272C149.341 120.235 149.356 120.189 149.355 120.143Z" fill="#35375B"/>
<path fill-rule="evenodd" clip-rule="evenodd" d="M148.794 120.322C148.845 120.443 148.871 120.573 148.871 120.704C148.871 120.835 148.845 120.965 148.794 121.086C148.708 121.335 148.532 121.543 148.301 121.669C148.186 121.74 148.054 121.779 147.919 121.782C147.794 121.813 147.663 121.813 147.538 121.782C147.413 121.749 147.298 121.687 147.201 121.602C147.059 121.467 146.957 121.293 146.91 121.103C146.862 120.912 146.87 120.711 146.932 120.524C147.018 120.275 147.194 120.067 147.426 119.941C147.544 119.911 147.667 119.911 147.785 119.941C147.909 119.906 148.041 119.906 148.166 119.941C148.294 119.964 148.412 120.027 148.503 120.12C148.613 120.166 148.712 120.235 148.794 120.322Z" fill="#35375B"/>
<path fill-rule="evenodd" clip-rule="evenodd" d="M146.819 131.369C147.75 130.998 148.536 130.336 149.062 129.483C149.2 129.196 149.269 128.881 149.264 128.562C149.267 128.251 149.198 127.944 149.062 127.664C148.692 126.973 148.198 126.357 147.604 125.846C145.442 123.713 143.892 121.037 143.117 118.1C143.049 117.896 142.904 117.727 142.714 117.628C142.615 117.583 142.508 117.56 142.4 117.56C142.291 117.56 142.184 117.583 142.086 117.628C141.978 117.658 141.878 117.711 141.794 117.785L141.592 118.032C141.569 118.136 141.569 118.243 141.592 118.346C141.558 118.448 141.558 118.559 141.592 118.661C142.437 121.845 144.118 124.744 146.46 127.058C146.911 127.431 147.284 127.889 147.559 128.405C147.585 128.47 147.585 128.542 147.559 128.607C147.572 128.666 147.572 128.728 147.559 128.787C147.133 129.64 144.912 130.493 143.432 130.808H143.14C143.048 130.873 142.972 130.957 142.916 131.055C142.849 131.14 142.802 131.24 142.781 131.346C142.748 131.456 142.748 131.573 142.781 131.683C142.802 131.79 142.849 131.89 142.916 131.975C142.966 132.071 143.044 132.149 143.14 132.2C143.253 132.329 143.401 132.423 143.566 132.469C143.676 132.502 143.793 132.502 143.903 132.469C144.912 132.21 145.89 131.841 146.819 131.369Z" fill="#35375B"/>
<path fill-rule="evenodd" clip-rule="evenodd" d="M124.03 138.082C128.158 136.825 125.847 129.281 125.847 129.281C125.847 129.281 121.36 124.79 117.502 126.003C109.92 128.315 119.723 139.384 124.03 138.082Z" fill="#FFA17A"/>
<path fill-rule="evenodd" clip-rule="evenodd" d="M123.534 134.714C123.634 134.669 123.722 134.603 123.796 134.522C123.869 134.441 123.925 134.346 123.961 134.243C124.038 134.04 124.038 133.816 123.961 133.614C123.393 132.405 122.582 131.326 121.578 130.445C120.575 129.564 119.4 128.9 118.128 128.495H117.769C117.666 128.472 117.559 128.472 117.455 128.495C117.362 128.558 117.279 128.633 117.208 128.719C117.142 128.808 117.095 128.91 117.072 129.019C117.048 129.127 117.049 129.24 117.074 129.348C117.081 129.461 117.12 129.57 117.186 129.662C117.243 129.753 117.32 129.83 117.41 129.887C117.498 129.95 117.597 129.996 117.702 130.022C118.746 130.353 119.708 130.903 120.524 131.635C121.34 132.366 121.991 133.263 122.435 134.265C122.534 134.456 122.703 134.601 122.906 134.669C123.005 134.714 123.112 134.737 123.22 134.737C123.329 134.737 123.436 134.714 123.534 134.669V134.714Z" fill="#35375B"/>
<path fill-rule="evenodd" clip-rule="evenodd" d="M121.808 132.155C122.013 132.076 122.181 131.924 122.279 131.728C122.324 131.629 122.347 131.522 122.347 131.414C122.347 131.305 122.324 131.198 122.279 131.099C122.248 130.994 122.193 130.897 122.119 130.815C122.046 130.734 121.955 130.67 121.853 130.628C121.754 130.583 121.647 130.56 121.539 130.56C121.431 130.56 121.324 130.583 121.225 130.628L117.838 131.526C117.733 131.552 117.634 131.598 117.546 131.661C117.45 131.72 117.372 131.806 117.322 131.908C117.295 132.003 117.295 132.104 117.322 132.199C117.289 132.309 117.289 132.426 117.322 132.536C117.343 132.65 117.389 132.757 117.456 132.851C117.525 132.942 117.618 133.012 117.725 133.053C117.828 133.085 117.937 133.085 118.04 133.053C118.151 133.075 118.265 133.075 118.376 133.053L121.741 132.155H121.808Z" fill="#35375B"/>
<path fill-rule="evenodd" clip-rule="evenodd" d="M124.052 125.733C125.711 124.225 126.968 122.327 127.709 120.209C128.449 118.092 128.65 115.823 128.292 113.609C128.247 113.395 128.128 113.204 127.955 113.07C127.782 112.941 127.564 112.884 127.35 112.913C127.242 112.923 127.139 112.956 127.046 113.011C126.953 113.065 126.873 113.139 126.811 113.227C126.744 113.311 126.695 113.409 126.668 113.513C126.641 113.618 126.636 113.727 126.654 113.833C126.956 115.728 126.802 117.668 126.206 119.491C125.649 121.258 124.68 122.866 123.379 124.184C123.231 124.278 123.12 124.421 123.065 124.588C123.02 124.75 123.02 124.92 123.065 125.082C123.112 125.236 123.196 125.375 123.312 125.486C123.427 125.604 123.576 125.682 123.738 125.711C123.899 125.756 124.07 125.756 124.231 125.711L124.052 125.733Z" fill="#E3E3E3"/>
<path fill-rule="evenodd" clip-rule="evenodd" d="M121.314 121.737C121.418 121.68 121.509 121.604 121.583 121.512C122.475 120.381 123.066 119.043 123.301 117.622C123.537 116.2 123.409 114.743 122.929 113.384C122.892 113.283 122.835 113.191 122.761 113.113C122.687 113.035 122.598 112.973 122.499 112.931C122.401 112.889 122.294 112.868 122.187 112.868C122.079 112.869 121.973 112.892 121.875 112.935C121.772 112.967 121.678 113.022 121.601 113.096C121.523 113.17 121.463 113.261 121.426 113.362C121.349 113.564 121.349 113.788 121.426 113.991C121.794 115.079 121.886 116.241 121.694 117.374C121.503 118.506 121.033 119.573 120.327 120.479C120.261 120.548 120.209 120.629 120.174 120.717C120.14 120.806 120.123 120.901 120.125 120.996C120.13 121.182 120.193 121.363 120.305 121.512C120.425 121.659 120.591 121.762 120.776 121.804C120.949 121.869 121.141 121.869 121.314 121.804V121.737Z" fill="#E3E3E3"/>
<path fill-rule="evenodd" clip-rule="evenodd" d="M149.424 118.01C149.644 118.01 149.856 117.922 150.011 117.766C150.167 117.61 150.254 117.399 150.254 117.179C150.254 116.958 150.167 116.747 150.011 116.591C149.856 116.436 149.644 116.348 149.424 116.348L142.695 115.674C142.583 115.652 142.469 115.652 142.358 115.674C142.252 115.709 142.154 115.762 142.066 115.832L141.865 116.079C141.842 116.182 141.842 116.289 141.865 116.393C141.842 116.504 141.842 116.619 141.865 116.73C141.908 116.832 141.961 116.929 142.022 117.022L142.268 117.224C142.372 117.244 142.479 117.244 142.582 117.224L149.312 117.92L149.424 118.01Z" fill="#35375B"/>
<path fill-rule="evenodd" clip-rule="evenodd" d="M133.855 122.702L138.005 118.414C138.153 118.256 138.233 118.046 138.229 117.83C138.229 117.721 138.208 117.613 138.165 117.513C138.123 117.413 138.061 117.322 137.982 117.246C137.906 117.171 137.814 117.112 137.714 117.073C137.614 117.035 137.507 117.017 137.399 117.022C137.29 117.021 137.183 117.043 137.082 117.086C136.982 117.128 136.892 117.19 136.816 117.269L132.666 121.557C132.518 121.715 132.437 121.924 132.442 122.141C132.441 122.25 132.463 122.358 132.505 122.458C132.548 122.558 132.61 122.649 132.688 122.725C132.844 122.879 133.053 122.967 133.272 122.972C133.492 122.953 133.698 122.858 133.855 122.702Z" fill="#35375B"/>
<path fill-rule="evenodd" clip-rule="evenodd" d="M149.244 133.771C149.244 140.305 136.637 139.721 134.191 133.771H149.244Z" fill="white"/>
<path fill-rule="evenodd" clip-rule="evenodd" d="M338.465 343.05L350.422 491.235C365.609 491.235 375.098 492.605 389.634 486.52L382.007 403.312C382.007 403.312 382.388 425.944 397.261 425.944C412.134 425.944 469.046 406.59 469.046 406.59L461.419 369.521L412.067 383.329L403.722 342.915L338.465 343.05Z" fill="#35375B"/>
<path fill-rule="evenodd" clip-rule="evenodd" d="M374.805 369.835C375.371 377.118 376.413 384.355 377.923 391.502C378.998 396.991 380.675 402.345 382.926 407.465L381.916 407.937C379.63 402.746 377.929 397.317 376.847 391.749C375.301 384.554 374.244 377.263 373.684 369.925L374.805 369.835Z" fill="white"/>
<path fill-rule="evenodd" clip-rule="evenodd" d="M489.909 255.351L470.168 245.898C470.168 245.898 481.384 221.201 493.745 227.936C506.105 234.672 489.909 255.351 489.909 255.351Z" fill="#FFA17A"/>
<path fill-rule="evenodd" clip-rule="evenodd" d="M475.574 224.367L473.331 243.024C472.95 245.988 477.548 246.841 477.93 243.833L480.308 225.197C480.689 222.234 476.09 221.38 475.686 224.367H475.574Z" fill="#FFA17A"/>
<path fill-rule="evenodd" clip-rule="evenodd" d="M503.098 234.111C499.733 237.568 495.673 240.847 492.554 244.529C492.398 244.705 492.28 244.912 492.207 245.136C492.134 245.36 492.107 245.596 492.128 245.831C492.142 246.064 492.203 246.292 492.308 246.502C492.412 246.711 492.558 246.896 492.736 247.048C492.914 247.199 493.121 247.312 493.345 247.381C493.568 247.45 493.803 247.472 494.035 247.448C494.267 247.433 494.494 247.372 494.703 247.268C494.911 247.164 495.096 247.019 495.246 246.841C498.387 243.159 502.425 239.859 505.79 236.423C507.36 234.784 504.735 232.539 503.098 234.111Z" fill="#FFA17A"/>
<path fill-rule="evenodd" clip-rule="evenodd" d="M501.505 225.961C499.359 229.416 496.747 232.559 493.743 235.301C492.083 236.805 494.775 239.073 496.458 237.546C499.652 234.58 502.422 231.188 504.691 227.465C505.88 225.556 502.694 224.052 501.528 225.983L501.505 225.961Z" fill="#FFA17A"/>
<path fill-rule="evenodd" clip-rule="evenodd" d="M493.204 231.843C495.984 228.48 498.532 224.932 500.831 221.223C502.02 219.315 498.835 217.833 497.646 219.741C495.493 223.171 493.117 226.456 490.535 229.575C490.382 229.753 490.266 229.96 490.193 230.183C490.12 230.406 490.092 230.641 490.111 230.875C490.13 231.109 490.195 231.337 490.302 231.545C490.41 231.754 490.557 231.939 490.737 232.09C490.913 232.238 491.116 232.35 491.336 232.42C491.555 232.489 491.786 232.514 492.015 232.494C492.248 232.483 492.476 232.423 492.685 232.319C492.893 232.214 493.078 232.068 493.227 231.888L493.204 231.843Z" fill="#FFA17A"/>
<path fill-rule="evenodd" clip-rule="evenodd" d="M490.804 215.857C488.08 222.13 484.182 227.823 479.319 232.629C477.793 234.313 480.463 236.58 482.01 234.874C486.766 229.598 491.589 224.052 494.012 217.316C494.797 215.206 491.612 213.702 490.849 215.812L490.804 215.857Z" fill="#FFA17A"/>
<path fill-rule="evenodd" clip-rule="evenodd" d="M479.701 233.684C479.674 233.591 479.666 233.494 479.678 233.398C479.689 233.302 479.72 233.209 479.768 233.125C479.816 233.041 479.881 232.968 479.958 232.91C480.035 232.851 480.124 232.809 480.217 232.786C480.405 232.73 480.607 232.751 480.779 232.843C480.951 232.936 481.08 233.093 481.137 233.28C481.502 234.617 481.601 236.013 481.429 237.389C481.266 238.763 480.831 240.091 480.15 241.295C480.047 241.466 479.882 241.59 479.689 241.641C479.496 241.691 479.291 241.664 479.118 241.565C478.953 241.462 478.834 241.301 478.784 241.113C478.734 240.925 478.757 240.726 478.849 240.555C479.44 239.525 479.821 238.388 479.971 237.209C480.105 236.028 480.014 234.831 479.701 233.684Z" fill="#35375B"/>
<path fill-rule="evenodd" clip-rule="evenodd" d="M404.438 257.888C404.438 257.08 404.438 256.271 404.438 255.463C404.64 231.574 376.262 231.529 357.172 235.974C338.799 240.263 339.472 268.575 337.095 284.673C336.332 289.725 331.756 345.923 332.787 345.834C357.182 343.638 381.676 342.753 406.165 343.184C407.376 314.625 404.37 286.268 404.438 257.888Z" fill="white"/>
<path fill-rule="evenodd" clip-rule="evenodd" d="M362.914 243.361C362.914 243.361 374.131 276.007 362.914 297.696C351.698 319.385 332.653 400.775 332.653 400.775C329.108 400.775 325.564 360.585 322.02 360.54C328.331 325.978 334.627 291.431 340.908 256.9C342.231 243.294 348.4 237.007 362.914 243.361Z" fill="#F4F1F1"/>
<path fill-rule="evenodd" clip-rule="evenodd" d="M379.223 241.318C379.223 241.318 368.007 273.986 379.223 295.653C390.44 317.319 409.485 358.676 409.485 358.676L420.118 358.519C413.807 323.957 407.511 289.411 401.23 254.879C399.906 241.273 393.76 234.986 379.223 241.318Z" fill="#F4F1F1"/>
<path fill-rule="evenodd" clip-rule="evenodd" d="M409.103 286.47C409.103 286.47 426.601 299.941 450.851 289.613C475.1 279.285 497.959 258.18 497.959 258.18L468.348 236.086C468.348 236.086 457.132 267.183 438.445 265.993C409.597 264.129 414.195 236.086 386.289 239.05L409.103 286.47Z" fill="#F4F1F1"/>
<path fill-rule="evenodd" clip-rule="evenodd" d="M335.862 284.674C335.862 284.674 306.43 280.834 295.954 262.221C285.478 243.608 281.148 218.821 281.148 218.821L311.029 219.225C311.029 219.225 304.86 242.912 317.377 251.287C329.895 259.662 345.396 240.824 351.027 241.273L362.916 267.34L335.862 284.674Z" fill="#F4F1F1"/>
<path fill-rule="evenodd" clip-rule="evenodd" d="M393.156 203.216C392.155 203.217 391.177 203.522 390.352 204.092C388.87 198.122 385.969 192.599 381.895 187.994C380.479 186.115 378.579 184.656 376.399 183.773C375.379 183.277 374.276 182.973 373.146 182.875C372.384 182.875 371.666 182.875 370.903 182.875C370.153 182.874 369.404 182.919 368.66 183.009C367.528 183.151 366.433 183.501 365.429 184.042C363.292 185.033 361.462 186.584 360.135 188.533C356.268 193.314 353.613 198.96 352.396 204.99C351.54 204.467 350.549 204.209 349.547 204.249C346.653 204.564 345.823 209.189 346.698 212.646C347.797 217.137 351.185 218.349 354.28 219.158C355.816 222.135 357.807 224.854 360.18 227.218C362.585 230.03 365.822 232.004 369.422 232.853H369.737L370.365 232.988H371.15C371.426 233.011 371.704 233.011 371.98 232.988H372.81H373.169H373.595C373.802 232.957 374.005 232.904 374.201 232.831H374.515C378.068 231.817 381.209 229.702 383.488 226.791C385.756 224.328 387.625 221.525 389.029 218.484C392.102 217.541 395.4 216.082 396.319 211.748C397.06 207.976 396.05 203.396 393.156 203.216Z" fill="#FFA17A"/>
<path fill-rule="evenodd" clip-rule="evenodd" d="M378.013 216.778C377.73 216.237 377.383 215.732 376.982 215.273C376.595 214.708 376.25 214.115 375.95 213.499C375.378 212.267 375.021 210.946 374.895 209.593C374.862 209.414 374.763 209.255 374.617 209.146C374.472 209.038 374.291 208.989 374.11 209.009C374.023 209.025 373.94 209.058 373.866 209.107C373.792 209.155 373.728 209.217 373.678 209.29C373.628 209.363 373.593 209.445 373.575 209.532C373.557 209.619 373.556 209.708 373.572 209.795C373.798 212.084 374.635 214.271 375.995 216.126C376.511 216.845 377.273 217.608 376.533 218.372C375.793 219.135 374.492 218.933 373.482 218.821C372.473 218.708 372.54 220.056 373.482 220.168C374.761 220.485 376.112 220.292 377.251 219.629C377.677 219.306 377.983 218.851 378.121 218.334C378.259 217.818 378.222 217.27 378.013 216.778Z" fill="#35375B"/>
<path fill-rule="evenodd" clip-rule="evenodd" d="M366.461 211.052C366.501 211.459 366.696 211.835 367.005 212.102C367.314 212.37 367.713 212.508 368.121 212.489C368.321 212.481 368.517 212.432 368.697 212.347C368.878 212.262 369.04 212.142 369.173 211.993C369.307 211.845 369.41 211.671 369.476 211.483C369.542 211.294 369.569 211.094 369.557 210.895C369.507 210.488 369.306 210.115 368.995 209.849C368.683 209.583 368.284 209.444 367.875 209.458C367.676 209.466 367.481 209.515 367.302 209.6C367.122 209.686 366.962 209.806 366.83 209.955C366.698 210.104 366.598 210.278 366.534 210.466C366.471 210.655 366.446 210.854 366.461 211.052Z" fill="#35375B"/>
<path fill-rule="evenodd" clip-rule="evenodd" d="M379.403 210.603C379.443 211.01 379.637 211.386 379.946 211.654C380.255 211.921 380.655 212.059 381.063 212.04C381.262 212.035 381.459 211.989 381.64 211.904C381.821 211.82 381.982 211.699 382.115 211.55C382.247 211.4 382.348 211.225 382.41 211.035C382.472 210.846 382.495 210.645 382.476 210.446C382.436 210.039 382.242 209.663 381.933 209.396C381.624 209.128 381.224 208.99 380.816 209.009C380.618 209.018 380.423 209.066 380.243 209.151C380.064 209.237 379.903 209.357 379.772 209.506C379.64 209.655 379.539 209.829 379.476 210.017C379.412 210.206 379.388 210.405 379.403 210.603Z" fill="#35375B"/>
<path fill-rule="evenodd" clip-rule="evenodd" d="M363.949 204.159C365.039 203.806 366.17 203.594 367.314 203.531C368.884 203.531 368.503 200.994 366.91 201.083C365.581 201.176 364.269 201.44 363.007 201.869C361.459 202.363 362.491 204.586 363.971 204.114L363.949 204.159Z" fill="#35375B"/>
<path fill-rule="evenodd" clip-rule="evenodd" d="M380.905 204.159C379.824 203.804 378.7 203.592 377.563 203.531C375.993 203.531 376.374 200.994 377.944 201.083C379.281 201.178 380.6 201.442 381.87 201.869C383.395 202.363 382.363 204.586 380.883 204.114L380.905 204.159Z" fill="#35375B"/>
<path fill-rule="evenodd" clip-rule="evenodd" d="M357.078 207.984L361.801 210.345C361.807 209.246 362.7 208.356 363.801 208.356H371.075C372.179 208.356 373.075 209.251 373.075 210.356V210.372H376.39V210.356C376.39 209.251 377.286 208.356 378.39 208.356H385.664C386.768 208.356 387.664 209.251 387.664 210.356V212.324C387.664 213.429 386.768 214.324 385.664 214.324H378.39C377.286 214.324 376.39 213.429 376.39 212.324V211.672H373.075V212.324C373.075 213.429 372.179 214.324 371.075 214.324H363.801C362.697 214.324 361.801 213.429 361.801 212.324V211.799L356.496 209.146C356.175 208.986 356.045 208.595 356.205 208.274C356.366 207.953 356.756 207.823 357.078 207.984ZM371.075 209.656H363.801C363.415 209.656 363.101 209.969 363.101 210.356V212.324C363.101 212.711 363.415 213.024 363.801 213.024H371.075C371.461 213.024 371.775 212.711 371.775 212.324V210.356C371.775 209.969 371.461 209.656 371.075 209.656ZM378.39 209.656H385.664C386.05 209.656 386.364 209.969 386.364 210.356V212.324C386.364 212.711 386.05 213.024 385.664 213.024H378.39C378.004 213.024 377.69 212.711 377.69 212.324V210.356C377.69 209.969 378.004 209.656 378.39 209.656Z" fill="#35375B"/>
<path fill-rule="evenodd" clip-rule="evenodd" d="M363.141 247.403C367.919 256.608 376.6 248.099 375.793 238.422L375.636 236.176V235.75V228.498L360.875 227.061V227.824V232.854C360.875 233.954 360.875 235.099 361.054 236.176C361.054 236.423 361.054 237.658 361.054 239.028C361.032 239.334 361.032 239.642 361.054 239.948C361.183 242.558 361.896 245.106 363.141 247.403Z" fill="#FFA17A"/>
<g style="mix-blend-mode:multiply" opacity="0.49">
<path fill-rule="evenodd" clip-rule="evenodd" d="M374.939 232.539C369.757 233.954 364.71 231.888 360.672 227.622C360.851 229.867 360.829 232.113 360.896 234.358C360.964 236.603 361.098 238.197 361.098 240.173C368.321 240.869 374.939 236.423 374.939 232.539Z" fill="#35375B"/>
</g>
<path fill-rule="evenodd" clip-rule="evenodd" d="M377.073 223.715C376.198 228.206 367.561 226.14 366.664 221.695L377.073 223.715Z" fill="white"/>
<path fill-rule="evenodd" clip-rule="evenodd" d="M375.659 232.382C384.991 233.1 390.375 236.019 393.403 240.734C396.432 245.449 397.082 251.736 397.06 259.414H395.4C395.4 252.028 394.794 245.943 392.013 241.655C389.231 237.366 384.273 234.739 375.547 234.043L375.659 232.382Z" fill="#FC4C00"/>
<path fill-rule="evenodd" clip-rule="evenodd" d="M395.87 261.794C394.289 261.44 392.635 261.638 391.182 262.356C389.475 263.176 388.008 264.42 386.92 265.971C385.932 267.505 385.176 269.177 384.676 270.933C384.115 272.729 383.712 274.615 383.33 276.456L382.433 280.789C381.893 282.956 381.533 285.164 381.356 287.39C381.202 289.46 381.565 291.535 382.411 293.43C383.198 294.97 384.383 296.272 385.842 297.2C387.302 298.128 388.983 298.648 390.711 298.706V300.368C388.663 300.333 386.667 299.726 384.945 298.616C383.212 297.527 381.82 295.971 380.93 294.126C379.974 292.016 379.55 289.703 379.696 287.39C379.849 285.123 380.179 282.87 380.683 280.654L381.581 276.321C381.984 274.413 382.388 272.482 382.971 270.618C383.548 268.707 384.402 266.892 385.506 265.23C386.752 263.418 388.455 261.969 390.441 261.031C392.232 260.162 394.264 259.924 396.207 260.357L395.87 261.794Z" fill="#FC4C00"/>
<path fill-rule="evenodd" clip-rule="evenodd" d="M393.626 300.278C393.754 299.853 393.754 299.4 393.626 298.976C393.572 298.691 393.44 298.426 393.244 298.212C393.028 298.044 392.775 297.93 392.505 297.879C392.236 297.829 391.959 297.843 391.696 297.92C391.046 298.033 389.565 298.325 389.453 299.155C389.341 299.986 390.463 300.749 390.979 301.019C391.2 301.146 391.445 301.228 391.699 301.259C391.953 301.291 392.211 301.272 392.457 301.203C392.703 301.134 392.933 301.017 393.134 300.858C393.335 300.699 393.502 300.502 393.626 300.278Z" fill="white"/>
<path fill-rule="evenodd" clip-rule="evenodd" d="M393.065 300.008C393.078 299.881 393.078 299.754 393.065 299.627C393.087 299.448 393.087 299.267 393.065 299.088C393.078 298.991 393.078 298.893 393.065 298.796C393.075 298.744 393.075 298.691 393.065 298.639C392.964 298.551 392.839 298.496 392.706 298.482C392.497 298.459 392.287 298.459 392.078 298.482C391.674 298.555 391.277 298.66 390.889 298.796C390.62 298.908 390.395 299.043 390.373 299.178C390.421 299.349 390.514 299.504 390.642 299.627C390.888 299.946 391.203 300.207 391.562 300.39C391.887 300.514 392.246 300.514 392.571 300.39C392.838 300.33 393.071 300.169 393.222 299.941L393.065 300.008ZM394.231 300.48C394.084 300.757 393.88 301 393.633 301.194C393.385 301.387 393.1 301.526 392.796 301.602C392.159 301.768 391.484 301.705 390.889 301.423C390.376 301.143 389.919 300.77 389.543 300.323C389.365 300.138 389.226 299.92 389.134 299.681C389.042 299.442 388.998 299.187 389.005 298.931C389.064 298.598 389.215 298.29 389.441 298.039C389.667 297.789 389.959 297.608 390.283 297.516C390.758 297.35 391.246 297.223 391.741 297.134C392.083 297.078 392.432 297.078 392.773 297.134C393.168 297.185 393.536 297.358 393.828 297.628C393.989 297.781 394.118 297.964 394.209 298.167C394.282 298.342 394.342 298.522 394.388 298.706C394.434 299.004 394.434 299.307 394.388 299.604C394.375 299.891 394.306 300.173 394.187 300.435L394.231 300.48Z" fill="#FC4C00"/>
<path fill-rule="evenodd" clip-rule="evenodd" d="M397.057 259.998C398.938 260.707 400.521 262.038 401.543 263.77C402.664 265.662 403.275 267.813 403.316 270.012C403.312 272.007 403.009 273.99 402.418 275.895C401.858 277.803 401.14 279.622 400.422 281.418L398.762 285.504C397.94 287.652 396.949 289.731 395.801 291.723C394.641 293.767 392.981 295.482 390.978 296.708C389.215 297.73 387.204 298.243 385.168 298.19C383.124 298.15 381.131 297.552 379.402 296.461L380.322 295.046C381.773 295.985 383.462 296.491 385.19 296.506C386.918 296.564 388.628 296.137 390.125 295.271C391.891 294.152 393.348 292.608 394.365 290.78C395.473 288.873 396.418 286.875 397.192 284.808L398.852 280.722C399.594 278.968 400.246 277.177 400.803 275.356C401.346 273.611 401.626 271.795 401.633 269.967C401.605 268.068 401.079 266.21 400.108 264.579C399.297 263.182 398.041 262.099 396.541 261.503L397.057 259.998Z" fill="#FC4C00"/>
<path fill-rule="evenodd" clip-rule="evenodd" d="M375.926 293.699C376.278 293.293 376.763 293.027 377.294 292.949C377.825 292.871 378.367 292.986 378.82 293.273C379.541 293.909 380.004 294.788 380.121 295.742C380.137 295.778 380.146 295.816 380.146 295.855C380.146 295.893 380.137 295.932 380.121 295.967C380.077 296.03 380.015 296.077 379.942 296.102C379.011 296.462 377.979 296.462 377.048 296.102C376.744 295.998 376.463 295.838 376.218 295.63C375.992 295.425 375.83 295.16 375.75 294.865C375.671 294.571 375.678 294.26 375.769 293.969C375.808 293.872 375.861 293.781 375.926 293.699Z" fill="white"/>
<path fill-rule="evenodd" clip-rule="evenodd" d="M375.388 293.34C375.824 292.784 376.46 292.421 377.16 292.33C377.848 292.23 378.549 292.381 379.134 292.756C379.57 293.1 379.923 293.538 380.166 294.036C380.446 294.546 380.636 295.101 380.727 295.675V295.9C380.713 296.036 380.667 296.166 380.593 296.281C380.527 296.392 380.434 296.485 380.323 296.551H380.122C379.595 296.771 379.032 296.892 378.461 296.91C377.89 296.929 377.321 296.845 376.779 296.663L376.241 296.416C376.055 296.317 375.882 296.196 375.725 296.057C375.41 295.767 375.184 295.393 375.074 294.979C374.954 294.569 374.954 294.132 375.074 293.722C375.102 293.628 375.139 293.538 375.186 293.452L375.321 293.205L375.388 293.34ZM376.465 294.036C376.449 294.11 376.449 294.187 376.465 294.261C376.409 294.428 376.409 294.61 376.465 294.777C376.521 294.956 376.621 295.118 376.757 295.249L377.026 295.428L377.362 295.585C377.76 295.718 378.177 295.786 378.596 295.787C378.94 295.768 379.28 295.7 379.606 295.585C379.518 295.252 379.398 294.929 379.247 294.62C379.077 294.309 378.857 294.029 378.596 293.789C378.275 293.589 377.893 293.509 377.519 293.565C377.313 293.574 377.111 293.629 376.929 293.726C376.747 293.823 376.588 293.96 376.465 294.126V294.036Z" fill="#FC4C00"/>
<path fill-rule="evenodd" clip-rule="evenodd" d="M396.519 258.898C395.965 258.812 395.401 258.949 394.948 259.279C394.496 259.61 394.194 260.107 394.107 260.661C394.021 261.214 394.158 261.78 394.488 262.232C394.819 262.685 395.315 262.988 395.868 263.074C396.422 263.161 396.986 263.023 397.439 262.693C397.891 262.362 398.193 261.865 398.28 261.312C398.366 260.758 398.229 260.192 397.899 259.74C397.568 259.287 397.072 258.984 396.519 258.898Z" fill="white"/>
<path fill-rule="evenodd" clip-rule="evenodd" d="M361.771 235.862C356.499 237.613 353.627 239.477 351.945 242.867C350.263 246.257 349.702 251.624 348.917 259.998C348.542 265.837 348.685 271.697 349.343 277.511C349.994 283.282 351.397 288.943 353.515 294.35L351.945 294.979C349.791 289.43 348.358 283.627 347.683 277.713C347.006 271.796 346.856 265.83 347.234 259.886C347.93 251.287 348.558 245.898 350.442 242.126C352.326 238.354 355.512 236.154 361.232 234.268L361.771 235.862Z" fill="#FC4C00"/>
<path fill-rule="evenodd" clip-rule="evenodd" d="M358.766 296.147C358.766 297.226 358.446 298.28 357.847 299.178C357.248 300.075 356.397 300.774 355.401 301.187C354.404 301.6 353.308 301.708 352.251 301.498C351.194 301.287 350.222 300.768 349.46 300.005C348.698 299.241 348.178 298.269 347.968 297.211C347.758 296.153 347.866 295.056 348.278 294.059C348.691 293.062 349.389 292.21 350.286 291.61C351.182 291.011 352.236 290.691 353.314 290.691C354.76 290.691 356.147 291.265 357.169 292.289C358.191 293.312 358.766 294.7 358.766 296.147Z" fill="white"/>
<path fill-rule="evenodd" clip-rule="evenodd" d="M356.006 296.147C356.04 296.52 355.996 296.896 355.876 297.251C355.757 297.606 355.565 297.932 355.313 298.208C355.061 298.485 354.754 298.706 354.411 298.857C354.069 299.008 353.699 299.087 353.325 299.087C352.951 299.087 352.58 299.008 352.238 298.857C351.896 298.706 351.589 298.485 351.336 298.208C351.084 297.932 350.892 297.606 350.773 297.251C350.654 296.896 350.61 296.52 350.644 296.147C350.705 295.477 351.014 294.855 351.51 294.402C352.006 293.949 352.653 293.698 353.325 293.698C353.996 293.698 354.643 293.949 355.139 294.402C355.635 294.855 355.944 295.477 356.006 296.147Z" fill="#C9E3E5"/>
<path fill-rule="evenodd" clip-rule="evenodd" d="M389.251 194.392C388.464 192.811 387.211 191.51 385.661 190.665C385.812 188.86 385.509 187.045 384.781 185.386C384.052 183.727 382.92 182.277 381.489 181.168C379.687 179.946 377.66 179.096 375.526 178.668C373.392 178.24 371.194 178.243 369.061 178.676C364.879 179.357 360.9 180.956 357.409 183.359C353.919 185.762 351.003 188.909 348.872 192.574C346.708 196.363 345.352 200.559 344.889 204.899C344.426 209.238 344.865 213.627 346.18 217.788C347.795 222.862 350.778 228.071 349.298 233.213C348.209 235.776 346.888 238.233 345.35 240.554C343.449 244.786 343.061 249.542 344.25 254.026C345.453 258.437 347.378 262.617 349.948 266.397C351.999 269.162 353.52 272.283 354.435 275.603C355.108 279.015 353.896 283.147 350.823 284.584C352.823 284.425 354.767 283.847 356.529 282.888C358.291 281.929 359.833 280.609 361.052 279.015C363.568 275.695 364.679 271.518 364.148 267.385C363.004 258.629 354.771 251.668 355.444 242.845C355.938 236.333 361.344 230.81 360.851 224.277C360.514 219.786 357.306 215.79 357.194 211.232C357.252 209.242 357.765 207.293 358.695 205.533C359.624 203.774 360.945 202.251 362.555 201.083C365.727 198.865 369.245 197.188 372.964 196.121C372.089 197.536 368.792 198.367 367.917 199.848C369.577 199.242 375.342 199.646 378.797 198.434C379.539 198.179 380.253 197.848 380.928 197.446C382.588 202.79 394.388 202.812 389.004 218.506C392.817 214.667 393.961 203.373 389.251 194.392Z" fill="#35375B"/>
<path fill-rule="evenodd" clip-rule="evenodd" d="M407.985 294.687C407.95 294.574 407.961 294.451 408.015 294.346C408.07 294.241 408.164 294.162 408.277 294.126C408.387 294.097 408.504 294.111 408.603 294.166C408.703 294.22 408.779 294.31 408.815 294.418C412.246 306.521 417.715 317.948 424.989 328.208C429.082 334.117 434.726 338.779 441.298 341.68C444.497 342.883 447.931 343.33 451.332 342.988C454.733 342.645 458.008 341.521 460.904 339.704C467.046 335.939 472.383 330.994 476.607 325.155C476.691 325.073 476.804 325.027 476.921 325.027C477.039 325.027 477.151 325.073 477.235 325.155C477.317 325.239 477.363 325.352 477.363 325.469C477.363 325.587 477.317 325.7 477.235 325.784C472.934 331.71 467.516 336.737 461.285 340.58C458.275 342.465 454.871 343.628 451.337 343.978C447.804 344.329 444.238 343.857 440.917 342.6C434.181 339.636 428.402 334.855 424.227 328.792C416.905 318.436 411.412 306.901 407.985 294.687Z" fill="#B9B0B0"/>
<path fill-rule="evenodd" clip-rule="evenodd" d="M331.307 283.371C331.42 283.403 331.517 283.476 331.579 283.575C331.642 283.675 331.664 283.794 331.643 283.91C331.612 284.023 331.539 284.121 331.439 284.183C331.34 284.245 331.22 284.268 331.105 284.247C324.895 282.871 318.871 280.76 313.159 277.96C305.93 274.634 299.837 269.255 295.639 262.49C285.118 243.855 280.811 219.023 280.788 218.955C280.775 218.837 280.807 218.718 280.877 218.622C280.948 218.526 281.053 218.461 281.169 218.439C281.285 218.419 281.404 218.446 281.501 218.513C281.597 218.58 281.664 218.683 281.685 218.798C281.685 218.798 285.993 243.496 296.424 262.041C300.532 268.652 306.492 273.907 313.562 277.152C319.207 279.929 325.164 282.017 331.307 283.371Z" fill="#B9B0B0"/>
<path fill-rule="evenodd" clip-rule="evenodd" d="M321.954 47.9359C321.954 47.9359 320.608 52.9877 321.954 54.3348C323.3 55.6819 328.863 57.523 329.02 54.3348C329.177 51.1466 328.863 46.252 327.337 46.252C325.48 46.5889 323.672 47.1545 321.954 47.9359Z" fill="#35375B"/>
<path fill-rule="evenodd" clip-rule="evenodd" d="M314.776 88.4848C314.776 88.4848 311.501 84.4209 309.616 84.7128C307.732 85.0046 302.887 88.3949 305.444 90.4157C308.001 92.4364 312.174 95.0633 312.959 93.8284C313.787 92.1308 314.397 90.3354 314.776 88.4848Z" fill="#FC4C00"/>
<path fill-rule="evenodd" clip-rule="evenodd" d="M335.929 79.4139C335.929 79.4139 325.273 80.559 325.273 82.6246C325.273 88.2826 339.967 97.982 352.529 94.1427C357.779 92.5486 367.155 82.9165 365.271 79.4139L358.205 77.1687C358.205 77.1687 352.686 87.3396 345.283 87.3396C337.881 87.3396 335.929 79.4139 335.929 79.4139Z" fill="#FC4C00"/>
<path fill-rule="evenodd" clip-rule="evenodd" d="M355.49 92.6608C360.627 89.3828 366.707 82.3103 365.204 79.4139L358.137 77.1687C358.137 77.1687 353.112 86.4191 346.203 87.2723C348.992 89.5521 352.128 91.3712 355.49 92.6608Z" fill="#FFA17A"/>
<path fill-rule="evenodd" clip-rule="evenodd" d="M178.452 8.15022C178.452 8.15022 172.552 -0.875628 170.712 1.36606e-05C165.687 2.58203 163.758 20.2071 172.956 29.5249C176.792 33.4765 189.601 37.4281 191.867 34.1725L190.678 26.9428C190.678 26.9428 179.125 26.651 175.737 20.0724C172.35 13.4939 178.452 8.15022 178.452 8.15022Z" fill="#E3E3E3"/>
<path fill-rule="evenodd" clip-rule="evenodd" d="M175.602 31.6129C180.851 34.7113 189.936 36.9341 191.798 34.2398L190.676 26.9428C190.676 26.9428 180.155 26.6733 176.252 20.9255C175.467 24.4305 175.248 28.0385 175.602 31.6129Z" fill="#35375B"/>
<path fill-rule="evenodd" clip-rule="evenodd" d="M426.625 150.274C426.625 150.274 428.868 155.034 430.663 155.213C432.458 155.393 438.043 153.305 436.136 150.723C434.23 148.141 430.865 144.571 429.698 145.536C428.481 146.981 427.448 148.573 426.625 150.274Z" fill="#35375B"/>
<path fill-rule="evenodd" clip-rule="evenodd" d="M446.792 186.152C446.792 186.152 441.677 185.097 440.399 186.512C439.12 187.926 437.617 193.584 440.803 193.584C443.988 193.584 448.856 192.956 448.766 191.339C448.33 189.533 447.667 187.791 446.792 186.152Z" fill="#FC4C00"/>
<path fill-rule="evenodd" clip-rule="evenodd" d="M457.382 165.721C457.382 165.721 449.822 173.4 451.123 174.994C454.712 179.484 472.232 177.531 479.501 166.574C482.529 162.084 483.673 148.612 479.994 147.13L473.04 149.78C473.04 149.78 475.283 161.141 469.496 165.856C463.708 170.571 457.382 165.721 457.382 165.721Z" fill="#FC4C00"/>
<path fill-rule="evenodd" clip-rule="evenodd" d="M480.89 163.498C482.774 157.705 483.133 148.365 479.993 147.13L473.038 149.78C473.038 149.78 475.013 160.13 470.234 165.16C473.853 165.19 477.452 164.628 480.89 163.498Z" fill="#FFA17A"/>
<path fill-rule="evenodd" clip-rule="evenodd" d="M295.821 142.819C295.821 142.819 293.578 147.557 291.761 147.759C289.944 147.961 284.38 145.85 286.287 143.268C288.194 140.686 291.559 137.117 292.725 138.082C293.948 139.528 294.988 141.119 295.821 142.819Z" fill="#35375B"/>
<path fill-rule="evenodd" clip-rule="evenodd" d="M161.202 83.7248C161.202 83.7248 166.317 82.6696 167.595 84.1065C168.874 85.5435 170.399 91.179 167.191 91.1566C163.984 91.1341 159.138 90.5279 159.228 88.9113C159.674 87.1089 160.336 85.3673 161.202 83.7248Z" fill="#FC4C00"/>
<path fill-rule="evenodd" clip-rule="evenodd" d="M265.043 158.267C265.043 158.267 272.602 165.946 271.301 167.54C267.712 171.918 250.192 170.077 242.924 159.12C239.895 154.63 238.751 141.158 242.43 139.654L249.385 142.326C249.385 142.326 247.141 153.687 252.929 158.402C258.717 163.117 265.043 158.267 265.043 158.267Z" fill="#FC4C00"/>
<path fill-rule="evenodd" clip-rule="evenodd" d="M241.531 156.044C239.647 150.251 239.288 140.911 242.428 139.654L249.382 142.326C249.382 142.326 247.408 152.676 252.187 157.706C248.568 157.735 244.969 157.174 241.531 156.044Z" fill="#FFA17A"/>
<path fill-rule="evenodd" clip-rule="evenodd" d="M389.027 122.814C389.027 122.814 383.15 113.833 381.311 114.732C376.286 117.314 374.334 134.826 383.554 144.279C387.367 148.208 400.199 152.182 402.442 148.904L401.321 141.54C401.321 141.54 389.768 141.248 386.403 134.647C383.038 128.046 389.027 122.814 389.027 122.814Z" fill="#E3E3E3"/>
<path fill-rule="evenodd" clip-rule="evenodd" d="M386.181 146.3C391.452 149.376 400.515 151.598 402.377 148.904L401.255 141.54C401.255 141.54 390.734 141.27 386.854 135.5C386.049 139.04 385.822 142.687 386.181 146.3Z" fill="#35375B"/>
<path fill-rule="evenodd" clip-rule="evenodd" d="M30.0572 204.115C30.0572 204.115 24.1574 195.134 22.3179 196.032C17.2929 198.614 15.3637 216.239 24.5612 225.557C28.3972 229.508 41.2063 233.46 43.472 230.182L42.3279 222.817C42.3279 222.817 30.7975 222.525 27.4101 215.924C24.0228 209.323 30.0572 204.115 30.0572 204.115Z" fill="#E3E3E3"/>
<path fill-rule="evenodd" clip-rule="evenodd" d="M27.2075 227.577C32.4567 230.653 41.542 232.898 43.4039 230.182L42.2599 222.817C42.2599 222.817 31.7613 222.548 27.858 216.8C27.0604 220.334 26.8407 223.973 27.2075 227.577Z" fill="#35375B"/>
<path fill-rule="evenodd" clip-rule="evenodd" d="M100.091 92.4364C100.091 92.4364 97.848 97.1963 96.031 97.376C94.2139 97.5556 88.673 95.4675 90.5574 92.8855C92.4417 90.3035 95.8291 86.756 96.9956 87.7214C98.2168 89.1601 99.2565 90.7436 100.091 92.4364Z" fill="#35375B"/>
<path fill-rule="evenodd" clip-rule="evenodd" d="M348.916 164.082C348.916 164.082 345.641 160.018 343.757 160.31C341.873 160.602 337.027 163.992 339.584 166.013C342.142 168.034 346.314 170.638 347.099 169.426C347.925 167.727 348.535 165.932 348.916 164.082Z" fill="#FC4C00"/>
<path fill-rule="evenodd" clip-rule="evenodd" d="M113.889 24.6976C113.889 24.6976 110.614 20.6338 108.73 20.9256C106.845 21.2175 102 24.6078 104.557 26.6285C107.114 28.6493 111.287 31.2762 112.072 30.0413C112.9 28.3437 113.51 26.5483 113.889 24.6976Z" fill="#FC4C00"/>
<path fill-rule="evenodd" clip-rule="evenodd" d="M64.8757 227.106C64.8757 227.106 59.761 226.05 58.4823 227.465C57.2036 228.879 55.6782 234.537 58.8861 234.537C62.094 234.537 66.9395 233.909 66.8497 232.404C66.4127 230.563 65.7497 228.784 64.8757 227.106Z" fill="#FC4C00"/>
<path fill-rule="evenodd" clip-rule="evenodd" d="M249.473 220.392C249.473 220.392 246.175 216.306 244.313 216.598C242.451 216.89 237.584 220.303 240.141 222.323C242.698 224.344 246.871 226.948 247.656 225.736C248.471 224.033 249.081 222.239 249.473 220.392Z" fill="#FC4C00"/>
</svg>
