<svg width="415" height="522" viewBox="0 0 415 522" fill="none" xmlns="http://www.w3.org/2000/svg">
<path fill-rule="evenodd" clip-rule="evenodd" d="M122.903 488.721L160.869 485.358C156.212 431.899 162.105 412.471 157.845 362.331C156.256 343.899 154.512 325.423 151.51 307.168C150.097 298.516 147.096 288.847 146.389 279.487C145.813 278.562 145.063 277.758 144.182 277.12C141.867 275.795 139.231 275.136 136.567 275.217C123.963 274.464 111.315 274.177 98.6888 274.332C94.8465 274.151 91.0047 274.699 87.3652 275.947C77.7191 279.885 70.7881 289.621 68.2497 298.339C55.5796 341.709 68.6029 437.74 68.7794 485.358L105.951 488.721C106.9 448.892 107.54 439.621 111.933 361.158C112.992 387.888 119.747 464.669 122.903 488.721Z" fill="#FC4C00"/>
<path fill-rule="evenodd" clip-rule="evenodd" d="M111.38 169.847L74.2971 183.965C70.9038 185.514 67.9475 187.884 65.6937 190.862C63.4398 193.839 61.959 197.331 61.3842 201.025C54.0117 243.973 62.819 235.963 67.8958 265.193C67.2116 282.12 64.1434 288.139 63.2604 309.912C63.2604 309.912 94.9798 304.978 111.601 286.878C128.222 304.978 153.783 307.677 153.783 307.677C152.834 284.222 152.856 248.996 168.55 214.456C174.113 202.242 162.149 189.983 148.684 183.898L111.579 169.847V235.963L111.38 169.847Z" fill="#35375B"/>
<path fill-rule="evenodd" clip-rule="evenodd" d="M128.025 208.326L134.647 205.406C135.992 196.817 136.73 188.144 136.855 179.451L111.581 169.847V235.963V169.847L86.0859 179.451C86.2329 188.143 86.9704 196.814 88.2933 205.406L95.0698 208.326L89.3969 211.579C92.6196 227.666 98.9988 244.438 111.47 252.47C123.986 244.438 130.343 227.666 133.544 211.579L128.025 208.326Z" fill="white"/>
<path fill-rule="evenodd" clip-rule="evenodd" d="M119.328 263.312C119.328 263.811 119.13 264.289 118.778 264.642C118.426 264.995 117.949 265.193 117.451 265.193C117.074 265.197 116.704 265.089 116.389 264.882C116.073 264.674 115.826 264.377 115.68 264.029C115.534 263.68 115.494 263.296 115.567 262.924C115.639 262.553 115.82 262.212 116.087 261.945C116.354 261.677 116.694 261.496 117.065 261.423C117.435 261.35 117.818 261.39 118.166 261.536C118.514 261.683 118.81 261.931 119.017 262.247C119.224 262.563 119.332 262.934 119.328 263.312Z" fill="white"/>
<path fill-rule="evenodd" clip-rule="evenodd" d="M119.328 280.527C119.328 281.026 119.13 281.504 118.778 281.857C118.426 282.21 117.949 282.408 117.451 282.408C117.074 282.412 116.704 282.304 116.389 282.097C116.073 281.889 115.826 281.592 115.68 281.244C115.534 280.895 115.494 280.511 115.567 280.139C115.639 279.768 115.82 279.427 116.087 279.16C116.354 278.892 116.694 278.711 117.065 278.638C117.435 278.565 117.818 278.605 118.166 278.751C118.514 278.898 118.81 279.145 119.017 279.462C119.224 279.778 119.332 280.149 119.328 280.527Z" fill="white"/>
<path fill-rule="evenodd" clip-rule="evenodd" d="M120.76 172.68L114.403 177.835L107.008 174.317L105.75 163.696L119.502 162.081L120.76 172.68Z" fill="#FF9486"/>
<path fill-rule="evenodd" clip-rule="evenodd" d="M127.406 488.323L132.13 518.991C132.236 519.847 132.652 520.635 133.3 521.203C133.912 521.744 134.692 522.056 135.507 522.088H168.198C168.681 522.089 169.157 521.975 169.588 521.757C170.017 521.527 170.387 521.201 170.67 520.805C170.95 520.412 171.132 519.956 171.2 519.478C171.252 518.991 171.191 518.499 171.023 518.039C170.184 515.827 168.043 513.459 162.9 512.353C154.358 510.516 154.336 492.239 154.556 486.021L127.406 488.323Z" fill="#35375B"/>
<path fill-rule="evenodd" clip-rule="evenodd" d="M158.043 505.316C156.737 505.864 155.524 506.611 154.445 507.529C154.003 507.905 154.621 508.525 155.063 508.17C156.081 507.258 157.235 506.511 158.484 505.958C158.926 505.847 158.573 505.095 158.043 505.316Z" fill="#35375B"/>
<path fill-rule="evenodd" clip-rule="evenodd" d="M156.212 501.665C154.868 502.107 153.649 502.866 152.659 503.878C152.595 503.963 152.564 504.069 152.571 504.175C152.579 504.281 152.624 504.381 152.7 504.456C152.775 504.532 152.874 504.577 152.98 504.585C153.086 504.592 153.192 504.561 153.277 504.498C154.149 503.568 155.243 502.875 156.455 502.484C156.985 502.307 156.742 501.466 156.212 501.621V501.665Z" fill="#35375B"/>
<path fill-rule="evenodd" clip-rule="evenodd" d="M155.084 497.859C154.073 498.2 153.103 498.653 152.192 499.209C151.728 499.519 152.192 500.271 152.656 499.984C153.494 499.455 154.39 499.024 155.326 498.7C155.441 498.668 155.537 498.592 155.595 498.488C155.653 498.384 155.668 498.261 155.635 498.147C155.603 498.033 155.527 497.936 155.424 497.878C155.32 497.819 155.198 497.805 155.084 497.837V497.859Z" fill="#35375B"/>
<path fill-rule="evenodd" clip-rule="evenodd" d="M153.98 509.742L153.803 509.542C153.754 509.522 153.702 509.511 153.649 509.511C153.596 509.511 153.543 509.522 153.494 509.542C153.402 509.509 153.3 509.509 153.207 509.542C153.124 509.624 153.077 509.736 153.075 509.852C153.072 509.909 153.08 509.965 153.099 510.018C153.118 510.072 153.147 510.121 153.185 510.162L153.362 510.339C153.463 510.37 153.57 510.37 153.671 510.339C153.787 510.337 153.898 510.29 153.98 510.206C154.014 510.113 154.014 510.012 153.98 509.919C153.993 509.86 153.993 509.8 153.98 509.742Z" fill="#35375B"/>
<path fill-rule="evenodd" clip-rule="evenodd" d="M150.606 506.467C150.657 506.464 150.707 506.45 150.752 506.428C150.798 506.405 150.838 506.373 150.871 506.334C150.929 506.249 150.96 506.149 150.96 506.046C150.96 505.944 150.929 505.843 150.871 505.759C150.843 505.718 150.805 505.684 150.761 505.661C150.716 505.638 150.667 505.626 150.617 505.626C150.567 505.626 150.518 505.638 150.474 505.661C150.43 505.684 150.392 505.718 150.364 505.759C150.291 505.837 150.25 505.939 150.25 506.046C150.25 506.153 150.291 506.256 150.364 506.334C150.425 506.408 150.511 506.455 150.606 506.467Z" fill="#35375B"/>
<path fill-rule="evenodd" clip-rule="evenodd" d="M149.477 502.462C149.572 502.437 149.657 502.383 149.72 502.307C149.748 502.221 149.748 502.128 149.72 502.041C149.754 501.956 149.754 501.861 149.72 501.776C149.665 501.687 149.578 501.624 149.477 501.599C149.385 501.631 149.307 501.693 149.256 501.776C149.222 501.861 149.222 501.956 149.256 502.041C149.228 502.128 149.228 502.221 149.256 502.307C149.315 502.378 149.391 502.431 149.477 502.462Z" fill="#35375B"/>
<path fill-rule="evenodd" clip-rule="evenodd" d="M101.293 488.3L96.5698 518.991C96.4402 519.818 96.0241 520.573 95.3943 521.123C94.7646 521.674 93.9616 521.984 93.1264 522H60.502C60.0186 522.003 59.5415 521.889 59.1114 521.668C58.675 521.45 58.3024 521.122 58.0298 520.717C57.7494 520.323 57.5677 519.868 57.5001 519.389C57.4409 518.904 57.4938 518.412 57.6546 517.951C58.5155 515.738 60.6566 513.37 65.7996 512.264C74.3641 510.428 74.3641 491.996 74.1213 485.844L101.293 488.3Z" fill="#35375B"/>
<path fill-rule="evenodd" clip-rule="evenodd" d="M70.6319 505.316C71.9467 505.859 73.1683 506.606 74.2519 507.529C74.6934 507.905 74.0753 508.525 73.6339 508.17C72.6123 507.263 71.4586 506.517 70.2125 505.958C69.6828 505.847 70.1242 505.095 70.6319 505.316Z" fill="#35375B"/>
<path fill-rule="evenodd" clip-rule="evenodd" d="M72.4881 501.665C73.8325 502.107 75.0513 502.866 76.0419 503.878C76.1057 503.963 76.1366 504.069 76.1291 504.175C76.1216 504.281 76.0761 504.381 76.0009 504.456C75.9258 504.532 75.826 504.577 75.72 504.585C75.614 504.592 75.5089 504.561 75.4239 504.498C74.5477 503.572 73.4553 502.88 72.2453 502.484C71.7156 502.307 71.9584 501.466 72.4881 501.621V501.665Z" fill="#35375B"/>
<path fill-rule="evenodd" clip-rule="evenodd" d="M73.6116 497.859C74.6155 498.2 75.5781 498.653 76.4812 499.209C76.9668 499.519 76.4812 500.271 76.0397 499.984C75.1991 499.459 74.3034 499.028 73.3688 498.7C73.2546 498.668 73.1579 498.592 73.1 498.488C73.042 498.384 73.0276 498.261 73.0598 498.147C73.092 498.033 73.1682 497.936 73.2717 497.878C73.3752 497.819 73.4974 497.805 73.6116 497.837V497.859Z" fill="#35375B"/>
<path fill-rule="evenodd" clip-rule="evenodd" d="M74.6949 509.742L74.8936 509.542C74.9425 509.522 74.995 509.511 75.0481 509.511C75.1012 509.511 75.1537 509.522 75.2026 509.542C75.2953 509.509 75.3969 509.509 75.4896 509.542C75.5727 509.624 75.6203 509.735 75.622 509.852C75.6527 509.953 75.6527 510.061 75.622 510.162L75.4233 510.339C75.3306 510.373 75.2291 510.373 75.1364 510.339C75.0199 510.337 74.9089 510.29 74.8274 510.206C74.7572 510.125 74.7113 510.025 74.6949 509.919C74.685 509.86 74.685 509.8 74.6949 509.742Z" fill="#35375B"/>
<path fill-rule="evenodd" clip-rule="evenodd" d="M78.0712 506.467C77.9763 506.455 77.8895 506.408 77.8284 506.334C77.7554 506.256 77.7148 506.153 77.7148 506.046C77.7148 505.939 77.7554 505.837 77.8284 505.759C77.8568 505.718 77.8948 505.684 77.939 505.661C77.9832 505.638 78.0323 505.626 78.0822 505.626C78.1321 505.626 78.1812 505.638 78.2255 505.661C78.2697 505.684 78.3076 505.718 78.3361 505.759C78.394 505.843 78.4249 505.944 78.4249 506.046C78.4249 506.149 78.394 506.249 78.3361 506.334C78.3032 506.373 78.2628 506.405 78.2172 506.428C78.1717 506.45 78.122 506.464 78.0712 506.467Z" fill="#35375B"/>
<path fill-rule="evenodd" clip-rule="evenodd" d="M79.1992 502.462C79.1099 502.438 79.0318 502.383 78.9785 502.307C78.9499 502.221 78.9499 502.128 78.9785 502.041C78.9807 501.945 79.0112 501.852 79.0662 501.773C79.1211 501.694 79.1982 501.634 79.2875 501.599C79.3884 501.624 79.4756 501.687 79.5303 501.776C79.5647 501.861 79.5647 501.956 79.5303 502.041C79.5589 502.128 79.5589 502.221 79.5303 502.307C79.4678 502.383 79.3828 502.437 79.2875 502.462H79.1992Z" fill="#35375B"/>
<path fill-rule="evenodd" clip-rule="evenodd" d="M101.535 156.615L102.992 172.591L111.579 177.437L102.992 172.591C102.992 172.591 98.5773 217.288 111.579 236.03C124.624 217.288 127.184 177.393 127.184 177.393C127.184 177.393 125.727 161.904 125.507 161.705C125.286 161.506 101.535 156.615 101.535 156.615Z" fill="#E3E3E3"/>
<path fill-rule="evenodd" clip-rule="evenodd" d="M101.535 156.615L102.705 169.892C103.099 171.029 103.74 172.064 104.581 172.923C105.417 173.787 106.446 174.439 107.583 174.826C109.15 175.401 111.402 179.251 114.36 178.654C119.9 177.703 126.61 171.75 126.61 171.75C126.61 171.75 125.683 161.771 125.463 161.55C125.242 161.329 101.535 156.615 101.535 156.615Z" fill="#35375B"/>
<path fill-rule="evenodd" clip-rule="evenodd" d="M120.407 138.184C119.656 140.994 118.2 150.11 123.608 151.46C129.016 152.81 133.651 146.68 135.726 141.724C137.933 136.192 133.408 127.983 124.822 126.368C119.436 125.306 121.775 133.227 120.407 138.184Z" fill="#35375B"/>
<path fill-rule="evenodd" clip-rule="evenodd" d="M131.886 134.975C132.129 138.206 133.497 145.242 133.431 148.119C133.365 150.995 131.444 163.608 129.679 167.325C127.206 172.392 112.219 170.755 108.731 168.608C103.742 165.577 103.367 156.616 103.367 156.616C103.367 156.616 104.824 134.488 104.559 134.776C104.294 135.064 131.886 134.975 131.886 134.975Z" fill="#FFA17A"/>
<path fill-rule="evenodd" clip-rule="evenodd" d="M108.268 130.55C107.76 134.201 114.89 139.954 121.181 140.595C123.519 140.99 125.921 140.679 128.083 139.702C130.245 138.725 132.068 137.126 133.321 135.108C135.528 131.191 131.29 123.115 121.953 122.053C110.563 120.747 108.753 126.899 108.268 130.55Z" fill="#35375B"/>
<path fill-rule="evenodd" clip-rule="evenodd" d="M97.2311 134.068C96.0612 136.79 96.8337 147.499 102.131 148.782C107.429 150.066 114.823 143.229 115.817 137.984C116.369 135.086 117.075 127.74 111.799 126.456C108.867 125.824 105.806 126.239 103.146 127.629C100.486 129.018 98.3937 131.296 97.2311 134.068Z" fill="#35375B"/>
<path fill-rule="evenodd" clip-rule="evenodd" d="M120.163 149.336C120.272 149.326 120.377 149.293 120.472 149.24C120.568 149.187 120.65 149.114 120.715 149.026C120.843 148.855 120.898 148.64 120.87 148.428C120.865 148.321 120.838 148.216 120.789 148.12C120.741 148.025 120.672 147.94 120.589 147.873C120.505 147.806 120.408 147.758 120.304 147.732C120.201 147.705 120.092 147.701 119.987 147.72L116.985 147.986C116.877 147.987 116.77 148.013 116.674 148.063C116.579 148.113 116.496 148.185 116.433 148.274C116.303 148.437 116.233 148.64 116.234 148.849C116.256 149.063 116.359 149.261 116.521 149.402C116.6 149.476 116.695 149.533 116.798 149.567C116.9 149.602 117.01 149.613 117.117 149.601L120.23 149.336H120.163Z" fill="#35375B"/>
<path fill-rule="evenodd" clip-rule="evenodd" d="M117.669 149.468C117.647 149.593 117.647 149.72 117.669 149.845C117.69 149.97 117.735 150.09 117.802 150.199C117.851 150.317 117.936 150.418 118.045 150.486C118.141 150.564 118.254 150.618 118.376 150.641C118.517 150.673 118.663 150.674 118.804 150.643C118.945 150.612 119.077 150.551 119.193 150.464C119.422 150.327 119.589 150.104 119.656 149.845C119.679 149.72 119.679 149.593 119.656 149.468C119.645 149.34 119.606 149.216 119.541 149.105C119.476 148.994 119.387 148.899 119.281 148.827C119.182 148.753 119.069 148.7 118.95 148.672C118.692 148.625 118.426 148.672 118.199 148.805C117.981 148.944 117.817 149.155 117.736 149.402L117.669 149.468Z" fill="#35375B"/>
<path fill-rule="evenodd" clip-rule="evenodd" d="M130.65 149.358C130.757 149.361 130.863 149.339 130.959 149.293C131.055 149.247 131.138 149.178 131.202 149.092C131.28 149.019 131.34 148.93 131.378 148.83C131.417 148.73 131.432 148.623 131.423 148.517C131.423 148.41 131.402 148.303 131.36 148.204C131.319 148.106 131.257 148.016 131.18 147.942C131.011 147.804 130.802 147.727 130.584 147.72L127.472 147.566C127.364 147.533 127.249 147.533 127.141 147.566C127.041 147.595 126.95 147.648 126.876 147.72C126.786 147.788 126.717 147.88 126.677 147.986C126.665 148.089 126.665 148.193 126.677 148.296C126.654 148.398 126.654 148.504 126.677 148.606C126.706 148.712 126.759 148.81 126.832 148.893C126.907 148.969 126.997 149.03 127.097 149.07C127.197 149.102 127.305 149.102 127.406 149.07L130.54 149.247L130.65 149.358Z" fill="#35375B"/>
<path fill-rule="evenodd" clip-rule="evenodd" d="M130.077 149.336C130.101 149.599 130.022 149.86 129.856 150.066C129.698 150.268 129.469 150.402 129.216 150.442C129.09 150.471 128.958 150.47 128.831 150.44C128.705 150.409 128.587 150.349 128.488 150.265C128.39 150.185 128.308 150.087 128.245 149.977C128.176 149.872 128.137 149.749 128.135 149.623C128.107 149.364 128.178 149.103 128.333 148.893C128.502 148.688 128.736 148.547 128.996 148.495C129.12 148.473 129.247 148.473 129.371 148.495C129.491 148.523 129.603 148.576 129.702 148.65C129.807 148.723 129.89 148.822 129.945 148.937C130.014 149.06 130.059 149.196 130.077 149.336Z" fill="#35375B"/>
<path fill-rule="evenodd" clip-rule="evenodd" d="M124.667 158.983C125.643 158.922 126.576 158.559 127.338 157.943C127.559 157.728 127.726 157.462 127.823 157.169C127.926 156.87 127.963 156.553 127.933 156.239C127.817 155.46 127.555 154.709 127.161 154.027C125.851 151.334 125.286 148.339 125.527 145.353C125.523 145.137 125.436 144.931 125.285 144.778C125.21 144.7 125.121 144.639 125.023 144.597C124.924 144.555 124.818 144.534 124.711 144.534H124.402C124.305 144.569 124.215 144.621 124.137 144.689L123.96 144.955C123.942 145.057 123.942 145.162 123.96 145.264C123.69 148.582 124.331 151.911 125.814 154.89C126.104 155.39 126.305 155.936 126.41 156.505C126.421 156.571 126.421 156.638 126.41 156.704C126.421 156.755 126.421 156.808 126.41 156.859C125.032 157.5 123.486 157.686 121.996 157.39H121.4C121.294 157.419 121.196 157.472 121.113 157.545C121.023 157.61 120.948 157.693 120.892 157.788C120.87 157.89 120.87 157.996 120.892 158.098C120.869 158.2 120.869 158.306 120.892 158.408C120.93 158.51 120.982 158.607 121.047 158.695C121.111 158.78 121.194 158.848 121.289 158.895C121.398 158.925 121.512 158.925 121.621 158.895C122.63 159.03 123.651 159.06 124.667 158.983Z" fill="#35375B"/>
<path fill-rule="evenodd" clip-rule="evenodd" d="M122.725 163.032H123.056C123.172 163.013 123.283 162.966 123.378 162.897C123.474 162.828 123.552 162.738 123.608 162.634C123.667 162.54 123.705 162.434 123.718 162.324C123.741 162.222 123.741 162.117 123.718 162.014C123.697 161.91 123.652 161.811 123.586 161.727C123.53 161.637 123.454 161.562 123.365 161.506C123.166 161.431 122.946 161.431 122.747 161.506C121.802 161.664 120.832 161.459 120.032 160.93C119.944 160.866 119.844 160.82 119.737 160.798C119.631 160.775 119.521 160.775 119.414 160.797C119.208 160.837 119.025 160.956 118.906 161.129C118.784 161.31 118.737 161.53 118.774 161.745C118.811 161.96 118.93 162.151 119.105 162.28C120.188 162.989 121.485 163.295 122.769 163.143L122.725 163.032Z" fill="#35375B"/>
<path fill-rule="evenodd" clip-rule="evenodd" d="M101.316 157.81C105.554 157.987 105.841 150.221 105.841 150.221C105.841 150.221 103.104 144.645 99.2193 144.468C91.3612 144.158 96.8795 157.633 101.316 157.81Z" fill="#FFA17A"/>
<path fill-rule="evenodd" clip-rule="evenodd" d="M101.977 154.469C102.184 154.429 102.371 154.32 102.507 154.159C102.638 153.989 102.701 153.776 102.684 153.562C102.561 152.25 102.17 150.977 101.536 149.822C100.889 148.678 100.009 147.683 98.9534 146.902C98.8613 146.835 98.7558 146.79 98.6443 146.769C98.5425 146.747 98.4371 146.747 98.3353 146.769C98.2238 146.79 98.1183 146.835 98.0263 146.902C97.9366 146.967 97.8614 147.049 97.8056 147.145C97.7931 147.241 97.7931 147.337 97.8056 147.433C97.7836 147.542 97.7836 147.655 97.8056 147.765C97.8437 147.867 97.8957 147.964 97.9601 148.052C98.0163 148.142 98.0917 148.217 98.1808 148.274C99.0436 148.922 99.7594 149.746 100.281 150.692C100.802 151.638 101.117 152.684 101.205 153.761C101.241 153.969 101.351 154.158 101.514 154.292C101.683 154.425 101.896 154.489 102.11 154.469H101.977Z" fill="#35375B"/>
<path fill-rule="evenodd" clip-rule="evenodd" d="M101.162 151.593C101.271 151.593 101.379 151.569 101.478 151.523C101.577 151.478 101.665 151.411 101.736 151.327C101.814 151.254 101.874 151.164 101.912 151.065C101.95 150.965 101.966 150.858 101.957 150.752C101.957 150.644 101.936 150.538 101.894 150.439C101.852 150.34 101.791 150.251 101.714 150.176C101.638 150.102 101.549 150.044 101.45 150.006C101.351 149.968 101.246 149.951 101.14 149.955L97.6966 149.69H97.3875L97.0785 149.845C96.9954 149.919 96.9278 150.009 96.8799 150.11C96.8578 150.212 96.8578 150.318 96.8799 150.42C96.8584 150.529 96.8584 150.642 96.8799 150.752C96.9223 150.857 96.982 150.954 97.0564 151.039C97.1319 151.116 97.222 151.176 97.3213 151.216H97.6303L101.052 151.46L101.162 151.593Z" fill="#35375B"/>
<path fill-rule="evenodd" clip-rule="evenodd" d="M105.376 146.26C107.406 145.394 109.188 144.034 110.56 142.303C111.932 140.572 112.852 138.525 113.234 136.347C113.277 136.134 113.237 135.913 113.124 135.728C112.997 135.553 112.807 135.434 112.594 135.396C112.389 135.354 112.175 135.394 111.998 135.506C111.819 135.633 111.693 135.822 111.645 136.037C111.327 137.893 110.57 139.646 109.438 141.149C108.276 142.661 106.76 143.862 105.023 144.645C104.86 144.69 104.715 144.782 104.604 144.91C104.514 145.043 104.453 145.194 104.427 145.353C104.373 145.503 104.373 145.667 104.427 145.817C104.494 145.97 104.611 146.095 104.758 146.171C104.91 146.215 105.07 146.215 105.222 146.171L105.376 146.26Z" fill="#E3E3E3"/>
<path fill-rule="evenodd" clip-rule="evenodd" d="M104.094 141.724C104.195 141.755 104.303 141.755 104.403 141.724C105.597 140.96 106.579 139.907 107.258 138.661C107.937 137.416 108.292 136.018 108.288 134.599C108.272 134.388 108.176 134.191 108.02 134.047C107.865 133.903 107.661 133.824 107.45 133.825C107.233 133.843 107.03 133.937 106.876 134.09C106.736 134.248 106.665 134.455 106.677 134.665C106.668 135.797 106.377 136.908 105.829 137.898C105.282 138.887 104.496 139.724 103.543 140.33C103.385 140.431 103.262 140.578 103.189 140.75C103.135 140.931 103.135 141.123 103.189 141.304C103.254 141.475 103.369 141.621 103.521 141.724C103.693 141.776 103.877 141.776 104.05 141.724H104.094Z" fill="#E3E3E3"/>
<path fill-rule="evenodd" clip-rule="evenodd" d="M131.356 146.68C131.464 146.677 131.571 146.651 131.669 146.606C131.768 146.56 131.856 146.495 131.93 146.415C132.07 146.256 132.148 146.052 132.15 145.84C132.132 145.623 132.038 145.419 131.886 145.264C131.81 145.19 131.72 145.132 131.621 145.094C131.523 145.056 131.417 145.039 131.312 145.043L124.69 144.6C124.58 144.578 124.468 144.578 124.359 144.6C124.255 144.632 124.163 144.694 124.094 144.777C124.01 144.842 123.941 144.925 123.895 145.021C123.875 145.123 123.875 145.228 123.895 145.331C123.874 145.44 123.874 145.553 123.895 145.663C123.924 145.762 123.977 145.853 124.049 145.928C124.117 146.018 124.209 146.087 124.314 146.127C124.415 146.159 124.523 146.159 124.623 146.127L131.245 146.592L131.356 146.68Z" fill="#35375B"/>
<path fill-rule="evenodd" clip-rule="evenodd" d="M114.781 146.791L120.564 146.039C120.721 146.018 120.869 145.952 120.989 145.849C121.11 145.745 121.198 145.609 121.242 145.457C121.286 145.304 121.286 145.142 121.24 144.99C121.194 144.838 121.105 144.703 120.984 144.6C120.814 144.469 120.602 144.406 120.388 144.423L114.538 145.132C114.332 145.158 114.144 145.261 114.009 145.419C113.874 145.596 113.811 145.817 113.832 146.039C113.845 146.144 113.879 146.245 113.932 146.336C113.985 146.428 114.056 146.507 114.141 146.57C114.31 146.703 114.523 146.766 114.737 146.747L114.781 146.791Z" fill="#35375B"/>
<path fill-rule="evenodd" clip-rule="evenodd" d="M126.59 170.91L114.781 178.344L128.312 189.563C127.606 178.366 126.59 170.91 126.59 170.91Z" fill="white"/>
<path fill-rule="evenodd" clip-rule="evenodd" d="M103.016 170.91L114.781 178.344L101.25 189.563C101.978 178.366 103.016 170.91 103.016 170.91Z" fill="white"/>
<path fill-rule="evenodd" clip-rule="evenodd" d="M118.796 180.579C116.212 183.182 113.016 185.092 109.503 186.133C102.95 190.547 97.1443 195.985 92.3081 202.241C87.8935 207.641 84.8474 213.814 80.8521 219.434C77.5484 223.487 73.1954 226.549 68.2703 228.285C61.7297 231.083 54.8844 233.103 47.8746 234.304L40.7891 227.201L48.912 217.73C48.912 217.73 65.7098 221.094 77.2541 207.419C88.7985 193.745 99.791 186.31 108.466 182.748L109.989 178.72L113.278 175.999L118.796 180.579Z" fill="#FC4C00"/>
<path fill-rule="evenodd" clip-rule="evenodd" d="M110.562 235.963V185.867C111.198 185.68 111.818 185.443 112.417 185.159V236.052L110.562 235.963Z" fill="white"/>
<path fill-rule="evenodd" clip-rule="evenodd" d="M148.002 235.056L162.813 202.308C163.09 201.687 163.501 201.134 164.016 200.691C164.532 200.247 165.138 199.923 165.793 199.741L225.986 183.19C227.002 182.925 229.077 185.403 228.613 186.376L206.717 227.134C206.014 228.565 204.801 229.679 203.317 230.254L146.699 251.762L148.002 235.056Z" fill="#253151"/>
<path fill-rule="evenodd" clip-rule="evenodd" d="M149.083 237.468L163.872 204.72C164.157 204.099 164.573 203.549 165.091 203.105C165.609 202.662 166.218 202.337 166.874 202.153L227.068 185.624C227.295 185.559 227.537 185.562 227.762 185.633C227.988 185.704 228.188 185.839 228.339 186.023C228.489 186.206 228.582 186.429 228.607 186.665C228.632 186.901 228.588 187.139 228.48 187.35L207.798 229.546C207.092 230.983 205.869 232.098 204.376 232.666L147.891 254.174L149.083 237.468Z" fill="#F4F1F1"/>
<path fill-rule="evenodd" clip-rule="evenodd" d="M156.056 242.491C156.056 242.491 157.469 245.788 150.56 252.16C143.651 258.533 133.166 254.373 133.166 254.373L126.655 259.329L123.079 236.406C86.5255 254.329 93.8539 250.722 127.295 234.326C127.295 234.326 133.365 224.59 136.257 221.05C139.148 217.509 142.415 217.022 143.453 219.257C144.49 221.492 137.934 230.697 137.934 230.697C141.263 230.123 144.524 229.211 147.669 227.975C154.953 225.453 159.698 220.209 161.663 221.78C163.628 223.351 162.524 227.975 159.897 231.538C160.038 233.53 159.77 235.529 159.109 237.413C158.449 239.297 157.41 241.025 156.056 242.491Z" fill="#FFA17A"/>
<path fill-rule="evenodd" clip-rule="evenodd" d="M95.2652 238.972L70.1016 261.232L68.2695 252.381L83.0586 243.708L94.8679 236.76L95.2652 238.972Z" fill="#EE83A9"/>
<path fill-rule="evenodd" clip-rule="evenodd" d="M159.366 231.383C159.441 231.247 159.564 231.144 159.711 231.095C159.859 231.045 160.019 231.053 160.16 231.117C160.295 231.188 160.396 231.309 160.441 231.454C160.487 231.599 160.473 231.757 160.403 231.892C157.843 237.047 144.201 238.972 144.157 238.972C144.005 238.996 143.85 238.958 143.726 238.867C143.601 238.775 143.518 238.638 143.495 238.486C143.472 238.333 143.51 238.177 143.601 238.053C143.692 237.928 143.828 237.845 143.981 237.822C143.981 237.822 157.092 235.985 159.366 231.383Z" fill="#35375B"/>
<path fill-rule="evenodd" clip-rule="evenodd" d="M155.636 242.115C155.689 242.06 155.753 242.017 155.823 241.988C155.893 241.959 155.968 241.943 156.044 241.943C156.12 241.943 156.196 241.959 156.266 241.988C156.336 242.017 156.399 242.06 156.453 242.115C156.506 242.166 156.549 242.228 156.578 242.296C156.607 242.365 156.622 242.438 156.622 242.513C156.622 242.587 156.607 242.661 156.578 242.729C156.549 242.798 156.506 242.86 156.453 242.911C150.824 248.952 141.597 247.514 141.575 247.514C141.5 247.503 141.427 247.477 141.361 247.438C141.296 247.398 141.238 247.346 141.193 247.284C141.148 247.222 141.115 247.152 141.098 247.077C141.08 247.003 141.077 246.925 141.09 246.85C141.098 246.775 141.121 246.702 141.158 246.636C141.195 246.571 141.245 246.513 141.305 246.468C141.365 246.422 141.434 246.389 141.507 246.371C141.58 246.353 141.656 246.35 141.73 246.363C141.73 246.363 150.427 247.691 155.636 242.115Z" fill="#35375B"/>
<path fill-rule="evenodd" clip-rule="evenodd" d="M105.4 275.504C102.409 277.765 98.8964 279.231 95.1886 279.765C91.4809 280.3 87.6986 279.885 84.1936 278.56C80.6887 277.235 77.5751 275.043 75.1426 272.187C72.7101 269.332 71.0378 265.906 70.2812 262.228L70.1046 261.254L66.5508 252.404L82.9071 242.137L94.8708 235.499L95.2681 238.95L97.1002 249.129L123.08 236.406L126.789 260.17L105.4 275.504Z" fill="#35375B"/>
<path fill-rule="evenodd" clip-rule="evenodd" d="M128.156 263.135L106.965 269.773C101.299 262.066 98.1462 252.793 97.9375 243.221L122.483 235.122L128.156 263.135Z" fill="white"/>
<path fill-rule="evenodd" clip-rule="evenodd" d="M128.311 263.666L106.768 270.504L106.525 270.172C103.716 266.428 101.518 262.26 100.013 257.825C98.4658 253.163 97.5815 248.307 97.3867 243.398V242.978L122.903 234.547L128.797 263.534L128.311 263.688V263.666ZM107.165 269.198L127.517 262.759L122.065 235.963L98.5125 243.73C98.7194 248.408 99.5813 253.033 101.073 257.471C102.483 261.674 104.539 265.63 107.165 269.198Z" fill="#35375B"/>
<path fill-rule="evenodd" clip-rule="evenodd" d="M110.873 244.217C110.388 243.781 109.785 243.5 109.14 243.409C108.496 243.317 107.839 243.42 107.252 243.703C106.666 243.986 106.176 244.437 105.846 245C105.515 245.562 105.359 246.21 105.396 246.861C105.433 247.513 105.662 248.139 106.054 248.659C106.447 249.18 106.984 249.573 107.599 249.787C108.214 250.001 108.878 250.028 109.508 249.864C110.138 249.699 110.706 249.351 111.138 248.863C111.716 248.211 112.013 247.356 111.963 246.485C111.913 245.614 111.521 244.798 110.873 244.217Z" fill="#35375B"/>
<path fill-rule="evenodd" clip-rule="evenodd" d="M156.719 250.81L165.769 253.576C167.66 254.154 169.648 254.343 171.613 254.133C173.579 253.922 175.482 253.317 177.209 252.352C178.936 251.387 180.451 250.083 181.664 248.518C182.876 246.953 183.761 245.159 184.266 243.243L185.127 240.012L156.719 250.81Z" fill="#35375B"/>
<path fill-rule="evenodd" clip-rule="evenodd" d="M262.452 42.3291C259.943 41.2351 257.134 41.0497 254.504 41.8046C251.874 42.5595 249.588 44.2078 248.038 46.4669L202.147 125.881L192.965 117.539C190.857 115.752 188.209 114.729 185.449 114.637C182.689 114.544 179.979 115.388 177.756 117.03C176.744 117.736 175.908 118.665 175.311 119.746C174.715 120.828 174.375 122.032 174.317 123.266C174.26 124.501 174.486 125.732 174.979 126.864C175.472 127.997 176.219 129 177.16 129.797L197.026 147.875C199.06 149.663 201.651 150.688 204.355 150.774C205.089 150.831 205.827 150.831 206.562 150.774C208.207 150.616 209.794 150.084 211.201 149.217C212.609 148.35 213.801 147.172 214.685 145.773L267.462 54.4769C270.023 49.9187 267.771 44.4976 262.452 42.3291Z" fill="#FFA17A" stroke="#FC4C00" stroke-width="4" stroke-miterlimit="10"/>
<path fill-rule="evenodd" clip-rule="evenodd" d="M0.615211 99.5312C0.615211 99.5312 -3.26969 151.198 24.8958 172.927L71.0952 169.785C71.0952 169.785 43.9451 138.254 46.3511 107.984L0.615211 99.5312Z" fill="white"/>
<path fill-rule="evenodd" clip-rule="evenodd" d="M1.03575 100.04C0.726724 105.328 -1.17158 152.039 24.9853 172.462L70.1472 169.364C66.3065 164.695 43.9021 136.173 45.8666 108.293L1.03575 100.04ZM24.588 173.258C-3.73208 151.397 0.174892 99.6417 0.174892 99.4868V99L46.7275 107.63V108.028C44.4098 138.121 71.295 169.364 71.3833 169.497L71.9352 170.183C56.1969 171.245 40.4586 172.396 24.7204 173.369L24.588 173.258Z" fill="#35375B"/>
<path opacity="0.32" fill-rule="evenodd" clip-rule="evenodd" d="M42.2678 110.816C42.2678 110.816 43.1066 131.815 47.9406 139.227L8.82674 137.501C6.01032 126.851 4.70254 115.857 4.94184 104.842L42.2678 110.816Z" fill="#F4F1F1"/>
<path opacity="0.32" fill-rule="evenodd" clip-rule="evenodd" d="M42.7087 110.794C42.7087 110.794 43.5474 131.682 48.3153 138.984L48.7788 139.714L8.49505 137.944V137.634C5.59834 126.943 4.22356 115.896 4.41149 104.819V104.311C17.1257 106.361 29.8546 108.404 42.5983 110.44V110.794H42.7087ZM47.1233 138.762C42.9735 131.328 41.9361 113.914 41.9361 111.192L5.36064 105.351C5.17866 116.053 6.46355 126.729 9.17932 137.081L47.1233 138.762Z" fill="#35375B"/>
<path opacity="0.32" fill-rule="evenodd" clip-rule="evenodd" d="M49.4873 143.032C49.4873 143.032 56.9702 157.613 59.8839 160.733L20.8141 162.68C16.1499 156.569 12.5867 149.687 10.2852 142.346L49.4873 143.032Z" fill="#F4F1F1"/>
<path opacity="0.32" fill-rule="evenodd" clip-rule="evenodd" d="M49.883 142.811C49.883 142.811 57.3217 157.326 60.1912 160.313L60.8755 160.999C47.4549 161.685 34.0343 162.393 20.6138 163.035L20.4813 162.858C15.7749 156.699 12.1746 149.766 9.84201 142.368L9.6875 141.793L49.7505 142.59L49.883 142.833V142.811ZM58.9551 160.225C55.3666 154.834 52.1155 149.225 49.2208 143.43L10.8574 142.811C13.1331 149.822 16.5733 156.398 21.0332 162.261L58.9551 160.225Z" fill="#35375B"/>
<path opacity="0.36" fill-rule="evenodd" clip-rule="evenodd" d="M44.4996 107.651C39.7318 110.815 15.4511 128.251 11.0365 156.087C8.77835 151.738 6.92375 147.19 5.49609 142.501C11.8532 125.021 24.5012 112.364 32.7787 105.549L44.4996 107.651Z" fill="white"/>
<path opacity="0.36" fill-rule="evenodd" clip-rule="evenodd" d="M40.502 110.528C30.8472 117.881 22.8575 127.202 17.0602 137.877L8.82682 137.501C8.82682 137.501 8.65023 136.859 8.36328 135.686C13.5033 125.459 20.5286 116.299 29.068 108.691L40.502 110.528Z" fill="white"/>
<path opacity="0.36" fill-rule="evenodd" clip-rule="evenodd" d="M14.9637 142.346C14.1033 144.47 13.3663 146.642 12.7564 148.851C11.8004 146.702 11.0108 144.483 10.3945 142.213L14.9637 142.346Z" fill="white"/>
<path opacity="0.36" fill-rule="evenodd" clip-rule="evenodd" d="M47.6776 124.8C39.0248 131.748 23.397 146.705 19.49 168.036C16.907 165.256 14.6278 162.207 12.6914 158.942C20.0197 135.288 39.2456 119.865 46.3532 114.887C46.5287 118.221 46.9716 121.536 47.6776 124.8Z" fill="white"/>
<path opacity="0.36" fill-rule="evenodd" clip-rule="evenodd" d="M44.1464 127.742C40.3561 131.065 36.8489 134.699 33.6616 138.607L23.0664 138.142C28.6024 130.351 35.2343 123.405 42.7558 117.52C43.0648 120.507 43.5063 124.18 44.1464 127.742Z" fill="white"/>
<path opacity="0.36" fill-rule="evenodd" clip-rule="evenodd" d="M30.5922 142.656C26.215 148.684 22.9003 155.42 20.7916 162.57C18.5472 159.601 16.5326 156.465 14.7656 153.188C16.2962 149.475 18.127 145.893 20.2398 142.479L30.5922 142.656Z" fill="white"/>
<path fill-rule="evenodd" clip-rule="evenodd" d="M414.359 200.095C414.359 200.095 418.266 251.784 390.078 273.491L343.879 270.371C343.879 270.371 371.051 238.84 368.623 208.57L414.359 200.095Z" fill="white"/>
<path fill-rule="evenodd" clip-rule="evenodd" d="M413.962 200.626C414.271 205.893 416.169 252.625 390.012 273.048L344.85 269.95C348.669 265.282 371.095 236.76 369.131 208.88L413.939 200.582L413.962 200.626ZM390.409 273.845C418.729 251.983 414.822 200.228 414.69 200.073V199.586L368.137 208.194V208.592C370.477 238.685 343.57 269.995 343.504 270.083L342.93 270.747C358.668 271.831 374.428 272.96 390.167 273.955L390.409 273.845Z" fill="#35375B"/>
<path opacity="0.32" fill-rule="evenodd" clip-rule="evenodd" d="M372.704 211.402C372.704 211.402 371.865 232.401 367.031 239.813L406.145 238.087C408.961 227.43 410.268 216.428 410.03 205.406L372.704 211.402Z" fill="#F4F1F1"/>
<path opacity="0.32" fill-rule="evenodd" clip-rule="evenodd" d="M372.288 211.38C372.288 211.38 371.449 232.246 366.681 239.57L366.195 240.3L406.501 238.508V238.198C409.379 227.512 410.746 216.473 410.563 205.406V204.897C397.848 206.962 385.119 209.005 372.376 211.026V211.38H372.288ZM367.873 239.326C372.023 231.914 373.038 214.5 373.17 211.778L409.658 205.915C409.841 216.624 408.556 227.308 405.839 237.667L367.873 239.326Z" fill="#35375B"/>
<path opacity="0.32" fill-rule="evenodd" clip-rule="evenodd" d="M365.51 243.597C365.51 243.597 358.027 258.201 355.113 261.299L394.161 263.268C398.839 257.154 402.411 250.264 404.712 242.911L365.51 243.597Z" fill="#F4F1F1"/>
<path opacity="0.32" fill-rule="evenodd" clip-rule="evenodd" d="M365.114 243.398C365.114 243.398 357.675 257.935 354.805 260.923L354.121 261.608L394.383 263.644L394.515 263.467C399.219 257.298 402.818 250.358 405.155 242.955L405.287 242.38L365.246 243.177L365.114 243.398ZM356.041 260.834C359.625 255.44 362.876 249.832 365.776 244.04L404.139 243.287C401.843 250.29 398.404 256.862 393.963 262.737L356.041 260.834Z" fill="#35375B"/>
<path opacity="0.36" fill-rule="evenodd" clip-rule="evenodd" d="M370.5 208.238C375.246 211.402 399.637 228.838 403.941 256.674C406.203 252.319 408.058 247.764 409.481 243.066C403.124 225.586 390.476 212.951 382.199 206.114L370.5 208.238Z" fill="white"/>
<path opacity="0.36" fill-rule="evenodd" clip-rule="evenodd" d="M374.492 211.115C384.151 218.448 392.135 227.765 397.912 238.441L406.167 238.087C406.167 238.087 406.344 237.446 406.631 236.273C401.491 226.045 394.466 216.886 385.926 209.278L374.492 211.115Z" fill="white"/>
<path opacity="0.36" fill-rule="evenodd" clip-rule="evenodd" d="M400.031 242.933C400.926 245.049 401.699 247.213 402.349 249.416C403.308 247.269 404.098 245.05 404.711 242.778L400.031 242.933Z" fill="white"/>
<path opacity="0.36" fill-rule="evenodd" clip-rule="evenodd" d="M367.32 225.386C375.951 232.268 391.601 247.292 395.508 268.601C398.096 265.825 400.375 262.776 402.306 259.506C394.978 235.875 375.819 220.452 368.733 215.474C368.529 218.811 368.056 222.126 367.32 225.386Z" fill="white"/>
<path opacity="0.36" fill-rule="evenodd" clip-rule="evenodd" d="M370.828 228.329C374.614 231.649 378.12 235.276 381.313 239.172L391.908 238.707C386.36 230.927 379.73 223.982 372.219 218.084C371.932 221.094 371.49 224.767 370.828 228.329Z" fill="white"/>
<path opacity="0.36" fill-rule="evenodd" clip-rule="evenodd" d="M384.406 243.243C388.771 249.279 392.085 256.012 394.207 263.157C396.449 260.179 398.463 257.036 400.233 253.753C398.684 250.048 396.854 246.468 394.759 243.044L384.406 243.243Z" fill="white"/>
<path fill-rule="evenodd" clip-rule="evenodd" d="M356.172 0.442566C356.172 0.442566 359.439 43.7674 335.865 61.9559L297.148 59.3449C297.148 59.3449 319.862 32.7924 317.875 7.52323L356.172 0.442566Z" fill="white"/>
<path fill-rule="evenodd" clip-rule="evenodd" d="M355.82 0.885083C356.084 5.3105 357.74 44.4754 335.755 61.5797L297.988 59.0129C301.188 55.0964 320.061 31.1328 318.361 7.83299L355.82 0.885083ZM336.086 62.2435C359.793 43.9223 356.548 0.53105 356.548 0.420415V0L317.478 7.23556V7.56746C319.443 32.7923 296.884 59.0351 296.818 59.1014L296.332 59.6546C309.576 60.5618 322.82 61.4912 335.932 62.332L336.086 62.2435Z" fill="#35375B"/>
<path opacity="0.32" fill-rule="evenodd" clip-rule="evenodd" d="M321.254 9.91292C321.254 9.91292 320.547 27.6146 316.508 33.7217L349.287 32.2834C351.648 23.3504 352.748 14.1294 352.554 4.89008L321.254 9.91292Z" fill="#F4F1F1"/>
<path opacity="0.32" fill-rule="evenodd" clip-rule="evenodd" d="M320.878 9.8908C320.878 9.8908 320.193 27.3933 316.198 33.5225L315.801 34.12L349.573 32.6374V32.3719C351.984 23.4093 353.114 14.1489 352.928 4.86796V4.42542C342.274 6.15133 331.605 7.86249 320.922 9.5589V9.86868L320.878 9.8908ZM317.169 33.3234C320.657 27.1057 321.584 12.5018 321.584 10.2227L352.2 5.3105C352.336 14.2657 351.259 23.198 348.999 31.863L317.169 33.3234Z" fill="#35375B"/>
<path opacity="0.32" fill-rule="evenodd" clip-rule="evenodd" d="M315.205 36.908C315.205 36.908 308.936 49.1221 306.508 51.6667L339.243 53.3262C343.15 48.1875 346.137 42.4076 348.072 36.2441L315.205 36.908Z" fill="#F4F1F1"/>
<path opacity="0.32" fill-rule="evenodd" clip-rule="evenodd" d="M314.895 36.7309C314.895 36.7309 308.648 48.923 306.242 51.4233L305.668 51.9986L339.396 53.7024L339.528 53.5475C343.448 48.3761 346.436 42.5576 348.358 36.3548V35.868C337.174 36.104 325.983 36.3253 314.784 36.5318V36.7309H314.895ZM307.279 51.3348C310.285 46.8147 313.012 42.115 315.446 37.262L347.585 36.6424C345.675 42.5111 342.795 48.0163 339.065 52.928L307.279 51.3348Z" fill="#35375B"/>
<path opacity="0.36" fill-rule="evenodd" clip-rule="evenodd" d="M319.398 7.25769C323.372 9.91294 343.834 24.5389 347.431 47.7945C349.345 44.1545 350.904 40.3384 352.089 36.3991C347.274 24.2604 339.394 13.5852 329.221 5.42114L319.398 7.25769Z" fill="white"/>
<path opacity="0.36" fill-rule="evenodd" clip-rule="evenodd" d="M322.73 9.66956C330.833 15.8212 337.53 23.6368 342.376 32.5932L349.285 32.2834C349.285 32.2834 349.439 31.7303 349.682 30.7567C345.368 22.1863 339.482 14.5071 332.332 8.12067L322.73 9.66956Z" fill="white"/>
<path opacity="0.36" fill-rule="evenodd" clip-rule="evenodd" d="M344.145 36.3327C344.9 38.1063 345.549 39.9241 346.087 41.7759C346.893 39.9946 347.557 38.1523 348.074 36.2663L344.145 36.3327Z" fill="white"/>
<path opacity="0.36" fill-rule="evenodd" clip-rule="evenodd" d="M316.727 21.6403C323.967 27.3933 337.078 39.9836 340.345 57.8623C342.522 55.5338 344.439 52.974 346.062 50.2285C339.926 30.4247 323.79 17.5025 317.852 13.2762C317.712 16.091 317.335 18.8888 316.727 21.6403Z" fill="white"/>
<path opacity="0.36" fill-rule="evenodd" clip-rule="evenodd" d="M319.664 24.0964C322.855 26.8756 325.808 29.9176 328.493 33.1906L337.323 32.8145C332.69 26.2787 327.144 20.444 320.856 15.489C320.613 18.0336 320.238 21.1092 319.664 24.0964Z" fill="white"/>
<path opacity="0.36" fill-rule="evenodd" clip-rule="evenodd" d="M331.098 36.5982C334.761 41.643 337.538 47.2779 339.309 53.2599C341.19 50.7781 342.873 48.1516 344.342 45.4047C343.047 42.2947 341.512 39.291 339.75 36.4211L331.098 36.5982Z" fill="white"/>
<path fill-rule="evenodd" clip-rule="evenodd" d="M249.273 359.366C249.273 359.366 252.165 320.953 231.261 304.801L196.938 307.124C196.938 307.124 217.068 330.556 215.325 353.06L249.273 359.366Z" fill="white"/>
<path fill-rule="evenodd" clip-rule="evenodd" d="M248.965 358.968C249.208 355.051 250.665 320.312 231.152 305.133L197.6 307.345C200.448 310.819 217.091 332.083 215.656 352.728L248.965 358.901V358.968ZM231.461 304.535C252.519 320.799 249.605 359.277 249.605 359.388V359.742L214.994 353.347V353.038C216.738 330.667 196.74 307.412 196.673 307.345L196.254 306.836C207.953 306.04 219.674 305.221 231.373 304.469L231.461 304.535Z" fill="#35375B"/>
<path opacity="0.32" fill-rule="evenodd" clip-rule="evenodd" d="M218.302 350.958C218.302 350.958 217.684 335.358 214.086 329.848L243.179 331.132C245.274 339.069 246.247 347.263 246.07 355.472L218.302 350.958Z" fill="#F4F1F1"/>
<path opacity="0.32" fill-rule="evenodd" clip-rule="evenodd" d="M217.972 350.98C217.972 350.98 217.354 335.491 213.822 330.025L213.469 329.494L243.422 330.8V331.021C245.515 338.96 246.496 347.151 246.336 355.361V355.737L217.95 351.179V350.913L217.972 350.98ZM214.683 330.202C217.773 335.712 218.524 348.656 218.634 350.692L245.762 355.118C245.895 347.161 244.937 339.225 242.915 331.53L214.683 330.202Z" fill="#35375B"/>
<path opacity="0.32" fill-rule="evenodd" clip-rule="evenodd" d="M212.96 327.016C212.96 327.016 207.398 316.174 205.234 313.917L234.261 312.479C237.727 317.023 240.378 322.137 242.097 327.591L212.96 327.016Z" fill="#F4F1F1"/>
<path opacity="0.32" fill-rule="evenodd" clip-rule="evenodd" d="M212.651 327.171C212.651 327.171 207.133 316.417 204.992 314.205L204.484 313.674L234.416 312.169V312.302C237.922 316.879 240.597 322.04 242.318 327.547L242.428 327.968L212.651 327.392V327.215V327.171ZM206.029 314.227C208.695 318.235 211.113 322.402 213.27 326.706L241.766 327.26C240.07 322.056 237.518 317.172 234.217 312.811L206.029 314.227Z" fill="#35375B"/>
<path opacity="0.36" fill-rule="evenodd" clip-rule="evenodd" d="M216.648 353.325C220.18 350.958 238.324 337.991 241.525 317.369C243.217 320.593 244.599 323.972 245.653 327.459C241.393 338.233 234.401 347.707 225.367 354.94L216.648 353.325Z" fill="white"/>
<path opacity="0.36" fill-rule="evenodd" clip-rule="evenodd" d="M219.629 351.179C226.804 345.712 232.74 338.781 237.045 330.844L243.181 331.132C243.181 331.132 243.314 331.596 243.534 332.481C239.698 340.085 234.455 346.889 228.083 352.529L219.629 351.179Z" fill="white"/>
<path opacity="0.36" fill-rule="evenodd" clip-rule="evenodd" d="M238.609 327.481C239.279 325.909 239.853 324.298 240.331 322.657C241.053 324.235 241.644 325.871 242.097 327.547L238.609 327.481Z" fill="white"/>
<path opacity="0.36" fill-rule="evenodd" clip-rule="evenodd" d="M214.285 340.558C220.731 335.447 232.341 324.295 235.255 308.429C237.163 310.51 238.857 312.778 240.31 315.2C234.857 332.769 220.444 344.231 215.345 347.926C215.201 345.445 214.846 342.979 214.285 340.558Z" fill="white"/>
<path opacity="0.36" fill-rule="evenodd" clip-rule="evenodd" d="M216.891 338.389C219.711 335.915 222.324 333.214 224.705 330.313L232.585 330.645C228.471 336.438 223.542 341.603 217.95 345.979C217.729 343.744 217.398 341.023 216.891 338.389Z" fill="white"/>
<path opacity="0.36" fill-rule="evenodd" clip-rule="evenodd" d="M227 327.304C230.246 322.818 232.709 317.813 234.284 312.501C235.93 314.716 237.406 317.054 238.699 319.493C237.551 322.253 236.186 324.917 234.615 327.459L227 327.304Z" fill="white"/>
<path fill-rule="evenodd" clip-rule="evenodd" d="M306.949 489.739L311.474 519.057C311.582 519.848 311.975 520.572 312.578 521.093C313.192 521.625 313.974 521.923 314.785 521.934H345.997C346.456 521.933 346.909 521.827 347.321 521.624C347.738 521.407 348.095 521.093 348.364 520.707C348.633 520.322 348.806 519.878 348.866 519.411C348.926 518.948 348.873 518.477 348.712 518.039C347.895 515.982 345.842 513.614 340.942 512.618C332.775 510.87 332.731 493.368 332.974 487.415L306.949 489.739Z" fill="#FFA17A"/>
<path fill-rule="evenodd" clip-rule="evenodd" d="M336.265 505.98C335.003 506.534 333.834 507.28 332.799 508.193C332.38 508.547 332.976 509.144 333.395 508.79C334.39 507.965 335.498 507.287 336.684 506.777C337.17 506.489 336.75 505.781 336.265 505.98Z" fill="#35375B"/>
<path fill-rule="evenodd" clip-rule="evenodd" d="M334.495 502.506C333.197 502.949 332.028 503.71 331.096 504.719C330.721 505.117 331.317 505.692 331.67 505.316C332.512 504.433 333.558 503.771 334.716 503.391C335.224 503.214 335.003 502.418 334.495 502.572V502.506Z" fill="#35375B"/>
<path fill-rule="evenodd" clip-rule="evenodd" d="M333.415 498.877C332.454 499.209 331.529 499.639 330.656 500.161C330.214 500.448 330.656 501.178 331.097 500.891C331.9 500.391 332.759 499.99 333.658 499.696C334.165 499.519 333.944 498.7 333.415 498.855V498.877Z" fill="#35375B"/>
<path fill-rule="evenodd" clip-rule="evenodd" d="M332.377 510.228L332.2 510.029C332.1 509.997 331.992 509.997 331.891 510.029C331.806 509.999 331.712 509.999 331.627 510.029C331.586 510.066 331.553 510.11 331.531 510.159C331.508 510.209 331.495 510.262 331.494 510.317C331.46 510.41 331.46 510.512 331.494 510.605L331.671 510.782C331.708 510.819 331.753 510.849 331.802 510.868C331.852 510.887 331.905 510.895 331.958 510.892C332.064 510.893 332.166 510.854 332.245 510.782C332.311 510.697 332.356 510.599 332.377 510.494C332.406 510.408 332.406 510.315 332.377 510.228Z" fill="#35375B"/>
<path fill-rule="evenodd" clip-rule="evenodd" d="M329.132 507.108C329.229 507.089 329.316 507.034 329.375 506.954C329.445 506.883 329.484 506.788 329.484 506.688C329.484 506.588 329.445 506.493 329.375 506.422C329.316 506.342 329.229 506.287 329.132 506.268C329.043 506.297 328.967 506.353 328.912 506.428C328.858 506.504 328.828 506.595 328.828 506.688C328.828 506.781 328.858 506.872 328.912 506.948C328.967 507.023 329.043 507.079 329.132 507.108Z" fill="#35375B"/>
<path fill-rule="evenodd" clip-rule="evenodd" d="M328.075 503.258C328.165 503.236 328.243 503.181 328.295 503.103C328.317 503.024 328.317 502.94 328.295 502.86C328.321 502.773 328.321 502.681 328.295 502.595C328.237 502.524 328.161 502.47 328.075 502.44C327.985 502.464 327.907 502.519 327.854 502.595C327.82 502.68 327.82 502.775 327.854 502.86C327.823 502.938 327.823 503.025 327.854 503.103C327.877 503.144 327.908 503.18 327.947 503.206C327.985 503.233 328.029 503.251 328.075 503.258Z" fill="#35375B"/>
<path fill-rule="evenodd" clip-rule="evenodd" d="M281.985 489.717L277.57 519.057C277.446 519.847 277.048 520.569 276.447 521.094C275.846 521.62 275.079 521.917 274.281 521.934H242.981C242.515 521.931 242.055 521.826 241.635 521.624C241.222 521.408 240.867 521.097 240.597 520.717C240.327 520.338 240.16 519.896 240.112 519.433C240.045 518.972 240.091 518.501 240.244 518.061C241.083 516.004 243.114 513.636 248.036 512.64C256.225 510.87 256.225 493.257 256.005 487.371L281.985 489.717Z" fill="#FFA17A"/>
<path fill-rule="evenodd" clip-rule="evenodd" d="M252.672 505.98C253.932 506.539 255.1 507.285 256.138 508.193C256.535 508.547 255.939 509.144 255.542 508.79C254.547 507.965 253.439 507.287 252.253 506.777C251.745 506.489 252.187 505.781 252.672 505.98Z" fill="#35375B"/>
<path fill-rule="evenodd" clip-rule="evenodd" d="M254.415 502.506C255.723 502.943 256.9 503.704 257.836 504.719C257.915 504.798 257.96 504.905 257.96 505.017C257.96 505.13 257.915 505.237 257.836 505.316C257.757 505.395 257.65 505.44 257.538 505.44C257.426 505.44 257.319 505.395 257.24 505.316C256.403 504.428 255.355 503.765 254.194 503.391C253.686 503.214 253.907 502.418 254.415 502.572V502.506Z" fill="#35375B"/>
<path fill-rule="evenodd" clip-rule="evenodd" d="M255.497 498.877C256.458 499.172 257.383 499.573 258.256 500.072C258.72 500.36 258.256 501.09 257.837 500.802C257.032 500.307 256.173 499.906 255.276 499.607C254.768 499.43 254.989 498.612 255.497 498.767V498.877Z" fill="#35375B"/>
<path fill-rule="evenodd" clip-rule="evenodd" d="M256.557 510.228L256.733 510.029C256.826 509.997 256.927 509.997 257.02 510.029C257.113 509.995 257.214 509.995 257.307 510.029C257.373 510.113 257.418 510.212 257.44 510.317C257.473 510.41 257.473 510.512 257.44 510.605L257.263 510.782C257.221 510.82 257.173 510.849 257.12 510.868C257.067 510.887 257.01 510.896 256.954 510.892C256.855 510.89 256.761 510.85 256.689 510.782C256.649 510.745 256.616 510.701 256.593 510.652C256.57 510.602 256.558 510.548 256.557 510.494C256.528 510.408 256.528 510.315 256.557 510.228Z" fill="#35375B"/>
<path fill-rule="evenodd" clip-rule="evenodd" d="M259.78 507.108C259.688 507.078 259.604 507.025 259.538 506.954C259.48 506.877 259.449 506.784 259.449 506.688C259.449 506.592 259.48 506.499 259.538 506.422C259.558 506.375 259.592 506.335 259.635 506.306C259.678 506.278 259.729 506.263 259.78 506.263C259.832 506.263 259.882 506.278 259.925 506.306C259.969 506.335 260.003 506.375 260.023 506.422C260.08 506.499 260.111 506.592 260.111 506.688C260.111 506.784 260.08 506.877 260.023 506.954C259.957 507.025 259.873 507.078 259.78 507.108Z" fill="#35375B"/>
<path fill-rule="evenodd" clip-rule="evenodd" d="M260.86 503.258C260.814 503.251 260.77 503.233 260.732 503.206C260.693 503.18 260.662 503.144 260.639 503.103C260.608 503.025 260.608 502.938 260.639 502.86C260.605 502.775 260.605 502.68 260.639 502.595C260.692 502.519 260.77 502.464 260.86 502.44C260.946 502.47 261.022 502.524 261.081 502.595C261.106 502.681 261.106 502.773 261.081 502.86C261.102 502.94 261.102 503.024 261.081 503.103C261.029 503.181 260.95 503.236 260.86 503.258Z" fill="#35375B"/>
<path fill-rule="evenodd" clip-rule="evenodd" d="M242.805 256.475C241.15 252.52 240.297 248.274 240.297 243.984C240.297 239.695 241.15 235.449 242.805 231.494V231.25C247.369 219.576 249.619 207.122 249.427 194.586C249.244 185.002 250.313 175.436 252.606 166.13C253.974 160.445 256.208 155.004 259.228 149.999C261.7 146.043 265.125 142.774 269.187 140.491C273.249 138.208 277.819 136.985 282.476 136.934C287.132 136.884 291.727 138.007 295.838 140.201C299.948 142.395 303.443 145.589 306.001 149.491C308.934 154.545 311.071 160.024 312.336 165.732C314.813 176.482 315.691 187.539 314.941 198.546C314.35 209.802 316.344 221.043 320.768 231.405L321.43 233.065C323.024 237.046 323.81 241.306 323.742 245.595C323.674 249.885 322.753 254.118 321.033 258.046C319.532 261.055 317.435 263.644 315.713 266.499C313.808 269.346 312.787 272.695 312.777 276.124C312.976 279.554 315.139 283.05 318.207 283.492C316.557 284.053 314.781 284.131 313.088 283.715C311.395 283.3 309.855 282.409 308.65 281.147C307.771 284.257 306.573 287.268 305.074 290.13L305.626 290.529H304.875C300.275 299.468 292.7 306.512 283.464 310.443C286.329 306.471 287.768 301.643 287.548 296.746C285.546 296.011 283.703 294.899 282.118 293.471C280.307 295.309 278.103 296.709 275.672 297.565C275.734 301.846 277.097 306.007 279.579 309.491C271.025 305.721 263.944 299.237 259.426 291.037H257.682C258.113 290.753 258.525 290.442 258.919 290.108C257.15 286.843 255.765 283.382 254.791 279.797C253.568 281.047 252.015 281.919 250.313 282.312C248.611 282.704 246.833 282.599 245.189 282.01C248.279 281.611 250.509 278.16 250.729 274.73C250.765 271.307 249.789 267.951 247.926 265.082C246.204 262.14 244.152 259.506 242.805 256.475Z" fill="#35375B"/>
<path fill-rule="evenodd" clip-rule="evenodd" d="M188.658 245.943H187.863C188.125 245.887 188.396 245.887 188.658 245.943Z" fill="#2B4182"/>
<path fill-rule="evenodd" clip-rule="evenodd" d="M249.78 287.453L242.496 497.859L287.857 499.961L282.316 368.416L305.78 497.483L351.251 495.979C351.251 495.979 316.618 352.838 312.733 332.393C308.848 311.948 310.791 301.238 304.655 286.966L249.78 287.453Z" fill="#35375B"/>
<path fill-rule="evenodd" clip-rule="evenodd" d="M274.942 284.82C274.942 284.82 273.088 358.525 261.896 389.901C248.4 396.061 233.88 399.655 219.074 400.5C230.287 363.924 248.63 324.361 246.379 281.014L309.266 268.468L306.021 268.955C315.821 322.06 329.065 352.44 363.411 392.247C344.561 400.478 334.959 400.168 308.89 400.168C297.574 361.741 286.258 323.291 274.942 284.82Z" fill="#F4F1F1"/>
<path fill-rule="evenodd" clip-rule="evenodd" d="M233.092 232.334L222.409 256.342L205.92 217.487C205.92 217.487 203.713 204.211 202.102 200.494C200.49 196.776 200.976 191.82 198.702 191.067C196.429 190.315 195.634 194.409 195.634 197.905C195.613 200.188 195.421 202.466 195.06 204.72C195.06 204.72 185.591 196.422 185.039 193.833C184.487 191.244 184.796 182.394 182.677 181.265C180.558 180.137 178.262 182.725 177.755 190.271C177.247 197.816 192.389 219.788 192.389 219.788L203.426 273.668L234.483 279.354L252.936 248.996L233.092 232.334Z" fill="#FFA17A"/>
<path fill-rule="evenodd" clip-rule="evenodd" d="M335.006 234.547L323.572 242.867L322.491 243.641L312.911 254.705L325.47 288.626L300.726 288.515H299.645L284.613 288.205H283.531L268.499 287.918H267.418L244.837 283.89H242.21C242.482 277.05 241.888 270.203 240.444 263.511C239.739 260.173 240.2 256.692 241.752 253.654C243.303 250.616 245.85 248.206 248.964 246.828L233.094 232.334L241.239 219.678C243.703 215.815 247.187 212.713 251.304 210.716C251.654 210.532 252.016 210.369 252.386 210.229C253.566 209.697 254.793 209.275 256.05 208.968L267.418 206.047L268.036 205.87H268.499L272.362 204.875H284.613H296.797L299.645 206.379L300.726 206.955C315.273 214.478 328.671 217.288 335.006 234.547Z" fill="#F4F1F1"/>
<path fill-rule="evenodd" clip-rule="evenodd" d="M300.747 206.866C297.414 213.703 288.607 217.708 277.791 216.978C268.697 216.381 267.593 210.34 268.034 205.915L272.449 204.808H296.884L300.747 206.866Z" fill="white"/>
<path fill-rule="evenodd" clip-rule="evenodd" d="M296.798 204.786C295.182 207.548 292.858 209.825 290.067 211.382C287.276 212.939 284.12 213.717 280.927 213.637C269.515 213.637 272.362 204.653 272.362 204.653L275.585 203.591L275.409 198.015L275.1 189.873L294.524 183.942C294.071 185.008 293.774 186.133 293.641 187.284C293.131 192.708 293.131 198.167 293.641 203.591L296.798 204.786Z" fill="#FFA17A"/>
<path fill-rule="evenodd" clip-rule="evenodd" d="M205.921 217.487L188.527 223.528L203.493 273.668L219.452 280.903L234.55 279.354L253.003 248.996L233.115 232.29L222.432 256.298L205.921 217.487Z" fill="#F4F1F1"/>
<path fill-rule="evenodd" clip-rule="evenodd" d="M245.962 286.966H197.997C197.609 286.978 197.227 286.86 196.912 286.632C196.596 286.404 196.365 286.078 196.253 285.705L185.967 248.288C185.9 248.061 185.879 247.823 185.905 247.589C185.932 247.354 186.004 247.126 186.12 246.92C186.235 246.714 186.39 246.533 186.576 246.388C186.762 246.243 186.976 246.136 187.203 246.075L187.799 245.898H235.831L245.962 286.966Z" fill="#95A4CC"/>
<path fill-rule="evenodd" clip-rule="evenodd" d="M217.375 268.313C217.375 269.054 217.155 269.777 216.745 270.393C216.334 271.008 215.75 271.488 215.067 271.77C214.384 272.052 213.633 272.125 212.909 271.979C212.184 271.833 211.52 271.475 210.999 270.949C210.478 270.424 210.125 269.756 209.983 269.029C209.842 268.302 209.919 267.549 210.204 266.867C210.49 266.184 210.972 265.601 211.588 265.193C212.204 264.785 212.928 264.569 213.667 264.574C214.155 264.574 214.639 264.67 215.091 264.859C215.542 265.047 215.952 265.323 216.297 265.67C216.641 266.018 216.914 266.43 217.099 266.884C217.284 267.337 217.378 267.823 217.375 268.313Z" fill="#E5E9FC"/>
<path d="M284.017 282.828H245.963C244.999 282.828 244.219 283.611 244.219 284.576V285.218C244.219 286.183 244.999 286.966 245.963 286.966H284.017C284.98 286.966 285.761 286.183 285.761 285.218V284.576C285.761 283.611 284.98 282.828 284.017 282.828Z" fill="#7388BA"/>
<path d="M235.822 245.965L235.205 246.136C234.276 246.392 233.731 247.355 233.987 248.285L244.099 285.061C244.355 285.992 245.315 286.538 246.243 286.282L246.86 286.111C247.789 285.855 248.334 284.892 248.078 283.961L237.966 247.186C237.71 246.255 236.75 245.709 235.822 245.965Z" fill="#7388BA"/>
<path fill-rule="evenodd" clip-rule="evenodd" d="M345.578 297.676C345.581 300.58 344.792 303.43 343.296 305.918C341.8 308.405 339.654 310.436 337.09 311.789C334.527 313.142 331.643 313.767 328.75 313.596C325.858 313.425 323.067 312.465 320.679 310.819L294.015 292.432C294.015 292.432 279.513 295.618 272.979 295.02C266.445 294.423 259.492 289.002 259.426 287.652C259.36 286.302 284.457 288.604 284.457 284.422C282.713 282.895 260.794 279.686 279.005 278.469C282.74 278.342 286.48 278.564 290.174 279.133L316.861 282.828L309.29 260.701L307.237 254.705L328.273 239.393L329.641 243.818L344.872 292.985C345.343 294.503 345.581 296.085 345.578 297.676Z" fill="#FFA17A"/>
<path fill-rule="evenodd" clip-rule="evenodd" d="M328.274 239.371L329.643 243.818L309.291 260.679L307.238 254.683L328.274 239.371Z" fill="#35375B"/>
<path fill-rule="evenodd" clip-rule="evenodd" d="M253.644 284.908C253.644 285.035 253.606 285.159 253.536 285.265C253.465 285.37 253.365 285.453 253.248 285.501C253.131 285.55 253.003 285.562 252.879 285.538C252.754 285.513 252.64 285.452 252.551 285.362C252.461 285.272 252.4 285.158 252.376 285.033C252.351 284.909 252.364 284.78 252.412 284.663C252.46 284.545 252.543 284.445 252.648 284.375C252.753 284.304 252.877 284.267 253.003 284.267C253.173 284.267 253.336 284.334 253.456 284.455C253.576 284.575 253.644 284.738 253.644 284.908Z" fill="#191C51"/>
<path fill-rule="evenodd" clip-rule="evenodd" d="M256.179 284.908C256.152 285.055 256.074 285.188 255.959 285.284C255.844 285.379 255.7 285.431 255.55 285.431C255.401 285.431 255.257 285.379 255.142 285.284C255.027 285.188 254.949 285.055 254.921 284.908C254.904 284.816 254.907 284.72 254.931 284.629C254.954 284.538 254.998 284.453 255.058 284.38C255.118 284.307 255.193 284.249 255.278 284.209C255.363 284.169 255.456 284.148 255.55 284.148C255.644 284.148 255.737 284.169 255.822 284.209C255.908 284.249 255.983 284.307 256.043 284.38C256.103 284.453 256.146 284.538 256.17 284.629C256.194 284.72 256.197 284.816 256.179 284.908Z" fill="#191C51"/>
<path d="M273.992 340.956L287.369 384.215" stroke="#191C51" stroke-width="0.53" stroke-linecap="round" stroke-linejoin="round"/>
<path fill-rule="evenodd" clip-rule="evenodd" d="M251.986 266.543C251.882 266.432 251.824 266.286 251.824 266.133C251.824 265.981 251.882 265.835 251.986 265.724C252.039 265.67 252.103 265.627 252.173 265.597C252.243 265.568 252.318 265.553 252.394 265.553C252.47 265.553 252.546 265.568 252.616 265.597C252.686 265.627 252.749 265.67 252.803 265.724C259.756 272.141 272.073 273.114 272.117 273.114C272.267 273.131 272.405 273.204 272.504 273.319C272.602 273.435 272.653 273.583 272.647 273.734C272.625 273.886 272.547 274.025 272.429 274.123C272.311 274.222 272.16 274.272 272.007 274.265C272.007 274.265 259.248 273.247 251.986 266.543Z" fill="#35375B"/>
<path fill-rule="evenodd" clip-rule="evenodd" d="M249.428 246.938C249.395 247.007 249.348 247.068 249.292 247.119C249.235 247.169 249.168 247.208 249.097 247.233C249.025 247.258 248.949 247.268 248.873 247.263C248.797 247.258 248.723 247.238 248.655 247.204C248.521 247.133 248.42 247.012 248.374 246.867C248.329 246.722 248.342 246.564 248.412 246.429C250.917 240.826 252.476 234.844 253.025 228.728C253.031 228.652 253.052 228.578 253.086 228.511C253.12 228.443 253.167 228.383 253.224 228.333C253.282 228.284 253.348 228.246 253.42 228.223C253.492 228.2 253.568 228.191 253.644 228.197C253.794 228.213 253.932 228.287 254.03 228.402C254.129 228.517 254.18 228.665 254.173 228.816C253.621 235.082 252.016 241.209 249.428 246.938Z" fill="#35375B"/>
<g style="mix-blend-mode:multiply" opacity="0.49">
<path fill-rule="evenodd" clip-rule="evenodd" d="M283.465 204.034C285.661 203.385 287.581 202.027 288.927 200.169C290.273 198.312 290.967 196.061 290.903 193.767V192.284L275.055 190.558L275.297 196.909C275.297 199.254 275.297 196.909 275.518 203.768C277.218 205.649 281.323 204.609 283.465 204.034Z" fill="#35375B"/>
</g>
<path fill-rule="evenodd" clip-rule="evenodd" d="M260.31 163.962C261.367 163.961 262.4 164.285 263.268 164.891C264.856 158.541 267.945 152.667 272.274 147.765C273.777 145.784 275.792 144.253 278.101 143.339C279.19 142.816 280.364 142.494 281.567 142.388C282.346 142.344 283.127 142.344 283.906 142.388C284.688 142.389 285.469 142.433 286.246 142.521C287.443 142.683 288.601 143.058 289.667 143.627C291.915 144.638 293.851 146.235 295.274 148.251C299.395 153.337 302.221 159.352 303.507 165.776C304.4 165.201 305.45 164.923 306.509 164.98C309.6 165.311 310.483 170.224 309.556 173.83C308.386 178.499 304.81 179.893 301.499 180.756C299.873 183.924 297.757 186.814 295.23 189.319C292.684 192.314 289.25 194.415 285.429 195.316H285.098L284.436 195.449H283.995H283.597C283.303 195.471 283.008 195.471 282.714 195.449C282.428 195.471 282.14 195.471 281.853 195.449H281.456H281.015L280.352 195.272H280.021C276.25 194.202 272.917 191.954 270.508 188.855C268.091 186.234 266.102 183.247 264.614 180.004C261.347 179.008 257.838 177.459 256.889 172.724C256.05 169.029 257.22 164.161 260.31 163.962Z" fill="#FFA17A"/>
<path fill-rule="evenodd" clip-rule="evenodd" d="M276.377 178.389C276.683 177.816 277.046 177.275 277.459 176.773C277.894 176.189 278.264 175.558 278.562 174.892C279.187 173.586 279.569 172.176 279.688 170.733C279.726 170.545 279.833 170.378 279.989 170.267C280.145 170.156 280.337 170.109 280.527 170.135C280.617 170.151 280.704 170.185 280.781 170.235C280.858 170.285 280.925 170.35 280.976 170.427C281.028 170.503 281.063 170.589 281.081 170.68C281.099 170.77 281.098 170.864 281.079 170.954C280.831 173.356 279.947 175.648 278.518 177.592C277.966 178.344 277.172 179.163 277.966 180.004C278.761 180.845 280.174 180.623 281.189 180.491C282.204 180.358 282.204 181.818 281.189 181.929C279.836 182.266 278.405 182.067 277.194 181.376C276.757 181.03 276.443 180.554 276.296 180.017C276.149 179.479 276.177 178.909 276.377 178.389Z" fill="#35375B"/>
<path fill-rule="evenodd" clip-rule="evenodd" d="M288.428 173.498C288.428 174.826 287.854 175.844 286.949 175.711C286.044 175.578 285.206 174.516 285.117 173.167C285.029 171.817 285.691 170.821 286.596 170.954C287.501 171.087 288.34 172.171 288.428 173.498Z" fill="#35375B"/>
<path fill-rule="evenodd" clip-rule="evenodd" d="M274.213 173.432C274.213 174.76 273.64 175.778 272.735 175.645C271.83 175.512 270.991 174.45 270.902 173.122C270.814 171.795 271.476 170.777 272.381 170.91C273.286 171.042 274.125 172.104 274.213 173.432Z" fill="#35375B"/>
<path fill-rule="evenodd" clip-rule="evenodd" d="M287.767 182.88C286.657 183.861 285.323 184.552 283.882 184.892C282.442 185.232 280.941 185.209 279.511 184.828C278.694 184.606 278.385 185.89 279.202 186.111C280.85 186.557 282.583 186.589 284.247 186.203C285.91 185.817 287.453 185.025 288.738 183.898C289.378 183.212 288.407 182.305 287.767 182.88Z" fill="#35375B"/>
<path fill-rule="evenodd" clip-rule="evenodd" d="M291.366 164.98C290.209 164.598 289.007 164.368 287.791 164.294C286.113 164.294 286.532 161.594 288.21 161.705C289.622 161.8 291.017 162.075 292.36 162.523C293.993 163.054 292.89 165.422 291.322 164.935L291.366 164.98Z" fill="#35375B"/>
<path fill-rule="evenodd" clip-rule="evenodd" d="M273.31 164.98C274.46 164.596 275.655 164.366 276.864 164.294C278.542 164.294 278.122 161.594 276.445 161.705C275.032 161.8 273.638 162.075 272.295 162.523C270.662 163.054 271.765 165.422 273.332 164.935L273.31 164.98Z" fill="#35375B"/>
<path fill-rule="evenodd" clip-rule="evenodd" d="M298.555 171.055L293.502 173.432C293.496 172.332 292.603 171.442 291.502 171.442H283.513C282.409 171.442 281.513 172.338 281.513 173.442V173.459H277.987V173.442C277.987 172.338 277.091 171.442 275.987 171.442H267.998C266.894 171.442 265.998 172.338 265.998 173.442V175.411C265.998 176.515 266.894 177.411 267.998 177.411H275.987C277.091 177.411 277.987 176.515 277.987 175.411V174.759H281.513V175.411C281.513 176.515 282.409 177.411 283.513 177.411H291.502C292.606 177.411 293.502 176.515 293.502 175.411V174.866L299.166 172.203C299.491 172.051 299.617 171.67 299.449 171.353C299.28 171.036 298.88 170.903 298.555 171.055ZM283.513 172.742H291.502C291.888 172.742 292.202 173.056 292.202 173.442V175.411C292.202 175.797 291.888 176.111 291.502 176.111H283.513C283.127 176.111 282.813 175.797 282.813 175.411V173.442C282.813 173.056 283.127 172.742 283.513 172.742ZM275.987 172.742H267.998C267.612 172.742 267.298 173.056 267.298 173.442V175.411C267.298 175.797 267.612 176.111 267.998 176.111H275.987C276.373 176.111 276.687 175.797 276.687 175.411V173.442C276.687 173.056 276.373 172.742 275.987 172.742Z" fill="#35375B"/>
<path fill-rule="evenodd" clip-rule="evenodd" d="M291.828 305.686L295.779 278.801L313.438 279.133L307.235 264.153L305.624 256.829L305.182 251.142L335.004 234.547L344.87 293.051C345.342 294.57 345.58 296.152 345.577 297.742C345.577 302.433 343.016 310.62 339.286 313.696C330.655 320.843 304.035 307.854 291.828 305.686Z" fill="#F4F1F1"/>
<path fill-rule="evenodd" clip-rule="evenodd" d="M307.724 254.461C307.767 254.526 307.796 254.598 307.809 254.675C307.823 254.751 307.82 254.829 307.801 254.904C307.782 254.979 307.748 255.049 307.7 255.11C307.653 255.171 307.593 255.222 307.525 255.258C307.39 255.331 307.231 255.349 307.083 255.307C306.935 255.266 306.809 255.169 306.73 255.037L297.68 239.725C297.648 239.656 297.631 239.58 297.629 239.504C297.627 239.427 297.641 239.352 297.67 239.281C297.7 239.21 297.743 239.146 297.798 239.093C297.853 239.04 297.918 238.999 297.989 238.973C298.125 238.9 298.283 238.882 298.431 238.923C298.579 238.964 298.706 239.061 298.784 239.194L307.724 254.461Z" fill="#35375B"/>
<path fill-rule="evenodd" clip-rule="evenodd" d="M316.793 283.404C316.718 283.395 316.644 283.372 316.578 283.335C316.511 283.299 316.453 283.249 316.406 283.189C316.358 283.13 316.323 283.061 316.303 282.988C316.282 282.914 316.276 282.838 316.285 282.762C316.293 282.684 316.317 282.609 316.355 282.54C316.394 282.472 316.445 282.412 316.507 282.364C316.569 282.317 316.64 282.282 316.716 282.263C316.792 282.244 316.871 282.241 316.948 282.253L328.36 283.802C328.512 283.822 328.65 283.903 328.743 284.025C328.836 284.148 328.877 284.302 328.856 284.455C328.836 284.607 328.756 284.745 328.634 284.839C328.511 284.932 328.357 284.973 328.205 284.953L316.793 283.404Z" fill="#35375B"/>
<path fill-rule="evenodd" clip-rule="evenodd" d="M268.496 206.955L272.624 273.712L284.61 278.514L299.641 206.291H295.779C294.065 208.611 291.822 210.486 289.238 211.76C286.653 213.034 283.803 213.67 280.923 213.615C273.154 213.615 272.094 209.455 272.094 206.8L268.496 206.955Z" fill="white"/>
<path fill-rule="evenodd" clip-rule="evenodd" d="M293.574 202.618C298.024 203.539 301.964 206.107 304.611 209.809C307.745 214.434 308.562 220.696 308.562 228.263H306.907C306.907 221.005 306.156 214.987 303.242 210.76C300.781 207.543 297.492 205.057 293.729 203.569C293.729 203.569 293.685 203.281 293.574 202.618Z" fill="#FC4C00"/>
<path fill-rule="evenodd" clip-rule="evenodd" d="M307.478 230.608C305.922 230.27 304.297 230.464 302.865 231.162C301.182 231.965 299.743 233.202 298.693 234.746C297.7 236.239 296.955 237.883 296.486 239.614C295.943 241.41 295.501 243.235 295.161 245.08L294.278 249.328C293.788 251.452 293.471 253.613 293.329 255.789C293.176 257.824 293.541 259.864 294.389 261.719C295.154 263.24 296.315 264.526 297.748 265.441C299.182 266.356 300.835 266.867 302.534 266.919V268.579C300.526 268.515 298.572 267.911 296.879 266.828C295.185 265.746 293.814 264.225 292.91 262.427C291.969 260.348 291.552 258.068 291.696 255.789C291.846 253.554 292.171 251.335 292.667 249.151L293.55 244.903C293.947 243.022 294.345 241.097 294.918 239.282C295.482 237.391 296.322 235.593 297.413 233.95C298.638 232.164 300.314 230.737 302.269 229.812C304.041 228.962 306.045 228.728 307.964 229.148L307.478 230.608Z" fill="#FC4C00"/>
<path fill-rule="evenodd" clip-rule="evenodd" d="M305.274 268.534C305.405 268.109 305.405 267.654 305.274 267.229C305.221 266.948 305.091 266.687 304.898 266.477C304.684 266.314 304.435 266.204 304.17 266.154C303.906 266.104 303.634 266.116 303.375 266.189C302.735 266.189 301.168 266.587 301.168 267.406C301.168 268.225 302.161 268.999 302.691 269.242C302.906 269.368 303.145 269.45 303.392 269.482C303.639 269.515 303.89 269.497 304.13 269.431C304.371 269.366 304.596 269.252 304.792 269.098C304.988 268.944 305.152 268.753 305.274 268.534Z" fill="white"/>
<path fill-rule="evenodd" clip-rule="evenodd" d="M304.721 268.269C304.744 268.144 304.744 268.017 304.721 267.893C304.74 267.723 304.74 267.553 304.721 267.384C304.736 267.288 304.736 267.191 304.721 267.096C304.697 267.03 304.66 266.969 304.61 266.919C304.514 266.828 304.389 266.773 304.257 266.764C304.052 266.732 303.844 266.732 303.639 266.764C303.238 266.818 302.845 266.922 302.469 267.074C302.204 267.074 301.984 267.295 301.962 267.428C302.012 267.601 302.103 267.761 302.227 267.893C302.486 268.19 302.792 268.444 303.132 268.645C303.454 268.754 303.803 268.754 304.125 268.645C304.389 268.576 304.618 268.41 304.765 268.18L304.721 268.269ZM305.869 268.755C305.721 269.031 305.517 269.272 305.27 269.463C305.022 269.654 304.737 269.79 304.434 269.862C303.81 270.034 303.145 269.979 302.558 269.707C302.052 269.423 301.603 269.048 301.233 268.601C300.884 268.23 300.694 267.738 300.703 267.229C300.764 266.902 300.913 266.599 301.136 266.353C301.358 266.107 301.644 265.927 301.962 265.835C302.436 265.668 302.923 265.542 303.418 265.459C303.748 265.414 304.082 265.414 304.412 265.459C304.804 265.508 305.169 265.687 305.449 265.967C305.613 266.114 305.741 266.295 305.824 266.499C305.91 266.668 305.977 266.846 306.023 267.03C306.057 267.316 306.057 267.606 306.023 267.893C306.017 268.174 305.957 268.452 305.847 268.711L305.869 268.755Z" fill="#FC4C00"/>
<path fill-rule="evenodd" clip-rule="evenodd" d="M308.54 228.838C310.396 229.539 311.955 230.86 312.954 232.578C314.056 234.435 314.657 236.547 314.698 238.707C314.693 240.68 314.395 242.641 313.815 244.526C313.257 246.367 312.601 248.177 311.851 249.947L310.217 253.997C309.413 256.115 308.439 258.165 307.304 260.126C306.149 262.13 304.519 263.818 302.558 265.038C300.822 266.039 298.843 266.537 296.841 266.476C294.83 266.437 292.869 265.848 291.168 264.773L292.073 263.379C293.504 264.301 295.162 264.806 296.863 264.839C298.571 264.879 300.258 264.451 301.741 263.6C303.473 262.498 304.901 260.976 305.891 259.174C306.981 257.287 307.911 255.31 308.672 253.267L310.306 249.239C311.012 247.491 311.718 245.721 312.248 243.973C312.786 242.247 313.054 240.449 313.043 238.641C313.028 236.774 312.509 234.947 311.542 233.352C310.756 231.966 309.516 230.895 308.032 230.321L308.54 228.838Z" fill="#FC4C00"/>
<path fill-rule="evenodd" clip-rule="evenodd" d="M287.855 262.051C288.204 261.655 288.683 261.397 289.206 261.323C289.728 261.25 290.259 261.367 290.703 261.653C291.41 262.276 291.871 263.131 292.005 264.065C292.029 264.136 292.029 264.214 292.005 264.286C291.962 264.348 291.9 264.394 291.829 264.419C290.912 264.773 289.897 264.773 288.981 264.419C288.682 264.317 288.405 264.159 288.164 263.954C287.947 263.749 287.79 263.487 287.712 263.198C287.634 262.909 287.638 262.604 287.723 262.317C287.76 262.225 287.804 262.136 287.855 262.051Z" fill="white"/>
<path fill-rule="evenodd" clip-rule="evenodd" d="M287.349 261.697C287.559 261.425 287.822 261.199 288.122 261.031C288.422 260.864 288.752 260.759 289.093 260.723C289.768 260.604 290.462 260.746 291.036 261.122C291.464 261.461 291.811 261.892 292.051 262.383C292.33 262.882 292.51 263.431 292.581 263.998V264.242C292.603 264.366 292.603 264.493 292.581 264.618C292.516 264.727 292.425 264.819 292.316 264.883H292.117C291.603 265.112 291.047 265.233 290.484 265.237C289.922 265.256 289.361 265.174 288.828 264.994L288.299 264.773C288.115 264.667 287.945 264.541 287.791 264.397C287.481 264.111 287.259 263.742 287.151 263.334C287.033 262.93 287.033 262.5 287.151 262.095C287.178 262.003 287.215 261.914 287.261 261.83L287.416 261.586L287.349 261.697ZM288.387 262.405C288.337 262.463 288.3 262.531 288.277 262.604C288.221 262.769 288.221 262.948 288.277 263.113C288.32 263.296 288.412 263.464 288.541 263.6L288.806 263.777C288.919 263.834 289.037 263.879 289.159 263.91C289.547 264.054 289.96 264.122 290.373 264.109C290.704 264.095 291.031 264.035 291.345 263.932C291.273 263.592 291.154 263.265 290.992 262.958C290.837 262.65 290.619 262.378 290.351 262.162C290.037 261.962 289.657 261.891 289.292 261.963C289.118 261.966 288.947 262.007 288.79 262.083C288.634 262.16 288.496 262.27 288.387 262.405Z" fill="#FC4C00"/>
<path fill-rule="evenodd" clip-rule="evenodd" d="M308.118 227.754C307.665 227.835 307.248 228.055 306.926 228.385C306.604 228.715 306.393 229.138 306.323 229.594C306.252 230.05 306.326 230.516 306.533 230.928C306.74 231.34 307.071 231.677 307.478 231.892C308.001 231.925 308.517 231.762 308.925 231.433C309.333 231.105 309.604 230.635 309.685 230.116C309.765 229.597 309.649 229.067 309.359 228.63C309.069 228.193 308.626 227.881 308.118 227.754Z" fill="white"/>
<path fill-rule="evenodd" clip-rule="evenodd" d="M264.722 211.114C262.647 214.566 262.007 219.965 261.279 228.816C260.911 234.563 261.051 240.331 261.698 246.053C262.338 251.748 263.719 257.334 265.804 262.671L264.281 263.268C262.143 257.804 260.726 252.084 260.065 246.252C259.395 240.428 259.255 234.555 259.645 228.705C260.374 219.478 261.036 213.991 263.309 210.229C265.583 206.468 269.093 204.698 275.56 202.795V203.569C272.183 204.764 266.466 208.216 264.722 211.114Z" fill="#FC4C00"/>
<path fill-rule="evenodd" clip-rule="evenodd" d="M270.97 264.485C270.97 265.549 270.655 266.59 270.064 267.475C269.474 268.359 268.635 269.048 267.654 269.455C266.672 269.861 265.592 269.966 264.551 269.757C263.51 269.548 262.555 269.033 261.805 268.279C261.056 267.525 260.547 266.565 260.343 265.52C260.138 264.476 260.247 263.394 260.657 262.412C261.066 261.43 261.757 260.592 262.642 260.003C263.527 259.415 264.566 259.104 265.628 259.108C266.331 259.108 267.028 259.247 267.677 259.518C268.327 259.788 268.917 260.185 269.413 260.684C269.909 261.184 270.302 261.777 270.57 262.429C270.837 263.081 270.973 263.78 270.97 264.485Z" fill="white"/>
<path fill-rule="evenodd" clip-rule="evenodd" d="M268.255 264.485C268.255 265.011 268.099 265.525 267.807 265.962C267.515 266.4 267.1 266.74 266.614 266.94C266.129 267.141 265.595 267.192 265.081 267.088C264.566 266.983 264.095 266.728 263.725 266.355C263.355 265.981 263.105 265.506 263.005 264.989C262.906 264.473 262.961 263.938 263.165 263.454C263.369 262.969 263.712 262.556 264.15 262.266C264.589 261.977 265.103 261.825 265.628 261.83C265.975 261.83 266.318 261.899 266.638 262.032C266.958 262.166 267.249 262.362 267.493 262.609C267.737 262.856 267.93 263.149 268.061 263.471C268.192 263.793 268.257 264.137 268.255 264.485Z" fill="#C9E3E5"/>
<path fill-rule="evenodd" clip-rule="evenodd" d="M264.46 154.58C265.278 152.898 266.608 151.519 268.257 150.641C268.096 148.721 268.416 146.79 269.187 145.025C269.957 143.259 271.155 141.714 272.671 140.529C274.592 139.226 276.752 138.32 279.027 137.864C281.301 137.408 283.643 137.411 285.915 137.874C290.343 138.616 294.553 140.327 298.246 142.886C301.939 145.444 305.025 148.787 307.282 152.677C309.575 156.696 311.016 161.147 311.513 165.75C312.011 170.353 311.555 175.01 310.174 179.429C308.452 184.828 305.296 190.492 306.863 195.825C308.024 198.549 309.427 201.164 311.057 203.636C313.077 208.124 313.483 213.175 312.205 217.93C310.953 222.662 308.916 227.151 306.179 231.206C303.96 234.13 302.313 237.449 301.323 240.986C300.616 244.615 301.874 249.018 305.141 250.412C303.02 250.243 300.957 249.629 299.087 248.612C297.216 247.594 295.579 246.195 294.281 244.504C291.615 240.962 290.435 236.515 290.992 232.113C292.228 222.82 300.969 215.407 300.241 206.025C299.711 199.122 293.994 193.236 294.502 186.31C294.855 181.464 298.254 177.282 298.387 172.414C298.344 170.281 297.808 168.188 296.819 166.298C295.831 164.409 294.418 162.776 292.692 161.528C289.329 159.167 285.6 157.381 281.655 156.239C282.604 157.766 285.165 157.678 286.07 159.182C281.788 157.655 278.3 160.621 273.201 157.678C271.413 163.342 259.648 160.709 264.615 180.048C258.258 166.506 259.449 164.139 264.46 154.58Z" fill="#35375B"/>
</svg>
