<svg width="94" height="102" viewBox="0 0 94 102" fill="none" xmlns="http://www.w3.org/2000/svg">
<path d="M5.11538 28.1548L7.33977 29.2959L5.11538 28.1548ZM6.27242 26.1508L8.37284 27.5066L6.27242 26.1508ZM6.27242 75.8498L8.37284 74.4939L6.27242 75.8498ZM5.11538 73.8457L7.33977 72.7046L5.11538 73.8457ZM48.156 98.6952L48.2799 101.192L48.156 98.6952ZM45.8419 98.6952L45.7179 101.192L45.8419 98.6952ZM88.8825 73.8457L86.6581 72.7046L88.8825 73.8457ZM87.7254 75.8498L85.625 74.4939L87.7254 75.8498ZM87.7254 26.1508L85.625 27.5066L87.7254 26.1508ZM88.8825 28.1548L86.6581 29.2959L88.8825 28.1548ZM48.156 3.30532L48.2799 0.808392L48.156 3.30532ZM45.8419 3.30532L45.7179 0.808392L45.8419 3.30532ZM68.0962 59.2156C67.4787 60.4505 67.9793 61.9522 69.2142 62.5697C70.4492 63.1871 71.9509 62.6866 72.5683 61.4516L68.0962 59.2156ZM54.0962 59.2156C53.4787 60.4505 53.9793 61.9522 55.2142 62.5697C56.4492 63.1871 57.9509 62.6866 58.5683 61.4516L54.0962 59.2156ZM56.5786 51.4929L58.8147 50.3749L58.8147 50.3749L56.5786 51.4929ZM58.5683 49.8822C57.9509 48.6473 56.4492 48.1467 55.2142 48.7642C53.9793 49.3817 53.4787 50.8834 54.0962 52.1183L58.5683 49.8822ZM41.639 49.2671L43.9602 48.3386V48.3386L41.639 49.2671ZM41.639 52.7334L43.9602 53.6619V53.6619L41.639 52.7334ZM39.7723 57.4001L37.4511 56.4716V56.4716L39.7723 57.4001ZM39.7723 44.6004L37.4511 45.5289V45.5289L39.7723 44.6004ZM41.9728 51.0003L39.4728 51.0003L41.9728 51.0003ZM5.04297 51.0003C5.04297 45.0128 5.04526 40.6846 5.3546 37.2227C5.65967 33.8085 6.252 31.4163 7.33977 29.2959L2.891 27.0137C1.40635 29.9078 0.71247 32.9947 0.374441 36.7777C0.0406733 40.5131 0.0429688 45.1004 0.0429688 51.0003H5.04297ZM23.521 10.3352C18.4115 13.2851 14.4376 15.5768 11.3696 17.7335C8.26242 19.9178 5.93602 22.0622 4.17201 24.7949L8.37284 27.5066C9.66529 25.5043 11.4408 23.7953 14.2451 21.824C17.0885 19.8251 20.8356 17.6591 26.021 14.6653L23.521 10.3352ZM7.33977 29.2959C7.65432 28.6828 7.9991 28.0856 8.37284 27.5066L4.17201 24.7949C3.70857 25.5129 3.28104 26.2534 2.891 27.0137L7.33977 29.2959ZM26.021 87.3352C20.8356 84.3415 17.0885 82.1754 14.2451 80.1766C11.4408 78.2052 9.66529 76.4962 8.37284 74.4939L4.17201 77.2056C5.93602 79.9384 8.26242 82.0827 11.3696 84.267C14.4376 86.4237 18.4115 88.7154 23.521 91.6653L26.021 87.3352ZM0.0429688 51.0003C0.0429688 56.9001 0.0406733 61.4874 0.374441 65.2228C0.71247 69.0058 1.40635 72.0927 2.891 74.9868L7.33977 72.7046C6.252 70.5842 5.65967 68.192 5.3546 64.7778C5.04526 61.3159 5.04297 56.9877 5.04297 51.0003H0.0429688ZM8.37284 74.4939C7.9991 73.915 7.65432 73.3178 7.33977 72.7046L2.891 74.9868C3.28104 75.7471 3.70857 76.4876 4.17201 77.2056L8.37284 74.4939ZM67.9769 87.3352C62.7916 90.3289 59.0422 92.491 55.8894 93.9541C52.7801 95.397 50.4122 96.0801 48.032 96.1983L48.2799 101.192C51.5286 101.031 54.5489 100.088 57.9941 98.4895C61.3959 96.9109 65.3675 94.6152 70.4769 91.6653L67.9769 87.3352ZM23.521 91.6653C28.6304 94.6152 32.602 96.9109 36.0038 98.4895C39.449 100.088 42.4693 101.031 45.7179 101.192L45.9659 96.1983C43.5857 96.0801 41.2178 95.397 38.1085 93.9541C34.9557 92.491 31.2063 90.3289 26.021 87.3352L23.521 91.6653ZM48.032 96.1983C47.3437 96.2325 46.6542 96.2325 45.9659 96.1983L45.7179 101.192C46.5714 101.235 47.4265 101.235 48.2799 101.192L48.032 96.1983ZM88.9549 51.0003C88.9549 56.9877 88.9526 61.3159 88.6433 64.7778C88.3382 68.192 87.7459 70.5842 86.6581 72.7046L91.1069 74.9868C92.5915 72.0927 93.2854 69.0058 93.6234 65.2228C93.9572 61.4874 93.9549 56.9001 93.9549 51.0003H88.9549ZM70.4769 91.6653C75.5863 88.7154 79.5602 86.4237 82.6283 84.267C85.7355 82.0827 88.0619 79.9384 89.8259 77.2056L85.625 74.4939C84.3326 76.4962 82.5571 78.2052 79.7528 80.1766C76.9094 82.1754 73.1622 84.3415 67.9769 87.3352L70.4769 91.6653ZM86.6581 72.7046C86.3436 73.3178 85.9988 73.9149 85.625 74.4939L89.8259 77.2056C90.2893 76.4876 90.7168 75.7471 91.1069 74.9868L86.6581 72.7046ZM67.9769 14.6653C73.1622 17.6591 76.9094 19.8251 79.7528 21.824C82.5571 23.7953 84.3326 25.5043 85.625 27.5066L89.8259 24.7949C88.0619 22.0622 85.7355 19.9178 82.6283 17.7335C79.5602 15.5768 75.5863 13.2851 70.4769 10.3352L67.9769 14.6653ZM93.9549 51.0003C93.9549 45.1004 93.9572 40.5131 93.6234 36.7777C93.2854 32.9947 92.5915 29.9078 91.1069 27.0137L86.6581 29.2959C87.7459 31.4163 88.3382 33.8085 88.6433 37.2227C88.9526 40.6846 88.9549 45.0128 88.9549 51.0003H93.9549ZM85.625 27.5066C85.9988 28.0856 86.3436 28.6828 86.6581 29.2959L91.1069 27.0137C90.7168 26.2534 90.2893 25.5129 89.8259 24.7949L85.625 27.5066ZM70.4769 10.3352C65.3675 7.38529 61.3959 5.08963 57.9941 3.511C54.5489 1.91222 51.5286 0.969683 48.2799 0.808392L48.032 5.80224C50.4122 5.92042 52.7801 6.60353 55.8894 8.04644C59.0422 9.50951 62.7916 11.6716 67.9769 14.6653L70.4769 10.3352ZM26.021 14.6653C31.2063 11.6716 34.9557 9.50951 38.1085 8.04644C41.2178 6.60353 43.5857 5.92042 45.9659 5.80224L45.7179 0.808392C42.4693 0.969683 39.449 1.91222 36.0038 3.511C32.602 5.08963 28.6304 7.38529 23.521 10.3352L26.021 14.6653ZM48.2799 0.808392C47.4265 0.766018 46.5714 0.766018 45.7179 0.808392L45.9659 5.80224C46.6542 5.76807 47.3437 5.76807 48.032 5.80224L48.2799 0.808392ZM42.3323 53.5003H69.7814V48.5003H42.3323V53.5003ZM72.5683 61.4516L72.8147 60.959L68.3425 58.7229L68.0962 59.2156L72.5683 61.4516ZM72.8147 60.959C74.4804 57.6275 74.4804 53.7063 72.8147 50.3749L68.3425 52.611C69.3044 54.5347 69.3044 56.7991 68.3425 58.7229L72.8147 60.959ZM58.5683 61.4516L58.8147 60.959L54.3425 58.7229L54.0962 59.2156L58.5683 61.4516ZM58.8147 50.3749L58.5683 49.8822L54.0962 52.1183L54.3425 52.611L58.8147 50.3749ZM58.8147 60.959C60.4804 57.6275 60.4804 53.7063 58.8147 50.3749L54.3425 52.611C55.3044 54.5347 55.3044 56.7991 54.3425 58.7229L58.8147 60.959ZM28.3323 44.1669H35.4394V39.1669H28.3323V44.1669ZM35.4395 57.8336H28.3323V62.8336H35.4395V57.8336ZM26.1656 55.6669V46.3336H21.1656V55.6669H26.1656ZM37.4511 45.5289L39.3178 50.1956L43.9602 48.3386L42.0935 43.672L37.4511 45.5289ZM39.3178 51.8049L37.4511 56.4716L42.0935 58.3286L43.9602 53.6619L39.3178 51.8049ZM28.3323 57.8336C27.1357 57.8336 26.1656 56.8635 26.1656 55.6669H21.1656C21.1656 59.625 24.3742 62.8336 28.3323 62.8336V57.8336ZM35.4395 62.8336C38.3699 62.8336 41.0052 61.0494 42.0935 58.3286L37.4511 56.4716C37.1221 57.2942 36.3254 57.8336 35.4395 57.8336V62.8336ZM35.4394 44.1669C36.3254 44.1669 37.1221 44.7063 37.4511 45.5289L42.0935 43.672C41.0052 40.9511 38.3699 39.1669 35.4394 39.1669V44.1669ZM28.3323 39.1669C24.3742 39.1669 21.1656 42.3756 21.1656 46.3336H26.1656C26.1656 45.137 27.1357 44.1669 28.3323 44.1669V39.1669ZM39.3178 50.1956C39.4211 50.4539 39.4728 50.727 39.4728 51.0003L44.4728 51.0003C44.4728 50.0967 44.3019 49.1929 43.9602 48.3386L39.3178 50.1956ZM39.4728 51.0003C39.4728 51.2736 39.4211 51.5466 39.3178 51.8049L43.9602 53.6619C44.3019 52.8076 44.4728 51.9038 44.4728 51.0003L39.4728 51.0003ZM42.3323 48.5003H41.9728V53.5003H42.3323V48.5003ZM69.7814 53.5003C69.1721 53.5003 68.6151 53.156 68.3425 52.611L72.8147 50.3749C72.2402 49.226 71.066 48.5003 69.7814 48.5003V53.5003Z" fill="#DDDDDD"/>
</svg>
