<svg width="90" height="100" viewBox="0 0 90 100" fill="none" xmlns="http://www.w3.org/2000/svg">
<path d="M12.6183 92.2103L14.0878 90.1878L12.6183 92.2103ZM7.45627 87.0482L9.47881 85.5788L7.45627 87.0482ZM82.5437 87.0482L80.5212 85.5788L82.5437 87.0482ZM77.3817 92.2103L78.8511 94.2329L77.3817 92.2103ZM77.3817 17.1229L78.8511 15.1003L77.3817 17.1229ZM82.5437 22.2849L80.5212 23.7544L82.5437 22.2849ZM12.6183 17.1229L14.0878 19.1454H14.0878L12.6183 17.1229ZM7.45627 22.2849L9.47881 23.7544L7.45627 22.2849ZM78.6832 68.9539L78.2921 66.4846L78.6832 68.9539ZM59.2873 88.3498L56.8181 87.9587L59.2873 88.3498ZM56.5 17.3333C56.5 18.714 57.6193 19.8333 59 19.8333C60.3807 19.8333 61.5 18.714 61.5 17.3333H56.5ZM61.5 3.33325C61.5 1.95254 60.3807 0.833252 59 0.833252C57.6193 0.833252 56.5 1.95254 56.5 3.33325H61.5ZM28.5 17.3333C28.5 18.714 29.6193 19.8333 31 19.8333C32.3807 19.8333 33.5 18.714 33.5 17.3333H28.5ZM33.5 3.33325C33.5 1.95254 32.3807 0.833252 31 0.833252C29.6193 0.833252 28.5 1.95254 28.5 3.33325H33.5ZM86.865 68.6666L89.3635 68.7522L86.865 68.6666ZM59 96.5316L59.0856 99.0301L59 96.5316ZM45 94.1666C36.1949 94.1666 29.792 94.1632 24.8165 93.6241C19.8878 93.0901 16.6574 92.0547 14.0878 90.1878L11.1489 94.2329C14.7128 96.8222 18.9238 98.0149 24.2779 98.595C29.5852 99.17 36.3063 99.1666 45 99.1666V94.1666ZM0.5 54.6666C0.5 63.3603 0.496568 70.0814 1.07158 75.3887C1.65166 80.7428 2.84436 84.9538 5.43373 88.5177L9.47881 85.5788C7.61191 83.0092 6.57648 79.7788 6.04249 74.8501C5.50343 69.8746 5.5 63.4717 5.5 54.6666H0.5ZM14.0878 90.1878C12.3192 88.9028 10.7638 87.3474 9.47881 85.5788L5.43373 88.5177C7.02712 90.7108 8.95577 92.6395 11.1489 94.2329L14.0878 90.1878ZM80.5212 85.5788C79.2362 87.3474 77.6808 88.9028 75.9122 90.1878L78.8511 94.2329C81.0442 92.6395 82.9729 90.7108 84.5663 88.5177L80.5212 85.5788ZM89.5 54.6666C89.5 45.9729 89.5034 39.2518 88.9284 33.9445C88.3483 28.5904 87.1556 24.3794 84.5663 20.8155L80.5212 23.7544C82.3881 26.324 83.4235 29.5544 83.9575 34.4831C84.4966 39.4585 84.5 45.8615 84.5 54.6666H89.5ZM75.9122 19.1454C77.6808 20.4304 79.2362 21.9858 80.5212 23.7544L84.5663 20.8155C82.9729 18.6224 81.0442 16.6937 78.8511 15.1003L75.9122 19.1454ZM5.5 54.6666C5.5 45.8615 5.50343 39.4585 6.04249 34.4831C6.57648 29.5544 7.61191 26.324 9.47881 23.7544L5.43373 20.8155C2.84436 24.3794 1.65166 28.5904 1.07158 33.9445C0.496568 39.2518 0.5 45.9729 0.5 54.6666H5.5ZM11.1489 15.1003C8.95577 16.6937 7.02712 18.6224 5.43373 20.8155L9.47881 23.7544C10.7638 21.9858 12.3192 20.4304 14.0878 19.1454L11.1489 15.1003ZM78.2921 66.4846C67.2382 68.2354 58.5688 76.9048 56.8181 87.9587L61.7565 88.7409C63.1684 79.8264 70.1599 72.835 79.0743 71.4231L78.2921 66.4846ZM33.5 17.3333V12.8016H28.5V17.3333H33.5ZM33.5 12.8016V3.33325H28.5V12.8016H33.5ZM45 10.1666C39.5588 10.1666 34.9066 10.1663 30.9144 10.3031L31.0856 15.3001C34.974 15.1669 39.5312 15.1666 45 15.1666V10.1666ZM30.9144 10.3031C22.184 10.6022 16.0339 11.5511 11.1489 15.1003L14.0878 19.1454C17.6458 16.5604 22.4169 15.5971 31.0856 15.3001L30.9144 10.3031ZM61.5 17.3333V12.8016H56.5V17.3333H61.5ZM61.5 12.8016V3.33325H56.5V12.8016H61.5ZM45 15.1666C50.4688 15.1666 55.026 15.1669 58.9144 15.3001L59.0856 10.3031C55.0934 10.1663 50.4412 10.1666 45 10.1666V15.1666ZM58.9144 15.3001C67.5831 15.5971 72.3542 16.5604 75.9122 19.1454L78.8511 15.1003C73.9661 11.5511 67.816 10.6022 59.0856 10.3031L58.9144 15.3001ZM86.865 66.1666C82.7111 66.1666 80.3294 66.162 78.2921 66.4846L79.0743 71.4231C80.6266 71.1772 82.5278 71.1666 86.865 71.1666L86.865 66.1666ZM84.5 54.6666C84.5 60.1354 84.4997 64.6926 84.3665 68.581L89.3635 68.7522C89.5003 64.76 89.5 60.1077 89.5 54.6666H84.5ZM84.3665 68.581C84.0695 77.2496 83.1062 82.0208 80.5212 85.5788L84.5663 88.5177C88.1154 83.6327 89.0644 77.4826 89.3635 68.7522L84.3665 68.581ZM61.5 96.5316C61.5 92.1944 61.5106 90.2932 61.7565 88.7409L56.8181 87.9587C56.4954 89.996 56.5 92.3776 56.5 96.5316L61.5 96.5316ZM45 99.1666C50.4412 99.1666 55.0934 99.1669 59.0856 99.0301L58.9144 94.0331C55.026 94.1663 50.4688 94.1666 45 94.1666V99.1666ZM59.0856 99.0301C67.816 98.731 73.9661 97.782 78.8511 94.2329L75.9122 90.1878C72.3542 92.7728 67.5831 93.736 58.9144 94.0331L59.0856 99.0301Z" fill="#DDDDDD"/>
<path d="M26.3333 35.9999C26.3333 38.5772 24.244 40.6666 21.6667 40.6666C19.0893 40.6666 17 38.5772 17 35.9999C17 33.4226 19.0893 31.3333 21.6667 31.3333C24.244 31.3333 26.3333 33.4226 26.3333 35.9999Z" fill="#DDDDDD"/>
<path d="M26.3333 54.6666C26.3333 57.2439 24.244 59.3333 21.6667 59.3333C19.0893 59.3333 17 57.2439 17 54.6666C17 52.0893 19.0893 49.9999 21.6667 49.9999C24.244 49.9999 26.3333 52.0893 26.3333 54.6666Z" fill="#DDDDDD"/>
<path d="M49.6667 35.9999C49.6667 38.5772 47.5773 40.6666 45 40.6666C42.4227 40.6666 40.3333 38.5772 40.3333 35.9999C40.3333 33.4226 42.4227 31.3333 45 31.3333C47.5773 31.3333 49.6667 33.4226 49.6667 35.9999Z" fill="#DDDDDD"/>
<path d="M49.6667 54.6666C49.6667 57.2439 47.5773 59.3333 45 59.3333C42.4227 59.3333 40.3333 57.2439 40.3333 54.6666C40.3333 52.0893 42.4227 49.9999 45 49.9999C47.5773 49.9999 49.6667 52.0893 49.6667 54.6666Z" fill="#DDDDDD"/>
<path d="M49.6667 73.3333C49.6667 75.9106 47.5773 77.9999 45 77.9999C42.4227 77.9999 40.3333 75.9106 40.3333 73.3333C40.3333 70.7559 42.4227 68.6666 45 68.6666C47.5773 68.6666 49.6667 70.7559 49.6667 73.3333Z" fill="#DDDDDD"/>
<path d="M73 35.9999C73 38.5772 70.9107 40.6666 68.3333 40.6666C65.756 40.6666 63.6667 38.5772 63.6667 35.9999C63.6667 33.4226 65.756 31.3333 68.3333 31.3333C70.9107 31.3333 73 33.4226 73 35.9999Z" fill="#DDDDDD"/>
<path d="M73 54.6666C73 57.2439 70.9107 59.3333 68.3333 59.3333C65.756 59.3333 63.6667 57.2439 63.6667 54.6666C63.6667 52.0893 65.756 49.9999 68.3333 49.9999C70.9107 49.9999 73 52.0893 73 54.6666Z" fill="#DDDDDD"/>
<path d="M26.3333 73.3333C26.3333 75.9106 24.244 77.9999 21.6667 77.9999C19.0893 77.9999 17 75.9106 17 73.3333C17 70.7559 19.0893 68.6666 21.6667 68.6666C24.244 68.6666 26.3333 70.7559 26.3333 73.3333Z" fill="#DDDDDD"/>
</svg>
