<svg width="90" height="96" viewBox="0 0 90 96" fill="none" xmlns="http://www.w3.org/2000/svg">
<path d="M30.0624 81.1473L28.2612 82.8809H28.2612L30.0624 81.1473ZM30.0256 81.1091L28.234 82.8527L30.0256 81.1091ZM26.707 79.6972L26.7208 77.1972L26.707 79.6972ZM63.293 79.6972L63.2792 77.1972L63.293 79.6972ZM59.9376 81.1473L58.1364 79.4136L59.9376 81.1473ZM59.9744 81.1091L61.766 82.8527L59.9744 81.1091ZM58.4491 82.6937L60.2503 84.4274H60.2503L58.4491 82.6937ZM31.5509 82.6937L33.3521 80.9601H33.3521L31.5509 82.6937ZM45 92.5412V95.0412V92.5412ZM3.00136 56.6156L0.501504 56.6426L3.00136 56.6156ZM26.0815 79.6958L26.0545 82.1956L26.0815 79.6958ZM86.9986 56.6156L89.4985 56.6426L86.9986 56.6156ZM63.9185 79.6958L63.9454 82.1956L63.9185 79.6958ZM74.8492 6.18766L73.651 8.38186L74.8492 6.18766ZM84.1458 15.4843L81.9516 16.6825L84.1458 15.4843ZM15.1508 6.18766L16.349 8.38186L15.1508 6.18766ZM5.85416 15.4843L8.04836 16.6825L5.85416 15.4843ZM13.5921 75.9143L12.2253 78.0076L13.5921 75.9143ZM76.4079 75.9143L77.7747 78.0076L76.4079 75.9143ZM61.1667 31.3335C61.1667 40.2621 53.9286 47.5002 45 47.5002V52.5002C56.69 52.5002 66.1667 43.0235 66.1667 31.3335H61.1667ZM45 47.5002C36.0714 47.5002 28.8333 40.2621 28.8333 31.3335H23.8333C23.8333 43.0235 33.31 52.5002 45 52.5002V47.5002ZM28.8333 31.3335C28.8333 22.4049 36.0714 15.1668 45 15.1668V10.1668C33.31 10.1668 23.8333 19.6435 23.8333 31.3335H28.8333ZM45 15.1668C53.9286 15.1668 61.1667 22.4049 61.1667 31.3335H66.1667C66.1667 19.6435 56.69 10.1668 45 10.1668V15.1668ZM41.1818 5.8335H48.8182V0.833496H41.1818V5.8335ZM84.5 41.5153V56.0432H89.5V41.5153H84.5ZM5.5 56.0432V41.5153H0.5V56.0432H5.5ZM58.1364 79.4136L56.6479 80.9601L60.2503 84.4274L61.7388 82.8809L58.1364 79.4136ZM33.3521 80.9601L31.8636 79.4136L28.2612 82.8809L29.7497 84.4274L33.3521 80.9601ZM31.8636 79.4136C31.8473 79.3966 31.8322 79.3809 31.8172 79.3655L28.234 82.8527C28.2369 82.8557 28.2404 82.8593 28.2612 82.8809L31.8636 79.4136ZM26.6539 82.1971C26.6835 82.1971 26.6888 82.1971 26.6932 82.1972L26.7208 77.1972C26.6994 77.1971 26.678 77.1971 26.6539 77.1971V82.1971ZM31.8172 79.3655C30.4776 77.989 28.6415 77.2078 26.7208 77.1972L26.6932 82.1972C27.2739 82.2004 27.829 82.4365 28.234 82.8527L31.8172 79.3655ZM63.346 77.1971C63.322 77.1971 63.3006 77.1971 63.2792 77.1972L63.3068 82.1972C63.3112 82.1971 63.3165 82.1971 63.346 82.1971V77.1971ZM61.7388 82.8809C61.7587 82.8602 61.7628 82.856 61.766 82.8527L58.1828 79.3655C58.168 79.3807 58.1536 79.3957 58.1364 79.4136L61.7388 82.8809ZM63.2792 77.1972C61.3585 77.2078 59.5224 77.989 58.1828 79.3655L61.766 82.8527C62.171 82.4365 62.7261 82.2004 63.3068 82.1972L63.2792 77.1972ZM56.6479 80.9601C53.4385 84.2945 51.2048 86.6073 49.2936 88.1182C47.4394 89.5841 46.1953 90.0412 45 90.0412V95.0412C47.7756 95.0412 50.0966 93.8571 52.3945 92.0405C54.6354 90.2689 57.1409 87.658 60.2503 84.4274L56.6479 80.9601ZM29.7497 84.4274C32.8591 87.658 35.3646 90.2689 37.6055 92.0405C39.9034 93.8571 42.2244 95.0412 45 95.0412V90.0412C43.8047 90.0412 42.5606 89.5841 40.7064 88.1182C38.7952 86.6073 36.5615 84.2945 33.3521 80.9601L29.7497 84.4274ZM0.5 56.0432C0.5 56.3343 0.499963 56.4998 0.501504 56.6426L5.50121 56.5886C5.50004 56.4796 5.5 56.3474 5.5 56.0432H0.5ZM26.6539 77.1971C26.3497 77.1971 26.2175 77.1971 26.1085 77.1959L26.0545 82.1956C26.1974 82.1972 26.3629 82.1971 26.6539 82.1971V77.1971ZM84.5 56.0432C84.5 56.3473 84.5 56.4796 84.4988 56.5886L89.4985 56.6426C89.5 56.4998 89.5 56.3344 89.5 56.0432H84.5ZM63.346 82.1971C63.6371 82.1971 63.8026 82.1972 63.9454 82.1956L63.8915 77.1959C63.7825 77.1971 63.6503 77.1971 63.346 77.1971V82.1971ZM48.8182 5.8335C55.7967 5.8335 60.871 5.83568 64.8589 6.18095C68.8148 6.52345 71.467 7.1893 73.651 8.38186L76.0473 3.99346C73.0043 2.33185 69.5757 1.57062 65.2902 1.19958C61.0366 0.831311 55.709 0.833496 48.8182 0.833496V5.8335ZM89.5 41.5153C89.5 34.6245 89.5022 29.2969 89.1339 25.0433C88.7629 20.7578 88.0016 17.3292 86.34 14.2862L81.9516 16.6825C83.1442 18.8665 83.81 21.5187 84.1525 25.4746C84.4978 29.4625 84.5 34.5368 84.5 41.5153H89.5ZM73.651 8.38186C77.1563 10.2959 80.0376 13.1772 81.9516 16.6825L86.34 14.2862C83.9666 9.93964 80.3939 6.36687 76.0473 3.99346L73.651 8.38186ZM41.1818 0.833496C34.291 0.833496 28.9634 0.831311 24.7098 1.19958C20.4243 1.57062 16.9957 2.33185 13.9527 3.99346L16.349 8.38186C18.533 7.1893 21.1852 6.52345 25.1411 6.18095C29.129 5.83568 34.2033 5.8335 41.1818 5.8335V0.833496ZM5.5 41.5153C5.5 34.5368 5.50218 29.4624 5.84745 25.4746C6.18996 21.5187 6.8558 18.8665 8.04836 16.6825L3.65997 14.2862C1.99836 17.3292 1.23713 20.7578 0.866088 25.0433C0.497815 29.2969 0.5 34.6245 0.5 41.5153H5.5ZM13.9527 3.99346C9.60615 6.36687 6.03338 9.93964 3.65997 14.2862L8.04836 16.6825C9.9624 13.1772 12.8437 10.2959 16.349 8.38186L13.9527 3.99346ZM31 66.5002H59V61.5002H31V66.5002ZM31 61.5002C22.0062 61.5002 14.3285 67.1084 11.2615 75.0097L15.9227 76.819C18.2681 70.7767 24.1377 66.5002 31 66.5002V61.5002ZM0.501504 56.6426C0.598111 65.594 5.24338 73.4487 12.2253 78.0076L14.9589 73.821C9.3176 70.1375 5.57908 63.8032 5.50121 56.5886L0.501504 56.6426ZM12.2253 78.0076C16.2094 80.609 20.9577 82.1406 26.0545 82.1956L26.1085 77.1959C21.9919 77.1515 18.1691 75.9171 14.9589 73.821L12.2253 78.0076ZM59 66.5002C65.8623 66.5002 71.7319 70.7767 74.0773 76.819L78.7385 75.0097C75.6715 67.1084 67.9938 61.5002 59 61.5002V66.5002ZM84.4988 56.5886C84.4209 63.8032 80.6824 70.1375 75.0411 73.821L77.7747 78.0076C84.7566 73.4487 89.4019 65.594 89.4985 56.6426L84.4988 56.5886ZM75.0411 73.821C71.8309 75.9171 68.008 77.1515 63.8915 77.1959L63.9454 82.1956C69.0423 82.1406 73.7906 80.609 77.7747 78.0076L75.0411 73.821Z" fill="#DDDDDD"/>
</svg>
